M48
; DRILL file {KiCad 7.0.0-da2b9df05c~165~ubuntu22.04.1} date Mon May 29 12:25:48 2023
; FORMAT={-:-/ absolute / metric / decimal}
; #@! TF.CreationDate,2023-05-29T12:25:48+00:00
; #@! TF.GenerationSoftware,Kicad,Pcbnew,7.0.0-da2b9df05c~165~ubuntu22.04.1
; #@! TF.FileFunction,MixedPlating,1,4
FMAT,2
METRIC
; #@! TA.AperFunction,Plated,PTH,ViaDrill
T1C0.200
; #@! TA.AperFunction,Plated,PTH,ViaDrill
T2C0.300
; #@! TA.AperFunction,Plated,PTH,ComponentDrill
T3C0.600
; #@! TA.AperFunction,Plated,PTH,ComponentDrill
T4C1.000
; #@! TA.AperFunction,Plated,PTH,ComponentDrill
T5C1.300
%
G90
G05
T1
X150.45Y-143.03
X150.49Y-148.12
X150.49Y-150.67
X150.5Y-163.38
X150.51Y-155.75
X152.5Y-165.33
X152.73Y-156.78
X152.86Y-154.69
X153.18Y-136.18
X153.39Y-144.76
X153.41Y-146.63
X153.67Y-143.5
X154.07Y-152.51
X154.12Y-147.33
X154.2Y-156.425
X154.26Y-150.27
X154.33Y-140.0
X154.75Y-160.57
X154.94Y-146.36
X155.05Y-165.27
X155.15Y-147.35
X155.24Y-148.69
X155.55Y-151.1
X155.64Y-143.15
X155.775Y-159.125
X156.26Y-150.79
X156.29Y-156.68
X156.35Y-156.07
X156.37Y-155.43
X156.45Y-153.615
X156.65Y-158.36
X156.75Y-144.825
X156.79Y-159.96
X156.8Y-145.7
X156.8Y-146.95
X156.8Y-148.25
X157.05Y-153.7
X157.13Y-157.94
X157.24Y-140.36
X157.675Y-153.725
X158.275Y-153.625
X158.32Y-156.3
X158.325Y-155.7
X158.33Y-155.1
X158.37Y-157.95
X158.44Y-143.99
X158.44Y-151.09
X158.5Y-153.05
X158.9Y-146.4
X158.9Y-147.0
X158.9Y-147.6
X158.9Y-148.2
X158.9Y-148.8
X158.925Y-155.1
X158.925Y-155.7
X158.925Y-156.3
X159.11Y-140.24
X159.11Y-151.07
X159.17Y-160.33
X159.19Y-153.44
X159.29Y-143.99
X159.47Y-157.96
X159.52Y-156.3
X159.525Y-155.7
X159.53Y-155.1
X159.925Y-153.45
X160.01Y-160.33
X160.09Y-140.18
X160.13Y-165.3
X160.56Y-160.87
X160.6Y-162.85
X160.64Y-151.1
X160.97Y-143.44
X160.97Y-143.94
X160.975Y-146.95
X160.975Y-148.225
X160.975Y-149.5
X161.0Y-158.4
X161.19Y-155.3
X161.23Y-142.76
X161.3Y-151.08
X161.58Y-156.27
X161.59Y-157.06
X161.62Y-153.65
X161.63Y-154.28
X162.15Y-151.07
X162.33Y-150.09
X162.5Y-161.31
X162.64Y-161.96
X162.65Y-165.31
X162.9Y-152.34
X163.3Y-145.7
X163.31Y-153.44
X163.38Y-147.02
X163.45Y-139.86
X163.47Y-157.47
X163.475Y-154.775
X163.6Y-156.7
X163.66Y-159.9
X163.85Y-153.82
X163.93Y-158.15
X164.44Y-136.1
X164.51Y-143.44
X164.51Y-143.94
X165.07Y-161.57
X165.52Y-155.87
X165.54Y-145.48
X167.11Y-160.86
X167.16Y-158.28
X167.2Y-143.1
X167.21Y-148.15
T2
X155.0Y-140.41
X155.67Y-140.41
X156.45Y-140.4
X158.87Y-143.48
X161.24Y-140.4
X162.08Y-140.41
X162.75Y-140.41
T4
X151.235Y-134.16
X151.235Y-136.7
X151.235Y-139.24
X151.235Y-141.78
X151.235Y-144.32
X151.235Y-146.86
X151.235Y-149.4
X151.235Y-151.94
X151.235Y-154.48
X151.235Y-157.02
X151.235Y-159.56
X151.235Y-162.1
X151.235Y-164.64
X153.775Y-164.64
X153.78Y-162.1
X156.315Y-164.64
X157.585Y-141.78
X158.855Y-164.64
X160.125Y-141.78
X161.395Y-164.64
X163.935Y-164.64
X166.475Y-134.16
X166.475Y-136.7
X166.475Y-139.24
X166.475Y-141.78
X166.475Y-144.32
X166.475Y-146.86
X166.475Y-149.4
X166.475Y-151.94
X166.475Y-154.48
X166.475Y-157.02
X166.475Y-159.56
X166.475Y-162.1
X166.475Y-164.64
T5
X149.835Y-134.16
X149.835Y-136.7
X149.835Y-139.24
X149.835Y-141.78
X149.835Y-144.32
X149.835Y-146.86
X149.835Y-149.4
X149.835Y-151.94
X149.835Y-154.48
X149.835Y-157.02
X149.835Y-159.56
X149.835Y-162.1
X149.835Y-164.64
X153.775Y-166.04
X156.315Y-166.04
X158.855Y-166.04
X161.395Y-166.04
X163.935Y-166.04
X167.875Y-134.16
X167.875Y-136.7
X167.875Y-139.24
X167.875Y-141.78
X167.875Y-144.32
X167.875Y-146.86
X167.875Y-149.4
X167.875Y-151.94
X167.875Y-154.48
X167.875Y-157.02
X167.875Y-159.56
X167.875Y-162.1
X167.875Y-164.64
T3
X153.28Y-134.68G85X153.28Y-133.58
G05
X153.28Y-138.48G85X153.28Y-137.78
G05
X164.43Y-134.68G85X164.43Y-133.58
G05
X164.43Y-138.48G85X164.43Y-137.78
G05
T0
M30
