M48
; DRILL file {KiCad 7.0.0-da2b9df05c~165~ubuntu22.04.1} date Tue Oct 10 20:55:23 2023
; FORMAT={-:-/ absolute / metric / decimal}
; #@! TF.CreationDate,2023-10-10T20:55:23+00:00
; #@! TF.GenerationSoftware,Kicad,Pcbnew,7.0.0-da2b9df05c~165~ubuntu22.04.1
; #@! TF.FileFunction,MixedPlating,1,4
FMAT,2
METRIC
; #@! TA.AperFunction,Plated,PTH,ViaDrill
T1C0.200
; #@! TA.AperFunction,Plated,PTH,ViaDrill
T2C0.300
; #@! TA.AperFunction,Plated,PTH,ComponentDrill
T3C0.600
; #@! TA.AperFunction,Plated,PTH,ComponentDrill
T4C1.000
; #@! TA.AperFunction,Plated,PTH,ComponentDrill
T5C1.300
%
G90
G05
T1
X67.53Y-91.92
X67.57Y-97.01
X67.57Y-99.56
X67.58Y-112.27
X67.59Y-104.64
X69.58Y-114.22
X69.81Y-105.67
X69.94Y-103.58
X70.26Y-85.07
X70.47Y-93.65
X70.49Y-95.52
X70.75Y-92.39
X71.15Y-101.4
X71.2Y-96.22
X71.28Y-105.315
X71.34Y-99.16
X71.41Y-88.89
X71.83Y-109.46
X72.02Y-95.25
X72.13Y-114.16
X72.23Y-96.24
X72.32Y-97.58
X72.63Y-99.99
X72.72Y-92.04
X72.855Y-108.015
X73.34Y-99.68
X73.37Y-105.57
X73.43Y-104.96
X73.45Y-104.32
X73.53Y-102.505
X73.73Y-107.25
X73.83Y-93.715
X73.87Y-108.85
X73.88Y-94.59
X73.88Y-95.84
X73.88Y-97.14
X74.13Y-102.59
X74.21Y-106.83
X74.32Y-89.25
X74.755Y-102.615
X75.355Y-102.515
X75.4Y-105.19
X75.405Y-104.59
X75.41Y-103.99
X75.45Y-106.84
X75.52Y-92.88
X75.52Y-99.98
X75.58Y-101.94
X75.98Y-95.29
X75.98Y-95.89
X75.98Y-96.49
X75.98Y-97.09
X75.98Y-97.69
X76.005Y-103.99
X76.005Y-104.59
X76.005Y-105.19
X76.19Y-89.13
X76.19Y-99.96
X76.25Y-109.22
X76.27Y-102.33
X76.37Y-92.88
X76.55Y-106.85
X76.6Y-105.19
X76.605Y-104.59
X76.61Y-103.99
X77.005Y-102.34
X77.09Y-109.22
X77.17Y-89.07
X77.21Y-114.19
X77.64Y-109.76
X77.68Y-111.74
X77.72Y-99.99
X78.05Y-92.33
X78.05Y-92.83
X78.055Y-95.84
X78.055Y-97.115
X78.055Y-98.39
X78.08Y-107.29
X78.27Y-104.19
X78.31Y-91.65
X78.38Y-99.97
X78.66Y-105.16
X78.67Y-105.95
X78.7Y-102.54
X78.71Y-103.17
X79.23Y-99.96
X79.41Y-98.98
X79.58Y-110.2
X79.72Y-110.85
X79.73Y-114.2
X79.98Y-101.23
X80.38Y-94.59
X80.39Y-102.33
X80.46Y-95.91
X80.53Y-88.75
X80.55Y-106.36
X80.555Y-103.665
X80.68Y-105.59
X80.74Y-108.79
X80.93Y-102.71
X81.01Y-107.04
X81.52Y-84.99
X81.59Y-92.33
X81.59Y-92.83
X82.15Y-110.46
X82.6Y-104.76
X82.62Y-94.37
X84.19Y-109.75
X84.24Y-107.17
X84.28Y-91.99
X84.29Y-97.04
T2
X72.08Y-89.3
X72.75Y-89.3
X73.53Y-89.29
X75.95Y-92.37
X78.32Y-89.29
X79.16Y-89.3
X79.83Y-89.3
T4
X68.315Y-83.05
X68.315Y-85.59
X68.315Y-88.13
X68.315Y-90.67
X68.315Y-93.21
X68.315Y-95.75
X68.315Y-98.29
X68.315Y-100.83
X68.315Y-103.37
X68.315Y-105.91
X68.315Y-108.45
X68.315Y-110.99
X68.315Y-113.53
X70.855Y-113.53
X70.86Y-110.99
X73.395Y-113.53
X74.665Y-90.67
X75.935Y-113.53
X77.205Y-90.67
X78.475Y-113.53
X81.015Y-113.53
X83.555Y-83.05
X83.555Y-85.59
X83.555Y-88.13
X83.555Y-90.67
X83.555Y-93.21
X83.555Y-95.75
X83.555Y-98.29
X83.555Y-100.83
X83.555Y-103.37
X83.555Y-105.91
X83.555Y-108.45
X83.555Y-110.99
X83.555Y-113.53
T5
X66.735Y-83.05
X66.735Y-85.59
X66.735Y-88.13
X66.735Y-90.67
X66.735Y-93.21
X66.735Y-95.75
X66.735Y-98.29
X66.735Y-100.83
X66.735Y-103.37
X66.735Y-105.91
X66.735Y-108.45
X66.735Y-110.99
X66.735Y-113.53
X70.855Y-115.11
X73.395Y-115.11
X75.935Y-115.11
X78.475Y-115.11
X81.015Y-115.11
X85.135Y-83.05
X85.135Y-85.59
X85.135Y-88.13
X85.135Y-90.67
X85.135Y-93.21
X85.135Y-95.75
X85.135Y-98.29
X85.135Y-100.83
X85.135Y-103.37
X85.135Y-105.91
X85.135Y-108.45
X85.135Y-110.99
X85.135Y-113.53
T3
X70.36Y-83.57G85X70.36Y-82.47
G05
X70.36Y-87.37G85X70.36Y-86.67
G05
X81.51Y-83.57G85X81.51Y-82.47
G05
X81.51Y-87.37G85X81.51Y-86.67
G05
T0
M30
