G04 #@! TF.GenerationSoftware,KiCad,Pcbnew,(6.0.8)*
G04 #@! TF.CreationDate,2022-10-20T21:47:42+02:00*
G04 #@! TF.ProjectId,helios,68656c69-6f73-42e6-9b69-6361645f7063,rev1.0*
G04 #@! TF.SameCoordinates,Original*
G04 #@! TF.FileFunction,Soldermask,Top*
G04 #@! TF.FilePolarity,Negative*
%FSLAX46Y46*%
G04 Gerber Fmt 4.6, Leading zero omitted, Abs format (unit mm)*
G04 Created by KiCad (PCBNEW (6.0.8)) date 2022-10-20 21:47:42*
%MOMM*%
%LPD*%
G01*
G04 APERTURE LIST*
G04 Aperture macros list*
%AMRoundRect*
0 Rectangle with rounded corners*
0 $1 Rounding radius*
0 $2 $3 $4 $5 $6 $7 $8 $9 X,Y pos of 4 corners*
0 Add a 4 corners polygon primitive as box body*
4,1,4,$2,$3,$4,$5,$6,$7,$8,$9,$2,$3,0*
0 Add four circle primitives for the rounded corners*
1,1,$1+$1,$2,$3*
1,1,$1+$1,$4,$5*
1,1,$1+$1,$6,$7*
1,1,$1+$1,$8,$9*
0 Add four rect primitives between the rounded corners*
20,1,$1+$1,$2,$3,$4,$5,0*
20,1,$1+$1,$4,$5,$6,$7,0*
20,1,$1+$1,$6,$7,$8,$9,0*
20,1,$1+$1,$8,$9,$2,$3,0*%
%AMFreePoly0*
4,1,6,1.000000,0.000000,0.500000,-0.750000,-0.500000,-0.750000,-0.500000,0.750000,0.500000,0.750000,1.000000,0.000000,1.000000,0.000000,$1*%
%AMFreePoly1*
4,1,6,0.500000,-0.750000,-0.650000,-0.750000,-0.150000,0.000000,-0.650000,0.750000,0.500000,0.750000,0.500000,-0.750000,0.500000,-0.750000,$1*%
G04 Aperture macros list end*
%ADD10C,0.010000*%
%ADD11R,0.340000X0.700000*%
%ADD12RoundRect,0.135000X0.135000X0.185000X-0.135000X0.185000X-0.135000X-0.185000X0.135000X-0.185000X0*%
%ADD13RoundRect,0.135000X0.185000X-0.135000X0.185000X0.135000X-0.185000X0.135000X-0.185000X-0.135000X0*%
%ADD14RoundRect,0.140000X-0.140000X-0.170000X0.140000X-0.170000X0.140000X0.170000X-0.140000X0.170000X0*%
%ADD15R,0.375000X0.500000*%
%ADD16R,0.300000X0.650000*%
%ADD17RoundRect,0.140000X0.140000X0.170000X-0.140000X0.170000X-0.140000X-0.170000X0.140000X-0.170000X0*%
%ADD18RoundRect,0.050000X-0.387500X-0.050000X0.387500X-0.050000X0.387500X0.050000X-0.387500X0.050000X0*%
%ADD19RoundRect,0.050000X-0.050000X-0.387500X0.050000X-0.387500X0.050000X0.387500X-0.050000X0.387500X0*%
%ADD20R,3.200000X3.200000*%
%ADD21RoundRect,0.135000X-0.135000X-0.185000X0.135000X-0.185000X0.135000X0.185000X-0.135000X0.185000X0*%
%ADD22RoundRect,0.075000X0.075000X0.375000X-0.075000X0.375000X-0.075000X-0.375000X0.075000X-0.375000X0*%
%ADD23RoundRect,0.140000X-0.170000X0.140000X-0.170000X-0.140000X0.170000X-0.140000X0.170000X0.140000X0*%
%ADD24FreePoly0,270.000000*%
%ADD25FreePoly1,270.000000*%
%ADD26C,1.752600*%
%ADD27RoundRect,0.438150X-0.438150X0.438150X-0.438150X-0.438150X0.438150X-0.438150X0.438150X0.438150X0*%
%ADD28RoundRect,0.140000X0.170000X-0.140000X0.170000X0.140000X-0.170000X0.140000X-0.170000X-0.140000X0*%
%ADD29RoundRect,0.147500X-0.172500X0.147500X-0.172500X-0.147500X0.172500X-0.147500X0.172500X0.147500X0*%
%ADD30RoundRect,0.125000X-0.125000X-0.225000X0.125000X-0.225000X0.125000X0.225000X-0.125000X0.225000X0*%
%ADD31R,1.150000X1.000000*%
%ADD32RoundRect,0.026400X-0.493600X-0.193600X0.493600X-0.193600X0.493600X0.193600X-0.493600X0.193600X0*%
%ADD33R,3.400000X4.300000*%
%ADD34RoundRect,0.137500X-0.137500X0.212500X-0.137500X-0.212500X0.137500X-0.212500X0.137500X0.212500X0*%
%ADD35R,0.600000X1.150000*%
%ADD36R,0.300000X1.150000*%
%ADD37O,1.000000X1.700000*%
%ADD38O,1.000000X2.100000*%
%ADD39RoundRect,0.218750X-0.218750X-0.256250X0.218750X-0.256250X0.218750X0.256250X-0.218750X0.256250X0*%
%ADD40RoundRect,0.135000X-0.185000X0.135000X-0.185000X-0.135000X0.185000X-0.135000X0.185000X0.135000X0*%
G04 APERTURE END LIST*
D10*
G04 #@! TO.C,JP2*
X164890000Y-140600000D02*
X164640000Y-140600000D01*
X164640000Y-140600000D02*
X164640000Y-140200000D01*
X164640000Y-140200000D02*
X164890000Y-140200000D01*
X164890000Y-140200000D02*
X164890000Y-140600000D01*
G36*
X164890000Y-140600000D02*
G01*
X164640000Y-140600000D01*
X164640000Y-140200000D01*
X164890000Y-140200000D01*
X164890000Y-140600000D01*
G37*
G04 #@! TO.C,U2*
G36*
X163400000Y-144645000D02*
G01*
X162875000Y-144645000D01*
X162875000Y-144515000D01*
X163120000Y-144265000D01*
X163400000Y-144265000D01*
X163400000Y-144645000D01*
G37*
G36*
X163153143Y-144166857D02*
G01*
X162740000Y-144579999D01*
X162326857Y-144166857D01*
X162740000Y-143753714D01*
X163153143Y-144166857D01*
G37*
X163153143Y-144166857D02*
X162740000Y-144579999D01*
X162326857Y-144166857D01*
X162740000Y-143753714D01*
X163153143Y-144166857D01*
G36*
X162605000Y-143815000D02*
G01*
X162360000Y-144065000D01*
X162080000Y-144065000D01*
X162080000Y-143685000D01*
X162605000Y-143685000D01*
X162605000Y-143815000D01*
G37*
G36*
X162605000Y-144515000D02*
G01*
X162605000Y-144645000D01*
X162080000Y-144645000D01*
X162080000Y-144265000D01*
X162360000Y-144265000D01*
X162605000Y-144515000D01*
G37*
G36*
X163400000Y-144065000D02*
G01*
X163120000Y-144065000D01*
X162875000Y-143815000D01*
X162875000Y-143685000D01*
X163400000Y-143685000D01*
X163400000Y-144065000D01*
G37*
G04 #@! TD*
D11*
G04 #@! TO.C,Q1*
X162120000Y-160470000D03*
X161620000Y-160470000D03*
X161120000Y-160470000D03*
X161120000Y-161970000D03*
X161620000Y-161970000D03*
X162120000Y-161970000D03*
G04 #@! TD*
D12*
G04 #@! TO.C,R5*
X154310000Y-142025000D03*
X153290000Y-142025000D03*
G04 #@! TD*
D13*
G04 #@! TO.C,R3*
X160040000Y-162840000D03*
X160040000Y-161820000D03*
G04 #@! TD*
D14*
G04 #@! TO.C,C3*
X161510000Y-141370000D03*
X162470000Y-141370000D03*
G04 #@! TD*
D15*
G04 #@! TO.C,U1*
X158322500Y-144650000D03*
D16*
X158860000Y-144725000D03*
D15*
X159397500Y-144650000D03*
X159397500Y-142950000D03*
D16*
X158860000Y-142875000D03*
D15*
X158322500Y-142950000D03*
G04 #@! TD*
D17*
G04 #@! TO.C,C1*
X154280000Y-141150000D03*
X153320000Y-141150000D03*
G04 #@! TD*
D18*
G04 #@! TO.C,U4*
X155487500Y-153100000D03*
X155487500Y-153500000D03*
X155487500Y-153900000D03*
X155487500Y-154300000D03*
X155487500Y-154700000D03*
X155487500Y-155100000D03*
X155487500Y-155500000D03*
X155487500Y-155900000D03*
X155487500Y-156300000D03*
X155487500Y-156700000D03*
X155487500Y-157100000D03*
X155487500Y-157500000D03*
X155487500Y-157900000D03*
X155487500Y-158300000D03*
D19*
X156325000Y-159137500D03*
X156725000Y-159137500D03*
X157125000Y-159137500D03*
X157525000Y-159137500D03*
X157925000Y-159137500D03*
X158325000Y-159137500D03*
X158725000Y-159137500D03*
X159125000Y-159137500D03*
X159525000Y-159137500D03*
X159925000Y-159137500D03*
X160325000Y-159137500D03*
X160725000Y-159137500D03*
X161125000Y-159137500D03*
X161525000Y-159137500D03*
D18*
X162362500Y-158300000D03*
X162362500Y-157900000D03*
X162362500Y-157500000D03*
X162362500Y-157100000D03*
X162362500Y-156700000D03*
X162362500Y-156300000D03*
X162362500Y-155900000D03*
X162362500Y-155500000D03*
X162362500Y-155100000D03*
X162362500Y-154700000D03*
X162362500Y-154300000D03*
X162362500Y-153900000D03*
X162362500Y-153500000D03*
X162362500Y-153100000D03*
D19*
X161525000Y-152262500D03*
X161125000Y-152262500D03*
X160725000Y-152262500D03*
X160325000Y-152262500D03*
X159925000Y-152262500D03*
X159525000Y-152262500D03*
X159125000Y-152262500D03*
X158725000Y-152262500D03*
X158325000Y-152262500D03*
X157925000Y-152262500D03*
X157525000Y-152262500D03*
X157125000Y-152262500D03*
X156725000Y-152262500D03*
X156325000Y-152262500D03*
D20*
X158925000Y-155700000D03*
G04 #@! TD*
D11*
G04 #@! TO.C,Q2*
X155025000Y-143925000D03*
X155525000Y-143925000D03*
X156025000Y-143925000D03*
X156025000Y-142425000D03*
X155525000Y-142425000D03*
X155025000Y-142425000D03*
G04 #@! TD*
D21*
G04 #@! TO.C,R14*
X157410000Y-160440000D03*
X158430000Y-160440000D03*
G04 #@! TD*
D14*
G04 #@! TO.C,C12*
X163320000Y-156700000D03*
X164280000Y-156700000D03*
G04 #@! TD*
D22*
G04 #@! TO.C,JP2*
X165040000Y-140400000D03*
X164490000Y-140400000D03*
X163965000Y-140400000D03*
G04 #@! TD*
D23*
G04 #@! TO.C,C9*
X161300000Y-150430000D03*
X161300000Y-151390000D03*
G04 #@! TD*
D21*
G04 #@! TO.C,R9*
X154790000Y-144740000D03*
X155810000Y-144740000D03*
G04 #@! TD*
D24*
G04 #@! TO.C,JP1*
X153390000Y-144905000D03*
D25*
X153390000Y-146355000D03*
G04 #@! TD*
D23*
G04 #@! TO.C,C5*
X161590000Y-143690000D03*
X161590000Y-144650000D03*
G04 #@! TD*
D13*
G04 #@! TO.C,R15*
X163020000Y-149580000D03*
X163020000Y-148560000D03*
G04 #@! TD*
G04 #@! TO.C,R2*
X156750000Y-144320000D03*
X156750000Y-143300000D03*
G04 #@! TD*
D21*
G04 #@! TO.C,R17*
X163290000Y-159025000D03*
X164310000Y-159025000D03*
G04 #@! TD*
D26*
G04 #@! TO.C,J2*
X151235000Y-134160000D03*
X151235000Y-136700000D03*
X151235000Y-139240000D03*
D27*
X151235000Y-141780000D03*
X151235000Y-144320000D03*
D26*
X151235000Y-146860000D03*
X151235000Y-149400000D03*
X151235000Y-151940000D03*
X151235000Y-154480000D03*
X151235000Y-157020000D03*
X151235000Y-159560000D03*
X151235000Y-162100000D03*
X151235000Y-164640000D03*
X153775000Y-164640000D03*
X156315000Y-164640000D03*
X158855000Y-164640000D03*
X161395000Y-164640000D03*
X163935000Y-164640000D03*
X166475000Y-164640000D03*
X166475000Y-162100000D03*
X166475000Y-159560000D03*
X166475000Y-157020000D03*
X166475000Y-154480000D03*
X166475000Y-151940000D03*
X166475000Y-149400000D03*
X166475000Y-146860000D03*
X166475000Y-144320000D03*
X166475000Y-141780000D03*
D27*
X166475000Y-139240000D03*
D26*
X166475000Y-136700000D03*
X166475000Y-134160000D03*
X153780000Y-162100000D03*
X160125000Y-141780000D03*
X157585000Y-141780000D03*
G04 #@! TD*
D11*
G04 #@! TO.C,U5*
X154125000Y-149400000D03*
X154625000Y-149400000D03*
X155125000Y-149400000D03*
X155125000Y-147900000D03*
X154625000Y-147900000D03*
X154125000Y-147900000D03*
G04 #@! TD*
D28*
G04 #@! TO.C,C16*
X155490000Y-151390000D03*
X155490000Y-150430000D03*
G04 #@! TD*
G04 #@! TO.C,C17*
X158450000Y-151390000D03*
X158450000Y-150430000D03*
G04 #@! TD*
D13*
G04 #@! TO.C,R10*
X163910000Y-149580000D03*
X163910000Y-148560000D03*
G04 #@! TD*
D29*
G04 #@! TO.C,D2*
X163020000Y-150415000D03*
X163020000Y-151385000D03*
G04 #@! TD*
D21*
G04 #@! TO.C,R7*
X162870000Y-139430000D03*
X163890000Y-139430000D03*
G04 #@! TD*
D23*
G04 #@! TO.C,C19*
X160010000Y-160010000D03*
X160010000Y-160970000D03*
G04 #@! TD*
D12*
G04 #@! TO.C,R16*
X164310000Y-158150000D03*
X163290000Y-158150000D03*
G04 #@! TD*
D23*
G04 #@! TO.C,C8*
X155320000Y-161670000D03*
X155320000Y-162630000D03*
G04 #@! TD*
D30*
G04 #@! TO.C,D3*
X164500000Y-141390000D03*
X163700000Y-141390000D03*
G04 #@! TD*
D13*
G04 #@! TO.C,R13*
X160120000Y-144310000D03*
X160120000Y-143290000D03*
G04 #@! TD*
G04 #@! TO.C,R12*
X157600000Y-144320000D03*
X157600000Y-143300000D03*
G04 #@! TD*
D31*
G04 #@! TO.C,Y1*
X156345000Y-162850000D03*
X158095000Y-162850000D03*
X158095000Y-161450000D03*
X156345000Y-161450000D03*
G04 #@! TD*
D32*
G04 #@! TO.C,U3*
X156055000Y-145695000D03*
X156055000Y-146965000D03*
X156055000Y-148235000D03*
X156055000Y-149505000D03*
X161745000Y-149505000D03*
X161745000Y-148235000D03*
X161745000Y-146965000D03*
X161745000Y-145695000D03*
D33*
X158900000Y-147600000D03*
G04 #@! TD*
D23*
G04 #@! TO.C,C10*
X160450000Y-150430000D03*
X160450000Y-151390000D03*
G04 #@! TD*
D29*
G04 #@! TO.C,D1*
X163910000Y-150405000D03*
X163910000Y-151375000D03*
G04 #@! TD*
D14*
G04 #@! TO.C,C2*
X155095000Y-141475000D03*
X156055000Y-141475000D03*
G04 #@! TD*
D21*
G04 #@! TO.C,R1*
X161120000Y-162860000D03*
X162140000Y-162860000D03*
G04 #@! TD*
D28*
G04 #@! TO.C,C18*
X162150000Y-151390000D03*
X162150000Y-150430000D03*
G04 #@! TD*
D34*
G04 #@! TO.C,SW1*
X164315000Y-162620000D03*
X164315000Y-159920000D03*
X163165000Y-162620000D03*
X163165000Y-159920000D03*
G04 #@! TD*
D28*
G04 #@! TO.C,C7*
X159140000Y-162630000D03*
X159140000Y-161670000D03*
G04 #@! TD*
D17*
G04 #@! TO.C,C15*
X154505000Y-156425000D03*
X153545000Y-156425000D03*
G04 #@! TD*
D35*
G04 #@! TO.C,J1*
X162055000Y-139430000D03*
X161255000Y-139430000D03*
D36*
X160105000Y-139430000D03*
X159105000Y-139430000D03*
X158605000Y-139430000D03*
X157605000Y-139430000D03*
D35*
X156455000Y-139430000D03*
X155655000Y-139430000D03*
X155655000Y-139430000D03*
X156455000Y-139430000D03*
D36*
X157105000Y-139430000D03*
X158105000Y-139430000D03*
X159605000Y-139430000D03*
X160605000Y-139430000D03*
D35*
X161255000Y-139430000D03*
X162055000Y-139430000D03*
D37*
X164430000Y-138130000D03*
X153280000Y-138130000D03*
D38*
X153280000Y-134130000D03*
X164430000Y-134130000D03*
G04 #@! TD*
D23*
G04 #@! TO.C,C11*
X159170000Y-160010000D03*
X159170000Y-160970000D03*
G04 #@! TD*
D14*
G04 #@! TO.C,C13*
X163310000Y-153100000D03*
X164270000Y-153100000D03*
G04 #@! TD*
D39*
G04 #@! TO.C,F1*
X162122500Y-142310000D03*
X163697500Y-142310000D03*
G04 #@! TD*
D13*
G04 #@! TO.C,R11*
X154800000Y-146710000D03*
X154800000Y-145690000D03*
G04 #@! TD*
D14*
G04 #@! TO.C,C6*
X162990000Y-145690000D03*
X163950000Y-145690000D03*
G04 #@! TD*
D12*
G04 #@! TO.C,R8*
X154830000Y-139430000D03*
X153810000Y-139430000D03*
G04 #@! TD*
D40*
G04 #@! TO.C,R6*
X153275000Y-142865000D03*
X153275000Y-143885000D03*
G04 #@! TD*
D23*
G04 #@! TO.C,C4*
X163890000Y-143690000D03*
X163890000Y-144650000D03*
G04 #@! TD*
D13*
G04 #@! TO.C,R4*
X154300000Y-143885000D03*
X154300000Y-142865000D03*
G04 #@! TD*
D28*
G04 #@! TO.C,C14*
X159300000Y-151390000D03*
X159300000Y-150430000D03*
G04 #@! TD*
D13*
G04 #@! TO.C,FB1*
X164420000Y-136740000D03*
X164420000Y-135720000D03*
G04 #@! TD*
M02*
