G04 #@! TF.GenerationSoftware,KiCad,Pcbnew,7.0.0-da2b9df05c~165~ubuntu22.04.1*
G04 #@! TF.CreationDate,2023-10-10T20:55:23+00:00*
G04 #@! TF.ProjectId,helios,68656c69-6f73-42e6-9b69-6361645f7063,rev1.0*
G04 #@! TF.SameCoordinates,Original*
G04 #@! TF.FileFunction,Copper,L3,Inr*
G04 #@! TF.FilePolarity,Positive*
%FSLAX46Y46*%
G04 Gerber Fmt 4.6, Leading zero omitted, Abs format (unit mm)*
G04 Created by KiCad (PCBNEW 7.0.0-da2b9df05c~165~ubuntu22.04.1) date 2023-10-10 20:55:23*
%MOMM*%
%LPD*%
G01*
G04 APERTURE LIST*
G04 Aperture macros list*
%AMRoundRect*
0 Rectangle with rounded corners*
0 $1 Rounding radius*
0 $2 $3 $4 $5 $6 $7 $8 $9 X,Y pos of 4 corners*
0 Add a 4 corners polygon primitive as box body*
4,1,4,$2,$3,$4,$5,$6,$7,$8,$9,$2,$3,0*
0 Add four circle primitives for the rounded corners*
1,1,$1+$1,$2,$3*
1,1,$1+$1,$4,$5*
1,1,$1+$1,$6,$7*
1,1,$1+$1,$8,$9*
0 Add four rect primitives between the rounded corners*
20,1,$1+$1,$2,$3,$4,$5,0*
20,1,$1+$1,$4,$5,$6,$7,0*
20,1,$1+$1,$6,$7,$8,$9,0*
20,1,$1+$1,$8,$9,$2,$3,0*%
G04 Aperture macros list end*
G04 #@! TA.AperFunction,CastellatedPad*
%ADD10C,1.700000*%
G04 #@! TD*
G04 #@! TA.AperFunction,ComponentPad*
%ADD11O,3.230000X1.700000*%
G04 #@! TD*
G04 #@! TA.AperFunction,ComponentPad*
%ADD12O,3.230000X1.720000*%
G04 #@! TD*
G04 #@! TA.AperFunction,CastellatedPad*
%ADD13RoundRect,0.425000X0.425000X0.425000X-0.425000X0.425000X-0.425000X-0.425000X0.425000X-0.425000X0*%
G04 #@! TD*
G04 #@! TA.AperFunction,ComponentPad*
%ADD14RoundRect,0.425000X-1.190000X-0.425000X1.190000X-0.425000X1.190000X0.425000X-1.190000X0.425000X0*%
G04 #@! TD*
G04 #@! TA.AperFunction,ComponentPad*
%ADD15O,1.700000X3.230000*%
G04 #@! TD*
G04 #@! TA.AperFunction,CastellatedPad*
%ADD16O,1.700000X1.700000*%
G04 #@! TD*
G04 #@! TA.AperFunction,ComponentPad*
%ADD17O,3.230000X1.710000*%
G04 #@! TD*
G04 #@! TA.AperFunction,ComponentPad*
%ADD18RoundRect,0.350000X0.000000X-0.494975X0.494975X0.000000X0.000000X0.494975X-0.494975X0.000000X0*%
G04 #@! TD*
G04 #@! TA.AperFunction,CastellatedPad*
%ADD19RoundRect,0.350000X-0.999755X-0.500000X0.999755X-0.500000X0.999755X0.500000X-0.999755X0.500000X0*%
G04 #@! TD*
G04 #@! TA.AperFunction,ComponentPad*
%ADD20O,3.000000X1.700000*%
G04 #@! TD*
G04 #@! TA.AperFunction,ComponentPad*
%ADD21RoundRect,0.425000X1.190000X0.425000X-1.190000X0.425000X-1.190000X-0.425000X1.190000X-0.425000X0*%
G04 #@! TD*
G04 #@! TA.AperFunction,CastellatedPad*
%ADD22RoundRect,0.425000X-0.425000X-0.425000X0.425000X-0.425000X0.425000X0.425000X-0.425000X0.425000X0*%
G04 #@! TD*
G04 #@! TA.AperFunction,ComponentPad*
%ADD23C,1.700000*%
G04 #@! TD*
G04 #@! TA.AperFunction,ComponentPad*
%ADD24O,1.000000X1.700000*%
G04 #@! TD*
G04 #@! TA.AperFunction,ComponentPad*
%ADD25O,1.000000X2.100000*%
G04 #@! TD*
G04 #@! TA.AperFunction,ViaPad*
%ADD26C,0.460000*%
G04 #@! TD*
G04 #@! TA.AperFunction,ViaPad*
%ADD27C,0.600000*%
G04 #@! TD*
G04 #@! TA.AperFunction,Conductor*
%ADD28C,0.200000*%
G04 #@! TD*
G04 #@! TA.AperFunction,Conductor*
%ADD29C,0.500000*%
G04 #@! TD*
G04 APERTURE END LIST*
D10*
G04 #@! TO.N,/10*
G04 #@! TO.C,J2*
X66735000Y-83050000D03*
D11*
X67499999Y-83049999D03*
D10*
G04 #@! TO.N,/0_TX0*
X66735000Y-85590000D03*
D12*
X67499999Y-85599999D03*
D10*
G04 #@! TO.N,/1_RX0*
X66735000Y-88130000D03*
D11*
X67499999Y-88129999D03*
D13*
G04 #@! TO.N,GND*
X66735000Y-90670000D03*
D14*
X67500000Y-90670000D03*
D13*
X66735000Y-93210000D03*
D14*
X67500000Y-93210000D03*
D10*
G04 #@! TO.N,/2_SDA1*
X66735000Y-95750000D03*
D11*
X67499999Y-95749999D03*
D10*
G04 #@! TO.N,/3_SCL1*
X66735000Y-98290000D03*
D11*
X67499999Y-98289999D03*
D10*
G04 #@! TO.N,/4*
X66735000Y-100830000D03*
D11*
X67499999Y-100829999D03*
D10*
G04 #@! TO.N,/5*
X66735000Y-103370000D03*
D11*
X67499999Y-103369999D03*
D10*
G04 #@! TO.N,/6*
X66735000Y-105910000D03*
D11*
X67499999Y-105909999D03*
D10*
G04 #@! TO.N,/7*
X66735000Y-108450000D03*
D11*
X67499999Y-108449999D03*
D10*
G04 #@! TO.N,/8*
X66735000Y-110990000D03*
D11*
X67499999Y-110989999D03*
D10*
G04 #@! TO.N,/9*
X66735000Y-113530000D03*
D11*
X67499999Y-113529999D03*
D15*
G04 #@! TO.N,/12*
X70854999Y-114344999D03*
D10*
X70855000Y-115110000D03*
D15*
G04 #@! TO.N,/13*
X73394999Y-114344999D03*
D16*
X73394999Y-115109999D03*
D15*
G04 #@! TO.N,/14*
X75934999Y-114344999D03*
D16*
X75934999Y-115109999D03*
D15*
G04 #@! TO.N,/15*
X78474999Y-114344999D03*
D16*
X78474999Y-115109999D03*
D15*
G04 #@! TO.N,/16*
X81014999Y-114344999D03*
D16*
X81014999Y-115109999D03*
D11*
G04 #@! TO.N,/21_CS*
X84369999Y-113529999D03*
D10*
X85135000Y-113530000D03*
D12*
G04 #@! TO.N,/23_SDO*
X84369999Y-110999999D03*
D10*
X85135000Y-110990000D03*
D17*
G04 #@! TO.N,/20_SDI*
X84369999Y-108454999D03*
D10*
X85135000Y-108450000D03*
D11*
G04 #@! TO.N,/22_SCK*
X84369999Y-105909999D03*
D10*
X85135000Y-105910000D03*
D11*
G04 #@! TO.N,/A0*
X84369999Y-103369999D03*
D10*
X85135000Y-103370000D03*
D11*
G04 #@! TO.N,/A1*
X84369999Y-100829999D03*
D10*
X85135000Y-100830000D03*
D11*
G04 #@! TO.N,/A2*
X84369999Y-98289999D03*
D10*
X85135000Y-98290000D03*
D17*
G04 #@! TO.N,/A3*
X84369999Y-95754999D03*
D10*
X85135000Y-95750000D03*
D18*
G04 #@! TO.N,+3V3*
X83555000Y-93210000D03*
D19*
X84584755Y-93210000D03*
D20*
G04 #@! TO.N,/RESET*
X84254999Y-90669999D03*
D10*
X85135000Y-90670000D03*
D21*
G04 #@! TO.N,GND*
X84370000Y-88130000D03*
D22*
X85135000Y-88130000D03*
D18*
G04 #@! TO.N,/RAW*
X83555000Y-85590000D03*
D19*
X84584755Y-85590000D03*
D17*
G04 #@! TO.N,/11*
X84369999Y-83054999D03*
D10*
X85135000Y-83050000D03*
D23*
G04 #@! TO.N,/RGB_5V*
X70860000Y-110990000D03*
G04 #@! TO.N,/PORT-*
X77205000Y-90670000D03*
G04 #@! TO.N,/PORT+*
X74665000Y-90670000D03*
G04 #@! TD*
D24*
G04 #@! TO.N,Net-(J1-SHIELD)*
G04 #@! TO.C,J1*
X81509999Y-87019999D03*
G04 #@! TO.N,N/C*
X70359999Y-87019999D03*
D25*
X70359999Y-83019999D03*
X81509999Y-83019999D03*
G04 #@! TD*
D26*
G04 #@! TO.N,GND*
X77210000Y-114190000D03*
X67530000Y-91920000D03*
X84240000Y-107170000D03*
D27*
X72750000Y-89300000D03*
D26*
X84190000Y-109750000D03*
X75400000Y-105190000D03*
X69810000Y-105670000D03*
X81520000Y-84990000D03*
X72130000Y-114160000D03*
X69580000Y-114220000D03*
X82620000Y-94370000D03*
X67570000Y-99560000D03*
X75980000Y-95890000D03*
X79580000Y-110200000D03*
X69940000Y-103580000D03*
X70260000Y-85070000D03*
X79410000Y-98980000D03*
X75980000Y-95290000D03*
X79730000Y-114200000D03*
D27*
X79830000Y-89300000D03*
D26*
X75980000Y-96490000D03*
X76610000Y-103990000D03*
X75980000Y-97690000D03*
X75980000Y-97090000D03*
D27*
X72080000Y-89300000D03*
D26*
X67590000Y-104640000D03*
X76005000Y-105190000D03*
X70750000Y-92390000D03*
X75410000Y-103990000D03*
X67570000Y-97010000D03*
X84280000Y-91990000D03*
X76605000Y-104590000D03*
X76600000Y-105190000D03*
X77640000Y-109760000D03*
X71340000Y-99160000D03*
X80460000Y-95910000D03*
X76005000Y-104590000D03*
X82150000Y-110460000D03*
X67580000Y-112270000D03*
D27*
X79160000Y-89300000D03*
D26*
X84290000Y-97040000D03*
X75405000Y-104590000D03*
X76005000Y-103990000D03*
X78310000Y-91650000D03*
X71830000Y-109460000D03*
D27*
G04 #@! TO.N,+5V*
X75950000Y-92370000D03*
D26*
X81590000Y-92330000D03*
X81590000Y-92830000D03*
X71200000Y-96220000D03*
G04 #@! TO.N,+3V3*
X80380000Y-94590000D03*
X70470000Y-93650000D03*
X78050000Y-92330000D03*
X72630000Y-99990000D03*
X78380000Y-99970000D03*
X73830000Y-93715000D03*
X72020000Y-95250000D03*
X76190000Y-99960000D03*
X78050000Y-92830000D03*
X71280000Y-105315000D03*
X76250000Y-109220000D03*
X80390000Y-102330000D03*
X77680000Y-111740000D03*
X80680000Y-105590000D03*
X79230000Y-99960000D03*
G04 #@! TO.N,+1V1*
X75520000Y-99980000D03*
X77090000Y-109220000D03*
X77720000Y-99990000D03*
G04 #@! TO.N,VBUS*
X81010000Y-107040000D03*
D27*
X78320000Y-89290000D03*
X73530000Y-89290000D03*
D26*
G04 #@! TO.N,Net-(D1-A)*
X70490000Y-95520000D03*
X79980000Y-101230000D03*
G04 #@! TO.N,/PORT+*
X76190000Y-89130000D03*
G04 #@! TO.N,/10*
X73430000Y-104960000D03*
G04 #@! TO.N,/0_TX0*
X71150000Y-101400000D03*
G04 #@! TO.N,/7*
X73370000Y-105570000D03*
G04 #@! TO.N,/12*
X72855000Y-108015000D03*
G04 #@! TO.N,/13*
X73730000Y-107250000D03*
G04 #@! TO.N,/14*
X73870000Y-108850000D03*
G04 #@! TO.N,/15*
X74210000Y-106830000D03*
G04 #@! TO.N,/16*
X78080000Y-107290000D03*
G04 #@! TO.N,/21_CS*
X78670000Y-105950000D03*
G04 #@! TO.N,/23_SDO*
X82600000Y-104760000D03*
G04 #@! TO.N,/20_SDI*
X80550000Y-106360000D03*
G04 #@! TO.N,/22_SCK*
X78660000Y-105160000D03*
G04 #@! TO.N,/A0*
X80555000Y-103665000D03*
G04 #@! TO.N,/A1*
X78710000Y-103170000D03*
G04 #@! TO.N,/A2*
X80930000Y-102710000D03*
G04 #@! TO.N,/A3*
X78700000Y-102540000D03*
G04 #@! TO.N,/RESET*
X80740000Y-108790000D03*
G04 #@! TO.N,/11*
X73450000Y-104320000D03*
G04 #@! TO.N,/RGB_5V*
X72230000Y-96240000D03*
G04 #@! TO.N,/QSPI_CS*
X73880000Y-94590000D03*
X73340000Y-99680000D03*
G04 #@! TO.N,/D+*
X76270000Y-102330000D03*
X75520000Y-92880000D03*
G04 #@! TO.N,/D-*
X76370000Y-92880000D03*
X77005000Y-102340000D03*
G04 #@! TO.N,Net-(J1-CC1)*
X80530000Y-88750000D03*
X77170000Y-89070000D03*
G04 #@! TO.N,/SWD_CLK*
X75450000Y-106840000D03*
G04 #@! TO.N,/SWD_IO*
X76550000Y-106850000D03*
G04 #@! TO.N,Net-(J1-CC2)*
X71410000Y-88890000D03*
X74320000Y-89250000D03*
G04 #@! TO.N,/RGB_DO*
X72320000Y-97580000D03*
X78270000Y-104190000D03*
G04 #@! TO.N,/QSPI_SD3*
X78055000Y-95840000D03*
X75580000Y-101940000D03*
G04 #@! TO.N,/QSPI_CLK*
X78055000Y-97115000D03*
X75355000Y-102515000D03*
G04 #@! TO.N,/QSPI_SD0*
X74755000Y-102615000D03*
X78055000Y-98390000D03*
G04 #@! TO.N,/QSPI_SD2*
X74130000Y-102590000D03*
X73880000Y-97140000D03*
G04 #@! TO.N,/QSPI_SD1*
X73880000Y-95840000D03*
X73530000Y-102504691D03*
G04 #@! TO.N,Net-(Q1A-D)*
X79720000Y-110850000D03*
X72720000Y-92040000D03*
G04 #@! TD*
D28*
G04 #@! TO.N,+1V1*
X77580000Y-108036982D02*
X77580000Y-102565131D01*
X75520000Y-99980000D02*
X76560000Y-101020000D01*
X77208676Y-101668676D02*
X76560000Y-101020000D01*
X77720000Y-99990000D02*
X77590000Y-99990000D01*
X77590000Y-99990000D02*
X76560000Y-101020000D01*
X77579971Y-102565131D02*
G75*
G03*
X77208675Y-101668677I-1267771J31D01*
G01*
X77090010Y-109220010D02*
G75*
G03*
X77580000Y-108036982I-1183110J1183010D01*
G01*
G04 #@! TO.N,VBUS*
X81714000Y-105340379D02*
X81714000Y-97483824D01*
D29*
X77400010Y-88370000D02*
X74449988Y-88370000D01*
X74449988Y-88370000D02*
G75*
G03*
X73530000Y-89290000I12J-920000D01*
G01*
D28*
X81010002Y-107040002D02*
G75*
G03*
X81714000Y-105340379I-1699602J1699602D01*
G01*
D29*
X78320000Y-89290000D02*
G75*
G03*
X77400010Y-88370000I-920000J0D01*
G01*
D28*
X81713983Y-97483824D02*
G75*
G03*
X78320000Y-89290000I-11587783J24D01*
G01*
G04 #@! TO.N,/10*
X73399662Y-104960000D02*
X70114808Y-101675146D01*
X69560000Y-100335720D02*
X69560000Y-86055652D01*
X73430000Y-104960000D02*
X73399662Y-104960000D01*
X69559976Y-100335720D02*
G75*
G03*
X70114808Y-101675146I1894224J20D01*
G01*
X69560030Y-86055652D02*
G75*
G03*
X68314999Y-83050001I-4250630J-48D01*
G01*
G04 #@! TO.N,/7*
X73370000Y-105570000D02*
X72027926Y-106912074D01*
X68315000Y-108450033D02*
G75*
G03*
X72027926Y-106912074I0J5250833D01*
G01*
G04 #@! TO.N,/23_SDO*
X82600000Y-104760000D02*
X82470000Y-104890000D01*
X82470000Y-104890000D02*
X82470000Y-108612665D01*
X83555000Y-110990000D02*
X83383865Y-110818871D01*
X82470029Y-108612665D02*
G75*
G03*
X83383865Y-110818871I3119971J-35D01*
G01*
G04 #@! TO.N,/RESET*
X82014000Y-105714353D02*
X82014000Y-94390288D01*
X80740032Y-108790032D02*
G75*
G03*
X82014000Y-105714353I-3075632J3075632D01*
G01*
X83554999Y-90669999D02*
G75*
G03*
X82014000Y-94390288I3720301J-3720301D01*
G01*
G04 #@! TO.N,/RGB_5V*
X73953180Y-106217408D02*
X72047534Y-108123054D01*
X72734862Y-102804155D02*
X74002615Y-104071908D01*
X71846000Y-97167078D02*
X71846000Y-100658253D01*
X72230012Y-96240012D02*
G75*
G03*
X71846000Y-97167078I927088J-927088D01*
G01*
X73953180Y-106217408D02*
G75*
G03*
X74422247Y-105085027I-1132380J1132408D01*
G01*
X72047526Y-108123046D02*
G75*
G03*
X70860000Y-110990000I2866974J-2866954D01*
G01*
X74422244Y-105085027D02*
G75*
G03*
X74002614Y-104071909I-1432744J27D01*
G01*
X71846045Y-100658253D02*
G75*
G03*
X72734863Y-102804154I3034755J-47D01*
G01*
G04 #@! TO.N,/QSPI_CS*
X73106000Y-99115089D02*
X73106000Y-96458578D01*
X73106011Y-99115089D02*
G75*
G03*
X73340000Y-99680000I798889J-11D01*
G01*
X73880000Y-94590000D02*
G75*
G03*
X73106000Y-96458578I1868600J-1868600D01*
G01*
G04 #@! TO.N,/QSPI_SD3*
X75031951Y-99689125D02*
X75031951Y-100616885D01*
X78870000Y-97807501D02*
X78870000Y-98535187D01*
X78045187Y-99360000D02*
X75361076Y-99360000D01*
X75361076Y-99359951D02*
G75*
G03*
X75031951Y-99689125I24J-329149D01*
G01*
X75031955Y-100616885D02*
G75*
G03*
X75580001Y-101939999I1871145J-15D01*
G01*
X78869994Y-97807501D02*
G75*
G03*
X78055000Y-95840000I-2782394J1D01*
G01*
X78045187Y-99360000D02*
G75*
G03*
X78870000Y-98535187I13J824800D01*
G01*
G04 #@! TO.N,/QSPI_CLK*
X74730000Y-100906120D02*
X74730000Y-99633734D01*
X75323734Y-99040000D02*
X78029000Y-99040000D01*
X75355000Y-102515000D02*
X75355000Y-102415000D01*
X78529000Y-98540000D02*
X78529000Y-98259378D01*
X78529026Y-98259378D02*
G75*
G03*
X78055000Y-97115000I-1618426J-22D01*
G01*
X75323734Y-99040000D02*
G75*
G03*
X74730000Y-99633734I-34J-593700D01*
G01*
X78029000Y-99040000D02*
G75*
G03*
X78529000Y-98540000I0J500000D01*
G01*
X74729994Y-100906120D02*
G75*
G03*
X75355001Y-102414999I2133906J20D01*
G01*
G04 #@! TO.N,/QSPI_SD0*
X74755000Y-102544662D02*
X74755000Y-102615000D01*
X76850000Y-98336690D02*
X76850000Y-98590000D01*
X77150000Y-98590000D02*
X77150000Y-98336690D01*
X76250000Y-98336690D02*
X76250000Y-98590000D01*
X76550000Y-98590000D02*
X76550000Y-98336690D01*
X78055000Y-98390000D02*
X77991354Y-98453646D01*
X76100000Y-98740000D02*
X75268755Y-98740000D01*
X74430000Y-99578755D02*
X74430000Y-101760073D01*
X76100000Y-98740000D02*
G75*
G03*
X76250000Y-98590000I0J150000D01*
G01*
X76400000Y-98186700D02*
G75*
G03*
X76250000Y-98336690I0J-150000D01*
G01*
X77150000Y-98590000D02*
G75*
G03*
X77300000Y-98740000I150000J0D01*
G01*
X77150010Y-98336690D02*
G75*
G03*
X77000000Y-98186690I-150010J-10D01*
G01*
X74430006Y-101760073D02*
G75*
G03*
X74755000Y-102544662I1109494J-27D01*
G01*
X76550000Y-98590000D02*
G75*
G03*
X76700000Y-98740000I150000J0D01*
G01*
X77000000Y-98186700D02*
G75*
G03*
X76850000Y-98336690I0J-150000D01*
G01*
X77300000Y-98740016D02*
G75*
G03*
X77991354Y-98453646I0J977716D01*
G01*
X76550010Y-98336690D02*
G75*
G03*
X76400000Y-98186690I-150010J-10D01*
G01*
X76700000Y-98740000D02*
G75*
G03*
X76850000Y-98590000I0J150000D01*
G01*
X75268755Y-98740000D02*
G75*
G03*
X74430000Y-99578755I45J-838800D01*
G01*
G04 #@! TO.N,/QSPI_SD2*
X74280000Y-98140000D02*
X74980000Y-98140000D01*
X74130000Y-98640000D02*
X74130000Y-102590000D01*
X73880000Y-97140000D02*
X74130000Y-97390000D01*
X74980000Y-98440000D02*
X74280000Y-98440000D01*
X74280000Y-97540000D02*
X74980000Y-97540000D01*
X74130000Y-98590000D02*
X74130000Y-98640000D01*
X74980000Y-97840000D02*
X74280000Y-97840000D01*
X74130000Y-97390000D02*
G75*
G03*
X74280000Y-97540000I150000J0D01*
G01*
X74280000Y-97840000D02*
G75*
G03*
X74130000Y-97990000I0J-150000D01*
G01*
X74130000Y-97990000D02*
G75*
G03*
X74280000Y-98140000I150000J0D01*
G01*
X74280000Y-98440000D02*
G75*
G03*
X74130000Y-98590000I0J-150000D01*
G01*
X75130000Y-97690000D02*
G75*
G03*
X74980000Y-97540000I-150000J0D01*
G01*
X75130000Y-98290000D02*
G75*
G03*
X74980000Y-98140000I-150000J0D01*
G01*
X74980000Y-98440000D02*
G75*
G03*
X75130000Y-98290000I0J150000D01*
G01*
X74980000Y-97840000D02*
G75*
G03*
X75130000Y-97690000I0J150000D01*
G01*
G04 #@! TO.N,/QSPI_SD1*
X73556000Y-98334000D02*
X73656000Y-98334000D01*
X73680000Y-101870000D02*
X73580000Y-101870000D01*
X73683553Y-99307553D02*
X73552446Y-99176446D01*
X73406000Y-97834000D02*
X73406000Y-96984289D01*
X73830000Y-100170000D02*
X73830000Y-99661107D01*
X73406000Y-98822893D02*
X73406000Y-98484000D01*
X73406000Y-97884000D02*
X73406000Y-97834000D01*
X73656000Y-98034000D02*
X73556000Y-98034000D01*
X73530000Y-102504691D02*
X73699407Y-102335284D01*
X73680000Y-100670000D02*
X73580000Y-100670000D01*
X73830000Y-100220000D02*
X73830000Y-100170000D01*
X73580000Y-100370000D02*
X73680000Y-100370000D01*
X73580000Y-100970000D02*
X73680000Y-100970000D01*
X73580000Y-101570000D02*
X73680000Y-101570000D01*
X73680000Y-101270000D02*
X73580000Y-101270000D01*
X73680000Y-101570000D02*
G75*
G03*
X73830000Y-101420000I0J150000D01*
G01*
X73680000Y-100370000D02*
G75*
G03*
X73830000Y-100220000I0J150000D01*
G01*
X73656000Y-98334000D02*
G75*
G03*
X73806000Y-98184000I0J150000D01*
G01*
X73699410Y-102335287D02*
G75*
G03*
X73830000Y-102020000I-315310J315287D01*
G01*
X73680000Y-100970000D02*
G75*
G03*
X73830000Y-100820000I0J150000D01*
G01*
X73830000Y-101420000D02*
G75*
G03*
X73680000Y-101270000I-150000J0D01*
G01*
X73430000Y-100520000D02*
G75*
G03*
X73580000Y-100670000I150000J0D01*
G01*
X73829995Y-99661107D02*
G75*
G03*
X73683553Y-99307553I-499995J7D01*
G01*
X73406005Y-98822893D02*
G75*
G03*
X73552446Y-99176446I499995J-7D01*
G01*
X73880010Y-95840010D02*
G75*
G03*
X73406000Y-96984289I1144190J-1144290D01*
G01*
X73830000Y-102020000D02*
G75*
G03*
X73680000Y-101870000I-150000J0D01*
G01*
X73830000Y-100820000D02*
G75*
G03*
X73680000Y-100670000I-150000J0D01*
G01*
X73430000Y-101720000D02*
G75*
G03*
X73580000Y-101870000I150000J0D01*
G01*
X73580000Y-101570000D02*
G75*
G03*
X73430000Y-101720000I0J-150000D01*
G01*
X73556000Y-98334000D02*
G75*
G03*
X73406000Y-98484000I0J-150000D01*
G01*
X73580000Y-100970000D02*
G75*
G03*
X73430000Y-101120000I0J-150000D01*
G01*
X73806000Y-98184000D02*
G75*
G03*
X73656000Y-98034000I-150000J0D01*
G01*
X73580000Y-100370000D02*
G75*
G03*
X73430000Y-100520000I0J-150000D01*
G01*
X73430000Y-101120000D02*
G75*
G03*
X73580000Y-101270000I150000J0D01*
G01*
X73406000Y-97884000D02*
G75*
G03*
X73556000Y-98034000I150000J0D01*
G01*
G04 #@! TO.N,Net-(Q1A-D)*
X79720000Y-110850000D02*
X79321667Y-110850000D01*
X74722243Y-106956905D02*
X74722243Y-104995935D01*
X72146000Y-100554029D02*
X72146000Y-99571059D01*
X72804054Y-97982477D02*
X72804054Y-92124054D01*
X74278115Y-103923715D02*
X73021095Y-102666695D01*
X72804054Y-92124054D02*
X72720000Y-92040000D01*
X72506688Y-98700473D02*
G75*
G03*
X72146000Y-99571059I870412J-870627D01*
G01*
X74722253Y-106956905D02*
G75*
G03*
X75716223Y-109356564I3393647J5D01*
G01*
X72145992Y-100554029D02*
G75*
G03*
X73021096Y-102666694I2987808J29D01*
G01*
X75716227Y-109356560D02*
G75*
G03*
X79321667Y-110850000I3605473J3605460D01*
G01*
X74722219Y-104995935D02*
G75*
G03*
X74278114Y-103923716I-1516319J35D01*
G01*
X72506671Y-98700456D02*
G75*
G03*
X72804054Y-97982477I-717971J717956D01*
G01*
G04 #@! TD*
G04 #@! TA.AperFunction,Conductor*
G04 #@! TO.N,+3V3*
G36*
X83220881Y-81994852D02*
G01*
X83235233Y-82029500D01*
X83220881Y-82064148D01*
X83206219Y-82073943D01*
X83206246Y-82073992D01*
X83205750Y-82074256D01*
X83204981Y-82074771D01*
X83204126Y-82075124D01*
X83020754Y-82173140D01*
X83020751Y-82173142D01*
X82860038Y-82305038D01*
X82728142Y-82465751D01*
X82728140Y-82465754D01*
X82630129Y-82649118D01*
X82630126Y-82649125D01*
X82569772Y-82848084D01*
X82569772Y-82848085D01*
X82549393Y-83054999D01*
X82549393Y-83055000D01*
X82569772Y-83261914D01*
X82569772Y-83261915D01*
X82630126Y-83460874D01*
X82630129Y-83460881D01*
X82728140Y-83644245D01*
X82728142Y-83644248D01*
X82797998Y-83729367D01*
X82860038Y-83804962D01*
X82932112Y-83864112D01*
X83020751Y-83936857D01*
X83020754Y-83936859D01*
X83020758Y-83936862D01*
X83204123Y-84034873D01*
X83403086Y-84095228D01*
X83542874Y-84108995D01*
X83558146Y-84110500D01*
X83558147Y-84110500D01*
X84885500Y-84110500D01*
X84920148Y-84124852D01*
X84934500Y-84159500D01*
X84934500Y-84490500D01*
X84920148Y-84525148D01*
X84885500Y-84539500D01*
X83557767Y-84539500D01*
X83555577Y-84539350D01*
X83554423Y-84539350D01*
X83552233Y-84539500D01*
X83541895Y-84539500D01*
X83453441Y-84550121D01*
X83453436Y-84550122D01*
X83446507Y-84552855D01*
X83435208Y-84555813D01*
X83405080Y-84559954D01*
X83405076Y-84559955D01*
X83266283Y-84620242D01*
X83266278Y-84620245D01*
X83196212Y-84675286D01*
X83196210Y-84675289D01*
X82640289Y-85231210D01*
X82640286Y-85231212D01*
X82585245Y-85301278D01*
X82585242Y-85301283D01*
X82524956Y-85440076D01*
X82524955Y-85440078D01*
X82524955Y-85440080D01*
X82504350Y-85590000D01*
X82524955Y-85739920D01*
X82524955Y-85739921D01*
X82524956Y-85739923D01*
X82585242Y-85878716D01*
X82585245Y-85878721D01*
X82640286Y-85948787D01*
X83196212Y-86504713D01*
X83196215Y-86504715D01*
X83266279Y-86559755D01*
X83266281Y-86559756D01*
X83266283Y-86559757D01*
X83299905Y-86574361D01*
X83405080Y-86620045D01*
X83435207Y-86624185D01*
X83446510Y-86627145D01*
X83453436Y-86629877D01*
X83475551Y-86632532D01*
X83541895Y-86640500D01*
X83541898Y-86640500D01*
X83552233Y-86640500D01*
X83554423Y-86640650D01*
X83555000Y-86640650D01*
X83555577Y-86640650D01*
X83557767Y-86640500D01*
X84885500Y-86640500D01*
X84920148Y-86654852D01*
X84934500Y-86689500D01*
X84934500Y-87030500D01*
X84920148Y-87065148D01*
X84885500Y-87079500D01*
X83116832Y-87079501D01*
X83081373Y-87082290D01*
X82929606Y-87126383D01*
X82793584Y-87206826D01*
X82793579Y-87206830D01*
X82681830Y-87318579D01*
X82681826Y-87318584D01*
X82601383Y-87454606D01*
X82557290Y-87606372D01*
X82557290Y-87606374D01*
X82555802Y-87625289D01*
X82554606Y-87640500D01*
X82554500Y-87641842D01*
X82554500Y-87641843D01*
X82554501Y-88618168D01*
X82557290Y-88653626D01*
X82601383Y-88805393D01*
X82681826Y-88941415D01*
X82681830Y-88941420D01*
X82793579Y-89053169D01*
X82793584Y-89053173D01*
X82929606Y-89133616D01*
X82929607Y-89133616D01*
X82929610Y-89133618D01*
X83081373Y-89177709D01*
X83116837Y-89180500D01*
X83116841Y-89180499D01*
X83116842Y-89180500D01*
X83116843Y-89180500D01*
X83128045Y-89180499D01*
X84646829Y-89180499D01*
X84646837Y-89180500D01*
X84885500Y-89180499D01*
X84920148Y-89194851D01*
X84934500Y-89229499D01*
X84934500Y-89570500D01*
X84920148Y-89605148D01*
X84885500Y-89619500D01*
X83553391Y-89619500D01*
X83399065Y-89634700D01*
X83399064Y-89634700D01*
X83201043Y-89694769D01*
X83018548Y-89792316D01*
X82858590Y-89923590D01*
X82727316Y-90083548D01*
X82629766Y-90266048D01*
X82626617Y-90276429D01*
X82612887Y-90298279D01*
X82566243Y-90341151D01*
X82566237Y-90341158D01*
X82561161Y-90348527D01*
X82529435Y-90422178D01*
X82529434Y-90422182D01*
X82490763Y-90603315D01*
X82489863Y-90608078D01*
X82488684Y-90615244D01*
X82467860Y-90786592D01*
X82467155Y-90795163D01*
X82460799Y-90947295D01*
X82460699Y-90952887D01*
X82462075Y-91091004D01*
X82464452Y-91216931D01*
X82461943Y-91333252D01*
X82461814Y-91335283D01*
X82449712Y-91450551D01*
X82449298Y-91453146D01*
X82422252Y-91578908D01*
X82421540Y-91581512D01*
X82372557Y-91728344D01*
X82371684Y-91730588D01*
X82293694Y-91905120D01*
X82290008Y-91920556D01*
X82286009Y-91931415D01*
X82253930Y-91994376D01*
X82220494Y-92059999D01*
X82114853Y-92315037D01*
X82088334Y-92341555D01*
X82050831Y-92341555D01*
X82024313Y-92315036D01*
X82021082Y-92303259D01*
X82007309Y-92207467D01*
X81955884Y-92094861D01*
X81874817Y-92001304D01*
X81770675Y-91934376D01*
X81770672Y-91934375D01*
X81651901Y-91899500D01*
X81651897Y-91899500D01*
X81528103Y-91899500D01*
X81528098Y-91899500D01*
X81409327Y-91934375D01*
X81305182Y-92001304D01*
X81224116Y-92094860D01*
X81224115Y-92094863D01*
X81172691Y-92207465D01*
X81155073Y-92329998D01*
X81155073Y-92330001D01*
X81172691Y-92452534D01*
X81221607Y-92559645D01*
X81222945Y-92597124D01*
X81221607Y-92600355D01*
X81172691Y-92707465D01*
X81157880Y-92810474D01*
X81138743Y-92842727D01*
X81102405Y-92852001D01*
X81070152Y-92832864D01*
X81064615Y-92823430D01*
X81063310Y-92820500D01*
X80959382Y-92587073D01*
X80860070Y-92364013D01*
X80577413Y-91809266D01*
X80577413Y-91809267D01*
X80577412Y-91809265D01*
X80266106Y-91270066D01*
X80059316Y-90951637D01*
X79927006Y-90747897D01*
X79561043Y-90244193D01*
X79430957Y-90083550D01*
X79276262Y-89892516D01*
X79253822Y-89864805D01*
X79243170Y-89828846D01*
X79261065Y-89795888D01*
X79278098Y-89786953D01*
X79370053Y-89759953D01*
X79468510Y-89696678D01*
X79505415Y-89690020D01*
X79521487Y-89696677D01*
X79619947Y-89759953D01*
X79673175Y-89775582D01*
X79758034Y-89800499D01*
X79758037Y-89800499D01*
X79758039Y-89800500D01*
X79758040Y-89800500D01*
X79901960Y-89800500D01*
X79901961Y-89800500D01*
X79901963Y-89800499D01*
X79901965Y-89800499D01*
X79936018Y-89790500D01*
X80040053Y-89759953D01*
X80161128Y-89682143D01*
X80255377Y-89573373D01*
X80315165Y-89442457D01*
X80315165Y-89442455D01*
X80315166Y-89442454D01*
X80335647Y-89300002D01*
X80335647Y-89299998D01*
X80328458Y-89249998D01*
X80322720Y-89210093D01*
X80331994Y-89173758D01*
X80364247Y-89154621D01*
X80385026Y-89156107D01*
X80468098Y-89180499D01*
X80468101Y-89180499D01*
X80468103Y-89180500D01*
X80468104Y-89180500D01*
X80591896Y-89180500D01*
X80591897Y-89180500D01*
X80591899Y-89180499D01*
X80591901Y-89180499D01*
X80614858Y-89173758D01*
X80710675Y-89145624D01*
X80814817Y-89078696D01*
X80895884Y-88985139D01*
X80947309Y-88872533D01*
X80964927Y-88750000D01*
X80947309Y-88627467D01*
X80895884Y-88514861D01*
X80814817Y-88421304D01*
X80710675Y-88354376D01*
X80710672Y-88354375D01*
X80591901Y-88319500D01*
X80591897Y-88319500D01*
X80468103Y-88319500D01*
X80468098Y-88319500D01*
X80349327Y-88354375D01*
X80245182Y-88421304D01*
X80164116Y-88514860D01*
X80164115Y-88514863D01*
X80112691Y-88627465D01*
X80095073Y-88749998D01*
X80095073Y-88750002D01*
X80100164Y-88785414D01*
X80090889Y-88821752D01*
X80058636Y-88840888D01*
X80037858Y-88839402D01*
X79901965Y-88799500D01*
X79901961Y-88799500D01*
X79758039Y-88799500D01*
X79758034Y-88799500D01*
X79619946Y-88840047D01*
X79521491Y-88903320D01*
X79484584Y-88909979D01*
X79468509Y-88903320D01*
X79370053Y-88840047D01*
X79231965Y-88799500D01*
X79231961Y-88799500D01*
X79088039Y-88799500D01*
X79088034Y-88799500D01*
X78949949Y-88840046D01*
X78949947Y-88840046D01*
X78949947Y-88840047D01*
X78927954Y-88854180D01*
X78828870Y-88917857D01*
X78806592Y-88943567D01*
X78773055Y-88960353D01*
X78737472Y-88948509D01*
X78722959Y-88926619D01*
X78717552Y-88909979D01*
X78670094Y-88763914D01*
X78614529Y-88654860D01*
X78599463Y-88625291D01*
X78599301Y-88624937D01*
X78595148Y-88616742D01*
X78595147Y-88616740D01*
X78594710Y-88615964D01*
X78572160Y-88571706D01*
X78572156Y-88571701D01*
X78572155Y-88571698D01*
X78572154Y-88571697D01*
X78567977Y-88565949D01*
X78562555Y-88558486D01*
X78561034Y-88556117D01*
X78554871Y-88545163D01*
X78552445Y-88541076D01*
X78549638Y-88536587D01*
X78547085Y-88532708D01*
X78547024Y-88532615D01*
X78504509Y-88471140D01*
X78502784Y-88468764D01*
X78502782Y-88468763D01*
X78502780Y-88468759D01*
X78490860Y-88458002D01*
X78484047Y-88450428D01*
X78462887Y-88421304D01*
X78445363Y-88397184D01*
X78445359Y-88397180D01*
X78445357Y-88397177D01*
X78292829Y-88244648D01*
X78292828Y-88244647D01*
X78292827Y-88244646D01*
X78118307Y-88117848D01*
X77926100Y-88019912D01*
X77926099Y-88019911D01*
X77926098Y-88019911D01*
X77720946Y-87953251D01*
X77720942Y-87953250D01*
X77720939Y-87953249D01*
X77536696Y-87924066D01*
X77507870Y-87919500D01*
X77467914Y-87919500D01*
X77467912Y-87919500D01*
X74416226Y-87919500D01*
X74416223Y-87919500D01*
X74342123Y-87919500D01*
X74193681Y-87943013D01*
X74129059Y-87953250D01*
X74129056Y-87953250D01*
X74129055Y-87953251D01*
X74129051Y-87953252D01*
X73923899Y-88019912D01*
X73731694Y-88117847D01*
X73557169Y-88244649D01*
X73404641Y-88397178D01*
X73364680Y-88452180D01*
X73359127Y-88458577D01*
X73344135Y-88473095D01*
X73302907Y-88532708D01*
X73300194Y-88536840D01*
X73296199Y-88543257D01*
X73288956Y-88556127D01*
X73287425Y-88558514D01*
X73277843Y-88571701D01*
X73277841Y-88571704D01*
X73255316Y-88615912D01*
X73254849Y-88616742D01*
X73250708Y-88624915D01*
X73250707Y-88624916D01*
X73250518Y-88625328D01*
X73235471Y-88654860D01*
X73179904Y-88763919D01*
X73141100Y-88883344D01*
X73116743Y-88911862D01*
X73079356Y-88914804D01*
X73068007Y-88909424D01*
X72989666Y-88859078D01*
X72960053Y-88840047D01*
X72960052Y-88840046D01*
X72960051Y-88840046D01*
X72821965Y-88799500D01*
X72821961Y-88799500D01*
X72678039Y-88799500D01*
X72678034Y-88799500D01*
X72539946Y-88840047D01*
X72441491Y-88903320D01*
X72404584Y-88909979D01*
X72388509Y-88903320D01*
X72290053Y-88840047D01*
X72151965Y-88799500D01*
X72151961Y-88799500D01*
X72008039Y-88799500D01*
X72008034Y-88799500D01*
X71893307Y-88833187D01*
X71856019Y-88829178D01*
X71832487Y-88799977D01*
X71831001Y-88793144D01*
X71827310Y-88767469D01*
X71804011Y-88716451D01*
X71775884Y-88654861D01*
X71694817Y-88561304D01*
X71590675Y-88494376D01*
X71590672Y-88494375D01*
X71471901Y-88459500D01*
X71471897Y-88459500D01*
X71348103Y-88459500D01*
X71348098Y-88459500D01*
X71229327Y-88494375D01*
X71125182Y-88561304D01*
X71044116Y-88654860D01*
X71044115Y-88654863D01*
X70992691Y-88767465D01*
X70975073Y-88889998D01*
X70975073Y-88890001D01*
X70992691Y-89012534D01*
X71021097Y-89074735D01*
X71044116Y-89125139D01*
X71125183Y-89218696D01*
X71229325Y-89285624D01*
X71295415Y-89305029D01*
X71348098Y-89320499D01*
X71348101Y-89320499D01*
X71348103Y-89320500D01*
X71348104Y-89320500D01*
X71471896Y-89320500D01*
X71471897Y-89320500D01*
X71518772Y-89306736D01*
X71556060Y-89310744D01*
X71579592Y-89339945D01*
X71581078Y-89346778D01*
X71594833Y-89442454D01*
X71602251Y-89458696D01*
X71654623Y-89573373D01*
X71654624Y-89573374D01*
X71654625Y-89573376D01*
X71747448Y-89680500D01*
X71748872Y-89682143D01*
X71869947Y-89759953D01*
X71946785Y-89782514D01*
X72008034Y-89800499D01*
X72008037Y-89800499D01*
X72008039Y-89800500D01*
X72008040Y-89800500D01*
X72151960Y-89800500D01*
X72151961Y-89800500D01*
X72151963Y-89800499D01*
X72151965Y-89800499D01*
X72198098Y-89786953D01*
X72290053Y-89759953D01*
X72388510Y-89696678D01*
X72425415Y-89690020D01*
X72441487Y-89696677D01*
X72539947Y-89759953D01*
X72593175Y-89775582D01*
X72678034Y-89800499D01*
X72678037Y-89800499D01*
X72678039Y-89800500D01*
X72678040Y-89800500D01*
X72821960Y-89800500D01*
X72821961Y-89800500D01*
X72821963Y-89800499D01*
X72821965Y-89800499D01*
X72856018Y-89790500D01*
X72960053Y-89759953D01*
X73081128Y-89682143D01*
X73107300Y-89651937D01*
X73140835Y-89635150D01*
X73176419Y-89646993D01*
X73181360Y-89651933D01*
X73198872Y-89672143D01*
X73319947Y-89749953D01*
X73387295Y-89769728D01*
X73458034Y-89790499D01*
X73458037Y-89790499D01*
X73458039Y-89790500D01*
X73458040Y-89790500D01*
X73601960Y-89790500D01*
X73601961Y-89790500D01*
X73601963Y-89790499D01*
X73601965Y-89790499D01*
X73624795Y-89783795D01*
X73740053Y-89749953D01*
X73861128Y-89672143D01*
X73951609Y-89567720D01*
X73985145Y-89550934D01*
X74020729Y-89562777D01*
X74025673Y-89567721D01*
X74030571Y-89573374D01*
X74035183Y-89578696D01*
X74139325Y-89645624D01*
X74152170Y-89649395D01*
X74162278Y-89652364D01*
X74191479Y-89675896D01*
X74195488Y-89713184D01*
X74171956Y-89742385D01*
X74171572Y-89742593D01*
X74078548Y-89792316D01*
X73918590Y-89923590D01*
X73787316Y-90083548D01*
X73689769Y-90266043D01*
X73629700Y-90464064D01*
X73629700Y-90464065D01*
X73629700Y-90464066D01*
X73609417Y-90670000D01*
X73629700Y-90875934D01*
X73689768Y-91073954D01*
X73787315Y-91256450D01*
X73918590Y-91416410D01*
X74078550Y-91547685D01*
X74261046Y-91645232D01*
X74459066Y-91705300D01*
X74665000Y-91725583D01*
X74870934Y-91705300D01*
X75068954Y-91645232D01*
X75251450Y-91547685D01*
X75411410Y-91416410D01*
X75542685Y-91256450D01*
X75640232Y-91073954D01*
X75700300Y-90875934D01*
X75720583Y-90670000D01*
X76149417Y-90670000D01*
X76169700Y-90875934D01*
X76229768Y-91073954D01*
X76327315Y-91256450D01*
X76458590Y-91416410D01*
X76618550Y-91547685D01*
X76801046Y-91645232D01*
X76999066Y-91705300D01*
X77205000Y-91725583D01*
X77410934Y-91705300D01*
X77608954Y-91645232D01*
X77791450Y-91547685D01*
X77805392Y-91536242D01*
X77841280Y-91525355D01*
X77874355Y-91543032D01*
X77885243Y-91578920D01*
X77884980Y-91581092D01*
X77875073Y-91649997D01*
X77875073Y-91650001D01*
X77892691Y-91772534D01*
X77944115Y-91885136D01*
X77944116Y-91885139D01*
X77984217Y-91931419D01*
X78025183Y-91978696D01*
X78129325Y-92045624D01*
X78195415Y-92065029D01*
X78248098Y-92080499D01*
X78248101Y-92080499D01*
X78248103Y-92080500D01*
X78248104Y-92080500D01*
X78371896Y-92080500D01*
X78371897Y-92080500D01*
X78371899Y-92080499D01*
X78371901Y-92080499D01*
X78391538Y-92074732D01*
X78490675Y-92045624D01*
X78594817Y-91978696D01*
X78675884Y-91885139D01*
X78727309Y-91772533D01*
X78744927Y-91650000D01*
X78744241Y-91645232D01*
X78736756Y-91593169D01*
X78727309Y-91527467D01*
X78675884Y-91414861D01*
X78594817Y-91321304D01*
X78490675Y-91254376D01*
X78490672Y-91254375D01*
X78371901Y-91219500D01*
X78371897Y-91219500D01*
X78248103Y-91219500D01*
X78248102Y-91219500D01*
X78248096Y-91219501D01*
X78187404Y-91237321D01*
X78150116Y-91233312D01*
X78126585Y-91204110D01*
X78130385Y-91167208D01*
X78180232Y-91073954D01*
X78240300Y-90875934D01*
X78260583Y-90670000D01*
X78240300Y-90464066D01*
X78180232Y-90266046D01*
X78082685Y-90083550D01*
X77951410Y-89923590D01*
X77791450Y-89792315D01*
X77608954Y-89694768D01*
X77410934Y-89634700D01*
X77205000Y-89614417D01*
X76999065Y-89634700D01*
X76999064Y-89634700D01*
X76801043Y-89694769D01*
X76618548Y-89792316D01*
X76458590Y-89923590D01*
X76327316Y-90083548D01*
X76229769Y-90266043D01*
X76169700Y-90464064D01*
X76169700Y-90464065D01*
X76169700Y-90464066D01*
X76149417Y-90670000D01*
X75720583Y-90670000D01*
X75700300Y-90464066D01*
X75640232Y-90266046D01*
X75542685Y-90083550D01*
X75411410Y-89923590D01*
X75251450Y-89792315D01*
X75068954Y-89694768D01*
X74870934Y-89634700D01*
X74675275Y-89615429D01*
X74642200Y-89597750D01*
X74631314Y-89561862D01*
X74643046Y-89534577D01*
X74650804Y-89525624D01*
X74685884Y-89485139D01*
X74737309Y-89372533D01*
X74754927Y-89250000D01*
X74751979Y-89229500D01*
X74749860Y-89214762D01*
X74737309Y-89127467D01*
X74685884Y-89014861D01*
X74604817Y-88921304D01*
X74588350Y-88910721D01*
X74566962Y-88879916D01*
X74573620Y-88843009D01*
X74604426Y-88821620D01*
X74614842Y-88820500D01*
X75782168Y-88820500D01*
X75816816Y-88834852D01*
X75831168Y-88869500D01*
X75824767Y-88891305D01*
X75825572Y-88891673D01*
X75772691Y-89007465D01*
X75755073Y-89129998D01*
X75755073Y-89130001D01*
X75772691Y-89252534D01*
X75789801Y-89290000D01*
X75824116Y-89365139D01*
X75905183Y-89458696D01*
X76009325Y-89525624D01*
X76075415Y-89545029D01*
X76128098Y-89560499D01*
X76128101Y-89560499D01*
X76128103Y-89560500D01*
X76128104Y-89560500D01*
X76251896Y-89560500D01*
X76251897Y-89560500D01*
X76251899Y-89560499D01*
X76251901Y-89560499D01*
X76284476Y-89550934D01*
X76370675Y-89525624D01*
X76474817Y-89458696D01*
X76555884Y-89365139D01*
X76607309Y-89252533D01*
X76623989Y-89136527D01*
X76624927Y-89130001D01*
X76624927Y-89129998D01*
X76614872Y-89060068D01*
X76607309Y-89007467D01*
X76555884Y-88894861D01*
X76555883Y-88894860D01*
X76554428Y-88891673D01*
X76555722Y-88891081D01*
X76549953Y-88859078D01*
X76571346Y-88828275D01*
X76597832Y-88820500D01*
X76734429Y-88820500D01*
X76769077Y-88834852D01*
X76783429Y-88869500D01*
X76779001Y-88889855D01*
X76752691Y-88947465D01*
X76735073Y-89069998D01*
X76735073Y-89070001D01*
X76752691Y-89192534D01*
X76780092Y-89252533D01*
X76804116Y-89305139D01*
X76885183Y-89398696D01*
X76989325Y-89465624D01*
X77055415Y-89485029D01*
X77108098Y-89500499D01*
X77108101Y-89500499D01*
X77108103Y-89500500D01*
X77108104Y-89500500D01*
X77231896Y-89500500D01*
X77231897Y-89500500D01*
X77231899Y-89500499D01*
X77231901Y-89500499D01*
X77251538Y-89494732D01*
X77350675Y-89465624D01*
X77454817Y-89398696D01*
X77535884Y-89305139D01*
X77587309Y-89192533D01*
X77604927Y-89070000D01*
X77599967Y-89035506D01*
X77595107Y-89001705D01*
X77588195Y-88953630D01*
X77597469Y-88917293D01*
X77629722Y-88898156D01*
X77666060Y-88907430D01*
X77666465Y-88907737D01*
X77718242Y-88947467D01*
X77726872Y-88954089D01*
X77735912Y-88963129D01*
X77765513Y-89001705D01*
X77769983Y-89009212D01*
X77770058Y-89009170D01*
X77771254Y-89011270D01*
X77787871Y-89034755D01*
X77788877Y-89036297D01*
X77803146Y-89060068D01*
X77804058Y-89061730D01*
X77812529Y-89078695D01*
X77814751Y-89083143D01*
X77815556Y-89084932D01*
X77823100Y-89103654D01*
X77823777Y-89105560D01*
X77828622Y-89121223D01*
X77829157Y-89123258D01*
X77830616Y-89129998D01*
X77831789Y-89135415D01*
X77832165Y-89137640D01*
X77832927Y-89143901D01*
X77832900Y-89155957D01*
X77828593Y-89190097D01*
X77828593Y-89190101D01*
X77828495Y-89191309D01*
X77828325Y-89192818D01*
X77814353Y-89289998D01*
X77814353Y-89290002D01*
X77834833Y-89432454D01*
X77846818Y-89458696D01*
X77894623Y-89563373D01*
X77894624Y-89563374D01*
X77894625Y-89563376D01*
X77983880Y-89666382D01*
X77988872Y-89672143D01*
X78109947Y-89749953D01*
X78138140Y-89758230D01*
X78148555Y-89762653D01*
X78160989Y-89769729D01*
X78210924Y-89786336D01*
X78215587Y-89787767D01*
X78269832Y-89803139D01*
X78293252Y-89809180D01*
X78316671Y-89815222D01*
X78325821Y-89817658D01*
X78352625Y-89824798D01*
X78353678Y-89825104D01*
X78364584Y-89828558D01*
X78379159Y-89833174D01*
X78381054Y-89833861D01*
X78399393Y-89841399D01*
X78401786Y-89842537D01*
X78418299Y-89851519D01*
X78420679Y-89852995D01*
X78440594Y-89866985D01*
X78442600Y-89868556D01*
X78469330Y-89891829D01*
X78470843Y-89893265D01*
X78500182Y-89923590D01*
X78503267Y-89926779D01*
X78515421Y-89935353D01*
X78522782Y-89941730D01*
X78542011Y-89962069D01*
X78542926Y-89963094D01*
X78950501Y-90445760D01*
X78951358Y-90446834D01*
X79331262Y-90951637D01*
X79332057Y-90952758D01*
X79683038Y-91478039D01*
X79683765Y-91479196D01*
X80004755Y-92023354D01*
X80005411Y-92024542D01*
X80295381Y-92585835D01*
X80295978Y-92587073D01*
X80554013Y-93163729D01*
X80554539Y-93164998D01*
X80779835Y-93755211D01*
X80780289Y-93756508D01*
X80972140Y-94358436D01*
X80972520Y-94359757D01*
X81130322Y-94971506D01*
X81130627Y-94972846D01*
X81173121Y-95186476D01*
X81253875Y-95592463D01*
X81254102Y-95593796D01*
X81342416Y-96219361D01*
X81342570Y-96220727D01*
X81395668Y-96850254D01*
X81395745Y-96851627D01*
X81413500Y-97484436D01*
X81413500Y-102507155D01*
X81399148Y-102541803D01*
X81364500Y-102556155D01*
X81329852Y-102541803D01*
X81319928Y-102527510D01*
X81303855Y-102492316D01*
X81295884Y-102474861D01*
X81214817Y-102381304D01*
X81110675Y-102314376D01*
X81110672Y-102314375D01*
X80991901Y-102279500D01*
X80991897Y-102279500D01*
X80868103Y-102279500D01*
X80868098Y-102279500D01*
X80749327Y-102314375D01*
X80645182Y-102381304D01*
X80564116Y-102474860D01*
X80564115Y-102474863D01*
X80512691Y-102587465D01*
X80495073Y-102709998D01*
X80495073Y-102710001D01*
X80512691Y-102832534D01*
X80534970Y-102881317D01*
X80564116Y-102945139D01*
X80645183Y-103038696D01*
X80749325Y-103105624D01*
X80815415Y-103125029D01*
X80868098Y-103140499D01*
X80868101Y-103140499D01*
X80868103Y-103140500D01*
X80868104Y-103140500D01*
X80991896Y-103140500D01*
X80991897Y-103140500D01*
X80991899Y-103140499D01*
X80991901Y-103140499D01*
X81011538Y-103134732D01*
X81110675Y-103105624D01*
X81214817Y-103038696D01*
X81295884Y-102945139D01*
X81319928Y-102892488D01*
X81347376Y-102866934D01*
X81384855Y-102868272D01*
X81410410Y-102895720D01*
X81413500Y-102912844D01*
X81413500Y-105291130D01*
X81413499Y-105291148D01*
X81413499Y-105339693D01*
X81413460Y-105341067D01*
X81400355Y-105574481D01*
X81400047Y-105577213D01*
X81361003Y-105807014D01*
X81360392Y-105809695D01*
X81295863Y-106033679D01*
X81294955Y-106036274D01*
X81205758Y-106251619D01*
X81204565Y-106254097D01*
X81091813Y-106458109D01*
X81090350Y-106460437D01*
X81057728Y-106506412D01*
X81051139Y-106513934D01*
X81050781Y-106514267D01*
X81015636Y-106527357D01*
X80981530Y-106511762D01*
X80968440Y-106476617D01*
X80968906Y-106471425D01*
X80984927Y-106360000D01*
X80967309Y-106237467D01*
X80915884Y-106124861D01*
X80834817Y-106031304D01*
X80730675Y-105964376D01*
X80730672Y-105964375D01*
X80611901Y-105929500D01*
X80611897Y-105929500D01*
X80488103Y-105929500D01*
X80488098Y-105929500D01*
X80369327Y-105964375D01*
X80369325Y-105964375D01*
X80369325Y-105964376D01*
X80359231Y-105970863D01*
X80265182Y-106031304D01*
X80184116Y-106124860D01*
X80184115Y-106124863D01*
X80132691Y-106237465D01*
X80115073Y-106359998D01*
X80115073Y-106360001D01*
X80132691Y-106482534D01*
X80139047Y-106496451D01*
X80184116Y-106595139D01*
X80265183Y-106688696D01*
X80369325Y-106755624D01*
X80435415Y-106775029D01*
X80488098Y-106790499D01*
X80488101Y-106790499D01*
X80488103Y-106790500D01*
X80488104Y-106790500D01*
X80574429Y-106790500D01*
X80609077Y-106804852D01*
X80623429Y-106839500D01*
X80619001Y-106859855D01*
X80592691Y-106917465D01*
X80575073Y-107039998D01*
X80575073Y-107040001D01*
X80592691Y-107162534D01*
X80596100Y-107169998D01*
X80644116Y-107275139D01*
X80725183Y-107368696D01*
X80829325Y-107435624D01*
X80892774Y-107454254D01*
X80948098Y-107470499D01*
X80948101Y-107470499D01*
X80948103Y-107470500D01*
X80948104Y-107470500D01*
X81071896Y-107470500D01*
X81071897Y-107470500D01*
X81071899Y-107470499D01*
X81071901Y-107470499D01*
X81116515Y-107457399D01*
X81190675Y-107435624D01*
X81243358Y-107401766D01*
X81280263Y-107395108D01*
X81311069Y-107416496D01*
X81317728Y-107453403D01*
X81313312Y-107465614D01*
X81171524Y-107737988D01*
X81170455Y-107739840D01*
X80981806Y-108035961D01*
X80980579Y-108037713D01*
X80818795Y-108248553D01*
X80810245Y-108257214D01*
X80806121Y-108260462D01*
X80785862Y-108284163D01*
X80784740Y-108285388D01*
X80766938Y-108303560D01*
X80765422Y-108304983D01*
X80753058Y-108315628D01*
X80751167Y-108317101D01*
X80742430Y-108323247D01*
X80740350Y-108324560D01*
X80731897Y-108329317D01*
X80729984Y-108330286D01*
X80719814Y-108334890D01*
X80717642Y-108335873D01*
X80716242Y-108336456D01*
X80707217Y-108339882D01*
X80696251Y-108344047D01*
X80667446Y-108353957D01*
X80630451Y-108366553D01*
X80596761Y-108378724D01*
X80577189Y-108388373D01*
X80569332Y-108391437D01*
X80559325Y-108394376D01*
X80455182Y-108461304D01*
X80374116Y-108554860D01*
X80374115Y-108554863D01*
X80322691Y-108667465D01*
X80305073Y-108789998D01*
X80305073Y-108790001D01*
X80322691Y-108912534D01*
X80341707Y-108954173D01*
X80374116Y-109025139D01*
X80455183Y-109118696D01*
X80559325Y-109185624D01*
X80625185Y-109204962D01*
X80678098Y-109220499D01*
X80678101Y-109220499D01*
X80678103Y-109220500D01*
X80678104Y-109220500D01*
X80801896Y-109220500D01*
X80801897Y-109220500D01*
X80801899Y-109220499D01*
X80801901Y-109220499D01*
X80821538Y-109214732D01*
X80920675Y-109185624D01*
X81024817Y-109118696D01*
X81105884Y-109025139D01*
X81153878Y-108920044D01*
X81154567Y-108918659D01*
X81158016Y-108912270D01*
X81169040Y-108876439D01*
X81180326Y-108838117D01*
X81189567Y-108807155D01*
X81197292Y-108783394D01*
X81197649Y-108782377D01*
X81204499Y-108764216D01*
X81205083Y-108762800D01*
X81212267Y-108746879D01*
X81213025Y-108745347D01*
X81219794Y-108732773D01*
X81222302Y-108728115D01*
X81223096Y-108726749D01*
X81236636Y-108705175D01*
X81237390Y-108704048D01*
X81238817Y-108702037D01*
X81257389Y-108675864D01*
X81280356Y-108646374D01*
X81286856Y-108633570D01*
X81293001Y-108624271D01*
X81357092Y-108547892D01*
X81589998Y-108215265D01*
X81590423Y-108214529D01*
X81793026Y-107863610D01*
X81964633Y-107495592D01*
X81964635Y-107495588D01*
X82074455Y-107193852D01*
X82099791Y-107166203D01*
X82137259Y-107164567D01*
X82164909Y-107189903D01*
X82169500Y-107210612D01*
X82169500Y-108641350D01*
X82169527Y-108641965D01*
X82169527Y-108780705D01*
X82200722Y-109097465D01*
X82202466Y-109115167D01*
X82257752Y-109393116D01*
X82268031Y-109444792D01*
X82268033Y-109444799D01*
X82333573Y-109660864D01*
X82335488Y-109670721D01*
X82336906Y-109686582D01*
X82392523Y-109876085D01*
X82392961Y-109877809D01*
X82395702Y-109890500D01*
X82424857Y-110025535D01*
X82418141Y-110062431D01*
X82387302Y-110083772D01*
X82350470Y-110077097D01*
X82330675Y-110064376D01*
X82211901Y-110029500D01*
X82211897Y-110029500D01*
X82088103Y-110029500D01*
X82088098Y-110029500D01*
X81969327Y-110064375D01*
X81865182Y-110131304D01*
X81784116Y-110224860D01*
X81784115Y-110224863D01*
X81732691Y-110337465D01*
X81715073Y-110459998D01*
X81715073Y-110460001D01*
X81732691Y-110582534D01*
X81784115Y-110695136D01*
X81784116Y-110695139D01*
X81841638Y-110761524D01*
X81865183Y-110788696D01*
X81969325Y-110855624D01*
X82035415Y-110875029D01*
X82088098Y-110890499D01*
X82088101Y-110890499D01*
X82088103Y-110890500D01*
X82088104Y-110890500D01*
X82211896Y-110890500D01*
X82211897Y-110890500D01*
X82211899Y-110890499D01*
X82211901Y-110890499D01*
X82239108Y-110882510D01*
X82330675Y-110855624D01*
X82388718Y-110818321D01*
X82425623Y-110811663D01*
X82456429Y-110833051D01*
X82463984Y-110854860D01*
X82464408Y-110859283D01*
X82486468Y-111029653D01*
X82487776Y-111037537D01*
X82525718Y-111222443D01*
X82540687Y-111267788D01*
X82540691Y-111267798D01*
X82542968Y-111272694D01*
X82561122Y-111304127D01*
X82603221Y-111342122D01*
X82617281Y-111364273D01*
X82630485Y-111407799D01*
X82720631Y-111576451D01*
X82728963Y-111592038D01*
X82861483Y-111753513D01*
X82861486Y-111753516D01*
X83022962Y-111886036D01*
X83022961Y-111886036D01*
X83022964Y-111886037D01*
X83022967Y-111886040D01*
X83207201Y-111984515D01*
X83407106Y-112045155D01*
X83547559Y-112058988D01*
X83562904Y-112060500D01*
X83562905Y-112060500D01*
X84885500Y-112060500D01*
X84920148Y-112074852D01*
X84934500Y-112109500D01*
X84934500Y-112430500D01*
X84920148Y-112465148D01*
X84885500Y-112479500D01*
X83553391Y-112479500D01*
X83399065Y-112494700D01*
X83399064Y-112494700D01*
X83201043Y-112554769D01*
X83018548Y-112652316D01*
X82858590Y-112783590D01*
X82727316Y-112943548D01*
X82629769Y-113126043D01*
X82569700Y-113324064D01*
X82569700Y-113324065D01*
X82549417Y-113529999D01*
X82549417Y-113530000D01*
X82569700Y-113735934D01*
X82569700Y-113735935D01*
X82589498Y-113801199D01*
X82629768Y-113933954D01*
X82727315Y-114116450D01*
X82858590Y-114276410D01*
X83018550Y-114407685D01*
X83201046Y-114505232D01*
X83399066Y-114565300D01*
X83538191Y-114579002D01*
X83553391Y-114580500D01*
X83553392Y-114580500D01*
X84674556Y-114580500D01*
X84709204Y-114594852D01*
X84723556Y-114629500D01*
X84712431Y-114660588D01*
X84703390Y-114671603D01*
X84696600Y-114678393D01*
X84582907Y-114771698D01*
X84574921Y-114777034D01*
X84445210Y-114846367D01*
X84436335Y-114850043D01*
X84295593Y-114892737D01*
X84286171Y-114894611D01*
X84136197Y-114909382D01*
X84133796Y-114909500D01*
X82114500Y-114909500D01*
X82079852Y-114895148D01*
X82065500Y-114860500D01*
X82065500Y-113528390D01*
X82062774Y-113500715D01*
X82050300Y-113374066D01*
X81990232Y-113176046D01*
X81892685Y-112993550D01*
X81761410Y-112833590D01*
X81601450Y-112702315D01*
X81418954Y-112604768D01*
X81220934Y-112544700D01*
X81015000Y-112524417D01*
X80809065Y-112544700D01*
X80809064Y-112544700D01*
X80611043Y-112604769D01*
X80428548Y-112702316D01*
X80268590Y-112833590D01*
X80137316Y-112993548D01*
X80039769Y-113176043D01*
X79979700Y-113374064D01*
X79979700Y-113374065D01*
X79964500Y-113528390D01*
X79964500Y-113754724D01*
X79950148Y-113789372D01*
X79915500Y-113803724D01*
X79901695Y-113801739D01*
X79791901Y-113769500D01*
X79791897Y-113769500D01*
X79668103Y-113769500D01*
X79668098Y-113769500D01*
X79588305Y-113792930D01*
X79551017Y-113788921D01*
X79527485Y-113759720D01*
X79525500Y-113745915D01*
X79525500Y-113528390D01*
X79522774Y-113500715D01*
X79510300Y-113374066D01*
X79450232Y-113176046D01*
X79352685Y-112993550D01*
X79221410Y-112833590D01*
X79061450Y-112702315D01*
X78878954Y-112604768D01*
X78680934Y-112544700D01*
X78475000Y-112524417D01*
X78269065Y-112544700D01*
X78269064Y-112544700D01*
X78071043Y-112604769D01*
X77888548Y-112702316D01*
X77728590Y-112833590D01*
X77597316Y-112993548D01*
X77499769Y-113176043D01*
X77439700Y-113374064D01*
X77439700Y-113374065D01*
X77424500Y-113528390D01*
X77424500Y-113738851D01*
X77410148Y-113773499D01*
X77375500Y-113787851D01*
X77361695Y-113785866D01*
X77271901Y-113759500D01*
X77271897Y-113759500D01*
X77148103Y-113759500D01*
X77148098Y-113759500D01*
X77048305Y-113788802D01*
X77011016Y-113784793D01*
X76987485Y-113755592D01*
X76985500Y-113741787D01*
X76985500Y-113528390D01*
X76982774Y-113500715D01*
X76970300Y-113374066D01*
X76910232Y-113176046D01*
X76812685Y-112993550D01*
X76681410Y-112833590D01*
X76521450Y-112702315D01*
X76338954Y-112604768D01*
X76140934Y-112544700D01*
X75935000Y-112524417D01*
X75729065Y-112544700D01*
X75729064Y-112544700D01*
X75531043Y-112604769D01*
X75348548Y-112702316D01*
X75188590Y-112833590D01*
X75057316Y-112993548D01*
X74959769Y-113176043D01*
X74899700Y-113374064D01*
X74899700Y-113374065D01*
X74884500Y-113528390D01*
X74884500Y-114860500D01*
X74870148Y-114895148D01*
X74835500Y-114909500D01*
X74494500Y-114909500D01*
X74459852Y-114895148D01*
X74445500Y-114860500D01*
X74445500Y-113528390D01*
X74442774Y-113500715D01*
X74430300Y-113374066D01*
X74370232Y-113176046D01*
X74272685Y-112993550D01*
X74141410Y-112833590D01*
X73981450Y-112702315D01*
X73798954Y-112604768D01*
X73600934Y-112544700D01*
X73395000Y-112524417D01*
X73189065Y-112544700D01*
X73189064Y-112544700D01*
X72991043Y-112604769D01*
X72808548Y-112702316D01*
X72648590Y-112833590D01*
X72517316Y-112993548D01*
X72419769Y-113176043D01*
X72359700Y-113374064D01*
X72359700Y-113374065D01*
X72344500Y-113528390D01*
X72344500Y-113708851D01*
X72330148Y-113743499D01*
X72295500Y-113757851D01*
X72281695Y-113755866D01*
X72191901Y-113729500D01*
X72191897Y-113729500D01*
X72068103Y-113729500D01*
X72068098Y-113729500D01*
X71968305Y-113758802D01*
X71931016Y-113754793D01*
X71907485Y-113725592D01*
X71905500Y-113711787D01*
X71905500Y-113528390D01*
X71902774Y-113500715D01*
X71890300Y-113374066D01*
X71830232Y-113176046D01*
X71732685Y-112993550D01*
X71601410Y-112833590D01*
X71441450Y-112702315D01*
X71258954Y-112604768D01*
X71060934Y-112544700D01*
X70855000Y-112524417D01*
X70649065Y-112544700D01*
X70649064Y-112544700D01*
X70451043Y-112604769D01*
X70268548Y-112702316D01*
X70108590Y-112833590D01*
X69977316Y-112993548D01*
X69879769Y-113176043D01*
X69819700Y-113374064D01*
X69819700Y-113374065D01*
X69804500Y-113528390D01*
X69804500Y-113771787D01*
X69790148Y-113806435D01*
X69755500Y-113820787D01*
X69741695Y-113818802D01*
X69641901Y-113789500D01*
X69641897Y-113789500D01*
X69518103Y-113789500D01*
X69518098Y-113789500D01*
X69399326Y-113824375D01*
X69355038Y-113852837D01*
X69318131Y-113859495D01*
X69287325Y-113838106D01*
X69280667Y-113801199D01*
X69281657Y-113797391D01*
X69282572Y-113794376D01*
X69300300Y-113735934D01*
X69320583Y-113530000D01*
X69320424Y-113528390D01*
X69318585Y-113509716D01*
X69300300Y-113324066D01*
X69240232Y-113126046D01*
X69142685Y-112943550D01*
X69011410Y-112783590D01*
X68851450Y-112652315D01*
X68668954Y-112554768D01*
X68470934Y-112494700D01*
X68465492Y-112494164D01*
X68316609Y-112479500D01*
X68316608Y-112479500D01*
X68033838Y-112479500D01*
X67999190Y-112465148D01*
X67984838Y-112430500D01*
X67989266Y-112410145D01*
X67989687Y-112409222D01*
X67997309Y-112392533D01*
X68014927Y-112270000D01*
X67997309Y-112147467D01*
X67980131Y-112109854D01*
X67978793Y-112072377D01*
X68004348Y-112044928D01*
X68024704Y-112040500D01*
X68316609Y-112040500D01*
X68330446Y-112039137D01*
X68470934Y-112025300D01*
X68668954Y-111965232D01*
X68851450Y-111867685D01*
X69011410Y-111736410D01*
X69142685Y-111576450D01*
X69240232Y-111393954D01*
X69300300Y-111195934D01*
X69320583Y-110990000D01*
X69300300Y-110784066D01*
X69240232Y-110586046D01*
X69142685Y-110403550D01*
X69011410Y-110243590D01*
X68851450Y-110112315D01*
X68668954Y-110014768D01*
X68470934Y-109954700D01*
X68465492Y-109954164D01*
X68316609Y-109939500D01*
X68316608Y-109939500D01*
X66984500Y-109939500D01*
X66949852Y-109925148D01*
X66935500Y-109890500D01*
X66935500Y-109549500D01*
X66949852Y-109514852D01*
X66984500Y-109500500D01*
X68316609Y-109500500D01*
X68330446Y-109499137D01*
X68470934Y-109485300D01*
X68668954Y-109425232D01*
X68741046Y-109386696D01*
X68766192Y-109380954D01*
X68781809Y-109381608D01*
X68790615Y-109379982D01*
X68865096Y-109350328D01*
X68964057Y-109286167D01*
X69022306Y-109248402D01*
X69028333Y-109244101D01*
X69030191Y-109242710D01*
X69032020Y-109241343D01*
X69166365Y-109136086D01*
X69172919Y-109130516D01*
X69222457Y-109084939D01*
X69285006Y-109027392D01*
X69289045Y-109023483D01*
X69385610Y-108924941D01*
X69472964Y-108834186D01*
X69485475Y-108822196D01*
X69556993Y-108753656D01*
X69558490Y-108752335D01*
X69648585Y-108679302D01*
X69650681Y-108677781D01*
X69758754Y-108607890D01*
X69761076Y-108606564D01*
X69899549Y-108537272D01*
X69901727Y-108536313D01*
X70080281Y-108467925D01*
X70093492Y-108459794D01*
X70104017Y-108454928D01*
X70237910Y-108411425D01*
X70237910Y-108411424D01*
X70237913Y-108411424D01*
X70237913Y-108411423D01*
X70543614Y-108284797D01*
X70640926Y-108244489D01*
X70640925Y-108244489D01*
X70640932Y-108244486D01*
X71029614Y-108046440D01*
X71401559Y-107818510D01*
X71754474Y-107562099D01*
X71754475Y-107562097D01*
X71754482Y-107562093D01*
X72086177Y-107278794D01*
X72086178Y-107278794D01*
X72240413Y-107124558D01*
X72274067Y-107090904D01*
X72516719Y-106848252D01*
X73248561Y-106116408D01*
X73256969Y-106109676D01*
X73272529Y-106099816D01*
X73295973Y-106077479D01*
X73296981Y-106076574D01*
X73318280Y-106058569D01*
X73319675Y-106057476D01*
X73335173Y-106046230D01*
X73336908Y-106045082D01*
X73342531Y-106041691D01*
X73348625Y-106038018D01*
X73350472Y-106037012D01*
X73361697Y-106031516D01*
X73363367Y-106030776D01*
X73378027Y-106024933D01*
X73379222Y-106024492D01*
X73400869Y-106017168D01*
X73430673Y-106007914D01*
X73468267Y-105996230D01*
X73502404Y-105984892D01*
X73529570Y-105972366D01*
X73536269Y-105969853D01*
X73550675Y-105965624D01*
X73654817Y-105898696D01*
X73735884Y-105805139D01*
X73787309Y-105692533D01*
X73804927Y-105570000D01*
X73803093Y-105557248D01*
X73796119Y-105508741D01*
X73787309Y-105447467D01*
X73735884Y-105334861D01*
X73735881Y-105334857D01*
X73733155Y-105331711D01*
X73721311Y-105296127D01*
X73733154Y-105267534D01*
X73762321Y-105233873D01*
X73795884Y-105195139D01*
X73847309Y-105082533D01*
X73863782Y-104967965D01*
X73864927Y-104960001D01*
X73864927Y-104959998D01*
X73857988Y-104911739D01*
X73847309Y-104837467D01*
X73795884Y-104724861D01*
X73760155Y-104683628D01*
X73748312Y-104648045D01*
X73760154Y-104619454D01*
X73815884Y-104555139D01*
X73851405Y-104477357D01*
X73878852Y-104451804D01*
X73916331Y-104453142D01*
X73937755Y-104472111D01*
X73988631Y-104555136D01*
X73996331Y-104567701D01*
X73999821Y-104574552D01*
X74064858Y-104731571D01*
X74067234Y-104738884D01*
X74106906Y-104904144D01*
X74108109Y-104911739D01*
X74121442Y-105081198D01*
X74121442Y-105088886D01*
X74106029Y-105284687D01*
X74104826Y-105292281D01*
X74058968Y-105483282D01*
X74056592Y-105490595D01*
X73981419Y-105672071D01*
X73977928Y-105678922D01*
X73875290Y-105846406D01*
X73870770Y-105852626D01*
X73769784Y-105970863D01*
X73757800Y-105984895D01*
X73741330Y-106004178D01*
X73740024Y-106005591D01*
X71848814Y-107896801D01*
X71848786Y-107896813D01*
X71700584Y-108045017D01*
X71558348Y-108214529D01*
X71456531Y-108335871D01*
X71456149Y-108336326D01*
X71456149Y-108336325D01*
X71404125Y-108410624D01*
X71239052Y-108646374D01*
X71238023Y-108647843D01*
X71047885Y-108977172D01*
X71047885Y-108977173D01*
X71047883Y-108977177D01*
X71044300Y-108984860D01*
X70945755Y-109196191D01*
X70940229Y-109205300D01*
X70930566Y-109217900D01*
X70930560Y-109217910D01*
X70844216Y-109393116D01*
X70843168Y-109395025D01*
X70759820Y-109531960D01*
X70758478Y-109533941D01*
X70677747Y-109641381D01*
X70676297Y-109643135D01*
X70594882Y-109732791D01*
X70593702Y-109734003D01*
X70506873Y-109817262D01*
X70411619Y-109903457D01*
X70310216Y-109998421D01*
X70308009Y-110000597D01*
X70305892Y-110002686D01*
X70199955Y-110113670D01*
X70194298Y-110120111D01*
X70084749Y-110254817D01*
X70079194Y-110262274D01*
X69988267Y-110396137D01*
X69986941Y-110397910D01*
X69982319Y-110403544D01*
X69982310Y-110403557D01*
X69979530Y-110408758D01*
X69978192Y-110410971D01*
X69972751Y-110418982D01*
X69950459Y-110461948D01*
X69950456Y-110461954D01*
X69949483Y-110464534D01*
X69948167Y-110467434D01*
X69884772Y-110586037D01*
X69884767Y-110586049D01*
X69824700Y-110784064D01*
X69824700Y-110784065D01*
X69804417Y-110989999D01*
X69804417Y-110990000D01*
X69824700Y-111195934D01*
X69824700Y-111195935D01*
X69837951Y-111239617D01*
X69875764Y-111364273D01*
X69884769Y-111393956D01*
X69897367Y-111417524D01*
X69982315Y-111576450D01*
X70113590Y-111736410D01*
X70273550Y-111867685D01*
X70456046Y-111965232D01*
X70654066Y-112025300D01*
X70860000Y-112045583D01*
X71065934Y-112025300D01*
X71263954Y-111965232D01*
X71446450Y-111867685D01*
X71606410Y-111736410D01*
X71737685Y-111576450D01*
X71835232Y-111393954D01*
X71895300Y-111195934D01*
X71915583Y-110990000D01*
X71895300Y-110784066D01*
X71849623Y-110633491D01*
X71849089Y-110631395D01*
X71845288Y-110613181D01*
X71839441Y-110599437D01*
X71838545Y-110596969D01*
X71835232Y-110586046D01*
X71833354Y-110582533D01*
X71828471Y-110573396D01*
X71827532Y-110571435D01*
X71792993Y-110490232D01*
X71780204Y-110460163D01*
X71778048Y-110455430D01*
X71775581Y-110450360D01*
X71773323Y-110445987D01*
X71695352Y-110303492D01*
X71691786Y-110297456D01*
X71669472Y-110262275D01*
X71611543Y-110170940D01*
X71538600Y-110060284D01*
X71503960Y-110002686D01*
X71481959Y-109966103D01*
X71480712Y-109963747D01*
X71452937Y-109903457D01*
X71444603Y-109885366D01*
X71441694Y-109877234D01*
X71423711Y-109808306D01*
X71422159Y-109797795D01*
X71421814Y-109788695D01*
X71421449Y-109779090D01*
X71434476Y-109743924D01*
X71468555Y-109728268D01*
X71503723Y-109741295D01*
X71507446Y-109745145D01*
X71545183Y-109788696D01*
X71649325Y-109855624D01*
X71715415Y-109875029D01*
X71768098Y-109890499D01*
X71768101Y-109890499D01*
X71768103Y-109890500D01*
X71768104Y-109890500D01*
X71891896Y-109890500D01*
X71891897Y-109890500D01*
X71891899Y-109890499D01*
X71891901Y-109890499D01*
X71919030Y-109882533D01*
X72010675Y-109855624D01*
X72114817Y-109788696D01*
X72195884Y-109695139D01*
X72247309Y-109582533D01*
X72264927Y-109460000D01*
X72264207Y-109454995D01*
X72254387Y-109386697D01*
X72247309Y-109337467D01*
X72195884Y-109224861D01*
X72114817Y-109131304D01*
X72010675Y-109064376D01*
X72010672Y-109064375D01*
X71891901Y-109029500D01*
X71891897Y-109029500D01*
X71805950Y-109029500D01*
X71771302Y-109015148D01*
X71756950Y-108980500D01*
X71764624Y-108954173D01*
X71778199Y-108932862D01*
X71830988Y-108850001D01*
X73435073Y-108850001D01*
X73452691Y-108972534D01*
X73472152Y-109015148D01*
X73494633Y-109064375D01*
X73504115Y-109085136D01*
X73504116Y-109085139D01*
X73552233Y-109140670D01*
X73585183Y-109178696D01*
X73689325Y-109245624D01*
X73751316Y-109263826D01*
X73808098Y-109280499D01*
X73808101Y-109280499D01*
X73808103Y-109280500D01*
X73808104Y-109280500D01*
X73931896Y-109280500D01*
X73931897Y-109280500D01*
X73931899Y-109280499D01*
X73931901Y-109280499D01*
X73955802Y-109273481D01*
X74050675Y-109245624D01*
X74154817Y-109178696D01*
X74235884Y-109085139D01*
X74287309Y-108972533D01*
X74303363Y-108860877D01*
X74304927Y-108850001D01*
X74304927Y-108849998D01*
X74298027Y-108802010D01*
X74287309Y-108727467D01*
X74235884Y-108614861D01*
X74154817Y-108521304D01*
X74050675Y-108454376D01*
X74050672Y-108454375D01*
X73931901Y-108419500D01*
X73931897Y-108419500D01*
X73808103Y-108419500D01*
X73808098Y-108419500D01*
X73689327Y-108454375D01*
X73585182Y-108521304D01*
X73504116Y-108614860D01*
X73504115Y-108614863D01*
X73452691Y-108727465D01*
X73435073Y-108849998D01*
X73435073Y-108850001D01*
X71830988Y-108850001D01*
X71838834Y-108837685D01*
X71840037Y-108835967D01*
X72038106Y-108577837D01*
X72039479Y-108576202D01*
X72259825Y-108335733D01*
X72311395Y-108284163D01*
X72394164Y-108201393D01*
X72428811Y-108187042D01*
X72463459Y-108201394D01*
X72473381Y-108215684D01*
X72474306Y-108217709D01*
X72489115Y-108250137D01*
X72489116Y-108250139D01*
X72563909Y-108336456D01*
X72570183Y-108343696D01*
X72674325Y-108410624D01*
X72740415Y-108430029D01*
X72793098Y-108445499D01*
X72793101Y-108445499D01*
X72793103Y-108445500D01*
X72793104Y-108445500D01*
X72916896Y-108445500D01*
X72916897Y-108445500D01*
X72916899Y-108445499D01*
X72916901Y-108445499D01*
X72936538Y-108439732D01*
X73035675Y-108410624D01*
X73139817Y-108343696D01*
X73220884Y-108250139D01*
X73272309Y-108137533D01*
X73289927Y-108015000D01*
X73272309Y-107892467D01*
X73220884Y-107779861D01*
X73186206Y-107739840D01*
X73139816Y-107686302D01*
X73139814Y-107686300D01*
X73050610Y-107628973D01*
X73029221Y-107598168D01*
X73035880Y-107561261D01*
X73042448Y-107553109D01*
X73234678Y-107360879D01*
X73269325Y-107346528D01*
X73303973Y-107360880D01*
X73313895Y-107375171D01*
X73359543Y-107475126D01*
X73364115Y-107485136D01*
X73364116Y-107485139D01*
X73430796Y-107562093D01*
X73445183Y-107578696D01*
X73549325Y-107645624D01*
X73615415Y-107665029D01*
X73668098Y-107680499D01*
X73668101Y-107680499D01*
X73668103Y-107680500D01*
X73668104Y-107680500D01*
X73791896Y-107680500D01*
X73791897Y-107680500D01*
X73791899Y-107680499D01*
X73791901Y-107680499D01*
X73815652Y-107673525D01*
X73910675Y-107645624D01*
X74014817Y-107578696D01*
X74095884Y-107485139D01*
X74147309Y-107372533D01*
X74147309Y-107372531D01*
X74147310Y-107372530D01*
X74157375Y-107302527D01*
X74176511Y-107270274D01*
X74205876Y-107260500D01*
X74271896Y-107260500D01*
X74271897Y-107260500D01*
X74271899Y-107260499D01*
X74271901Y-107260499D01*
X74322561Y-107245624D01*
X74372733Y-107230892D01*
X74410021Y-107234901D01*
X74433553Y-107264102D01*
X74435351Y-107273636D01*
X74449868Y-107439546D01*
X74505883Y-107757220D01*
X74505883Y-107757219D01*
X74589372Y-108068808D01*
X74619467Y-108151492D01*
X74699701Y-108371933D01*
X74825331Y-108641350D01*
X74836030Y-108664293D01*
X74836030Y-108664294D01*
X74983694Y-108920055D01*
X74997317Y-108943650D01*
X75026173Y-108984861D01*
X75182342Y-109207894D01*
X75182342Y-109207893D01*
X75233893Y-109269330D01*
X75389683Y-109454995D01*
X75389687Y-109454999D01*
X75389688Y-109455000D01*
X75468913Y-109534225D01*
X75468941Y-109534257D01*
X75503736Y-109569050D01*
X75540318Y-109605634D01*
X75540387Y-109605692D01*
X75653752Y-109719058D01*
X75653753Y-109719058D01*
X75976374Y-109994603D01*
X76319626Y-110243992D01*
X76319633Y-110243996D01*
X76319634Y-110243997D01*
X76337291Y-110254817D01*
X76681387Y-110465681D01*
X77059425Y-110658303D01*
X77059432Y-110658306D01*
X77059431Y-110658306D01*
X77218032Y-110724001D01*
X77451408Y-110820669D01*
X77451408Y-110820670D01*
X77854924Y-110951782D01*
X77854927Y-110951782D01*
X77854928Y-110951783D01*
X78267488Y-111050832D01*
X78686548Y-111117207D01*
X79075858Y-111147848D01*
X79083771Y-111149131D01*
X79089456Y-111150538D01*
X79152464Y-111153449D01*
X79214466Y-111156821D01*
X79265204Y-111160596D01*
X79305744Y-111165050D01*
X79306987Y-111165218D01*
X79312524Y-111166116D01*
X79339692Y-111170524D01*
X79341221Y-111170822D01*
X79370058Y-111177416D01*
X79371672Y-111177843D01*
X79401047Y-111186703D01*
X79402489Y-111187187D01*
X79436320Y-111199730D01*
X79437406Y-111200162D01*
X79479104Y-111218005D01*
X79525170Y-111239621D01*
X79530114Y-111241336D01*
X79536098Y-111244246D01*
X79536135Y-111244167D01*
X79539324Y-111245623D01*
X79539325Y-111245624D01*
X79559241Y-111251472D01*
X79560336Y-111251822D01*
X79565778Y-111253710D01*
X79570418Y-111254792D01*
X79571719Y-111255134D01*
X79658103Y-111280500D01*
X79658108Y-111280500D01*
X79781896Y-111280500D01*
X79781897Y-111280500D01*
X79781899Y-111280499D01*
X79781901Y-111280499D01*
X79808482Y-111272694D01*
X79900675Y-111245624D01*
X80004817Y-111178696D01*
X80085884Y-111085139D01*
X80137309Y-110972533D01*
X80154927Y-110850000D01*
X80137309Y-110727467D01*
X80085884Y-110614861D01*
X80004817Y-110521304D01*
X79964553Y-110495428D01*
X79943164Y-110464622D01*
X79946472Y-110433851D01*
X79997309Y-110322533D01*
X80014927Y-110200000D01*
X80012660Y-110184236D01*
X80009860Y-110164762D01*
X79997309Y-110077467D01*
X79945884Y-109964861D01*
X79864817Y-109871304D01*
X79760675Y-109804376D01*
X79760672Y-109804375D01*
X79641901Y-109769500D01*
X79641897Y-109769500D01*
X79518103Y-109769500D01*
X79518098Y-109769500D01*
X79399327Y-109804375D01*
X79399325Y-109804375D01*
X79399325Y-109804376D01*
X79393210Y-109808306D01*
X79295182Y-109871304D01*
X79214116Y-109964860D01*
X79214115Y-109964863D01*
X79162691Y-110077465D01*
X79145073Y-110199998D01*
X79145073Y-110200001D01*
X79161557Y-110314643D01*
X79162691Y-110322533D01*
X79214116Y-110435139D01*
X79236722Y-110461228D01*
X79248565Y-110496810D01*
X79231778Y-110530347D01*
X79199268Y-110542313D01*
X79174902Y-110542103D01*
X79147043Y-110541106D01*
X79115217Y-110539967D01*
X79115216Y-110539967D01*
X79112865Y-110540342D01*
X79103225Y-110540915D01*
X78946154Y-110534743D01*
X78944235Y-110534592D01*
X78571994Y-110490533D01*
X78570097Y-110490232D01*
X78347667Y-110445987D01*
X78202458Y-110417102D01*
X78200587Y-110416652D01*
X77839817Y-110314904D01*
X77837987Y-110314309D01*
X77792300Y-110297454D01*
X77729754Y-110274379D01*
X77702216Y-110248923D01*
X77700744Y-110211449D01*
X77726201Y-110183910D01*
X77732910Y-110181394D01*
X77745126Y-110177806D01*
X77820675Y-110155624D01*
X77924817Y-110088696D01*
X78005884Y-109995139D01*
X78057309Y-109882533D01*
X78074927Y-109760000D01*
X78073489Y-109750001D01*
X78064371Y-109686582D01*
X78057309Y-109637467D01*
X78005884Y-109524861D01*
X77924817Y-109431304D01*
X77820675Y-109364376D01*
X77820672Y-109364375D01*
X77701901Y-109329500D01*
X77701897Y-109329500D01*
X77578103Y-109329500D01*
X77575129Y-109329500D01*
X77540481Y-109315148D01*
X77526129Y-109280500D01*
X77527699Y-109268197D01*
X77532782Y-109248600D01*
X77541441Y-109215776D01*
X77549230Y-109188252D01*
X77556904Y-109164103D01*
X77563955Y-109144769D01*
X77565263Y-109141181D01*
X77565651Y-109140187D01*
X77574616Y-109118696D01*
X77576110Y-109115115D01*
X77590215Y-109084939D01*
X77608970Y-109048238D01*
X77619197Y-109029500D01*
X77628808Y-109011892D01*
X77630567Y-109006321D01*
X77635807Y-108995004D01*
X77636993Y-108993118D01*
X77733162Y-108793406D01*
X77806367Y-108584182D01*
X77855687Y-108368077D01*
X77880502Y-108147809D01*
X77880500Y-108036979D01*
X77880500Y-107989384D01*
X77880500Y-107745553D01*
X77894852Y-107710905D01*
X77929500Y-107696553D01*
X77943305Y-107698538D01*
X78018098Y-107720499D01*
X78018101Y-107720499D01*
X78018103Y-107720500D01*
X78018104Y-107720500D01*
X78141896Y-107720500D01*
X78141897Y-107720500D01*
X78141899Y-107720499D01*
X78141901Y-107720499D01*
X78174575Y-107710905D01*
X78260675Y-107685624D01*
X78364817Y-107618696D01*
X78445884Y-107525139D01*
X78497309Y-107412533D01*
X78514927Y-107290000D01*
X78497309Y-107167467D01*
X78445884Y-107054861D01*
X78364817Y-106961304D01*
X78260675Y-106894376D01*
X78260672Y-106894375D01*
X78141901Y-106859500D01*
X78141897Y-106859500D01*
X78018103Y-106859500D01*
X78018098Y-106859500D01*
X77943305Y-106881462D01*
X77906017Y-106877453D01*
X77882485Y-106848252D01*
X77880500Y-106834447D01*
X77880500Y-105160001D01*
X78225073Y-105160001D01*
X78242691Y-105282534D01*
X78294115Y-105395136D01*
X78294116Y-105395139D01*
X78360484Y-105471733D01*
X78375183Y-105488696D01*
X78407284Y-105509326D01*
X78419211Y-105516991D01*
X78440600Y-105547797D01*
X78433942Y-105584704D01*
X78419212Y-105599434D01*
X78385183Y-105621303D01*
X78304116Y-105714860D01*
X78304115Y-105714863D01*
X78252691Y-105827465D01*
X78235073Y-105949998D01*
X78235073Y-105950001D01*
X78252691Y-106072534D01*
X78304115Y-106185136D01*
X78304116Y-106185139D01*
X78349416Y-106237419D01*
X78385183Y-106278696D01*
X78489325Y-106345624D01*
X78555415Y-106365029D01*
X78608098Y-106380499D01*
X78608101Y-106380499D01*
X78608103Y-106380500D01*
X78608104Y-106380500D01*
X78731896Y-106380500D01*
X78731897Y-106380500D01*
X78731899Y-106380499D01*
X78731901Y-106380499D01*
X78751538Y-106374732D01*
X78850675Y-106345624D01*
X78954817Y-106278696D01*
X79035884Y-106185139D01*
X79087309Y-106072533D01*
X79104927Y-105950000D01*
X79101979Y-105929500D01*
X79090926Y-105852626D01*
X79087309Y-105827467D01*
X79035884Y-105714861D01*
X78954817Y-105621304D01*
X78910786Y-105593007D01*
X78889398Y-105562202D01*
X78896056Y-105525295D01*
X78910786Y-105510565D01*
X78944817Y-105488696D01*
X79025884Y-105395139D01*
X79077309Y-105282533D01*
X79094606Y-105162232D01*
X79094927Y-105160001D01*
X79094927Y-105159998D01*
X79084702Y-105088886D01*
X79077309Y-105037467D01*
X79025884Y-104924861D01*
X78944817Y-104831304D01*
X78840675Y-104764376D01*
X78834402Y-104762534D01*
X78721901Y-104729500D01*
X78721897Y-104729500D01*
X78598103Y-104729500D01*
X78598098Y-104729500D01*
X78479327Y-104764375D01*
X78375182Y-104831304D01*
X78294116Y-104924860D01*
X78294115Y-104924863D01*
X78242691Y-105037465D01*
X78225073Y-105159998D01*
X78225073Y-105160001D01*
X77880500Y-105160001D01*
X77880500Y-104529259D01*
X77894852Y-104494611D01*
X77929500Y-104480259D01*
X77964148Y-104494611D01*
X77966532Y-104497172D01*
X77985180Y-104518694D01*
X77985181Y-104518695D01*
X77985183Y-104518696D01*
X78089325Y-104585624D01*
X78155415Y-104605029D01*
X78208098Y-104620499D01*
X78208101Y-104620499D01*
X78208103Y-104620500D01*
X78208104Y-104620500D01*
X78331896Y-104620500D01*
X78331897Y-104620500D01*
X78331899Y-104620499D01*
X78331901Y-104620499D01*
X78351538Y-104614732D01*
X78450675Y-104585624D01*
X78554817Y-104518696D01*
X78635884Y-104425139D01*
X78687309Y-104312533D01*
X78704927Y-104190000D01*
X78687309Y-104067467D01*
X78635884Y-103954861D01*
X78554817Y-103861304D01*
X78450675Y-103794376D01*
X78450672Y-103794375D01*
X78331901Y-103759500D01*
X78331897Y-103759500D01*
X78208103Y-103759500D01*
X78208098Y-103759500D01*
X78089327Y-103794375D01*
X78089325Y-103794375D01*
X78089325Y-103794376D01*
X78057306Y-103814953D01*
X77985182Y-103861304D01*
X77966532Y-103882828D01*
X77932996Y-103899615D01*
X77897412Y-103887772D01*
X77880625Y-103854236D01*
X77880500Y-103850740D01*
X77880500Y-103665001D01*
X80120073Y-103665001D01*
X80137691Y-103787534D01*
X80141301Y-103795438D01*
X80188495Y-103898780D01*
X80189115Y-103900136D01*
X80189116Y-103900139D01*
X80236532Y-103954861D01*
X80270183Y-103993696D01*
X80374325Y-104060624D01*
X80440415Y-104080029D01*
X80493098Y-104095499D01*
X80493101Y-104095499D01*
X80493103Y-104095500D01*
X80493104Y-104095500D01*
X80616896Y-104095500D01*
X80616897Y-104095500D01*
X80616899Y-104095499D01*
X80616901Y-104095499D01*
X80636538Y-104089732D01*
X80735675Y-104060624D01*
X80839817Y-103993696D01*
X80920884Y-103900139D01*
X80972309Y-103787533D01*
X80989927Y-103665000D01*
X80972309Y-103542467D01*
X80920884Y-103429861D01*
X80839817Y-103336304D01*
X80735675Y-103269376D01*
X80735672Y-103269375D01*
X80616901Y-103234500D01*
X80616897Y-103234500D01*
X80493103Y-103234500D01*
X80493098Y-103234500D01*
X80374327Y-103269375D01*
X80270182Y-103336304D01*
X80189116Y-103429860D01*
X80189115Y-103429863D01*
X80137691Y-103542465D01*
X80120073Y-103664998D01*
X80120073Y-103665001D01*
X77880500Y-103665001D01*
X77880500Y-102540001D01*
X78265073Y-102540001D01*
X78282691Y-102662534D01*
X78288533Y-102675326D01*
X78331997Y-102770500D01*
X78334115Y-102775136D01*
X78334116Y-102775139D01*
X78380511Y-102828682D01*
X78392354Y-102864266D01*
X78380511Y-102892858D01*
X78344117Y-102934860D01*
X78344115Y-102934863D01*
X78292691Y-103047465D01*
X78278021Y-103149500D01*
X78275073Y-103170000D01*
X78292691Y-103292533D01*
X78344116Y-103405139D01*
X78425183Y-103498696D01*
X78529325Y-103565624D01*
X78595415Y-103585029D01*
X78648098Y-103600499D01*
X78648101Y-103600499D01*
X78648103Y-103600500D01*
X78648104Y-103600500D01*
X78771896Y-103600500D01*
X78771897Y-103600500D01*
X78771899Y-103600499D01*
X78771901Y-103600499D01*
X78792757Y-103594375D01*
X78890675Y-103565624D01*
X78994817Y-103498696D01*
X79075884Y-103405139D01*
X79127309Y-103292533D01*
X79144927Y-103170000D01*
X79141979Y-103149500D01*
X79135671Y-103105624D01*
X79127309Y-103047467D01*
X79075884Y-102934861D01*
X79029487Y-102881316D01*
X79017645Y-102845733D01*
X79029488Y-102817141D01*
X79065884Y-102775139D01*
X79117309Y-102662533D01*
X79134927Y-102540000D01*
X79133222Y-102528144D01*
X79128071Y-102492315D01*
X79117309Y-102417467D01*
X79065884Y-102304861D01*
X78984817Y-102211304D01*
X78880675Y-102144376D01*
X78880672Y-102144375D01*
X78761901Y-102109500D01*
X78761897Y-102109500D01*
X78638103Y-102109500D01*
X78638098Y-102109500D01*
X78519327Y-102144375D01*
X78519325Y-102144375D01*
X78519325Y-102144376D01*
X78487306Y-102164953D01*
X78415182Y-102211304D01*
X78334116Y-102304860D01*
X78334115Y-102304863D01*
X78282691Y-102417465D01*
X78265073Y-102539998D01*
X78265073Y-102540001D01*
X77880500Y-102540001D01*
X77880500Y-102536429D01*
X77880471Y-102535821D01*
X77880472Y-102505754D01*
X77880474Y-102462349D01*
X77853645Y-102258528D01*
X77800443Y-102059953D01*
X77721776Y-101870021D01*
X77719360Y-101865835D01*
X77618991Y-101691980D01*
X77618985Y-101691971D01*
X77493855Y-101528890D01*
X77493846Y-101528880D01*
X77464195Y-101499227D01*
X77464176Y-101499204D01*
X77396847Y-101431875D01*
X77387514Y-101422541D01*
X77387511Y-101422539D01*
X77194973Y-101230001D01*
X79545073Y-101230001D01*
X79554259Y-101293886D01*
X79562691Y-101352533D01*
X79603934Y-101442844D01*
X79614115Y-101465136D01*
X79614116Y-101465139D01*
X79684281Y-101546115D01*
X79695183Y-101558696D01*
X79799325Y-101625624D01*
X79865415Y-101645029D01*
X79918098Y-101660499D01*
X79918101Y-101660499D01*
X79918103Y-101660500D01*
X79918104Y-101660500D01*
X80041896Y-101660500D01*
X80041897Y-101660500D01*
X80041899Y-101660499D01*
X80041901Y-101660499D01*
X80061538Y-101654732D01*
X80160675Y-101625624D01*
X80264817Y-101558696D01*
X80345884Y-101465139D01*
X80397309Y-101352533D01*
X80414358Y-101233956D01*
X80414927Y-101230001D01*
X80414927Y-101229998D01*
X80407639Y-101179311D01*
X80397309Y-101107467D01*
X80345884Y-100994861D01*
X80264817Y-100901304D01*
X80160675Y-100834376D01*
X80145772Y-100830000D01*
X80041901Y-100799500D01*
X80041897Y-100799500D01*
X79918103Y-100799500D01*
X79918098Y-100799500D01*
X79799327Y-100834375D01*
X79695182Y-100901304D01*
X79614116Y-100994860D01*
X79614115Y-100994863D01*
X79562691Y-101107465D01*
X79545073Y-101229998D01*
X79545073Y-101230001D01*
X77194973Y-101230001D01*
X77019619Y-101054647D01*
X77005267Y-101019999D01*
X77019619Y-100985351D01*
X77258340Y-100746630D01*
X77538196Y-100466773D01*
X77547005Y-100459789D01*
X77561806Y-100450609D01*
X77577274Y-100436150D01*
X77578797Y-100434841D01*
X77584404Y-100430420D01*
X77615634Y-100419908D01*
X77627116Y-100420118D01*
X77653418Y-100421715D01*
X77679215Y-100423660D01*
X77723481Y-100422210D01*
X77728444Y-100421507D01*
X77728445Y-100421506D01*
X77728450Y-100421506D01*
X77727666Y-100421682D01*
X77738362Y-100420500D01*
X77781896Y-100420500D01*
X77781897Y-100420500D01*
X77781899Y-100420499D01*
X77781901Y-100420499D01*
X77818219Y-100409835D01*
X77900675Y-100385624D01*
X78004817Y-100318696D01*
X78085884Y-100225139D01*
X78137309Y-100112533D01*
X78154927Y-99990000D01*
X78152159Y-99970752D01*
X78141287Y-99895135D01*
X78137309Y-99867467D01*
X78085884Y-99754861D01*
X78074383Y-99741588D01*
X78062540Y-99706004D01*
X78079327Y-99672468D01*
X78111414Y-99660500D01*
X78143635Y-99660501D01*
X78337550Y-99626311D01*
X78522582Y-99558967D01*
X78630256Y-99496802D01*
X78693103Y-99460518D01*
X78693103Y-99460517D01*
X78693108Y-99460515D01*
X78843946Y-99333946D01*
X78958829Y-99197034D01*
X78992093Y-99179717D01*
X79027860Y-99190995D01*
X79040936Y-99208175D01*
X79044116Y-99215138D01*
X79044116Y-99215139D01*
X79087521Y-99265232D01*
X79125183Y-99308696D01*
X79229325Y-99375624D01*
X79276583Y-99389500D01*
X79348098Y-99410499D01*
X79348101Y-99410499D01*
X79348103Y-99410500D01*
X79348104Y-99410500D01*
X79471896Y-99410500D01*
X79471897Y-99410500D01*
X79471899Y-99410499D01*
X79471901Y-99410499D01*
X79495495Y-99403571D01*
X79590675Y-99375624D01*
X79694817Y-99308696D01*
X79775884Y-99215139D01*
X79827309Y-99102533D01*
X79844927Y-98980000D01*
X79827309Y-98857467D01*
X79775884Y-98744861D01*
X79694817Y-98651304D01*
X79590675Y-98584376D01*
X79586694Y-98583207D01*
X79471901Y-98549500D01*
X79471897Y-98549500D01*
X79348103Y-98549500D01*
X79348098Y-98549500D01*
X79233305Y-98583207D01*
X79196017Y-98579198D01*
X79172485Y-98549997D01*
X79170500Y-98536192D01*
X79170500Y-97778612D01*
X79170494Y-97778479D01*
X79170494Y-97656041D01*
X79158342Y-97532663D01*
X79140802Y-97354586D01*
X79081704Y-97057491D01*
X78993770Y-96767620D01*
X78884970Y-96504962D01*
X78877847Y-96487766D01*
X78816391Y-96372795D01*
X78735048Y-96220618D01*
X78735046Y-96220615D01*
X78735044Y-96220610D01*
X78609368Y-96032534D01*
X78605891Y-96027331D01*
X78601667Y-96019573D01*
X78595897Y-96006235D01*
X78573821Y-95974290D01*
X78554065Y-95943217D01*
X78553476Y-95942239D01*
X78539681Y-95917998D01*
X78539015Y-95916744D01*
X78535679Y-95910001D01*
X80025073Y-95910001D01*
X80040827Y-96019566D01*
X80042691Y-96032533D01*
X80092833Y-96142330D01*
X80094115Y-96145136D01*
X80094116Y-96145139D01*
X80159511Y-96220610D01*
X80175183Y-96238696D01*
X80279325Y-96305624D01*
X80332519Y-96321243D01*
X80398098Y-96340499D01*
X80398101Y-96340499D01*
X80398103Y-96340500D01*
X80398104Y-96340500D01*
X80521896Y-96340500D01*
X80521897Y-96340500D01*
X80521899Y-96340499D01*
X80521901Y-96340499D01*
X80564560Y-96327973D01*
X80640675Y-96305624D01*
X80744817Y-96238696D01*
X80825884Y-96145139D01*
X80877309Y-96032533D01*
X80893777Y-95917998D01*
X80894927Y-95910001D01*
X80894927Y-95909998D01*
X80886153Y-95848976D01*
X80877309Y-95787467D01*
X80825884Y-95674861D01*
X80744817Y-95581304D01*
X80640675Y-95514376D01*
X80630213Y-95511304D01*
X80521901Y-95479500D01*
X80521897Y-95479500D01*
X80398103Y-95479500D01*
X80398098Y-95479500D01*
X80279327Y-95514375D01*
X80279325Y-95514375D01*
X80279325Y-95514376D01*
X80262571Y-95525143D01*
X80175182Y-95581304D01*
X80094116Y-95674860D01*
X80094115Y-95674863D01*
X80042691Y-95787465D01*
X80025073Y-95909998D01*
X80025073Y-95910001D01*
X78535679Y-95910001D01*
X78529214Y-95896932D01*
X78528589Y-95895564D01*
X78520966Y-95877433D01*
X78520470Y-95876156D01*
X78513214Y-95855779D01*
X78505336Y-95830382D01*
X78496293Y-95798771D01*
X78485383Y-95760084D01*
X78474716Y-95723674D01*
X78473249Y-95720155D01*
X78472354Y-95717625D01*
X78472310Y-95717477D01*
X78472309Y-95717467D01*
X78470257Y-95712975D01*
X78457385Y-95682084D01*
X78456312Y-95680143D01*
X78454923Y-95677626D01*
X78454922Y-95677624D01*
X78454913Y-95677611D01*
X78454478Y-95676957D01*
X78450723Y-95670201D01*
X78420884Y-95604861D01*
X78339817Y-95511304D01*
X78235675Y-95444376D01*
X78235672Y-95444375D01*
X78116901Y-95409500D01*
X78116897Y-95409500D01*
X77993103Y-95409500D01*
X77993098Y-95409500D01*
X77874327Y-95444375D01*
X77770182Y-95511304D01*
X77689116Y-95604860D01*
X77689115Y-95604863D01*
X77637691Y-95717465D01*
X77620073Y-95839998D01*
X77620073Y-95840001D01*
X77637691Y-95962534D01*
X77689115Y-96075136D01*
X77689116Y-96075139D01*
X77760839Y-96157913D01*
X77770183Y-96168696D01*
X77874325Y-96235624D01*
X77886443Y-96239181D01*
X77898532Y-96244597D01*
X77905884Y-96249174D01*
X77928417Y-96257666D01*
X77938924Y-96261626D01*
X77975480Y-96274577D01*
X77982912Y-96277236D01*
X78003677Y-96284669D01*
X78022687Y-96292197D01*
X78024142Y-96292830D01*
X78030633Y-96295914D01*
X78035038Y-96298007D01*
X78037070Y-96299092D01*
X78043600Y-96302984D01*
X78045806Y-96304466D01*
X78052343Y-96309394D01*
X78054345Y-96311078D01*
X78064367Y-96320465D01*
X78065956Y-96322098D01*
X78081161Y-96339257D01*
X78082322Y-96340669D01*
X78100218Y-96364184D01*
X78100775Y-96364684D01*
X78108009Y-96372795D01*
X78188258Y-96485891D01*
X78189720Y-96488219D01*
X78275689Y-96643761D01*
X78279889Y-96681028D01*
X78256507Y-96710349D01*
X78219240Y-96714549D01*
X78218999Y-96714479D01*
X78116901Y-96684500D01*
X78116897Y-96684500D01*
X77993103Y-96684500D01*
X77993098Y-96684500D01*
X77874327Y-96719375D01*
X77874325Y-96719375D01*
X77874325Y-96719376D01*
X77850933Y-96734409D01*
X77770182Y-96786304D01*
X77689116Y-96879860D01*
X77689115Y-96879863D01*
X77637691Y-96992465D01*
X77620073Y-97114998D01*
X77620073Y-97115001D01*
X77634097Y-97212534D01*
X77637691Y-97237533D01*
X77689116Y-97350139D01*
X77770183Y-97443696D01*
X77832622Y-97483823D01*
X77874327Y-97510625D01*
X77878293Y-97511789D01*
X77891521Y-97517934D01*
X77894215Y-97519716D01*
X77925888Y-97532663D01*
X77961510Y-97546293D01*
X77988501Y-97556729D01*
X78005669Y-97564106D01*
X78007284Y-97564871D01*
X78015434Y-97569109D01*
X78017645Y-97570413D01*
X78018849Y-97571211D01*
X78020631Y-97572393D01*
X78023054Y-97574229D01*
X78024565Y-97575529D01*
X78025513Y-97576347D01*
X78027658Y-97578439D01*
X78032984Y-97584321D01*
X78033290Y-97584658D01*
X78034981Y-97586745D01*
X78036201Y-97588431D01*
X78045404Y-97601155D01*
X78046594Y-97602963D01*
X78059975Y-97625413D01*
X78065323Y-97631454D01*
X78072582Y-97642261D01*
X78127491Y-97753604D01*
X78128717Y-97756563D01*
X78136557Y-97779657D01*
X78176211Y-97896472D01*
X78173759Y-97933895D01*
X78145563Y-97958622D01*
X78120490Y-97959145D01*
X78120368Y-97959999D01*
X78116897Y-97959500D01*
X77993103Y-97959500D01*
X77993098Y-97959500D01*
X77874327Y-97994375D01*
X77874325Y-97994375D01*
X77874325Y-97994376D01*
X77849237Y-98010499D01*
X77770182Y-98061304D01*
X77689118Y-98154857D01*
X77689117Y-98154859D01*
X77667598Y-98201978D01*
X77664009Y-98208481D01*
X77650189Y-98229567D01*
X77637002Y-98262224D01*
X77623117Y-98300251D01*
X77612689Y-98329174D01*
X77606265Y-98345262D01*
X77586692Y-98368667D01*
X77584000Y-98370346D01*
X77581551Y-98371687D01*
X77561017Y-98381447D01*
X77553629Y-98386816D01*
X77539052Y-98394064D01*
X77513734Y-98401744D01*
X77476411Y-98398068D01*
X77452620Y-98369078D01*
X77450510Y-98354856D01*
X77450509Y-98336670D01*
X77450510Y-98336670D01*
X77450506Y-98277362D01*
X77419799Y-98162789D01*
X77360487Y-98060067D01*
X77276609Y-97976195D01*
X77276608Y-97976194D01*
X77233188Y-97951127D01*
X77173883Y-97916889D01*
X77173881Y-97916888D01*
X77173879Y-97916887D01*
X77059311Y-97886190D01*
X77059308Y-97886190D01*
X77000000Y-97886190D01*
X76952405Y-97886190D01*
X76948640Y-97886190D01*
X76948511Y-97886200D01*
X76940690Y-97886200D01*
X76826124Y-97916896D01*
X76826121Y-97916898D01*
X76724508Y-97975561D01*
X76687326Y-97980455D01*
X76675512Y-97975562D01*
X76573883Y-97916889D01*
X76573881Y-97916888D01*
X76573879Y-97916887D01*
X76459311Y-97886190D01*
X76459308Y-97886190D01*
X76439917Y-97886190D01*
X76405269Y-97871838D01*
X76390917Y-97837190D01*
X76395345Y-97816835D01*
X76397307Y-97812538D01*
X76397307Y-97812536D01*
X76397309Y-97812533D01*
X76414418Y-97693540D01*
X76414927Y-97690001D01*
X76414927Y-97689998D01*
X76406399Y-97630688D01*
X76397309Y-97567467D01*
X76345884Y-97454861D01*
X76317485Y-97422087D01*
X76305643Y-97386504D01*
X76317486Y-97357912D01*
X76320379Y-97354573D01*
X76345884Y-97325139D01*
X76397309Y-97212533D01*
X76414927Y-97090000D01*
X76412040Y-97069924D01*
X76404946Y-97020582D01*
X76397309Y-96967467D01*
X76345884Y-96854861D01*
X76317485Y-96822087D01*
X76305643Y-96786504D01*
X76317486Y-96757912D01*
X76324218Y-96750143D01*
X76345884Y-96725139D01*
X76397309Y-96612533D01*
X76414927Y-96490000D01*
X76397309Y-96367467D01*
X76345884Y-96254861D01*
X76317485Y-96222087D01*
X76305643Y-96186504D01*
X76317486Y-96157912D01*
X76320916Y-96153954D01*
X76345884Y-96125139D01*
X76397309Y-96012533D01*
X76414927Y-95890000D01*
X76412936Y-95876156D01*
X76409860Y-95854762D01*
X76397309Y-95767467D01*
X76345884Y-95654861D01*
X76317485Y-95622087D01*
X76305643Y-95586504D01*
X76317486Y-95557912D01*
X76326002Y-95548084D01*
X76345884Y-95525139D01*
X76397309Y-95412533D01*
X76414927Y-95290000D01*
X76414188Y-95284863D01*
X76400042Y-95186476D01*
X76397309Y-95167467D01*
X76345884Y-95054861D01*
X76264817Y-94961304D01*
X76160675Y-94894376D01*
X76160672Y-94894375D01*
X76041901Y-94859500D01*
X76041897Y-94859500D01*
X75918103Y-94859500D01*
X75918098Y-94859500D01*
X75799327Y-94894375D01*
X75695182Y-94961304D01*
X75614116Y-95054860D01*
X75614115Y-95054863D01*
X75562691Y-95167465D01*
X75545073Y-95289998D01*
X75545073Y-95290001D01*
X75562691Y-95412534D01*
X75577233Y-95444376D01*
X75614116Y-95525139D01*
X75614118Y-95525141D01*
X75614119Y-95525143D01*
X75642513Y-95557913D01*
X75654356Y-95593497D01*
X75642513Y-95622087D01*
X75614119Y-95654856D01*
X75614115Y-95654863D01*
X75562691Y-95767465D01*
X75545073Y-95889998D01*
X75545073Y-95890001D01*
X75562691Y-96012534D01*
X75571825Y-96032534D01*
X75614116Y-96125139D01*
X75614118Y-96125141D01*
X75614119Y-96125143D01*
X75642513Y-96157913D01*
X75654356Y-96193497D01*
X75642513Y-96222087D01*
X75614119Y-96254856D01*
X75614115Y-96254863D01*
X75562691Y-96367465D01*
X75545073Y-96489998D01*
X75545073Y-96490001D01*
X75562691Y-96612534D01*
X75580029Y-96650499D01*
X75614116Y-96725139D01*
X75614118Y-96725141D01*
X75614119Y-96725143D01*
X75642513Y-96757913D01*
X75654356Y-96793497D01*
X75642513Y-96822087D01*
X75614119Y-96854856D01*
X75614115Y-96854863D01*
X75562691Y-96967465D01*
X75545073Y-97089998D01*
X75545073Y-97090001D01*
X75562691Y-97212534D01*
X75565276Y-97218194D01*
X75614116Y-97325139D01*
X75614118Y-97325141D01*
X75614119Y-97325143D01*
X75642513Y-97357913D01*
X75654356Y-97393497D01*
X75642513Y-97422087D01*
X75614119Y-97454856D01*
X75614115Y-97454863D01*
X75562691Y-97567465D01*
X75545073Y-97689998D01*
X75545073Y-97690001D01*
X75562691Y-97812534D01*
X75573951Y-97837190D01*
X75610985Y-97918284D01*
X75614115Y-97925136D01*
X75614116Y-97925139D01*
X75678628Y-97999591D01*
X75695183Y-98018696D01*
X75799325Y-98085624D01*
X75865415Y-98105029D01*
X75918098Y-98120499D01*
X75918101Y-98120499D01*
X75918103Y-98120500D01*
X75927683Y-98120500D01*
X75962331Y-98134852D01*
X75976683Y-98169500D01*
X75975013Y-98182185D01*
X75949503Y-98277366D01*
X75949503Y-98278604D01*
X75949500Y-98278647D01*
X75949500Y-98280517D01*
X75949500Y-98330165D01*
X75949500Y-98336670D01*
X75949498Y-98377817D01*
X75949497Y-98388194D01*
X75949500Y-98388231D01*
X75949500Y-98390500D01*
X75935148Y-98425148D01*
X75900500Y-98439500D01*
X75470191Y-98439500D01*
X75435543Y-98425148D01*
X75421191Y-98390500D01*
X75422861Y-98377817D01*
X75424665Y-98371087D01*
X75430500Y-98349309D01*
X75430500Y-98290000D01*
X75430500Y-98242405D01*
X75430500Y-98230691D01*
X75430500Y-98230688D01*
X75404820Y-98134852D01*
X75399799Y-98116114D01*
X75341130Y-98014498D01*
X75336235Y-97977318D01*
X75341129Y-97965503D01*
X75399799Y-97863886D01*
X75424768Y-97770701D01*
X75430500Y-97749311D01*
X75430500Y-97630688D01*
X75399799Y-97516115D01*
X75399798Y-97516112D01*
X75364434Y-97454861D01*
X75340489Y-97413387D01*
X75256613Y-97329511D01*
X75153887Y-97270201D01*
X75153884Y-97270200D01*
X75039312Y-97239500D01*
X75039309Y-97239500D01*
X75036173Y-97239500D01*
X74423287Y-97239500D01*
X74388639Y-97225148D01*
X74382864Y-97218194D01*
X74382206Y-97217234D01*
X74361935Y-97196963D01*
X74356941Y-97191117D01*
X74356493Y-97190500D01*
X74345134Y-97174866D01*
X74341327Y-97172100D01*
X74321732Y-97140124D01*
X74321629Y-97139439D01*
X74313404Y-97082286D01*
X74312380Y-97076390D01*
X74311061Y-97069923D01*
X74309727Y-97064213D01*
X74303330Y-97039998D01*
X74298202Y-97020582D01*
X74298198Y-97020573D01*
X74298009Y-97019856D01*
X74297310Y-97017477D01*
X74297309Y-97017467D01*
X74294017Y-97010260D01*
X74291983Y-97005243D01*
X74278661Y-96972377D01*
X74278660Y-96972375D01*
X74278656Y-96972365D01*
X74275777Y-96967243D01*
X74274311Y-96965150D01*
X74269876Y-96957398D01*
X74245884Y-96904861D01*
X74164817Y-96811304D01*
X74060675Y-96744376D01*
X74049433Y-96741075D01*
X73941901Y-96709500D01*
X73941897Y-96709500D01*
X73818103Y-96709500D01*
X73810920Y-96711609D01*
X73773632Y-96707599D01*
X73750100Y-96678397D01*
X73749058Y-96655034D01*
X73751092Y-96644808D01*
X73751922Y-96641709D01*
X73752615Y-96639669D01*
X73806305Y-96481513D01*
X73807524Y-96478572D01*
X73862593Y-96366910D01*
X73870148Y-96355771D01*
X73874977Y-96350418D01*
X73888368Y-96327947D01*
X73889528Y-96326184D01*
X73899972Y-96311747D01*
X73901640Y-96309689D01*
X73907309Y-96303430D01*
X73909453Y-96301339D01*
X73911906Y-96299229D01*
X73914313Y-96297406D01*
X73917288Y-96295434D01*
X73919505Y-96294128D01*
X73927674Y-96289880D01*
X73929274Y-96289121D01*
X73943629Y-96282956D01*
X73946463Y-96281739D01*
X73973473Y-96271299D01*
X73991286Y-96264482D01*
X74009101Y-96257666D01*
X74040778Y-96244719D01*
X74049002Y-96240222D01*
X74058707Y-96236201D01*
X74060675Y-96235624D01*
X74078506Y-96224164D01*
X74079973Y-96223293D01*
X74081177Y-96222636D01*
X74083893Y-96220727D01*
X74084312Y-96220433D01*
X74108138Y-96205120D01*
X74164817Y-96168696D01*
X74245884Y-96075139D01*
X74297309Y-95962533D01*
X74314927Y-95840000D01*
X74312680Y-95824375D01*
X74304498Y-95767467D01*
X74297309Y-95717467D01*
X74245884Y-95604861D01*
X74164817Y-95511304D01*
X74060675Y-95444376D01*
X74060672Y-95444375D01*
X73941901Y-95409500D01*
X73941897Y-95409500D01*
X73818103Y-95409500D01*
X73818098Y-95409500D01*
X73739670Y-95432529D01*
X73702382Y-95428520D01*
X73678850Y-95399319D01*
X73682859Y-95362031D01*
X73682861Y-95362026D01*
X73764832Y-95213713D01*
X73766278Y-95211411D01*
X73829362Y-95122501D01*
X73836569Y-95114415D01*
X73837850Y-95113265D01*
X73855394Y-95089807D01*
X73856538Y-95088392D01*
X73871395Y-95071379D01*
X73872980Y-95069728D01*
X73882683Y-95060530D01*
X73884661Y-95058848D01*
X73890898Y-95054097D01*
X73893100Y-95052604D01*
X73899392Y-95048823D01*
X73901399Y-95047744D01*
X73912117Y-95042618D01*
X73913556Y-95041988D01*
X73932438Y-95034465D01*
X73960545Y-95024349D01*
X73997037Y-95011348D01*
X74029973Y-94998859D01*
X74045062Y-94991114D01*
X74053630Y-94987692D01*
X74060675Y-94985624D01*
X74164817Y-94918696D01*
X74245884Y-94825139D01*
X74297309Y-94712533D01*
X74314927Y-94590000D01*
X74297309Y-94467467D01*
X74245884Y-94354861D01*
X74164817Y-94261304D01*
X74060675Y-94194376D01*
X74060672Y-94194375D01*
X73941901Y-94159500D01*
X73941897Y-94159500D01*
X73818103Y-94159500D01*
X73818098Y-94159500D01*
X73699327Y-94194375D01*
X73595182Y-94261304D01*
X73514116Y-94354860D01*
X73514115Y-94354863D01*
X73462688Y-94467472D01*
X73462688Y-94467474D01*
X73460770Y-94472253D01*
X73460935Y-94472319D01*
X73460040Y-94474551D01*
X73449430Y-94511040D01*
X73438576Y-94549782D01*
X73429565Y-94581487D01*
X73421693Y-94607049D01*
X73414412Y-94627674D01*
X73413931Y-94628925D01*
X73406244Y-94647409D01*
X73405637Y-94648751D01*
X73395797Y-94668904D01*
X73395152Y-94670135D01*
X73381343Y-94694766D01*
X73380746Y-94695774D01*
X73361075Y-94727235D01*
X73339155Y-94759529D01*
X73331924Y-94776459D01*
X73327605Y-94784434D01*
X73221180Y-94943711D01*
X73196768Y-94989382D01*
X73167777Y-95013173D01*
X73130455Y-95009497D01*
X73106664Y-94980506D01*
X73104554Y-94966283D01*
X73104554Y-92880001D01*
X75085073Y-92880001D01*
X75102691Y-93002534D01*
X75154115Y-93115136D01*
X75154116Y-93115139D01*
X75228909Y-93201456D01*
X75235183Y-93208696D01*
X75339325Y-93275624D01*
X75405415Y-93295029D01*
X75458098Y-93310499D01*
X75458101Y-93310499D01*
X75458103Y-93310500D01*
X75458104Y-93310500D01*
X75581896Y-93310500D01*
X75581897Y-93310500D01*
X75581899Y-93310499D01*
X75581901Y-93310499D01*
X75602689Y-93304395D01*
X75700675Y-93275624D01*
X75804817Y-93208696D01*
X75885884Y-93115139D01*
X75900428Y-93083290D01*
X75927876Y-93057736D01*
X75965355Y-93059074D01*
X75989571Y-93083290D01*
X76004115Y-93115136D01*
X76004116Y-93115139D01*
X76078909Y-93201456D01*
X76085183Y-93208696D01*
X76189325Y-93275624D01*
X76255415Y-93295029D01*
X76308098Y-93310499D01*
X76308101Y-93310499D01*
X76308103Y-93310500D01*
X76308104Y-93310500D01*
X76431896Y-93310500D01*
X76431897Y-93310500D01*
X76431899Y-93310499D01*
X76431901Y-93310499D01*
X76452689Y-93304395D01*
X76550675Y-93275624D01*
X76654817Y-93208696D01*
X76735884Y-93115139D01*
X76787309Y-93002533D01*
X76804927Y-92880000D01*
X76804812Y-92879202D01*
X76791357Y-92785624D01*
X76787309Y-92757467D01*
X76735884Y-92644861D01*
X76654817Y-92551304D01*
X76550675Y-92484376D01*
X76550673Y-92484375D01*
X76550671Y-92484374D01*
X76484456Y-92464931D01*
X76455254Y-92441399D01*
X76449760Y-92410942D01*
X76455647Y-92370001D01*
X76455647Y-92369998D01*
X76435166Y-92227545D01*
X76425996Y-92207467D01*
X76375377Y-92096627D01*
X76373848Y-92094863D01*
X76281128Y-91987857D01*
X76266873Y-91978696D01*
X76160053Y-91910047D01*
X76160050Y-91910046D01*
X76021965Y-91869500D01*
X76021961Y-91869500D01*
X75878039Y-91869500D01*
X75878034Y-91869500D01*
X75739949Y-91910046D01*
X75739947Y-91910046D01*
X75739947Y-91910047D01*
X75724463Y-91919998D01*
X75618871Y-91987857D01*
X75524625Y-92096623D01*
X75524624Y-92096625D01*
X75464833Y-92227545D01*
X75444353Y-92369997D01*
X75444353Y-92370001D01*
X75449834Y-92408126D01*
X75440559Y-92444464D01*
X75415138Y-92462114D01*
X75339327Y-92484374D01*
X75235182Y-92551304D01*
X75154116Y-92644860D01*
X75154115Y-92644863D01*
X75102691Y-92757465D01*
X75085073Y-92879998D01*
X75085073Y-92880001D01*
X73104554Y-92880001D01*
X73104554Y-92514563D01*
X73105630Y-92504352D01*
X73108095Y-92492783D01*
X73109691Y-92485292D01*
X73110306Y-92439825D01*
X73112289Y-92395262D01*
X73115231Y-92358058D01*
X73118963Y-92325391D01*
X73123476Y-92294151D01*
X73128827Y-92261417D01*
X73134925Y-92224914D01*
X73141421Y-92183159D01*
X73147821Y-92135180D01*
X73152503Y-92091074D01*
X73152341Y-92061764D01*
X73152839Y-92054519D01*
X73154439Y-92043397D01*
X73154927Y-92040000D01*
X73152704Y-92024542D01*
X73147430Y-91987857D01*
X73137309Y-91917467D01*
X73085884Y-91804861D01*
X73004817Y-91711304D01*
X72900675Y-91644376D01*
X72900672Y-91644375D01*
X72781901Y-91609500D01*
X72781897Y-91609500D01*
X72658103Y-91609500D01*
X72658098Y-91609500D01*
X72539327Y-91644375D01*
X72539325Y-91644375D01*
X72539325Y-91644376D01*
X72507306Y-91664953D01*
X72435182Y-91711304D01*
X72354116Y-91804860D01*
X72354115Y-91804863D01*
X72302691Y-91917465D01*
X72285073Y-92039998D01*
X72285073Y-92040001D01*
X72302691Y-92162534D01*
X72323211Y-92207467D01*
X72354116Y-92275139D01*
X72388687Y-92315037D01*
X72412381Y-92342381D01*
X72413873Y-92344286D01*
X72425868Y-92361258D01*
X72425870Y-92361260D01*
X72446341Y-92380685D01*
X72466997Y-92400737D01*
X72480114Y-92414489D01*
X72481255Y-92415774D01*
X72484293Y-92419442D01*
X72494457Y-92440388D01*
X72495045Y-92443121D01*
X72495443Y-92445571D01*
X72497395Y-92463142D01*
X72497533Y-92465071D01*
X72498297Y-92489226D01*
X72502372Y-92507439D01*
X72503554Y-92518136D01*
X72503554Y-95814328D01*
X72489202Y-95848976D01*
X72454554Y-95863328D01*
X72428064Y-95855550D01*
X72410675Y-95844375D01*
X72291901Y-95809500D01*
X72291897Y-95809500D01*
X72168103Y-95809500D01*
X72168098Y-95809500D01*
X72049327Y-95844375D01*
X72049325Y-95844375D01*
X72049325Y-95844376D01*
X72031938Y-95855550D01*
X71945182Y-95911304D01*
X71864116Y-96004860D01*
X71864115Y-96004863D01*
X71812692Y-96117462D01*
X71812690Y-96117470D01*
X71811735Y-96124106D01*
X71807583Y-96137963D01*
X71805532Y-96142327D01*
X71801668Y-96157913D01*
X71796090Y-96180412D01*
X71786387Y-96220165D01*
X71778002Y-96253879D01*
X71770314Y-96282956D01*
X71762615Y-96309372D01*
X71754034Y-96335627D01*
X71743546Y-96364347D01*
X71742296Y-96367465D01*
X71730100Y-96397874D01*
X71712747Y-96438110D01*
X71694881Y-96477396D01*
X71694881Y-96477398D01*
X71691094Y-96493395D01*
X71688682Y-96500857D01*
X71627761Y-96647932D01*
X71627757Y-96647944D01*
X71585692Y-96804928D01*
X71573079Y-96851998D01*
X71572091Y-96859500D01*
X71545501Y-97061447D01*
X71545501Y-97106949D01*
X71545500Y-97106963D01*
X71545500Y-97110905D01*
X71545500Y-97145547D01*
X71545500Y-97167073D01*
X71545500Y-97191117D01*
X71545499Y-97218610D01*
X71545500Y-97218623D01*
X71545500Y-98706208D01*
X71531148Y-98740856D01*
X71496500Y-98755208D01*
X71482696Y-98753223D01*
X71401903Y-98729501D01*
X71401897Y-98729500D01*
X71278103Y-98729500D01*
X71278098Y-98729500D01*
X71159327Y-98764375D01*
X71159325Y-98764375D01*
X71159325Y-98764376D01*
X71142322Y-98775303D01*
X71055182Y-98831304D01*
X70974116Y-98924860D01*
X70974115Y-98924863D01*
X70922691Y-99037465D01*
X70905073Y-99159998D01*
X70905073Y-99160001D01*
X70922691Y-99282534D01*
X70934639Y-99308696D01*
X70974116Y-99395139D01*
X71055183Y-99488696D01*
X71159325Y-99555624D01*
X71225415Y-99575029D01*
X71278098Y-99590499D01*
X71278101Y-99590499D01*
X71278103Y-99590500D01*
X71278104Y-99590500D01*
X71401896Y-99590500D01*
X71401897Y-99590500D01*
X71401899Y-99590499D01*
X71401901Y-99590499D01*
X71482695Y-99566776D01*
X71519983Y-99570785D01*
X71543515Y-99599986D01*
X71545500Y-99613791D01*
X71545500Y-100686758D01*
X71545543Y-100687720D01*
X71545543Y-100822100D01*
X71572328Y-101094097D01*
X71561441Y-101129985D01*
X71528366Y-101147663D01*
X71492478Y-101136776D01*
X71486532Y-101130987D01*
X71434817Y-101071304D01*
X71408898Y-101054647D01*
X71330675Y-101004376D01*
X71330672Y-101004375D01*
X71211901Y-100969500D01*
X71211897Y-100969500D01*
X71088103Y-100969500D01*
X71088098Y-100969500D01*
X70969327Y-101004375D01*
X70865182Y-101071304D01*
X70784116Y-101164860D01*
X70784115Y-101164863D01*
X70732691Y-101277465D01*
X70715073Y-101399998D01*
X70715073Y-101400001D01*
X70732691Y-101522534D01*
X70743460Y-101546114D01*
X70784116Y-101635139D01*
X70865183Y-101728696D01*
X70969325Y-101795624D01*
X71035415Y-101815029D01*
X71088098Y-101830499D01*
X71088101Y-101830499D01*
X71088103Y-101830500D01*
X71088104Y-101830500D01*
X71211896Y-101830500D01*
X71211897Y-101830500D01*
X71211899Y-101830499D01*
X71211901Y-101830499D01*
X71231538Y-101824732D01*
X71330675Y-101795624D01*
X71434817Y-101728696D01*
X71515884Y-101635139D01*
X71567309Y-101522533D01*
X71567309Y-101522531D01*
X71567742Y-101521584D01*
X71595190Y-101496029D01*
X71632669Y-101497367D01*
X71658224Y-101524815D01*
X71659204Y-101527716D01*
X71736704Y-101783217D01*
X71862102Y-102085968D01*
X71862103Y-102085971D01*
X72016577Y-102374985D01*
X72174280Y-102611010D01*
X72198631Y-102647455D01*
X72406516Y-102900774D01*
X72480532Y-102974794D01*
X72480551Y-102974816D01*
X72522372Y-103016636D01*
X72558809Y-103053076D01*
X72558828Y-103053092D01*
X73335220Y-103829484D01*
X73349572Y-103864132D01*
X73335220Y-103898780D01*
X73314377Y-103911147D01*
X73269327Y-103924375D01*
X73165182Y-103991304D01*
X73084118Y-104084857D01*
X73084114Y-104084863D01*
X73071226Y-104113083D01*
X73043777Y-104138637D01*
X73006298Y-104137297D01*
X72992007Y-104127374D01*
X70363745Y-101499112D01*
X70363729Y-101499093D01*
X70327870Y-101463236D01*
X70326773Y-101462066D01*
X70190892Y-101307129D01*
X70188939Y-101304583D01*
X70074897Y-101133915D01*
X70073299Y-101131147D01*
X69982506Y-100947046D01*
X69981287Y-100944104D01*
X69915300Y-100749719D01*
X69914473Y-100746630D01*
X69903980Y-100693884D01*
X69874426Y-100545319D01*
X69874008Y-100542140D01*
X69870364Y-100486551D01*
X69860551Y-100336868D01*
X69860500Y-100335281D01*
X69860500Y-96220001D01*
X70765073Y-96220001D01*
X70782691Y-96342534D01*
X70834115Y-96455136D01*
X70834116Y-96455139D01*
X70877287Y-96504962D01*
X70915183Y-96548696D01*
X71019325Y-96615624D01*
X71085415Y-96635029D01*
X71138098Y-96650499D01*
X71138101Y-96650499D01*
X71138103Y-96650500D01*
X71138104Y-96650500D01*
X71261896Y-96650500D01*
X71261897Y-96650500D01*
X71261899Y-96650499D01*
X71261901Y-96650499D01*
X71284848Y-96643761D01*
X71380675Y-96615624D01*
X71484817Y-96548696D01*
X71565884Y-96455139D01*
X71617309Y-96342533D01*
X71634627Y-96222087D01*
X71634927Y-96220001D01*
X71634927Y-96219998D01*
X71623759Y-96142327D01*
X71617309Y-96097467D01*
X71565884Y-95984861D01*
X71484817Y-95891304D01*
X71380675Y-95824376D01*
X71380672Y-95824375D01*
X71261901Y-95789500D01*
X71261897Y-95789500D01*
X71138103Y-95789500D01*
X71138098Y-95789500D01*
X71019327Y-95824375D01*
X71019325Y-95824375D01*
X71019325Y-95824376D01*
X71009978Y-95830383D01*
X70915182Y-95891304D01*
X70834116Y-95984860D01*
X70834115Y-95984863D01*
X70782691Y-96097465D01*
X70765073Y-96219998D01*
X70765073Y-96220001D01*
X69860500Y-96220001D01*
X69860500Y-95520001D01*
X70055073Y-95520001D01*
X70072691Y-95642534D01*
X70088716Y-95677624D01*
X70124116Y-95755139D01*
X70205183Y-95848696D01*
X70309325Y-95915624D01*
X70375415Y-95935029D01*
X70428098Y-95950499D01*
X70428101Y-95950499D01*
X70428103Y-95950500D01*
X70428104Y-95950500D01*
X70551896Y-95950500D01*
X70551897Y-95950500D01*
X70551899Y-95950499D01*
X70551901Y-95950499D01*
X70580127Y-95942211D01*
X70670675Y-95915624D01*
X70774817Y-95848696D01*
X70855884Y-95755139D01*
X70907309Y-95642533D01*
X70924927Y-95520000D01*
X70924118Y-95514376D01*
X70919104Y-95479500D01*
X70907309Y-95397467D01*
X70855884Y-95284861D01*
X70774817Y-95191304D01*
X70670675Y-95124376D01*
X70664303Y-95122505D01*
X70551901Y-95089500D01*
X70551897Y-95089500D01*
X70428103Y-95089500D01*
X70428098Y-95089500D01*
X70309327Y-95124375D01*
X70205182Y-95191304D01*
X70124116Y-95284860D01*
X70124115Y-95284863D01*
X70072691Y-95397465D01*
X70055073Y-95519998D01*
X70055073Y-95520001D01*
X69860500Y-95520001D01*
X69860500Y-92390001D01*
X70315073Y-92390001D01*
X70332691Y-92512534D01*
X70335732Y-92519192D01*
X70384116Y-92625139D01*
X70465183Y-92718696D01*
X70569325Y-92785624D01*
X70635415Y-92805029D01*
X70688098Y-92820499D01*
X70688101Y-92820499D01*
X70688103Y-92820500D01*
X70688104Y-92820500D01*
X70811896Y-92820500D01*
X70811897Y-92820500D01*
X70811899Y-92820499D01*
X70811901Y-92820499D01*
X70831538Y-92814732D01*
X70930675Y-92785624D01*
X71034817Y-92718696D01*
X71115884Y-92625139D01*
X71167309Y-92512533D01*
X71183946Y-92396826D01*
X71184927Y-92390001D01*
X71184927Y-92389998D01*
X71178354Y-92344286D01*
X71167309Y-92267467D01*
X71115884Y-92154861D01*
X71034817Y-92061304D01*
X70930675Y-91994376D01*
X70930672Y-91994375D01*
X70811901Y-91959500D01*
X70811897Y-91959500D01*
X70688103Y-91959500D01*
X70688098Y-91959500D01*
X70569327Y-91994375D01*
X70465182Y-92061304D01*
X70384116Y-92154860D01*
X70384115Y-92154863D01*
X70332691Y-92267465D01*
X70315073Y-92389998D01*
X70315073Y-92390001D01*
X69860500Y-92390001D01*
X69860500Y-87972212D01*
X69874852Y-87937564D01*
X69909500Y-87923212D01*
X69941992Y-87935535D01*
X69959148Y-87950734D01*
X70109775Y-88029790D01*
X70274944Y-88070500D01*
X70445056Y-88070500D01*
X70610225Y-88029790D01*
X70760852Y-87950734D01*
X70888183Y-87837929D01*
X70984818Y-87697930D01*
X71045140Y-87538872D01*
X71045140Y-87538868D01*
X71046187Y-87536109D01*
X71071892Y-87508801D01*
X71109378Y-87507668D01*
X71129619Y-87526229D01*
X71131267Y-87524915D01*
X71145716Y-87543033D01*
X71151551Y-87552318D01*
X71159212Y-87568224D01*
X71173008Y-87579226D01*
X71173011Y-87579228D01*
X71180769Y-87586987D01*
X71191774Y-87600786D01*
X71191774Y-87600787D01*
X71191775Y-87600787D01*
X71191776Y-87600788D01*
X71207681Y-87608447D01*
X71216961Y-87614278D01*
X71230769Y-87625290D01*
X71247983Y-87629218D01*
X71258333Y-87632841D01*
X71274237Y-87640500D01*
X71274239Y-87640500D01*
X80605762Y-87640500D01*
X80605763Y-87640500D01*
X80621669Y-87632839D01*
X80632015Y-87629219D01*
X80649231Y-87625290D01*
X80663036Y-87614279D01*
X80672318Y-87608447D01*
X80688224Y-87600788D01*
X80699234Y-87586980D01*
X80706980Y-87579234D01*
X80720788Y-87568224D01*
X80728447Y-87552318D01*
X80734282Y-87543033D01*
X80737599Y-87538874D01*
X80743112Y-87531961D01*
X80775934Y-87513822D01*
X80811971Y-87524204D01*
X80827236Y-87545138D01*
X80885182Y-87697931D01*
X80981816Y-87837928D01*
X80981817Y-87837929D01*
X81109148Y-87950734D01*
X81259775Y-88029790D01*
X81424944Y-88070500D01*
X81595056Y-88070500D01*
X81760225Y-88029790D01*
X81910852Y-87950734D01*
X82038183Y-87837929D01*
X82134818Y-87697930D01*
X82195140Y-87538872D01*
X82210500Y-87412372D01*
X82210500Y-86627628D01*
X82195140Y-86501128D01*
X82134818Y-86342070D01*
X82038183Y-86202071D01*
X81910852Y-86089266D01*
X81910844Y-86089262D01*
X81910843Y-86089261D01*
X81760224Y-86010209D01*
X81595056Y-85969500D01*
X81424944Y-85969500D01*
X81259775Y-86010209D01*
X81109156Y-86089261D01*
X81109151Y-86089264D01*
X81109148Y-86089266D01*
X81109146Y-86089268D01*
X80981816Y-86202071D01*
X80885182Y-86342068D01*
X80855316Y-86420821D01*
X80829610Y-86448128D01*
X80792124Y-86449261D01*
X80764817Y-86423555D01*
X80760500Y-86403445D01*
X80760500Y-84990001D01*
X81085073Y-84990001D01*
X81096576Y-85070000D01*
X81102691Y-85112533D01*
X81139225Y-85192533D01*
X81154115Y-85225136D01*
X81154116Y-85225139D01*
X81221140Y-85302490D01*
X81235183Y-85318696D01*
X81339325Y-85385624D01*
X81383845Y-85398696D01*
X81458098Y-85420499D01*
X81458101Y-85420499D01*
X81458103Y-85420500D01*
X81458104Y-85420500D01*
X81581896Y-85420500D01*
X81581897Y-85420500D01*
X81581899Y-85420499D01*
X81581901Y-85420499D01*
X81601538Y-85414732D01*
X81700675Y-85385624D01*
X81804817Y-85318696D01*
X81885884Y-85225139D01*
X81937309Y-85112533D01*
X81954927Y-84990000D01*
X81937309Y-84867467D01*
X81885884Y-84754861D01*
X81804817Y-84661304D01*
X81700675Y-84594376D01*
X81700672Y-84594375D01*
X81581901Y-84559500D01*
X81581897Y-84559500D01*
X81458103Y-84559500D01*
X81458098Y-84559500D01*
X81339327Y-84594375D01*
X81339325Y-84594375D01*
X81339325Y-84594376D01*
X81307594Y-84614768D01*
X81235182Y-84661304D01*
X81154116Y-84754860D01*
X81154115Y-84754863D01*
X81102691Y-84867465D01*
X81085073Y-84989998D01*
X81085073Y-84990001D01*
X80760500Y-84990001D01*
X80760500Y-83836554D01*
X80774852Y-83801906D01*
X80809500Y-83787554D01*
X80844148Y-83801906D01*
X80855316Y-83819179D01*
X80885181Y-83897929D01*
X80885182Y-83897931D01*
X80981816Y-84037928D01*
X80981817Y-84037929D01*
X81109148Y-84150734D01*
X81259775Y-84229790D01*
X81424944Y-84270500D01*
X81595056Y-84270500D01*
X81760225Y-84229790D01*
X81910852Y-84150734D01*
X82038183Y-84037929D01*
X82134818Y-83897930D01*
X82195140Y-83738872D01*
X82210500Y-83612372D01*
X82210500Y-82427628D01*
X82195140Y-82301128D01*
X82134818Y-82142070D01*
X82134817Y-82142068D01*
X82076330Y-82057335D01*
X82068459Y-82020668D01*
X82088821Y-81989174D01*
X82116656Y-81980500D01*
X83186233Y-81980500D01*
X83220881Y-81994852D01*
G37*
G04 #@! TD.AperFunction*
G04 #@! TA.AperFunction,Conductor*
G36*
X75875765Y-102505754D02*
G01*
X75881110Y-102514763D01*
X75887221Y-102528144D01*
X75904116Y-102565139D01*
X75985183Y-102658696D01*
X76089325Y-102725624D01*
X76155415Y-102745029D01*
X76208098Y-102760499D01*
X76208101Y-102760499D01*
X76208103Y-102760500D01*
X76208104Y-102760500D01*
X76331896Y-102760500D01*
X76331897Y-102760500D01*
X76331899Y-102760499D01*
X76331901Y-102760499D01*
X76351538Y-102754732D01*
X76450675Y-102725624D01*
X76554817Y-102658696D01*
X76596135Y-102611010D01*
X76629670Y-102594223D01*
X76665254Y-102606066D01*
X76670192Y-102611003D01*
X76720183Y-102668696D01*
X76824325Y-102735624D01*
X76890415Y-102755029D01*
X76943098Y-102770499D01*
X76943101Y-102770499D01*
X76943103Y-102770500D01*
X76943104Y-102770500D01*
X77066896Y-102770500D01*
X77066897Y-102770500D01*
X77066899Y-102770499D01*
X77066901Y-102770499D01*
X77175645Y-102738569D01*
X77185675Y-102735624D01*
X77204010Y-102723840D01*
X77240914Y-102717181D01*
X77271721Y-102738569D01*
X77279500Y-102765062D01*
X77279500Y-107987734D01*
X77279499Y-107987752D01*
X77279499Y-108036185D01*
X77279447Y-108037787D01*
X77267865Y-108214529D01*
X77267447Y-108217709D01*
X77233049Y-108390654D01*
X77232219Y-108393753D01*
X77175546Y-108560716D01*
X77174319Y-108563680D01*
X77111746Y-108690573D01*
X77103897Y-108702037D01*
X77098016Y-108708443D01*
X77098014Y-108708445D01*
X77084308Y-108730987D01*
X77083118Y-108732762D01*
X77073866Y-108745347D01*
X77072353Y-108747405D01*
X77070666Y-108749457D01*
X77064725Y-108755931D01*
X77062544Y-108758032D01*
X77059820Y-108760349D01*
X77057420Y-108762149D01*
X77055692Y-108763286D01*
X77054200Y-108764268D01*
X77051984Y-108765564D01*
X77048549Y-108767338D01*
X77043641Y-108769872D01*
X77042021Y-108770634D01*
X77024715Y-108778022D01*
X76997615Y-108788432D01*
X76961911Y-108802010D01*
X76930132Y-108814918D01*
X76921336Y-108819701D01*
X76911740Y-108823666D01*
X76909328Y-108824374D01*
X76909326Y-108824375D01*
X76891306Y-108835954D01*
X76889805Y-108836845D01*
X76889723Y-108836889D01*
X76889698Y-108836905D01*
X76889697Y-108836906D01*
X76888211Y-108837944D01*
X76828313Y-108876439D01*
X76805183Y-108891304D01*
X76805180Y-108891307D01*
X76724116Y-108984860D01*
X76724115Y-108984863D01*
X76672691Y-109097465D01*
X76655073Y-109219998D01*
X76655073Y-109220001D01*
X76672691Y-109342534D01*
X76676780Y-109351487D01*
X76724050Y-109454995D01*
X76724115Y-109455136D01*
X76724116Y-109455139D01*
X76793658Y-109535396D01*
X76805183Y-109548696D01*
X76909325Y-109615624D01*
X76968772Y-109633079D01*
X77028098Y-109650499D01*
X77028101Y-109650499D01*
X77028103Y-109650500D01*
X77028104Y-109650500D01*
X77151892Y-109650500D01*
X77151897Y-109650500D01*
X77151901Y-109650498D01*
X77155361Y-109650001D01*
X77155559Y-109651378D01*
X77187969Y-109654851D01*
X77211512Y-109684043D01*
X77213003Y-109704839D01*
X77205073Y-109759997D01*
X77205073Y-109760001D01*
X77222691Y-109882534D01*
X77272280Y-109991120D01*
X77273618Y-110028599D01*
X77248063Y-110056047D01*
X77210584Y-110057385D01*
X77207194Y-110055974D01*
X77172821Y-110040128D01*
X77144128Y-110026900D01*
X77142417Y-110026028D01*
X76815370Y-109842871D01*
X76813729Y-109841865D01*
X76502068Y-109633617D01*
X76500511Y-109632486D01*
X76206130Y-109400415D01*
X76204666Y-109399165D01*
X75929464Y-109144769D01*
X75927940Y-109143230D01*
X75725668Y-108920055D01*
X75724141Y-108918195D01*
X75610945Y-108765568D01*
X75544757Y-108676325D01*
X75543423Y-108674327D01*
X75388606Y-108416029D01*
X75387472Y-108413908D01*
X75258719Y-108141683D01*
X75257799Y-108139460D01*
X75156349Y-107855926D01*
X75155651Y-107853624D01*
X75086784Y-107578696D01*
X75082477Y-107561504D01*
X75082010Y-107559152D01*
X75069546Y-107475129D01*
X75037823Y-107261269D01*
X75037589Y-107258891D01*
X75032186Y-107148917D01*
X75044820Y-107113609D01*
X75078723Y-107097574D01*
X75114033Y-107110208D01*
X75118158Y-107114426D01*
X75165183Y-107168696D01*
X75269325Y-107235624D01*
X75335415Y-107255029D01*
X75388098Y-107270499D01*
X75388101Y-107270499D01*
X75388103Y-107270500D01*
X75388104Y-107270500D01*
X75511896Y-107270500D01*
X75511897Y-107270500D01*
X75511899Y-107270499D01*
X75511901Y-107270499D01*
X75545954Y-107260500D01*
X75630675Y-107235624D01*
X75734817Y-107168696D01*
X75815884Y-107075139D01*
X75867309Y-106962533D01*
X75883489Y-106850001D01*
X76115073Y-106850001D01*
X76132691Y-106972534D01*
X76184115Y-107085136D01*
X76184116Y-107085139D01*
X76218272Y-107124558D01*
X76265183Y-107178696D01*
X76369325Y-107245624D01*
X76432256Y-107264102D01*
X76488098Y-107280499D01*
X76488101Y-107280499D01*
X76488103Y-107280500D01*
X76488104Y-107280500D01*
X76611896Y-107280500D01*
X76611897Y-107280500D01*
X76611899Y-107280499D01*
X76611901Y-107280499D01*
X76645954Y-107270500D01*
X76730675Y-107245624D01*
X76834817Y-107178696D01*
X76915884Y-107085139D01*
X76967309Y-106972533D01*
X76984927Y-106850000D01*
X76983489Y-106840001D01*
X76978437Y-106804861D01*
X76967309Y-106727467D01*
X76915884Y-106614861D01*
X76834817Y-106521304D01*
X76730675Y-106454376D01*
X76730672Y-106454375D01*
X76611901Y-106419500D01*
X76611897Y-106419500D01*
X76488103Y-106419500D01*
X76488098Y-106419500D01*
X76369327Y-106454375D01*
X76369325Y-106454375D01*
X76369325Y-106454376D01*
X76359894Y-106460437D01*
X76265182Y-106521304D01*
X76184116Y-106614860D01*
X76184115Y-106614863D01*
X76132691Y-106727465D01*
X76115073Y-106849998D01*
X76115073Y-106850001D01*
X75883489Y-106850001D01*
X75883489Y-106850000D01*
X75884927Y-106840001D01*
X75884927Y-106839998D01*
X75877257Y-106786655D01*
X75867309Y-106717467D01*
X75815884Y-106604861D01*
X75734817Y-106511304D01*
X75630675Y-106444376D01*
X75630672Y-106444375D01*
X75511901Y-106409500D01*
X75511897Y-106409500D01*
X75388103Y-106409500D01*
X75388098Y-106409500D01*
X75269327Y-106444375D01*
X75165182Y-106511304D01*
X75108775Y-106576402D01*
X75075239Y-106593189D01*
X75039655Y-106581346D01*
X75022868Y-106547810D01*
X75022743Y-106544314D01*
X75022743Y-105543389D01*
X75037095Y-105508741D01*
X75071743Y-105494389D01*
X75106391Y-105508741D01*
X75108775Y-105511301D01*
X75114318Y-105517698D01*
X75115183Y-105518696D01*
X75219325Y-105585624D01*
X75278789Y-105603084D01*
X75338098Y-105620499D01*
X75338101Y-105620499D01*
X75338103Y-105620500D01*
X75338104Y-105620500D01*
X75461896Y-105620500D01*
X75461897Y-105620500D01*
X75461899Y-105620499D01*
X75461901Y-105620499D01*
X75479547Y-105615317D01*
X75580675Y-105585624D01*
X75674549Y-105525295D01*
X75676009Y-105524357D01*
X75712916Y-105517698D01*
X75728991Y-105524357D01*
X75765465Y-105547797D01*
X75824325Y-105585624D01*
X75883789Y-105603084D01*
X75943098Y-105620499D01*
X75943101Y-105620499D01*
X75943103Y-105620500D01*
X75943104Y-105620500D01*
X76066896Y-105620500D01*
X76066897Y-105620500D01*
X76066899Y-105620499D01*
X76066901Y-105620499D01*
X76084547Y-105615317D01*
X76185675Y-105585624D01*
X76276009Y-105527570D01*
X76312916Y-105520911D01*
X76328991Y-105527570D01*
X76419325Y-105585624D01*
X76478789Y-105603084D01*
X76538098Y-105620499D01*
X76538101Y-105620499D01*
X76538103Y-105620500D01*
X76538104Y-105620500D01*
X76661896Y-105620500D01*
X76661897Y-105620500D01*
X76661899Y-105620499D01*
X76661901Y-105620499D01*
X76681538Y-105614732D01*
X76780675Y-105585624D01*
X76884817Y-105518696D01*
X76965884Y-105425139D01*
X77017309Y-105312533D01*
X77034927Y-105190000D01*
X77032185Y-105170932D01*
X77026344Y-105130305D01*
X77017309Y-105067467D01*
X76965884Y-104954861D01*
X76939985Y-104924972D01*
X76928143Y-104889389D01*
X76939987Y-104860796D01*
X76953546Y-104845148D01*
X76970884Y-104825139D01*
X77022309Y-104712533D01*
X77039927Y-104590000D01*
X77022309Y-104467467D01*
X76970884Y-104354861D01*
X76944985Y-104324972D01*
X76933143Y-104289389D01*
X76944987Y-104260796D01*
X76956348Y-104247685D01*
X76975884Y-104225139D01*
X77027309Y-104112533D01*
X77044927Y-103990000D01*
X77027309Y-103867467D01*
X76975884Y-103754861D01*
X76894817Y-103661304D01*
X76790675Y-103594376D01*
X76790672Y-103594375D01*
X76671901Y-103559500D01*
X76671897Y-103559500D01*
X76548103Y-103559500D01*
X76548098Y-103559500D01*
X76429327Y-103594375D01*
X76429325Y-103594375D01*
X76429325Y-103594376D01*
X76419796Y-103600500D01*
X76333991Y-103655643D01*
X76297084Y-103662301D01*
X76281009Y-103655643D01*
X76250246Y-103635873D01*
X76185675Y-103594376D01*
X76185672Y-103594375D01*
X76066901Y-103559500D01*
X76066897Y-103559500D01*
X75943103Y-103559500D01*
X75943098Y-103559500D01*
X75824327Y-103594375D01*
X75824325Y-103594375D01*
X75824325Y-103594376D01*
X75814796Y-103600500D01*
X75733991Y-103652430D01*
X75697084Y-103659088D01*
X75681009Y-103652430D01*
X75669376Y-103644954D01*
X75590675Y-103594376D01*
X75590672Y-103594375D01*
X75471901Y-103559500D01*
X75471897Y-103559500D01*
X75348103Y-103559500D01*
X75348098Y-103559500D01*
X75229327Y-103594375D01*
X75229325Y-103594375D01*
X75229325Y-103594376D01*
X75219796Y-103600500D01*
X75125182Y-103661304D01*
X75044116Y-103754860D01*
X75044115Y-103754863D01*
X74992691Y-103867465D01*
X74975073Y-103989998D01*
X74975073Y-103990001D01*
X74992691Y-104112534D01*
X75004000Y-104137297D01*
X75044116Y-104225139D01*
X75063652Y-104247685D01*
X75070013Y-104255026D01*
X75081856Y-104290610D01*
X75070014Y-104319201D01*
X75039116Y-104354860D01*
X75016537Y-104404302D01*
X74989088Y-104429857D01*
X74951609Y-104428518D01*
X74926695Y-104402697D01*
X74838866Y-104190646D01*
X74793769Y-104112533D01*
X74719791Y-103984394D01*
X74719788Y-103984391D01*
X74719787Y-103984388D01*
X74574805Y-103795438D01*
X74566900Y-103787533D01*
X74535032Y-103755664D01*
X74535024Y-103755653D01*
X74530321Y-103750950D01*
X74490603Y-103711232D01*
X74490604Y-103711232D01*
X74456950Y-103677577D01*
X74456949Y-103677576D01*
X74455872Y-103676499D01*
X74455847Y-103676476D01*
X73734805Y-102955434D01*
X73720453Y-102920786D01*
X73734805Y-102886138D01*
X73742954Y-102879569D01*
X73751120Y-102874321D01*
X73788025Y-102867660D01*
X73814645Y-102883453D01*
X73828330Y-102899247D01*
X73845183Y-102918696D01*
X73949325Y-102985624D01*
X74015415Y-103005029D01*
X74068098Y-103020499D01*
X74068101Y-103020499D01*
X74068103Y-103020500D01*
X74068104Y-103020500D01*
X74191896Y-103020500D01*
X74191897Y-103020500D01*
X74191899Y-103020499D01*
X74191901Y-103020499D01*
X74225532Y-103010624D01*
X74310675Y-102985624D01*
X74400748Y-102927737D01*
X74437652Y-102921079D01*
X74464269Y-102936871D01*
X74470183Y-102943696D01*
X74574325Y-103010624D01*
X74640415Y-103030029D01*
X74693098Y-103045499D01*
X74693101Y-103045499D01*
X74693103Y-103045500D01*
X74693104Y-103045500D01*
X74816896Y-103045500D01*
X74816897Y-103045500D01*
X74816899Y-103045499D01*
X74816901Y-103045499D01*
X74836538Y-103039732D01*
X74935675Y-103010624D01*
X75039817Y-102943696D01*
X75047473Y-102934861D01*
X75077006Y-102900777D01*
X75078530Y-102899017D01*
X75112065Y-102882230D01*
X75142052Y-102889883D01*
X75174325Y-102910624D01*
X75201813Y-102918695D01*
X75293098Y-102945499D01*
X75293101Y-102945499D01*
X75293103Y-102945500D01*
X75293104Y-102945500D01*
X75416896Y-102945500D01*
X75416897Y-102945500D01*
X75416899Y-102945499D01*
X75416901Y-102945499D01*
X75446285Y-102936871D01*
X75535675Y-102910624D01*
X75639817Y-102843696D01*
X75720884Y-102750139D01*
X75772309Y-102637533D01*
X75788037Y-102528143D01*
X75807174Y-102495891D01*
X75843512Y-102486617D01*
X75875765Y-102505754D01*
G37*
G04 #@! TD.AperFunction*
G04 #@! TA.AperFunction,Conductor*
G36*
X69381065Y-101057843D02*
G01*
X69384101Y-101064757D01*
X69423357Y-101176938D01*
X69423361Y-101176946D01*
X69530309Y-101399019D01*
X69530316Y-101399033D01*
X69661468Y-101607752D01*
X69815169Y-101800481D01*
X69890237Y-101875546D01*
X72860760Y-104846069D01*
X72867396Y-104854324D01*
X72877536Y-104870185D01*
X72877540Y-104870190D01*
X72903212Y-104896925D01*
X72904031Y-104897822D01*
X72926018Y-104923119D01*
X72926945Y-104924253D01*
X72935008Y-104934769D01*
X72942137Y-104944067D01*
X72943139Y-104945473D01*
X72953857Y-104961702D01*
X72954769Y-104963196D01*
X72963574Y-104978853D01*
X72964273Y-104980192D01*
X72973456Y-104999169D01*
X72984270Y-105024132D01*
X72997344Y-105055857D01*
X73013523Y-105094701D01*
X73029161Y-105130296D01*
X73052676Y-105170893D01*
X73052607Y-105170932D01*
X73055228Y-105175678D01*
X73064116Y-105195139D01*
X73064117Y-105195140D01*
X73064118Y-105195142D01*
X73066845Y-105198289D01*
X73078689Y-105233873D01*
X73066846Y-105262466D01*
X73004118Y-105334857D01*
X73004116Y-105334859D01*
X72966181Y-105417923D01*
X72965193Y-105419855D01*
X72955106Y-105437594D01*
X72943769Y-105471733D01*
X72932085Y-105509325D01*
X72929176Y-105518695D01*
X72922831Y-105539130D01*
X72921170Y-105544035D01*
X72915513Y-105560748D01*
X72915065Y-105561964D01*
X72909220Y-105576627D01*
X72908467Y-105578327D01*
X72902994Y-105589508D01*
X72901970Y-105591387D01*
X72894919Y-105603084D01*
X72893766Y-105604825D01*
X72886798Y-105614427D01*
X72882537Y-105620299D01*
X72881425Y-105621718D01*
X72863446Y-105642986D01*
X72862487Y-105644055D01*
X72851618Y-105655464D01*
X72840183Y-105667467D01*
X72840180Y-105667471D01*
X72829782Y-105683659D01*
X72823203Y-105691824D01*
X71849095Y-106665933D01*
X71849093Y-106665935D01*
X71815439Y-106699590D01*
X71530713Y-106962789D01*
X71529249Y-106964039D01*
X71225513Y-107203489D01*
X71223956Y-107204620D01*
X70902363Y-107419504D01*
X70900722Y-107420510D01*
X70563261Y-107609500D01*
X70561546Y-107610374D01*
X70210299Y-107772302D01*
X70208521Y-107773038D01*
X69909847Y-107883225D01*
X69895902Y-107886161D01*
X69890633Y-107886485D01*
X69890627Y-107886486D01*
X69738855Y-107926512D01*
X69730935Y-107927918D01*
X69622357Y-107938101D01*
X69612631Y-107938043D01*
X69530580Y-107929369D01*
X69520845Y-107927325D01*
X69447869Y-107904055D01*
X69440349Y-107900948D01*
X69423851Y-107892465D01*
X69360736Y-107860012D01*
X69358561Y-107858748D01*
X69265146Y-107797820D01*
X69156084Y-107720903D01*
X69031023Y-107636748D01*
X69024781Y-107632854D01*
X68883197Y-107550926D01*
X68880563Y-107549486D01*
X68878832Y-107548539D01*
X68873789Y-107545939D01*
X68869082Y-107543661D01*
X68828187Y-107525139D01*
X68715103Y-107473921D01*
X68715097Y-107473919D01*
X68715095Y-107473918D01*
X68703879Y-107470404D01*
X68667492Y-107459004D01*
X68661940Y-107457983D01*
X68623687Y-107454596D01*
X68623686Y-107454596D01*
X68623685Y-107454596D01*
X68619792Y-107454872D01*
X68619748Y-107454254D01*
X68599116Y-107453583D01*
X68470934Y-107414700D01*
X68316609Y-107399500D01*
X68316608Y-107399500D01*
X66984500Y-107399500D01*
X66949852Y-107385148D01*
X66935500Y-107350500D01*
X66935500Y-107009500D01*
X66949852Y-106974852D01*
X66984500Y-106960500D01*
X68316609Y-106960500D01*
X68330446Y-106959137D01*
X68470934Y-106945300D01*
X68668954Y-106885232D01*
X68851450Y-106787685D01*
X69011410Y-106656410D01*
X69142685Y-106496450D01*
X69240232Y-106313954D01*
X69300300Y-106115934D01*
X69320583Y-105910000D01*
X69314828Y-105851572D01*
X69325714Y-105815685D01*
X69358789Y-105798006D01*
X69394677Y-105808892D01*
X69408164Y-105826415D01*
X69417294Y-105846406D01*
X69444116Y-105905139D01*
X69525183Y-105998696D01*
X69629325Y-106065624D01*
X69669816Y-106077513D01*
X69748098Y-106100499D01*
X69748101Y-106100499D01*
X69748103Y-106100500D01*
X69748104Y-106100500D01*
X69871896Y-106100500D01*
X69871897Y-106100500D01*
X69871899Y-106100499D01*
X69871901Y-106100499D01*
X69891538Y-106094732D01*
X69990675Y-106065624D01*
X70094817Y-105998696D01*
X70175884Y-105905139D01*
X70227309Y-105792533D01*
X70244927Y-105670000D01*
X70244563Y-105667471D01*
X70237810Y-105620499D01*
X70227309Y-105547467D01*
X70175884Y-105434861D01*
X70094817Y-105341304D01*
X69990675Y-105274376D01*
X69990672Y-105274375D01*
X69871901Y-105239500D01*
X69871897Y-105239500D01*
X69748103Y-105239500D01*
X69748098Y-105239500D01*
X69629327Y-105274375D01*
X69629325Y-105274375D01*
X69629325Y-105274376D01*
X69616631Y-105282534D01*
X69525182Y-105341304D01*
X69444116Y-105434860D01*
X69444115Y-105434863D01*
X69392691Y-105547465D01*
X69379087Y-105642080D01*
X69359950Y-105674333D01*
X69323612Y-105683607D01*
X69291359Y-105664470D01*
X69283696Y-105649330D01*
X69282100Y-105644069D01*
X69240232Y-105506046D01*
X69142685Y-105323550D01*
X69011410Y-105163590D01*
X68851450Y-105032315D01*
X68668954Y-104934768D01*
X68470934Y-104874700D01*
X68425093Y-104870185D01*
X68316609Y-104859500D01*
X68316608Y-104859500D01*
X68039271Y-104859500D01*
X68004623Y-104845148D01*
X67990271Y-104810500D01*
X67994699Y-104790145D01*
X68006467Y-104764376D01*
X68007309Y-104762533D01*
X68024927Y-104640000D01*
X68021972Y-104619451D01*
X68014953Y-104570631D01*
X68007309Y-104517467D01*
X67994698Y-104489854D01*
X67993360Y-104452376D01*
X68018916Y-104424928D01*
X68039271Y-104420500D01*
X68316609Y-104420500D01*
X68330446Y-104419137D01*
X68470934Y-104405300D01*
X68668954Y-104345232D01*
X68851450Y-104247685D01*
X69011410Y-104116410D01*
X69142685Y-103956450D01*
X69240232Y-103773954D01*
X69299066Y-103580001D01*
X69505073Y-103580001D01*
X69522691Y-103702534D01*
X69537237Y-103734384D01*
X69574116Y-103815139D01*
X69655183Y-103908696D01*
X69759325Y-103975624D01*
X69812727Y-103991304D01*
X69878098Y-104010499D01*
X69878101Y-104010499D01*
X69878103Y-104010500D01*
X69878104Y-104010500D01*
X70001896Y-104010500D01*
X70001897Y-104010500D01*
X70001899Y-104010499D01*
X70001901Y-104010499D01*
X70021538Y-104004732D01*
X70120675Y-103975624D01*
X70224817Y-103908696D01*
X70305884Y-103815139D01*
X70357309Y-103702533D01*
X70374927Y-103580000D01*
X70374342Y-103575934D01*
X70363237Y-103498696D01*
X70357309Y-103457467D01*
X70305884Y-103344861D01*
X70224817Y-103251304D01*
X70120675Y-103184376D01*
X70120672Y-103184375D01*
X70001901Y-103149500D01*
X70001897Y-103149500D01*
X69878103Y-103149500D01*
X69878098Y-103149500D01*
X69759327Y-103184375D01*
X69655182Y-103251304D01*
X69574116Y-103344860D01*
X69574115Y-103344863D01*
X69522691Y-103457465D01*
X69505073Y-103579998D01*
X69505073Y-103580001D01*
X69299066Y-103580001D01*
X69300300Y-103575934D01*
X69320583Y-103370000D01*
X69300300Y-103164066D01*
X69240232Y-102966046D01*
X69142685Y-102783550D01*
X69011410Y-102623590D01*
X68851450Y-102492315D01*
X68668954Y-102394768D01*
X68470934Y-102334700D01*
X68423215Y-102330000D01*
X68316609Y-102319500D01*
X68316608Y-102319500D01*
X66984500Y-102319500D01*
X66949852Y-102305148D01*
X66935500Y-102270500D01*
X66935500Y-101929500D01*
X66949852Y-101894852D01*
X66984500Y-101880500D01*
X68316609Y-101880500D01*
X68330446Y-101879137D01*
X68470934Y-101865300D01*
X68668954Y-101805232D01*
X68851450Y-101707685D01*
X69011410Y-101576410D01*
X69142685Y-101416450D01*
X69240232Y-101233954D01*
X69290962Y-101066716D01*
X69314752Y-101037728D01*
X69352075Y-101034052D01*
X69381065Y-101057843D01*
G37*
G04 #@! TD.AperFunction*
G04 #@! TA.AperFunction,Conductor*
G36*
X84511900Y-93007543D02*
G01*
X84481127Y-93168862D01*
X84491439Y-93332766D01*
X84542188Y-93488956D01*
X84630186Y-93627619D01*
X84749903Y-93740040D01*
X84834755Y-93786688D01*
X84834755Y-94260000D01*
X84885500Y-94260000D01*
X84920148Y-94274352D01*
X84934500Y-94309000D01*
X84934500Y-94650500D01*
X84920148Y-94685148D01*
X84885500Y-94699500D01*
X83558146Y-94699500D01*
X83403085Y-94714772D01*
X83403084Y-94714772D01*
X83204125Y-94775126D01*
X83204118Y-94775129D01*
X83020754Y-94873140D01*
X83020751Y-94873142D01*
X82860038Y-95005038D01*
X82728142Y-95165751D01*
X82728140Y-95165754D01*
X82630129Y-95349118D01*
X82630126Y-95349125D01*
X82569772Y-95548084D01*
X82569772Y-95548085D01*
X82549393Y-95754999D01*
X82549393Y-95755000D01*
X82569772Y-95961914D01*
X82569772Y-95961915D01*
X82629228Y-96157913D01*
X82630127Y-96160877D01*
X82726228Y-96340669D01*
X82728140Y-96344245D01*
X82728142Y-96344248D01*
X82797998Y-96429367D01*
X82860038Y-96504962D01*
X82913327Y-96548695D01*
X83020751Y-96636857D01*
X83020754Y-96636859D01*
X83020758Y-96636862D01*
X83204123Y-96734873D01*
X83403086Y-96795228D01*
X83542874Y-96808995D01*
X83558146Y-96810500D01*
X83558147Y-96810500D01*
X83845296Y-96810500D01*
X83879944Y-96824852D01*
X83894296Y-96859500D01*
X83889868Y-96879853D01*
X83872691Y-96917467D01*
X83855073Y-97039998D01*
X83855073Y-97040001D01*
X83872691Y-97162534D01*
X83876167Y-97170145D01*
X83877505Y-97207624D01*
X83851950Y-97235072D01*
X83831595Y-97239500D01*
X83553391Y-97239500D01*
X83399065Y-97254700D01*
X83399064Y-97254700D01*
X83201043Y-97314769D01*
X83018548Y-97412316D01*
X82858590Y-97543590D01*
X82727316Y-97703548D01*
X82629769Y-97886043D01*
X82569700Y-98084064D01*
X82569700Y-98084065D01*
X82549417Y-98289999D01*
X82549417Y-98290000D01*
X82569700Y-98495934D01*
X82569700Y-98495935D01*
X82581912Y-98536192D01*
X82629768Y-98693954D01*
X82727315Y-98876450D01*
X82858590Y-99036410D01*
X83018550Y-99167685D01*
X83201046Y-99265232D01*
X83399066Y-99325300D01*
X83538191Y-99339002D01*
X83553391Y-99340500D01*
X83553392Y-99340500D01*
X84885500Y-99340500D01*
X84920148Y-99354852D01*
X84934500Y-99389500D01*
X84934500Y-99730500D01*
X84920148Y-99765148D01*
X84885500Y-99779500D01*
X83553391Y-99779500D01*
X83399065Y-99794700D01*
X83399064Y-99794700D01*
X83246348Y-99841026D01*
X83224693Y-99847595D01*
X83201043Y-99854769D01*
X83018548Y-99952316D01*
X82858590Y-100083590D01*
X82727316Y-100243548D01*
X82629769Y-100426043D01*
X82629768Y-100426045D01*
X82629768Y-100426046D01*
X82626912Y-100435462D01*
X82569700Y-100624064D01*
X82569700Y-100624065D01*
X82563431Y-100687720D01*
X82549417Y-100830000D01*
X82569700Y-101035934D01*
X82629768Y-101233954D01*
X82727315Y-101416450D01*
X82858590Y-101576410D01*
X83018550Y-101707685D01*
X83201046Y-101805232D01*
X83399066Y-101865300D01*
X83538191Y-101879002D01*
X83553391Y-101880500D01*
X83553392Y-101880500D01*
X84885500Y-101880500D01*
X84920148Y-101894852D01*
X84934500Y-101929500D01*
X84934500Y-102270500D01*
X84920148Y-102305148D01*
X84885500Y-102319500D01*
X83553391Y-102319500D01*
X83399065Y-102334700D01*
X83399064Y-102334700D01*
X83245431Y-102381304D01*
X83208632Y-102392467D01*
X83201043Y-102394769D01*
X83018548Y-102492316D01*
X82858590Y-102623590D01*
X82727316Y-102783548D01*
X82629769Y-102966043D01*
X82569700Y-103164064D01*
X82569700Y-103164065D01*
X82549417Y-103369999D01*
X82549417Y-103370000D01*
X82569700Y-103575934D01*
X82569700Y-103575935D01*
X82593879Y-103655643D01*
X82629768Y-103773954D01*
X82727315Y-103956450D01*
X82858590Y-104116410D01*
X83018550Y-104247685D01*
X83201046Y-104345232D01*
X83399066Y-104405300D01*
X83538191Y-104419002D01*
X83553391Y-104420500D01*
X83553392Y-104420500D01*
X84885500Y-104420500D01*
X84920148Y-104434852D01*
X84934500Y-104469500D01*
X84934500Y-104810500D01*
X84920148Y-104845148D01*
X84885500Y-104859500D01*
X83553391Y-104859500D01*
X83399065Y-104874700D01*
X83399064Y-104874700D01*
X83201043Y-104934769D01*
X83054345Y-105013182D01*
X83017022Y-105016858D01*
X82988032Y-104993067D01*
X82984356Y-104955744D01*
X82986667Y-104949628D01*
X83017309Y-104882533D01*
X83034927Y-104760000D01*
X83017309Y-104637467D01*
X82965884Y-104524861D01*
X82884817Y-104431304D01*
X82780675Y-104364376D01*
X82780672Y-104364375D01*
X82661901Y-104329500D01*
X82661897Y-104329500D01*
X82538103Y-104329500D01*
X82538098Y-104329500D01*
X82419327Y-104364375D01*
X82389991Y-104383228D01*
X82353084Y-104389886D01*
X82322278Y-104368497D01*
X82314500Y-104342006D01*
X82314500Y-94775140D01*
X82328852Y-94740492D01*
X82363500Y-94726140D01*
X82389990Y-94733918D01*
X82439325Y-94765624D01*
X82471734Y-94775140D01*
X82558098Y-94800499D01*
X82558101Y-94800499D01*
X82558103Y-94800500D01*
X82558104Y-94800500D01*
X82681896Y-94800500D01*
X82681897Y-94800500D01*
X82681899Y-94800499D01*
X82681901Y-94800499D01*
X82701538Y-94794732D01*
X82800675Y-94765624D01*
X82904817Y-94698696D01*
X82985884Y-94605139D01*
X83037309Y-94492533D01*
X83054927Y-94370000D01*
X83053264Y-94358436D01*
X83041246Y-94274851D01*
X83037309Y-94247467D01*
X82985884Y-94134861D01*
X82904817Y-94041304D01*
X82800675Y-93974376D01*
X82800672Y-93974375D01*
X82681901Y-93939500D01*
X82681897Y-93939500D01*
X82558103Y-93939500D01*
X82558098Y-93939500D01*
X82439326Y-93974375D01*
X82411551Y-93992225D01*
X82374643Y-93998883D01*
X82343838Y-93977494D01*
X82336400Y-93945245D01*
X82375466Y-93615185D01*
X82375760Y-93613330D01*
X82427993Y-93350736D01*
X82448828Y-93319556D01*
X82485611Y-93312240D01*
X82516793Y-93333075D01*
X82524594Y-93353624D01*
X82525440Y-93359782D01*
X82525441Y-93359786D01*
X82585675Y-93498457D01*
X82585676Y-93498459D01*
X82640671Y-93568463D01*
X82640674Y-93568467D01*
X82741826Y-93669619D01*
X83071922Y-93339523D01*
X83095507Y-93419844D01*
X83173239Y-93540798D01*
X83281900Y-93634952D01*
X83412685Y-93694680D01*
X83422464Y-93696086D01*
X83095380Y-94023171D01*
X83095380Y-94023172D01*
X83196532Y-94124325D01*
X83196536Y-94124328D01*
X83266540Y-94179323D01*
X83266542Y-94179324D01*
X83405212Y-94239557D01*
X83435333Y-94243697D01*
X83446642Y-94246659D01*
X83453554Y-94249385D01*
X83453561Y-94249387D01*
X83541937Y-94260000D01*
X83552264Y-94260000D01*
X83554386Y-94260145D01*
X83555614Y-94260145D01*
X83557736Y-94260000D01*
X84334755Y-94260000D01*
X84334755Y-93009000D01*
X84349107Y-92974352D01*
X84383755Y-92960000D01*
X84534272Y-92960000D01*
X84511900Y-93007543D01*
G37*
G04 #@! TD.AperFunction*
G04 #@! TA.AperFunction,Conductor*
G36*
X72791148Y-98910247D02*
G01*
X72805500Y-98944895D01*
X72805500Y-99144028D01*
X72805509Y-99144248D01*
X72805509Y-99179717D01*
X72805509Y-99201610D01*
X72819068Y-99287220D01*
X72826330Y-99333073D01*
X72826928Y-99340039D01*
X72827163Y-99356556D01*
X72827164Y-99356563D01*
X72837214Y-99403571D01*
X72848014Y-99453613D01*
X72857395Y-99496802D01*
X72865689Y-99534917D01*
X72873227Y-99569746D01*
X72880363Y-99603168D01*
X72887469Y-99637149D01*
X72894925Y-99673700D01*
X72903107Y-99714818D01*
X72910889Y-99754808D01*
X72918989Y-99781021D01*
X72920674Y-99788510D01*
X72922691Y-99802533D01*
X72922692Y-99802537D01*
X72974115Y-99915136D01*
X72974116Y-99915139D01*
X73036804Y-99987486D01*
X73055183Y-100008696D01*
X73159325Y-100075624D01*
X73206004Y-100089330D01*
X73256294Y-100104097D01*
X73285495Y-100127629D01*
X73289504Y-100164917D01*
X73277138Y-100185760D01*
X73219510Y-100243388D01*
X73160201Y-100346112D01*
X73160200Y-100346115D01*
X73129500Y-100460688D01*
X73129500Y-100579311D01*
X73160200Y-100693884D01*
X73160201Y-100693888D01*
X73218868Y-100795500D01*
X73223763Y-100832682D01*
X73218868Y-100844500D01*
X73160201Y-100946111D01*
X73160200Y-100946115D01*
X73129500Y-101060688D01*
X73129500Y-101179311D01*
X73160200Y-101293884D01*
X73160201Y-101293888D01*
X73218868Y-101395500D01*
X73223763Y-101432682D01*
X73218868Y-101444500D01*
X73160201Y-101546111D01*
X73160200Y-101546115D01*
X73129500Y-101660688D01*
X73129500Y-101779311D01*
X73160200Y-101893884D01*
X73160201Y-101893887D01*
X73219511Y-101996613D01*
X73295760Y-102072862D01*
X73310112Y-102107510D01*
X73295760Y-102142158D01*
X73287604Y-102148731D01*
X73245183Y-102175994D01*
X73164116Y-102269550D01*
X73164113Y-102269555D01*
X73162943Y-102272118D01*
X73135491Y-102297669D01*
X73098012Y-102296325D01*
X73081837Y-102284406D01*
X73033690Y-102230529D01*
X73031976Y-102228379D01*
X72994807Y-102175994D01*
X72859180Y-101984846D01*
X72857736Y-101982548D01*
X72713284Y-101721184D01*
X72712098Y-101718722D01*
X72635502Y-101533802D01*
X72597826Y-101442844D01*
X72596918Y-101440249D01*
X72514254Y-101153324D01*
X72513642Y-101150643D01*
X72463622Y-100856259D01*
X72463315Y-100853536D01*
X72454348Y-100693884D01*
X72446539Y-100554852D01*
X72446500Y-100553477D01*
X72446500Y-99572035D01*
X72446576Y-99570111D01*
X72455205Y-99460518D01*
X72457663Y-99429309D01*
X72458864Y-99421728D01*
X72491167Y-99287211D01*
X72493537Y-99279917D01*
X72546495Y-99152092D01*
X72549976Y-99145264D01*
X72622278Y-99027303D01*
X72626777Y-99021111D01*
X72718728Y-98913475D01*
X72720015Y-98912083D01*
X72721852Y-98910247D01*
X72756500Y-98895895D01*
X72791148Y-98910247D01*
G37*
G04 #@! TD.AperFunction*
G04 #@! TA.AperFunction,Conductor*
G36*
X75396894Y-100397980D02*
G01*
X75405115Y-100400711D01*
X75421732Y-100406231D01*
X75459326Y-100417914D01*
X75489131Y-100427169D01*
X75510746Y-100434484D01*
X75511963Y-100434932D01*
X75520734Y-100438427D01*
X75526617Y-100440772D01*
X75528310Y-100441523D01*
X75539526Y-100447014D01*
X75541394Y-100448032D01*
X75553078Y-100455075D01*
X75554819Y-100456229D01*
X75570300Y-100467462D01*
X75571728Y-100468581D01*
X75592987Y-100486551D01*
X75594058Y-100487512D01*
X75617471Y-100509818D01*
X75617479Y-100509823D01*
X75633650Y-100520209D01*
X75641819Y-100526790D01*
X76313040Y-101198011D01*
X76321200Y-101208816D01*
X76324811Y-101215299D01*
X76324810Y-101215299D01*
X76356469Y-101241588D01*
X76358131Y-101243102D01*
X76655458Y-101540429D01*
X76947650Y-101832621D01*
X76962002Y-101867269D01*
X76947650Y-101901917D01*
X76926807Y-101914284D01*
X76824327Y-101944375D01*
X76720182Y-102011304D01*
X76678864Y-102058988D01*
X76645328Y-102075775D01*
X76609744Y-102063932D01*
X76604800Y-102058988D01*
X76554817Y-102001304D01*
X76531755Y-101986483D01*
X76450675Y-101934376D01*
X76450672Y-101934375D01*
X76331901Y-101899500D01*
X76331897Y-101899500D01*
X76208103Y-101899500D01*
X76208098Y-101899500D01*
X76089326Y-101934375D01*
X76084616Y-101937402D01*
X76047708Y-101944056D01*
X76016904Y-101922664D01*
X76009629Y-101903152D01*
X75997309Y-101817467D01*
X75945884Y-101704861D01*
X75864817Y-101611304D01*
X75760675Y-101544376D01*
X75754088Y-101542441D01*
X75741238Y-101536540D01*
X75737019Y-101533804D01*
X75737016Y-101533802D01*
X75737011Y-101533800D01*
X75737009Y-101533799D01*
X75704897Y-101521008D01*
X75668958Y-101507592D01*
X75641569Y-101497265D01*
X75632426Y-101493438D01*
X75623822Y-101489837D01*
X75622240Y-101489107D01*
X75613260Y-101484569D01*
X75611086Y-101483327D01*
X75607015Y-101480717D01*
X75604650Y-101478994D01*
X75602880Y-101477535D01*
X75600944Y-101475938D01*
X75598816Y-101473960D01*
X75591811Y-101466624D01*
X75590157Y-101464700D01*
X75578246Y-101449293D01*
X75577061Y-101447619D01*
X75562281Y-101424758D01*
X75559290Y-101421622D01*
X75550707Y-101412622D01*
X75545429Y-101406034D01*
X75543776Y-101403562D01*
X75542170Y-101400780D01*
X75452722Y-101219395D01*
X75451494Y-101216431D01*
X75386488Y-101024928D01*
X75385659Y-101021836D01*
X75348373Y-100834376D01*
X75346204Y-100823472D01*
X75345786Y-100820299D01*
X75332502Y-100617614D01*
X75332451Y-100616021D01*
X75332451Y-100595029D01*
X75332452Y-100569293D01*
X75332451Y-100569289D01*
X75332451Y-100444483D01*
X75346803Y-100409835D01*
X75381451Y-100395483D01*
X75396894Y-100397980D01*
G37*
G04 #@! TD.AperFunction*
G04 #@! TA.AperFunction,Conductor*
G36*
X77355956Y-99674852D02*
G01*
X77370308Y-99709500D01*
X77358963Y-99740853D01*
X77330470Y-99775072D01*
X77330129Y-99775481D01*
X77303075Y-99810019D01*
X77279797Y-99841026D01*
X77259061Y-99868983D01*
X77239223Y-99895135D01*
X77223273Y-99915136D01*
X77218253Y-99921431D01*
X77193906Y-99950027D01*
X77173903Y-99971970D01*
X77163971Y-99982865D01*
X77132460Y-100015292D01*
X77132458Y-100015295D01*
X77121566Y-100031981D01*
X77115183Y-100039844D01*
X76594647Y-100560380D01*
X76559999Y-100574732D01*
X76525351Y-100560380D01*
X76066415Y-100101444D01*
X76059676Y-100093028D01*
X76049816Y-100077469D01*
X76027494Y-100054038D01*
X76026540Y-100052975D01*
X76008585Y-100031735D01*
X76007466Y-100030307D01*
X76003106Y-100024299D01*
X75996224Y-100014814D01*
X75995082Y-100013091D01*
X75988028Y-100001389D01*
X75987008Y-99999517D01*
X75981528Y-99988323D01*
X75980773Y-99986620D01*
X75974934Y-99971970D01*
X75974486Y-99970752D01*
X75967168Y-99949130D01*
X75957914Y-99919326D01*
X75946230Y-99881732D01*
X75934892Y-99847595D01*
X75923434Y-99822745D01*
X75915771Y-99806122D01*
X75913097Y-99801695D01*
X75913095Y-99801693D01*
X75912540Y-99800925D01*
X75907665Y-99792555D01*
X75885884Y-99744861D01*
X75885881Y-99744857D01*
X75883050Y-99741590D01*
X75871205Y-99706006D01*
X75887990Y-99672470D01*
X75920080Y-99660500D01*
X77321308Y-99660500D01*
X77355956Y-99674852D01*
G37*
G04 #@! TD.AperFunction*
G04 #@! TA.AperFunction,Conductor*
G36*
X69245148Y-94033738D02*
G01*
X69259500Y-94068386D01*
X69259500Y-95186476D01*
X69245148Y-95221124D01*
X69210500Y-95235476D01*
X69175852Y-95221124D01*
X69167286Y-95209575D01*
X69154939Y-95186476D01*
X69142685Y-95163550D01*
X69011410Y-95003590D01*
X68851450Y-94872315D01*
X68669650Y-94775140D01*
X68668956Y-94774769D01*
X68668955Y-94774768D01*
X68668954Y-94774768D01*
X68470934Y-94714700D01*
X68448943Y-94712534D01*
X68316609Y-94699500D01*
X68316608Y-94699500D01*
X66984500Y-94699500D01*
X66949852Y-94685148D01*
X66935500Y-94650500D01*
X66935500Y-94309499D01*
X66949852Y-94274851D01*
X66984500Y-94260499D01*
X68753168Y-94260499D01*
X68783560Y-94258107D01*
X68788627Y-94257709D01*
X68940390Y-94213618D01*
X69076420Y-94133170D01*
X69175852Y-94033738D01*
X69210500Y-94019386D01*
X69245148Y-94033738D01*
G37*
G04 #@! TD.AperFunction*
G04 #@! TA.AperFunction,Conductor*
G36*
X83888211Y-91734852D02*
G01*
X83902563Y-91769500D01*
X83898135Y-91789854D01*
X83895004Y-91796709D01*
X83862691Y-91867465D01*
X83845073Y-91989998D01*
X83845073Y-91990001D01*
X83852262Y-92039998D01*
X83860403Y-92096623D01*
X83861468Y-92104026D01*
X83852194Y-92140364D01*
X83819941Y-92159501D01*
X83812967Y-92160000D01*
X83557736Y-92160000D01*
X83555614Y-92159855D01*
X83554386Y-92159855D01*
X83552264Y-92160000D01*
X83541937Y-92160000D01*
X83453561Y-92170612D01*
X83453554Y-92170614D01*
X83446633Y-92173343D01*
X83435335Y-92176300D01*
X83405217Y-92180440D01*
X83405212Y-92180441D01*
X83266542Y-92240675D01*
X83266540Y-92240676D01*
X83196536Y-92295671D01*
X83196532Y-92295674D01*
X83095380Y-92396826D01*
X83095380Y-92396827D01*
X83422466Y-92723913D01*
X83412685Y-92725320D01*
X83281900Y-92785048D01*
X83173239Y-92879202D01*
X83095507Y-93000156D01*
X83071923Y-93080476D01*
X82741827Y-92750380D01*
X82741826Y-92750380D01*
X82669863Y-92822342D01*
X82635215Y-92836694D01*
X82600567Y-92822342D01*
X82586215Y-92787694D01*
X82589242Y-92770740D01*
X82691791Y-92492772D01*
X82692523Y-92491006D01*
X82695156Y-92485295D01*
X82827361Y-92198519D01*
X82835164Y-92186563D01*
X82838764Y-92182497D01*
X82917891Y-92046877D01*
X82922487Y-92040303D01*
X82992150Y-91956312D01*
X82999053Y-91949497D01*
X83063291Y-91897590D01*
X83071601Y-91892170D01*
X83139710Y-91857028D01*
X83147213Y-91853915D01*
X83232515Y-91826572D01*
X83234918Y-91825937D01*
X83344080Y-91802989D01*
X83475599Y-91780284D01*
X83623461Y-91751399D01*
X83630631Y-91749746D01*
X83734071Y-91722154D01*
X83746699Y-91720500D01*
X83853563Y-91720500D01*
X83888211Y-91734852D01*
G37*
G04 #@! TD.AperFunction*
G04 #@! TA.AperFunction,Conductor*
G36*
X69233599Y-88650309D02*
G01*
X69257390Y-88679299D01*
X69259500Y-88693523D01*
X69259500Y-89811614D01*
X69245148Y-89846262D01*
X69210500Y-89860614D01*
X69175852Y-89846262D01*
X69076420Y-89746830D01*
X69076415Y-89746826D01*
X68940393Y-89666383D01*
X68788626Y-89622290D01*
X68763772Y-89620335D01*
X68753163Y-89619500D01*
X68753158Y-89619500D01*
X66984500Y-89619500D01*
X66949852Y-89605148D01*
X66935500Y-89570500D01*
X66935500Y-89229500D01*
X66949852Y-89194852D01*
X66984500Y-89180500D01*
X68316609Y-89180500D01*
X68330446Y-89179137D01*
X68470934Y-89165300D01*
X68668954Y-89105232D01*
X68851450Y-89007685D01*
X69011410Y-88876410D01*
X69142685Y-88716450D01*
X69167287Y-88670423D01*
X69196276Y-88646633D01*
X69233599Y-88650309D01*
G37*
G04 #@! TD.AperFunction*
G04 #@! TA.AperFunction,Conductor*
G36*
X69233598Y-86122813D02*
G01*
X69257390Y-86151803D01*
X69259500Y-86166027D01*
X69259500Y-87566476D01*
X69245148Y-87601124D01*
X69210500Y-87615476D01*
X69175852Y-87601124D01*
X69167286Y-87589575D01*
X69161754Y-87579226D01*
X69142685Y-87543550D01*
X69011410Y-87383590D01*
X68851450Y-87252315D01*
X68668954Y-87154768D01*
X68470934Y-87094700D01*
X68465492Y-87094164D01*
X68316609Y-87079500D01*
X68316608Y-87079500D01*
X66984500Y-87079500D01*
X66949852Y-87065148D01*
X66935500Y-87030500D01*
X66935500Y-86709500D01*
X66949852Y-86674852D01*
X66984500Y-86660500D01*
X68307096Y-86660500D01*
X68321065Y-86659124D01*
X68462894Y-86645155D01*
X68662799Y-86584515D01*
X68847033Y-86486040D01*
X69008515Y-86353515D01*
X69141040Y-86192033D01*
X69167287Y-86142928D01*
X69196276Y-86119137D01*
X69233598Y-86122813D01*
G37*
G04 #@! TD.AperFunction*
G04 #@! TA.AperFunction,Conductor*
G36*
X69787992Y-81994852D02*
G01*
X69802344Y-82029500D01*
X69793670Y-82057335D01*
X69735182Y-82142068D01*
X69735181Y-82142070D01*
X69683323Y-82278813D01*
X69674860Y-82301128D01*
X69659500Y-82427628D01*
X69659500Y-83612372D01*
X69674860Y-83738872D01*
X69676561Y-83743356D01*
X69735181Y-83897929D01*
X69735182Y-83897931D01*
X69831816Y-84037928D01*
X69831817Y-84037929D01*
X69959148Y-84150734D01*
X70109775Y-84229790D01*
X70274944Y-84270500D01*
X70445056Y-84270500D01*
X70610225Y-84229790D01*
X70760852Y-84150734D01*
X70888183Y-84037929D01*
X70984818Y-83897930D01*
X71024684Y-83792811D01*
X71050390Y-83765503D01*
X71087875Y-83764370D01*
X71115183Y-83790076D01*
X71119500Y-83810186D01*
X71119500Y-86429813D01*
X71105148Y-86464461D01*
X71070500Y-86478813D01*
X71035852Y-86464461D01*
X71024684Y-86447189D01*
X70984817Y-86342068D01*
X70888183Y-86202071D01*
X70876857Y-86192037D01*
X70760852Y-86089266D01*
X70760844Y-86089262D01*
X70760843Y-86089261D01*
X70610224Y-86010209D01*
X70445056Y-85969500D01*
X70274944Y-85969500D01*
X70109775Y-86010209D01*
X69959148Y-86089265D01*
X69942021Y-86104438D01*
X69906569Y-86116671D01*
X69872851Y-86100252D01*
X69860529Y-86067760D01*
X69860529Y-86055649D01*
X69860530Y-86055649D01*
X69860528Y-85856941D01*
X69856236Y-85807894D01*
X69825886Y-85461036D01*
X69804540Y-85339984D01*
X69812656Y-85303370D01*
X69844286Y-85283220D01*
X69880900Y-85291336D01*
X69891710Y-85302585D01*
X69891821Y-85302490D01*
X69893670Y-85304624D01*
X69894017Y-85304985D01*
X69894114Y-85305137D01*
X69894116Y-85305139D01*
X69975183Y-85398696D01*
X70079325Y-85465624D01*
X70145415Y-85485029D01*
X70198098Y-85500499D01*
X70198101Y-85500499D01*
X70198103Y-85500500D01*
X70198104Y-85500500D01*
X70321896Y-85500500D01*
X70321897Y-85500500D01*
X70321899Y-85500499D01*
X70321901Y-85500499D01*
X70341538Y-85494732D01*
X70440675Y-85465624D01*
X70544817Y-85398696D01*
X70625884Y-85305139D01*
X70677309Y-85192533D01*
X70694927Y-85070000D01*
X70677309Y-84947467D01*
X70625884Y-84834861D01*
X70544817Y-84741304D01*
X70440675Y-84674376D01*
X70440672Y-84674375D01*
X70321901Y-84639500D01*
X70321897Y-84639500D01*
X70198103Y-84639500D01*
X70198098Y-84639500D01*
X70079327Y-84674375D01*
X70079325Y-84674375D01*
X70079325Y-84674376D01*
X70061569Y-84685787D01*
X69975182Y-84741304D01*
X69894116Y-84834860D01*
X69894115Y-84834863D01*
X69842691Y-84947465D01*
X69835287Y-84998961D01*
X69816150Y-85031214D01*
X69779812Y-85040488D01*
X69747559Y-85021351D01*
X69739456Y-85004670D01*
X69654007Y-84685787D01*
X69533590Y-84354962D01*
X69531186Y-84345523D01*
X69530295Y-84339614D01*
X69464297Y-84156644D01*
X69463638Y-84154520D01*
X69462650Y-84150738D01*
X69423409Y-84000464D01*
X69422912Y-83998085D01*
X69402300Y-83866426D01*
X69402052Y-83864112D01*
X69400409Y-83836554D01*
X69394904Y-83744196D01*
X69394864Y-83742498D01*
X69396346Y-83622996D01*
X69401929Y-83495172D01*
X69405850Y-83356272D01*
X69405850Y-83350307D01*
X69403467Y-83261914D01*
X69401737Y-83197759D01*
X69401181Y-83189158D01*
X69382729Y-83016223D01*
X69381318Y-83006904D01*
X69364179Y-82919243D01*
X69345073Y-82821516D01*
X69330230Y-82775383D01*
X69327948Y-82770400D01*
X69309578Y-82738284D01*
X69262548Y-82695628D01*
X69248577Y-82673557D01*
X69240232Y-82646046D01*
X69142685Y-82463550D01*
X69011410Y-82303590D01*
X68851450Y-82172315D01*
X68668954Y-82074768D01*
X68666831Y-82073633D01*
X68667177Y-82072984D01*
X68642444Y-82048261D01*
X68642436Y-82010758D01*
X68668949Y-81984234D01*
X68687710Y-81980500D01*
X69753344Y-81980500D01*
X69787992Y-81994852D01*
G37*
G04 #@! TD.AperFunction*
G04 #@! TD*
G04 #@! TA.AperFunction,Conductor*
G04 #@! TO.N,/QSPI_SD1*
G36*
X73898759Y-102162190D02*
G01*
X73905818Y-102167695D01*
X73906918Y-102176582D01*
X73906847Y-102176826D01*
X73893212Y-102222301D01*
X73893126Y-102222565D01*
X73876343Y-102270210D01*
X73876242Y-102270475D01*
X73865884Y-102295879D01*
X73859652Y-102311162D01*
X73843274Y-102346851D01*
X73827181Y-102379433D01*
X73811392Y-102410912D01*
X73795928Y-102443295D01*
X73780810Y-102478590D01*
X73766058Y-102518803D01*
X73757352Y-102547372D01*
X73754049Y-102558212D01*
X73748359Y-102565126D01*
X73743630Y-102566475D01*
X73461403Y-102585165D01*
X73452922Y-102582293D01*
X73448956Y-102574264D01*
X73448932Y-102573262D01*
X73449226Y-102558212D01*
X73454354Y-102295877D01*
X73457942Y-102287675D01*
X73462590Y-102284932D01*
X73490465Y-102276303D01*
X73490740Y-102276226D01*
X73525011Y-102267428D01*
X73557555Y-102259526D01*
X73588049Y-102251147D01*
X73606804Y-102244336D01*
X73616298Y-102240889D01*
X73616302Y-102240887D01*
X73616301Y-102240887D01*
X73616305Y-102240886D01*
X73642139Y-102227335D01*
X73665362Y-102209089D01*
X73685788Y-102184741D01*
X73703231Y-102152884D01*
X73713890Y-102122435D01*
X73719857Y-102115761D01*
X73728044Y-102115025D01*
X73898759Y-102162190D01*
G37*
G04 #@! TD.AperFunction*
G04 #@! TD*
G04 #@! TA.AperFunction,Conductor*
G04 #@! TO.N,+1V1*
G36*
X75728992Y-99904358D02*
G01*
X75737196Y-99907946D01*
X75739867Y-99912368D01*
X75750579Y-99944621D01*
X75761666Y-99980292D01*
X75771680Y-100012543D01*
X75781778Y-100042385D01*
X75793116Y-100070829D01*
X75806852Y-100098888D01*
X75806854Y-100098892D01*
X75806855Y-100098893D01*
X75806855Y-100098894D01*
X75824140Y-100127568D01*
X75824142Y-100127571D01*
X75846143Y-100157891D01*
X75874013Y-100190859D01*
X75874017Y-100190863D01*
X75874017Y-100190864D01*
X75901030Y-100219218D01*
X75904256Y-100227571D01*
X75900832Y-100235561D01*
X75775561Y-100360832D01*
X75767288Y-100364259D01*
X75759218Y-100361030D01*
X75730864Y-100334017D01*
X75730863Y-100334017D01*
X75730859Y-100334013D01*
X75697891Y-100306143D01*
X75667571Y-100284142D01*
X75667568Y-100284140D01*
X75638894Y-100266855D01*
X75638893Y-100266855D01*
X75638888Y-100266852D01*
X75610829Y-100253116D01*
X75582385Y-100241778D01*
X75552543Y-100231680D01*
X75520292Y-100221666D01*
X75484621Y-100210579D01*
X75470194Y-100205787D01*
X75452368Y-100199867D01*
X75445597Y-100194007D01*
X75444358Y-100188992D01*
X75443750Y-100157891D01*
X75438920Y-99910845D01*
X75442185Y-99902508D01*
X75450389Y-99898920D01*
X75450806Y-99898920D01*
X75728992Y-99904358D01*
G37*
G04 #@! TD.AperFunction*
G04 #@! TD*
G04 #@! TA.AperFunction,Conductor*
G04 #@! TO.N,/23_SDO*
G36*
X82719535Y-109559464D02*
G01*
X82725063Y-109565418D01*
X82791072Y-109724347D01*
X82791074Y-109724350D01*
X82873644Y-109848493D01*
X82873647Y-109848495D01*
X82873652Y-109848502D01*
X82968030Y-109936077D01*
X82968032Y-109936078D01*
X82968034Y-109936080D01*
X83073662Y-109995354D01*
X83189946Y-110034559D01*
X83316304Y-110061938D01*
X83452153Y-110085734D01*
X83596724Y-110114155D01*
X83597100Y-110114243D01*
X83627050Y-110122335D01*
X83749694Y-110155472D01*
X83750288Y-110155667D01*
X83855598Y-110196597D01*
X83902723Y-110214913D01*
X83909193Y-110221104D01*
X83910149Y-110226730D01*
X83825768Y-111306232D01*
X83821707Y-111314213D01*
X83813192Y-111316984D01*
X83812737Y-111316940D01*
X82737118Y-111190405D01*
X82729302Y-111186035D01*
X82727025Y-111181139D01*
X82689867Y-111000056D01*
X82689797Y-110999634D01*
X82668646Y-110836284D01*
X82668607Y-110835877D01*
X82660070Y-110691237D01*
X82660063Y-110691005D01*
X82659118Y-110558020D01*
X82660739Y-110429797D01*
X82659886Y-110299480D01*
X82651517Y-110160097D01*
X82630590Y-110004678D01*
X82596868Y-109848492D01*
X82592069Y-109826264D01*
X82592069Y-109826265D01*
X82592066Y-109826257D01*
X82592065Y-109826249D01*
X82534090Y-109628711D01*
X82535048Y-109619807D01*
X82541662Y-109614302D01*
X82710609Y-109558791D01*
X82719535Y-109559464D01*
G37*
G04 #@! TD.AperFunction*
G04 #@! TD*
G04 #@! TA.AperFunction,Conductor*
G04 #@! TO.N,+1V1*
G36*
X77289316Y-108811080D02*
G01*
X77443874Y-108897625D01*
X77449419Y-108904656D01*
X77448428Y-108913438D01*
X77427251Y-108952237D01*
X77405581Y-108994642D01*
X77388110Y-109032016D01*
X77373992Y-109065869D01*
X77373992Y-109065868D01*
X77362364Y-109097746D01*
X77352388Y-109129141D01*
X77343207Y-109161583D01*
X77333972Y-109196590D01*
X77323831Y-109235682D01*
X77314041Y-109272457D01*
X77308602Y-109279570D01*
X77303767Y-109281101D01*
X77026579Y-109305637D01*
X77018036Y-109302953D01*
X77013893Y-109295015D01*
X77013863Y-109294594D01*
X77000184Y-109016726D01*
X77003200Y-109008296D01*
X77007467Y-109005312D01*
X77037112Y-108993271D01*
X77070987Y-108980388D01*
X77101918Y-108968506D01*
X77118818Y-108961293D01*
X77130419Y-108956343D01*
X77130419Y-108956342D01*
X77130423Y-108956341D01*
X77157019Y-108942610D01*
X77182223Y-108926030D01*
X77206553Y-108905319D01*
X77230525Y-108879193D01*
X77254658Y-108846370D01*
X77273605Y-108815209D01*
X77280830Y-108809923D01*
X77289316Y-108811080D01*
G37*
G04 #@! TD.AperFunction*
G04 #@! TD*
G04 #@! TA.AperFunction,Conductor*
G04 #@! TO.N,+1V1*
G36*
X77558384Y-99837445D02*
G01*
X77815705Y-99943135D01*
X77822056Y-99949448D01*
X77822083Y-99958403D01*
X77821901Y-99958823D01*
X77706180Y-100211939D01*
X77699623Y-100218038D01*
X77694660Y-100218741D01*
X77667369Y-100216684D01*
X77635224Y-100214732D01*
X77605666Y-100214192D01*
X77605664Y-100214192D01*
X77605661Y-100214192D01*
X77578021Y-100215754D01*
X77578002Y-100215756D01*
X77551556Y-100220118D01*
X77525616Y-100227974D01*
X77499497Y-100240020D01*
X77472536Y-100256934D01*
X77472532Y-100256936D01*
X77472527Y-100256940D01*
X77463017Y-100264438D01*
X77444001Y-100279431D01*
X77443997Y-100279435D01*
X77434341Y-100288459D01*
X77421487Y-100300473D01*
X77413103Y-100303618D01*
X77405225Y-100300198D01*
X77279957Y-100174930D01*
X77276530Y-100166657D01*
X77279838Y-100158505D01*
X77313631Y-100123730D01*
X77348120Y-100085897D01*
X77376861Y-100052139D01*
X77401443Y-100021316D01*
X77423458Y-99992292D01*
X77444497Y-99963926D01*
X77466151Y-99935082D01*
X77490012Y-99904621D01*
X77517671Y-99871405D01*
X77545205Y-99840486D01*
X77553265Y-99836589D01*
X77558384Y-99837445D01*
G37*
G04 #@! TD.AperFunction*
G04 #@! TD*
G04 #@! TA.AperFunction,Conductor*
G04 #@! TO.N,VBUS*
G36*
X78596278Y-89194953D02*
G01*
X78604436Y-89198647D01*
X78607084Y-89203218D01*
X78622230Y-89252632D01*
X78635531Y-89303592D01*
X78646371Y-89349595D01*
X78656584Y-89392133D01*
X78668004Y-89432701D01*
X78682459Y-89472771D01*
X78701789Y-89513857D01*
X78701800Y-89513877D01*
X78727833Y-89557456D01*
X78747571Y-89584614D01*
X78762412Y-89605035D01*
X78762414Y-89605037D01*
X78762414Y-89605038D01*
X78800032Y-89649440D01*
X78802765Y-89657967D01*
X78798939Y-89665693D01*
X78667204Y-89784447D01*
X78658764Y-89787441D01*
X78650961Y-89783892D01*
X78611697Y-89743307D01*
X78568521Y-89705714D01*
X78528040Y-89677277D01*
X78489062Y-89656076D01*
X78489039Y-89656065D01*
X78457574Y-89643132D01*
X78450332Y-89640156D01*
X78450329Y-89640155D01*
X78450328Y-89640154D01*
X78410645Y-89627588D01*
X78368786Y-89616438D01*
X78323520Y-89604761D01*
X78273744Y-89590655D01*
X78273493Y-89590578D01*
X78225840Y-89574730D01*
X78219071Y-89568868D01*
X78217832Y-89563707D01*
X78216371Y-89342347D01*
X78215316Y-89182570D01*
X78596278Y-89194953D01*
G37*
G04 #@! TD.AperFunction*
G04 #@! TD*
G04 #@! TA.AperFunction,Conductor*
G04 #@! TO.N,/7*
G36*
X68630312Y-107661113D02*
G01*
X68781917Y-107729777D01*
X68782425Y-107730039D01*
X68918904Y-107809013D01*
X68919239Y-107809222D01*
X69039487Y-107890138D01*
X69149756Y-107967906D01*
X69256225Y-108037349D01*
X69365238Y-108093402D01*
X69483141Y-108131000D01*
X69483146Y-108131000D01*
X69483148Y-108131001D01*
X69513131Y-108134170D01*
X69616277Y-108145075D01*
X69770991Y-108130564D01*
X69943035Y-108085192D01*
X69951909Y-108086396D01*
X69957111Y-108092783D01*
X70013685Y-108261372D01*
X70013068Y-108270305D01*
X70006778Y-108276020D01*
X69817680Y-108348448D01*
X69657799Y-108428452D01*
X69584901Y-108475595D01*
X69528744Y-108511911D01*
X69528743Y-108511912D01*
X69421685Y-108598696D01*
X69327782Y-108688689D01*
X69238191Y-108781768D01*
X69144173Y-108877710D01*
X69143955Y-108877921D01*
X69036758Y-108976546D01*
X69036405Y-108976846D01*
X68907092Y-109078160D01*
X68906666Y-109078464D01*
X68753301Y-109177898D01*
X68744495Y-109179524D01*
X68739535Y-109177142D01*
X67900814Y-108492057D01*
X67896574Y-108484170D01*
X67899154Y-108475595D01*
X67899419Y-108475282D01*
X68616721Y-107664020D01*
X68624767Y-107660093D01*
X68630312Y-107661113D01*
G37*
G04 #@! TD.AperFunction*
G04 #@! TD*
G04 #@! TA.AperFunction,Conductor*
G04 #@! TO.N,/10*
G36*
X68058022Y-82722430D02*
G01*
X69133304Y-82851575D01*
X69141109Y-82855964D01*
X69143391Y-82860947D01*
X69178792Y-83042017D01*
X69178868Y-83042519D01*
X69196386Y-83206698D01*
X69196416Y-83207162D01*
X69200350Y-83353077D01*
X69200350Y-83353372D01*
X69196556Y-83487789D01*
X69190902Y-83617238D01*
X69189279Y-83748207D01*
X69197570Y-83887319D01*
X69197572Y-83887339D01*
X69221665Y-84041235D01*
X69267447Y-84216554D01*
X69336986Y-84409341D01*
X69336569Y-84418286D01*
X69330379Y-84424152D01*
X69165598Y-84491014D01*
X69156644Y-84490950D01*
X69150686Y-84485307D01*
X69074059Y-84328402D01*
X69074055Y-84328394D01*
X68993032Y-84216554D01*
X68984701Y-84205054D01*
X68984699Y-84205052D01*
X68887195Y-84117110D01*
X68887192Y-84117108D01*
X68781301Y-84056561D01*
X68666802Y-84015422D01*
X68666800Y-84015421D01*
X68666792Y-84015419D01*
X68543471Y-83985696D01*
X68411080Y-83959391D01*
X68269587Y-83928553D01*
X68269217Y-83928460D01*
X68118500Y-83885151D01*
X68117954Y-83884964D01*
X67965330Y-83824264D01*
X67958909Y-83818022D01*
X67957992Y-83812454D01*
X68045000Y-82733110D01*
X68049080Y-82725140D01*
X68057602Y-82722389D01*
X68058022Y-82722430D01*
G37*
G04 #@! TD.AperFunction*
G04 #@! TD*
G04 #@! TA.AperFunction,Conductor*
G04 #@! TO.N,/QSPI_CLK*
G36*
X77991740Y-97029212D02*
G01*
X78268909Y-97054394D01*
X78276838Y-97058555D01*
X78279163Y-97063060D01*
X78288902Y-97099958D01*
X78298994Y-97139146D01*
X78308184Y-97174232D01*
X78317311Y-97206750D01*
X78327213Y-97238234D01*
X78338727Y-97270217D01*
X78352693Y-97304232D01*
X78369948Y-97341812D01*
X78391331Y-97384491D01*
X78412222Y-97423590D01*
X78413099Y-97432502D01*
X78407524Y-97439365D01*
X78252168Y-97524471D01*
X78243266Y-97525441D01*
X78236498Y-97520200D01*
X78217896Y-97488989D01*
X78194089Y-97456076D01*
X78194087Y-97456073D01*
X78170359Y-97429874D01*
X78170357Y-97429872D01*
X78170354Y-97429869D01*
X78146192Y-97409084D01*
X78121103Y-97392437D01*
X78121102Y-97392436D01*
X78105826Y-97384491D01*
X78094588Y-97378646D01*
X78066148Y-97366425D01*
X78035284Y-97354492D01*
X78001496Y-97341563D01*
X77971970Y-97329494D01*
X77965609Y-97323192D01*
X77964713Y-97318064D01*
X77979035Y-97040263D01*
X77982883Y-97032179D01*
X77991321Y-97029183D01*
X77991740Y-97029212D01*
G37*
G04 #@! TD.AperFunction*
G04 #@! TD*
G04 #@! TA.AperFunction,Conductor*
G04 #@! TO.N,/QSPI_SD0*
G36*
X78129923Y-98314219D02*
G01*
X78137998Y-98318087D01*
X78140974Y-98326533D01*
X78140940Y-98326989D01*
X78115069Y-98604148D01*
X78110888Y-98612067D01*
X78106496Y-98614349D01*
X78067558Y-98624959D01*
X78027061Y-98636601D01*
X77991057Y-98647695D01*
X77957780Y-98658792D01*
X77925463Y-98670444D01*
X77892340Y-98683201D01*
X77856643Y-98697615D01*
X77816605Y-98714235D01*
X77770461Y-98733615D01*
X77727240Y-98751768D01*
X77718285Y-98751812D01*
X77711923Y-98745513D01*
X77643473Y-98582133D01*
X77643438Y-98573179D01*
X77649240Y-98567047D01*
X77681633Y-98551650D01*
X77715539Y-98530495D01*
X77742256Y-98508143D01*
X77763164Y-98484362D01*
X77779643Y-98458922D01*
X77785886Y-98446216D01*
X77793073Y-98431590D01*
X77804829Y-98402144D01*
X77816295Y-98370342D01*
X77828849Y-98335959D01*
X77832471Y-98326989D01*
X77840739Y-98306515D01*
X77847013Y-98300129D01*
X77852217Y-98299215D01*
X78129923Y-98314219D01*
G37*
G04 #@! TD.AperFunction*
G04 #@! TD*
G04 #@! TA.AperFunction,Conductor*
G04 #@! TO.N,/RGB_5V*
G36*
X72300375Y-96155696D02*
G01*
X72304668Y-96163554D01*
X72304708Y-96164010D01*
X72323656Y-96441520D01*
X72320800Y-96450007D01*
X72316578Y-96453077D01*
X72287951Y-96465302D01*
X72254814Y-96478531D01*
X72224445Y-96490785D01*
X72196476Y-96503349D01*
X72196475Y-96503350D01*
X72170549Y-96517505D01*
X72170533Y-96517515D01*
X72146276Y-96534549D01*
X72123314Y-96555754D01*
X72123311Y-96555758D01*
X72101285Y-96582410D01*
X72101280Y-96582417D01*
X72079816Y-96615813D01*
X72063689Y-96647230D01*
X72056862Y-96653025D01*
X72048354Y-96652500D01*
X72036999Y-96647230D01*
X71969312Y-96615814D01*
X71887671Y-96577922D01*
X71881610Y-96571330D01*
X71881947Y-96562466D01*
X71884998Y-96555758D01*
X71900648Y-96521342D01*
X71919847Y-96476825D01*
X71935476Y-96437857D01*
X71948273Y-96402811D01*
X71958977Y-96370061D01*
X71968327Y-96337982D01*
X71977062Y-96304946D01*
X71985920Y-96269329D01*
X71995641Y-96229503D01*
X72004993Y-96191783D01*
X72010310Y-96184579D01*
X72015095Y-96182967D01*
X72291783Y-96153174D01*
X72300375Y-96155696D01*
G37*
G04 #@! TD.AperFunction*
G04 #@! TD*
G04 #@! TA.AperFunction,Conductor*
G04 #@! TO.N,Net-(Q1A-D)*
G36*
X79625580Y-110648611D02*
G01*
X79826230Y-110841567D01*
X79829818Y-110849771D01*
X79826553Y-110858110D01*
X79826230Y-110858433D01*
X79625544Y-111051424D01*
X79617205Y-111054689D01*
X79612464Y-111053583D01*
X79563196Y-111030465D01*
X79513063Y-111009014D01*
X79467216Y-110992016D01*
X79423522Y-110978838D01*
X79379852Y-110968852D01*
X79334075Y-110961427D01*
X79284058Y-110955931D01*
X79227672Y-110951735D01*
X79162785Y-110948207D01*
X79098941Y-110945257D01*
X79090835Y-110941451D01*
X79087793Y-110933041D01*
X79091161Y-110858433D01*
X79095762Y-110756499D01*
X79099558Y-110748390D01*
X79107866Y-110745335D01*
X79170337Y-110747571D01*
X79234050Y-110748122D01*
X79289492Y-110746289D01*
X79314110Y-110744039D01*
X79338730Y-110741790D01*
X79383832Y-110734343D01*
X79383832Y-110734344D01*
X79426873Y-110723665D01*
X79469908Y-110709477D01*
X79469908Y-110709478D01*
X79515029Y-110691489D01*
X79564283Y-110669424D01*
X79612439Y-110646480D01*
X79621381Y-110646017D01*
X79625580Y-110648611D01*
G37*
G04 #@! TD.AperFunction*
G04 #@! TD*
G04 #@! TA.AperFunction,Conductor*
G04 #@! TO.N,/23_SDO*
G36*
X82660973Y-104669965D02*
G01*
X82666770Y-104676791D01*
X82667172Y-104678444D01*
X82712892Y-104951664D01*
X82710877Y-104960389D01*
X82707249Y-104963700D01*
X82687327Y-104975325D01*
X82663101Y-104990576D01*
X82654887Y-104996494D01*
X82641593Y-105006072D01*
X82641584Y-105006079D01*
X82622816Y-105022528D01*
X82606834Y-105040618D01*
X82593675Y-105061038D01*
X82583371Y-105084502D01*
X82575968Y-105111679D01*
X82571499Y-105143273D01*
X82571497Y-105143288D01*
X82570458Y-105168777D01*
X82566697Y-105176904D01*
X82558768Y-105180000D01*
X82381700Y-105180000D01*
X82373427Y-105176573D01*
X82370000Y-105168300D01*
X82370000Y-104922029D01*
X82369999Y-104887255D01*
X82370000Y-104849892D01*
X82370000Y-104768526D01*
X82373427Y-104760253D01*
X82378114Y-104757388D01*
X82652050Y-104669237D01*
X82660973Y-104669965D01*
G37*
G04 #@! TD.AperFunction*
G04 #@! TD*
G04 #@! TA.AperFunction,Conductor*
G04 #@! TO.N,/QSPI_SD2*
G36*
X74088432Y-97064347D02*
G01*
X74096636Y-97067935D01*
X74099515Y-97073057D01*
X74110291Y-97113858D01*
X74110426Y-97114520D01*
X74117668Y-97164844D01*
X74117708Y-97165204D01*
X74121794Y-97215584D01*
X74125271Y-97264414D01*
X74127884Y-97286323D01*
X74130716Y-97310072D01*
X74130717Y-97310077D01*
X74140715Y-97351087D01*
X74157871Y-97386047D01*
X74184760Y-97413472D01*
X74184761Y-97413473D01*
X74223983Y-97431929D01*
X74267758Y-97438425D01*
X74275439Y-97443029D01*
X74277733Y-97450436D01*
X74271124Y-97626769D01*
X74267389Y-97634908D01*
X74258994Y-97638023D01*
X74257714Y-97637904D01*
X74207748Y-97630486D01*
X74204932Y-97629699D01*
X74157003Y-97609552D01*
X74154509Y-97608120D01*
X74116553Y-97579600D01*
X74114908Y-97578099D01*
X74083367Y-97543265D01*
X74082966Y-97542772D01*
X74055033Y-97504231D01*
X74028195Y-97465485D01*
X74028193Y-97465482D01*
X73999519Y-97429724D01*
X73965902Y-97399902D01*
X73924227Y-97378959D01*
X73924221Y-97378957D01*
X73879025Y-97371155D01*
X73871455Y-97366371D01*
X73869622Y-97362288D01*
X73802107Y-97073337D01*
X73803561Y-97064501D01*
X73810838Y-97059282D01*
X73813727Y-97058977D01*
X74088432Y-97064347D01*
G37*
G04 #@! TD.AperFunction*
G04 #@! TD*
G04 #@! TA.AperFunction,Conductor*
G04 #@! TO.N,/RGB_5V*
G36*
X71130147Y-109303236D02*
G01*
X71292574Y-109375634D01*
X71298736Y-109382133D01*
X71298803Y-109390330D01*
X71239270Y-109553574D01*
X71239267Y-109553585D01*
X71212906Y-109702759D01*
X71212906Y-109702764D01*
X71212906Y-109702766D01*
X71212906Y-109702767D01*
X71217859Y-109833318D01*
X71217859Y-109833321D01*
X71217860Y-109833322D01*
X71217860Y-109833324D01*
X71248533Y-109950896D01*
X71248535Y-109950900D01*
X71299341Y-110061182D01*
X71299344Y-110061188D01*
X71299346Y-110061191D01*
X71299347Y-110061194D01*
X71364685Y-110169836D01*
X71438972Y-110282532D01*
X71516508Y-110404779D01*
X71516700Y-110405104D01*
X71591865Y-110542472D01*
X71592117Y-110542990D01*
X71656183Y-110693614D01*
X71656267Y-110702568D01*
X71652954Y-110707141D01*
X70824837Y-111404828D01*
X70816302Y-111407537D01*
X70808351Y-111403418D01*
X70808063Y-111403063D01*
X70143189Y-110548202D01*
X70140815Y-110539568D01*
X70142746Y-110534446D01*
X70246661Y-110381459D01*
X70246930Y-110381098D01*
X70351277Y-110252788D01*
X70351551Y-110252476D01*
X70452414Y-110146809D01*
X70452637Y-110146589D01*
X70550806Y-110054653D01*
X70646958Y-109967646D01*
X70741665Y-109876834D01*
X70766556Y-109849422D01*
X70835621Y-109773369D01*
X70929513Y-109648414D01*
X71024032Y-109493124D01*
X71114892Y-109308750D01*
X71121622Y-109302846D01*
X71130147Y-109303236D01*
G37*
G04 #@! TD.AperFunction*
G04 #@! TD*
G04 #@! TA.AperFunction,Conductor*
G04 #@! TO.N,VBUS*
G36*
X78336524Y-88589545D02*
G01*
X78336848Y-88589991D01*
X78376655Y-88647550D01*
X78376942Y-88648009D01*
X78413863Y-88713624D01*
X78414086Y-88714064D01*
X78442951Y-88777310D01*
X78443112Y-88777698D01*
X78465582Y-88838054D01*
X78465681Y-88838343D01*
X78483435Y-88895358D01*
X78498090Y-88948400D01*
X78511260Y-88996753D01*
X78524600Y-89039837D01*
X78524601Y-89039837D01*
X78524602Y-89039841D01*
X78535817Y-89067380D01*
X78539773Y-89077092D01*
X78554633Y-89101652D01*
X78555984Y-89110505D01*
X78554439Y-89114075D01*
X78503931Y-89191950D01*
X78503932Y-89191950D01*
X78503932Y-89191951D01*
X78344348Y-89438010D01*
X78216371Y-89342347D01*
X78216371Y-89342346D01*
X78079351Y-89239925D01*
X78038387Y-89209304D01*
X78033813Y-89201607D01*
X78033962Y-89197440D01*
X78036962Y-89183721D01*
X78039116Y-89159421D01*
X78038520Y-89132180D01*
X78035565Y-89107925D01*
X78034879Y-89102292D01*
X78029423Y-89077092D01*
X78027895Y-89070032D01*
X78021324Y-89048792D01*
X78017275Y-89035701D01*
X78002723Y-88999586D01*
X78002722Y-88999586D01*
X78002719Y-88999578D01*
X77983934Y-88961957D01*
X77960623Y-88923122D01*
X77939007Y-88892572D01*
X77937026Y-88883839D01*
X77941455Y-88876517D01*
X78320126Y-88587346D01*
X78328779Y-88585050D01*
X78336524Y-88589545D01*
G37*
G04 #@! TD.AperFunction*
G04 #@! TD*
G04 #@! TA.AperFunction,Conductor*
G04 #@! TO.N,/10*
G36*
X73167512Y-104586032D02*
G01*
X73195594Y-104612769D01*
X73228434Y-104640418D01*
X73258768Y-104662154D01*
X73258772Y-104662157D01*
X73274043Y-104671092D01*
X73287597Y-104679024D01*
X73287609Y-104679029D01*
X73287616Y-104679033D01*
X73315926Y-104692077D01*
X73315925Y-104692077D01*
X73344750Y-104702356D01*
X73344749Y-104702356D01*
X73344753Y-104702357D01*
X73375083Y-104710912D01*
X73407917Y-104718790D01*
X73444258Y-104727037D01*
X73477093Y-104734804D01*
X73484355Y-104740044D01*
X73486027Y-104744883D01*
X73517114Y-105021374D01*
X73514633Y-105029978D01*
X73506794Y-105034308D01*
X73506339Y-105034350D01*
X73228872Y-105054607D01*
X73220371Y-105051792D01*
X73217308Y-105047644D01*
X73202463Y-105013856D01*
X73187196Y-104977202D01*
X73173568Y-104944132D01*
X73160313Y-104913536D01*
X73160313Y-104913535D01*
X73146167Y-104884298D01*
X73129866Y-104855309D01*
X73110146Y-104825455D01*
X73100655Y-104813076D01*
X73085749Y-104793634D01*
X73080152Y-104787195D01*
X73055389Y-104758705D01*
X73055383Y-104758699D01*
X73055384Y-104758699D01*
X73025765Y-104727853D01*
X73022506Y-104719512D01*
X73025930Y-104711477D01*
X73151174Y-104586233D01*
X73159446Y-104582807D01*
X73167512Y-104586032D01*
G37*
G04 #@! TD.AperFunction*
G04 #@! TD*
G04 #@! TA.AperFunction,Conductor*
G04 #@! TO.N,/QSPI_CS*
G36*
X73219239Y-99264470D02*
G01*
X73224170Y-99271259D01*
X73232380Y-99301933D01*
X73246167Y-99335677D01*
X73246168Y-99335679D01*
X73246170Y-99335683D01*
X73256102Y-99352193D01*
X73262595Y-99362985D01*
X73262597Y-99362988D01*
X73281593Y-99385061D01*
X73281594Y-99385062D01*
X73303097Y-99403125D01*
X73327038Y-99418392D01*
X73353352Y-99432078D01*
X73381972Y-99445400D01*
X73412832Y-99459573D01*
X73438382Y-99472134D01*
X73444295Y-99478860D01*
X73444830Y-99484086D01*
X73410320Y-99760068D01*
X73405893Y-99767852D01*
X73397258Y-99770226D01*
X73396806Y-99770160D01*
X73122185Y-99724857D01*
X73114580Y-99720129D01*
X73112604Y-99715548D01*
X73104740Y-99675138D01*
X73096377Y-99633109D01*
X73088721Y-99595580D01*
X73081424Y-99560684D01*
X73074138Y-99526557D01*
X73066514Y-99491332D01*
X73058204Y-99453144D01*
X73048860Y-99410127D01*
X73038132Y-99360416D01*
X73028123Y-99313597D01*
X73029744Y-99304792D01*
X73037118Y-99299712D01*
X73037124Y-99299710D01*
X73210434Y-99262840D01*
X73219239Y-99264470D01*
G37*
G04 #@! TD.AperFunction*
G04 #@! TD*
G04 #@! TA.AperFunction,Conductor*
G04 #@! TO.N,/QSPI_SD1*
G36*
X73951771Y-95756879D02*
G01*
X73955932Y-95764808D01*
X73955964Y-95765265D01*
X73970288Y-96043062D01*
X73967292Y-96051500D01*
X73963031Y-96054494D01*
X73933499Y-96066564D01*
X73899706Y-96079494D01*
X73868836Y-96091427D01*
X73840392Y-96103645D01*
X73813867Y-96117437D01*
X73788776Y-96134080D01*
X73788773Y-96134082D01*
X73764611Y-96154863D01*
X73764609Y-96154865D01*
X73745808Y-96175622D01*
X73740868Y-96181076D01*
X73717057Y-96213992D01*
X73698452Y-96245208D01*
X73691273Y-96250560D01*
X73682781Y-96249479D01*
X73527424Y-96164375D01*
X73521814Y-96157395D01*
X73522725Y-96148602D01*
X73543620Y-96109498D01*
X73565006Y-96066817D01*
X73582267Y-96029236D01*
X73596240Y-95995221D01*
X73607761Y-95963239D01*
X73617670Y-95931755D01*
X73626804Y-95899237D01*
X73635999Y-95864150D01*
X73646095Y-95824961D01*
X73655836Y-95788060D01*
X73661260Y-95780936D01*
X73666086Y-95779395D01*
X73943223Y-95754215D01*
X73951771Y-95756879D01*
G37*
G04 #@! TD.AperFunction*
G04 #@! TD*
G04 #@! TA.AperFunction,Conductor*
G04 #@! TO.N,/QSPI_CS*
G36*
X73954031Y-94508888D02*
G01*
X73957973Y-94516929D01*
X73957993Y-94517386D01*
X73964661Y-94795489D01*
X73961433Y-94803841D01*
X73957112Y-94806709D01*
X73926114Y-94818463D01*
X73891263Y-94830880D01*
X73859589Y-94842280D01*
X73830377Y-94853919D01*
X73830378Y-94853919D01*
X73802893Y-94867062D01*
X73802891Y-94867064D01*
X73776444Y-94882957D01*
X73776433Y-94882964D01*
X73750303Y-94902862D01*
X73750300Y-94902864D01*
X73750297Y-94902867D01*
X73723734Y-94928050D01*
X73696034Y-94959769D01*
X73696034Y-94959770D01*
X73673288Y-94990181D01*
X73665589Y-94994753D01*
X73657204Y-94992754D01*
X73512155Y-94891090D01*
X73507347Y-94883535D01*
X73509188Y-94874939D01*
X73533273Y-94839454D01*
X73557906Y-94800060D01*
X73557908Y-94800056D01*
X73560469Y-94795489D01*
X73563852Y-94789452D01*
X73577600Y-94764931D01*
X73593337Y-94732704D01*
X73593337Y-94732703D01*
X73606096Y-94702023D01*
X73606096Y-94702022D01*
X73616865Y-94671513D01*
X73626623Y-94639824D01*
X73636353Y-94605591D01*
X73647038Y-94567451D01*
X73657366Y-94531935D01*
X73662967Y-94524948D01*
X73667864Y-94523525D01*
X73945560Y-94505989D01*
X73954031Y-94508888D01*
G37*
G04 #@! TD.AperFunction*
G04 #@! TD*
G04 #@! TA.AperFunction,Conductor*
G04 #@! TO.N,VBUS*
G36*
X73529428Y-88587022D02*
G01*
X73529866Y-88587340D01*
X73858571Y-88838355D01*
X73908541Y-88876514D01*
X73913036Y-88884259D01*
X73910991Y-88892571D01*
X73889380Y-88923113D01*
X73889376Y-88923119D01*
X73889375Y-88923121D01*
X73866064Y-88961956D01*
X73847279Y-88999577D01*
X73847276Y-88999585D01*
X73847275Y-88999585D01*
X73832723Y-89035701D01*
X73828673Y-89048791D01*
X73822103Y-89070031D01*
X73822103Y-89070033D01*
X73815119Y-89102290D01*
X73815117Y-89102302D01*
X73811478Y-89132184D01*
X73810883Y-89159417D01*
X73810883Y-89159433D01*
X73813035Y-89183708D01*
X73813036Y-89183719D01*
X73816035Y-89197435D01*
X73814454Y-89206250D01*
X73811610Y-89209305D01*
X73515668Y-89430522D01*
X73506990Y-89432731D01*
X73499292Y-89428156D01*
X73498847Y-89427517D01*
X73357323Y-89209305D01*
X73295559Y-89114073D01*
X73293933Y-89105270D01*
X73295363Y-89101657D01*
X73310228Y-89077089D01*
X73325398Y-89039841D01*
X73325399Y-89039837D01*
X73325400Y-89039837D01*
X73338739Y-88996753D01*
X73351909Y-88948400D01*
X73366564Y-88895357D01*
X73384326Y-88838311D01*
X73384416Y-88838053D01*
X73406892Y-88777681D01*
X73407047Y-88777309D01*
X73435911Y-88714064D01*
X73436134Y-88713624D01*
X73473055Y-88648008D01*
X73473329Y-88647568D01*
X73513151Y-88589989D01*
X73520675Y-88585135D01*
X73529428Y-88587022D01*
G37*
G04 #@! TD.AperFunction*
G04 #@! TD*
G04 #@! TA.AperFunction,Conductor*
G04 #@! TO.N,/RESET*
G36*
X83826760Y-90350010D02*
G01*
X83830998Y-90357898D01*
X83831035Y-90358354D01*
X83897299Y-91439174D01*
X83894385Y-91447641D01*
X83889742Y-91450840D01*
X83733970Y-91509467D01*
X83733417Y-91509645D01*
X83581050Y-91550286D01*
X83580664Y-91550375D01*
X83438415Y-91578163D01*
X83305448Y-91601118D01*
X83181049Y-91627270D01*
X83181048Y-91627271D01*
X83122679Y-91645980D01*
X83064310Y-91664690D01*
X83026068Y-91684421D01*
X82954321Y-91721441D01*
X82954311Y-91721448D01*
X82850174Y-91805594D01*
X82850171Y-91805597D01*
X82750948Y-91925228D01*
X82661267Y-92078935D01*
X82654138Y-92084354D01*
X82645943Y-92083511D01*
X82486780Y-92004201D01*
X82480903Y-91997444D01*
X82481315Y-91988957D01*
X82563918Y-91804104D01*
X82620492Y-91634520D01*
X82652802Y-91484284D01*
X82667190Y-91347234D01*
X82669994Y-91217207D01*
X82667556Y-91088041D01*
X82666217Y-90953713D01*
X82666222Y-90953435D01*
X82672303Y-90807880D01*
X82672341Y-90807418D01*
X82692159Y-90644344D01*
X82692240Y-90643852D01*
X82730405Y-90465091D01*
X82735483Y-90457718D01*
X82740671Y-90455895D01*
X83818186Y-90347429D01*
X83826760Y-90350010D01*
G37*
G04 #@! TD.AperFunction*
G04 #@! TD*
G04 #@! TA.AperFunction,Conductor*
G04 #@! TO.N,Net-(Q1A-D)*
G36*
X72690166Y-91937387D02*
G01*
X72690580Y-91937575D01*
X72941563Y-92057590D01*
X72947549Y-92064250D01*
X72948151Y-92069380D01*
X72943760Y-92110743D01*
X72938020Y-92153775D01*
X72932044Y-92192187D01*
X72926076Y-92227912D01*
X72920360Y-92262883D01*
X72915138Y-92299031D01*
X72910653Y-92338288D01*
X72907149Y-92382591D01*
X72904868Y-92433868D01*
X72904210Y-92482512D01*
X72900671Y-92490738D01*
X72892511Y-92494054D01*
X72715389Y-92494054D01*
X72707116Y-92490627D01*
X72703695Y-92482724D01*
X72702642Y-92449472D01*
X72700909Y-92433868D01*
X72698401Y-92411281D01*
X72691319Y-92378406D01*
X72691317Y-92378401D01*
X72691317Y-92378398D01*
X72681391Y-92349774D01*
X72681386Y-92349763D01*
X72681081Y-92349156D01*
X72668598Y-92324291D01*
X72652938Y-92300896D01*
X72649785Y-92297088D01*
X72634400Y-92278504D01*
X72634400Y-92278505D01*
X72612970Y-92256038D01*
X72588641Y-92232421D01*
X72567324Y-92212192D01*
X72563683Y-92204012D01*
X72564634Y-92199079D01*
X72674792Y-91943498D01*
X72681212Y-91937259D01*
X72690166Y-91937387D01*
G37*
G04 #@! TD.AperFunction*
G04 #@! TD*
G04 #@! TA.AperFunction,Conductor*
G04 #@! TO.N,/QSPI_SD3*
G36*
X75389710Y-101536335D02*
G01*
X75409752Y-101567333D01*
X75434916Y-101599883D01*
X75444718Y-101610147D01*
X75459629Y-101625763D01*
X75459646Y-101625779D01*
X75476385Y-101639584D01*
X75484494Y-101646272D01*
X75510059Y-101662668D01*
X75510062Y-101662669D01*
X75510066Y-101662672D01*
X75536908Y-101676234D01*
X75539828Y-101677456D01*
X75565623Y-101688252D01*
X75596772Y-101699997D01*
X75630932Y-101712749D01*
X75660974Y-101724715D01*
X75667390Y-101730958D01*
X75668333Y-101736073D01*
X75656678Y-102014001D01*
X75652907Y-102022124D01*
X75644498Y-102025201D01*
X75644041Y-102025173D01*
X75366689Y-102002656D01*
X75358721Y-101998571D01*
X75356350Y-101994078D01*
X75346398Y-101957660D01*
X75336097Y-101918842D01*
X75326716Y-101884059D01*
X75317365Y-101851835D01*
X75307157Y-101820706D01*
X75295185Y-101789157D01*
X75295185Y-101789158D01*
X75280580Y-101755764D01*
X75262438Y-101719020D01*
X75239870Y-101677456D01*
X75217804Y-101639583D01*
X75216601Y-101630711D01*
X75221901Y-101623658D01*
X75373876Y-101532649D01*
X75382732Y-101531340D01*
X75389710Y-101536335D01*
G37*
G04 #@! TD.AperFunction*
G04 #@! TD*
G04 #@! TA.AperFunction,Conductor*
G04 #@! TO.N,VBUS*
G36*
X81228775Y-106636058D02*
G01*
X81278268Y-106669486D01*
X81375564Y-106735199D01*
X81380502Y-106742670D01*
X81378804Y-106751304D01*
X81355187Y-106787374D01*
X81331036Y-106827297D01*
X81311703Y-106862823D01*
X81311702Y-106862826D01*
X81296231Y-106895339D01*
X81296230Y-106895342D01*
X81296230Y-106895341D01*
X81283662Y-106926221D01*
X81273023Y-106956887D01*
X81263363Y-106988703D01*
X81253718Y-107023068D01*
X81243124Y-107061371D01*
X81232885Y-107097106D01*
X81227312Y-107104115D01*
X81222426Y-107105556D01*
X80944803Y-107124293D01*
X80936318Y-107121431D01*
X80932342Y-107113408D01*
X80932321Y-107112990D01*
X80924450Y-106834879D01*
X80927641Y-106826514D01*
X80931950Y-106823628D01*
X80962721Y-106811819D01*
X80997405Y-106799321D01*
X81028952Y-106787839D01*
X81030105Y-106787374D01*
X81058038Y-106776111D01*
X81058039Y-106776110D01*
X81058041Y-106776108D01*
X81058046Y-106776107D01*
X81085370Y-106762863D01*
X81111608Y-106746843D01*
X81137445Y-106726781D01*
X81163564Y-106701416D01*
X81190649Y-106669482D01*
X81212745Y-106638902D01*
X81220368Y-106634204D01*
X81228775Y-106636058D01*
G37*
G04 #@! TD.AperFunction*
G04 #@! TD*
G04 #@! TA.AperFunction,Conductor*
G04 #@! TO.N,/QSPI_CLK*
G36*
X75200438Y-102075975D02*
G01*
X75226947Y-102112096D01*
X75257536Y-102148861D01*
X75286234Y-102178752D01*
X75313815Y-102203438D01*
X75341052Y-102224590D01*
X75368721Y-102243878D01*
X75397595Y-102262974D01*
X75428448Y-102283547D01*
X75462053Y-102307268D01*
X75492569Y-102330723D01*
X75497040Y-102338481D01*
X75496532Y-102343720D01*
X75408080Y-102607402D01*
X75402199Y-102614156D01*
X75393266Y-102614774D01*
X75392835Y-102614620D01*
X75132616Y-102515857D01*
X75126098Y-102509717D01*
X75125068Y-102504833D01*
X75125300Y-102472950D01*
X75125018Y-102437454D01*
X75123557Y-102405364D01*
X75123556Y-102405353D01*
X75120310Y-102375519D01*
X75114675Y-102346823D01*
X75106043Y-102318136D01*
X75093813Y-102288337D01*
X75093814Y-102288337D01*
X75077374Y-102256280D01*
X75077373Y-102256279D01*
X75056123Y-102220850D01*
X75035834Y-102190468D01*
X75034090Y-102181685D01*
X75038886Y-102174365D01*
X75184332Y-102073290D01*
X75193081Y-102071384D01*
X75200438Y-102075975D01*
G37*
G04 #@! TD.AperFunction*
G04 #@! TD*
G04 #@! TA.AperFunction,Conductor*
G04 #@! TO.N,/7*
G36*
X73447491Y-105492185D02*
G01*
X73451079Y-105500389D01*
X73451079Y-105500847D01*
X73445641Y-105778992D01*
X73442053Y-105787196D01*
X73437631Y-105789867D01*
X73415987Y-105797055D01*
X73405378Y-105800579D01*
X73369707Y-105811666D01*
X73337456Y-105821680D01*
X73307614Y-105831778D01*
X73279169Y-105843116D01*
X73251111Y-105856852D01*
X73222427Y-105874142D01*
X73192107Y-105896143D01*
X73159139Y-105924013D01*
X73159135Y-105924017D01*
X73159134Y-105924017D01*
X73130780Y-105951030D01*
X73122427Y-105954256D01*
X73114437Y-105950832D01*
X72989166Y-105825561D01*
X72985739Y-105817288D01*
X72988968Y-105809218D01*
X73015981Y-105780864D01*
X73015981Y-105780863D01*
X73015985Y-105780859D01*
X73043855Y-105747891D01*
X73065857Y-105717571D01*
X73065859Y-105717568D01*
X73083144Y-105688894D01*
X73083144Y-105688893D01*
X73083144Y-105688892D01*
X73083147Y-105688888D01*
X73096882Y-105660829D01*
X73108221Y-105632385D01*
X73118319Y-105602543D01*
X73128333Y-105570292D01*
X73139420Y-105534621D01*
X73150132Y-105502367D01*
X73155992Y-105495597D01*
X73161005Y-105494358D01*
X73439153Y-105488920D01*
X73447491Y-105492185D01*
G37*
G04 #@! TD.AperFunction*
G04 #@! TD*
G04 #@! TA.AperFunction,Conductor*
G04 #@! TO.N,/QSPI_SD3*
G36*
X77989247Y-95756132D02*
G01*
X78266990Y-95773060D01*
X78275038Y-95776983D01*
X78277505Y-95781449D01*
X78287879Y-95816860D01*
X78298612Y-95854921D01*
X78308388Y-95889092D01*
X78318198Y-95920719D01*
X78329036Y-95951151D01*
X78341894Y-95981734D01*
X78357766Y-96013818D01*
X78377643Y-96048748D01*
X78402519Y-96087874D01*
X78422663Y-96117025D01*
X78426836Y-96123063D01*
X78428720Y-96131818D01*
X78424010Y-96139237D01*
X78279856Y-96242167D01*
X78271132Y-96244185D01*
X78263748Y-96239732D01*
X78240661Y-96209395D01*
X78240656Y-96209389D01*
X78212661Y-96177799D01*
X78212652Y-96177790D01*
X78185873Y-96152708D01*
X78185869Y-96152705D01*
X78185865Y-96152701D01*
X78159556Y-96132865D01*
X78141846Y-96122308D01*
X78132991Y-96117029D01*
X78132983Y-96117025D01*
X78105450Y-96103947D01*
X78105447Y-96103945D01*
X78105439Y-96103942D01*
X78076159Y-96092345D01*
X78044417Y-96080984D01*
X78009479Y-96068607D01*
X77978359Y-96056878D01*
X77971826Y-96050754D01*
X77970788Y-96045675D01*
X77972848Y-95951151D01*
X77976847Y-95767555D01*
X77980453Y-95759360D01*
X77988799Y-95756114D01*
X77989247Y-95756132D01*
G37*
G04 #@! TD.AperFunction*
G04 #@! TD*
G04 #@! TA.AperFunction,Conductor*
G04 #@! TO.N,/QSPI_SD2*
G36*
X74226852Y-102143427D02*
G01*
X74230276Y-102151417D01*
X74231224Y-102190573D01*
X74231224Y-102190584D01*
X74231225Y-102190585D01*
X74234829Y-102233594D01*
X74240709Y-102270580D01*
X74240709Y-102270581D01*
X74240711Y-102270589D01*
X74248768Y-102303097D01*
X74258896Y-102332650D01*
X74270992Y-102360781D01*
X74284954Y-102389022D01*
X74300678Y-102418908D01*
X74318060Y-102451972D01*
X74331576Y-102478928D01*
X74333293Y-102482353D01*
X74333938Y-102491285D01*
X74331267Y-102495707D01*
X74138433Y-102696230D01*
X74130229Y-102699818D01*
X74121890Y-102696553D01*
X74121567Y-102696230D01*
X73928732Y-102495707D01*
X73925467Y-102487368D01*
X73926705Y-102482355D01*
X73941939Y-102451972D01*
X73959321Y-102418908D01*
X73975045Y-102389022D01*
X73989007Y-102360781D01*
X74001103Y-102332650D01*
X74011231Y-102303097D01*
X74019288Y-102270589D01*
X74019287Y-102270589D01*
X74019290Y-102270581D01*
X74019290Y-102270580D01*
X74025170Y-102233594D01*
X74028774Y-102190585D01*
X74028774Y-102190584D01*
X74028775Y-102190573D01*
X74029723Y-102151415D01*
X74033350Y-102143229D01*
X74041420Y-102140000D01*
X74218579Y-102140000D01*
X74226852Y-102143427D01*
G37*
G04 #@! TD.AperFunction*
G04 #@! TD*
G04 #@! TA.AperFunction,Conductor*
G04 #@! TO.N,/QSPI_SD0*
G36*
X74620990Y-102178074D02*
G01*
X74638845Y-102214747D01*
X74638848Y-102214753D01*
X74661695Y-102252644D01*
X74666838Y-102259405D01*
X74684943Y-102283206D01*
X74708966Y-102308080D01*
X74708971Y-102308085D01*
X74724688Y-102321079D01*
X74734122Y-102328879D01*
X74751215Y-102340645D01*
X74760763Y-102347218D01*
X74760764Y-102347218D01*
X74760771Y-102347223D01*
X74789275Y-102364731D01*
X74819994Y-102383024D01*
X74853290Y-102403722D01*
X74882601Y-102423720D01*
X74887504Y-102431214D01*
X74887281Y-102436515D01*
X74812886Y-102704470D01*
X74807370Y-102711525D01*
X74798482Y-102712614D01*
X74798044Y-102712483D01*
X74532945Y-102627590D01*
X74526111Y-102621803D01*
X74524827Y-102617017D01*
X74523052Y-102580651D01*
X74520463Y-102541813D01*
X74517027Y-102507074D01*
X74517027Y-102507073D01*
X74512308Y-102474845D01*
X74505887Y-102443652D01*
X74505887Y-102443651D01*
X74497323Y-102411901D01*
X74486195Y-102378085D01*
X74472069Y-102340645D01*
X74454516Y-102298043D01*
X74437737Y-102259405D01*
X74437585Y-102250452D01*
X74443741Y-102244042D01*
X74605745Y-102172492D01*
X74614697Y-102172286D01*
X74620990Y-102178074D01*
G37*
G04 #@! TD.AperFunction*
G04 #@! TD*
G04 #@! TA.AperFunction,Conductor*
G04 #@! TO.N,/RESET*
G36*
X80978579Y-108392490D02*
G01*
X81116347Y-108503817D01*
X81120628Y-108511682D01*
X81118224Y-108520106D01*
X81092442Y-108553211D01*
X81066029Y-108590437D01*
X81066026Y-108590442D01*
X81066026Y-108590441D01*
X81057682Y-108603734D01*
X81044987Y-108623963D01*
X81028260Y-108655032D01*
X81028260Y-108655031D01*
X81014784Y-108684898D01*
X81003502Y-108714812D01*
X80993365Y-108745988D01*
X80983302Y-108779704D01*
X80972261Y-108817196D01*
X80961602Y-108851841D01*
X80955893Y-108858740D01*
X80950957Y-108860088D01*
X80673015Y-108872878D01*
X80664593Y-108869835D01*
X80660789Y-108861728D01*
X80660777Y-108861271D01*
X80658860Y-108583083D01*
X80662230Y-108574786D01*
X80666583Y-108571999D01*
X80684369Y-108565572D01*
X80698487Y-108560473D01*
X80733989Y-108548385D01*
X80766162Y-108537317D01*
X80795854Y-108526045D01*
X80795853Y-108526045D01*
X80795858Y-108526043D01*
X80823929Y-108513336D01*
X80851227Y-108497967D01*
X80878603Y-108478711D01*
X80906911Y-108454338D01*
X80906914Y-108454335D01*
X80937000Y-108423624D01*
X80937000Y-108423623D01*
X80937001Y-108423622D01*
X80962332Y-108393986D01*
X80970312Y-108389926D01*
X80978579Y-108392490D01*
G37*
G04 #@! TD.AperFunction*
G04 #@! TD*
M02*
