G04 #@! TF.GenerationSoftware,KiCad,Pcbnew,7.0.0-da2b9df05c~165~ubuntu22.04.1*
G04 #@! TF.CreationDate,2023-05-29T12:25:48+00:00*
G04 #@! TF.ProjectId,helios,68656c69-6f73-42e6-9b69-6361645f7063,rev1.0*
G04 #@! TF.SameCoordinates,Original*
G04 #@! TF.FileFunction,Soldermask,Bot*
G04 #@! TF.FilePolarity,Negative*
%FSLAX46Y46*%
G04 Gerber Fmt 4.6, Leading zero omitted, Abs format (unit mm)*
G04 Created by KiCad (PCBNEW 7.0.0-da2b9df05c~165~ubuntu22.04.1) date 2023-05-29 12:25:48*
%MOMM*%
%LPD*%
G01*
G04 APERTURE LIST*
G04 Aperture macros list*
%AMRoundRect*
0 Rectangle with rounded corners*
0 $1 Rounding radius*
0 $2 $3 $4 $5 $6 $7 $8 $9 X,Y pos of 4 corners*
0 Add a 4 corners polygon primitive as box body*
4,1,4,$2,$3,$4,$5,$6,$7,$8,$9,$2,$3,0*
0 Add four circle primitives for the rounded corners*
1,1,$1+$1,$2,$3*
1,1,$1+$1,$4,$5*
1,1,$1+$1,$6,$7*
1,1,$1+$1,$8,$9*
0 Add four rect primitives between the rounded corners*
20,1,$1+$1,$2,$3,$4,$5,0*
20,1,$1+$1,$4,$5,$6,$7,0*
20,1,$1+$1,$6,$7,$8,$9,0*
20,1,$1+$1,$8,$9,$2,$3,0*%
G04 Aperture macros list end*
%ADD10C,1.700000*%
%ADD11O,3.000000X1.700000*%
%ADD12RoundRect,0.425000X0.425000X0.425000X-0.425000X0.425000X-0.425000X-0.425000X0.425000X-0.425000X0*%
%ADD13RoundRect,0.425000X-1.075000X-0.425000X1.075000X-0.425000X1.075000X0.425000X-1.075000X0.425000X0*%
%ADD14O,1.700000X3.000000*%
%ADD15O,1.700000X1.700000*%
%ADD16RoundRect,0.350000X0.000000X-0.494975X0.494975X0.000000X0.000000X0.494975X-0.494975X0.000000X0*%
%ADD17RoundRect,0.350000X-0.894755X-0.500000X0.894755X-0.500000X0.894755X0.500000X-0.894755X0.500000X0*%
%ADD18RoundRect,0.425000X-0.425000X-0.425000X0.425000X-0.425000X0.425000X0.425000X-0.425000X0.425000X0*%
%ADD19RoundRect,0.350000X-0.902255X-0.500000X0.902255X-0.500000X0.902255X0.500000X-0.902255X0.500000X0*%
%ADD20O,1.000000X1.700000*%
%ADD21O,1.000000X2.100000*%
%ADD22C,0.800000*%
G04 APERTURE END LIST*
D10*
G04 #@! TO.C,J2*
X149835000Y-134160000D03*
D11*
X150534999Y-134159999D03*
D10*
X149835000Y-136700000D03*
D11*
X150534999Y-136699999D03*
D10*
X149835000Y-139240000D03*
D11*
X150534999Y-139239999D03*
D12*
X149835000Y-141780000D03*
D13*
X150535000Y-141780000D03*
D12*
X149835000Y-144320000D03*
D13*
X150535000Y-144320000D03*
D10*
X149835000Y-146860000D03*
D11*
X150534999Y-146859999D03*
D10*
X149835000Y-149400000D03*
D11*
X150534999Y-149399999D03*
D10*
X149835000Y-151940000D03*
D11*
X150534999Y-151939999D03*
D10*
X149835000Y-154480000D03*
D11*
X150534999Y-154479999D03*
D10*
X149835000Y-157020000D03*
D11*
X150534999Y-157019999D03*
D10*
X149835000Y-159560000D03*
D11*
X150534999Y-159559999D03*
D10*
X149835000Y-162100000D03*
D11*
X150534999Y-162099999D03*
D10*
X149835000Y-164640000D03*
D11*
X150534999Y-164639999D03*
D14*
X153774999Y-165339999D03*
D10*
X153775000Y-166040000D03*
D14*
X156314999Y-165339999D03*
D15*
X156314999Y-166039999D03*
D14*
X158854999Y-165339999D03*
D15*
X158854999Y-166039999D03*
D14*
X161394999Y-165339999D03*
D15*
X161394999Y-166039999D03*
D14*
X163934999Y-165339999D03*
D15*
X163934999Y-166039999D03*
D11*
X167174999Y-164639999D03*
D10*
X167875000Y-164640000D03*
D11*
X167174999Y-162099999D03*
D10*
X167875000Y-162100000D03*
D11*
X167174999Y-159559999D03*
D10*
X167875000Y-159560000D03*
D11*
X167174999Y-157019999D03*
D10*
X167875000Y-157020000D03*
D11*
X167174999Y-154479999D03*
D10*
X167875000Y-154480000D03*
D11*
X167174999Y-151939999D03*
D10*
X167875000Y-151940000D03*
D11*
X167174999Y-149399999D03*
D10*
X167875000Y-149400000D03*
D11*
X167174999Y-146859999D03*
D10*
X167875000Y-146860000D03*
D16*
X166475000Y-144320000D03*
D17*
X167429755Y-144320000D03*
D11*
X167174999Y-141779999D03*
D10*
X167875000Y-141780000D03*
D18*
X166475000Y-139240000D03*
D13*
X167175000Y-139240000D03*
D16*
X166475000Y-136700000D03*
D19*
X167422255Y-136700000D03*
D11*
X167174999Y-134159999D03*
D10*
X167875000Y-134160000D03*
X153780000Y-162100000D03*
X160125000Y-141780000D03*
X157585000Y-141780000D03*
G04 #@! TD*
D20*
G04 #@! TO.C,J1*
X164429999Y-138129999D03*
X153279999Y-138129999D03*
D21*
X153279999Y-134129999D03*
X164429999Y-134129999D03*
G04 #@! TD*
D22*
G04 #@! TO.C,TP1*
X158370000Y-157950000D03*
G04 #@! TD*
G04 #@! TO.C,TP2*
X159470000Y-157960000D03*
G04 #@! TD*
M02*
