G04 #@! TF.GenerationSoftware,KiCad,Pcbnew,(6.0.8)*
G04 #@! TF.CreationDate,2022-10-20T21:47:42+02:00*
G04 #@! TF.ProjectId,helios,68656c69-6f73-42e6-9b69-6361645f7063,rev1.0*
G04 #@! TF.SameCoordinates,Original*
G04 #@! TF.FileFunction,Legend,Top*
G04 #@! TF.FilePolarity,Positive*
%FSLAX46Y46*%
G04 Gerber Fmt 4.6, Leading zero omitted, Abs format (unit mm)*
G04 Created by KiCad (PCBNEW (6.0.8)) date 2022-10-20 21:47:42*
%MOMM*%
%LPD*%
G01*
G04 APERTURE LIST*
%ADD10C,0.070000*%
%ADD11C,0.120000*%
%ADD12C,0.100000*%
%ADD13C,0.200000*%
%ADD14C,0.141419*%
G04 APERTURE END LIST*
D10*
G04 #@! TO.C,JP2*
X164120000Y-139745714D02*
X164220000Y-140045714D01*
X164320000Y-139745714D01*
X164852857Y-140045714D02*
X164752857Y-139902857D01*
X164681428Y-140045714D02*
X164681428Y-139745714D01*
X164795714Y-139745714D01*
X164824285Y-139760000D01*
X164838571Y-139774285D01*
X164852857Y-139802857D01*
X164852857Y-139845714D01*
X164838571Y-139874285D01*
X164824285Y-139888571D01*
X164795714Y-139902857D01*
X164681428Y-139902857D01*
D11*
G04 #@! TO.C,Q1*
X162520000Y-160320000D02*
X162520000Y-161870000D01*
X160720000Y-161870000D02*
X160720000Y-160570000D01*
G04 #@! TO.C,R5*
X153953641Y-142405000D02*
X153646359Y-142405000D01*
X153953641Y-141645000D02*
X153646359Y-141645000D01*
G04 #@! TO.C,R3*
X159660000Y-162483641D02*
X159660000Y-162176359D01*
X160420000Y-162483641D02*
X160420000Y-162176359D01*
G04 #@! TO.C,C3*
X161882164Y-141730000D02*
X162097836Y-141730000D01*
X161882164Y-141010000D02*
X162097836Y-141010000D01*
G04 #@! TO.C,U1*
X159760000Y-144600000D02*
X159760000Y-143000000D01*
X157960000Y-143000000D02*
X157960000Y-144900000D01*
G04 #@! TO.C,C1*
X153907836Y-141510000D02*
X153692164Y-141510000D01*
X153907836Y-140790000D02*
X153692164Y-140790000D01*
G04 #@! TO.C,U4*
X155315000Y-159310000D02*
X155315000Y-158660000D01*
X155965000Y-159310000D02*
X155315000Y-159310000D01*
X161885000Y-159310000D02*
X162535000Y-159310000D01*
X161885000Y-152090000D02*
X162535000Y-152090000D01*
X162535000Y-159310000D02*
X162535000Y-158660000D01*
X162535000Y-152090000D02*
X162535000Y-152740000D01*
X155965000Y-152090000D02*
X155315000Y-152090000D01*
G04 #@! TO.C,Q2*
X156425000Y-142525000D02*
X156425000Y-143825000D01*
X154625000Y-144075000D02*
X154625000Y-142525000D01*
G04 #@! TO.C,R14*
X157766359Y-160060000D02*
X158073641Y-160060000D01*
X157766359Y-160820000D02*
X158073641Y-160820000D01*
G04 #@! TO.C,C12*
X163692164Y-157060000D02*
X163907836Y-157060000D01*
X163692164Y-156340000D02*
X163907836Y-156340000D01*
G04 #@! TO.C,C9*
X160940000Y-150802164D02*
X160940000Y-151017836D01*
X161660000Y-150802164D02*
X161660000Y-151017836D01*
G04 #@! TO.C,R9*
X155146359Y-144360000D02*
X155453641Y-144360000D01*
X155146359Y-145120000D02*
X155453641Y-145120000D01*
G04 #@! TO.C,C5*
X161230000Y-144062164D02*
X161230000Y-144277836D01*
X161950000Y-144062164D02*
X161950000Y-144277836D01*
G04 #@! TO.C,R15*
X162640000Y-149223641D02*
X162640000Y-148916359D01*
X163400000Y-149223641D02*
X163400000Y-148916359D01*
G04 #@! TO.C,R2*
X156370000Y-143963641D02*
X156370000Y-143656359D01*
X157130000Y-143963641D02*
X157130000Y-143656359D01*
G04 #@! TO.C,R17*
X163646359Y-159405000D02*
X163953641Y-159405000D01*
X163646359Y-158645000D02*
X163953641Y-158645000D01*
G04 #@! TO.C,U5*
X155525000Y-148000000D02*
X155525000Y-149300000D01*
X153725000Y-149550000D02*
X153725000Y-148000000D01*
G04 #@! TO.C,C16*
X155130000Y-151017836D02*
X155130000Y-150802164D01*
X155850000Y-151017836D02*
X155850000Y-150802164D01*
G04 #@! TO.C,C17*
X158810000Y-151017836D02*
X158810000Y-150802164D01*
X158090000Y-151017836D02*
X158090000Y-150802164D01*
G04 #@! TO.C,R10*
X163530000Y-149223641D02*
X163530000Y-148916359D01*
X164290000Y-149223641D02*
X164290000Y-148916359D01*
D12*
G04 #@! TO.C,D2*
X163070000Y-149975000D02*
G75*
G03*
X163070000Y-149975000I-50000J0D01*
G01*
D11*
G04 #@! TO.C,R7*
X163226359Y-139810000D02*
X163533641Y-139810000D01*
X163226359Y-139050000D02*
X163533641Y-139050000D01*
G04 #@! TO.C,C19*
X159650000Y-160382164D02*
X159650000Y-160597836D01*
X160370000Y-160382164D02*
X160370000Y-160597836D01*
G04 #@! TO.C,R16*
X163953641Y-158530000D02*
X163646359Y-158530000D01*
X163953641Y-157770000D02*
X163646359Y-157770000D01*
G04 #@! TO.C,C8*
X154960000Y-162042164D02*
X154960000Y-162257836D01*
X155680000Y-162042164D02*
X155680000Y-162257836D01*
G04 #@! TO.C,D3*
X164800000Y-141050000D02*
G75*
G03*
X164800000Y-141050000I-10000J0D01*
G01*
G04 #@! TO.C,R13*
X159740000Y-143953641D02*
X159740000Y-143646359D01*
X160500000Y-143953641D02*
X160500000Y-143646359D01*
G04 #@! TO.C,R12*
X157980000Y-143963641D02*
X157980000Y-143656359D01*
X157220000Y-143963641D02*
X157220000Y-143656359D01*
G04 #@! TO.C,Y1*
X157075902Y-162250000D02*
G75*
G03*
X157075902Y-162250000I-55902J0D01*
G01*
D13*
G04 #@! TO.C,U3*
X157000000Y-145695000D02*
G75*
G03*
X157000000Y-145695000I-100000J0D01*
G01*
D11*
G04 #@! TO.C,C10*
X160810000Y-150802164D02*
X160810000Y-151017836D01*
X160090000Y-150802164D02*
X160090000Y-151017836D01*
D12*
G04 #@! TO.C,D1*
X163960000Y-149965000D02*
G75*
G03*
X163960000Y-149965000I-50000J0D01*
G01*
D11*
G04 #@! TO.C,C2*
X155467164Y-141835000D02*
X155682836Y-141835000D01*
X155467164Y-141115000D02*
X155682836Y-141115000D01*
G04 #@! TO.C,R1*
X161476359Y-163240000D02*
X161783641Y-163240000D01*
X161476359Y-162480000D02*
X161783641Y-162480000D01*
G04 #@! TO.C,C18*
X162510000Y-151017836D02*
X162510000Y-150802164D01*
X161790000Y-151017836D02*
X161790000Y-150802164D01*
D12*
G04 #@! TO.C,SW1*
X163240000Y-160370000D02*
X164240000Y-160370000D01*
X164240000Y-160370000D02*
X164240000Y-162170000D01*
X164240000Y-162170000D02*
X163240000Y-162170000D01*
X163240000Y-162170000D02*
X163240000Y-160370000D01*
G04 #@! TO.C,U2*
D14*
X161960709Y-143865000D02*
G75*
G03*
X161960709Y-143865000I-70709J0D01*
G01*
D11*
G04 #@! TO.C,C7*
X158780000Y-162257836D02*
X158780000Y-162042164D01*
X159500000Y-162257836D02*
X159500000Y-162042164D01*
G04 #@! TO.C,C15*
X154132836Y-156785000D02*
X153917164Y-156785000D01*
X154132836Y-156065000D02*
X153917164Y-156065000D01*
G04 #@! TO.C,C11*
X159530000Y-160382164D02*
X159530000Y-160597836D01*
X158810000Y-160382164D02*
X158810000Y-160597836D01*
G04 #@! TO.C,C13*
X163682164Y-152740000D02*
X163897836Y-152740000D01*
X163682164Y-153460000D02*
X163897836Y-153460000D01*
G04 #@! TO.C,F1*
X162747221Y-142820000D02*
X163072779Y-142820000D01*
X162747221Y-141800000D02*
X163072779Y-141800000D01*
G04 #@! TO.C,R11*
X154420000Y-146353641D02*
X154420000Y-146046359D01*
X155180000Y-146353641D02*
X155180000Y-146046359D01*
G04 #@! TO.C,C6*
X163362164Y-145330000D02*
X163577836Y-145330000D01*
X163362164Y-146050000D02*
X163577836Y-146050000D01*
G04 #@! TO.C,R8*
X154473641Y-139050000D02*
X154166359Y-139050000D01*
X154473641Y-139810000D02*
X154166359Y-139810000D01*
G04 #@! TO.C,R6*
X152895000Y-143221359D02*
X152895000Y-143528641D01*
X153655000Y-143221359D02*
X153655000Y-143528641D01*
G04 #@! TO.C,C4*
X163530000Y-144062164D02*
X163530000Y-144277836D01*
X164250000Y-144062164D02*
X164250000Y-144277836D01*
G04 #@! TO.C,R4*
X153920000Y-143528641D02*
X153920000Y-143221359D01*
X154680000Y-143528641D02*
X154680000Y-143221359D01*
G04 #@! TO.C,C14*
X158940000Y-151017836D02*
X158940000Y-150802164D01*
X159660000Y-151017836D02*
X159660000Y-150802164D01*
G04 #@! TO.C,FB1*
X164040000Y-136383641D02*
X164040000Y-136076359D01*
X164800000Y-136383641D02*
X164800000Y-136076359D01*
G04 #@! TD*
M02*
