G04 #@! TF.GenerationSoftware,KiCad,Pcbnew,7.0.0-da2b9df05c~165~ubuntu22.04.1*
G04 #@! TF.CreationDate,2023-05-29T12:25:48+00:00*
G04 #@! TF.ProjectId,helios,68656c69-6f73-42e6-9b69-6361645f7063,rev1.0*
G04 #@! TF.SameCoordinates,Original*
G04 #@! TF.FileFunction,Soldermask,Top*
G04 #@! TF.FilePolarity,Negative*
%FSLAX46Y46*%
G04 Gerber Fmt 4.6, Leading zero omitted, Abs format (unit mm)*
G04 Created by KiCad (PCBNEW 7.0.0-da2b9df05c~165~ubuntu22.04.1) date 2023-05-29 12:25:48*
%MOMM*%
%LPD*%
G01*
G04 APERTURE LIST*
G04 Aperture macros list*
%AMRoundRect*
0 Rectangle with rounded corners*
0 $1 Rounding radius*
0 $2 $3 $4 $5 $6 $7 $8 $9 X,Y pos of 4 corners*
0 Add a 4 corners polygon primitive as box body*
4,1,4,$2,$3,$4,$5,$6,$7,$8,$9,$2,$3,0*
0 Add four circle primitives for the rounded corners*
1,1,$1+$1,$2,$3*
1,1,$1+$1,$4,$5*
1,1,$1+$1,$6,$7*
1,1,$1+$1,$8,$9*
0 Add four rect primitives between the rounded corners*
20,1,$1+$1,$2,$3,$4,$5,0*
20,1,$1+$1,$4,$5,$6,$7,0*
20,1,$1+$1,$6,$7,$8,$9,0*
20,1,$1+$1,$8,$9,$2,$3,0*%
%AMOutline5P*
0 Free polygon, 5 corners , with rotation*
0 The origin of the aperture is its center*
0 number of corners: always 5*
0 $1 to $10 corner X, Y*
0 $11 Rotation angle, in degrees counterclockwise*
0 create outline with 5 corners*
4,1,5,$1,$2,$3,$4,$5,$6,$7,$8,$9,$10,$1,$2,$11*%
%AMOutline6P*
0 Free polygon, 6 corners , with rotation*
0 The origin of the aperture is its center*
0 number of corners: always 6*
0 $1 to $12 corner X, Y*
0 $13 Rotation angle, in degrees counterclockwise*
0 create outline with 6 corners*
4,1,6,$1,$2,$3,$4,$5,$6,$7,$8,$9,$10,$11,$12,$1,$2,$13*%
%AMOutline7P*
0 Free polygon, 7 corners , with rotation*
0 The origin of the aperture is its center*
0 number of corners: always 7*
0 $1 to $14 corner X, Y*
0 $15 Rotation angle, in degrees counterclockwise*
0 create outline with 7 corners*
4,1,7,$1,$2,$3,$4,$5,$6,$7,$8,$9,$10,$11,$12,$13,$14,$1,$2,$15*%
%AMOutline8P*
0 Free polygon, 8 corners , with rotation*
0 The origin of the aperture is its center*
0 number of corners: always 8*
0 $1 to $16 corner X, Y*
0 $17 Rotation angle, in degrees counterclockwise*
0 create outline with 8 corners*
4,1,8,$1,$2,$3,$4,$5,$6,$7,$8,$9,$10,$11,$12,$13,$14,$15,$16,$1,$2,$17*%
%AMFreePoly0*
4,1,18,-0.437500,0.000000,-0.337500,0.100000,0.387500,0.100000,0.406634,0.096194,0.422855,0.085355,0.433694,0.069134,0.437500,0.050000,0.437500,-0.050000,0.433694,-0.069134,0.422855,-0.085355,0.406634,-0.096194,0.387500,-0.100000,-0.387500,-0.100000,-0.406634,-0.096194,-0.422855,-0.085355,-0.433694,-0.069134,-0.437500,-0.050000,-0.437500,0.000000,-0.437500,0.000000,$1*%
%AMFreePoly1*
4,1,6,1.000000,0.000000,0.500000,-0.750000,-0.500000,-0.750000,-0.500000,0.750000,0.500000,0.750000,1.000000,0.000000,1.000000,0.000000,$1*%
%AMFreePoly2*
4,1,6,0.500000,-0.750000,-0.650000,-0.750000,-0.150000,0.000000,-0.650000,0.750000,0.500000,0.750000,0.500000,-0.750000,0.500000,-0.750000,$1*%
%AMFreePoly3*
4,1,18,-0.520000,0.066000,-0.366000,0.220000,0.493600,0.220000,0.503703,0.217990,0.512268,0.212268,0.517990,0.203703,0.520000,0.193600,0.520000,-0.193600,0.517990,-0.203703,0.512268,-0.212268,0.503703,-0.217990,0.493600,-0.220000,-0.493600,-0.220000,-0.503703,-0.217990,-0.512268,-0.212268,-0.517990,-0.203703,-0.520000,-0.193600,-0.520000,0.066000,-0.520000,0.066000,$1*%
G04 Aperture macros list end*
%ADD10C,0.010000*%
%ADD11Outline5P,-0.350000X0.051000X-0.231000X0.170000X0.350000X0.170000X0.350000X-0.170000X-0.350000X-0.170000X270.000000*%
%ADD12R,0.340000X0.700000*%
%ADD13RoundRect,0.135000X0.135000X0.185000X-0.135000X0.185000X-0.135000X-0.185000X0.135000X-0.185000X0*%
%ADD14RoundRect,0.135000X0.185000X-0.135000X0.185000X0.135000X-0.185000X0.135000X-0.185000X-0.135000X0*%
%ADD15RoundRect,0.140000X-0.140000X-0.170000X0.140000X-0.170000X0.140000X0.170000X-0.140000X0.170000X0*%
%ADD16Outline5P,-0.250000X0.056250X-0.118750X0.187500X0.250000X0.187500X0.250000X-0.187500X-0.250000X-0.187500X90.000000*%
%ADD17R,0.300000X0.650000*%
%ADD18R,0.375000X0.500000*%
%ADD19RoundRect,0.140000X0.140000X0.170000X-0.140000X0.170000X-0.140000X-0.170000X0.140000X-0.170000X0*%
%ADD20FreePoly0,0.000000*%
%ADD21RoundRect,0.050000X-0.387500X-0.050000X0.387500X-0.050000X0.387500X0.050000X-0.387500X0.050000X0*%
%ADD22RoundRect,0.050000X-0.050000X-0.387500X0.050000X-0.387500X0.050000X0.387500X-0.050000X0.387500X0*%
%ADD23RoundRect,0.144000X-1.456000X-1.456000X1.456000X-1.456000X1.456000X1.456000X-1.456000X1.456000X0*%
%ADD24Outline5P,-0.350000X0.051000X-0.231000X0.170000X0.350000X0.170000X0.350000X-0.170000X-0.350000X-0.170000X90.000000*%
%ADD25RoundRect,0.135000X-0.135000X-0.185000X0.135000X-0.185000X0.135000X0.185000X-0.135000X0.185000X0*%
%ADD26RoundRect,0.075000X0.075000X0.375000X-0.075000X0.375000X-0.075000X-0.375000X0.075000X-0.375000X0*%
%ADD27RoundRect,0.140000X-0.170000X0.140000X-0.170000X-0.140000X0.170000X-0.140000X0.170000X0.140000X0*%
%ADD28FreePoly1,270.000000*%
%ADD29FreePoly2,270.000000*%
%ADD30C,1.700000*%
%ADD31O,3.000000X1.700000*%
%ADD32RoundRect,0.425000X0.425000X0.425000X-0.425000X0.425000X-0.425000X-0.425000X0.425000X-0.425000X0*%
%ADD33RoundRect,0.425000X-1.075000X-0.425000X1.075000X-0.425000X1.075000X0.425000X-1.075000X0.425000X0*%
%ADD34O,1.700000X3.000000*%
%ADD35O,1.700000X1.700000*%
%ADD36RoundRect,0.350000X0.000000X-0.494975X0.494975X0.000000X0.000000X0.494975X-0.494975X0.000000X0*%
%ADD37RoundRect,0.350000X-0.894755X-0.500000X0.894755X-0.500000X0.894755X0.500000X-0.894755X0.500000X0*%
%ADD38RoundRect,0.425000X-0.425000X-0.425000X0.425000X-0.425000X0.425000X0.425000X-0.425000X0.425000X0*%
%ADD39RoundRect,0.350000X-0.902255X-0.500000X0.902255X-0.500000X0.902255X0.500000X-0.902255X0.500000X0*%
%ADD40RoundRect,0.140000X0.170000X-0.140000X0.170000X0.140000X-0.170000X0.140000X-0.170000X-0.140000X0*%
%ADD41R,0.640000X0.590000*%
%ADD42RoundRect,0.147500X-0.172500X0.147500X-0.172500X-0.147500X0.172500X-0.147500X0.172500X0.147500X0*%
%ADD43R,0.500000X0.700000*%
%ADD44RoundRect,0.125000X-0.125000X-0.225000X0.125000X-0.225000X0.125000X0.225000X-0.125000X0.225000X0*%
%ADD45RoundRect,0.250000X-0.325000X-0.250000X0.325000X-0.250000X0.325000X0.250000X-0.325000X0.250000X0*%
%ADD46FreePoly3,0.000000*%
%ADD47RoundRect,0.026400X-0.493600X-0.193600X0.493600X-0.193600X0.493600X0.193600X-0.493600X0.193600X0*%
%ADD48R,3.400000X4.300000*%
%ADD49RoundRect,0.137500X-0.137500X0.212500X-0.137500X-0.212500X0.137500X-0.212500X0.137500X0.212500X0*%
%ADD50R,0.600000X1.150000*%
%ADD51R,0.300000X1.150000*%
%ADD52O,1.000000X1.700000*%
%ADD53O,1.000000X2.100000*%
%ADD54RoundRect,0.218750X-0.218750X-0.256250X0.218750X-0.256250X0.218750X0.256250X-0.218750X0.256250X0*%
%ADD55RoundRect,0.135000X-0.185000X0.135000X-0.185000X-0.135000X0.185000X-0.135000X0.185000X0.135000X0*%
G04 APERTURE END LIST*
D10*
G04 #@! TO.C,JP2*
X164890000Y-140600000D02*
X164640000Y-140600000D01*
X164640000Y-140600000D02*
X164640000Y-140200000D01*
X164640000Y-140200000D02*
X164890000Y-140200000D01*
X164890000Y-140200000D02*
X164890000Y-140600000D01*
G36*
X164890000Y-140600000D02*
G01*
X164640000Y-140600000D01*
X164640000Y-140200000D01*
X164890000Y-140200000D01*
X164890000Y-140600000D01*
G37*
G04 #@! TO.C,U2*
G36*
X163153143Y-144166857D02*
G01*
X162740000Y-144579999D01*
X162326857Y-144166857D01*
X162740000Y-143753714D01*
X163153143Y-144166857D01*
G37*
X163153143Y-144166857D02*
X162740000Y-144579999D01*
X162326857Y-144166857D01*
X162740000Y-143753714D01*
X163153143Y-144166857D01*
G36*
X162605000Y-143815000D02*
G01*
X162360000Y-144065000D01*
X162080000Y-144065000D01*
X162080000Y-143685000D01*
X162605000Y-143685000D01*
X162605000Y-143815000D01*
G37*
G36*
X162605000Y-144515000D02*
G01*
X162605000Y-144645000D01*
X162080000Y-144645000D01*
X162080000Y-144265000D01*
X162360000Y-144265000D01*
X162605000Y-144515000D01*
G37*
G36*
X163400000Y-144065000D02*
G01*
X163120000Y-144065000D01*
X162875000Y-143815000D01*
X162875000Y-143685000D01*
X163400000Y-143685000D01*
X163400000Y-144065000D01*
G37*
G36*
X163400000Y-144645000D02*
G01*
X162875000Y-144645000D01*
X162875000Y-144515000D01*
X163120000Y-144265000D01*
X163400000Y-144265000D01*
X163400000Y-144645000D01*
G37*
G04 #@! TD*
D11*
G04 #@! TO.C,Q1*
X162119999Y-160469999D03*
D12*
X161619999Y-160469999D03*
X161119999Y-160469999D03*
X161119999Y-161969999D03*
X161619999Y-161969999D03*
X162119999Y-161969999D03*
G04 #@! TD*
D13*
G04 #@! TO.C,R5*
X154310000Y-142025000D03*
X153290000Y-142025000D03*
G04 #@! TD*
D14*
G04 #@! TO.C,R3*
X160040000Y-162840000D03*
X160040000Y-161820000D03*
G04 #@! TD*
D15*
G04 #@! TO.C,C3*
X161510000Y-141370000D03*
X162470000Y-141370000D03*
G04 #@! TD*
D16*
G04 #@! TO.C,U1*
X158322499Y-144649999D03*
D17*
X158859999Y-144724999D03*
D18*
X159397499Y-144649999D03*
X159397499Y-142949999D03*
D17*
X158859999Y-142874999D03*
D18*
X158322499Y-142949999D03*
G04 #@! TD*
D19*
G04 #@! TO.C,C1*
X154280000Y-141150000D03*
X153320000Y-141150000D03*
G04 #@! TD*
D20*
G04 #@! TO.C,U4*
X155487499Y-153099999D03*
D21*
X155487500Y-153500000D03*
X155487500Y-153900000D03*
X155487500Y-154300000D03*
X155487500Y-154700000D03*
X155487500Y-155100000D03*
X155487500Y-155500000D03*
X155487500Y-155900000D03*
X155487500Y-156300000D03*
X155487500Y-156700000D03*
X155487500Y-157100000D03*
X155487500Y-157500000D03*
X155487500Y-157900000D03*
X155487500Y-158300000D03*
D22*
X156325000Y-159137500D03*
X156725000Y-159137500D03*
X157125000Y-159137500D03*
X157525000Y-159137500D03*
X157925000Y-159137500D03*
X158325000Y-159137500D03*
X158725000Y-159137500D03*
X159125000Y-159137500D03*
X159525000Y-159137500D03*
X159925000Y-159137500D03*
X160325000Y-159137500D03*
X160725000Y-159137500D03*
X161125000Y-159137500D03*
X161525000Y-159137500D03*
D21*
X162362500Y-158300000D03*
X162362500Y-157900000D03*
X162362500Y-157500000D03*
X162362500Y-157100000D03*
X162362500Y-156700000D03*
X162362500Y-156300000D03*
X162362500Y-155900000D03*
X162362500Y-155500000D03*
X162362500Y-155100000D03*
X162362500Y-154700000D03*
X162362500Y-154300000D03*
X162362500Y-153900000D03*
X162362500Y-153500000D03*
X162362500Y-153100000D03*
D22*
X161525000Y-152262500D03*
X161125000Y-152262500D03*
X160725000Y-152262500D03*
X160325000Y-152262500D03*
X159925000Y-152262500D03*
X159525000Y-152262500D03*
X159125000Y-152262500D03*
X158725000Y-152262500D03*
X158325000Y-152262500D03*
X157925000Y-152262500D03*
X157525000Y-152262500D03*
X157125000Y-152262500D03*
X156725000Y-152262500D03*
X156325000Y-152262500D03*
D23*
X158925000Y-155700000D03*
G04 #@! TD*
D24*
G04 #@! TO.C,Q2*
X155024999Y-143924999D03*
D12*
X155524999Y-143924999D03*
X156024999Y-143924999D03*
X156024999Y-142424999D03*
X155524999Y-142424999D03*
X155024999Y-142424999D03*
G04 #@! TD*
D25*
G04 #@! TO.C,R14*
X157410000Y-160440000D03*
X158430000Y-160440000D03*
G04 #@! TD*
D15*
G04 #@! TO.C,C12*
X163320000Y-156700000D03*
X164280000Y-156700000D03*
G04 #@! TD*
D26*
G04 #@! TO.C,JP2*
X165040000Y-140400000D03*
X164490000Y-140400000D03*
X163965000Y-140400000D03*
G04 #@! TD*
D27*
G04 #@! TO.C,C9*
X161300000Y-150430000D03*
X161300000Y-151390000D03*
G04 #@! TD*
D25*
G04 #@! TO.C,R9*
X154790000Y-144740000D03*
X155810000Y-144740000D03*
G04 #@! TD*
D28*
G04 #@! TO.C,JP1*
X153390000Y-144905000D03*
D29*
X153390000Y-146355000D03*
G04 #@! TD*
D27*
G04 #@! TO.C,C5*
X161590000Y-143690000D03*
X161590000Y-144650000D03*
G04 #@! TD*
D14*
G04 #@! TO.C,R15*
X163020000Y-149580000D03*
X163020000Y-148560000D03*
G04 #@! TD*
G04 #@! TO.C,R2*
X156750000Y-144320000D03*
X156750000Y-143300000D03*
G04 #@! TD*
D25*
G04 #@! TO.C,R17*
X163290000Y-159025000D03*
X164310000Y-159025000D03*
G04 #@! TD*
D30*
G04 #@! TO.C,J2*
X149835000Y-134160000D03*
D31*
X150534999Y-134159999D03*
D30*
X149835000Y-136700000D03*
D31*
X150534999Y-136699999D03*
D30*
X149835000Y-139240000D03*
D31*
X150534999Y-139239999D03*
D32*
X149835000Y-141780000D03*
D33*
X150535000Y-141780000D03*
D32*
X149835000Y-144320000D03*
D33*
X150535000Y-144320000D03*
D30*
X149835000Y-146860000D03*
D31*
X150534999Y-146859999D03*
D30*
X149835000Y-149400000D03*
D31*
X150534999Y-149399999D03*
D30*
X149835000Y-151940000D03*
D31*
X150534999Y-151939999D03*
D30*
X149835000Y-154480000D03*
D31*
X150534999Y-154479999D03*
D30*
X149835000Y-157020000D03*
D31*
X150534999Y-157019999D03*
D30*
X149835000Y-159560000D03*
D31*
X150534999Y-159559999D03*
D30*
X149835000Y-162100000D03*
D31*
X150534999Y-162099999D03*
D30*
X149835000Y-164640000D03*
D31*
X150534999Y-164639999D03*
D34*
X153774999Y-165339999D03*
D30*
X153775000Y-166040000D03*
D34*
X156314999Y-165339999D03*
D35*
X156314999Y-166039999D03*
D34*
X158854999Y-165339999D03*
D35*
X158854999Y-166039999D03*
D34*
X161394999Y-165339999D03*
D35*
X161394999Y-166039999D03*
D34*
X163934999Y-165339999D03*
D35*
X163934999Y-166039999D03*
D31*
X167174999Y-164639999D03*
D30*
X167875000Y-164640000D03*
D31*
X167174999Y-162099999D03*
D30*
X167875000Y-162100000D03*
D31*
X167174999Y-159559999D03*
D30*
X167875000Y-159560000D03*
D31*
X167174999Y-157019999D03*
D30*
X167875000Y-157020000D03*
D31*
X167174999Y-154479999D03*
D30*
X167875000Y-154480000D03*
D31*
X167174999Y-151939999D03*
D30*
X167875000Y-151940000D03*
D31*
X167174999Y-149399999D03*
D30*
X167875000Y-149400000D03*
D31*
X167174999Y-146859999D03*
D30*
X167875000Y-146860000D03*
D36*
X166475000Y-144320000D03*
D37*
X167429755Y-144320000D03*
D31*
X167174999Y-141779999D03*
D30*
X167875000Y-141780000D03*
D38*
X166475000Y-139240000D03*
D33*
X167175000Y-139240000D03*
D36*
X166475000Y-136700000D03*
D39*
X167422255Y-136700000D03*
D31*
X167174999Y-134159999D03*
D30*
X167875000Y-134160000D03*
X153780000Y-162100000D03*
X160125000Y-141780000D03*
X157585000Y-141780000D03*
G04 #@! TD*
D24*
G04 #@! TO.C,U5*
X154124999Y-149399999D03*
D12*
X154624999Y-149399999D03*
X155124999Y-149399999D03*
X155124999Y-147899999D03*
X154624999Y-147899999D03*
X154124999Y-147899999D03*
G04 #@! TD*
D40*
G04 #@! TO.C,C16*
X155490000Y-151390000D03*
X155490000Y-150430000D03*
G04 #@! TD*
G04 #@! TO.C,C17*
X158450000Y-151390000D03*
X158450000Y-150430000D03*
G04 #@! TD*
D14*
G04 #@! TO.C,R10*
X163910000Y-149580000D03*
X163910000Y-148560000D03*
G04 #@! TD*
D41*
G04 #@! TO.C,D2*
X163019999Y-150414999D03*
D42*
X163020000Y-151385000D03*
G04 #@! TD*
D25*
G04 #@! TO.C,R7*
X162870000Y-139430000D03*
X163890000Y-139430000D03*
G04 #@! TD*
D27*
G04 #@! TO.C,C19*
X160010000Y-160010000D03*
X160010000Y-160970000D03*
G04 #@! TD*
D13*
G04 #@! TO.C,R16*
X164310000Y-158150000D03*
X163290000Y-158150000D03*
G04 #@! TD*
D27*
G04 #@! TO.C,C8*
X155320000Y-161670000D03*
X155320000Y-162630000D03*
G04 #@! TD*
D43*
G04 #@! TO.C,D3*
X164499999Y-141389999D03*
D44*
X163700000Y-141390000D03*
G04 #@! TD*
D14*
G04 #@! TO.C,R13*
X160120000Y-144310000D03*
X160120000Y-143290000D03*
G04 #@! TD*
G04 #@! TO.C,R12*
X157600000Y-144320000D03*
X157600000Y-143300000D03*
G04 #@! TD*
D45*
G04 #@! TO.C,Y1*
X156345000Y-162850000D03*
X158095000Y-162850000D03*
X158095000Y-161450000D03*
X156345000Y-161450000D03*
G04 #@! TD*
D46*
G04 #@! TO.C,U3*
X156054999Y-145694999D03*
D47*
X156055000Y-146965000D03*
X156055000Y-148235000D03*
X156055000Y-149505000D03*
X161745000Y-149505000D03*
X161745000Y-148235000D03*
X161745000Y-146965000D03*
X161745000Y-145695000D03*
D48*
X158899999Y-147599999D03*
G04 #@! TD*
D27*
G04 #@! TO.C,C10*
X160450000Y-150430000D03*
X160450000Y-151390000D03*
G04 #@! TD*
D41*
G04 #@! TO.C,D1*
X163909999Y-150404999D03*
D42*
X163910000Y-151375000D03*
G04 #@! TD*
D15*
G04 #@! TO.C,C2*
X155095000Y-141475000D03*
X156055000Y-141475000D03*
G04 #@! TD*
D25*
G04 #@! TO.C,R1*
X161120000Y-162860000D03*
X162140000Y-162860000D03*
G04 #@! TD*
D40*
G04 #@! TO.C,C18*
X162150000Y-151390000D03*
X162150000Y-150430000D03*
G04 #@! TD*
D49*
G04 #@! TO.C,SW1*
X164315000Y-159920000D03*
X164315000Y-162620000D03*
X163165000Y-159920000D03*
X163165000Y-162620000D03*
G04 #@! TD*
D40*
G04 #@! TO.C,C7*
X159140000Y-162630000D03*
X159140000Y-161670000D03*
G04 #@! TD*
D19*
G04 #@! TO.C,C15*
X154505000Y-156425000D03*
X153545000Y-156425000D03*
G04 #@! TD*
D50*
G04 #@! TO.C,J1*
X162054999Y-139429999D03*
X161254999Y-139429999D03*
D51*
X160104999Y-139429999D03*
X159104999Y-139429999D03*
X158604999Y-139429999D03*
X157604999Y-139429999D03*
D50*
X156454999Y-139429999D03*
X155654999Y-139429999D03*
X155654999Y-139429999D03*
X156454999Y-139429999D03*
D51*
X157104999Y-139429999D03*
X158104999Y-139429999D03*
X159604999Y-139429999D03*
X160604999Y-139429999D03*
D50*
X161254999Y-139429999D03*
X162054999Y-139429999D03*
D52*
X164429999Y-138129999D03*
X153279999Y-138129999D03*
D53*
X153279999Y-134129999D03*
X164429999Y-134129999D03*
G04 #@! TD*
D27*
G04 #@! TO.C,C11*
X159170000Y-160010000D03*
X159170000Y-160970000D03*
G04 #@! TD*
D15*
G04 #@! TO.C,C13*
X163310000Y-153100000D03*
X164270000Y-153100000D03*
G04 #@! TD*
D54*
G04 #@! TO.C,F1*
X162122500Y-142310000D03*
X163697500Y-142310000D03*
G04 #@! TD*
D14*
G04 #@! TO.C,R11*
X154800000Y-146710000D03*
X154800000Y-145690000D03*
G04 #@! TD*
D15*
G04 #@! TO.C,C6*
X162990000Y-145690000D03*
X163950000Y-145690000D03*
G04 #@! TD*
D13*
G04 #@! TO.C,R8*
X154830000Y-139430000D03*
X153810000Y-139430000D03*
G04 #@! TD*
D55*
G04 #@! TO.C,R6*
X153275000Y-142865000D03*
X153275000Y-143885000D03*
G04 #@! TD*
D27*
G04 #@! TO.C,C4*
X163890000Y-143690000D03*
X163890000Y-144650000D03*
G04 #@! TD*
D14*
G04 #@! TO.C,R4*
X154300000Y-143885000D03*
X154300000Y-142865000D03*
G04 #@! TD*
D40*
G04 #@! TO.C,C14*
X159300000Y-151390000D03*
X159300000Y-150430000D03*
G04 #@! TD*
D14*
G04 #@! TO.C,FB1*
X164420000Y-136740000D03*
X164420000Y-135720000D03*
G04 #@! TD*
M02*
