%TF.GenerationSoftware,KiCad,Pcbnew,(6.0.7)*%
%TF.CreationDate,2022-09-17T18:54:00+02:00*%
%TF.ProjectId,panel,70616e65-6c2e-46b6-9963-61645f706362,rev1.0*%
%TF.SameCoordinates,Original*%
%TF.FileFunction,Profile,NP*%
%FSLAX46Y46*%
G04 Gerber Fmt 4.6, Leading zero omitted, Abs format (unit mm)*
G04 Created by KiCad (PCBNEW (6.0.7)) date 2022-09-17 18:54:00*
%MOMM*%
%LPD*%
G01*
G04 APERTURE LIST*
%TA.AperFunction,Profile*%
%ADD10C,0.100000*%
%TD*%
G04 APERTURE END LIST*
D10*
X58719579Y-53366333D02*
X58752221Y-53421784D01*
X94575510Y-53792369D02*
X94627374Y-53754285D01*
X22014350Y-92014003D02*
X22077686Y-92025354D01*
X38677076Y-59789167D02*
X38650212Y-59730699D01*
X40433666Y-91880420D02*
X40490699Y-91910211D01*
X96312221Y-59618215D02*
X96279579Y-59673666D01*
X119607106Y-97747106D02*
X119673010Y-97674393D01*
X89185000Y-59020000D02*
X89185000Y-58020000D01*
X38010831Y-53917076D02*
X38069300Y-53890211D01*
X38181784Y-91847778D02*
X38235510Y-91812369D01*
X93850000Y-21000000D02*
X93315000Y-21000000D01*
X21492625Y-53754285D02*
X21544489Y-53792369D01*
X94466333Y-53860420D02*
X94521784Y-53827778D01*
X94168328Y-59060541D02*
X94105649Y-59045996D01*
X113740420Y-91386333D02*
X113770212Y-91329300D01*
X76147778Y-21598215D02*
X76112369Y-21544489D01*
X39838243Y-91150191D02*
X39859054Y-91211077D01*
X21159579Y-21653666D02*
X21129787Y-21710699D01*
X59449808Y-53961757D02*
X59511671Y-53979458D01*
X37510000Y-54020000D02*
X37574324Y-54018369D01*
X113010191Y-53961756D02*
X113071077Y-53940945D01*
X113634285Y-91547374D02*
X113672369Y-91495510D01*
X56906333Y-21159579D02*
X56849300Y-21129788D01*
X77346515Y-60161516D02*
X77341630Y-60225675D01*
X57501757Y-91150191D02*
X57519458Y-91088328D01*
X39859054Y-53191077D02*
X39882923Y-53250832D01*
X36975000Y-21000000D02*
X36975000Y-20000000D01*
X76260945Y-21828922D02*
X76237076Y-21769168D01*
X21129788Y-59730699D02*
X21102923Y-59789168D01*
X75325649Y-92014003D02*
X75388328Y-91999458D01*
X58618243Y-59909808D02*
X58600542Y-59971671D01*
X56961784Y-53827778D02*
X57015510Y-53792369D01*
X113898369Y-22205675D02*
X113893484Y-22141516D01*
X76260945Y-59848922D02*
X76237076Y-59789167D01*
X78481516Y-21006515D02*
X78417686Y-21014645D01*
X113841756Y-53130191D02*
X113859457Y-53068328D01*
X77340000Y-22270000D02*
X77340000Y-52750000D01*
X78109168Y-59122923D02*
X78050699Y-59149788D01*
X25270000Y-21000000D02*
X24765000Y-21000000D01*
X56906333Y-91880420D02*
X56961784Y-91847778D01*
X51715000Y-55020000D02*
X51715000Y-54019999D01*
X76325354Y-90962313D02*
X76333484Y-90898483D01*
X59388922Y-91960945D02*
X59449808Y-91981756D01*
X38069300Y-59149787D02*
X38010832Y-59122923D01*
X37510000Y-21000000D02*
X36975000Y-21000000D01*
X38069300Y-91910212D02*
X38126333Y-91880420D01*
X93914324Y-59021629D02*
X93850000Y-59020000D01*
X119095090Y-98020785D02*
X119190284Y-97996940D01*
X75741784Y-53827778D02*
X75795510Y-53792369D01*
X58561629Y-52814324D02*
X58566515Y-52878483D01*
X57430211Y-53309300D02*
X57457076Y-53250831D01*
X113071077Y-53940945D02*
X113130831Y-53917076D01*
X40921516Y-21006515D02*
X40857686Y-21014645D01*
X75134324Y-59021629D02*
X75070000Y-59020000D01*
X59574350Y-21025996D02*
X59511671Y-21040541D01*
X113407374Y-53754285D02*
X113457243Y-53713622D01*
X96830699Y-91910211D02*
X96889168Y-91937076D01*
X96830699Y-59149788D02*
X96773666Y-59179579D01*
X79105000Y-20000000D02*
X79105000Y-21000000D01*
X77354645Y-22077686D02*
X77346515Y-22141516D01*
X34510000Y-26660000D02*
X25270000Y-26660000D01*
X76237076Y-59789167D02*
X76210212Y-59730699D01*
X77398243Y-59909808D02*
X77380542Y-59971671D01*
X113707778Y-59618215D02*
X113672369Y-59564489D01*
X24765000Y-21000000D02*
X24765000Y-20000000D01*
X77341629Y-52814324D02*
X77346515Y-52878483D01*
X76112369Y-21544489D02*
X76074285Y-21492625D01*
X78291671Y-21040541D02*
X78229808Y-21058242D01*
X81145000Y-92040000D02*
X81610000Y-92040000D01*
X94990212Y-59730699D02*
X94960420Y-59673666D01*
X95079458Y-59971671D02*
X95061757Y-59909808D01*
X38620420Y-21653666D02*
X38587778Y-21598215D01*
X76333484Y-22141516D02*
X76325354Y-22077686D01*
X94990212Y-91329300D02*
X95017076Y-91270832D01*
X40731671Y-53979458D02*
X40794350Y-53994003D01*
X59701516Y-21006515D02*
X59637686Y-21014645D01*
X38721756Y-53130191D02*
X38739457Y-53068328D01*
X78168922Y-21079054D02*
X78109167Y-21102923D01*
X38650211Y-21710699D02*
X38620420Y-21653666D01*
X93978483Y-59026515D02*
X93914324Y-59021629D01*
X93850000Y-92040000D02*
X93914324Y-92038370D01*
X57480945Y-59848922D02*
X57457076Y-59789167D01*
X39780000Y-60290000D02*
X39780000Y-90770000D01*
X51625000Y-58020000D02*
X64405000Y-58020000D01*
X78417686Y-59034645D02*
X78354350Y-59045996D01*
X94892369Y-91495510D02*
X94927778Y-91441784D01*
X77442923Y-53250832D02*
X77469787Y-53309300D01*
X113504987Y-53670486D02*
X113550486Y-53624987D01*
X113550487Y-91644988D02*
X113593623Y-91597243D01*
X58825714Y-53527374D02*
X58866376Y-53577243D01*
X38287374Y-91774285D02*
X38337243Y-91733623D01*
X94724988Y-91690487D02*
X94770487Y-91644988D01*
X76325354Y-22077686D02*
X76314003Y-22014350D01*
X72070000Y-26660000D02*
X62830000Y-26660000D01*
X57560000Y-60290000D02*
X57558370Y-60225675D01*
X59104489Y-91812369D02*
X59158215Y-91847778D01*
X77419054Y-91211077D02*
X77442923Y-91270831D01*
X58909513Y-59415012D02*
X58866377Y-59462756D01*
X59511671Y-91999457D02*
X59574350Y-92014003D01*
X89275000Y-55020000D02*
X89275000Y-54019999D01*
X21492625Y-59285714D02*
X21442756Y-59326377D01*
X75990487Y-59415011D02*
X75944988Y-59369512D01*
X21014645Y-22077686D02*
X21006515Y-22141516D01*
X40921516Y-59026515D02*
X40857686Y-59034645D01*
X96134645Y-60097686D02*
X96126515Y-60161516D01*
X97009808Y-53961757D02*
X97071671Y-53979458D01*
X38765354Y-90962313D02*
X38773484Y-90898483D01*
X38779999Y-90770000D02*
X38780000Y-60290000D01*
X21079054Y-53191077D02*
X21102923Y-53250832D01*
X21227630Y-91495510D02*
X21265714Y-91547374D01*
X96562756Y-53713623D02*
X96612625Y-53754285D01*
X77782756Y-59326377D02*
X77735012Y-59369513D01*
X96664489Y-21227630D02*
X96612625Y-21265714D01*
X97390000Y-59020000D02*
X97325675Y-59021630D01*
X57545354Y-90962313D02*
X57553484Y-90898483D01*
X113130831Y-21102923D02*
X113071077Y-21079054D01*
X77735012Y-59369513D02*
X77689513Y-59415012D01*
X95118369Y-52814324D02*
X95120000Y-52750000D01*
X75795510Y-91812369D02*
X75847374Y-91774285D01*
X112822313Y-59034645D02*
X112758483Y-59026515D01*
X75897243Y-59326376D02*
X75847374Y-59285714D01*
X77380541Y-21951671D02*
X77365996Y-22014350D01*
X94521784Y-91847778D02*
X94575510Y-91812369D01*
X57457076Y-91270832D02*
X57480945Y-91211077D01*
X94960420Y-21653666D02*
X94927778Y-21598215D01*
X77442923Y-59789168D02*
X77419054Y-59848922D01*
X113820945Y-91211077D02*
X113841757Y-91150191D01*
X75198483Y-92033484D02*
X75262313Y-92025354D01*
X56906333Y-53860420D02*
X56961784Y-53827778D01*
X97071671Y-91999457D02*
X97134350Y-92014003D01*
X56482313Y-54005354D02*
X56545649Y-53994003D01*
X59270699Y-59149788D02*
X59213666Y-59179579D01*
X113899999Y-90770000D02*
X113900000Y-60290000D01*
X113874003Y-53005649D02*
X113885354Y-52942313D01*
X94105649Y-59045996D02*
X94042313Y-59034645D01*
X38587778Y-91441784D02*
X38620420Y-91386333D01*
X94230191Y-21058243D02*
X94168328Y-21040542D01*
X95094003Y-60034350D02*
X95079458Y-59971671D01*
X34975000Y-21000000D02*
X34510000Y-21000000D01*
X77884489Y-59247630D02*
X77832625Y-59285714D01*
X22270000Y-21000000D02*
X22205675Y-21001629D01*
X59052625Y-21265714D02*
X59002756Y-21306376D01*
X96249788Y-59730699D02*
X96222923Y-59789168D01*
X40985675Y-92038369D02*
X41050000Y-92040000D01*
X78109168Y-91937076D02*
X78168922Y-91960945D01*
X21079054Y-91211077D02*
X21102923Y-91270831D01*
X45715000Y-54019999D02*
X45715000Y-55020000D01*
X58662923Y-59789168D02*
X58639054Y-59848922D01*
X119731469Y-15444429D02*
X119673010Y-15365606D01*
X37702313Y-59034645D02*
X37638483Y-59026515D01*
X25270000Y-26660000D02*
X25270000Y-21000000D01*
X113189300Y-59149787D02*
X113130832Y-59122923D01*
X78291671Y-91999457D02*
X78354350Y-92014003D01*
X40608922Y-91960945D02*
X40669808Y-91981756D01*
X94042313Y-21014645D02*
X93978483Y-21006515D01*
X38650212Y-59730699D02*
X38620420Y-59673666D01*
X77469787Y-21710699D02*
X77442923Y-21769167D01*
X57560000Y-22270000D02*
X57558369Y-22205675D01*
X77340000Y-90770000D02*
X77341630Y-90834324D01*
X96120000Y-52750000D02*
X96121629Y-52814324D01*
X21951671Y-91999457D02*
X22014350Y-92014003D01*
X94291077Y-53940945D02*
X94350831Y-53917076D01*
X119781921Y-97511396D02*
X119823879Y-97422683D01*
X39972221Y-21598215D02*
X39939579Y-21653666D01*
X38754003Y-22014350D02*
X38739457Y-21951671D01*
X40549167Y-53917076D02*
X40608922Y-53940945D01*
X90850000Y-21000000D02*
X90850000Y-26660000D01*
X77567630Y-91495510D02*
X77605714Y-91547374D01*
X77567630Y-53475510D02*
X77605714Y-53527374D01*
X96773666Y-53860420D02*
X96830699Y-53890212D01*
X76260945Y-91211077D02*
X76281757Y-91150191D01*
X96120000Y-60290000D02*
X96120000Y-90770000D01*
X39786515Y-52878483D02*
X39794645Y-52942313D01*
X118998017Y-15004815D02*
X118900000Y-15000000D01*
X94770487Y-91644988D02*
X94813623Y-91597243D01*
X57560000Y-52750000D02*
X57560000Y-22270000D01*
X96718215Y-21192221D02*
X96664489Y-21227630D01*
X56418483Y-21006515D02*
X56354324Y-21001630D01*
X38337243Y-53713622D02*
X38384987Y-53670486D01*
X40045714Y-91547374D02*
X40086377Y-91597243D01*
X112758483Y-21006515D02*
X112694324Y-21001630D01*
X59701516Y-92033484D02*
X59765675Y-92038369D01*
X39972221Y-91441784D02*
X40007630Y-91495510D01*
X38473622Y-21442756D02*
X38430486Y-21395012D01*
X21544489Y-59247630D02*
X21492625Y-59285714D01*
X38287374Y-21265714D02*
X38235510Y-21227630D01*
X94466333Y-91880420D02*
X94521784Y-91847778D01*
X37828328Y-21040542D02*
X37765649Y-21025996D01*
X21265714Y-21492625D02*
X21227630Y-21544489D01*
X76033623Y-91597243D02*
X76074285Y-91547374D01*
X60365000Y-93040000D02*
X55795000Y-93040000D01*
X43545000Y-20000000D02*
X53755000Y-20000000D01*
X112948328Y-53979457D02*
X113010191Y-53961756D01*
X75511077Y-21079054D02*
X75450191Y-21058243D01*
X96121630Y-60225675D02*
X96120000Y-60290000D01*
X113770211Y-53309300D02*
X113797076Y-53250831D01*
X58561629Y-22205675D02*
X58560000Y-22270000D01*
X53290000Y-26660000D02*
X44050000Y-26660000D01*
X40222756Y-21306376D02*
X40175011Y-21349512D01*
X77499579Y-59673666D02*
X77469788Y-59730699D01*
X94770486Y-21395012D02*
X94724987Y-21349513D01*
X38181784Y-59212221D02*
X38126333Y-59179579D01*
X58909513Y-91644987D02*
X58955012Y-91690486D01*
X77442923Y-91270831D02*
X77469788Y-91329300D01*
X58752221Y-21598215D02*
X58719579Y-21653666D01*
X114900000Y-58020000D02*
X114900000Y-93040000D01*
X113841757Y-91150191D02*
X113859458Y-91088328D01*
X24805000Y-93040000D02*
X24805000Y-92040000D01*
X21544489Y-53792369D02*
X21598215Y-53827778D01*
X38677076Y-21769168D02*
X38650211Y-21710699D01*
X100390000Y-86380000D02*
X109630000Y-86380000D01*
X39780000Y-22270000D02*
X39780000Y-52750000D01*
X96426377Y-91597243D02*
X96469513Y-91644987D01*
X77567630Y-59564489D02*
X77532221Y-59618215D01*
X112885649Y-59045996D02*
X112822313Y-59034645D01*
X58585996Y-53005649D02*
X58600541Y-53068328D01*
X38384988Y-59369512D02*
X38337243Y-59326376D01*
X21598215Y-91847778D02*
X21653666Y-91880420D01*
X112630000Y-21000000D02*
X112095000Y-21000000D01*
X40669808Y-21058242D02*
X40608922Y-21079054D01*
X113130832Y-91937076D02*
X113189300Y-91910212D01*
X37638483Y-21006515D02*
X37574324Y-21001630D01*
X15528603Y-97921921D02*
X15617316Y-97963879D01*
X43545000Y-21000000D02*
X43545000Y-20000000D01*
X58955011Y-21349512D02*
X58909512Y-21395011D01*
X77605714Y-53527374D02*
X77646376Y-53577243D01*
X76147778Y-53421784D02*
X76180420Y-53366333D01*
X37890191Y-53961756D02*
X37951077Y-53940945D01*
X38514285Y-59512625D02*
X38473623Y-59462756D01*
X113246333Y-59179579D02*
X113189300Y-59149787D01*
X56790832Y-91937076D02*
X56849300Y-91910212D01*
X56545649Y-21025996D02*
X56482313Y-21014645D01*
X21006515Y-52878483D02*
X21014645Y-52942313D01*
X15709715Y-97996940D02*
X15804909Y-98020785D01*
X75511077Y-59099054D02*
X75450191Y-59078242D01*
X59213666Y-91880420D02*
X59270699Y-91910211D01*
X37574324Y-21001630D02*
X37510000Y-21000000D01*
X96121630Y-90834324D02*
X96126515Y-90898483D01*
X113010191Y-59078242D02*
X112948328Y-59060541D01*
X41545000Y-20000000D02*
X41545000Y-21000000D01*
X75686333Y-53860420D02*
X75741784Y-53827778D01*
X21598215Y-59212221D02*
X21544489Y-59247630D01*
X44050000Y-92040000D02*
X44050000Y-86380000D01*
X22077686Y-59034645D02*
X22014350Y-59045996D01*
X78050699Y-91910211D02*
X78109168Y-91937076D01*
X96515011Y-53670487D02*
X96562756Y-53713623D01*
X38700945Y-21828922D02*
X38677076Y-21769168D01*
X58719579Y-21653666D02*
X58689787Y-21710699D01*
X76180420Y-21653666D02*
X76147778Y-21598215D01*
X15000000Y-97040000D02*
X15004815Y-97138017D01*
X96160541Y-53068328D02*
X96178242Y-53130191D01*
X39794645Y-52942313D02*
X39805996Y-53005649D01*
X95040945Y-53191077D02*
X95061756Y-53130191D01*
X56731077Y-91960945D02*
X56790832Y-91937076D01*
X57430211Y-21710699D02*
X57400420Y-21653666D01*
X37702313Y-92025354D02*
X37765649Y-92014003D01*
X113634285Y-53527374D02*
X113672369Y-53475510D01*
X15076120Y-15617316D02*
X15043059Y-15709715D01*
X97134350Y-21025996D02*
X97071671Y-21040541D01*
X59765675Y-21001629D02*
X59701516Y-21006515D01*
X75629300Y-21129788D02*
X75570831Y-21102923D01*
X79105000Y-21000000D02*
X78610000Y-21000000D01*
X40490699Y-53890212D02*
X40549167Y-53917076D01*
X59388922Y-53940945D02*
X59449808Y-53961757D01*
X21129787Y-21710699D02*
X21102923Y-21769167D01*
X38620420Y-59673666D02*
X38587778Y-59618215D01*
X78229808Y-91981756D02*
X78291671Y-91999457D01*
X77419054Y-21828922D02*
X77398242Y-21889808D01*
X38337243Y-59326376D02*
X38287374Y-59285714D01*
X78417686Y-54005354D02*
X78481516Y-54013484D01*
X97390000Y-54019999D02*
X102055000Y-54019999D01*
X59830000Y-59020000D02*
X59765675Y-59021630D01*
X41050000Y-59020000D02*
X40985675Y-59021630D01*
X58566515Y-90898483D02*
X58574645Y-90962313D01*
X101965000Y-59020000D02*
X97390000Y-59020000D01*
X113740420Y-53366333D02*
X113770211Y-53309300D01*
X96889168Y-91937076D02*
X96948922Y-91960945D01*
X113010191Y-21058243D02*
X112948328Y-21040542D01*
X112758483Y-92033484D02*
X112822313Y-92025354D01*
X75686333Y-59179579D02*
X75629300Y-59149787D01*
X76340000Y-22270000D02*
X76338369Y-22205675D01*
X21492625Y-21265714D02*
X21442756Y-21306376D01*
X94350831Y-53917076D02*
X94409300Y-53890211D01*
X97134350Y-59045996D02*
X97071671Y-59060542D01*
X37702313Y-21014645D02*
X37638483Y-21006515D01*
X21025996Y-53005649D02*
X21040541Y-53068328D01*
X78050699Y-53890212D02*
X78109167Y-53917076D01*
X59329168Y-91937076D02*
X59388922Y-91960945D01*
X96889167Y-21102923D02*
X96830699Y-21129787D01*
X96426377Y-59462756D02*
X96385714Y-59512625D01*
X110095000Y-20000000D02*
X110095000Y-21000000D01*
X119900000Y-16000000D02*
X119895184Y-15901982D01*
X96249787Y-53309300D02*
X96279579Y-53366333D01*
X76333484Y-60161516D02*
X76325354Y-60097686D01*
X97925000Y-93040000D02*
X93355000Y-93040000D01*
X96948922Y-53940945D02*
X97009808Y-53961757D01*
X77646377Y-59462756D02*
X77605714Y-59512625D01*
X94230191Y-91981757D02*
X94291077Y-91960945D01*
X113593622Y-53577243D02*
X113634285Y-53527374D01*
X53290000Y-92040000D02*
X53795000Y-92040000D01*
X58866377Y-91597243D02*
X58909513Y-91644987D01*
X59158215Y-59212221D02*
X59104489Y-59247630D01*
X96199054Y-21828922D02*
X96178242Y-21889808D01*
X40175011Y-21349512D02*
X40129512Y-21395011D01*
X95105354Y-52942313D02*
X95113484Y-52878483D01*
X77605714Y-21492625D02*
X77567630Y-21544489D01*
X15365606Y-97813010D02*
X15444429Y-97871469D01*
X97071671Y-59060542D02*
X97009808Y-59078243D01*
X58689787Y-53309300D02*
X58719579Y-53366333D01*
X95040945Y-59848922D02*
X95017076Y-59789167D01*
X76325354Y-60097686D02*
X76314003Y-60034350D01*
X95079458Y-91088328D02*
X95094003Y-91025649D01*
X21014645Y-60097686D02*
X21006515Y-60161516D01*
X58689788Y-91329300D02*
X58719579Y-91386333D01*
X24805000Y-92040000D02*
X25270000Y-92040000D01*
X38552369Y-53475510D02*
X38587778Y-53421784D01*
X89185000Y-58020000D02*
X101965000Y-58020000D01*
X93914324Y-54018369D02*
X93978483Y-54013484D01*
X77689513Y-91644987D02*
X77735012Y-91690486D01*
X21492625Y-91774285D02*
X21544489Y-91812369D01*
X119823879Y-15617316D02*
X119781921Y-15528603D01*
X56670191Y-91981757D02*
X56731077Y-91960945D01*
X78291671Y-53979458D02*
X78354350Y-53994003D01*
X113071077Y-59099054D02*
X113010191Y-59078242D01*
X96312221Y-91441784D02*
X96347630Y-91495510D01*
X15617316Y-15076120D02*
X15528603Y-15118078D01*
X21265714Y-91547374D02*
X21306377Y-91597243D01*
X96515012Y-91690486D02*
X96562756Y-91733622D01*
X37574324Y-92038370D02*
X37638483Y-92033484D01*
X37574324Y-54018369D02*
X37638483Y-54013484D01*
X76299458Y-91088328D02*
X76314003Y-91025649D01*
X58825714Y-91547374D02*
X58866377Y-91597243D01*
X22805000Y-93040000D02*
X20000000Y-93040000D01*
X97009808Y-59078243D02*
X96948922Y-59099054D01*
X113593623Y-59462756D02*
X113550487Y-59415011D01*
X77646376Y-21442756D02*
X77605714Y-21492625D01*
X113885354Y-90962313D02*
X113893484Y-90898483D01*
X38765354Y-22077686D02*
X38754003Y-22014350D01*
X44050000Y-26660000D02*
X44050000Y-21000000D01*
X95079457Y-53068328D02*
X95094003Y-53005649D01*
X78229808Y-21058242D02*
X78168922Y-21079054D01*
X21040542Y-91088328D02*
X21058243Y-91150191D01*
X21951671Y-21040541D02*
X21889808Y-21058242D01*
X96773666Y-21159579D02*
X96718215Y-21192221D01*
X22141516Y-92033484D02*
X22205675Y-92038369D01*
X37638483Y-54013484D02*
X37702313Y-54005354D01*
X21395012Y-91690486D02*
X21442756Y-91733622D01*
X53755000Y-20000000D02*
X53755000Y-21000000D01*
X94627374Y-53754285D02*
X94677243Y-53713622D01*
X21710699Y-21129787D02*
X21653666Y-21159579D01*
X15617316Y-97963879D02*
X15709715Y-97996940D01*
X119190284Y-15043059D02*
X119095090Y-15019214D01*
X94892369Y-21544489D02*
X94854285Y-21492625D01*
X77346515Y-52878483D02*
X77354645Y-52942313D01*
X38773484Y-90898483D02*
X38778370Y-90834324D01*
X113740420Y-59673666D02*
X113707778Y-59618215D01*
X57553484Y-60161516D02*
X57545354Y-60097686D01*
X38069300Y-21129788D02*
X38010831Y-21102923D01*
X119282683Y-97963879D02*
X119371396Y-97921921D01*
X38620420Y-91386333D02*
X38650212Y-91329300D01*
X96160541Y-21951671D02*
X96145996Y-22014350D01*
X96515012Y-59369513D02*
X96469513Y-59415012D01*
X38181784Y-53827778D02*
X38235510Y-53792369D01*
X95017076Y-21769168D02*
X94990211Y-21710699D01*
X96121629Y-52814324D02*
X96126515Y-52878483D01*
X37765649Y-53994003D02*
X37828328Y-53979457D01*
X59388922Y-59099054D02*
X59329168Y-59122923D01*
X57545354Y-52942313D02*
X57553484Y-52878483D01*
X96222923Y-59789168D02*
X96199054Y-59848922D01*
X76033623Y-59462756D02*
X75990487Y-59415011D01*
X58955012Y-59369513D02*
X58909513Y-59415012D01*
X75388328Y-21040542D02*
X75325649Y-21025996D01*
X21192221Y-91441784D02*
X21227630Y-91495510D01*
X38384987Y-53670486D02*
X38430486Y-53624987D01*
X56418483Y-59026515D02*
X56354324Y-59021629D01*
X39838242Y-21889808D02*
X39820541Y-21951671D01*
X57332369Y-91495510D02*
X57367778Y-91441784D01*
X21014645Y-90962313D02*
X21025996Y-91025649D01*
X96830699Y-21129787D02*
X96773666Y-21159579D01*
X76339999Y-90770000D02*
X76340000Y-60290000D01*
X21058243Y-91150191D02*
X21079054Y-91211077D01*
X38552369Y-91495510D02*
X38587778Y-91441784D01*
X22765000Y-21000000D02*
X22270000Y-21000000D01*
X110135000Y-92040000D02*
X110135000Y-93040000D01*
X38721757Y-91150191D02*
X38739458Y-91088328D01*
X15999999Y-98040000D02*
X118900000Y-98040000D01*
X93315000Y-20000000D02*
X97885000Y-20000000D01*
X113672369Y-59564489D02*
X113634285Y-59512625D01*
X113874003Y-91025649D02*
X113885354Y-90962313D01*
X113874003Y-60034350D02*
X113859458Y-59971671D01*
X38514285Y-53527374D02*
X38552369Y-53475510D01*
X75629300Y-91910212D02*
X75686333Y-91880420D01*
X15444429Y-15168530D02*
X15365606Y-15226989D01*
X57430212Y-59730699D02*
X57400420Y-59673666D01*
X40549168Y-91937076D02*
X40608922Y-91960945D01*
X77341630Y-60225675D02*
X77340000Y-60290000D01*
X83185000Y-59020000D02*
X78610000Y-59020000D01*
X21653666Y-91880420D02*
X21710699Y-91910211D01*
X112822313Y-21014645D02*
X112758483Y-21006515D01*
X94168328Y-53979457D02*
X94230191Y-53961756D01*
X58787630Y-53475510D02*
X58825714Y-53527374D01*
X38430486Y-21395012D02*
X38384987Y-21349513D01*
X95113484Y-60161516D02*
X95105354Y-60097686D01*
X78417686Y-21014645D02*
X78354350Y-21025996D01*
X77832625Y-59285714D02*
X77782756Y-59326377D01*
X21227630Y-21544489D02*
X21192221Y-21598215D01*
X21442756Y-59326377D02*
X21395012Y-59369513D01*
X40272625Y-53754285D02*
X40324489Y-53792369D01*
X77689512Y-53624988D02*
X77735011Y-53670487D01*
X15019214Y-97235090D02*
X15043059Y-97330284D01*
X15043059Y-15709715D02*
X15019214Y-15804909D01*
X57253623Y-91597243D02*
X57294285Y-91547374D01*
X78050699Y-21129787D02*
X77993666Y-21159579D01*
X56670191Y-21058243D02*
X56608328Y-21040542D01*
X57332369Y-59564489D02*
X57294285Y-59512625D01*
X96249788Y-91329300D02*
X96279579Y-91386333D01*
X113130832Y-59122923D02*
X113071077Y-59099054D01*
X95061757Y-91150191D02*
X95079458Y-91088328D01*
X77398243Y-91150191D02*
X77419054Y-91211077D01*
X15804909Y-98020785D02*
X15901982Y-98035184D01*
X39909787Y-21710699D02*
X39882923Y-21769167D01*
X72575000Y-93040000D02*
X62365000Y-93040000D01*
X77499579Y-21653666D02*
X77469787Y-21710699D01*
X75262313Y-92025354D02*
X75325649Y-92014003D01*
X119673010Y-15365606D02*
X119607106Y-15292893D01*
X76314003Y-60034350D02*
X76299458Y-59971671D01*
X96830699Y-53890212D02*
X96889167Y-53917076D01*
X59701516Y-59026515D02*
X59637686Y-59034645D01*
X77884489Y-91812369D02*
X77938215Y-91847778D01*
X108055000Y-54019999D02*
X112630000Y-54020000D01*
X57519457Y-53068328D02*
X57534003Y-53005649D01*
X77832625Y-21265714D02*
X77782756Y-21306376D01*
X57164988Y-59369512D02*
X57117243Y-59326376D01*
X40045714Y-53527374D02*
X40086376Y-53577243D01*
X56670191Y-59078242D02*
X56608328Y-59060541D01*
X58561630Y-60225675D02*
X58560000Y-60290000D01*
X56354324Y-59021629D02*
X56290000Y-59020000D01*
X56670191Y-53961756D02*
X56731077Y-53940945D01*
X113672369Y-53475510D02*
X113707778Y-53421784D01*
X39820542Y-91088328D02*
X39838243Y-91150191D01*
X39780000Y-90770000D02*
X39781630Y-90834324D01*
X21129787Y-53309300D02*
X21159579Y-53366333D01*
X22141516Y-21006515D02*
X22077686Y-21014645D01*
X57559999Y-90770000D02*
X57560000Y-60290000D01*
X15901982Y-15004815D02*
X15804909Y-15019214D01*
X96718215Y-53827778D02*
X96773666Y-53860420D01*
X77380542Y-91088328D02*
X77398243Y-91150191D01*
X34510000Y-92040000D02*
X35015000Y-92040000D01*
X76340000Y-60290000D02*
X76338370Y-60225675D01*
X40794350Y-53994003D02*
X40857686Y-54005354D01*
X21227630Y-53475510D02*
X21265714Y-53527374D01*
X34510000Y-21000000D02*
X34510000Y-26660000D01*
X58618242Y-53130191D02*
X58639054Y-53191077D01*
X97390000Y-21000000D02*
X97325675Y-21001629D01*
X119371396Y-97921921D02*
X119455570Y-97871469D01*
X95017076Y-91270832D02*
X95040945Y-91211077D01*
X113672369Y-21544489D02*
X113634285Y-21492625D01*
X59052625Y-59285714D02*
X59002756Y-59326377D01*
X94990211Y-21710699D02*
X94960420Y-21653666D01*
X76299458Y-59971671D02*
X76281757Y-59909808D01*
X21025996Y-91025649D02*
X21040542Y-91088328D01*
X39805996Y-22014350D02*
X39794645Y-22077686D01*
X21769168Y-59122923D02*
X21710699Y-59149788D01*
X96385714Y-59512625D02*
X96347630Y-59564489D01*
X39882923Y-53250832D02*
X39909787Y-53309300D01*
X113740420Y-21653666D02*
X113707778Y-21598215D01*
X113820945Y-21828922D02*
X113797076Y-21769168D01*
X78610000Y-21000000D02*
X78545675Y-21001629D01*
X77532221Y-53421784D02*
X77567630Y-53475510D01*
X77605714Y-91547374D02*
X77646377Y-91597243D01*
X38778370Y-90834324D02*
X38779999Y-90770000D01*
X58689788Y-59730699D02*
X58662923Y-59789168D01*
X94677243Y-91733623D02*
X94724988Y-91690487D01*
X38587778Y-21598215D02*
X38552369Y-21544489D01*
X40794350Y-59045996D02*
X40731671Y-59060542D01*
X39838242Y-53130191D02*
X39859054Y-53191077D01*
X21006515Y-60161516D02*
X21001630Y-60225675D01*
X38430486Y-53624987D02*
X38473622Y-53577243D01*
X38430487Y-59415011D02*
X38384988Y-59369512D01*
X38765354Y-52942313D02*
X38773484Y-52878483D01*
X37765649Y-59045996D02*
X37702313Y-59034645D01*
X112135000Y-92040000D02*
X112630000Y-92040000D01*
X56731077Y-53940945D02*
X56790831Y-53917076D01*
X15118078Y-15528603D02*
X15076120Y-15617316D01*
X21395012Y-59369513D02*
X21349513Y-59415012D01*
X59449808Y-91981756D02*
X59511671Y-91999457D01*
X38700945Y-53191077D02*
X38721756Y-53130191D01*
X93850000Y-54020000D02*
X93914324Y-54018369D01*
X100390000Y-26660000D02*
X100390000Y-21000000D01*
X21951671Y-59060542D02*
X21889808Y-59078243D01*
X77354645Y-52942313D02*
X77365996Y-53005649D01*
X22205675Y-92038369D02*
X22270000Y-92040000D01*
X22014350Y-59045996D02*
X21951671Y-59060542D01*
X22805000Y-92040000D02*
X22805000Y-93040000D01*
X57253622Y-53577243D02*
X57294285Y-53527374D01*
X107965000Y-58020000D02*
X114900000Y-58020000D01*
X94677243Y-59326376D02*
X94627374Y-59285714D01*
X56790831Y-21102923D02*
X56731077Y-21079054D01*
X39939579Y-21653666D02*
X39909787Y-21710699D01*
X59574350Y-53994003D02*
X59637686Y-54005354D01*
X59002756Y-53713623D02*
X59052625Y-53754285D01*
X94350832Y-91937076D02*
X94409300Y-91910212D01*
X96199054Y-59848922D02*
X96178243Y-59909808D01*
X113859457Y-53068328D02*
X113874003Y-53005649D01*
X89275000Y-54019999D02*
X93850000Y-54020000D01*
X94892369Y-59564489D02*
X94854285Y-59512625D01*
X112694324Y-54018369D02*
X112758483Y-54013484D01*
X96126515Y-90898483D02*
X96134645Y-90962313D01*
X56790831Y-53917076D02*
X56849300Y-53890211D01*
X96178243Y-59909808D02*
X96160542Y-59971671D01*
X94813622Y-21442756D02*
X94770486Y-21395012D01*
X37574324Y-59021629D02*
X37510000Y-59020000D01*
X75686333Y-91880420D02*
X75741784Y-91847778D01*
X40608922Y-59099054D02*
X40549168Y-59122923D01*
X38754003Y-91025649D02*
X38765354Y-90962313D01*
X96889167Y-53917076D02*
X96948922Y-53940945D01*
X94105649Y-53994003D02*
X94168328Y-53979457D01*
X97325675Y-21001629D02*
X97261516Y-21006515D01*
X75388328Y-53979457D02*
X75450191Y-53961756D01*
X58560000Y-90770000D02*
X58561630Y-90834324D01*
X37638483Y-59026515D02*
X37574324Y-59021629D01*
X53795000Y-93040000D02*
X43585000Y-93040000D01*
X21889808Y-53961757D02*
X21951671Y-53979458D01*
X21653666Y-53860420D02*
X21710699Y-53890212D01*
X56354324Y-21001630D02*
X56290000Y-21000000D01*
X76237076Y-91270832D02*
X76260945Y-91211077D01*
X78168922Y-59099054D02*
X78109168Y-59122923D01*
X78610000Y-54019999D02*
X83275000Y-54019999D01*
X21000000Y-22270000D02*
X21000000Y-52750000D01*
X77938215Y-59212221D02*
X77884489Y-59247630D01*
X75511077Y-53940945D02*
X75570831Y-53917076D01*
X40731671Y-59060542D02*
X40669808Y-59078243D01*
X97925000Y-92040000D02*
X97925000Y-93040000D01*
X77532221Y-21598215D02*
X77499579Y-21653666D01*
X21653666Y-21159579D02*
X21598215Y-21192221D01*
X94291077Y-91960945D02*
X94350832Y-91937076D01*
X78481516Y-54013484D02*
X78545675Y-54018370D01*
X75325649Y-21025996D02*
X75262313Y-21014645D01*
X75847374Y-59285714D02*
X75795510Y-59247630D01*
X113770212Y-91329300D02*
X113797076Y-91270832D01*
X38780000Y-52750000D02*
X38780000Y-22270000D01*
X40378215Y-53827778D02*
X40433666Y-53860420D01*
X39794645Y-22077686D02*
X39786515Y-22141516D01*
X113797076Y-59789167D02*
X113770212Y-59730699D01*
X57501757Y-59909808D02*
X57480945Y-59848922D01*
X21159579Y-53366333D02*
X21192221Y-53421784D01*
X95079457Y-21951671D02*
X95061756Y-21889808D01*
X15528603Y-15118078D02*
X15444429Y-15168530D01*
X94521784Y-53827778D02*
X94575510Y-53792369D01*
X96126515Y-52878483D02*
X96134645Y-52942313D01*
X75629300Y-53890211D02*
X75686333Y-53860420D01*
X94042313Y-92025354D02*
X94105649Y-92014003D01*
X59002756Y-59326377D02*
X58955012Y-59369513D01*
X57253622Y-21442756D02*
X57210486Y-21395012D01*
X57480945Y-21828922D02*
X57457076Y-21769168D01*
X58825714Y-21492625D02*
X58787630Y-21544489D01*
X56354324Y-92038370D02*
X56418483Y-92033484D01*
X95094003Y-22014350D02*
X95079457Y-21951671D01*
X77469788Y-59730699D02*
X77442923Y-59789168D01*
X59574350Y-92014003D02*
X59637686Y-92025354D01*
X97197686Y-54005354D02*
X97261516Y-54013484D01*
X83275000Y-55020000D02*
X70495000Y-55020000D01*
X119534393Y-97813010D02*
X119607106Y-97747106D01*
X113504988Y-59369512D02*
X113457243Y-59326376D01*
X37015000Y-93040000D02*
X37015000Y-92040000D01*
X15709715Y-15043059D02*
X15617316Y-15076120D01*
X38739457Y-53068328D02*
X38754003Y-53005649D01*
X76180420Y-91386333D02*
X76210212Y-91329300D01*
X95061756Y-53130191D02*
X95079457Y-53068328D01*
X94927778Y-91441784D02*
X94960420Y-91386333D01*
X78109167Y-53917076D02*
X78168922Y-53940945D01*
X77398242Y-53130191D02*
X77419054Y-53191077D01*
X40175012Y-59369513D02*
X40129513Y-59415012D01*
X112630000Y-54020000D02*
X112694324Y-54018369D01*
X40129513Y-91644987D02*
X40175012Y-91690486D01*
X96121629Y-22205675D02*
X96120000Y-22270000D01*
X39859054Y-91211077D02*
X39882923Y-91270831D01*
X39805996Y-60034350D02*
X39794645Y-60097686D01*
X94409300Y-53890211D02*
X94466333Y-53860420D01*
X40086377Y-91597243D02*
X40129513Y-91644987D01*
X118998017Y-98035184D02*
X119095090Y-98020785D01*
X38337243Y-91733623D02*
X38384988Y-91690487D01*
X113407374Y-21265714D02*
X113355510Y-21227630D01*
X77735011Y-53670487D02*
X77782756Y-53713623D01*
X96222923Y-53250832D02*
X96249787Y-53309300D01*
X75070000Y-59020000D02*
X70405000Y-59020000D01*
X75511077Y-91960945D02*
X75570832Y-91937076D01*
X56545649Y-53994003D02*
X56608328Y-53979457D01*
X60325000Y-21000000D02*
X59830000Y-21000000D01*
X94813623Y-91597243D02*
X94854285Y-91547374D01*
X21442756Y-21306376D02*
X21395011Y-21349512D01*
X79145000Y-93040000D02*
X74575000Y-93040000D01*
X57457076Y-53250831D02*
X57480945Y-53191077D01*
X40086376Y-21442756D02*
X40045714Y-21492625D01*
X62325000Y-21000000D02*
X62325000Y-20000000D01*
X22765000Y-20000000D02*
X22765000Y-21000000D01*
X76333484Y-52878483D02*
X76338369Y-52814324D01*
X75388328Y-91999458D02*
X75450191Y-91981757D01*
X38473623Y-59462756D02*
X38430487Y-59415011D01*
X96515011Y-21349512D02*
X96469512Y-21395011D01*
X94042313Y-54005354D02*
X94105649Y-53994003D01*
X59270699Y-21129787D02*
X59213666Y-21159579D01*
X97885000Y-21000000D02*
X97390000Y-21000000D01*
X112948328Y-59060541D02*
X112885649Y-59045996D01*
X76260945Y-53191077D02*
X76281756Y-53130191D01*
X95040945Y-21828922D02*
X95017076Y-21769168D01*
X58866377Y-59462756D02*
X58825714Y-59512625D01*
X77354645Y-60097686D02*
X77346515Y-60161516D01*
X56608328Y-59060541D02*
X56545649Y-59045996D01*
X112885649Y-53994003D02*
X112948328Y-53979457D01*
X59765675Y-92038369D02*
X59830000Y-92040000D01*
X57015510Y-91812369D02*
X57067374Y-91774285D01*
X112135000Y-93040000D02*
X112135000Y-92040000D01*
X56849300Y-91910212D02*
X56906333Y-91880420D01*
X57067374Y-53754285D02*
X57117243Y-53713622D01*
X21889808Y-21058242D02*
X21828922Y-21079054D01*
X77532221Y-59618215D02*
X77499579Y-59673666D01*
X113355510Y-53792369D02*
X113407374Y-53754285D01*
X76281756Y-53130191D02*
X76299457Y-53068328D01*
X76180420Y-59673666D02*
X76147778Y-59618215D01*
X77499579Y-91386333D02*
X77532221Y-91441784D01*
X59765675Y-59021630D02*
X59701516Y-59026515D01*
X38780000Y-22270000D02*
X38778369Y-22205675D01*
X38700945Y-91211077D02*
X38721757Y-91150191D01*
X56961784Y-59212221D02*
X56906333Y-59179579D01*
X58600542Y-59971671D02*
X58585996Y-60034350D01*
X64405000Y-59020000D02*
X59830000Y-59020000D01*
X21306377Y-59462756D02*
X21265714Y-59512625D01*
X38754003Y-53005649D02*
X38765354Y-52942313D01*
X37510000Y-59020000D02*
X32845000Y-59020000D01*
X37951077Y-91960945D02*
X38010832Y-91937076D01*
X96718215Y-59212221D02*
X96664489Y-59247630D01*
X96249787Y-21710699D02*
X96222923Y-21769167D01*
X96385714Y-91547374D02*
X96426377Y-91597243D01*
X76338369Y-52814324D02*
X76340000Y-52750000D01*
X78545675Y-92038369D02*
X78610000Y-92040000D01*
X78354350Y-53994003D02*
X78417686Y-54005354D01*
X57210486Y-21395012D02*
X57164987Y-21349513D01*
X114900000Y-93040000D02*
X112135000Y-93040000D01*
X94960420Y-59673666D02*
X94927778Y-59618215D01*
X38126333Y-59179579D02*
X38069300Y-59149787D01*
X119673010Y-97674393D02*
X119731469Y-97595570D01*
X94409300Y-91910212D02*
X94466333Y-91880420D01*
X40857686Y-21014645D02*
X40794350Y-21025996D01*
X94521784Y-59212221D02*
X94466333Y-59179579D01*
X81610000Y-86380000D02*
X90850000Y-86380000D01*
X21769168Y-91937076D02*
X21828922Y-91960945D01*
X56482313Y-92025354D02*
X56545649Y-92014003D01*
X40490699Y-21129787D02*
X40433666Y-21159579D01*
X57164988Y-91690487D02*
X57210487Y-91644988D01*
X94627374Y-21265714D02*
X94575510Y-21227630D01*
X93978483Y-54013484D02*
X94042313Y-54005354D01*
X38010832Y-59122923D02*
X37951077Y-59099054D01*
X77354645Y-90962313D02*
X77365996Y-91025649D01*
X59637686Y-21014645D02*
X59574350Y-21025996D01*
X76112369Y-53475510D02*
X76147778Y-53421784D01*
X38181784Y-21192221D02*
X38126333Y-21159579D01*
X58566515Y-60161516D02*
X58561630Y-60225675D01*
X112758483Y-54013484D02*
X112822313Y-54005354D01*
X97134350Y-92014003D02*
X97197686Y-92025354D01*
X40222756Y-53713623D02*
X40272625Y-53754285D01*
X21710699Y-91910211D02*
X21769168Y-91937076D01*
X94927778Y-59618215D02*
X94892369Y-59564489D01*
X38287374Y-53754285D02*
X38337243Y-53713622D01*
X113841757Y-59909808D02*
X113820945Y-59848922D01*
X78354350Y-59045996D02*
X78291671Y-59060542D01*
X96134645Y-90962313D02*
X96145996Y-91025649D01*
X119282683Y-15076120D02*
X119190284Y-15043059D01*
X77832625Y-53754285D02*
X77884489Y-53792369D01*
X34510000Y-86380000D02*
X34510000Y-92040000D01*
X21769167Y-21102923D02*
X21710699Y-21129787D01*
X113874003Y-22014350D02*
X113859457Y-21951671D01*
X59701516Y-54013484D02*
X59765675Y-54018370D01*
X38773484Y-60161516D02*
X38765354Y-60097686D01*
X97261516Y-92033484D02*
X97325675Y-92038369D01*
X94168328Y-91999458D02*
X94230191Y-91981757D01*
X110095000Y-21000000D02*
X109630000Y-21000000D01*
X77884489Y-21227630D02*
X77832625Y-21265714D01*
X58662923Y-91270831D02*
X58689788Y-91329300D01*
X57210487Y-91644988D02*
X57253623Y-91597243D01*
X57117243Y-21306377D02*
X57067374Y-21265714D01*
X75897243Y-91733623D02*
X75944988Y-91690487D01*
X96160542Y-91088328D02*
X96178243Y-91150191D01*
X77938215Y-91847778D02*
X77993666Y-91880420D01*
X113457243Y-59326376D02*
X113407374Y-59285714D01*
X58618243Y-91150191D02*
X58639054Y-91211077D01*
X77938215Y-21192221D02*
X77884489Y-21227630D01*
X77993666Y-21159579D02*
X77938215Y-21192221D01*
X113900000Y-52750000D02*
X113900000Y-22270000D01*
X72070000Y-92040000D02*
X72575000Y-92040000D01*
X43585000Y-92040000D02*
X44050000Y-92040000D01*
X57117243Y-53713622D02*
X57164987Y-53670486D01*
X109630000Y-21000000D02*
X109630000Y-26660000D01*
X96347630Y-21544489D02*
X96312221Y-21598215D01*
X40378215Y-21192221D02*
X40324489Y-21227630D01*
X39781629Y-52814324D02*
X39786515Y-52878483D01*
X113246333Y-21159579D02*
X113189300Y-21129788D01*
X113407374Y-59285714D02*
X113355510Y-59247630D01*
X96134645Y-52942313D02*
X96145996Y-53005649D01*
X109630000Y-86380000D02*
X109630000Y-92040000D01*
X58600541Y-53068328D02*
X58618242Y-53130191D01*
X77782756Y-91733622D02*
X77832625Y-91774285D01*
X94813623Y-59462756D02*
X94770487Y-59415011D01*
X38235510Y-59247630D02*
X38181784Y-59212221D01*
X113246333Y-91880420D02*
X113301784Y-91847778D01*
X94677243Y-21306377D02*
X94627374Y-21265714D01*
X94892369Y-53475510D02*
X94927778Y-53421784D01*
X21442756Y-91733622D02*
X21492625Y-91774285D01*
X96385714Y-53527374D02*
X96426376Y-53577243D01*
X75262313Y-54005354D02*
X75325649Y-53994003D01*
X21001630Y-90834324D02*
X21006515Y-90898483D01*
X95120000Y-22270000D02*
X95118369Y-22205675D01*
X39805996Y-91025649D02*
X39820542Y-91088328D01*
X40324489Y-53792369D02*
X40378215Y-53827778D01*
X96948922Y-59099054D02*
X96889168Y-59122923D01*
X113550487Y-59415011D02*
X113504988Y-59369512D01*
X21040542Y-59971671D02*
X21025996Y-60034350D01*
X78050699Y-59149788D02*
X77993666Y-59179579D01*
X113355510Y-59247630D02*
X113301784Y-59212221D01*
X40608922Y-21079054D02*
X40549167Y-21102923D01*
X21025996Y-60034350D02*
X21014645Y-60097686D01*
X40007630Y-59564489D02*
X39972221Y-59618215D01*
X119190284Y-97996940D02*
X119282683Y-97963879D01*
X56545649Y-59045996D02*
X56482313Y-59034645D01*
X75198483Y-21006515D02*
X75134324Y-21001630D01*
X35015000Y-92040000D02*
X35015000Y-93040000D01*
X38126333Y-91880420D02*
X38181784Y-91847778D01*
X83275000Y-54019999D02*
X83275000Y-55020000D01*
X75686333Y-21159579D02*
X75629300Y-21129788D01*
X38721757Y-59909808D02*
X38700945Y-59848922D01*
X95040945Y-91211077D02*
X95061757Y-91150191D01*
X113504987Y-21349513D02*
X113457243Y-21306377D01*
X40731671Y-91999457D02*
X40794350Y-92014003D01*
X95113484Y-22141516D02*
X95105354Y-22077686D01*
X96469512Y-53624988D02*
X96515011Y-53670487D01*
X119880785Y-15804909D02*
X119856940Y-15709715D01*
X58639054Y-53191077D02*
X58662923Y-53250832D01*
X57210487Y-59415011D02*
X57164988Y-59369512D01*
X76033622Y-53577243D02*
X76074285Y-53527374D01*
X57534003Y-22014350D02*
X57519457Y-21951671D01*
X58866376Y-21442756D02*
X58825714Y-21492625D01*
X38287374Y-59285714D02*
X38235510Y-59247630D01*
X40045714Y-21492625D02*
X40007630Y-21544489D01*
X57015510Y-59247630D02*
X56961784Y-59212221D01*
X119607106Y-15292893D02*
X119534393Y-15226989D01*
X94960420Y-91386333D02*
X94990212Y-91329300D01*
X58560000Y-52750000D02*
X58561629Y-52814324D01*
X95120000Y-60290000D02*
X95118370Y-60225675D01*
X22141516Y-54013484D02*
X22205675Y-54018370D01*
X37638483Y-92033484D02*
X37702313Y-92025354D01*
X75450191Y-21058243D02*
X75388328Y-21040542D01*
X113797076Y-53250831D02*
X113820945Y-53191077D01*
X40549168Y-59122923D02*
X40490699Y-59149788D01*
X75741784Y-91847778D02*
X75795510Y-91812369D01*
X75262313Y-21014645D02*
X75198483Y-21006515D01*
X94350832Y-59122923D02*
X94291077Y-59099054D01*
X94990211Y-53309300D02*
X95017076Y-53250831D01*
X91315000Y-21000000D02*
X90850000Y-21000000D01*
X32845000Y-58020000D02*
X45625000Y-58020000D01*
X94927778Y-21598215D02*
X94892369Y-21544489D01*
X37828328Y-59060541D02*
X37765649Y-59045996D01*
X97134350Y-53994003D02*
X97197686Y-54005354D01*
X40129512Y-53624988D02*
X40175011Y-53670487D01*
X81145000Y-93040000D02*
X81145000Y-92040000D01*
X97197686Y-21014645D02*
X97134350Y-21025996D01*
X97261516Y-54013484D02*
X97325675Y-54018370D01*
X21000000Y-52750000D02*
X21001629Y-52814324D01*
X38069300Y-53890211D02*
X38126333Y-53860420D01*
X62830000Y-86380000D02*
X72070000Y-86380000D01*
X21828922Y-91960945D02*
X21889808Y-91981756D01*
X75944987Y-53670486D02*
X75990486Y-53624987D01*
X40129513Y-59415012D02*
X40086377Y-59462756D01*
X21265714Y-53527374D02*
X21306376Y-53577243D01*
X39939579Y-91386333D02*
X39972221Y-91441784D01*
X38650211Y-53309300D02*
X38677076Y-53250831D01*
X113820945Y-53191077D02*
X113841756Y-53130191D01*
X75198483Y-59026515D02*
X75134324Y-59021629D01*
X76338369Y-22205675D02*
X76333484Y-22141516D01*
X77993666Y-53860420D02*
X78050699Y-53890212D01*
X119731469Y-97595570D02*
X119781921Y-97511396D01*
X75795510Y-53792369D02*
X75847374Y-53754285D01*
X25270000Y-92040000D02*
X25270000Y-86380000D01*
X79145000Y-92040000D02*
X79145000Y-93040000D01*
X57553484Y-22141516D02*
X57545354Y-22077686D01*
X26845000Y-59020000D02*
X22270000Y-59020000D01*
X81610000Y-92040000D02*
X81610000Y-86380000D01*
X21006515Y-90898483D02*
X21014645Y-90962313D01*
X56608328Y-53979457D02*
X56670191Y-53961756D01*
X57164987Y-21349513D02*
X57117243Y-21306377D01*
X64405000Y-58020000D02*
X64405000Y-59020000D01*
X40272625Y-59285714D02*
X40222756Y-59326377D01*
X38552369Y-21544489D02*
X38514285Y-21492625D01*
X40669808Y-91981756D02*
X40731671Y-91999457D01*
X37702313Y-54005354D02*
X37765649Y-53994003D01*
X78481516Y-59026515D02*
X78417686Y-59034645D01*
X38514285Y-21492625D02*
X38473622Y-21442756D01*
X15118078Y-97511396D02*
X15168530Y-97595570D01*
X34975000Y-20000000D02*
X34975000Y-21000000D01*
X113301784Y-91847778D02*
X113355510Y-91812369D01*
X74535000Y-21000000D02*
X74535000Y-20000000D01*
X21102923Y-59789168D02*
X21079054Y-59848922D01*
X76210211Y-21710699D02*
X76180420Y-21653666D01*
X76340000Y-52750000D02*
X76340000Y-22270000D01*
X21102923Y-91270831D02*
X21129788Y-91329300D01*
X21102923Y-53250832D02*
X21129787Y-53309300D01*
X97390000Y-92040000D02*
X97925000Y-92040000D01*
X39805996Y-53005649D02*
X39820541Y-53068328D01*
X113707778Y-91441784D02*
X113740420Y-91386333D01*
X112758483Y-59026515D02*
X112694324Y-59021629D01*
X39820542Y-59971671D02*
X39805996Y-60034350D01*
X59213666Y-59179579D02*
X59158215Y-59212221D01*
X21544489Y-21227630D02*
X21492625Y-21265714D01*
X39882923Y-59789168D02*
X39859054Y-59848922D01*
X40086377Y-59462756D02*
X40045714Y-59512625D01*
X53755000Y-21000000D02*
X53290000Y-21000000D01*
X75570831Y-53917076D02*
X75629300Y-53890211D01*
X112694324Y-21001630D02*
X112630000Y-21000000D01*
X96773666Y-91880420D02*
X96830699Y-91910211D01*
X114900000Y-20000000D02*
X114900000Y-55020000D01*
X38337243Y-21306377D02*
X38287374Y-21265714D01*
X72070000Y-21000000D02*
X72070000Y-26660000D01*
X97009808Y-21058242D02*
X96948922Y-21079054D01*
X96160542Y-59971671D02*
X96145996Y-60034350D01*
X57400420Y-21653666D02*
X57367778Y-21598215D01*
X96222923Y-21769167D02*
X96199054Y-21828922D01*
X57400420Y-53366333D02*
X57430211Y-53309300D01*
X59449808Y-21058242D02*
X59388922Y-21079054D01*
X75897243Y-53713622D02*
X75944987Y-53670486D01*
X39939579Y-53366333D02*
X39972221Y-53421784D01*
X77398242Y-21889808D02*
X77380541Y-21951671D01*
X41050000Y-92040000D02*
X41585000Y-92040000D01*
X78545675Y-59021630D02*
X78481516Y-59026515D01*
X58639054Y-91211077D02*
X58662923Y-91270831D01*
X21306376Y-53577243D02*
X21349512Y-53624988D01*
X95105354Y-60097686D02*
X95094003Y-60034350D01*
X96134645Y-22077686D02*
X96126515Y-22141516D01*
X57294285Y-53527374D02*
X57332369Y-53475510D01*
X21265714Y-59512625D02*
X21227630Y-59564489D01*
X96889168Y-59122923D02*
X96830699Y-59149788D01*
X94677243Y-53713622D02*
X94724987Y-53670486D01*
X40921516Y-54013484D02*
X40985675Y-54018370D01*
X58825714Y-59512625D02*
X58787630Y-59564489D01*
X94466333Y-59179579D02*
X94409300Y-59149787D01*
X22270000Y-92040000D02*
X22805000Y-92040000D01*
X41050000Y-54019999D02*
X45715000Y-54019999D01*
X112822313Y-92025354D02*
X112885649Y-92014003D01*
X99925000Y-92040000D02*
X100390000Y-92040000D01*
X75134324Y-92038370D02*
X75198483Y-92033484D01*
X21889808Y-59078243D02*
X21828922Y-59099054D01*
X35015000Y-93040000D02*
X24805000Y-93040000D01*
X59158215Y-21192221D02*
X59104489Y-21227630D01*
X57457076Y-59789167D02*
X57430212Y-59730699D01*
X57294285Y-59512625D02*
X57253623Y-59462756D01*
X39786515Y-90898483D02*
X39794645Y-90962313D01*
X96178242Y-21889808D02*
X96160541Y-21951671D01*
X38473623Y-91597243D02*
X38514285Y-91547374D01*
X74575000Y-92040000D02*
X75070000Y-92040000D01*
X97325675Y-92038369D02*
X97390000Y-92040000D01*
X77993666Y-59179579D02*
X77938215Y-59212221D01*
X55755000Y-20000000D02*
X60325000Y-20000000D01*
X94409300Y-59149787D02*
X94350832Y-59122923D01*
X38780000Y-60290000D02*
X38778370Y-60225675D01*
X58560000Y-60290000D02*
X58560000Y-90770000D01*
X59104489Y-59247630D02*
X59052625Y-59285714D01*
X96199054Y-53191077D02*
X96222923Y-53250832D01*
X38384988Y-91690487D02*
X38430487Y-91644988D01*
X57015510Y-53792369D02*
X57067374Y-53754285D01*
X57519457Y-21951671D02*
X57501756Y-21889808D01*
X76299457Y-53068328D02*
X76314003Y-53005649D01*
X113130831Y-53917076D02*
X113189300Y-53890211D01*
X40324489Y-21227630D02*
X40272625Y-21265714D01*
X113355510Y-21227630D02*
X113301784Y-21192221D01*
X58909512Y-53624988D02*
X58955011Y-53670487D01*
X113893484Y-60161516D02*
X113885354Y-60097686D01*
X112885649Y-21025996D02*
X112822313Y-21014645D01*
X75198483Y-54013484D02*
X75262313Y-54005354D01*
X15226989Y-97674393D02*
X15292893Y-97747106D01*
X77782756Y-53713623D02*
X77832625Y-53754285D01*
X40985675Y-59021630D02*
X40921516Y-59026515D01*
X57067374Y-21265714D02*
X57015510Y-21227630D01*
X76237076Y-21769168D02*
X76210211Y-21710699D01*
X96612625Y-53754285D02*
X96664489Y-53792369D01*
X94854285Y-91547374D02*
X94892369Y-91495510D01*
X59104489Y-21227630D02*
X59052625Y-21265714D01*
X21653666Y-59179579D02*
X21598215Y-59212221D01*
X94521784Y-21192221D02*
X94466333Y-21159579D01*
X58639054Y-59848922D02*
X58618243Y-59909808D01*
X93914324Y-92038370D02*
X93978483Y-92033484D01*
X96279579Y-53366333D02*
X96312221Y-53421784D01*
X75134324Y-54018369D02*
X75198483Y-54013484D01*
X113457243Y-91733623D02*
X113504988Y-91690487D01*
X81105000Y-20000000D02*
X91315000Y-20000000D01*
X56790832Y-59122923D02*
X56731077Y-59099054D01*
X75741784Y-59212221D02*
X75686333Y-59179579D01*
X96612625Y-59285714D02*
X96562756Y-59326377D01*
X77469788Y-91329300D02*
X77499579Y-91386333D01*
X77380541Y-53068328D02*
X77398242Y-53130191D01*
X21000000Y-90770000D02*
X21001630Y-90834324D01*
X95017076Y-59789167D02*
X94990212Y-59730699D01*
X59765675Y-54018370D02*
X59830000Y-54019999D01*
X40857686Y-92025354D02*
X40921516Y-92033484D01*
X55795000Y-93040000D02*
X55795000Y-92040000D01*
X59213666Y-21159579D02*
X59158215Y-21192221D01*
X96664489Y-59247630D02*
X96612625Y-59285714D01*
X59158215Y-91847778D02*
X59213666Y-91880420D01*
X94291077Y-21079054D02*
X94230191Y-21058243D01*
X58719579Y-59673666D02*
X58689788Y-59730699D01*
X38010832Y-91937076D02*
X38069300Y-91910212D01*
X39786515Y-22141516D02*
X39781629Y-22205675D01*
X32935000Y-54019999D02*
X37510000Y-54020000D01*
X57480945Y-91211077D02*
X57501757Y-91150191D01*
X75847374Y-53754285D02*
X75897243Y-53713622D01*
X21828922Y-59099054D02*
X21769168Y-59122923D01*
X96126515Y-22141516D02*
X96121629Y-22205675D01*
X51715000Y-54019999D02*
X56290000Y-54020000D01*
X15000000Y-15999999D02*
X15000000Y-97040000D01*
X93315000Y-21000000D02*
X93315000Y-20000000D01*
X58662923Y-53250832D02*
X58689787Y-53309300D01*
X113504988Y-91690487D02*
X113550487Y-91644988D01*
X59830000Y-92040000D02*
X60365000Y-92040000D01*
X72575000Y-92040000D02*
X72575000Y-93040000D01*
X57400420Y-59673666D02*
X57367778Y-59618215D01*
X37828328Y-53979457D02*
X37890191Y-53961756D01*
X75134324Y-21001630D02*
X75070000Y-21000000D01*
X39838243Y-59909808D02*
X39820542Y-59971671D01*
X76033622Y-21442756D02*
X75990486Y-21395012D01*
X56482313Y-59034645D02*
X56418483Y-59026515D01*
X96145996Y-91025649D02*
X96160542Y-91088328D01*
X96612625Y-91774285D02*
X96664489Y-91812369D01*
X56849300Y-59149787D02*
X56790832Y-59122923D01*
X101965000Y-58020000D02*
X101965000Y-59020000D01*
X40669808Y-59078243D02*
X40608922Y-59099054D01*
X21192221Y-21598215D02*
X21159579Y-21653666D01*
X45625000Y-59020000D02*
X41050000Y-59020000D01*
X57117243Y-59326376D02*
X57067374Y-59285714D01*
X91355000Y-93040000D02*
X81145000Y-93040000D01*
X39939579Y-59673666D02*
X39909788Y-59730699D01*
X56731077Y-59099054D02*
X56670191Y-59078242D01*
X75070000Y-54020000D02*
X75134324Y-54018369D01*
X15076120Y-97422683D02*
X15118078Y-97511396D01*
X99885000Y-21000000D02*
X99885000Y-20000000D01*
X78610000Y-92040000D02*
X79145000Y-92040000D01*
X21395011Y-21349512D02*
X21349512Y-21395011D01*
X56290000Y-54020000D02*
X56354324Y-54018369D01*
X113301784Y-53827778D02*
X113355510Y-53792369D01*
X119095090Y-15019214D02*
X118998017Y-15004815D01*
X21192221Y-59618215D02*
X21159579Y-59673666D01*
X37890191Y-91981757D02*
X37951077Y-91960945D01*
X113797076Y-21769168D02*
X113770211Y-21710699D01*
X40222756Y-59326377D02*
X40175012Y-59369513D01*
X22077686Y-21014645D02*
X22014350Y-21025996D01*
X95118369Y-22205675D02*
X95113484Y-22141516D01*
X56731077Y-21079054D02*
X56670191Y-21058243D01*
X38765354Y-60097686D02*
X38754003Y-60034350D01*
X59449808Y-59078243D02*
X59388922Y-59099054D01*
X76112369Y-91495510D02*
X76147778Y-91441784D01*
X59637686Y-54005354D02*
X59701516Y-54013484D01*
X62325000Y-20000000D02*
X72535000Y-20000000D01*
X25270000Y-86380000D02*
X34510000Y-86380000D01*
X56418483Y-54013484D02*
X56482313Y-54005354D01*
X113550486Y-53624987D02*
X113593622Y-53577243D01*
X59052625Y-91774285D02*
X59104489Y-91812369D01*
X97261516Y-21006515D02*
X97197686Y-21014645D01*
X59104489Y-53792369D02*
X59158215Y-53827778D01*
X21306377Y-91597243D02*
X21349513Y-91644987D01*
X75262313Y-59034645D02*
X75198483Y-59026515D01*
X77646376Y-53577243D02*
X77689512Y-53624988D01*
X119823879Y-97422683D02*
X119856940Y-97330284D01*
X75325649Y-53994003D02*
X75388328Y-53979457D01*
X57294285Y-91547374D02*
X57332369Y-91495510D01*
X55755000Y-21000000D02*
X55755000Y-20000000D01*
X59388922Y-21079054D02*
X59329167Y-21102923D01*
X96562756Y-59326377D02*
X96515012Y-59369513D01*
X58574645Y-52942313D02*
X58585996Y-53005649D01*
X58752221Y-53421784D02*
X58787630Y-53475510D01*
X59052625Y-53754285D02*
X59104489Y-53792369D01*
X76074285Y-59512625D02*
X76033623Y-59462756D01*
X57400420Y-91386333D02*
X57430212Y-91329300D01*
X78291671Y-59060542D02*
X78229808Y-59078243D01*
X21349513Y-59415012D02*
X21306377Y-59462756D01*
X57164987Y-53670486D02*
X57210486Y-53624987D01*
X58719579Y-91386333D02*
X58752221Y-91441784D01*
X39780000Y-52750000D02*
X39781629Y-52814324D01*
X53290000Y-21000000D02*
X53290000Y-26660000D01*
X21159579Y-59673666D02*
X21129788Y-59730699D01*
X57553484Y-52878483D02*
X57558369Y-52814324D01*
X113355510Y-91812369D02*
X113407374Y-91774285D01*
X40608922Y-53940945D02*
X40669808Y-53961757D01*
X107965000Y-59020000D02*
X107965000Y-58020000D01*
X76325354Y-52942313D02*
X76333484Y-52878483D01*
X15168530Y-97595570D02*
X15226989Y-97674393D01*
X43585000Y-93040000D02*
X43585000Y-92040000D01*
X56961784Y-91847778D02*
X57015510Y-91812369D01*
X77689513Y-59415012D02*
X77646377Y-59462756D01*
X21349512Y-21395011D02*
X21306376Y-21442756D01*
X59158215Y-53827778D02*
X59213666Y-53860420D01*
X95105354Y-90962313D02*
X95113484Y-90898483D01*
X76281756Y-21889808D02*
X76260945Y-21828922D01*
X40857686Y-59034645D02*
X40794350Y-59045996D01*
X57294285Y-21492625D02*
X57253622Y-21442756D01*
X60365000Y-92040000D02*
X60365000Y-93040000D01*
X112822313Y-54005354D02*
X112885649Y-53994003D01*
X59511671Y-53979458D02*
X59574350Y-53994003D01*
X95120000Y-52750000D02*
X95120000Y-22270000D01*
X96312221Y-53421784D02*
X96347630Y-53475510D01*
X21710699Y-53890212D02*
X21769167Y-53917076D01*
X113859457Y-21951671D02*
X113841756Y-21889808D01*
X94168328Y-21040542D02*
X94105649Y-21025996D01*
X97261516Y-59026515D02*
X97197686Y-59034645D01*
X113885354Y-60097686D02*
X113874003Y-60034350D01*
X76112369Y-59564489D02*
X76074285Y-59512625D01*
X21442756Y-53713623D02*
X21492625Y-53754285D01*
X53795000Y-92040000D02*
X53795000Y-93040000D01*
X113770211Y-21710699D02*
X113740420Y-21653666D01*
X99885000Y-20000000D02*
X110095000Y-20000000D01*
X40007630Y-53475510D02*
X40045714Y-53527374D01*
X119895184Y-97138017D02*
X119900000Y-97040000D01*
X112095000Y-20000000D02*
X114900000Y-20000000D01*
X57480945Y-53191077D02*
X57501756Y-53130191D01*
X39972221Y-59618215D02*
X39939579Y-59673666D01*
X38235510Y-21227630D02*
X38181784Y-21192221D01*
X113189300Y-53890211D02*
X113246333Y-53860420D01*
X77340000Y-52750000D02*
X77341629Y-52814324D01*
X57457076Y-21769168D02*
X57430211Y-21710699D01*
X112948328Y-21040542D02*
X112885649Y-21025996D01*
X77884489Y-53792369D02*
X77938215Y-53827778D01*
X78168922Y-53940945D02*
X78229808Y-53961757D01*
X97197686Y-92025354D02*
X97261516Y-92033484D01*
X113672369Y-91495510D02*
X113707778Y-91441784D01*
X113593622Y-21442756D02*
X113550486Y-21395012D01*
X94105649Y-21025996D02*
X94042313Y-21014645D01*
X91315000Y-20000000D02*
X91315000Y-21000000D01*
X113898369Y-52814324D02*
X113900000Y-52750000D01*
X38677076Y-53250831D02*
X38700945Y-53191077D01*
X58585996Y-91025649D02*
X58600542Y-91088328D01*
X39859054Y-59848922D02*
X39838243Y-59909808D01*
X113457243Y-21306377D02*
X113407374Y-21265714D01*
X59637686Y-92025354D02*
X59701516Y-92033484D01*
X113707778Y-53421784D02*
X113740420Y-53366333D01*
X40921516Y-92033484D02*
X40985675Y-92038369D01*
X81105000Y-21000000D02*
X81105000Y-20000000D01*
X75944988Y-91690487D02*
X75990487Y-91644988D01*
X77735011Y-21349512D02*
X77689512Y-21395011D01*
X77499579Y-53366333D02*
X77532221Y-53421784D01*
X95119999Y-90770000D02*
X95120000Y-60290000D01*
X97885000Y-20000000D02*
X97885000Y-21000000D01*
X94466333Y-21159579D02*
X94409300Y-21129788D01*
X76074285Y-21492625D02*
X76033622Y-21442756D01*
X21227630Y-59564489D02*
X21192221Y-59618215D01*
X40086376Y-53577243D02*
X40129512Y-53624988D01*
X58600542Y-91088328D02*
X58618243Y-91150191D01*
X94575510Y-59247630D02*
X94521784Y-59212221D01*
X15004815Y-15901982D02*
X15000000Y-15999999D01*
X38587778Y-59618215D02*
X38552369Y-59564489D01*
X21129788Y-91329300D02*
X21159579Y-91386333D01*
X64495000Y-54019999D02*
X64495000Y-55020000D01*
X58566515Y-52878483D02*
X58574645Y-52942313D01*
X96126515Y-60161516D02*
X96121630Y-60225675D01*
X57545354Y-22077686D02*
X57534003Y-22014350D01*
X119455570Y-15168530D02*
X119371396Y-15118078D01*
X114900000Y-55020000D02*
X108055000Y-55020000D01*
X60325000Y-20000000D02*
X60325000Y-21000000D01*
X56290000Y-92040000D02*
X56354324Y-92038370D01*
X38778369Y-52814324D02*
X38780000Y-52750000D01*
X57534003Y-91025649D02*
X57545354Y-90962313D01*
X94627374Y-91774285D02*
X94677243Y-91733623D01*
X99925000Y-93040000D02*
X99925000Y-92040000D01*
X96948922Y-91960945D02*
X97009808Y-91981756D01*
X21001630Y-60225675D02*
X21000000Y-60290000D01*
X77365996Y-22014350D02*
X77354645Y-22077686D01*
X96469513Y-91644987D02*
X96515012Y-91690486D01*
X78229808Y-59078243D02*
X78168922Y-59099054D01*
X15292893Y-15292893D02*
X15226989Y-15365606D01*
X40272625Y-21265714D02*
X40222756Y-21306376D01*
X40490699Y-59149788D02*
X40433666Y-59179579D01*
X76333484Y-90898483D02*
X76338370Y-90834324D01*
X75325649Y-59045996D02*
X75262313Y-59034645D01*
X72535000Y-20000000D02*
X72535000Y-21000000D01*
X113859458Y-59971671D02*
X113841757Y-59909808D01*
X112630000Y-92040000D02*
X112694324Y-92038370D01*
X58752221Y-59618215D02*
X58719579Y-59673666D01*
X94854285Y-21492625D02*
X94813622Y-21442756D01*
X97197686Y-59034645D02*
X97134350Y-59045996D01*
X57519458Y-91088328D02*
X57534003Y-91025649D01*
X15365606Y-15226989D02*
X15292893Y-15292893D01*
X119455570Y-97871469D02*
X119534393Y-97813010D01*
X38773484Y-52878483D02*
X38778369Y-52814324D01*
X57519458Y-59971671D02*
X57501757Y-59909808D01*
X96199054Y-91211077D02*
X96222923Y-91270831D01*
X15043059Y-97330284D02*
X15076120Y-97422683D01*
X113885354Y-22077686D02*
X113874003Y-22014350D01*
X40490699Y-91910211D02*
X40549168Y-91937076D01*
X45715000Y-55020000D02*
X32935000Y-55020000D01*
X94927778Y-53421784D02*
X94960420Y-53366333D01*
X113820945Y-59848922D02*
X113797076Y-59789167D01*
X78417686Y-92025354D02*
X78481516Y-92033484D01*
X78168922Y-91960945D02*
X78229808Y-91981756D01*
X113407374Y-91774285D02*
X113457243Y-91733623D01*
X21058242Y-21889808D02*
X21040541Y-21951671D01*
X70405000Y-58020000D02*
X83185000Y-58020000D01*
X40175012Y-91690486D02*
X40222756Y-91733622D01*
X72535000Y-21000000D02*
X72070000Y-21000000D01*
X58787630Y-59564489D02*
X58752221Y-59618215D01*
X21192221Y-53421784D02*
X21227630Y-53475510D01*
X96178243Y-91150191D02*
X96199054Y-91211077D01*
X59329168Y-59122923D02*
X59270699Y-59149788D01*
X57558369Y-22205675D02*
X57553484Y-22141516D01*
X76314003Y-22014350D02*
X76299457Y-21951671D01*
X15226989Y-15365606D02*
X15168530Y-15444429D01*
X118900000Y-98040000D02*
X118998017Y-98035184D01*
X56849300Y-21129788D02*
X56790831Y-21102923D01*
X113885354Y-52942313D02*
X113893484Y-52878483D01*
X76180420Y-53366333D02*
X76210211Y-53309300D01*
X113189300Y-21129788D02*
X113130831Y-21102923D01*
X90850000Y-86380000D02*
X90850000Y-92040000D01*
X96222923Y-91270831D02*
X96249788Y-91329300D01*
X94575510Y-91812369D02*
X94627374Y-91774285D01*
X40794350Y-92014003D02*
X40857686Y-92025354D01*
X57067374Y-91774285D02*
X57117243Y-91733623D01*
X58566515Y-22141516D02*
X58561629Y-22205675D01*
X119900000Y-97040000D02*
X119900000Y-16000000D01*
X96279579Y-21653666D02*
X96249787Y-21710699D01*
X119534393Y-15226989D02*
X119455570Y-15168530D01*
X83185000Y-58020000D02*
X83185000Y-59020000D01*
X78354350Y-92014003D02*
X78417686Y-92025354D01*
X77782756Y-21306376D02*
X77735011Y-21349512D01*
X113301784Y-21192221D02*
X113246333Y-21159579D01*
X95105354Y-22077686D02*
X95094003Y-22014350D01*
X37890191Y-21058243D02*
X37828328Y-21040542D01*
X22205675Y-21001629D02*
X22141516Y-21006515D01*
X36975000Y-20000000D02*
X41545000Y-20000000D01*
X44050000Y-21000000D02*
X43545000Y-21000000D01*
X21001629Y-22205675D02*
X21000000Y-22270000D01*
X37951077Y-21079054D02*
X37890191Y-21058243D01*
X113898370Y-60225675D02*
X113893484Y-60161516D01*
X57015510Y-21227630D02*
X56961784Y-21192221D01*
X75450191Y-59078242D02*
X75388328Y-59060541D01*
X94230191Y-59078242D02*
X94168328Y-59060541D01*
X38721756Y-21889808D02*
X38700945Y-21828922D01*
X76074285Y-91547374D02*
X76112369Y-91495510D01*
X21828922Y-53940945D02*
X21889808Y-53961757D01*
X108055000Y-55020000D02*
X108055000Y-54019999D01*
X21349512Y-53624988D02*
X21395011Y-53670487D01*
X77735012Y-91690486D02*
X77782756Y-91733622D01*
X62365000Y-93040000D02*
X62365000Y-92040000D01*
X37890191Y-59078242D02*
X37828328Y-59060541D01*
X38773484Y-22141516D02*
X38765354Y-22077686D01*
X40794350Y-21025996D02*
X40731671Y-21040541D01*
X76338370Y-60225675D02*
X76333484Y-60161516D01*
X76237076Y-53250831D02*
X76260945Y-53191077D01*
X96718215Y-91847778D02*
X96773666Y-91880420D01*
X38620420Y-53366333D02*
X38650211Y-53309300D01*
X75570832Y-91937076D02*
X75629300Y-91910212D01*
X113900000Y-60290000D02*
X113898370Y-60225675D01*
X40045714Y-59512625D02*
X40007630Y-59564489D01*
X77365996Y-53005649D02*
X77380541Y-53068328D01*
X40433666Y-53860420D02*
X40490699Y-53890212D01*
X57545354Y-60097686D02*
X57534003Y-60034350D01*
X59511671Y-21040541D02*
X59449808Y-21058242D01*
X21079054Y-59848922D02*
X21058243Y-59909808D01*
X26935000Y-55020000D02*
X20000000Y-55020000D01*
X38514285Y-91547374D02*
X38552369Y-91495510D01*
X78545675Y-21001629D02*
X78481516Y-21006515D01*
X74575000Y-93040000D02*
X74575000Y-92040000D01*
X78229808Y-53961757D02*
X78291671Y-53979458D01*
X93978483Y-21006515D02*
X93914324Y-21001630D01*
X113010191Y-91981757D02*
X113071077Y-91960945D01*
X40129512Y-21395011D02*
X40086376Y-21442756D01*
X40378215Y-91847778D02*
X40433666Y-91880420D01*
X20000000Y-55020000D02*
X20000000Y-20000000D01*
X96178242Y-53130191D02*
X96199054Y-53191077D01*
X96347630Y-59564489D02*
X96312221Y-59618215D01*
X37510000Y-92040000D02*
X37574324Y-92038370D01*
X112095000Y-21000000D02*
X112095000Y-20000000D01*
X40222756Y-91733622D02*
X40272625Y-91774285D01*
X76074285Y-53527374D02*
X76112369Y-53475510D01*
X97325675Y-59021630D02*
X97261516Y-59026515D01*
X94854285Y-59512625D02*
X94813623Y-59462756D01*
X96664489Y-53792369D02*
X96718215Y-53827778D01*
X39786515Y-60161516D02*
X39781630Y-60225675D01*
X15019214Y-15804909D02*
X15004815Y-15901982D01*
X51625000Y-59020000D02*
X51625000Y-58020000D01*
X21001629Y-52814324D02*
X21006515Y-52878483D01*
X21079054Y-21828922D02*
X21058242Y-21889808D01*
X39794645Y-60097686D02*
X39786515Y-60161516D01*
X77993666Y-91880420D02*
X78050699Y-91910211D01*
X77567630Y-21544489D02*
X77532221Y-21598215D01*
X39820541Y-53068328D02*
X39838242Y-53130191D01*
X94350831Y-21102923D02*
X94291077Y-21079054D01*
X96562756Y-91733622D02*
X96612625Y-91774285D01*
X57117243Y-91733623D02*
X57164988Y-91690487D01*
X38754003Y-60034350D02*
X38739458Y-59971671D01*
X37951077Y-53940945D02*
X38010831Y-53917076D01*
X58618242Y-21889808D02*
X58600541Y-21951671D01*
X59637686Y-59034645D02*
X59574350Y-59045996D01*
X40549167Y-21102923D02*
X40490699Y-21129787D01*
X72070000Y-86380000D02*
X72070000Y-92040000D01*
X100390000Y-92040000D02*
X100390000Y-86380000D01*
X75990486Y-21395012D02*
X75944987Y-21349513D01*
X64495000Y-55020000D02*
X51715000Y-55020000D01*
X77469787Y-53309300D02*
X77499579Y-53366333D01*
X113634285Y-21492625D02*
X113593622Y-21442756D01*
X78610000Y-59020000D02*
X78545675Y-59021630D01*
X58574645Y-22077686D02*
X58566515Y-22141516D01*
X96120000Y-22270000D02*
X96120000Y-52750000D01*
X21544489Y-91812369D02*
X21598215Y-91847778D01*
X39820541Y-21951671D02*
X39805996Y-22014350D01*
X22141516Y-59026515D02*
X22077686Y-59034645D01*
X113071077Y-21079054D02*
X113010191Y-21058243D01*
X112694324Y-92038370D02*
X112758483Y-92033484D01*
X97009808Y-91981756D02*
X97071671Y-91999457D01*
X59002756Y-91733622D02*
X59052625Y-91774285D01*
X41545000Y-21000000D02*
X41050000Y-21000000D01*
X57367778Y-91441784D02*
X57400420Y-91386333D01*
X96145996Y-53005649D02*
X96160541Y-53068328D01*
X57534003Y-60034350D02*
X57519458Y-59971671D01*
X37015000Y-92040000D02*
X37510000Y-92040000D01*
X21598215Y-21192221D02*
X21544489Y-21227630D01*
X96562756Y-21306376D02*
X96515011Y-21349512D01*
X59511671Y-59060542D02*
X59449808Y-59078243D01*
X70495000Y-54019999D02*
X75070000Y-54020000D01*
X94724988Y-59369512D02*
X94677243Y-59326376D01*
X97071671Y-21040541D02*
X97009808Y-21058242D01*
X39909787Y-53309300D02*
X39939579Y-53366333D01*
X93355000Y-92040000D02*
X93850000Y-92040000D01*
X77380542Y-59971671D02*
X77365996Y-60034350D01*
X57430212Y-91329300D02*
X57457076Y-91270832D01*
X58585996Y-22014350D02*
X58574645Y-22077686D01*
X39781629Y-22205675D02*
X39780000Y-22270000D01*
X113189300Y-91910212D02*
X113246333Y-91880420D01*
X96312221Y-21598215D02*
X96279579Y-21653666D01*
X22014350Y-21025996D02*
X21951671Y-21040541D01*
X77346515Y-90898483D02*
X77354645Y-90962313D01*
X40324489Y-91812369D02*
X40378215Y-91847778D01*
X70405000Y-59020000D02*
X70405000Y-58020000D01*
X95118370Y-60225675D02*
X95113484Y-60161516D01*
X59329167Y-21102923D02*
X59270699Y-21129787D01*
X96773666Y-59179579D02*
X96718215Y-59212221D01*
X113893484Y-22141516D02*
X113885354Y-22077686D01*
X95113484Y-90898483D02*
X95118370Y-90834324D01*
X74535000Y-20000000D02*
X79105000Y-20000000D01*
X75450191Y-53961756D02*
X75511077Y-53940945D01*
X96469513Y-59415012D02*
X96426377Y-59462756D01*
X21828922Y-21079054D02*
X21769167Y-21102923D01*
X41585000Y-92040000D02*
X41585000Y-93040000D01*
X119880785Y-97235090D02*
X119895184Y-97138017D01*
X40175011Y-53670487D02*
X40222756Y-53713623D01*
X56608328Y-21040542D02*
X56545649Y-21025996D01*
X58662923Y-21769167D02*
X58639054Y-21828922D01*
X45625000Y-58020000D02*
X45625000Y-59020000D01*
X77365996Y-91025649D02*
X77380542Y-91088328D01*
X21306376Y-21442756D02*
X21265714Y-21492625D01*
X21058243Y-59909808D02*
X21040542Y-59971671D01*
X58955012Y-91690486D02*
X59002756Y-91733622D01*
X21710699Y-59149788D02*
X21653666Y-59179579D01*
X75070000Y-92040000D02*
X75134324Y-92038370D01*
X40433666Y-59179579D02*
X40378215Y-59212221D01*
X96385714Y-21492625D02*
X96347630Y-21544489D01*
X94724987Y-53670486D02*
X94770486Y-53624987D01*
X57332369Y-53475510D02*
X57367778Y-53421784D01*
X94960420Y-53366333D02*
X94990211Y-53309300D01*
X113301784Y-59212221D02*
X113246333Y-59179579D01*
X102055000Y-54019999D02*
X102055000Y-55020000D01*
X62365000Y-92040000D02*
X62830000Y-92040000D01*
X21159579Y-91386333D02*
X21192221Y-91441784D01*
X22077686Y-54005354D02*
X22141516Y-54013484D01*
X21025996Y-22014350D02*
X21014645Y-22077686D01*
X77365996Y-60034350D02*
X77354645Y-60097686D01*
X96347630Y-53475510D02*
X96385714Y-53527374D01*
X75847374Y-21265714D02*
X75795510Y-21227630D01*
X41585000Y-93040000D02*
X37015000Y-93040000D01*
X40433666Y-21159579D02*
X40378215Y-21192221D01*
X39882923Y-91270831D02*
X39909788Y-91329300D01*
X109630000Y-92040000D02*
X110135000Y-92040000D01*
X15004815Y-97138017D02*
X15019214Y-97235090D01*
X94770487Y-59415011D02*
X94724988Y-59369512D01*
X76281757Y-59909808D02*
X76260945Y-59848922D01*
X57367778Y-59618215D02*
X57332369Y-59564489D01*
X38739458Y-59971671D02*
X38721757Y-59909808D01*
X96948922Y-21079054D02*
X96889167Y-21102923D01*
X119856940Y-97330284D02*
X119880785Y-97235090D01*
X76299457Y-21951671D02*
X76281756Y-21889808D01*
X113893484Y-90898483D02*
X113898370Y-90834324D01*
X57501756Y-21889808D02*
X57480945Y-21828922D01*
X38473622Y-53577243D02*
X38514285Y-53527374D01*
X77938215Y-53827778D02*
X77993666Y-53860420D01*
X94724987Y-21349513D02*
X94677243Y-21306377D01*
X96347630Y-91495510D02*
X96385714Y-91547374D01*
X59270699Y-91910211D02*
X59329168Y-91937076D01*
X76210212Y-59730699D02*
X76180420Y-59673666D01*
X102055000Y-55020000D02*
X89275000Y-55020000D01*
X24765000Y-20000000D02*
X34975000Y-20000000D01*
X95017076Y-53250831D02*
X95040945Y-53191077D01*
X38739458Y-91088328D02*
X38754003Y-91025649D01*
X44050000Y-86380000D02*
X53290000Y-86380000D01*
X39909788Y-59730699D02*
X39882923Y-59789168D01*
X38677076Y-91270832D02*
X38700945Y-91211077D01*
X75897243Y-21306377D02*
X75847374Y-21265714D01*
X26845000Y-58020000D02*
X26845000Y-59020000D01*
X81610000Y-26660000D02*
X81610000Y-21000000D01*
X113593623Y-91597243D02*
X113634285Y-91547374D01*
X38384987Y-21349513D02*
X38337243Y-21306377D01*
X38126333Y-53860420D02*
X38181784Y-53827778D01*
X58955011Y-53670487D02*
X59002756Y-53713623D01*
X21951671Y-53979458D02*
X22014350Y-53994003D01*
X39909788Y-91329300D02*
X39939579Y-91386333D01*
X119781921Y-15528603D02*
X119731469Y-15444429D01*
X77340000Y-60290000D02*
X77340000Y-90770000D01*
X15901982Y-98035184D02*
X15999999Y-98040000D01*
X58560000Y-22270000D02*
X58560000Y-52750000D01*
X113071077Y-91960945D02*
X113130832Y-91937076D01*
X38739457Y-21951671D02*
X38721756Y-21889808D01*
X113770212Y-59730699D02*
X113740420Y-59673666D01*
X75570832Y-59122923D02*
X75511077Y-59099054D01*
X39972221Y-53421784D02*
X40007630Y-53475510D01*
X40007630Y-91495510D02*
X40045714Y-91547374D01*
X75944987Y-21349513D02*
X75897243Y-21306377D01*
X58600541Y-21951671D02*
X58585996Y-22014350D01*
X109630000Y-26660000D02*
X100390000Y-26660000D01*
X118900000Y-15000000D02*
X16000000Y-15000000D01*
X58689787Y-21710699D02*
X58662923Y-21769167D01*
X21040541Y-21951671D02*
X21025996Y-22014350D01*
X95118370Y-90834324D02*
X95119999Y-90770000D01*
X26935000Y-54019999D02*
X26935000Y-55020000D01*
X90850000Y-26660000D02*
X81610000Y-26660000D01*
X119371396Y-15118078D02*
X119282683Y-15076120D01*
X95061757Y-59909808D02*
X95040945Y-59848922D01*
X94291077Y-59099054D02*
X94230191Y-59078242D01*
X40985675Y-54018370D02*
X41050000Y-54019999D01*
X38235510Y-91812369D02*
X38287374Y-91774285D01*
X75847374Y-91774285D02*
X75897243Y-91733623D01*
X57367778Y-21598215D02*
X57332369Y-21544489D01*
X38430487Y-91644988D02*
X38473623Y-91597243D01*
X77605714Y-59512625D02*
X77567630Y-59564489D01*
X62830000Y-21000000D02*
X62325000Y-21000000D01*
X96469512Y-21395011D02*
X96426376Y-21442756D01*
X59329167Y-53917076D02*
X59388922Y-53940945D01*
X77532221Y-91441784D02*
X77567630Y-91495510D01*
X91355000Y-92040000D02*
X91355000Y-93040000D01*
X57332369Y-21544489D02*
X57294285Y-21492625D01*
X95094003Y-53005649D02*
X95105354Y-52942313D01*
X112885649Y-92014003D02*
X112948328Y-91999458D01*
X95094003Y-91025649D02*
X95105354Y-90962313D01*
X94627374Y-59285714D02*
X94575510Y-59247630D01*
X96426376Y-21442756D02*
X96385714Y-21492625D01*
X96664489Y-91812369D02*
X96718215Y-91847778D01*
X58639054Y-21828922D02*
X58618242Y-21889808D01*
X94105649Y-92014003D02*
X94168328Y-91999458D01*
X75388328Y-59060541D02*
X75325649Y-59045996D01*
X58574645Y-60097686D02*
X58566515Y-60161516D01*
X57558370Y-90834324D02*
X57559999Y-90770000D01*
X75450191Y-91981757D02*
X75511077Y-91960945D01*
X113707778Y-21598215D02*
X113672369Y-21544489D01*
X41050000Y-21000000D02*
X40985675Y-21001629D01*
X21349513Y-91644987D02*
X21395012Y-91690486D01*
X59270699Y-53890212D02*
X59329167Y-53917076D01*
X39859054Y-21828922D02*
X39838242Y-21889808D01*
X22270000Y-54019999D02*
X26935000Y-54019999D01*
X56290000Y-21000000D02*
X55755000Y-21000000D01*
X58561630Y-90834324D02*
X58566515Y-90898483D01*
X32935000Y-55020000D02*
X32935000Y-54019999D01*
X96145996Y-60034350D02*
X96134645Y-60097686D01*
X57558369Y-52814324D02*
X57560000Y-52750000D01*
X56290000Y-59020000D02*
X51625000Y-59020000D01*
X40669808Y-53961757D02*
X40731671Y-53979458D01*
X21769167Y-53917076D02*
X21828922Y-53940945D01*
X56482313Y-21014645D02*
X56418483Y-21006515D01*
X113457243Y-53713622D02*
X113504987Y-53670486D01*
X94854285Y-53527374D02*
X94892369Y-53475510D01*
X75629300Y-59149787D02*
X75570832Y-59122923D01*
X113900000Y-22270000D02*
X113898369Y-22205675D01*
X40378215Y-59212221D02*
X40324489Y-59247630D01*
X20000000Y-20000000D02*
X22765000Y-20000000D01*
X77419054Y-59848922D02*
X77398243Y-59909808D01*
X58787630Y-91495510D02*
X58825714Y-91547374D01*
X113859458Y-91088328D02*
X113874003Y-91025649D01*
X75570831Y-21102923D02*
X75511077Y-21079054D01*
X96279579Y-59673666D02*
X96249788Y-59730699D01*
X100390000Y-21000000D02*
X99885000Y-21000000D01*
X56849300Y-53890211D02*
X56906333Y-53860420D01*
X15444429Y-97871469D02*
X15528603Y-97921921D01*
X38778370Y-60225675D02*
X38773484Y-60161516D01*
X75990486Y-53624987D02*
X76033622Y-53577243D01*
X96426376Y-53577243D02*
X96469512Y-53624988D01*
X90850000Y-92040000D02*
X91355000Y-92040000D01*
X76147778Y-59618215D02*
X76112369Y-59564489D01*
X94230191Y-53961756D02*
X94291077Y-53940945D01*
X58866376Y-53577243D02*
X58909512Y-53624988D01*
X53290000Y-86380000D02*
X53290000Y-92040000D01*
X38552369Y-59564489D02*
X38514285Y-59512625D01*
X75795510Y-21227630D02*
X75741784Y-21192221D01*
X57367778Y-53421784D02*
X57400420Y-53366333D01*
X57253623Y-59462756D02*
X57210487Y-59415011D01*
X21598215Y-53827778D02*
X21653666Y-53860420D01*
X22014350Y-53994003D02*
X22077686Y-54005354D01*
X77832625Y-91774285D02*
X77884489Y-91812369D01*
X38587778Y-53421784D02*
X38620420Y-53366333D01*
X110135000Y-93040000D02*
X99925000Y-93040000D01*
X40007630Y-21544489D02*
X39972221Y-21598215D01*
X93355000Y-93040000D02*
X93355000Y-92040000D01*
X93914324Y-21001630D02*
X93850000Y-21000000D01*
X59830000Y-21000000D02*
X59765675Y-21001629D01*
X58909512Y-21395011D02*
X58866376Y-21442756D01*
X58585996Y-60034350D02*
X58574645Y-60097686D01*
X113246333Y-53860420D02*
X113301784Y-53827778D01*
X94813622Y-53577243D02*
X94854285Y-53527374D01*
X38700945Y-59848922D02*
X38677076Y-59789167D01*
X38778369Y-22205675D02*
X38773484Y-22141516D01*
X21000000Y-60290000D02*
X21000000Y-90770000D01*
X22270000Y-59020000D02*
X22205675Y-59021630D01*
X113634285Y-59512625D02*
X113593623Y-59462756D01*
X75944988Y-59369512D02*
X75897243Y-59326376D01*
X38126333Y-21159579D02*
X38069300Y-21129788D01*
X21058242Y-53130191D02*
X21079054Y-53191077D01*
X56418483Y-92033484D02*
X56482313Y-92025354D01*
X77442923Y-21769167D02*
X77419054Y-21828922D01*
X15804909Y-15019214D02*
X15709715Y-15043059D01*
X119895184Y-15901982D02*
X119880785Y-15804909D01*
X38010831Y-21102923D02*
X37951077Y-21079054D01*
X77341629Y-22205675D02*
X77340000Y-22270000D01*
X113898370Y-90834324D02*
X113899999Y-90770000D01*
X76338370Y-90834324D02*
X76339999Y-90770000D01*
X78109167Y-21102923D02*
X78050699Y-21129787D01*
X57558370Y-60225675D02*
X57553484Y-60161516D01*
X40272625Y-91774285D02*
X40324489Y-91812369D01*
X94042313Y-59034645D02*
X93978483Y-59026515D01*
X56545649Y-92014003D02*
X56608328Y-91999458D01*
X59830000Y-54019999D02*
X64495000Y-54019999D01*
X20000000Y-58020000D02*
X26845000Y-58020000D01*
X56961784Y-21192221D02*
X56906333Y-21159579D01*
X112694324Y-59021629D02*
X112630000Y-59020000D01*
X58787630Y-21544489D02*
X58752221Y-21598215D01*
X56608328Y-91999458D02*
X56670191Y-91981757D01*
X77419054Y-53191077D02*
X77442923Y-53250832D01*
X40985675Y-21001629D02*
X40921516Y-21006515D01*
X94575510Y-21227630D02*
X94521784Y-21192221D01*
X20000000Y-93040000D02*
X20000000Y-58020000D01*
X21040541Y-53068328D02*
X21058242Y-53130191D01*
X21395011Y-53670487D02*
X21442756Y-53713623D01*
X113893484Y-52878483D02*
X113898369Y-52814324D01*
X78481516Y-92033484D02*
X78545675Y-92038369D01*
X15292893Y-97747106D02*
X15365606Y-97813010D01*
X21889808Y-91981756D02*
X21951671Y-91999457D01*
X21102923Y-21769167D02*
X21079054Y-21828922D01*
X96120000Y-90770000D02*
X96121630Y-90834324D01*
X76147778Y-91441784D02*
X76180420Y-91386333D01*
X39882923Y-21769167D02*
X39859054Y-21828922D01*
X22077686Y-92025354D02*
X22141516Y-92033484D01*
X59002756Y-21306376D02*
X58955011Y-21349512D01*
X97071671Y-53979458D02*
X97134350Y-53994003D01*
X57210486Y-53624987D02*
X57253622Y-53577243D01*
X77689512Y-21395011D02*
X77646376Y-21442756D01*
X15168530Y-15444429D02*
X15118078Y-15528603D01*
X57534003Y-53005649D02*
X57545354Y-52942313D01*
X40324489Y-59247630D02*
X40272625Y-59285714D01*
X96145996Y-22014350D02*
X96134645Y-22077686D01*
X113797076Y-91270832D02*
X113820945Y-91211077D01*
X59213666Y-53860420D02*
X59270699Y-53890212D01*
X37951077Y-59099054D02*
X37890191Y-59078242D01*
X113841756Y-21889808D02*
X113820945Y-21828922D01*
X39781630Y-90834324D02*
X39786515Y-90898483D01*
X77346515Y-22141516D02*
X77341629Y-22205675D01*
X40731671Y-21040541D02*
X40669808Y-21058242D01*
X37828328Y-91999458D02*
X37890191Y-91981757D01*
X77341630Y-90834324D02*
X77346515Y-90898483D01*
X96279579Y-91386333D02*
X96312221Y-91441784D01*
X62830000Y-92040000D02*
X62830000Y-86380000D01*
X94770486Y-53624987D02*
X94813622Y-53577243D01*
X22205675Y-59021630D02*
X22141516Y-59026515D01*
X93850000Y-59020000D02*
X89185000Y-59020000D01*
X21006515Y-22141516D02*
X21001629Y-22205675D01*
X77646377Y-91597243D02*
X77689513Y-91644987D01*
X37765649Y-21025996D02*
X37702313Y-21014645D01*
X97325675Y-54018370D02*
X97390000Y-54019999D01*
X57067374Y-59285714D02*
X57015510Y-59247630D01*
X112948328Y-91999458D02*
X113010191Y-91981757D01*
X58574645Y-90962313D02*
X58585996Y-91025649D01*
X76281757Y-91150191D02*
X76299458Y-91088328D01*
X57501756Y-53130191D02*
X57519457Y-53068328D01*
X95113484Y-52878483D02*
X95118369Y-52814324D01*
X93978483Y-92033484D02*
X94042313Y-92025354D01*
X95061756Y-21889808D02*
X95040945Y-21828922D01*
X38235510Y-53792369D02*
X38287374Y-53754285D01*
X62830000Y-26660000D02*
X62830000Y-21000000D01*
X21014645Y-52942313D02*
X21025996Y-53005649D01*
X58752221Y-91441784D02*
X58787630Y-91495510D01*
X56906333Y-59179579D02*
X56849300Y-59149787D01*
X76210212Y-91329300D02*
X76237076Y-91270832D01*
X37765649Y-92014003D02*
X37828328Y-91999458D01*
X39781630Y-60225675D02*
X39780000Y-60290000D01*
X76314003Y-91025649D02*
X76325354Y-90962313D01*
X22205675Y-54018370D02*
X22270000Y-54019999D01*
X81610000Y-21000000D02*
X81105000Y-21000000D01*
X56354324Y-54018369D02*
X56418483Y-54013484D01*
X78354350Y-21025996D02*
X78291671Y-21040541D01*
X78545675Y-54018370D02*
X78610000Y-54019999D01*
X32845000Y-59020000D02*
X32845000Y-58020000D01*
X70495000Y-55020000D02*
X70495000Y-54019999D01*
X75741784Y-21192221D02*
X75686333Y-21159579D01*
X94409300Y-21129788D02*
X94350831Y-21102923D01*
X39794645Y-90962313D02*
X39805996Y-91025649D01*
X96612625Y-21265714D02*
X96562756Y-21306376D01*
X57553484Y-90898483D02*
X57558370Y-90834324D01*
X55795000Y-92040000D02*
X56290000Y-92040000D01*
X16000000Y-15000000D02*
X15901982Y-15004815D01*
X75990487Y-91644988D02*
X76033623Y-91597243D01*
X113550486Y-21395012D02*
X113504987Y-21349513D01*
X76314003Y-53005649D02*
X76325354Y-52942313D01*
X119856940Y-15709715D02*
X119823879Y-15617316D01*
X75070000Y-21000000D02*
X74535000Y-21000000D01*
X75795510Y-59247630D02*
X75741784Y-59212221D01*
X40857686Y-54005354D02*
X40921516Y-54013484D01*
X59574350Y-59045996D02*
X59511671Y-59060542D01*
X38650212Y-91329300D02*
X38677076Y-91270832D01*
X76210211Y-53309300D02*
X76237076Y-53250831D01*
X112630000Y-59020000D02*
X107965000Y-59020000D01*
M02*
