%TF.GenerationSoftware,KiCad,Pcbnew,(6.0.7)*%
%TF.CreationDate,2022-09-17T18:54:00+02:00*%
%TF.ProjectId,panel,70616e65-6c2e-46b6-9963-61645f706362,rev1.0*%
%TF.SameCoordinates,Original*%
%TF.FileFunction,Soldermask,Top*%
%TF.FilePolarity,Negative*%
%FSLAX46Y46*%
G04 Gerber Fmt 4.6, Leading zero omitted, Abs format (unit mm)*
G04 Created by KiCad (PCBNEW (6.0.7)) date 2022-09-17 18:54:00*
%MOMM*%
%LPD*%
G01*
G04 APERTURE LIST*
G04 Aperture macros list*
%AMRoundRect*
0 Rectangle with rounded corners*
0 $1 Rounding radius*
0 $2 $3 $4 $5 $6 $7 $8 $9 X,Y pos of 4 corners*
0 Add a 4 corners polygon primitive as box body*
4,1,4,$2,$3,$4,$5,$6,$7,$8,$9,$2,$3,0*
0 Add four circle primitives for the rounded corners*
1,1,$1+$1,$2,$3*
1,1,$1+$1,$4,$5*
1,1,$1+$1,$6,$7*
1,1,$1+$1,$8,$9*
0 Add four rect primitives between the rounded corners*
20,1,$1+$1,$2,$3,$4,$5,0*
20,1,$1+$1,$4,$5,$6,$7,0*
20,1,$1+$1,$6,$7,$8,$9,0*
20,1,$1+$1,$8,$9,$2,$3,0*%
%AMFreePoly0*
4,1,6,1.000000,0.000000,0.500000,-0.750000,-0.500000,-0.750000,-0.500000,0.750000,0.500000,0.750000,1.000000,0.000000,1.000000,0.000000,$1*%
%AMFreePoly1*
4,1,6,0.500000,-0.750000,-0.650000,-0.750000,-0.150000,0.000000,-0.650000,0.750000,0.500000,0.750000,0.500000,-0.750000,0.500000,-0.750000,$1*%
G04 Aperture macros list end*
%ADD10C,0.010000*%
%ADD11RoundRect,0.140000X-0.140000X-0.170000X0.140000X-0.170000X0.140000X0.170000X-0.140000X0.170000X0*%
%ADD12FreePoly0,90.000000*%
%ADD13FreePoly1,90.000000*%
%ADD14RoundRect,0.050000X-0.387500X-0.050000X0.387500X-0.050000X0.387500X0.050000X-0.387500X0.050000X0*%
%ADD15RoundRect,0.050000X-0.050000X-0.387500X0.050000X-0.387500X0.050000X0.387500X-0.050000X0.387500X0*%
%ADD16R,3.200000X3.200000*%
%ADD17RoundRect,0.137500X-0.137500X0.212500X-0.137500X-0.212500X0.137500X-0.212500X0.137500X0.212500X0*%
%ADD18RoundRect,0.135000X-0.185000X0.135000X-0.185000X-0.135000X0.185000X-0.135000X0.185000X0.135000X0*%
%ADD19RoundRect,0.135000X-0.135000X-0.185000X0.135000X-0.185000X0.135000X0.185000X-0.135000X0.185000X0*%
%ADD20RoundRect,0.140000X0.140000X0.170000X-0.140000X0.170000X-0.140000X-0.170000X0.140000X-0.170000X0*%
%ADD21RoundRect,0.135000X0.185000X-0.135000X0.185000X0.135000X-0.185000X0.135000X-0.185000X-0.135000X0*%
%ADD22R,0.500000X0.375000*%
%ADD23R,0.650000X0.300000*%
%ADD24R,1.150000X1.000000*%
%ADD25R,0.340000X0.700000*%
%ADD26RoundRect,0.140000X0.170000X-0.140000X0.170000X0.140000X-0.170000X0.140000X-0.170000X-0.140000X0*%
%ADD27RoundRect,0.135000X0.135000X0.185000X-0.135000X0.185000X-0.135000X-0.185000X0.135000X-0.185000X0*%
%ADD28RoundRect,0.140000X-0.170000X0.140000X-0.170000X-0.140000X0.170000X-0.140000X0.170000X0.140000X0*%
%ADD29C,1.752600*%
%ADD30RoundRect,0.218750X0.218750X0.256250X-0.218750X0.256250X-0.218750X-0.256250X0.218750X-0.256250X0*%
%ADD31RoundRect,0.026400X0.493600X0.193600X-0.493600X0.193600X-0.493600X-0.193600X0.493600X-0.193600X0*%
%ADD32R,3.400000X4.300000*%
%ADD33RoundRect,0.147500X0.172500X-0.147500X0.172500X0.147500X-0.172500X0.147500X-0.172500X-0.147500X0*%
%ADD34R,0.600000X1.150000*%
%ADD35R,0.300000X1.150000*%
%ADD36O,1.000000X1.700000*%
%ADD37O,1.000000X2.100000*%
%ADD38RoundRect,0.050000X0.387500X0.050000X-0.387500X0.050000X-0.387500X-0.050000X0.387500X-0.050000X0*%
%ADD39RoundRect,0.050000X0.050000X0.387500X-0.050000X0.387500X-0.050000X-0.387500X0.050000X-0.387500X0*%
%ADD40RoundRect,0.218750X-0.218750X-0.256250X0.218750X-0.256250X0.218750X0.256250X-0.218750X0.256250X0*%
%ADD41RoundRect,0.137500X0.137500X-0.212500X0.137500X0.212500X-0.137500X0.212500X-0.137500X-0.212500X0*%
%ADD42C,2.000000*%
%ADD43RoundRect,0.147500X-0.172500X0.147500X-0.172500X-0.147500X0.172500X-0.147500X0.172500X0.147500X0*%
%ADD44RoundRect,0.026400X-0.493600X-0.193600X0.493600X-0.193600X0.493600X0.193600X-0.493600X0.193600X0*%
%ADD45FreePoly0,270.000000*%
%ADD46FreePoly1,270.000000*%
G04 APERTURE END LIST*
%TO.C,U2*%
G36*
X44590000Y-79905000D02*
G01*
X44345000Y-80155000D01*
X44065000Y-80155000D01*
X44065000Y-79775000D01*
X44590000Y-79775000D01*
X44590000Y-79905000D01*
G37*
G36*
X45138143Y-80253143D02*
G01*
X44725000Y-80666286D01*
X44311857Y-80253143D01*
X44725000Y-79840001D01*
X45138143Y-80253143D01*
G37*
D10*
X45138143Y-80253143D02*
X44725000Y-80666286D01*
X44311857Y-80253143D01*
X44725000Y-79840001D01*
X45138143Y-80253143D01*
G36*
X45385000Y-80155000D02*
G01*
X45105000Y-80155000D01*
X44860000Y-79905000D01*
X44860000Y-79775000D01*
X45385000Y-79775000D01*
X45385000Y-80155000D01*
G37*
G36*
X44590000Y-80605000D02*
G01*
X44590000Y-80735000D01*
X44065000Y-80735000D01*
X44065000Y-80355000D01*
X44345000Y-80355000D01*
X44590000Y-80605000D01*
G37*
G36*
X45385000Y-80735000D02*
G01*
X44860000Y-80735000D01*
X44860000Y-80605000D01*
X45105000Y-80355000D01*
X45385000Y-80355000D01*
X45385000Y-80735000D01*
G37*
G36*
X34495000Y-32685000D02*
G01*
X34215000Y-32685000D01*
X33970000Y-32435000D01*
X33970000Y-32305000D01*
X34495000Y-32305000D01*
X34495000Y-32685000D01*
G37*
G36*
X33700000Y-32435000D02*
G01*
X33455000Y-32685000D01*
X33175000Y-32685000D01*
X33175000Y-32305000D01*
X33700000Y-32305000D01*
X33700000Y-32435000D01*
G37*
G36*
X33700000Y-33135000D02*
G01*
X33700000Y-33265000D01*
X33175000Y-33265000D01*
X33175000Y-32885000D01*
X33455000Y-32885000D01*
X33700000Y-33135000D01*
G37*
G36*
X34495000Y-33265000D02*
G01*
X33970000Y-33265000D01*
X33970000Y-33135000D01*
X34215000Y-32885000D01*
X34495000Y-32885000D01*
X34495000Y-33265000D01*
G37*
G36*
X34248143Y-32786857D02*
G01*
X33835000Y-33199999D01*
X33421857Y-32786857D01*
X33835000Y-32373714D01*
X34248143Y-32786857D01*
G37*
X34248143Y-32786857D02*
X33835000Y-33199999D01*
X33421857Y-32786857D01*
X33835000Y-32373714D01*
X34248143Y-32786857D01*
G36*
X101478143Y-80253143D02*
G01*
X101065000Y-80666286D01*
X100651857Y-80253143D01*
X101065000Y-79840001D01*
X101478143Y-80253143D01*
G37*
X101478143Y-80253143D02*
X101065000Y-80666286D01*
X100651857Y-80253143D01*
X101065000Y-79840001D01*
X101478143Y-80253143D01*
G36*
X100930000Y-79905000D02*
G01*
X100685000Y-80155000D01*
X100405000Y-80155000D01*
X100405000Y-79775000D01*
X100930000Y-79775000D01*
X100930000Y-79905000D01*
G37*
G36*
X100930000Y-80605000D02*
G01*
X100930000Y-80735000D01*
X100405000Y-80735000D01*
X100405000Y-80355000D01*
X100685000Y-80355000D01*
X100930000Y-80605000D01*
G37*
G36*
X101725000Y-80735000D02*
G01*
X101200000Y-80735000D01*
X101200000Y-80605000D01*
X101445000Y-80355000D01*
X101725000Y-80355000D01*
X101725000Y-80735000D01*
G37*
G36*
X101725000Y-80155000D02*
G01*
X101445000Y-80155000D01*
X101200000Y-79905000D01*
X101200000Y-79775000D01*
X101725000Y-79775000D01*
X101725000Y-80155000D01*
G37*
G36*
X63370000Y-80605000D02*
G01*
X63370000Y-80735000D01*
X62845000Y-80735000D01*
X62845000Y-80355000D01*
X63125000Y-80355000D01*
X63370000Y-80605000D01*
G37*
G36*
X63370000Y-79905000D02*
G01*
X63125000Y-80155000D01*
X62845000Y-80155000D01*
X62845000Y-79775000D01*
X63370000Y-79775000D01*
X63370000Y-79905000D01*
G37*
G36*
X64165000Y-80155000D02*
G01*
X63885000Y-80155000D01*
X63640000Y-79905000D01*
X63640000Y-79775000D01*
X64165000Y-79775000D01*
X64165000Y-80155000D01*
G37*
G36*
X64165000Y-80735000D02*
G01*
X63640000Y-80735000D01*
X63640000Y-80605000D01*
X63885000Y-80355000D01*
X64165000Y-80355000D01*
X64165000Y-80735000D01*
G37*
G36*
X63918143Y-80253143D02*
G01*
X63505000Y-80666286D01*
X63091857Y-80253143D01*
X63505000Y-79840001D01*
X63918143Y-80253143D01*
G37*
X63918143Y-80253143D02*
X63505000Y-80666286D01*
X63091857Y-80253143D01*
X63505000Y-79840001D01*
X63918143Y-80253143D01*
G36*
X90588143Y-32786857D02*
G01*
X90175000Y-33199999D01*
X89761857Y-32786857D01*
X90175000Y-32373714D01*
X90588143Y-32786857D01*
G37*
X90588143Y-32786857D02*
X90175000Y-33199999D01*
X89761857Y-32786857D01*
X90175000Y-32373714D01*
X90588143Y-32786857D01*
G36*
X90040000Y-32435000D02*
G01*
X89795000Y-32685000D01*
X89515000Y-32685000D01*
X89515000Y-32305000D01*
X90040000Y-32305000D01*
X90040000Y-32435000D01*
G37*
G36*
X90835000Y-32685000D02*
G01*
X90555000Y-32685000D01*
X90310000Y-32435000D01*
X90310000Y-32305000D01*
X90835000Y-32305000D01*
X90835000Y-32685000D01*
G37*
G36*
X90040000Y-33135000D02*
G01*
X90040000Y-33265000D01*
X89515000Y-33265000D01*
X89515000Y-32885000D01*
X89795000Y-32885000D01*
X90040000Y-33135000D01*
G37*
G36*
X90835000Y-33265000D02*
G01*
X90310000Y-33265000D01*
X90310000Y-33135000D01*
X90555000Y-32885000D01*
X90835000Y-32885000D01*
X90835000Y-33265000D01*
G37*
G36*
X25810000Y-79905000D02*
G01*
X25565000Y-80155000D01*
X25285000Y-80155000D01*
X25285000Y-79775000D01*
X25810000Y-79775000D01*
X25810000Y-79905000D01*
G37*
G36*
X26605000Y-80155000D02*
G01*
X26325000Y-80155000D01*
X26080000Y-79905000D01*
X26080000Y-79775000D01*
X26605000Y-79775000D01*
X26605000Y-80155000D01*
G37*
G36*
X26605000Y-80735000D02*
G01*
X26080000Y-80735000D01*
X26080000Y-80605000D01*
X26325000Y-80355000D01*
X26605000Y-80355000D01*
X26605000Y-80735000D01*
G37*
G36*
X26358143Y-80253143D02*
G01*
X25945000Y-80666286D01*
X25531857Y-80253143D01*
X25945000Y-79840001D01*
X26358143Y-80253143D01*
G37*
X26358143Y-80253143D02*
X25945000Y-80666286D01*
X25531857Y-80253143D01*
X25945000Y-79840001D01*
X26358143Y-80253143D01*
G36*
X25810000Y-80605000D02*
G01*
X25810000Y-80735000D01*
X25285000Y-80735000D01*
X25285000Y-80355000D01*
X25565000Y-80355000D01*
X25810000Y-80605000D01*
G37*
G36*
X53275000Y-33265000D02*
G01*
X52750000Y-33265000D01*
X52750000Y-33135000D01*
X52995000Y-32885000D01*
X53275000Y-32885000D01*
X53275000Y-33265000D01*
G37*
G36*
X52480000Y-32435000D02*
G01*
X52235000Y-32685000D01*
X51955000Y-32685000D01*
X51955000Y-32305000D01*
X52480000Y-32305000D01*
X52480000Y-32435000D01*
G37*
G36*
X53028143Y-32786857D02*
G01*
X52615000Y-33199999D01*
X52201857Y-32786857D01*
X52615000Y-32373714D01*
X53028143Y-32786857D01*
G37*
X53028143Y-32786857D02*
X52615000Y-33199999D01*
X52201857Y-32786857D01*
X52615000Y-32373714D01*
X53028143Y-32786857D01*
G36*
X52480000Y-33135000D02*
G01*
X52480000Y-33265000D01*
X51955000Y-33265000D01*
X51955000Y-32885000D01*
X52235000Y-32885000D01*
X52480000Y-33135000D01*
G37*
G36*
X53275000Y-32685000D02*
G01*
X52995000Y-32685000D01*
X52750000Y-32435000D01*
X52750000Y-32305000D01*
X53275000Y-32305000D01*
X53275000Y-32685000D01*
G37*
G36*
X71260000Y-33135000D02*
G01*
X71260000Y-33265000D01*
X70735000Y-33265000D01*
X70735000Y-32885000D01*
X71015000Y-32885000D01*
X71260000Y-33135000D01*
G37*
G36*
X71260000Y-32435000D02*
G01*
X71015000Y-32685000D01*
X70735000Y-32685000D01*
X70735000Y-32305000D01*
X71260000Y-32305000D01*
X71260000Y-32435000D01*
G37*
G36*
X72055000Y-32685000D02*
G01*
X71775000Y-32685000D01*
X71530000Y-32435000D01*
X71530000Y-32305000D01*
X72055000Y-32305000D01*
X72055000Y-32685000D01*
G37*
G36*
X72055000Y-33265000D02*
G01*
X71530000Y-33265000D01*
X71530000Y-33135000D01*
X71775000Y-32885000D01*
X72055000Y-32885000D01*
X72055000Y-33265000D01*
G37*
G36*
X71808143Y-32786857D02*
G01*
X71395000Y-33199999D01*
X70981857Y-32786857D01*
X71395000Y-32373714D01*
X71808143Y-32786857D01*
G37*
X71808143Y-32786857D02*
X71395000Y-33199999D01*
X70981857Y-32786857D01*
X71395000Y-32373714D01*
X71808143Y-32786857D01*
G36*
X109368143Y-32786857D02*
G01*
X108955000Y-33199999D01*
X108541857Y-32786857D01*
X108955000Y-32373714D01*
X109368143Y-32786857D01*
G37*
X109368143Y-32786857D02*
X108955000Y-33199999D01*
X108541857Y-32786857D01*
X108955000Y-32373714D01*
X109368143Y-32786857D01*
G36*
X108820000Y-33135000D02*
G01*
X108820000Y-33265000D01*
X108295000Y-33265000D01*
X108295000Y-32885000D01*
X108575000Y-32885000D01*
X108820000Y-33135000D01*
G37*
G36*
X109615000Y-33265000D02*
G01*
X109090000Y-33265000D01*
X109090000Y-33135000D01*
X109335000Y-32885000D01*
X109615000Y-32885000D01*
X109615000Y-33265000D01*
G37*
G36*
X108820000Y-32435000D02*
G01*
X108575000Y-32685000D01*
X108295000Y-32685000D01*
X108295000Y-32305000D01*
X108820000Y-32305000D01*
X108820000Y-32435000D01*
G37*
G36*
X109615000Y-32685000D02*
G01*
X109335000Y-32685000D01*
X109090000Y-32435000D01*
X109090000Y-32305000D01*
X109615000Y-32305000D01*
X109615000Y-32685000D01*
G37*
G36*
X82698143Y-80253143D02*
G01*
X82285000Y-80666286D01*
X81871857Y-80253143D01*
X82285000Y-79840001D01*
X82698143Y-80253143D01*
G37*
X82698143Y-80253143D02*
X82285000Y-80666286D01*
X81871857Y-80253143D01*
X82285000Y-79840001D01*
X82698143Y-80253143D01*
G36*
X82150000Y-79905000D02*
G01*
X81905000Y-80155000D01*
X81625000Y-80155000D01*
X81625000Y-79775000D01*
X82150000Y-79775000D01*
X82150000Y-79905000D01*
G37*
G36*
X82150000Y-80605000D02*
G01*
X82150000Y-80735000D01*
X81625000Y-80735000D01*
X81625000Y-80355000D01*
X81905000Y-80355000D01*
X82150000Y-80605000D01*
G37*
G36*
X82945000Y-80735000D02*
G01*
X82420000Y-80735000D01*
X82420000Y-80605000D01*
X82665000Y-80355000D01*
X82945000Y-80355000D01*
X82945000Y-80735000D01*
G37*
G36*
X82945000Y-80155000D02*
G01*
X82665000Y-80155000D01*
X82420000Y-79905000D01*
X82420000Y-79775000D01*
X82945000Y-79775000D01*
X82945000Y-80155000D01*
G37*
%TD*%
D11*
%TO.C,C1*%
X72025000Y-83780000D03*
X72985000Y-83780000D03*
%TD*%
D12*
%TO.C,JP1*%
X91975000Y-80025000D03*
D13*
X91975000Y-78575000D03*
%TD*%
D14*
%TO.C,U4*%
X101642500Y-41210000D03*
X101642500Y-41610000D03*
X101642500Y-42010000D03*
X101642500Y-42410000D03*
X101642500Y-42810000D03*
X101642500Y-43210000D03*
X101642500Y-43610000D03*
X101642500Y-44010000D03*
X101642500Y-44410000D03*
X101642500Y-44810000D03*
X101642500Y-45210000D03*
X101642500Y-45610000D03*
X101642500Y-46010000D03*
X101642500Y-46410000D03*
D15*
X102480000Y-47247500D03*
X102880000Y-47247500D03*
X103280000Y-47247500D03*
X103680000Y-47247500D03*
X104080000Y-47247500D03*
X104480000Y-47247500D03*
X104880000Y-47247500D03*
X105280000Y-47247500D03*
X105680000Y-47247500D03*
X106080000Y-47247500D03*
X106480000Y-47247500D03*
X106880000Y-47247500D03*
X107280000Y-47247500D03*
X107680000Y-47247500D03*
D14*
X108517500Y-46410000D03*
X108517500Y-46010000D03*
X108517500Y-45610000D03*
X108517500Y-45210000D03*
X108517500Y-44810000D03*
X108517500Y-44410000D03*
X108517500Y-44010000D03*
X108517500Y-43610000D03*
X108517500Y-43210000D03*
X108517500Y-42810000D03*
X108517500Y-42410000D03*
X108517500Y-42010000D03*
X108517500Y-41610000D03*
X108517500Y-41210000D03*
D15*
X107680000Y-40372500D03*
X107280000Y-40372500D03*
X106880000Y-40372500D03*
X106480000Y-40372500D03*
X106080000Y-40372500D03*
X105680000Y-40372500D03*
X105280000Y-40372500D03*
X104880000Y-40372500D03*
X104480000Y-40372500D03*
X104080000Y-40372500D03*
X103680000Y-40372500D03*
X103280000Y-40372500D03*
X102880000Y-40372500D03*
X102480000Y-40372500D03*
D16*
X105080000Y-43810000D03*
%TD*%
D17*
%TO.C,SW1*%
X92280000Y-51010000D03*
X92280000Y-48310000D03*
X91130000Y-51010000D03*
X91130000Y-48310000D03*
%TD*%
D18*
%TO.C,R11*%
X108890000Y-78220000D03*
X108890000Y-79240000D03*
%TD*%
D19*
%TO.C,R16*%
X80775000Y-66780000D03*
X81795000Y-66780000D03*
%TD*%
D20*
%TO.C,C12*%
X81765000Y-68230000D03*
X80805000Y-68230000D03*
%TD*%
D21*
%TO.C,R11*%
X26010000Y-34820000D03*
X26010000Y-33800000D03*
%TD*%
D22*
%TO.C,U1*%
X105865000Y-81867500D03*
D23*
X105940000Y-81330000D03*
D22*
X105865000Y-80792500D03*
X104165000Y-80792500D03*
D23*
X104090000Y-81330000D03*
D22*
X104165000Y-81867500D03*
%TD*%
D24*
%TO.C,Y1*%
X45990000Y-51160000D03*
X47740000Y-51160000D03*
X47740000Y-49760000D03*
X45990000Y-49760000D03*
%TD*%
D25*
%TO.C,U5*%
X25160000Y-37510000D03*
X25660000Y-37510000D03*
X26160000Y-37510000D03*
X26160000Y-36010000D03*
X25660000Y-36010000D03*
X25160000Y-36010000D03*
%TD*%
D11*
%TO.C,C4*%
X90685000Y-31770000D03*
X91645000Y-31770000D03*
%TD*%
D26*
%TO.C,C11*%
X85985000Y-64810000D03*
X85985000Y-63850000D03*
%TD*%
%TO.C,C6*%
X25945000Y-79230000D03*
X25945000Y-78270000D03*
%TD*%
D18*
%TO.C,R4*%
X72005000Y-81045000D03*
X72005000Y-82065000D03*
%TD*%
%TO.C,R11*%
X33770000Y-78220000D03*
X33770000Y-79240000D03*
%TD*%
D11*
%TO.C,C1*%
X34465000Y-83780000D03*
X35425000Y-83780000D03*
%TD*%
D27*
%TO.C,R16*%
X54125000Y-46260000D03*
X53105000Y-46260000D03*
%TD*%
%TO.C,R5*%
X25345000Y-30135000D03*
X24325000Y-30135000D03*
%TD*%
D18*
%TO.C,R11*%
X90110000Y-78220000D03*
X90110000Y-79240000D03*
%TD*%
D11*
%TO.C,C12*%
X53135000Y-44810000D03*
X54095000Y-44810000D03*
%TD*%
D20*
%TO.C,C2*%
X33650000Y-83455000D03*
X32690000Y-83455000D03*
%TD*%
D28*
%TO.C,C3*%
X99205000Y-83190000D03*
X99205000Y-84150000D03*
%TD*%
D27*
%TO.C,R17*%
X63015000Y-65905000D03*
X61995000Y-65905000D03*
%TD*%
D21*
%TO.C,R2*%
X27785000Y-32270000D03*
X27785000Y-31250000D03*
%TD*%
D26*
%TO.C,C14*%
X30335000Y-39390000D03*
X30335000Y-38430000D03*
%TD*%
D29*
%TO.C,J2*%
X56290000Y-90770000D03*
X56290000Y-88230000D03*
X56290000Y-85690000D03*
X56290000Y-83150000D03*
X56290000Y-80610000D03*
X56290000Y-78070000D03*
X56290000Y-75530000D03*
X56290000Y-72990000D03*
X56290000Y-70450000D03*
X56290000Y-67910000D03*
X56290000Y-65370000D03*
X56290000Y-62830000D03*
X56290000Y-60290000D03*
X53750000Y-60290000D03*
X51210000Y-60290000D03*
X48670000Y-60290000D03*
X46130000Y-60290000D03*
X43590000Y-60290000D03*
X41050000Y-60290000D03*
X41050000Y-62830000D03*
X41050000Y-65370000D03*
X41050000Y-67910000D03*
X41050000Y-70450000D03*
X41050000Y-72990000D03*
X41050000Y-75530000D03*
X41050000Y-78070000D03*
X41050000Y-80610000D03*
X41050000Y-83150000D03*
X41050000Y-85690000D03*
X41050000Y-88230000D03*
X41050000Y-90770000D03*
X53745000Y-62830000D03*
X47400000Y-83150000D03*
X49940000Y-83150000D03*
%TD*%
D27*
%TO.C,R17*%
X25455000Y-65905000D03*
X24435000Y-65905000D03*
%TD*%
D26*
%TO.C,C3*%
X73255000Y-29850000D03*
X73255000Y-28890000D03*
%TD*%
D17*
%TO.C,SW1*%
X35940000Y-51010000D03*
X35940000Y-48310000D03*
X34790000Y-48310000D03*
X34790000Y-51010000D03*
%TD*%
D27*
%TO.C,R14*%
X50435000Y-64330000D03*
X49415000Y-64330000D03*
%TD*%
D18*
%TO.C,R3*%
X65580000Y-61720000D03*
X65580000Y-62740000D03*
%TD*%
D19*
%TO.C,R1*%
X89340000Y-51385000D03*
X90360000Y-51385000D03*
%TD*%
%TO.C,R9*%
X44805000Y-32890000D03*
X45825000Y-32890000D03*
%TD*%
D26*
%TO.C,C9*%
X102565000Y-74610000D03*
X102565000Y-73650000D03*
%TD*%
%TO.C,C7*%
X30085000Y-50940000D03*
X30085000Y-49980000D03*
%TD*%
D25*
%TO.C,U5*%
X90960000Y-75530000D03*
X90460000Y-75530000D03*
X89960000Y-75530000D03*
X89960000Y-77030000D03*
X90460000Y-77030000D03*
X90960000Y-77030000D03*
%TD*%
D19*
%TO.C,R12*%
X47305000Y-32890000D03*
X48325000Y-32890000D03*
%TD*%
D21*
%TO.C,R8*%
X90295000Y-85590000D03*
X90295000Y-84570000D03*
%TD*%
D18*
%TO.C,FB1*%
X43105000Y-88190000D03*
X43105000Y-89210000D03*
%TD*%
D21*
%TO.C,R10*%
X110745000Y-34797500D03*
X110745000Y-33777500D03*
%TD*%
D30*
%TO.C,F1*%
X101802500Y-83180000D03*
X100227500Y-83180000D03*
%TD*%
D21*
%TO.C,R6*%
X73030000Y-82065000D03*
X73030000Y-81045000D03*
%TD*%
D26*
%TO.C,C17*%
X29485000Y-39390000D03*
X29485000Y-38430000D03*
%TD*%
D19*
%TO.C,R1*%
X108120000Y-51385000D03*
X109140000Y-51385000D03*
%TD*%
D25*
%TO.C,Q1*%
X34060000Y-48960000D03*
X33560000Y-48960000D03*
X33060000Y-48960000D03*
X33060000Y-50460000D03*
X33560000Y-50460000D03*
X34060000Y-50460000D03*
%TD*%
D31*
%TO.C,U3*%
X107810000Y-79235000D03*
X107810000Y-77965000D03*
X107810000Y-76695000D03*
X107810000Y-75425000D03*
X102120000Y-75425000D03*
X102120000Y-76695000D03*
X102120000Y-77965000D03*
X102120000Y-79235000D03*
D32*
X104965000Y-77330000D03*
%TD*%
D27*
%TO.C,R13*%
X106375000Y-32890000D03*
X105355000Y-32890000D03*
%TD*%
D25*
%TO.C,U5*%
X81500000Y-37510000D03*
X82000000Y-37510000D03*
X82500000Y-37510000D03*
X82500000Y-36010000D03*
X82000000Y-36010000D03*
X81500000Y-36010000D03*
%TD*%
D11*
%TO.C,C12*%
X71915000Y-44810000D03*
X72875000Y-44810000D03*
%TD*%
D28*
%TO.C,C8*%
X71275000Y-61110000D03*
X71275000Y-62070000D03*
%TD*%
D26*
%TO.C,C6*%
X63505000Y-79230000D03*
X63505000Y-78270000D03*
%TD*%
D19*
%TO.C,R5*%
X71995000Y-82905000D03*
X73015000Y-82905000D03*
%TD*%
D26*
%TO.C,C3*%
X35695000Y-29850000D03*
X35695000Y-28890000D03*
%TD*%
%TO.C,C9*%
X83785000Y-74610000D03*
X83785000Y-73650000D03*
%TD*%
%TO.C,C10*%
X65855000Y-74610000D03*
X65855000Y-73650000D03*
%TD*%
%TO.C,C18*%
X89525000Y-39390000D03*
X89525000Y-38430000D03*
%TD*%
D33*
%TO.C,D1*%
X99275000Y-77417500D03*
X99275000Y-76447500D03*
%TD*%
D27*
%TO.C,R9*%
X33755000Y-80150000D03*
X32735000Y-80150000D03*
%TD*%
%TO.C,R12*%
X50035000Y-80150000D03*
X49015000Y-80150000D03*
%TD*%
D29*
%TO.C,J2*%
X93850000Y-90770000D03*
X93850000Y-88230000D03*
X93850000Y-85690000D03*
X93850000Y-83150000D03*
X93850000Y-80610000D03*
X93850000Y-78070000D03*
X93850000Y-75530000D03*
X93850000Y-72990000D03*
X93850000Y-70450000D03*
X93850000Y-67910000D03*
X93850000Y-65370000D03*
X93850000Y-62830000D03*
X93850000Y-60290000D03*
X91310000Y-60290000D03*
X88770000Y-60290000D03*
X86230000Y-60290000D03*
X83690000Y-60290000D03*
X81150000Y-60290000D03*
X78610000Y-60290000D03*
X78610000Y-62830000D03*
X78610000Y-65370000D03*
X78610000Y-67910000D03*
X78610000Y-70450000D03*
X78610000Y-72990000D03*
X78610000Y-75530000D03*
X78610000Y-78070000D03*
X78610000Y-80610000D03*
X78610000Y-83150000D03*
X78610000Y-85690000D03*
X78610000Y-88230000D03*
X78610000Y-90770000D03*
X91305000Y-62830000D03*
X84960000Y-83150000D03*
X87500000Y-83150000D03*
%TD*%
D26*
%TO.C,C16*%
X45435000Y-39400000D03*
X45435000Y-38440000D03*
%TD*%
D21*
%TO.C,R11*%
X44790000Y-34820000D03*
X44790000Y-33800000D03*
%TD*%
D18*
%TO.C,R11*%
X71330000Y-78220000D03*
X71330000Y-79240000D03*
%TD*%
%TO.C,R2*%
X50775000Y-80770000D03*
X50775000Y-81790000D03*
%TD*%
%TO.C,FB1*%
X99445000Y-88190000D03*
X99445000Y-89210000D03*
%TD*%
D34*
%TO.C,J1*%
X70645000Y-27537500D03*
X69845000Y-27537500D03*
D35*
X68695000Y-27537500D03*
X67695000Y-27537500D03*
X67195000Y-27537500D03*
X66195000Y-27537500D03*
D34*
X65045000Y-27537500D03*
X64245000Y-27537500D03*
X64245000Y-27537500D03*
X65045000Y-27537500D03*
D35*
X65695000Y-27537500D03*
X66695000Y-27537500D03*
X68195000Y-27537500D03*
X69195000Y-27537500D03*
D34*
X69845000Y-27537500D03*
X70645000Y-27537500D03*
D36*
X73020000Y-26237500D03*
X61870000Y-26237500D03*
D37*
X61870000Y-22237500D03*
X73020000Y-22237500D03*
%TD*%
D27*
%TO.C,R9*%
X108875000Y-80150000D03*
X107855000Y-80150000D03*
%TD*%
D28*
%TO.C,C18*%
X26595000Y-73650000D03*
X26595000Y-74610000D03*
%TD*%
D22*
%TO.C,U1*%
X66595000Y-31172500D03*
D23*
X66520000Y-31710000D03*
D22*
X66595000Y-32247500D03*
X68295000Y-32247500D03*
D23*
X68370000Y-31710000D03*
D22*
X68295000Y-31172500D03*
%TD*%
D27*
%TO.C,R12*%
X68815000Y-80150000D03*
X67795000Y-80150000D03*
%TD*%
D19*
%TO.C,R12*%
X103645000Y-32890000D03*
X104665000Y-32890000D03*
%TD*%
D20*
%TO.C,C4*%
X81775000Y-81270000D03*
X80815000Y-81270000D03*
%TD*%
D19*
%TO.C,R13*%
X103645000Y-80150000D03*
X104665000Y-80150000D03*
%TD*%
D38*
%TO.C,U4*%
X108377500Y-71830000D03*
X108377500Y-71430000D03*
X108377500Y-71030000D03*
X108377500Y-70630000D03*
X108377500Y-70230000D03*
X108377500Y-69830000D03*
X108377500Y-69430000D03*
X108377500Y-69030000D03*
X108377500Y-68630000D03*
X108377500Y-68230000D03*
X108377500Y-67830000D03*
X108377500Y-67430000D03*
X108377500Y-67030000D03*
X108377500Y-66630000D03*
D39*
X107540000Y-65792500D03*
X107140000Y-65792500D03*
X106740000Y-65792500D03*
X106340000Y-65792500D03*
X105940000Y-65792500D03*
X105540000Y-65792500D03*
X105140000Y-65792500D03*
X104740000Y-65792500D03*
X104340000Y-65792500D03*
X103940000Y-65792500D03*
X103540000Y-65792500D03*
X103140000Y-65792500D03*
X102740000Y-65792500D03*
X102340000Y-65792500D03*
D38*
X101502500Y-66630000D03*
X101502500Y-67030000D03*
X101502500Y-67430000D03*
X101502500Y-67830000D03*
X101502500Y-68230000D03*
X101502500Y-68630000D03*
X101502500Y-69030000D03*
X101502500Y-69430000D03*
X101502500Y-69830000D03*
X101502500Y-70230000D03*
X101502500Y-70630000D03*
X101502500Y-71030000D03*
X101502500Y-71430000D03*
X101502500Y-71830000D03*
D39*
X102340000Y-72667500D03*
X102740000Y-72667500D03*
X103140000Y-72667500D03*
X103540000Y-72667500D03*
X103940000Y-72667500D03*
X104340000Y-72667500D03*
X104740000Y-72667500D03*
X105140000Y-72667500D03*
X105540000Y-72667500D03*
X105940000Y-72667500D03*
X106340000Y-72667500D03*
X106740000Y-72667500D03*
X107140000Y-72667500D03*
X107540000Y-72667500D03*
D16*
X104940000Y-69230000D03*
%TD*%
D20*
%TO.C,C13*%
X100555000Y-71830000D03*
X99595000Y-71830000D03*
%TD*%
D21*
%TO.C,R11*%
X101130000Y-34820000D03*
X101130000Y-33800000D03*
%TD*%
%TO.C,R8*%
X109075000Y-85590000D03*
X109075000Y-84570000D03*
%TD*%
D26*
%TO.C,C9*%
X27445000Y-74610000D03*
X27445000Y-73650000D03*
%TD*%
D21*
%TO.C,R8*%
X71515000Y-85590000D03*
X71515000Y-84570000D03*
%TD*%
D20*
%TO.C,C1*%
X100435000Y-29260000D03*
X99475000Y-29260000D03*
%TD*%
D11*
%TO.C,C4*%
X71905000Y-31770000D03*
X72865000Y-31770000D03*
%TD*%
D38*
%TO.C,U4*%
X70817500Y-71830000D03*
X70817500Y-71430000D03*
X70817500Y-71030000D03*
X70817500Y-70630000D03*
X70817500Y-70230000D03*
X70817500Y-69830000D03*
X70817500Y-69430000D03*
X70817500Y-69030000D03*
X70817500Y-68630000D03*
X70817500Y-68230000D03*
X70817500Y-67830000D03*
X70817500Y-67430000D03*
X70817500Y-67030000D03*
X70817500Y-66630000D03*
D39*
X69980000Y-65792500D03*
X69580000Y-65792500D03*
X69180000Y-65792500D03*
X68780000Y-65792500D03*
X68380000Y-65792500D03*
X67980000Y-65792500D03*
X67580000Y-65792500D03*
X67180000Y-65792500D03*
X66780000Y-65792500D03*
X66380000Y-65792500D03*
X65980000Y-65792500D03*
X65580000Y-65792500D03*
X65180000Y-65792500D03*
X64780000Y-65792500D03*
D38*
X63942500Y-66630000D03*
X63942500Y-67030000D03*
X63942500Y-67430000D03*
X63942500Y-67830000D03*
X63942500Y-68230000D03*
X63942500Y-68630000D03*
X63942500Y-69030000D03*
X63942500Y-69430000D03*
X63942500Y-69830000D03*
X63942500Y-70230000D03*
X63942500Y-70630000D03*
X63942500Y-71030000D03*
X63942500Y-71430000D03*
X63942500Y-71830000D03*
D39*
X64780000Y-72667500D03*
X65180000Y-72667500D03*
X65580000Y-72667500D03*
X65980000Y-72667500D03*
X66380000Y-72667500D03*
X66780000Y-72667500D03*
X67180000Y-72667500D03*
X67580000Y-72667500D03*
X67980000Y-72667500D03*
X68380000Y-72667500D03*
X68780000Y-72667500D03*
X69180000Y-72667500D03*
X69580000Y-72667500D03*
X69980000Y-72667500D03*
D16*
X67380000Y-69230000D03*
%TD*%
D21*
%TO.C,R3*%
X69320000Y-51320000D03*
X69320000Y-50300000D03*
%TD*%
%TO.C,R6*%
X91810000Y-82065000D03*
X91810000Y-81045000D03*
%TD*%
D26*
%TO.C,C17*%
X67045000Y-39390000D03*
X67045000Y-38430000D03*
%TD*%
D34*
%TO.C,J1*%
X101815000Y-85502500D03*
X102615000Y-85502500D03*
D35*
X103765000Y-85502500D03*
X104765000Y-85502500D03*
X105265000Y-85502500D03*
X106265000Y-85502500D03*
D34*
X107415000Y-85502500D03*
X108215000Y-85502500D03*
X108215000Y-85502500D03*
X107415000Y-85502500D03*
D35*
X106765000Y-85502500D03*
X105765000Y-85502500D03*
X104265000Y-85502500D03*
X103265000Y-85502500D03*
D34*
X102615000Y-85502500D03*
X101815000Y-85502500D03*
D36*
X99440000Y-86802500D03*
X110590000Y-86802500D03*
D37*
X110590000Y-90802500D03*
X99440000Y-90802500D03*
%TD*%
D18*
%TO.C,R15*%
X43825000Y-78242500D03*
X43825000Y-79262500D03*
%TD*%
D24*
%TO.C,Y1*%
X27210000Y-51160000D03*
X28960000Y-51160000D03*
X28960000Y-49760000D03*
X27210000Y-49760000D03*
%TD*%
D19*
%TO.C,R16*%
X24435000Y-66780000D03*
X25455000Y-66780000D03*
%TD*%
D40*
%TO.C,F1*%
X51877500Y-29860000D03*
X53452500Y-29860000D03*
%TD*%
D18*
%TO.C,R15*%
X81385000Y-78242500D03*
X81385000Y-79262500D03*
%TD*%
%TO.C,R6*%
X99430000Y-30975000D03*
X99430000Y-31995000D03*
%TD*%
D27*
%TO.C,R9*%
X52535000Y-80150000D03*
X51515000Y-80150000D03*
%TD*%
D26*
%TO.C,C6*%
X101065000Y-79230000D03*
X101065000Y-78270000D03*
%TD*%
D27*
%TO.C,R14*%
X31655000Y-64330000D03*
X30635000Y-64330000D03*
%TD*%
D29*
%TO.C,J2*%
X112630000Y-90770000D03*
X112630000Y-88230000D03*
X112630000Y-85690000D03*
X112630000Y-83150000D03*
X112630000Y-80610000D03*
X112630000Y-78070000D03*
X112630000Y-75530000D03*
X112630000Y-72990000D03*
X112630000Y-70450000D03*
X112630000Y-67910000D03*
X112630000Y-65370000D03*
X112630000Y-62830000D03*
X112630000Y-60290000D03*
X110090000Y-60290000D03*
X107550000Y-60290000D03*
X105010000Y-60290000D03*
X102470000Y-60290000D03*
X99930000Y-60290000D03*
X97390000Y-60290000D03*
X97390000Y-62830000D03*
X97390000Y-65370000D03*
X97390000Y-67910000D03*
X97390000Y-70450000D03*
X97390000Y-72990000D03*
X97390000Y-75530000D03*
X97390000Y-78070000D03*
X97390000Y-80610000D03*
X97390000Y-83150000D03*
X97390000Y-85690000D03*
X97390000Y-88230000D03*
X97390000Y-90770000D03*
X110085000Y-62830000D03*
X103740000Y-83150000D03*
X106280000Y-83150000D03*
%TD*%
D41*
%TO.C,SW1*%
X42620000Y-62030000D03*
X42620000Y-64730000D03*
X43770000Y-64730000D03*
X43770000Y-62030000D03*
%TD*%
D25*
%TO.C,U5*%
X34620000Y-75530000D03*
X34120000Y-75530000D03*
X33620000Y-75530000D03*
X33620000Y-77030000D03*
X34120000Y-77030000D03*
X34620000Y-77030000D03*
%TD*%
D28*
%TO.C,C18*%
X82935000Y-73650000D03*
X82935000Y-74610000D03*
%TD*%
D29*
%TO.C,J2*%
X78610000Y-22270000D03*
X78610000Y-24810000D03*
X78610000Y-27350000D03*
X78610000Y-29890000D03*
X78610000Y-32430000D03*
X78610000Y-34970000D03*
X78610000Y-37510000D03*
X78610000Y-40050000D03*
X78610000Y-42590000D03*
X78610000Y-45130000D03*
X78610000Y-47670000D03*
X78610000Y-50210000D03*
X78610000Y-52750000D03*
X81150000Y-52750000D03*
X83690000Y-52750000D03*
X86230000Y-52750000D03*
X88770000Y-52750000D03*
X91310000Y-52750000D03*
X93850000Y-52750000D03*
X93850000Y-50210000D03*
X93850000Y-47670000D03*
X93850000Y-45130000D03*
X93850000Y-42590000D03*
X93850000Y-40050000D03*
X93850000Y-37510000D03*
X93850000Y-34970000D03*
X93850000Y-32430000D03*
X93850000Y-29890000D03*
X93850000Y-27350000D03*
X93850000Y-24810000D03*
X93850000Y-22270000D03*
X81155000Y-50210000D03*
X87500000Y-29890000D03*
X84960000Y-29890000D03*
%TD*%
D26*
%TO.C,C19*%
X66355000Y-64810000D03*
X66355000Y-63850000D03*
%TD*%
D27*
%TO.C,R13*%
X68815000Y-32890000D03*
X67795000Y-32890000D03*
%TD*%
D24*
%TO.C,Y1*%
X102330000Y-51160000D03*
X104080000Y-51160000D03*
X104080000Y-49760000D03*
X102330000Y-49760000D03*
%TD*%
D26*
%TO.C,C18*%
X70745000Y-39390000D03*
X70745000Y-38430000D03*
%TD*%
%TO.C,C6*%
X82285000Y-79230000D03*
X82285000Y-78270000D03*
%TD*%
D18*
%TO.C,R8*%
X100945000Y-27450000D03*
X100945000Y-28470000D03*
%TD*%
D20*
%TO.C,C1*%
X25315000Y-29260000D03*
X24355000Y-29260000D03*
%TD*%
D11*
%TO.C,C2*%
X63690000Y-29585000D03*
X64650000Y-29585000D03*
%TD*%
D22*
%TO.C,U1*%
X30745000Y-81867500D03*
D23*
X30820000Y-81330000D03*
D22*
X30745000Y-80792500D03*
X29045000Y-80792500D03*
D23*
X28970000Y-81330000D03*
D22*
X29045000Y-81867500D03*
%TD*%
D28*
%TO.C,C18*%
X101715000Y-73650000D03*
X101715000Y-74610000D03*
%TD*%
D24*
%TO.C,Y1*%
X51350000Y-61880000D03*
X49600000Y-61880000D03*
X49600000Y-63280000D03*
X51350000Y-63280000D03*
%TD*%
D38*
%TO.C,U4*%
X89597500Y-71830000D03*
X89597500Y-71430000D03*
X89597500Y-71030000D03*
X89597500Y-70630000D03*
X89597500Y-70230000D03*
X89597500Y-69830000D03*
X89597500Y-69430000D03*
X89597500Y-69030000D03*
X89597500Y-68630000D03*
X89597500Y-68230000D03*
X89597500Y-67830000D03*
X89597500Y-67430000D03*
X89597500Y-67030000D03*
X89597500Y-66630000D03*
D39*
X88760000Y-65792500D03*
X88360000Y-65792500D03*
X87960000Y-65792500D03*
X87560000Y-65792500D03*
X87160000Y-65792500D03*
X86760000Y-65792500D03*
X86360000Y-65792500D03*
X85960000Y-65792500D03*
X85560000Y-65792500D03*
X85160000Y-65792500D03*
X84760000Y-65792500D03*
X84360000Y-65792500D03*
X83960000Y-65792500D03*
X83560000Y-65792500D03*
D38*
X82722500Y-66630000D03*
X82722500Y-67030000D03*
X82722500Y-67430000D03*
X82722500Y-67830000D03*
X82722500Y-68230000D03*
X82722500Y-68630000D03*
X82722500Y-69030000D03*
X82722500Y-69430000D03*
X82722500Y-69830000D03*
X82722500Y-70230000D03*
X82722500Y-70630000D03*
X82722500Y-71030000D03*
X82722500Y-71430000D03*
X82722500Y-71830000D03*
D39*
X83560000Y-72667500D03*
X83960000Y-72667500D03*
X84360000Y-72667500D03*
X84760000Y-72667500D03*
X85160000Y-72667500D03*
X85560000Y-72667500D03*
X85960000Y-72667500D03*
X86360000Y-72667500D03*
X86760000Y-72667500D03*
X87160000Y-72667500D03*
X87560000Y-72667500D03*
X87960000Y-72667500D03*
X88360000Y-72667500D03*
X88760000Y-72667500D03*
D16*
X86160000Y-69230000D03*
%TD*%
D28*
%TO.C,C6*%
X90175000Y-33810000D03*
X90175000Y-34770000D03*
%TD*%
%TO.C,C8*%
X33715000Y-61110000D03*
X33715000Y-62070000D03*
%TD*%
D26*
%TO.C,C8*%
X82405000Y-51930000D03*
X82405000Y-50970000D03*
%TD*%
D22*
%TO.C,U1*%
X85375000Y-31172500D03*
D23*
X85300000Y-31710000D03*
D22*
X85375000Y-32247500D03*
X87075000Y-32247500D03*
D23*
X87150000Y-31710000D03*
D22*
X87075000Y-31172500D03*
%TD*%
D28*
%TO.C,C11*%
X105255000Y-48230000D03*
X105255000Y-49190000D03*
%TD*%
%TO.C,C11*%
X48915000Y-48230000D03*
X48915000Y-49190000D03*
%TD*%
D19*
%TO.C,R14*%
X65685000Y-48710000D03*
X66705000Y-48710000D03*
%TD*%
D28*
%TO.C,C17*%
X49075000Y-73650000D03*
X49075000Y-74610000D03*
%TD*%
D21*
%TO.C,FB1*%
X35455000Y-24850000D03*
X35455000Y-23830000D03*
%TD*%
D11*
%TO.C,C13*%
X34345000Y-41210000D03*
X35305000Y-41210000D03*
%TD*%
D28*
%TO.C,C9*%
X88675000Y-38430000D03*
X88675000Y-39390000D03*
%TD*%
D21*
%TO.C,R2*%
X102905000Y-32270000D03*
X102905000Y-31250000D03*
%TD*%
D28*
%TO.C,C10*%
X69045000Y-38430000D03*
X69045000Y-39390000D03*
%TD*%
D18*
%TO.C,R2*%
X31995000Y-80770000D03*
X31995000Y-81790000D03*
%TD*%
D25*
%TO.C,U5*%
X72180000Y-75530000D03*
X71680000Y-75530000D03*
X71180000Y-75530000D03*
X71180000Y-77030000D03*
X71680000Y-77030000D03*
X72180000Y-77030000D03*
%TD*%
D18*
%TO.C,R4*%
X109565000Y-81045000D03*
X109565000Y-82065000D03*
%TD*%
D11*
%TO.C,C5*%
X101495000Y-81270000D03*
X102455000Y-81270000D03*
%TD*%
D21*
%TO.C,R7*%
X63385000Y-85590000D03*
X63385000Y-84570000D03*
%TD*%
%TO.C,R4*%
X25335000Y-31995000D03*
X25335000Y-30975000D03*
%TD*%
D42*
%TO.C,REF\u002A\u002A*%
X20000000Y-18850000D03*
%TD*%
D19*
%TO.C,R12*%
X66085000Y-32890000D03*
X67105000Y-32890000D03*
%TD*%
D20*
%TO.C,C15*%
X44320000Y-44535000D03*
X43360000Y-44535000D03*
%TD*%
D18*
%TO.C,FB1*%
X61885000Y-88190000D03*
X61885000Y-89210000D03*
%TD*%
D11*
%TO.C,C15*%
X34240000Y-68505000D03*
X35200000Y-68505000D03*
%TD*%
D26*
%TO.C,C6*%
X44725000Y-79230000D03*
X44725000Y-78270000D03*
%TD*%
D17*
%TO.C,SW1*%
X111060000Y-48310000D03*
X111060000Y-51010000D03*
X109910000Y-51010000D03*
X109910000Y-48310000D03*
%TD*%
D26*
%TO.C,C3*%
X54475000Y-29850000D03*
X54475000Y-28890000D03*
%TD*%
D28*
%TO.C,C6*%
X108955000Y-33810000D03*
X108955000Y-34770000D03*
%TD*%
%TO.C,C16*%
X33125000Y-73640000D03*
X33125000Y-74600000D03*
%TD*%
%TO.C,C19*%
X87325000Y-48230000D03*
X87325000Y-49190000D03*
%TD*%
D21*
%TO.C,R4*%
X62895000Y-31995000D03*
X62895000Y-30975000D03*
%TD*%
D19*
%TO.C,R17*%
X34325000Y-47135000D03*
X35345000Y-47135000D03*
%TD*%
D26*
%TO.C,C14*%
X86675000Y-39390000D03*
X86675000Y-38430000D03*
%TD*%
D21*
%TO.C,FB1*%
X73015000Y-24850000D03*
X73015000Y-23830000D03*
%TD*%
D20*
%TO.C,C2*%
X89990000Y-83455000D03*
X89030000Y-83455000D03*
%TD*%
D18*
%TO.C,R15*%
X100165000Y-78242500D03*
X100165000Y-79262500D03*
%TD*%
D26*
%TO.C,C3*%
X92035000Y-29850000D03*
X92035000Y-28890000D03*
%TD*%
%TO.C,C18*%
X33185000Y-39390000D03*
X33185000Y-38430000D03*
%TD*%
D25*
%TO.C,U5*%
X100280000Y-37510000D03*
X100780000Y-37510000D03*
X101280000Y-37510000D03*
X101280000Y-36010000D03*
X100780000Y-36010000D03*
X100280000Y-36010000D03*
%TD*%
D34*
%TO.C,J1*%
X108205000Y-27537500D03*
X107405000Y-27537500D03*
D35*
X106255000Y-27537500D03*
X105255000Y-27537500D03*
X104755000Y-27537500D03*
X103755000Y-27537500D03*
D34*
X102605000Y-27537500D03*
X101805000Y-27537500D03*
X101805000Y-27537500D03*
X102605000Y-27537500D03*
D35*
X103255000Y-27537500D03*
X104255000Y-27537500D03*
X105755000Y-27537500D03*
X106755000Y-27537500D03*
D34*
X107405000Y-27537500D03*
X108205000Y-27537500D03*
D36*
X110580000Y-26237500D03*
X99430000Y-26237500D03*
D37*
X99430000Y-22237500D03*
X110580000Y-22237500D03*
%TD*%
D12*
%TO.C,JP1*%
X110755000Y-80025000D03*
D13*
X110755000Y-78575000D03*
%TD*%
D28*
%TO.C,C9*%
X32335000Y-38430000D03*
X32335000Y-39390000D03*
%TD*%
D21*
%TO.C,FB1*%
X54235000Y-24850000D03*
X54235000Y-23830000D03*
%TD*%
D33*
%TO.C,D1*%
X61715000Y-77417500D03*
X61715000Y-76447500D03*
%TD*%
D25*
%TO.C,U5*%
X109740000Y-75530000D03*
X109240000Y-75530000D03*
X108740000Y-75530000D03*
X108740000Y-77030000D03*
X109240000Y-77030000D03*
X109740000Y-77030000D03*
%TD*%
D26*
%TO.C,C7*%
X48865000Y-50940000D03*
X48865000Y-49980000D03*
%TD*%
D21*
%TO.C,R7*%
X44605000Y-85590000D03*
X44605000Y-84570000D03*
%TD*%
D38*
%TO.C,U4*%
X33257500Y-71830000D03*
X33257500Y-71430000D03*
X33257500Y-71030000D03*
X33257500Y-70630000D03*
X33257500Y-70230000D03*
X33257500Y-69830000D03*
X33257500Y-69430000D03*
X33257500Y-69030000D03*
X33257500Y-68630000D03*
X33257500Y-68230000D03*
X33257500Y-67830000D03*
X33257500Y-67430000D03*
X33257500Y-67030000D03*
X33257500Y-66630000D03*
D39*
X32420000Y-65792500D03*
X32020000Y-65792500D03*
X31620000Y-65792500D03*
X31220000Y-65792500D03*
X30820000Y-65792500D03*
X30420000Y-65792500D03*
X30020000Y-65792500D03*
X29620000Y-65792500D03*
X29220000Y-65792500D03*
X28820000Y-65792500D03*
X28420000Y-65792500D03*
X28020000Y-65792500D03*
X27620000Y-65792500D03*
X27220000Y-65792500D03*
D38*
X26382500Y-66630000D03*
X26382500Y-67030000D03*
X26382500Y-67430000D03*
X26382500Y-67830000D03*
X26382500Y-68230000D03*
X26382500Y-68630000D03*
X26382500Y-69030000D03*
X26382500Y-69430000D03*
X26382500Y-69830000D03*
X26382500Y-70230000D03*
X26382500Y-70630000D03*
X26382500Y-71030000D03*
X26382500Y-71430000D03*
X26382500Y-71830000D03*
D39*
X27220000Y-72667500D03*
X27620000Y-72667500D03*
X28020000Y-72667500D03*
X28420000Y-72667500D03*
X28820000Y-72667500D03*
X29220000Y-72667500D03*
X29620000Y-72667500D03*
X30020000Y-72667500D03*
X30420000Y-72667500D03*
X30820000Y-72667500D03*
X31220000Y-72667500D03*
X31620000Y-72667500D03*
X32020000Y-72667500D03*
X32420000Y-72667500D03*
D16*
X29820000Y-69230000D03*
%TD*%
D24*
%TO.C,Y1*%
X88910000Y-61880000D03*
X87160000Y-61880000D03*
X87160000Y-63280000D03*
X88910000Y-63280000D03*
%TD*%
D27*
%TO.C,R5*%
X81685000Y-30135000D03*
X80665000Y-30135000D03*
%TD*%
D18*
%TO.C,R4*%
X90785000Y-81045000D03*
X90785000Y-82065000D03*
%TD*%
D24*
%TO.C,Y1*%
X83550000Y-51160000D03*
X85300000Y-51160000D03*
X85300000Y-49760000D03*
X83550000Y-49760000D03*
%TD*%
D21*
%TO.C,R4*%
X81675000Y-31995000D03*
X81675000Y-30975000D03*
%TD*%
D11*
%TO.C,C13*%
X71905000Y-41210000D03*
X72865000Y-41210000D03*
%TD*%
D30*
%TO.C,F1*%
X26682500Y-83180000D03*
X25107500Y-83180000D03*
%TD*%
D27*
%TO.C,R5*%
X100465000Y-30135000D03*
X99445000Y-30135000D03*
%TD*%
D40*
%TO.C,F1*%
X33097500Y-29860000D03*
X34672500Y-29860000D03*
%TD*%
D34*
%TO.C,J1*%
X64255000Y-85502500D03*
X65055000Y-85502500D03*
D35*
X66205000Y-85502500D03*
X67205000Y-85502500D03*
X67705000Y-85502500D03*
X68705000Y-85502500D03*
D34*
X69855000Y-85502500D03*
X70655000Y-85502500D03*
X70655000Y-85502500D03*
X69855000Y-85502500D03*
D35*
X69205000Y-85502500D03*
X68205000Y-85502500D03*
X66705000Y-85502500D03*
X65705000Y-85502500D03*
D34*
X65055000Y-85502500D03*
X64255000Y-85502500D03*
D36*
X61880000Y-86802500D03*
X73030000Y-86802500D03*
D37*
X73030000Y-90802500D03*
X61880000Y-90802500D03*
%TD*%
D28*
%TO.C,C7*%
X104815000Y-62100000D03*
X104815000Y-63060000D03*
%TD*%
D25*
%TO.C,Q2*%
X52500000Y-81005000D03*
X52000000Y-81005000D03*
X51500000Y-81005000D03*
X51500000Y-82505000D03*
X52000000Y-82505000D03*
X52500000Y-82505000D03*
%TD*%
D19*
%TO.C,R13*%
X84865000Y-80150000D03*
X85885000Y-80150000D03*
%TD*%
D26*
%TO.C,C18*%
X51965000Y-39390000D03*
X51965000Y-38430000D03*
%TD*%
D28*
%TO.C,C8*%
X52495000Y-61110000D03*
X52495000Y-62070000D03*
%TD*%
D27*
%TO.C,R14*%
X87995000Y-64330000D03*
X86975000Y-64330000D03*
%TD*%
D18*
%TO.C,FB1*%
X24325000Y-88190000D03*
X24325000Y-89210000D03*
%TD*%
D19*
%TO.C,R1*%
X70560000Y-51385000D03*
X71580000Y-51385000D03*
%TD*%
D26*
%TO.C,C19*%
X47575000Y-64810000D03*
X47575000Y-63850000D03*
%TD*%
D11*
%TO.C,C1*%
X53245000Y-83780000D03*
X54205000Y-83780000D03*
%TD*%
D24*
%TO.C,Y1*%
X70130000Y-61880000D03*
X68380000Y-61880000D03*
X68380000Y-63280000D03*
X70130000Y-63280000D03*
%TD*%
D28*
%TO.C,C3*%
X42865000Y-83190000D03*
X42865000Y-84150000D03*
%TD*%
%TO.C,C8*%
X108835000Y-61110000D03*
X108835000Y-62070000D03*
%TD*%
D11*
%TO.C,C15*%
X109360000Y-68505000D03*
X110320000Y-68505000D03*
%TD*%
D29*
%TO.C,J2*%
X59830000Y-22270000D03*
X59830000Y-24810000D03*
X59830000Y-27350000D03*
X59830000Y-29890000D03*
X59830000Y-32430000D03*
X59830000Y-34970000D03*
X59830000Y-37510000D03*
X59830000Y-40050000D03*
X59830000Y-42590000D03*
X59830000Y-45130000D03*
X59830000Y-47670000D03*
X59830000Y-50210000D03*
X59830000Y-52750000D03*
X62370000Y-52750000D03*
X64910000Y-52750000D03*
X67450000Y-52750000D03*
X69990000Y-52750000D03*
X72530000Y-52750000D03*
X75070000Y-52750000D03*
X75070000Y-50210000D03*
X75070000Y-47670000D03*
X75070000Y-45130000D03*
X75070000Y-42590000D03*
X75070000Y-40050000D03*
X75070000Y-37510000D03*
X75070000Y-34970000D03*
X75070000Y-32430000D03*
X75070000Y-29890000D03*
X75070000Y-27350000D03*
X75070000Y-24810000D03*
X75070000Y-22270000D03*
X62375000Y-50210000D03*
X68720000Y-29890000D03*
X66180000Y-29890000D03*
%TD*%
D28*
%TO.C,C16*%
X70685000Y-73640000D03*
X70685000Y-74600000D03*
%TD*%
D25*
%TO.C,Q2*%
X26060000Y-32035000D03*
X26560000Y-32035000D03*
X27060000Y-32035000D03*
X27060000Y-30535000D03*
X26560000Y-30535000D03*
X26060000Y-30535000D03*
%TD*%
D11*
%TO.C,C5*%
X45155000Y-81270000D03*
X46115000Y-81270000D03*
%TD*%
D28*
%TO.C,C11*%
X30135000Y-48230000D03*
X30135000Y-49190000D03*
%TD*%
D33*
%TO.C,D2*%
X100165000Y-77407500D03*
X100165000Y-76437500D03*
%TD*%
%TO.C,D1*%
X42935000Y-77417500D03*
X42935000Y-76447500D03*
%TD*%
D11*
%TO.C,C15*%
X53020000Y-68505000D03*
X53980000Y-68505000D03*
%TD*%
D28*
%TO.C,C16*%
X89465000Y-73640000D03*
X89465000Y-74600000D03*
%TD*%
D27*
%TO.C,R17*%
X100575000Y-65905000D03*
X99555000Y-65905000D03*
%TD*%
D18*
%TO.C,R7*%
X109075000Y-27450000D03*
X109075000Y-28470000D03*
%TD*%
D19*
%TO.C,R12*%
X28525000Y-32890000D03*
X29545000Y-32890000D03*
%TD*%
D20*
%TO.C,C15*%
X100660000Y-44535000D03*
X99700000Y-44535000D03*
%TD*%
%TO.C,C5*%
X108525000Y-31770000D03*
X107565000Y-31770000D03*
%TD*%
D28*
%TO.C,C16*%
X108245000Y-73640000D03*
X108245000Y-74600000D03*
%TD*%
D21*
%TO.C,R6*%
X110590000Y-82065000D03*
X110590000Y-81045000D03*
%TD*%
D18*
%TO.C,R10*%
X61715000Y-78242500D03*
X61715000Y-79262500D03*
%TD*%
D26*
%TO.C,C7*%
X67645000Y-50940000D03*
X67645000Y-49980000D03*
%TD*%
%TO.C,C11*%
X104765000Y-64810000D03*
X104765000Y-63850000D03*
%TD*%
D33*
%TO.C,D1*%
X80495000Y-77417500D03*
X80495000Y-76447500D03*
%TD*%
D43*
%TO.C,D2*%
X34735000Y-35632500D03*
X34735000Y-36602500D03*
%TD*%
D25*
%TO.C,Q2*%
X71280000Y-81005000D03*
X70780000Y-81005000D03*
X70280000Y-81005000D03*
X70280000Y-82505000D03*
X70780000Y-82505000D03*
X71280000Y-82505000D03*
%TD*%
D26*
%TO.C,C18*%
X108305000Y-39390000D03*
X108305000Y-38430000D03*
%TD*%
D43*
%TO.C,D1*%
X35625000Y-35622500D03*
X35625000Y-36592500D03*
%TD*%
D28*
%TO.C,C19*%
X30985000Y-48230000D03*
X30985000Y-49190000D03*
%TD*%
D18*
%TO.C,R7*%
X33955000Y-27450000D03*
X33955000Y-28470000D03*
%TD*%
D20*
%TO.C,C12*%
X62985000Y-68230000D03*
X62025000Y-68230000D03*
%TD*%
D44*
%TO.C,U3*%
X83430000Y-33805000D03*
X83430000Y-35075000D03*
X83430000Y-36345000D03*
X83430000Y-37615000D03*
X89120000Y-37615000D03*
X89120000Y-36345000D03*
X89120000Y-35075000D03*
X89120000Y-33805000D03*
D32*
X86275000Y-35710000D03*
%TD*%
D21*
%TO.C,R4*%
X100455000Y-31995000D03*
X100455000Y-30975000D03*
%TD*%
D18*
%TO.C,R2*%
X69555000Y-80770000D03*
X69555000Y-81790000D03*
%TD*%
D21*
%TO.C,R7*%
X25825000Y-85590000D03*
X25825000Y-84570000D03*
%TD*%
%TO.C,R10*%
X54405000Y-34797500D03*
X54405000Y-33777500D03*
%TD*%
D28*
%TO.C,C7*%
X48475000Y-62100000D03*
X48475000Y-63060000D03*
%TD*%
D29*
%TO.C,J2*%
X22270000Y-22270000D03*
X22270000Y-24810000D03*
X22270000Y-27350000D03*
X22270000Y-29890000D03*
X22270000Y-32430000D03*
X22270000Y-34970000D03*
X22270000Y-37510000D03*
X22270000Y-40050000D03*
X22270000Y-42590000D03*
X22270000Y-45130000D03*
X22270000Y-47670000D03*
X22270000Y-50210000D03*
X22270000Y-52750000D03*
X24810000Y-52750000D03*
X27350000Y-52750000D03*
X29890000Y-52750000D03*
X32430000Y-52750000D03*
X34970000Y-52750000D03*
X37510000Y-52750000D03*
X37510000Y-50210000D03*
X37510000Y-47670000D03*
X37510000Y-45130000D03*
X37510000Y-42590000D03*
X37510000Y-40050000D03*
X37510000Y-37510000D03*
X37510000Y-34970000D03*
X37510000Y-32430000D03*
X37510000Y-29890000D03*
X37510000Y-27350000D03*
X37510000Y-24810000D03*
X37510000Y-22270000D03*
X24815000Y-50210000D03*
X31160000Y-29890000D03*
X28620000Y-29890000D03*
%TD*%
D31*
%TO.C,U3*%
X51470000Y-79235000D03*
X51470000Y-77965000D03*
X51470000Y-76695000D03*
X51470000Y-75425000D03*
X45780000Y-75425000D03*
X45780000Y-76695000D03*
X45780000Y-77965000D03*
X45780000Y-79235000D03*
D32*
X48625000Y-77330000D03*
%TD*%
D18*
%TO.C,R15*%
X62605000Y-78242500D03*
X62605000Y-79262500D03*
%TD*%
D21*
%TO.C,R15*%
X53515000Y-34797500D03*
X53515000Y-33777500D03*
%TD*%
D45*
%TO.C,JP1*%
X61705000Y-33015000D03*
D46*
X61705000Y-34465000D03*
%TD*%
D22*
%TO.C,U1*%
X47815000Y-31172500D03*
D23*
X47740000Y-31710000D03*
D22*
X47815000Y-32247500D03*
X49515000Y-32247500D03*
D23*
X49590000Y-31710000D03*
D22*
X49515000Y-31172500D03*
%TD*%
D11*
%TO.C,C13*%
X53125000Y-41210000D03*
X54085000Y-41210000D03*
%TD*%
D31*
%TO.C,U3*%
X89030000Y-79235000D03*
X89030000Y-77965000D03*
X89030000Y-76695000D03*
X89030000Y-75425000D03*
X83340000Y-75425000D03*
X83340000Y-76695000D03*
X83340000Y-77965000D03*
X83340000Y-79235000D03*
D32*
X86185000Y-77330000D03*
%TD*%
D27*
%TO.C,R12*%
X106375000Y-80150000D03*
X105355000Y-80150000D03*
%TD*%
%TO.C,R14*%
X69215000Y-64330000D03*
X68195000Y-64330000D03*
%TD*%
D26*
%TO.C,C10*%
X28295000Y-74610000D03*
X28295000Y-73650000D03*
%TD*%
D20*
%TO.C,C1*%
X44095000Y-29260000D03*
X43135000Y-29260000D03*
%TD*%
D41*
%TO.C,SW1*%
X61400000Y-62030000D03*
X61400000Y-64730000D03*
X62550000Y-64730000D03*
X62550000Y-62030000D03*
%TD*%
D27*
%TO.C,R5*%
X44125000Y-30135000D03*
X43105000Y-30135000D03*
%TD*%
D28*
%TO.C,C19*%
X49765000Y-48230000D03*
X49765000Y-49190000D03*
%TD*%
D11*
%TO.C,C2*%
X44910000Y-29585000D03*
X45870000Y-29585000D03*
%TD*%
D26*
%TO.C,C16*%
X82995000Y-39400000D03*
X82995000Y-38440000D03*
%TD*%
D11*
%TO.C,C15*%
X71800000Y-68505000D03*
X72760000Y-68505000D03*
%TD*%
D21*
%TO.C,R3*%
X88100000Y-51320000D03*
X88100000Y-50300000D03*
%TD*%
%TO.C,R3*%
X106880000Y-51320000D03*
X106880000Y-50300000D03*
%TD*%
D28*
%TO.C,C10*%
X87825000Y-38430000D03*
X87825000Y-39390000D03*
%TD*%
D19*
%TO.C,R14*%
X28125000Y-48710000D03*
X29145000Y-48710000D03*
%TD*%
D18*
%TO.C,R2*%
X107115000Y-80770000D03*
X107115000Y-81790000D03*
%TD*%
D45*
%TO.C,JP1*%
X99265000Y-33015000D03*
D46*
X99265000Y-34465000D03*
%TD*%
D28*
%TO.C,C17*%
X105415000Y-73650000D03*
X105415000Y-74610000D03*
%TD*%
D26*
%TO.C,C17*%
X85825000Y-39390000D03*
X85825000Y-38430000D03*
%TD*%
%TO.C,C8*%
X63625000Y-51930000D03*
X63625000Y-50970000D03*
%TD*%
D34*
%TO.C,J1*%
X33085000Y-27537500D03*
X32285000Y-27537500D03*
D35*
X31135000Y-27537500D03*
X30135000Y-27537500D03*
X29635000Y-27537500D03*
X28635000Y-27537500D03*
D34*
X27485000Y-27537500D03*
X26685000Y-27537500D03*
X26685000Y-27537500D03*
X27485000Y-27537500D03*
D35*
X28135000Y-27537500D03*
X29135000Y-27537500D03*
X30635000Y-27537500D03*
X31635000Y-27537500D03*
D34*
X32285000Y-27537500D03*
X33085000Y-27537500D03*
D36*
X35460000Y-26237500D03*
X24310000Y-26237500D03*
D37*
X24310000Y-22237500D03*
X35460000Y-22237500D03*
%TD*%
D26*
%TO.C,C9*%
X46225000Y-74610000D03*
X46225000Y-73650000D03*
%TD*%
D28*
%TO.C,C19*%
X68545000Y-48230000D03*
X68545000Y-49190000D03*
%TD*%
D27*
%TO.C,R16*%
X110465000Y-46260000D03*
X109445000Y-46260000D03*
%TD*%
%TO.C,R16*%
X91685000Y-46260000D03*
X90665000Y-46260000D03*
%TD*%
D19*
%TO.C,R16*%
X61995000Y-66780000D03*
X63015000Y-66780000D03*
%TD*%
D25*
%TO.C,Q1*%
X100840000Y-64080000D03*
X101340000Y-64080000D03*
X101840000Y-64080000D03*
X101840000Y-62580000D03*
X101340000Y-62580000D03*
X100840000Y-62580000D03*
%TD*%
D28*
%TO.C,C9*%
X69895000Y-38430000D03*
X69895000Y-39390000D03*
%TD*%
D19*
%TO.C,R12*%
X84865000Y-32890000D03*
X85885000Y-32890000D03*
%TD*%
D24*
%TO.C,Y1*%
X107690000Y-61880000D03*
X105940000Y-61880000D03*
X105940000Y-63280000D03*
X107690000Y-63280000D03*
%TD*%
D18*
%TO.C,R3*%
X103140000Y-61720000D03*
X103140000Y-62740000D03*
%TD*%
D21*
%TO.C,R4*%
X44115000Y-31995000D03*
X44115000Y-30975000D03*
%TD*%
%TO.C,R10*%
X73185000Y-34797500D03*
X73185000Y-33777500D03*
%TD*%
D26*
%TO.C,C17*%
X48265000Y-39390000D03*
X48265000Y-38430000D03*
%TD*%
D25*
%TO.C,Q1*%
X44500000Y-64080000D03*
X45000000Y-64080000D03*
X45500000Y-64080000D03*
X45500000Y-62580000D03*
X45000000Y-62580000D03*
X44500000Y-62580000D03*
%TD*%
D42*
%TO.C,REF\u002A\u002A*%
X117400000Y-17500000D03*
%TD*%
D28*
%TO.C,C14*%
X85785000Y-73650000D03*
X85785000Y-74610000D03*
%TD*%
D19*
%TO.C,R16*%
X43215000Y-66780000D03*
X44235000Y-66780000D03*
%TD*%
D25*
%TO.C,U5*%
X62720000Y-37510000D03*
X63220000Y-37510000D03*
X63720000Y-37510000D03*
X63720000Y-36010000D03*
X63220000Y-36010000D03*
X62720000Y-36010000D03*
%TD*%
D18*
%TO.C,R10*%
X99275000Y-78242500D03*
X99275000Y-79262500D03*
%TD*%
D25*
%TO.C,Q1*%
X52840000Y-48960000D03*
X52340000Y-48960000D03*
X51840000Y-48960000D03*
X51840000Y-50460000D03*
X52340000Y-50460000D03*
X52840000Y-50460000D03*
%TD*%
D24*
%TO.C,Y1*%
X32570000Y-61880000D03*
X30820000Y-61880000D03*
X30820000Y-63280000D03*
X32570000Y-63280000D03*
%TD*%
D28*
%TO.C,C10*%
X106605000Y-38430000D03*
X106605000Y-39390000D03*
%TD*%
D20*
%TO.C,C4*%
X25435000Y-81270000D03*
X24475000Y-81270000D03*
%TD*%
D43*
%TO.C,D1*%
X54405000Y-35622500D03*
X54405000Y-36592500D03*
%TD*%
D18*
%TO.C,R6*%
X24310000Y-30975000D03*
X24310000Y-31995000D03*
%TD*%
D20*
%TO.C,C15*%
X63100000Y-44535000D03*
X62140000Y-44535000D03*
%TD*%
D33*
%TO.C,D2*%
X43825000Y-77407500D03*
X43825000Y-76437500D03*
%TD*%
D27*
%TO.C,R16*%
X35345000Y-46260000D03*
X34325000Y-46260000D03*
%TD*%
D21*
%TO.C,R8*%
X52735000Y-85590000D03*
X52735000Y-84570000D03*
%TD*%
%TO.C,R2*%
X65345000Y-32270000D03*
X65345000Y-31250000D03*
%TD*%
D43*
%TO.C,D2*%
X72295000Y-35632500D03*
X72295000Y-36602500D03*
%TD*%
D21*
%TO.C,R2*%
X46565000Y-32270000D03*
X46565000Y-31250000D03*
%TD*%
%TO.C,FB1*%
X110575000Y-24850000D03*
X110575000Y-23830000D03*
%TD*%
%TO.C,R3*%
X31760000Y-51320000D03*
X31760000Y-50300000D03*
%TD*%
D19*
%TO.C,R17*%
X71885000Y-47135000D03*
X72905000Y-47135000D03*
%TD*%
D26*
%TO.C,C17*%
X104605000Y-39390000D03*
X104605000Y-38430000D03*
%TD*%
D28*
%TO.C,C17*%
X67855000Y-73650000D03*
X67855000Y-74610000D03*
%TD*%
%TO.C,C3*%
X24085000Y-83190000D03*
X24085000Y-84150000D03*
%TD*%
D26*
%TO.C,C11*%
X29645000Y-64810000D03*
X29645000Y-63850000D03*
%TD*%
D28*
%TO.C,C6*%
X33835000Y-33810000D03*
X33835000Y-34770000D03*
%TD*%
D30*
%TO.C,F1*%
X83022500Y-83180000D03*
X81447500Y-83180000D03*
%TD*%
D27*
%TO.C,R16*%
X72905000Y-46260000D03*
X71885000Y-46260000D03*
%TD*%
D44*
%TO.C,U3*%
X27090000Y-33805000D03*
X27090000Y-35075000D03*
X27090000Y-36345000D03*
X27090000Y-37615000D03*
X32780000Y-37615000D03*
X32780000Y-36345000D03*
X32780000Y-35075000D03*
X32780000Y-33805000D03*
D32*
X29935000Y-35710000D03*
%TD*%
D27*
%TO.C,R5*%
X62905000Y-30135000D03*
X61885000Y-30135000D03*
%TD*%
D42*
%TO.C,REF\u002A\u002A*%
X17500000Y-17500000D03*
%TD*%
D28*
%TO.C,C18*%
X45375000Y-73650000D03*
X45375000Y-74610000D03*
%TD*%
D26*
%TO.C,C11*%
X48425000Y-64810000D03*
X48425000Y-63850000D03*
%TD*%
D28*
%TO.C,C7*%
X29695000Y-62100000D03*
X29695000Y-63060000D03*
%TD*%
D40*
%TO.C,F1*%
X108217500Y-29860000D03*
X109792500Y-29860000D03*
%TD*%
D20*
%TO.C,C15*%
X25540000Y-44535000D03*
X24580000Y-44535000D03*
%TD*%
D27*
%TO.C,R17*%
X44235000Y-65905000D03*
X43215000Y-65905000D03*
%TD*%
D19*
%TO.C,R9*%
X63585000Y-32890000D03*
X64605000Y-32890000D03*
%TD*%
D18*
%TO.C,R10*%
X24155000Y-78242500D03*
X24155000Y-79262500D03*
%TD*%
%TO.C,R7*%
X90295000Y-27450000D03*
X90295000Y-28470000D03*
%TD*%
D19*
%TO.C,R9*%
X26025000Y-32890000D03*
X27045000Y-32890000D03*
%TD*%
D43*
%TO.C,D1*%
X73185000Y-35622500D03*
X73185000Y-36592500D03*
%TD*%
D21*
%TO.C,R15*%
X109855000Y-34797500D03*
X109855000Y-33777500D03*
%TD*%
D26*
%TO.C,C8*%
X26065000Y-51930000D03*
X26065000Y-50970000D03*
%TD*%
D12*
%TO.C,JP1*%
X35635000Y-80025000D03*
D13*
X35635000Y-78575000D03*
%TD*%
D44*
%TO.C,U3*%
X64650000Y-33805000D03*
X64650000Y-35075000D03*
X64650000Y-36345000D03*
X64650000Y-37615000D03*
X70340000Y-37615000D03*
X70340000Y-36345000D03*
X70340000Y-35075000D03*
X70340000Y-33805000D03*
D32*
X67495000Y-35710000D03*
%TD*%
D17*
%TO.C,SW1*%
X73500000Y-51010000D03*
X73500000Y-48310000D03*
X72350000Y-48310000D03*
X72350000Y-51010000D03*
%TD*%
D25*
%TO.C,Q1*%
X82060000Y-64080000D03*
X82560000Y-64080000D03*
X83060000Y-64080000D03*
X83060000Y-62580000D03*
X82560000Y-62580000D03*
X82060000Y-62580000D03*
%TD*%
%TO.C,Q1*%
X90400000Y-48960000D03*
X89900000Y-48960000D03*
X89400000Y-48960000D03*
X89400000Y-50460000D03*
X89900000Y-50460000D03*
X90400000Y-50460000D03*
%TD*%
D27*
%TO.C,R1*%
X64340000Y-61655000D03*
X63320000Y-61655000D03*
%TD*%
D26*
%TO.C,C19*%
X103915000Y-64810000D03*
X103915000Y-63850000D03*
%TD*%
D19*
%TO.C,R17*%
X109445000Y-47135000D03*
X110465000Y-47135000D03*
%TD*%
D26*
%TO.C,C16*%
X26655000Y-39400000D03*
X26655000Y-38440000D03*
%TD*%
D25*
%TO.C,Q2*%
X82400000Y-32035000D03*
X82900000Y-32035000D03*
X83400000Y-32035000D03*
X83400000Y-30535000D03*
X82900000Y-30535000D03*
X82400000Y-30535000D03*
%TD*%
D44*
%TO.C,U3*%
X45870000Y-33805000D03*
X45870000Y-35075000D03*
X45870000Y-36345000D03*
X45870000Y-37615000D03*
X51560000Y-37615000D03*
X51560000Y-36345000D03*
X51560000Y-35075000D03*
X51560000Y-33805000D03*
D32*
X48715000Y-35710000D03*
%TD*%
D45*
%TO.C,JP1*%
X80485000Y-33015000D03*
D46*
X80485000Y-34465000D03*
%TD*%
D11*
%TO.C,C12*%
X90695000Y-44810000D03*
X91655000Y-44810000D03*
%TD*%
D25*
%TO.C,U5*%
X43940000Y-37510000D03*
X44440000Y-37510000D03*
X44940000Y-37510000D03*
X44940000Y-36010000D03*
X44440000Y-36010000D03*
X43940000Y-36010000D03*
%TD*%
D20*
%TO.C,C4*%
X62995000Y-81270000D03*
X62035000Y-81270000D03*
%TD*%
D27*
%TO.C,R13*%
X87595000Y-32890000D03*
X86575000Y-32890000D03*
%TD*%
D18*
%TO.C,R6*%
X80650000Y-30975000D03*
X80650000Y-31995000D03*
%TD*%
D28*
%TO.C,C3*%
X80425000Y-83190000D03*
X80425000Y-84150000D03*
%TD*%
D11*
%TO.C,C2*%
X26130000Y-29585000D03*
X27090000Y-29585000D03*
%TD*%
D45*
%TO.C,JP1*%
X24145000Y-33015000D03*
D46*
X24145000Y-34465000D03*
%TD*%
D22*
%TO.C,U1*%
X68305000Y-81867500D03*
D23*
X68380000Y-81330000D03*
D22*
X68305000Y-80792500D03*
X66605000Y-80792500D03*
D23*
X66530000Y-81330000D03*
D22*
X66605000Y-81867500D03*
%TD*%
D28*
%TO.C,C6*%
X52615000Y-33810000D03*
X52615000Y-34770000D03*
%TD*%
D40*
%TO.C,F1*%
X70657500Y-29860000D03*
X72232500Y-29860000D03*
%TD*%
D11*
%TO.C,C15*%
X90580000Y-68505000D03*
X91540000Y-68505000D03*
%TD*%
D27*
%TO.C,R1*%
X83120000Y-61655000D03*
X82100000Y-61655000D03*
%TD*%
D22*
%TO.C,U1*%
X104155000Y-31172500D03*
D23*
X104080000Y-31710000D03*
D22*
X104155000Y-32247500D03*
X105855000Y-32247500D03*
D23*
X105930000Y-31710000D03*
D22*
X105855000Y-31172500D03*
%TD*%
D28*
%TO.C,C6*%
X71395000Y-33810000D03*
X71395000Y-34770000D03*
%TD*%
D27*
%TO.C,R12*%
X31255000Y-80150000D03*
X30235000Y-80150000D03*
%TD*%
D11*
%TO.C,C2*%
X101250000Y-29585000D03*
X102210000Y-29585000D03*
%TD*%
D19*
%TO.C,R16*%
X99555000Y-66780000D03*
X100575000Y-66780000D03*
%TD*%
D14*
%TO.C,U4*%
X64082500Y-41210000D03*
X64082500Y-41610000D03*
X64082500Y-42010000D03*
X64082500Y-42410000D03*
X64082500Y-42810000D03*
X64082500Y-43210000D03*
X64082500Y-43610000D03*
X64082500Y-44010000D03*
X64082500Y-44410000D03*
X64082500Y-44810000D03*
X64082500Y-45210000D03*
X64082500Y-45610000D03*
X64082500Y-46010000D03*
X64082500Y-46410000D03*
D15*
X64920000Y-47247500D03*
X65320000Y-47247500D03*
X65720000Y-47247500D03*
X66120000Y-47247500D03*
X66520000Y-47247500D03*
X66920000Y-47247500D03*
X67320000Y-47247500D03*
X67720000Y-47247500D03*
X68120000Y-47247500D03*
X68520000Y-47247500D03*
X68920000Y-47247500D03*
X69320000Y-47247500D03*
X69720000Y-47247500D03*
X70120000Y-47247500D03*
D14*
X70957500Y-46410000D03*
X70957500Y-46010000D03*
X70957500Y-45610000D03*
X70957500Y-45210000D03*
X70957500Y-44810000D03*
X70957500Y-44410000D03*
X70957500Y-44010000D03*
X70957500Y-43610000D03*
X70957500Y-43210000D03*
X70957500Y-42810000D03*
X70957500Y-42410000D03*
X70957500Y-42010000D03*
X70957500Y-41610000D03*
X70957500Y-41210000D03*
D15*
X70120000Y-40372500D03*
X69720000Y-40372500D03*
X69320000Y-40372500D03*
X68920000Y-40372500D03*
X68520000Y-40372500D03*
X68120000Y-40372500D03*
X67720000Y-40372500D03*
X67320000Y-40372500D03*
X66920000Y-40372500D03*
X66520000Y-40372500D03*
X66120000Y-40372500D03*
X65720000Y-40372500D03*
X65320000Y-40372500D03*
X64920000Y-40372500D03*
D16*
X67520000Y-43810000D03*
%TD*%
D18*
%TO.C,R10*%
X42935000Y-78242500D03*
X42935000Y-79262500D03*
%TD*%
%TO.C,R3*%
X28020000Y-61720000D03*
X28020000Y-62740000D03*
%TD*%
D42*
%TO.C,REF\u002A\u002A*%
X20000000Y-94190000D03*
%TD*%
D18*
%TO.C,R4*%
X53225000Y-81045000D03*
X53225000Y-82065000D03*
%TD*%
D25*
%TO.C,Q2*%
X101180000Y-32035000D03*
X101680000Y-32035000D03*
X102180000Y-32035000D03*
X102180000Y-30535000D03*
X101680000Y-30535000D03*
X101180000Y-30535000D03*
%TD*%
D26*
%TO.C,C16*%
X64215000Y-39400000D03*
X64215000Y-38440000D03*
%TD*%
D21*
%TO.C,R11*%
X63570000Y-34820000D03*
X63570000Y-33800000D03*
%TD*%
D14*
%TO.C,U4*%
X26522500Y-41210000D03*
X26522500Y-41610000D03*
X26522500Y-42010000D03*
X26522500Y-42410000D03*
X26522500Y-42810000D03*
X26522500Y-43210000D03*
X26522500Y-43610000D03*
X26522500Y-44010000D03*
X26522500Y-44410000D03*
X26522500Y-44810000D03*
X26522500Y-45210000D03*
X26522500Y-45610000D03*
X26522500Y-46010000D03*
X26522500Y-46410000D03*
D15*
X27360000Y-47247500D03*
X27760000Y-47247500D03*
X28160000Y-47247500D03*
X28560000Y-47247500D03*
X28960000Y-47247500D03*
X29360000Y-47247500D03*
X29760000Y-47247500D03*
X30160000Y-47247500D03*
X30560000Y-47247500D03*
X30960000Y-47247500D03*
X31360000Y-47247500D03*
X31760000Y-47247500D03*
X32160000Y-47247500D03*
X32560000Y-47247500D03*
D14*
X33397500Y-46410000D03*
X33397500Y-46010000D03*
X33397500Y-45610000D03*
X33397500Y-45210000D03*
X33397500Y-44810000D03*
X33397500Y-44410000D03*
X33397500Y-44010000D03*
X33397500Y-43610000D03*
X33397500Y-43210000D03*
X33397500Y-42810000D03*
X33397500Y-42410000D03*
X33397500Y-42010000D03*
X33397500Y-41610000D03*
X33397500Y-41210000D03*
D15*
X32560000Y-40372500D03*
X32160000Y-40372500D03*
X31760000Y-40372500D03*
X31360000Y-40372500D03*
X30960000Y-40372500D03*
X30560000Y-40372500D03*
X30160000Y-40372500D03*
X29760000Y-40372500D03*
X29360000Y-40372500D03*
X28960000Y-40372500D03*
X28560000Y-40372500D03*
X28160000Y-40372500D03*
X27760000Y-40372500D03*
X27360000Y-40372500D03*
D16*
X29960000Y-43810000D03*
%TD*%
D20*
%TO.C,C5*%
X70965000Y-31770000D03*
X70005000Y-31770000D03*
%TD*%
D33*
%TO.C,D2*%
X62605000Y-77407500D03*
X62605000Y-76437500D03*
%TD*%
D43*
%TO.C,D2*%
X109855000Y-35632500D03*
X109855000Y-36602500D03*
%TD*%
D26*
%TO.C,C11*%
X67205000Y-64810000D03*
X67205000Y-63850000D03*
%TD*%
D11*
%TO.C,C4*%
X109465000Y-31770000D03*
X110425000Y-31770000D03*
%TD*%
D20*
%TO.C,C2*%
X71210000Y-83455000D03*
X70250000Y-83455000D03*
%TD*%
D34*
%TO.C,J1*%
X83035000Y-85502500D03*
X83835000Y-85502500D03*
D35*
X84985000Y-85502500D03*
X85985000Y-85502500D03*
X86485000Y-85502500D03*
X87485000Y-85502500D03*
D34*
X88635000Y-85502500D03*
X89435000Y-85502500D03*
X89435000Y-85502500D03*
X88635000Y-85502500D03*
D35*
X87985000Y-85502500D03*
X86985000Y-85502500D03*
X85485000Y-85502500D03*
X84485000Y-85502500D03*
D34*
X83835000Y-85502500D03*
X83035000Y-85502500D03*
D36*
X80660000Y-86802500D03*
X91810000Y-86802500D03*
D37*
X91810000Y-90802500D03*
X80660000Y-90802500D03*
%TD*%
D20*
%TO.C,C12*%
X44205000Y-68230000D03*
X43245000Y-68230000D03*
%TD*%
D12*
%TO.C,JP1*%
X73195000Y-80025000D03*
D13*
X73195000Y-78575000D03*
%TD*%
D19*
%TO.C,R9*%
X101145000Y-32890000D03*
X102165000Y-32890000D03*
%TD*%
D17*
%TO.C,SW1*%
X54720000Y-51010000D03*
X54720000Y-48310000D03*
X53570000Y-48310000D03*
X53570000Y-51010000D03*
%TD*%
D12*
%TO.C,JP1*%
X54415000Y-80025000D03*
D13*
X54415000Y-78575000D03*
%TD*%
D20*
%TO.C,C15*%
X81880000Y-44535000D03*
X80920000Y-44535000D03*
%TD*%
D26*
%TO.C,C19*%
X28795000Y-64810000D03*
X28795000Y-63850000D03*
%TD*%
D34*
%TO.C,J1*%
X45475000Y-85502500D03*
X46275000Y-85502500D03*
D35*
X47425000Y-85502500D03*
X48425000Y-85502500D03*
X48925000Y-85502500D03*
X49925000Y-85502500D03*
D34*
X51075000Y-85502500D03*
X51875000Y-85502500D03*
X51875000Y-85502500D03*
X51075000Y-85502500D03*
D35*
X50425000Y-85502500D03*
X49425000Y-85502500D03*
X47925000Y-85502500D03*
X46925000Y-85502500D03*
D34*
X46275000Y-85502500D03*
X45475000Y-85502500D03*
D36*
X43100000Y-86802500D03*
X54250000Y-86802500D03*
D37*
X54250000Y-90802500D03*
X43100000Y-90802500D03*
%TD*%
D26*
%TO.C,C19*%
X85135000Y-64810000D03*
X85135000Y-63850000D03*
%TD*%
%TO.C,C14*%
X105455000Y-39390000D03*
X105455000Y-38430000D03*
%TD*%
D19*
%TO.C,R5*%
X109555000Y-82905000D03*
X110575000Y-82905000D03*
%TD*%
D27*
%TO.C,R1*%
X45560000Y-61655000D03*
X44540000Y-61655000D03*
%TD*%
D18*
%TO.C,R6*%
X43090000Y-30975000D03*
X43090000Y-31995000D03*
%TD*%
D28*
%TO.C,C17*%
X86635000Y-73650000D03*
X86635000Y-74610000D03*
%TD*%
D20*
%TO.C,C2*%
X52430000Y-83455000D03*
X51470000Y-83455000D03*
%TD*%
D34*
%TO.C,J1*%
X89425000Y-27537500D03*
X88625000Y-27537500D03*
D35*
X87475000Y-27537500D03*
X86475000Y-27537500D03*
X85975000Y-27537500D03*
X84975000Y-27537500D03*
D34*
X83825000Y-27537500D03*
X83025000Y-27537500D03*
X83025000Y-27537500D03*
X83825000Y-27537500D03*
D35*
X84475000Y-27537500D03*
X85475000Y-27537500D03*
X86975000Y-27537500D03*
X87975000Y-27537500D03*
D34*
X88625000Y-27537500D03*
X89425000Y-27537500D03*
D36*
X91800000Y-26237500D03*
X80650000Y-26237500D03*
D37*
X80650000Y-22237500D03*
X91800000Y-22237500D03*
%TD*%
D18*
%TO.C,R8*%
X25825000Y-27450000D03*
X25825000Y-28470000D03*
%TD*%
D20*
%TO.C,C5*%
X52185000Y-31770000D03*
X51225000Y-31770000D03*
%TD*%
D26*
%TO.C,C3*%
X110815000Y-29850000D03*
X110815000Y-28890000D03*
%TD*%
D22*
%TO.C,U1*%
X29035000Y-31172500D03*
D23*
X28960000Y-31710000D03*
D22*
X29035000Y-32247500D03*
X30735000Y-32247500D03*
D23*
X30810000Y-31710000D03*
D22*
X30735000Y-31172500D03*
%TD*%
D25*
%TO.C,Q1*%
X63280000Y-64080000D03*
X63780000Y-64080000D03*
X64280000Y-64080000D03*
X64280000Y-62580000D03*
X63780000Y-62580000D03*
X63280000Y-62580000D03*
%TD*%
D43*
%TO.C,D1*%
X110745000Y-35622500D03*
X110745000Y-36592500D03*
%TD*%
D25*
%TO.C,Q2*%
X63620000Y-32035000D03*
X64120000Y-32035000D03*
X64620000Y-32035000D03*
X64620000Y-30535000D03*
X64120000Y-30535000D03*
X63620000Y-30535000D03*
%TD*%
D28*
%TO.C,C18*%
X64155000Y-73650000D03*
X64155000Y-74610000D03*
%TD*%
%TO.C,C16*%
X51905000Y-73640000D03*
X51905000Y-74600000D03*
%TD*%
D11*
%TO.C,C12*%
X109475000Y-44810000D03*
X110435000Y-44810000D03*
%TD*%
D18*
%TO.C,R8*%
X63385000Y-27450000D03*
X63385000Y-28470000D03*
%TD*%
D28*
%TO.C,C3*%
X61645000Y-83190000D03*
X61645000Y-84150000D03*
%TD*%
D21*
%TO.C,FB1*%
X91795000Y-24850000D03*
X91795000Y-23830000D03*
%TD*%
%TO.C,R7*%
X82165000Y-85590000D03*
X82165000Y-84570000D03*
%TD*%
D18*
%TO.C,R6*%
X61870000Y-30975000D03*
X61870000Y-31995000D03*
%TD*%
%TO.C,R15*%
X25045000Y-78242500D03*
X25045000Y-79262500D03*
%TD*%
D31*
%TO.C,U3*%
X32690000Y-79235000D03*
X32690000Y-77965000D03*
X32690000Y-76695000D03*
X32690000Y-75425000D03*
X27000000Y-75425000D03*
X27000000Y-76695000D03*
X27000000Y-77965000D03*
X27000000Y-79235000D03*
D32*
X29845000Y-77330000D03*
%TD*%
D11*
%TO.C,C4*%
X34345000Y-31770000D03*
X35305000Y-31770000D03*
%TD*%
D22*
%TO.C,U1*%
X87085000Y-81867500D03*
D23*
X87160000Y-81330000D03*
D22*
X87085000Y-80792500D03*
X85385000Y-80792500D03*
D23*
X85310000Y-81330000D03*
D22*
X85385000Y-81867500D03*
%TD*%
D19*
%TO.C,R17*%
X90665000Y-47135000D03*
X91685000Y-47135000D03*
%TD*%
D24*
%TO.C,Y1*%
X64770000Y-51160000D03*
X66520000Y-51160000D03*
X66520000Y-49760000D03*
X64770000Y-49760000D03*
%TD*%
D20*
%TO.C,C5*%
X33405000Y-31770000D03*
X32445000Y-31770000D03*
%TD*%
D42*
%TO.C,REF\u002A\u002A*%
X114900000Y-18850000D03*
%TD*%
D20*
%TO.C,C1*%
X62875000Y-29260000D03*
X61915000Y-29260000D03*
%TD*%
%TO.C,C13*%
X62995000Y-71830000D03*
X62035000Y-71830000D03*
%TD*%
D19*
%TO.C,R13*%
X47305000Y-80150000D03*
X48325000Y-80150000D03*
%TD*%
D20*
%TO.C,C4*%
X100555000Y-81270000D03*
X99595000Y-81270000D03*
%TD*%
D21*
%TO.C,R8*%
X33955000Y-85590000D03*
X33955000Y-84570000D03*
%TD*%
D33*
%TO.C,D2*%
X25045000Y-77407500D03*
X25045000Y-76437500D03*
%TD*%
D27*
%TO.C,R1*%
X101900000Y-61655000D03*
X100880000Y-61655000D03*
%TD*%
D25*
%TO.C,U5*%
X53400000Y-75530000D03*
X52900000Y-75530000D03*
X52400000Y-75530000D03*
X52400000Y-77030000D03*
X52900000Y-77030000D03*
X53400000Y-77030000D03*
%TD*%
D21*
%TO.C,R15*%
X91075000Y-34797500D03*
X91075000Y-33777500D03*
%TD*%
%TO.C,R15*%
X72295000Y-34797500D03*
X72295000Y-33777500D03*
%TD*%
D26*
%TO.C,C9*%
X65005000Y-74610000D03*
X65005000Y-73650000D03*
%TD*%
D43*
%TO.C,D1*%
X91965000Y-35622500D03*
X91965000Y-36592500D03*
%TD*%
D21*
%TO.C,R2*%
X84125000Y-32270000D03*
X84125000Y-31250000D03*
%TD*%
D20*
%TO.C,C13*%
X81775000Y-71830000D03*
X80815000Y-71830000D03*
%TD*%
D21*
%TO.C,R6*%
X54250000Y-82065000D03*
X54250000Y-81045000D03*
%TD*%
D19*
%TO.C,R14*%
X103245000Y-48710000D03*
X104265000Y-48710000D03*
%TD*%
D25*
%TO.C,Q2*%
X33720000Y-81005000D03*
X33220000Y-81005000D03*
X32720000Y-81005000D03*
X32720000Y-82505000D03*
X33220000Y-82505000D03*
X33720000Y-82505000D03*
%TD*%
D14*
%TO.C,U4*%
X82862500Y-41210000D03*
X82862500Y-41610000D03*
X82862500Y-42010000D03*
X82862500Y-42410000D03*
X82862500Y-42810000D03*
X82862500Y-43210000D03*
X82862500Y-43610000D03*
X82862500Y-44010000D03*
X82862500Y-44410000D03*
X82862500Y-44810000D03*
X82862500Y-45210000D03*
X82862500Y-45610000D03*
X82862500Y-46010000D03*
X82862500Y-46410000D03*
D15*
X83700000Y-47247500D03*
X84100000Y-47247500D03*
X84500000Y-47247500D03*
X84900000Y-47247500D03*
X85300000Y-47247500D03*
X85700000Y-47247500D03*
X86100000Y-47247500D03*
X86500000Y-47247500D03*
X86900000Y-47247500D03*
X87300000Y-47247500D03*
X87700000Y-47247500D03*
X88100000Y-47247500D03*
X88500000Y-47247500D03*
X88900000Y-47247500D03*
D14*
X89737500Y-46410000D03*
X89737500Y-46010000D03*
X89737500Y-45610000D03*
X89737500Y-45210000D03*
X89737500Y-44810000D03*
X89737500Y-44410000D03*
X89737500Y-44010000D03*
X89737500Y-43610000D03*
X89737500Y-43210000D03*
X89737500Y-42810000D03*
X89737500Y-42410000D03*
X89737500Y-42010000D03*
X89737500Y-41610000D03*
X89737500Y-41210000D03*
D15*
X88900000Y-40372500D03*
X88500000Y-40372500D03*
X88100000Y-40372500D03*
X87700000Y-40372500D03*
X87300000Y-40372500D03*
X86900000Y-40372500D03*
X86500000Y-40372500D03*
X86100000Y-40372500D03*
X85700000Y-40372500D03*
X85300000Y-40372500D03*
X84900000Y-40372500D03*
X84500000Y-40372500D03*
X84100000Y-40372500D03*
X83700000Y-40372500D03*
D16*
X86300000Y-43810000D03*
%TD*%
D19*
%TO.C,R1*%
X51780000Y-51385000D03*
X52800000Y-51385000D03*
%TD*%
D28*
%TO.C,C14*%
X29445000Y-73650000D03*
X29445000Y-74610000D03*
%TD*%
D18*
%TO.C,FB1*%
X80665000Y-88190000D03*
X80665000Y-89210000D03*
%TD*%
D28*
%TO.C,C14*%
X67005000Y-73650000D03*
X67005000Y-74610000D03*
%TD*%
D21*
%TO.C,R15*%
X34735000Y-34797500D03*
X34735000Y-33777500D03*
%TD*%
D26*
%TO.C,C14*%
X49115000Y-39390000D03*
X49115000Y-38430000D03*
%TD*%
D18*
%TO.C,R11*%
X52550000Y-78220000D03*
X52550000Y-79240000D03*
%TD*%
D33*
%TO.C,D1*%
X24155000Y-77417500D03*
X24155000Y-76447500D03*
%TD*%
D27*
%TO.C,R1*%
X26780000Y-61655000D03*
X25760000Y-61655000D03*
%TD*%
D40*
%TO.C,F1*%
X89437500Y-29860000D03*
X91012500Y-29860000D03*
%TD*%
D26*
%TO.C,C8*%
X101185000Y-51930000D03*
X101185000Y-50970000D03*
%TD*%
D28*
%TO.C,C7*%
X67255000Y-62100000D03*
X67255000Y-63060000D03*
%TD*%
D29*
%TO.C,J2*%
X37510000Y-90770000D03*
X37510000Y-88230000D03*
X37510000Y-85690000D03*
X37510000Y-83150000D03*
X37510000Y-80610000D03*
X37510000Y-78070000D03*
X37510000Y-75530000D03*
X37510000Y-72990000D03*
X37510000Y-70450000D03*
X37510000Y-67910000D03*
X37510000Y-65370000D03*
X37510000Y-62830000D03*
X37510000Y-60290000D03*
X34970000Y-60290000D03*
X32430000Y-60290000D03*
X29890000Y-60290000D03*
X27350000Y-60290000D03*
X24810000Y-60290000D03*
X22270000Y-60290000D03*
X22270000Y-62830000D03*
X22270000Y-65370000D03*
X22270000Y-67910000D03*
X22270000Y-70450000D03*
X22270000Y-72990000D03*
X22270000Y-75530000D03*
X22270000Y-78070000D03*
X22270000Y-80610000D03*
X22270000Y-83150000D03*
X22270000Y-85690000D03*
X22270000Y-88230000D03*
X22270000Y-90770000D03*
X34965000Y-62830000D03*
X28620000Y-83150000D03*
X31160000Y-83150000D03*
%TD*%
D26*
%TO.C,C10*%
X103415000Y-74610000D03*
X103415000Y-73650000D03*
%TD*%
D44*
%TO.C,U3*%
X102210000Y-33805000D03*
X102210000Y-35075000D03*
X102210000Y-36345000D03*
X102210000Y-37615000D03*
X107900000Y-37615000D03*
X107900000Y-36345000D03*
X107900000Y-35075000D03*
X107900000Y-33805000D03*
D32*
X105055000Y-35710000D03*
%TD*%
D11*
%TO.C,C1*%
X109585000Y-83780000D03*
X110545000Y-83780000D03*
%TD*%
D18*
%TO.C,R8*%
X44605000Y-27450000D03*
X44605000Y-28470000D03*
%TD*%
D20*
%TO.C,C5*%
X89745000Y-31770000D03*
X88785000Y-31770000D03*
%TD*%
%TO.C,C12*%
X25425000Y-68230000D03*
X24465000Y-68230000D03*
%TD*%
D19*
%TO.C,R1*%
X33000000Y-51385000D03*
X34020000Y-51385000D03*
%TD*%
D26*
%TO.C,C14*%
X67895000Y-39390000D03*
X67895000Y-38430000D03*
%TD*%
D28*
%TO.C,C10*%
X31485000Y-38430000D03*
X31485000Y-39390000D03*
%TD*%
D19*
%TO.C,R5*%
X53215000Y-82905000D03*
X54235000Y-82905000D03*
%TD*%
%TO.C,R13*%
X66085000Y-80150000D03*
X67105000Y-80150000D03*
%TD*%
D26*
%TO.C,C8*%
X44845000Y-51930000D03*
X44845000Y-50970000D03*
%TD*%
D27*
%TO.C,R9*%
X90095000Y-80150000D03*
X89075000Y-80150000D03*
%TD*%
%TO.C,R13*%
X31255000Y-32890000D03*
X30235000Y-32890000D03*
%TD*%
D25*
%TO.C,Q2*%
X90060000Y-81005000D03*
X89560000Y-81005000D03*
X89060000Y-81005000D03*
X89060000Y-82505000D03*
X89560000Y-82505000D03*
X90060000Y-82505000D03*
%TD*%
D18*
%TO.C,R7*%
X52735000Y-27450000D03*
X52735000Y-28470000D03*
%TD*%
D29*
%TO.C,J2*%
X97390000Y-22270000D03*
X97390000Y-24810000D03*
X97390000Y-27350000D03*
X97390000Y-29890000D03*
X97390000Y-32430000D03*
X97390000Y-34970000D03*
X97390000Y-37510000D03*
X97390000Y-40050000D03*
X97390000Y-42590000D03*
X97390000Y-45130000D03*
X97390000Y-47670000D03*
X97390000Y-50210000D03*
X97390000Y-52750000D03*
X99930000Y-52750000D03*
X102470000Y-52750000D03*
X105010000Y-52750000D03*
X107550000Y-52750000D03*
X110090000Y-52750000D03*
X112630000Y-52750000D03*
X112630000Y-50210000D03*
X112630000Y-47670000D03*
X112630000Y-45130000D03*
X112630000Y-42590000D03*
X112630000Y-40050000D03*
X112630000Y-37510000D03*
X112630000Y-34970000D03*
X112630000Y-32430000D03*
X112630000Y-29890000D03*
X112630000Y-27350000D03*
X112630000Y-24810000D03*
X112630000Y-22270000D03*
X99935000Y-50210000D03*
X106280000Y-29890000D03*
X103740000Y-29890000D03*
%TD*%
D18*
%TO.C,R7*%
X71515000Y-27450000D03*
X71515000Y-28470000D03*
%TD*%
D34*
%TO.C,J1*%
X51865000Y-27537500D03*
X51065000Y-27537500D03*
D35*
X49915000Y-27537500D03*
X48915000Y-27537500D03*
X48415000Y-27537500D03*
X47415000Y-27537500D03*
D34*
X46265000Y-27537500D03*
X45465000Y-27537500D03*
X45465000Y-27537500D03*
X46265000Y-27537500D03*
D35*
X46915000Y-27537500D03*
X47915000Y-27537500D03*
X49415000Y-27537500D03*
X50415000Y-27537500D03*
D34*
X51065000Y-27537500D03*
X51865000Y-27537500D03*
D36*
X54240000Y-26237500D03*
X43090000Y-26237500D03*
D37*
X43090000Y-22237500D03*
X54240000Y-22237500D03*
%TD*%
D27*
%TO.C,R9*%
X71315000Y-80150000D03*
X70295000Y-80150000D03*
%TD*%
D20*
%TO.C,C13*%
X44215000Y-71830000D03*
X43255000Y-71830000D03*
%TD*%
D28*
%TO.C,C9*%
X107455000Y-38430000D03*
X107455000Y-39390000D03*
%TD*%
D27*
%TO.C,R12*%
X87595000Y-80150000D03*
X86575000Y-80150000D03*
%TD*%
D18*
%TO.C,R3*%
X46800000Y-61720000D03*
X46800000Y-62740000D03*
%TD*%
D20*
%TO.C,C2*%
X108770000Y-83455000D03*
X107810000Y-83455000D03*
%TD*%
D19*
%TO.C,R5*%
X34435000Y-82905000D03*
X35455000Y-82905000D03*
%TD*%
D11*
%TO.C,C12*%
X34355000Y-44810000D03*
X35315000Y-44810000D03*
%TD*%
D14*
%TO.C,U4*%
X45302500Y-41210000D03*
X45302500Y-41610000D03*
X45302500Y-42010000D03*
X45302500Y-42410000D03*
X45302500Y-42810000D03*
X45302500Y-43210000D03*
X45302500Y-43610000D03*
X45302500Y-44010000D03*
X45302500Y-44410000D03*
X45302500Y-44810000D03*
X45302500Y-45210000D03*
X45302500Y-45610000D03*
X45302500Y-46010000D03*
X45302500Y-46410000D03*
D15*
X46140000Y-47247500D03*
X46540000Y-47247500D03*
X46940000Y-47247500D03*
X47340000Y-47247500D03*
X47740000Y-47247500D03*
X48140000Y-47247500D03*
X48540000Y-47247500D03*
X48940000Y-47247500D03*
X49340000Y-47247500D03*
X49740000Y-47247500D03*
X50140000Y-47247500D03*
X50540000Y-47247500D03*
X50940000Y-47247500D03*
X51340000Y-47247500D03*
D14*
X52177500Y-46410000D03*
X52177500Y-46010000D03*
X52177500Y-45610000D03*
X52177500Y-45210000D03*
X52177500Y-44810000D03*
X52177500Y-44410000D03*
X52177500Y-44010000D03*
X52177500Y-43610000D03*
X52177500Y-43210000D03*
X52177500Y-42810000D03*
X52177500Y-42410000D03*
X52177500Y-42010000D03*
X52177500Y-41610000D03*
X52177500Y-41210000D03*
D15*
X51340000Y-40372500D03*
X50940000Y-40372500D03*
X50540000Y-40372500D03*
X50140000Y-40372500D03*
X49740000Y-40372500D03*
X49340000Y-40372500D03*
X48940000Y-40372500D03*
X48540000Y-40372500D03*
X48140000Y-40372500D03*
X47740000Y-40372500D03*
X47340000Y-40372500D03*
X46940000Y-40372500D03*
X46540000Y-40372500D03*
X46140000Y-40372500D03*
D16*
X48740000Y-43810000D03*
%TD*%
D19*
%TO.C,R14*%
X84465000Y-48710000D03*
X85485000Y-48710000D03*
%TD*%
D11*
%TO.C,C13*%
X109465000Y-41210000D03*
X110425000Y-41210000D03*
%TD*%
D41*
%TO.C,SW1*%
X23840000Y-64730000D03*
X23840000Y-62030000D03*
X24990000Y-62030000D03*
X24990000Y-64730000D03*
%TD*%
D28*
%TO.C,C14*%
X104565000Y-73650000D03*
X104565000Y-74610000D03*
%TD*%
D27*
%TO.C,R17*%
X81795000Y-65905000D03*
X80775000Y-65905000D03*
%TD*%
D25*
%TO.C,Q1*%
X25720000Y-64080000D03*
X26220000Y-64080000D03*
X26720000Y-64080000D03*
X26720000Y-62580000D03*
X26220000Y-62580000D03*
X25720000Y-62580000D03*
%TD*%
D18*
%TO.C,R8*%
X82165000Y-27450000D03*
X82165000Y-28470000D03*
%TD*%
D28*
%TO.C,C14*%
X48225000Y-73650000D03*
X48225000Y-74610000D03*
%TD*%
D11*
%TO.C,C5*%
X82715000Y-81270000D03*
X83675000Y-81270000D03*
%TD*%
D42*
%TO.C,REF\u002A\u002A*%
X17500000Y-95540000D03*
%TD*%
D11*
%TO.C,C5*%
X26375000Y-81270000D03*
X27335000Y-81270000D03*
%TD*%
D18*
%TO.C,R2*%
X88335000Y-80770000D03*
X88335000Y-81790000D03*
%TD*%
D34*
%TO.C,J1*%
X26695000Y-85502500D03*
X27495000Y-85502500D03*
D35*
X28645000Y-85502500D03*
X29645000Y-85502500D03*
X30145000Y-85502500D03*
X31145000Y-85502500D03*
D34*
X32295000Y-85502500D03*
X33095000Y-85502500D03*
X33095000Y-85502500D03*
X32295000Y-85502500D03*
D35*
X31645000Y-85502500D03*
X30645000Y-85502500D03*
X29145000Y-85502500D03*
X28145000Y-85502500D03*
D34*
X27495000Y-85502500D03*
X26695000Y-85502500D03*
D36*
X24320000Y-86802500D03*
X35470000Y-86802500D03*
D37*
X35470000Y-90802500D03*
X24320000Y-90802500D03*
%TD*%
D26*
%TO.C,C16*%
X101775000Y-39400000D03*
X101775000Y-38440000D03*
%TD*%
D25*
%TO.C,Q1*%
X71620000Y-48960000D03*
X71120000Y-48960000D03*
X70620000Y-48960000D03*
X70620000Y-50460000D03*
X71120000Y-50460000D03*
X71620000Y-50460000D03*
%TD*%
D41*
%TO.C,SW1*%
X98960000Y-62030000D03*
X98960000Y-64730000D03*
X100110000Y-64730000D03*
X100110000Y-62030000D03*
%TD*%
D21*
%TO.C,R10*%
X91965000Y-34797500D03*
X91965000Y-33777500D03*
%TD*%
D20*
%TO.C,C1*%
X81655000Y-29260000D03*
X80695000Y-29260000D03*
%TD*%
D21*
%TO.C,R6*%
X35470000Y-82065000D03*
X35470000Y-81045000D03*
%TD*%
D18*
%TO.C,R10*%
X80495000Y-78242500D03*
X80495000Y-79262500D03*
%TD*%
D22*
%TO.C,U1*%
X49525000Y-81867500D03*
D23*
X49600000Y-81330000D03*
D22*
X49525000Y-80792500D03*
X47825000Y-80792500D03*
D23*
X47750000Y-81330000D03*
D22*
X47825000Y-81867500D03*
%TD*%
D26*
%TO.C,C10*%
X84635000Y-74610000D03*
X84635000Y-73650000D03*
%TD*%
%TO.C,C10*%
X47075000Y-74610000D03*
X47075000Y-73650000D03*
%TD*%
D19*
%TO.C,R17*%
X53105000Y-47135000D03*
X54125000Y-47135000D03*
%TD*%
D20*
%TO.C,C12*%
X100545000Y-68230000D03*
X99585000Y-68230000D03*
%TD*%
%TO.C,C13*%
X25435000Y-71830000D03*
X24475000Y-71830000D03*
%TD*%
D41*
%TO.C,SW1*%
X80180000Y-62030000D03*
X80180000Y-64730000D03*
X81330000Y-64730000D03*
X81330000Y-62030000D03*
%TD*%
D20*
%TO.C,C4*%
X44215000Y-81270000D03*
X43255000Y-81270000D03*
%TD*%
D28*
%TO.C,C9*%
X51115000Y-38430000D03*
X51115000Y-39390000D03*
%TD*%
D11*
%TO.C,C4*%
X53125000Y-31770000D03*
X54085000Y-31770000D03*
%TD*%
D21*
%TO.C,R3*%
X50540000Y-51320000D03*
X50540000Y-50300000D03*
%TD*%
D30*
%TO.C,F1*%
X64242500Y-83180000D03*
X62667500Y-83180000D03*
%TD*%
D28*
%TO.C,C19*%
X106105000Y-48230000D03*
X106105000Y-49190000D03*
%TD*%
D19*
%TO.C,R5*%
X90775000Y-82905000D03*
X91795000Y-82905000D03*
%TD*%
D25*
%TO.C,Q2*%
X108840000Y-81005000D03*
X108340000Y-81005000D03*
X107840000Y-81005000D03*
X107840000Y-82505000D03*
X108340000Y-82505000D03*
X108840000Y-82505000D03*
%TD*%
%TO.C,Q2*%
X44840000Y-32035000D03*
X45340000Y-32035000D03*
X45840000Y-32035000D03*
X45840000Y-30535000D03*
X45340000Y-30535000D03*
X44840000Y-30535000D03*
%TD*%
D11*
%TO.C,C5*%
X63935000Y-81270000D03*
X64895000Y-81270000D03*
%TD*%
D25*
%TO.C,Q1*%
X109180000Y-48960000D03*
X108680000Y-48960000D03*
X108180000Y-48960000D03*
X108180000Y-50460000D03*
X108680000Y-50460000D03*
X109180000Y-50460000D03*
%TD*%
D28*
%TO.C,C7*%
X86035000Y-62100000D03*
X86035000Y-63060000D03*
%TD*%
D29*
%TO.C,J2*%
X41050000Y-22270000D03*
X41050000Y-24810000D03*
X41050000Y-27350000D03*
X41050000Y-29890000D03*
X41050000Y-32430000D03*
X41050000Y-34970000D03*
X41050000Y-37510000D03*
X41050000Y-40050000D03*
X41050000Y-42590000D03*
X41050000Y-45130000D03*
X41050000Y-47670000D03*
X41050000Y-50210000D03*
X41050000Y-52750000D03*
X43590000Y-52750000D03*
X46130000Y-52750000D03*
X48670000Y-52750000D03*
X51210000Y-52750000D03*
X53750000Y-52750000D03*
X56290000Y-52750000D03*
X56290000Y-50210000D03*
X56290000Y-47670000D03*
X56290000Y-45130000D03*
X56290000Y-42590000D03*
X56290000Y-40050000D03*
X56290000Y-37510000D03*
X56290000Y-34970000D03*
X56290000Y-32430000D03*
X56290000Y-29890000D03*
X56290000Y-27350000D03*
X56290000Y-24810000D03*
X56290000Y-22270000D03*
X43595000Y-50210000D03*
X49940000Y-29890000D03*
X47400000Y-29890000D03*
%TD*%
D31*
%TO.C,U3*%
X70250000Y-79235000D03*
X70250000Y-77965000D03*
X70250000Y-76695000D03*
X70250000Y-75425000D03*
X64560000Y-75425000D03*
X64560000Y-76695000D03*
X64560000Y-77965000D03*
X64560000Y-79235000D03*
D32*
X67405000Y-77330000D03*
%TD*%
D11*
%TO.C,C13*%
X90685000Y-41210000D03*
X91645000Y-41210000D03*
%TD*%
D27*
%TO.C,R14*%
X106775000Y-64330000D03*
X105755000Y-64330000D03*
%TD*%
D21*
%TO.C,R7*%
X100945000Y-85590000D03*
X100945000Y-84570000D03*
%TD*%
D18*
%TO.C,R3*%
X84360000Y-61720000D03*
X84360000Y-62740000D03*
%TD*%
D38*
%TO.C,U4*%
X52037500Y-71830000D03*
X52037500Y-71430000D03*
X52037500Y-71030000D03*
X52037500Y-70630000D03*
X52037500Y-70230000D03*
X52037500Y-69830000D03*
X52037500Y-69430000D03*
X52037500Y-69030000D03*
X52037500Y-68630000D03*
X52037500Y-68230000D03*
X52037500Y-67830000D03*
X52037500Y-67430000D03*
X52037500Y-67030000D03*
X52037500Y-66630000D03*
D39*
X51200000Y-65792500D03*
X50800000Y-65792500D03*
X50400000Y-65792500D03*
X50000000Y-65792500D03*
X49600000Y-65792500D03*
X49200000Y-65792500D03*
X48800000Y-65792500D03*
X48400000Y-65792500D03*
X48000000Y-65792500D03*
X47600000Y-65792500D03*
X47200000Y-65792500D03*
X46800000Y-65792500D03*
X46400000Y-65792500D03*
X46000000Y-65792500D03*
D38*
X45162500Y-66630000D03*
X45162500Y-67030000D03*
X45162500Y-67430000D03*
X45162500Y-67830000D03*
X45162500Y-68230000D03*
X45162500Y-68630000D03*
X45162500Y-69030000D03*
X45162500Y-69430000D03*
X45162500Y-69830000D03*
X45162500Y-70230000D03*
X45162500Y-70630000D03*
X45162500Y-71030000D03*
X45162500Y-71430000D03*
X45162500Y-71830000D03*
D39*
X46000000Y-72667500D03*
X46400000Y-72667500D03*
X46800000Y-72667500D03*
X47200000Y-72667500D03*
X47600000Y-72667500D03*
X48000000Y-72667500D03*
X48400000Y-72667500D03*
X48800000Y-72667500D03*
X49200000Y-72667500D03*
X49600000Y-72667500D03*
X50000000Y-72667500D03*
X50400000Y-72667500D03*
X50800000Y-72667500D03*
X51200000Y-72667500D03*
D16*
X48600000Y-69230000D03*
%TD*%
D19*
%TO.C,R13*%
X28525000Y-80150000D03*
X29545000Y-80150000D03*
%TD*%
D28*
%TO.C,C10*%
X50265000Y-38430000D03*
X50265000Y-39390000D03*
%TD*%
%TO.C,C8*%
X90055000Y-61110000D03*
X90055000Y-62070000D03*
%TD*%
D26*
%TO.C,C7*%
X86425000Y-50940000D03*
X86425000Y-49980000D03*
%TD*%
D11*
%TO.C,C2*%
X82470000Y-29585000D03*
X83430000Y-29585000D03*
%TD*%
D26*
%TO.C,C7*%
X105205000Y-50940000D03*
X105205000Y-49980000D03*
%TD*%
D28*
%TO.C,C11*%
X86475000Y-48230000D03*
X86475000Y-49190000D03*
%TD*%
D27*
%TO.C,R13*%
X50035000Y-32890000D03*
X49015000Y-32890000D03*
%TD*%
D43*
%TO.C,D2*%
X53515000Y-35632500D03*
X53515000Y-36602500D03*
%TD*%
D21*
%TO.C,R10*%
X35625000Y-34797500D03*
X35625000Y-33777500D03*
%TD*%
D11*
%TO.C,C1*%
X90805000Y-83780000D03*
X91765000Y-83780000D03*
%TD*%
D28*
%TO.C,C17*%
X30295000Y-73650000D03*
X30295000Y-74610000D03*
%TD*%
D19*
%TO.C,R14*%
X46905000Y-48710000D03*
X47925000Y-48710000D03*
%TD*%
D28*
%TO.C,C11*%
X67695000Y-48230000D03*
X67695000Y-49190000D03*
%TD*%
D18*
%TO.C,R4*%
X34445000Y-81045000D03*
X34445000Y-82065000D03*
%TD*%
D19*
%TO.C,R9*%
X82365000Y-32890000D03*
X83385000Y-32890000D03*
%TD*%
D21*
%TO.C,R11*%
X82350000Y-34820000D03*
X82350000Y-33800000D03*
%TD*%
D43*
%TO.C,D2*%
X91075000Y-35632500D03*
X91075000Y-36602500D03*
%TD*%
D33*
%TO.C,D2*%
X81385000Y-77407500D03*
X81385000Y-76437500D03*
%TD*%
D30*
%TO.C,F1*%
X45462500Y-83180000D03*
X43887500Y-83180000D03*
%TD*%
D29*
%TO.C,J2*%
X75070000Y-90770000D03*
X75070000Y-88230000D03*
X75070000Y-85690000D03*
X75070000Y-83150000D03*
X75070000Y-80610000D03*
X75070000Y-78070000D03*
X75070000Y-75530000D03*
X75070000Y-72990000D03*
X75070000Y-70450000D03*
X75070000Y-67910000D03*
X75070000Y-65370000D03*
X75070000Y-62830000D03*
X75070000Y-60290000D03*
X72530000Y-60290000D03*
X69990000Y-60290000D03*
X67450000Y-60290000D03*
X64910000Y-60290000D03*
X62370000Y-60290000D03*
X59830000Y-60290000D03*
X59830000Y-62830000D03*
X59830000Y-65370000D03*
X59830000Y-67910000D03*
X59830000Y-70450000D03*
X59830000Y-72990000D03*
X59830000Y-75530000D03*
X59830000Y-78070000D03*
X59830000Y-80610000D03*
X59830000Y-83150000D03*
X59830000Y-85690000D03*
X59830000Y-88230000D03*
X59830000Y-90770000D03*
X72525000Y-62830000D03*
X66180000Y-83150000D03*
X68720000Y-83150000D03*
%TD*%
D45*
%TO.C,JP1*%
X42925000Y-33015000D03*
D46*
X42925000Y-34465000D03*
%TD*%
M02*
