%TF.GenerationSoftware,KiCad,Pcbnew,(6.0.7)*%
%TF.CreationDate,2022-09-17T18:54:00+02:00*%
%TF.ProjectId,panel,70616e65-6c2e-46b6-9963-61645f706362,rev1.0*%
%TF.SameCoordinates,Original*%
%TF.FileFunction,Soldermask,Bot*%
%TF.FilePolarity,Negative*%
%FSLAX46Y46*%
G04 Gerber Fmt 4.6, Leading zero omitted, Abs format (unit mm)*
G04 Created by KiCad (PCBNEW (6.0.7)) date 2022-09-17 18:54:00*
%MOMM*%
%LPD*%
G01*
G04 APERTURE LIST*
%ADD10C,1.752600*%
%ADD11O,1.000000X1.700000*%
%ADD12O,1.000000X2.100000*%
%ADD13C,2.000000*%
%ADD14C,0.800000*%
G04 APERTURE END LIST*
D10*
%TO.C,J2*%
X56290000Y-90770000D03*
X56290000Y-88230000D03*
X56290000Y-85690000D03*
X56290000Y-83150000D03*
X56290000Y-80610000D03*
X56290000Y-78070000D03*
X56290000Y-75530000D03*
X56290000Y-72990000D03*
X56290000Y-70450000D03*
X56290000Y-67910000D03*
X56290000Y-65370000D03*
X56290000Y-62830000D03*
X56290000Y-60290000D03*
X53750000Y-60290000D03*
X51210000Y-60290000D03*
X48670000Y-60290000D03*
X46130000Y-60290000D03*
X43590000Y-60290000D03*
X41050000Y-60290000D03*
X41050000Y-62830000D03*
X41050000Y-65370000D03*
X41050000Y-67910000D03*
X41050000Y-70450000D03*
X41050000Y-72990000D03*
X41050000Y-75530000D03*
X41050000Y-78070000D03*
X41050000Y-80610000D03*
X41050000Y-83150000D03*
X41050000Y-85690000D03*
X41050000Y-88230000D03*
X41050000Y-90770000D03*
X53745000Y-62830000D03*
X47400000Y-83150000D03*
X49940000Y-83150000D03*
%TD*%
%TO.C,J2*%
X93850000Y-90770000D03*
X93850000Y-88230000D03*
X93850000Y-85690000D03*
X93850000Y-83150000D03*
X93850000Y-80610000D03*
X93850000Y-78070000D03*
X93850000Y-75530000D03*
X93850000Y-72990000D03*
X93850000Y-70450000D03*
X93850000Y-67910000D03*
X93850000Y-65370000D03*
X93850000Y-62830000D03*
X93850000Y-60290000D03*
X91310000Y-60290000D03*
X88770000Y-60290000D03*
X86230000Y-60290000D03*
X83690000Y-60290000D03*
X81150000Y-60290000D03*
X78610000Y-60290000D03*
X78610000Y-62830000D03*
X78610000Y-65370000D03*
X78610000Y-67910000D03*
X78610000Y-70450000D03*
X78610000Y-72990000D03*
X78610000Y-75530000D03*
X78610000Y-78070000D03*
X78610000Y-80610000D03*
X78610000Y-83150000D03*
X78610000Y-85690000D03*
X78610000Y-88230000D03*
X78610000Y-90770000D03*
X91305000Y-62830000D03*
X84960000Y-83150000D03*
X87500000Y-83150000D03*
%TD*%
D11*
%TO.C,J1*%
X73020000Y-26237500D03*
X61870000Y-26237500D03*
D12*
X61870000Y-22237500D03*
X73020000Y-22237500D03*
%TD*%
D11*
%TO.C,J1*%
X99440000Y-86802500D03*
X110590000Y-86802500D03*
D12*
X110590000Y-90802500D03*
X99440000Y-90802500D03*
%TD*%
D10*
%TO.C,J2*%
X112630000Y-90770000D03*
X112630000Y-88230000D03*
X112630000Y-85690000D03*
X112630000Y-83150000D03*
X112630000Y-80610000D03*
X112630000Y-78070000D03*
X112630000Y-75530000D03*
X112630000Y-72990000D03*
X112630000Y-70450000D03*
X112630000Y-67910000D03*
X112630000Y-65370000D03*
X112630000Y-62830000D03*
X112630000Y-60290000D03*
X110090000Y-60290000D03*
X107550000Y-60290000D03*
X105010000Y-60290000D03*
X102470000Y-60290000D03*
X99930000Y-60290000D03*
X97390000Y-60290000D03*
X97390000Y-62830000D03*
X97390000Y-65370000D03*
X97390000Y-67910000D03*
X97390000Y-70450000D03*
X97390000Y-72990000D03*
X97390000Y-75530000D03*
X97390000Y-78070000D03*
X97390000Y-80610000D03*
X97390000Y-83150000D03*
X97390000Y-85690000D03*
X97390000Y-88230000D03*
X97390000Y-90770000D03*
X110085000Y-62830000D03*
X103740000Y-83150000D03*
X106280000Y-83150000D03*
%TD*%
%TO.C,J2*%
X78610000Y-22270000D03*
X78610000Y-24810000D03*
X78610000Y-27350000D03*
X78610000Y-29890000D03*
X78610000Y-32430000D03*
X78610000Y-34970000D03*
X78610000Y-37510000D03*
X78610000Y-40050000D03*
X78610000Y-42590000D03*
X78610000Y-45130000D03*
X78610000Y-47670000D03*
X78610000Y-50210000D03*
X78610000Y-52750000D03*
X81150000Y-52750000D03*
X83690000Y-52750000D03*
X86230000Y-52750000D03*
X88770000Y-52750000D03*
X91310000Y-52750000D03*
X93850000Y-52750000D03*
X93850000Y-50210000D03*
X93850000Y-47670000D03*
X93850000Y-45130000D03*
X93850000Y-42590000D03*
X93850000Y-40050000D03*
X93850000Y-37510000D03*
X93850000Y-34970000D03*
X93850000Y-32430000D03*
X93850000Y-29890000D03*
X93850000Y-27350000D03*
X93850000Y-24810000D03*
X93850000Y-22270000D03*
X81155000Y-50210000D03*
X87500000Y-29890000D03*
X84960000Y-29890000D03*
%TD*%
D11*
%TO.C,J1*%
X110580000Y-26237500D03*
X99430000Y-26237500D03*
D12*
X99430000Y-22237500D03*
X110580000Y-22237500D03*
%TD*%
D11*
%TO.C,J1*%
X61880000Y-86802500D03*
X73030000Y-86802500D03*
D12*
X73030000Y-90802500D03*
X61880000Y-90802500D03*
%TD*%
D10*
%TO.C,J2*%
X59830000Y-22270000D03*
X59830000Y-24810000D03*
X59830000Y-27350000D03*
X59830000Y-29890000D03*
X59830000Y-32430000D03*
X59830000Y-34970000D03*
X59830000Y-37510000D03*
X59830000Y-40050000D03*
X59830000Y-42590000D03*
X59830000Y-45130000D03*
X59830000Y-47670000D03*
X59830000Y-50210000D03*
X59830000Y-52750000D03*
X62370000Y-52750000D03*
X64910000Y-52750000D03*
X67450000Y-52750000D03*
X69990000Y-52750000D03*
X72530000Y-52750000D03*
X75070000Y-52750000D03*
X75070000Y-50210000D03*
X75070000Y-47670000D03*
X75070000Y-45130000D03*
X75070000Y-42590000D03*
X75070000Y-40050000D03*
X75070000Y-37510000D03*
X75070000Y-34970000D03*
X75070000Y-32430000D03*
X75070000Y-29890000D03*
X75070000Y-27350000D03*
X75070000Y-24810000D03*
X75070000Y-22270000D03*
X62375000Y-50210000D03*
X68720000Y-29890000D03*
X66180000Y-29890000D03*
%TD*%
%TO.C,J2*%
X22270000Y-22270000D03*
X22270000Y-24810000D03*
X22270000Y-27350000D03*
X22270000Y-29890000D03*
X22270000Y-32430000D03*
X22270000Y-34970000D03*
X22270000Y-37510000D03*
X22270000Y-40050000D03*
X22270000Y-42590000D03*
X22270000Y-45130000D03*
X22270000Y-47670000D03*
X22270000Y-50210000D03*
X22270000Y-52750000D03*
X24810000Y-52750000D03*
X27350000Y-52750000D03*
X29890000Y-52750000D03*
X32430000Y-52750000D03*
X34970000Y-52750000D03*
X37510000Y-52750000D03*
X37510000Y-50210000D03*
X37510000Y-47670000D03*
X37510000Y-45130000D03*
X37510000Y-42590000D03*
X37510000Y-40050000D03*
X37510000Y-37510000D03*
X37510000Y-34970000D03*
X37510000Y-32430000D03*
X37510000Y-29890000D03*
X37510000Y-27350000D03*
X37510000Y-24810000D03*
X37510000Y-22270000D03*
X24815000Y-50210000D03*
X31160000Y-29890000D03*
X28620000Y-29890000D03*
%TD*%
D11*
%TO.C,J1*%
X35460000Y-26237500D03*
X24310000Y-26237500D03*
D12*
X24310000Y-22237500D03*
X35460000Y-22237500D03*
%TD*%
D13*
%TO.C,REF\u002A\u002A*%
X117400000Y-17500000D03*
%TD*%
%TO.C,REF\u002A\u002A*%
X17500000Y-17500000D03*
%TD*%
D11*
%TO.C,J1*%
X80660000Y-86802500D03*
X91810000Y-86802500D03*
D12*
X91810000Y-90802500D03*
X80660000Y-90802500D03*
%TD*%
D11*
%TO.C,J1*%
X43100000Y-86802500D03*
X54250000Y-86802500D03*
D12*
X54250000Y-90802500D03*
X43100000Y-90802500D03*
%TD*%
D11*
%TO.C,J1*%
X91800000Y-26237500D03*
X80650000Y-26237500D03*
D12*
X80650000Y-22237500D03*
X91800000Y-22237500D03*
%TD*%
D10*
%TO.C,J2*%
X37510000Y-90770000D03*
X37510000Y-88230000D03*
X37510000Y-85690000D03*
X37510000Y-83150000D03*
X37510000Y-80610000D03*
X37510000Y-78070000D03*
X37510000Y-75530000D03*
X37510000Y-72990000D03*
X37510000Y-70450000D03*
X37510000Y-67910000D03*
X37510000Y-65370000D03*
X37510000Y-62830000D03*
X37510000Y-60290000D03*
X34970000Y-60290000D03*
X32430000Y-60290000D03*
X29890000Y-60290000D03*
X27350000Y-60290000D03*
X24810000Y-60290000D03*
X22270000Y-60290000D03*
X22270000Y-62830000D03*
X22270000Y-65370000D03*
X22270000Y-67910000D03*
X22270000Y-70450000D03*
X22270000Y-72990000D03*
X22270000Y-75530000D03*
X22270000Y-78070000D03*
X22270000Y-80610000D03*
X22270000Y-83150000D03*
X22270000Y-85690000D03*
X22270000Y-88230000D03*
X22270000Y-90770000D03*
X34965000Y-62830000D03*
X28620000Y-83150000D03*
X31160000Y-83150000D03*
%TD*%
%TO.C,J2*%
X97390000Y-22270000D03*
X97390000Y-24810000D03*
X97390000Y-27350000D03*
X97390000Y-29890000D03*
X97390000Y-32430000D03*
X97390000Y-34970000D03*
X97390000Y-37510000D03*
X97390000Y-40050000D03*
X97390000Y-42590000D03*
X97390000Y-45130000D03*
X97390000Y-47670000D03*
X97390000Y-50210000D03*
X97390000Y-52750000D03*
X99930000Y-52750000D03*
X102470000Y-52750000D03*
X105010000Y-52750000D03*
X107550000Y-52750000D03*
X110090000Y-52750000D03*
X112630000Y-52750000D03*
X112630000Y-50210000D03*
X112630000Y-47670000D03*
X112630000Y-45130000D03*
X112630000Y-42590000D03*
X112630000Y-40050000D03*
X112630000Y-37510000D03*
X112630000Y-34970000D03*
X112630000Y-32430000D03*
X112630000Y-29890000D03*
X112630000Y-27350000D03*
X112630000Y-24810000D03*
X112630000Y-22270000D03*
X99935000Y-50210000D03*
X106280000Y-29890000D03*
X103740000Y-29890000D03*
%TD*%
D11*
%TO.C,J1*%
X54240000Y-26237500D03*
X43090000Y-26237500D03*
D12*
X43090000Y-22237500D03*
X54240000Y-22237500D03*
%TD*%
D13*
%TO.C,REF\u002A\u002A*%
X17500000Y-95540000D03*
%TD*%
D11*
%TO.C,J1*%
X24320000Y-86802500D03*
X35470000Y-86802500D03*
D12*
X35470000Y-90802500D03*
X24320000Y-90802500D03*
%TD*%
D10*
%TO.C,J2*%
X41050000Y-22270000D03*
X41050000Y-24810000D03*
X41050000Y-27350000D03*
X41050000Y-29890000D03*
X41050000Y-32430000D03*
X41050000Y-34970000D03*
X41050000Y-37510000D03*
X41050000Y-40050000D03*
X41050000Y-42590000D03*
X41050000Y-45130000D03*
X41050000Y-47670000D03*
X41050000Y-50210000D03*
X41050000Y-52750000D03*
X43590000Y-52750000D03*
X46130000Y-52750000D03*
X48670000Y-52750000D03*
X51210000Y-52750000D03*
X53750000Y-52750000D03*
X56290000Y-52750000D03*
X56290000Y-50210000D03*
X56290000Y-47670000D03*
X56290000Y-45130000D03*
X56290000Y-42590000D03*
X56290000Y-40050000D03*
X56290000Y-37510000D03*
X56290000Y-34970000D03*
X56290000Y-32430000D03*
X56290000Y-29890000D03*
X56290000Y-27350000D03*
X56290000Y-24810000D03*
X56290000Y-22270000D03*
X43595000Y-50210000D03*
X49940000Y-29890000D03*
X47400000Y-29890000D03*
%TD*%
%TO.C,J2*%
X75070000Y-90770000D03*
X75070000Y-88230000D03*
X75070000Y-85690000D03*
X75070000Y-83150000D03*
X75070000Y-80610000D03*
X75070000Y-78070000D03*
X75070000Y-75530000D03*
X75070000Y-72990000D03*
X75070000Y-70450000D03*
X75070000Y-67910000D03*
X75070000Y-65370000D03*
X75070000Y-62830000D03*
X75070000Y-60290000D03*
X72530000Y-60290000D03*
X69990000Y-60290000D03*
X67450000Y-60290000D03*
X64910000Y-60290000D03*
X62370000Y-60290000D03*
X59830000Y-60290000D03*
X59830000Y-62830000D03*
X59830000Y-65370000D03*
X59830000Y-67910000D03*
X59830000Y-70450000D03*
X59830000Y-72990000D03*
X59830000Y-75530000D03*
X59830000Y-78070000D03*
X59830000Y-80610000D03*
X59830000Y-83150000D03*
X59830000Y-85690000D03*
X59830000Y-88230000D03*
X59830000Y-90770000D03*
X72525000Y-62830000D03*
X66180000Y-83150000D03*
X68720000Y-83150000D03*
%TD*%
D14*
%TO.C,TP2*%
X66835000Y-66970000D03*
%TD*%
%TO.C,TP1*%
X48185000Y-46060000D03*
%TD*%
%TO.C,TP2*%
X68065000Y-46070000D03*
%TD*%
%TO.C,TP2*%
X85615000Y-66970000D03*
%TD*%
%TO.C,TP1*%
X30375000Y-66980000D03*
%TD*%
%TO.C,TP1*%
X66965000Y-46060000D03*
%TD*%
%TO.C,TP2*%
X30505000Y-46070000D03*
%TD*%
D13*
%TO.C,REF\u002A\u002A*%
X20000000Y-18850000D03*
%TD*%
D14*
%TO.C,TP2*%
X86845000Y-46070000D03*
%TD*%
%TO.C,TP1*%
X86715000Y-66980000D03*
%TD*%
%TO.C,TP2*%
X48055000Y-66970000D03*
%TD*%
%TO.C,TP2*%
X29275000Y-66970000D03*
%TD*%
%TO.C,TP2*%
X105625000Y-46070000D03*
%TD*%
%TO.C,TP1*%
X104525000Y-46060000D03*
%TD*%
%TO.C,TP1*%
X105495000Y-66980000D03*
%TD*%
%TO.C,TP1*%
X29405000Y-46060000D03*
%TD*%
%TO.C,TP1*%
X67935000Y-66980000D03*
%TD*%
%TO.C,TP2*%
X104395000Y-66970000D03*
%TD*%
%TO.C,TP2*%
X49285000Y-46070000D03*
%TD*%
D13*
%TO.C,REF\u002A\u002A*%
X20000000Y-94190000D03*
%TD*%
D14*
%TO.C,TP1*%
X85745000Y-46060000D03*
%TD*%
%TO.C,TP1*%
X49155000Y-66980000D03*
%TD*%
D13*
%TO.C,REF\u002A\u002A*%
X114900000Y-18850000D03*
%TD*%
M02*
