M48
; DRILL file {KiCad (6.0.7)} date Sat 17 Sep 2022 06:53:57 PM CEST
; FORMAT={-:-/ absolute / metric / decimal}
; #@! TF.CreationDate,2022-09-17T18:53:57+02:00
; #@! TF.GenerationSoftware,Kicad,Pcbnew,(6.0.7)
; #@! TF.FileFunction,MixedPlating,1,4
FMAT,2
METRIC
; #@! TA.AperFunction,Plated,PTH,ViaDrill
T1C0.200
; #@! TA.AperFunction,Plated,PTH,ViaDrill
T2C0.300
; #@! TA.AperFunction,Plated,PTH,ComponentDrill
T3C0.600
; #@! TA.AperFunction,Plated,PTH,ComponentDrill
T4C1.092
; #@! TA.AperFunction,NonPlated,NPTH,ComponentDrill
T5C2.000
%
G90
G05
T1
X21.485Y-31.14
X21.525Y-36.23
X21.525Y-38.78
X21.535Y-51.49
X21.535Y-76.78
X21.545Y-43.86
X21.545Y-81.83
X21.585Y-66.65
X21.635Y-64.07
X23.205Y-79.45
X23.535Y-53.44
X23.765Y-44.89
X23.845Y-64.02
X23.895Y-42.8
X24.095Y-82.61
X24.215Y-24.29
X24.305Y-88.83
X24.465Y-40.62
X24.545Y-32.89
X24.545Y-34.63
X24.585Y-74.83
X24.815Y-66.78
X24.895Y-71.11
X24.955Y-65.22
X25.105Y-40.62
X25.145Y-68.23
X25.235Y-44.535
X25.27Y-70.155
X25.275Y-67.46
X25.31Y-34.46
X25.325Y-38.4
X25.415Y-72.49
X25.785Y-48.68
X25.825Y-84.95
X25.835Y-28.09
X25.955Y-63.02
X25.975Y-34.47
X26.085Y-53.38
X26.095Y-59.62
X26.145Y-65.59
X26.185Y-35.46
X26.275Y-36.8
X26.385Y-79.23
X26.595Y-73.96
X26.665Y-39.1
X26.67Y-31.25
X26.81Y-47.235
X27.115Y-70.65
X27.125Y-71.28
X27.155Y-67.87
X27.165Y-68.66
X27.195Y-79.955
X27.295Y-38.9
X27.325Y-44.79
X27.37Y-61.705
X27.385Y-44.18
X27.405Y-43.54
X27.445Y-73.93
X27.485Y-41.725
X27.555Y-69.63
X27.685Y-46.47
X27.745Y-66.53
X27.77Y-75.43
X27.77Y-76.705
X27.77Y-77.98
X27.785Y-32.935
X27.835Y-33.81
X27.835Y-35.06
X27.835Y-36.36
X28.085Y-41.81
X28.095Y-73.955
X28.165Y-46.05
X28.165Y-47.92
X28.175Y-28.287
X28.615Y-59.63
X28.645Y-84.86
X28.71Y-41.835
X28.795Y-64.53
X28.82Y-71.48
X29.155Y-32.91
X29.155Y-80.13
X29.215Y-69.83
X29.22Y-69.23
X29.225Y-68.63
X29.275Y-66.97
X29.31Y-41.735
X29.355Y-44.41
X29.36Y-43.81
X29.365Y-43.21
X29.405Y-46.06
X29.47Y-71.48
X29.485Y-39.11
X29.535Y-41.16
X29.62Y-73.93
X29.62Y-81.33
X29.635Y-84.69
X29.645Y-64.53
X29.82Y-68.63
X29.82Y-69.23
X29.82Y-69.83
X29.845Y-76.13
X29.845Y-76.73
X29.845Y-77.33
X29.845Y-77.93
X29.845Y-78.53
X29.875Y-82.48
X29.905Y-30.56
X29.935Y-34.51
X29.935Y-35.11
X29.935Y-35.71
X29.935Y-36.31
X29.935Y-36.91
X29.96Y-43.21
X29.96Y-43.81
X29.96Y-44.41
X30.135Y-48.51
X30.145Y-28.35
X30.16Y-31.71
X30.16Y-39.11
X30.245Y-71.88
X30.295Y-73.93
X30.31Y-41.56
X30.375Y-66.98
X30.415Y-69.83
X30.42Y-69.23
X30.425Y-68.63
X30.47Y-71.305
X30.505Y-46.07
X30.555Y-44.41
X30.56Y-43.81
X30.565Y-43.21
X30.625Y-32.91
X30.625Y-80.13
X30.96Y-41.56
X30.985Y-48.51
X31.07Y-71.205
X31.135Y-28.18
X31.165Y-53.41
X31.605Y-84.753
X31.615Y-65.12
X31.615Y-66.99
X31.685Y-39.085
X31.695Y-71.23
X31.945Y-76.68
X31.945Y-77.98
X31.945Y-79.23
X31.995Y-80.105
X32.01Y-35.06
X32.01Y-36.335
X32.01Y-37.61
X32.035Y-46.51
X32.095Y-66.57
X32.225Y-43.41
X32.295Y-71.315
X32.335Y-39.11
X32.375Y-69.5
X32.395Y-68.86
X32.41Y-51.335
X32.455Y-68.25
X32.485Y-74.14
X32.585Y-33.085
X32.615Y-44.38
X32.625Y-45.17
X32.655Y-41.76
X32.665Y-42.39
X32.97Y-65.805
X33.11Y-81.79
X33.115Y-73.94
X33.185Y-39.08
X33.395Y-33.81
X33.505Y-76.24
X33.595Y-77.58
X33.635Y-47.45
X33.685Y-53.42
X33.695Y-59.66
X33.805Y-78.57
X33.825Y-50.02
X33.945Y-84.95
X33.955Y-28.09
X33.995Y-64.36
X34.365Y-40.55
X34.455Y-74.64
X34.47Y-78.58
X34.505Y-45.58
X34.51Y-42.885
X34.545Y-68.505
X34.635Y-44.81
X34.675Y-72.42
X34.825Y-47.82
X34.885Y-41.93
X34.965Y-46.26
X35.195Y-38.21
X35.235Y-78.41
X35.235Y-80.15
X35.315Y-72.42
X35.475Y-24.21
X35.565Y-88.75
X35.685Y-30.43
X35.885Y-70.24
X35.935Y-49.02
X36.015Y-68.15
X36.245Y-59.6
X36.575Y-33.59
X38.145Y-48.97
X38.195Y-46.39
X38.235Y-31.21
X38.235Y-69.18
X38.245Y-36.26
X38.245Y-61.55
X38.255Y-74.26
X38.255Y-76.81
X38.295Y-81.9
X40.265Y-31.14
X40.305Y-36.23
X40.305Y-38.78
X40.315Y-51.49
X40.315Y-76.78
X40.325Y-43.86
X40.325Y-81.83
X40.365Y-66.65
X40.415Y-64.07
X41.985Y-79.45
X42.315Y-53.44
X42.545Y-44.89
X42.625Y-64.02
X42.675Y-42.8
X42.875Y-82.61
X42.995Y-24.29
X43.085Y-88.83
X43.245Y-40.62
X43.325Y-32.89
X43.325Y-34.63
X43.365Y-74.83
X43.595Y-66.78
X43.675Y-71.11
X43.735Y-65.22
X43.885Y-40.62
X43.925Y-68.23
X44.015Y-44.535
X44.05Y-70.155
X44.055Y-67.46
X44.09Y-34.46
X44.105Y-38.4
X44.195Y-72.49
X44.565Y-48.68
X44.605Y-84.95
X44.615Y-28.09
X44.735Y-63.02
X44.755Y-34.47
X44.865Y-53.38
X44.875Y-59.62
X44.925Y-65.59
X44.965Y-35.46
X45.055Y-36.8
X45.165Y-79.23
X45.375Y-73.96
X45.445Y-39.1
X45.45Y-31.25
X45.59Y-47.235
X45.895Y-70.65
X45.905Y-71.28
X45.935Y-67.87
X45.945Y-68.66
X45.975Y-79.955
X46.075Y-38.9
X46.105Y-44.79
X46.15Y-61.705
X46.165Y-44.18
X46.185Y-43.54
X46.225Y-73.93
X46.265Y-41.725
X46.335Y-69.63
X46.465Y-46.47
X46.525Y-66.53
X46.55Y-75.43
X46.55Y-76.705
X46.55Y-77.98
X46.565Y-32.935
X46.615Y-33.81
X46.615Y-35.06
X46.615Y-36.36
X46.865Y-41.81
X46.875Y-73.955
X46.945Y-46.05
X46.945Y-47.92
X46.955Y-28.287
X47.395Y-59.63
X47.425Y-84.86
X47.49Y-41.835
X47.575Y-64.53
X47.6Y-71.48
X47.935Y-32.91
X47.935Y-80.13
X47.995Y-69.83
X48.0Y-69.23
X48.005Y-68.63
X48.055Y-66.97
X48.09Y-41.735
X48.135Y-44.41
X48.14Y-43.81
X48.145Y-43.21
X48.185Y-46.06
X48.25Y-71.48
X48.265Y-39.11
X48.315Y-41.16
X48.4Y-73.93
X48.4Y-81.33
X48.415Y-84.69
X48.425Y-64.53
X48.6Y-68.63
X48.6Y-69.23
X48.6Y-69.83
X48.625Y-76.13
X48.625Y-76.73
X48.625Y-77.33
X48.625Y-77.93
X48.625Y-78.53
X48.655Y-82.48
X48.685Y-30.56
X48.715Y-34.51
X48.715Y-35.11
X48.715Y-35.71
X48.715Y-36.31
X48.715Y-36.91
X48.74Y-43.21
X48.74Y-43.81
X48.74Y-44.41
X48.915Y-48.51
X48.925Y-28.35
X48.94Y-31.71
X48.94Y-39.11
X49.025Y-71.88
X49.075Y-73.93
X49.09Y-41.56
X49.155Y-66.98
X49.195Y-69.83
X49.2Y-69.23
X49.205Y-68.63
X49.25Y-71.305
X49.285Y-46.07
X49.335Y-44.41
X49.34Y-43.81
X49.345Y-43.21
X49.405Y-32.91
X49.405Y-80.13
X49.74Y-41.56
X49.765Y-48.51
X49.85Y-71.205
X49.915Y-28.18
X49.945Y-53.41
X50.385Y-84.753
X50.395Y-65.12
X50.395Y-66.99
X50.465Y-39.085
X50.475Y-71.23
X50.725Y-76.68
X50.725Y-77.98
X50.725Y-79.23
X50.775Y-80.105
X50.79Y-35.06
X50.79Y-36.335
X50.79Y-37.61
X50.815Y-46.51
X50.875Y-66.57
X51.005Y-43.41
X51.075Y-71.315
X51.115Y-39.11
X51.155Y-69.5
X51.175Y-68.86
X51.19Y-51.335
X51.235Y-68.25
X51.265Y-74.14
X51.365Y-33.085
X51.395Y-44.38
X51.405Y-45.17
X51.435Y-41.76
X51.445Y-42.39
X51.75Y-65.805
X51.89Y-81.79
X51.895Y-73.94
X51.965Y-39.08
X52.175Y-33.81
X52.285Y-76.24
X52.375Y-77.58
X52.415Y-47.45
X52.465Y-53.42
X52.475Y-59.66
X52.585Y-78.57
X52.605Y-50.02
X52.725Y-84.95
X52.735Y-28.09
X52.775Y-64.36
X53.145Y-40.55
X53.235Y-74.64
X53.25Y-78.58
X53.285Y-45.58
X53.29Y-42.885
X53.325Y-68.505
X53.415Y-44.81
X53.455Y-72.42
X53.605Y-47.82
X53.665Y-41.93
X53.745Y-46.26
X53.975Y-38.21
X54.015Y-78.41
X54.015Y-80.15
X54.095Y-72.42
X54.255Y-24.21
X54.345Y-88.75
X54.465Y-30.43
X54.665Y-70.24
X54.715Y-49.02
X54.795Y-68.15
X55.025Y-59.6
X55.355Y-33.59
X56.925Y-48.97
X56.975Y-46.39
X57.015Y-31.21
X57.015Y-69.18
X57.025Y-36.26
X57.025Y-61.55
X57.035Y-74.26
X57.035Y-76.81
X57.075Y-81.9
X59.045Y-31.14
X59.085Y-36.23
X59.085Y-38.78
X59.095Y-51.49
X59.095Y-76.78
X59.105Y-43.86
X59.105Y-81.83
X59.145Y-66.65
X59.195Y-64.07
X60.765Y-79.45
X61.095Y-53.44
X61.325Y-44.89
X61.405Y-64.02
X61.455Y-42.8
X61.655Y-82.61
X61.775Y-24.29
X61.865Y-88.83
X62.025Y-40.62
X62.105Y-32.89
X62.105Y-34.63
X62.145Y-74.83
X62.375Y-66.78
X62.455Y-71.11
X62.515Y-65.22
X62.665Y-40.62
X62.705Y-68.23
X62.795Y-44.535
X62.83Y-70.155
X62.835Y-67.46
X62.87Y-34.46
X62.885Y-38.4
X62.975Y-72.49
X63.345Y-48.68
X63.385Y-84.95
X63.395Y-28.09
X63.515Y-63.02
X63.535Y-34.47
X63.645Y-53.38
X63.655Y-59.62
X63.705Y-65.59
X63.745Y-35.46
X63.835Y-36.8
X63.945Y-79.23
X64.155Y-73.96
X64.225Y-39.1
X64.23Y-31.25
X64.37Y-47.235
X64.675Y-70.65
X64.685Y-71.28
X64.715Y-67.87
X64.725Y-68.66
X64.755Y-79.955
X64.855Y-38.9
X64.885Y-44.79
X64.93Y-61.705
X64.945Y-44.18
X64.965Y-43.54
X65.005Y-73.93
X65.045Y-41.725
X65.115Y-69.63
X65.245Y-46.47
X65.305Y-66.53
X65.33Y-75.43
X65.33Y-76.705
X65.33Y-77.98
X65.345Y-32.935
X65.395Y-33.81
X65.395Y-35.06
X65.395Y-36.36
X65.645Y-41.81
X65.655Y-73.955
X65.725Y-46.05
X65.725Y-47.92
X65.735Y-28.287
X66.175Y-59.63
X66.205Y-84.86
X66.27Y-41.835
X66.355Y-64.53
X66.38Y-71.48
X66.715Y-32.91
X66.715Y-80.13
X66.775Y-69.83
X66.78Y-69.23
X66.785Y-68.63
X66.835Y-66.97
X66.87Y-41.735
X66.915Y-44.41
X66.92Y-43.81
X66.925Y-43.21
X66.965Y-46.06
X67.03Y-71.48
X67.045Y-39.11
X67.095Y-41.16
X67.18Y-73.93
X67.18Y-81.33
X67.195Y-84.69
X67.205Y-64.53
X67.38Y-68.63
X67.38Y-69.23
X67.38Y-69.83
X67.405Y-76.13
X67.405Y-76.73
X67.405Y-77.33
X67.405Y-77.93
X67.405Y-78.53
X67.435Y-82.48
X67.465Y-30.56
X67.495Y-34.51
X67.495Y-35.11
X67.495Y-35.71
X67.495Y-36.31
X67.495Y-36.91
X67.52Y-43.21
X67.52Y-43.81
X67.52Y-44.41
X67.695Y-48.51
X67.705Y-28.35
X67.72Y-31.71
X67.72Y-39.11
X67.805Y-71.88
X67.855Y-73.93
X67.87Y-41.56
X67.935Y-66.98
X67.975Y-69.83
X67.98Y-69.23
X67.985Y-68.63
X68.03Y-71.305
X68.065Y-46.07
X68.115Y-44.41
X68.12Y-43.81
X68.125Y-43.21
X68.185Y-32.91
X68.185Y-80.13
X68.52Y-41.56
X68.545Y-48.51
X68.63Y-71.205
X68.695Y-28.18
X68.725Y-53.41
X69.165Y-84.753
X69.175Y-65.12
X69.175Y-66.99
X69.245Y-39.085
X69.255Y-71.23
X69.505Y-76.68
X69.505Y-77.98
X69.505Y-79.23
X69.555Y-80.105
X69.57Y-35.06
X69.57Y-36.335
X69.57Y-37.61
X69.595Y-46.51
X69.655Y-66.57
X69.785Y-43.41
X69.855Y-71.315
X69.895Y-39.11
X69.935Y-69.5
X69.955Y-68.86
X69.97Y-51.335
X70.015Y-68.25
X70.045Y-74.14
X70.145Y-33.085
X70.175Y-44.38
X70.185Y-45.17
X70.215Y-41.76
X70.225Y-42.39
X70.53Y-65.805
X70.67Y-81.79
X70.675Y-73.94
X70.745Y-39.08
X70.955Y-33.81
X71.065Y-76.24
X71.155Y-77.58
X71.195Y-47.45
X71.245Y-53.42
X71.255Y-59.66
X71.365Y-78.57
X71.385Y-50.02
X71.505Y-84.95
X71.515Y-28.09
X71.555Y-64.36
X71.925Y-40.55
X72.015Y-74.64
X72.03Y-78.58
X72.065Y-45.58
X72.07Y-42.885
X72.105Y-68.505
X72.195Y-44.81
X72.235Y-72.42
X72.385Y-47.82
X72.445Y-41.93
X72.525Y-46.26
X72.755Y-38.21
X72.795Y-78.41
X72.795Y-80.15
X72.875Y-72.42
X73.035Y-24.21
X73.125Y-88.75
X73.245Y-30.43
X73.445Y-70.24
X73.495Y-49.02
X73.575Y-68.15
X73.805Y-59.6
X74.135Y-33.59
X75.705Y-48.97
X75.755Y-46.39
X75.795Y-31.21
X75.795Y-69.18
X75.805Y-36.26
X75.805Y-61.55
X75.815Y-74.26
X75.815Y-76.81
X75.855Y-81.9
X77.825Y-31.14
X77.865Y-36.23
X77.865Y-38.78
X77.875Y-51.49
X77.875Y-76.78
X77.885Y-43.86
X77.885Y-81.83
X77.925Y-66.65
X77.975Y-64.07
X79.545Y-79.45
X79.875Y-53.44
X80.105Y-44.89
X80.185Y-64.02
X80.235Y-42.8
X80.435Y-82.61
X80.555Y-24.29
X80.645Y-88.83
X80.805Y-40.62
X80.885Y-32.89
X80.885Y-34.63
X80.925Y-74.83
X81.155Y-66.78
X81.235Y-71.11
X81.295Y-65.22
X81.445Y-40.62
X81.485Y-68.23
X81.575Y-44.535
X81.61Y-70.155
X81.615Y-67.46
X81.65Y-34.46
X81.665Y-38.4
X81.755Y-72.49
X82.125Y-48.68
X82.165Y-84.95
X82.175Y-28.09
X82.295Y-63.02
X82.315Y-34.47
X82.425Y-53.38
X82.435Y-59.62
X82.485Y-65.59
X82.525Y-35.46
X82.615Y-36.8
X82.725Y-79.23
X82.935Y-73.96
X83.005Y-39.1
X83.01Y-31.25
X83.15Y-47.235
X83.455Y-70.65
X83.465Y-71.28
X83.495Y-67.87
X83.505Y-68.66
X83.535Y-79.955
X83.635Y-38.9
X83.665Y-44.79
X83.71Y-61.705
X83.725Y-44.18
X83.745Y-43.54
X83.785Y-73.93
X83.825Y-41.725
X83.895Y-69.63
X84.025Y-46.47
X84.085Y-66.53
X84.11Y-75.43
X84.11Y-76.705
X84.11Y-77.98
X84.125Y-32.935
X84.175Y-33.81
X84.175Y-35.06
X84.175Y-36.36
X84.425Y-41.81
X84.435Y-73.955
X84.505Y-46.05
X84.505Y-47.92
X84.515Y-28.287
X84.955Y-59.63
X84.985Y-84.86
X85.05Y-41.835
X85.135Y-64.53
X85.16Y-71.48
X85.495Y-32.91
X85.495Y-80.13
X85.555Y-69.83
X85.56Y-69.23
X85.565Y-68.63
X85.615Y-66.97
X85.65Y-41.735
X85.695Y-44.41
X85.7Y-43.81
X85.705Y-43.21
X85.745Y-46.06
X85.81Y-71.48
X85.825Y-39.11
X85.875Y-41.16
X85.96Y-73.93
X85.96Y-81.33
X85.975Y-84.69
X85.985Y-64.53
X86.16Y-68.63
X86.16Y-69.23
X86.16Y-69.83
X86.185Y-76.13
X86.185Y-76.73
X86.185Y-77.33
X86.185Y-77.93
X86.185Y-78.53
X86.215Y-82.48
X86.245Y-30.56
X86.275Y-34.51
X86.275Y-35.11
X86.275Y-35.71
X86.275Y-36.31
X86.275Y-36.91
X86.3Y-43.21
X86.3Y-43.81
X86.3Y-44.41
X86.475Y-48.51
X86.485Y-28.35
X86.5Y-31.71
X86.5Y-39.11
X86.585Y-71.88
X86.635Y-73.93
X86.65Y-41.56
X86.715Y-66.98
X86.755Y-69.83
X86.76Y-69.23
X86.765Y-68.63
X86.81Y-71.305
X86.845Y-46.07
X86.895Y-44.41
X86.9Y-43.81
X86.905Y-43.21
X86.965Y-32.91
X86.965Y-80.13
X87.3Y-41.56
X87.325Y-48.51
X87.41Y-71.205
X87.475Y-28.18
X87.505Y-53.41
X87.945Y-84.753
X87.955Y-65.12
X87.955Y-66.99
X88.025Y-39.085
X88.035Y-71.23
X88.285Y-76.68
X88.285Y-77.98
X88.285Y-79.23
X88.335Y-80.105
X88.35Y-35.06
X88.35Y-36.335
X88.35Y-37.61
X88.375Y-46.51
X88.435Y-66.57
X88.565Y-43.41
X88.635Y-71.315
X88.675Y-39.11
X88.715Y-69.5
X88.735Y-68.86
X88.75Y-51.335
X88.795Y-68.25
X88.825Y-74.14
X88.925Y-33.085
X88.955Y-44.38
X88.965Y-45.17
X88.995Y-41.76
X89.005Y-42.39
X89.31Y-65.805
X89.45Y-81.79
X89.455Y-73.94
X89.525Y-39.08
X89.735Y-33.81
X89.845Y-76.24
X89.935Y-77.58
X89.975Y-47.45
X90.025Y-53.42
X90.035Y-59.66
X90.145Y-78.57
X90.165Y-50.02
X90.285Y-84.95
X90.295Y-28.09
X90.335Y-64.36
X90.705Y-40.55
X90.795Y-74.64
X90.81Y-78.58
X90.845Y-45.58
X90.85Y-42.885
X90.885Y-68.505
X90.975Y-44.81
X91.015Y-72.42
X91.165Y-47.82
X91.225Y-41.93
X91.305Y-46.26
X91.535Y-38.21
X91.575Y-78.41
X91.575Y-80.15
X91.655Y-72.42
X91.815Y-24.21
X91.905Y-88.75
X92.025Y-30.43
X92.225Y-70.24
X92.275Y-49.02
X92.355Y-68.15
X92.585Y-59.6
X92.915Y-33.59
X94.485Y-48.97
X94.535Y-46.39
X94.575Y-31.21
X94.575Y-69.18
X94.585Y-36.26
X94.585Y-61.55
X94.595Y-74.26
X94.595Y-76.81
X94.635Y-81.9
X96.605Y-31.14
X96.645Y-36.23
X96.645Y-38.78
X96.655Y-51.49
X96.655Y-76.78
X96.665Y-43.86
X96.665Y-81.83
X96.705Y-66.65
X96.755Y-64.07
X98.325Y-79.45
X98.655Y-53.44
X98.885Y-44.89
X98.965Y-64.02
X99.015Y-42.8
X99.215Y-82.61
X99.335Y-24.29
X99.425Y-88.83
X99.585Y-40.62
X99.665Y-32.89
X99.665Y-34.63
X99.705Y-74.83
X99.935Y-66.78
X100.015Y-71.11
X100.075Y-65.22
X100.225Y-40.62
X100.265Y-68.23
X100.355Y-44.535
X100.39Y-70.155
X100.395Y-67.46
X100.43Y-34.46
X100.445Y-38.4
X100.535Y-72.49
X100.905Y-48.68
X100.945Y-84.95
X100.955Y-28.09
X101.075Y-63.02
X101.095Y-34.47
X101.205Y-53.38
X101.215Y-59.62
X101.265Y-65.59
X101.305Y-35.46
X101.395Y-36.8
X101.505Y-79.23
X101.715Y-73.96
X101.785Y-39.1
X101.79Y-31.25
X101.93Y-47.235
X102.235Y-70.65
X102.245Y-71.28
X102.275Y-67.87
X102.285Y-68.66
X102.315Y-79.955
X102.415Y-38.9
X102.445Y-44.79
X102.49Y-61.705
X102.505Y-44.18
X102.525Y-43.54
X102.565Y-73.93
X102.605Y-41.725
X102.675Y-69.63
X102.805Y-46.47
X102.865Y-66.53
X102.89Y-75.43
X102.89Y-76.705
X102.89Y-77.98
X102.905Y-32.935
X102.955Y-33.81
X102.955Y-35.06
X102.955Y-36.36
X103.205Y-41.81
X103.215Y-73.955
X103.285Y-46.05
X103.285Y-47.92
X103.295Y-28.287
X103.735Y-59.63
X103.765Y-84.86
X103.83Y-41.835
X103.915Y-64.53
X103.94Y-71.48
X104.275Y-32.91
X104.275Y-80.13
X104.335Y-69.83
X104.34Y-69.23
X104.345Y-68.63
X104.395Y-66.97
X104.43Y-41.735
X104.475Y-44.41
X104.48Y-43.81
X104.485Y-43.21
X104.525Y-46.06
X104.59Y-71.48
X104.605Y-39.11
X104.655Y-41.16
X104.74Y-73.93
X104.74Y-81.33
X104.755Y-84.69
X104.765Y-64.53
X104.94Y-68.63
X104.94Y-69.23
X104.94Y-69.83
X104.965Y-76.13
X104.965Y-76.73
X104.965Y-77.33
X104.965Y-77.93
X104.965Y-78.53
X104.995Y-82.48
X105.025Y-30.56
X105.055Y-34.51
X105.055Y-35.11
X105.055Y-35.71
X105.055Y-36.31
X105.055Y-36.91
X105.08Y-43.21
X105.08Y-43.81
X105.08Y-44.41
X105.255Y-48.51
X105.265Y-28.35
X105.28Y-31.71
X105.28Y-39.11
X105.365Y-71.88
X105.415Y-73.93
X105.43Y-41.56
X105.495Y-66.98
X105.535Y-69.83
X105.54Y-69.23
X105.545Y-68.63
X105.59Y-71.305
X105.625Y-46.07
X105.675Y-44.41
X105.68Y-43.81
X105.685Y-43.21
X105.745Y-32.91
X105.745Y-80.13
X106.08Y-41.56
X106.105Y-48.51
X106.19Y-71.205
X106.255Y-28.18
X106.285Y-53.41
X106.725Y-84.753
X106.735Y-65.12
X106.735Y-66.99
X106.805Y-39.085
X106.815Y-71.23
X107.065Y-76.68
X107.065Y-77.98
X107.065Y-79.23
X107.115Y-80.105
X107.13Y-35.06
X107.13Y-36.335
X107.13Y-37.61
X107.155Y-46.51
X107.215Y-66.57
X107.345Y-43.41
X107.415Y-71.315
X107.455Y-39.11
X107.495Y-69.5
X107.515Y-68.86
X107.53Y-51.335
X107.575Y-68.25
X107.605Y-74.14
X107.705Y-33.085
X107.735Y-44.38
X107.745Y-45.17
X107.775Y-41.76
X107.785Y-42.39
X108.09Y-65.805
X108.23Y-81.79
X108.235Y-73.94
X108.305Y-39.08
X108.515Y-33.81
X108.625Y-76.24
X108.715Y-77.58
X108.755Y-47.45
X108.805Y-53.42
X108.815Y-59.66
X108.925Y-78.57
X108.945Y-50.02
X109.065Y-84.95
X109.075Y-28.09
X109.115Y-64.36
X109.485Y-40.55
X109.575Y-74.64
X109.59Y-78.58
X109.625Y-45.58
X109.63Y-42.885
X109.665Y-68.505
X109.755Y-44.81
X109.795Y-72.42
X109.945Y-47.82
X110.005Y-41.93
X110.085Y-46.26
X110.315Y-38.21
X110.355Y-78.41
X110.355Y-80.15
X110.435Y-72.42
X110.595Y-24.21
X110.685Y-88.75
X110.805Y-30.43
X111.005Y-70.24
X111.055Y-49.02
X111.135Y-68.15
X111.365Y-59.6
X111.695Y-33.59
X113.265Y-48.97
X113.315Y-46.39
X113.355Y-31.21
X113.355Y-69.18
X113.365Y-36.26
X113.365Y-61.55
X113.375Y-74.26
X113.375Y-76.81
X113.415Y-81.9
T2
X24.895Y-28.51
X24.925Y-84.52
X27.485Y-28.51
X27.505Y-84.53
X27.62Y-82.105
X32.16Y-30.935
X32.275Y-28.51
X32.295Y-84.53
X34.855Y-28.52
X34.885Y-84.53
X43.675Y-28.51
X43.705Y-84.52
X46.265Y-28.51
X46.285Y-84.53
X46.4Y-82.105
X50.94Y-30.935
X51.055Y-28.51
X51.075Y-84.53
X53.635Y-28.52
X53.665Y-84.53
X62.455Y-28.51
X62.485Y-84.52
X65.045Y-28.51
X65.065Y-84.53
X65.18Y-82.105
X69.72Y-30.935
X69.835Y-28.51
X69.855Y-84.53
X72.415Y-28.52
X72.445Y-84.53
X81.235Y-28.51
X81.265Y-84.52
X83.825Y-28.51
X83.845Y-84.53
X83.96Y-82.105
X88.5Y-30.935
X88.615Y-28.51
X88.635Y-84.53
X91.195Y-28.52
X91.225Y-84.53
X100.015Y-28.51
X100.045Y-84.52
X102.605Y-28.51
X102.625Y-84.53
X102.74Y-82.105
X107.28Y-30.935
X107.395Y-28.51
X107.415Y-84.53
X109.975Y-28.52
X110.005Y-84.53
T4
X22.27Y-22.27
X22.27Y-24.81
X22.27Y-27.35
X22.27Y-29.89
X22.27Y-32.43
X22.27Y-34.97
X22.27Y-37.51
X22.27Y-40.05
X22.27Y-42.59
X22.27Y-45.13
X22.27Y-47.67
X22.27Y-50.21
X22.27Y-52.75
X22.27Y-60.29
X22.27Y-62.83
X22.27Y-65.37
X22.27Y-67.91
X22.27Y-70.45
X22.27Y-72.99
X22.27Y-75.53
X22.27Y-78.07
X22.27Y-80.61
X22.27Y-83.15
X22.27Y-85.69
X22.27Y-88.23
X22.27Y-90.77
X24.81Y-52.75
X24.81Y-60.29
X24.815Y-50.21
X27.35Y-52.75
X27.35Y-60.29
X28.62Y-29.89
X28.62Y-83.15
X29.89Y-52.75
X29.89Y-60.29
X31.16Y-29.89
X31.16Y-83.15
X32.43Y-52.75
X32.43Y-60.29
X34.965Y-62.83
X34.97Y-52.75
X34.97Y-60.29
X37.51Y-22.27
X37.51Y-24.81
X37.51Y-27.35
X37.51Y-29.89
X37.51Y-32.43
X37.51Y-34.97
X37.51Y-37.51
X37.51Y-40.05
X37.51Y-42.59
X37.51Y-45.13
X37.51Y-47.67
X37.51Y-50.21
X37.51Y-52.75
X37.51Y-60.29
X37.51Y-62.83
X37.51Y-65.37
X37.51Y-67.91
X37.51Y-70.45
X37.51Y-72.99
X37.51Y-75.53
X37.51Y-78.07
X37.51Y-80.61
X37.51Y-83.15
X37.51Y-85.69
X37.51Y-88.23
X37.51Y-90.77
X41.05Y-22.27
X41.05Y-24.81
X41.05Y-27.35
X41.05Y-29.89
X41.05Y-32.43
X41.05Y-34.97
X41.05Y-37.51
X41.05Y-40.05
X41.05Y-42.59
X41.05Y-45.13
X41.05Y-47.67
X41.05Y-50.21
X41.05Y-52.75
X41.05Y-60.29
X41.05Y-62.83
X41.05Y-65.37
X41.05Y-67.91
X41.05Y-70.45
X41.05Y-72.99
X41.05Y-75.53
X41.05Y-78.07
X41.05Y-80.61
X41.05Y-83.15
X41.05Y-85.69
X41.05Y-88.23
X41.05Y-90.77
X43.59Y-52.75
X43.59Y-60.29
X43.595Y-50.21
X46.13Y-52.75
X46.13Y-60.29
X47.4Y-29.89
X47.4Y-83.15
X48.67Y-52.75
X48.67Y-60.29
X49.94Y-29.89
X49.94Y-83.15
X51.21Y-52.75
X51.21Y-60.29
X53.745Y-62.83
X53.75Y-52.75
X53.75Y-60.29
X56.29Y-22.27
X56.29Y-24.81
X56.29Y-27.35
X56.29Y-29.89
X56.29Y-32.43
X56.29Y-34.97
X56.29Y-37.51
X56.29Y-40.05
X56.29Y-42.59
X56.29Y-45.13
X56.29Y-47.67
X56.29Y-50.21
X56.29Y-52.75
X56.29Y-60.29
X56.29Y-62.83
X56.29Y-65.37
X56.29Y-67.91
X56.29Y-70.45
X56.29Y-72.99
X56.29Y-75.53
X56.29Y-78.07
X56.29Y-80.61
X56.29Y-83.15
X56.29Y-85.69
X56.29Y-88.23
X56.29Y-90.77
X59.83Y-22.27
X59.83Y-24.81
X59.83Y-27.35
X59.83Y-29.89
X59.83Y-32.43
X59.83Y-34.97
X59.83Y-37.51
X59.83Y-40.05
X59.83Y-42.59
X59.83Y-45.13
X59.83Y-47.67
X59.83Y-50.21
X59.83Y-52.75
X59.83Y-60.29
X59.83Y-62.83
X59.83Y-65.37
X59.83Y-67.91
X59.83Y-70.45
X59.83Y-72.99
X59.83Y-75.53
X59.83Y-78.07
X59.83Y-80.61
X59.83Y-83.15
X59.83Y-85.69
X59.83Y-88.23
X59.83Y-90.77
X62.37Y-52.75
X62.37Y-60.29
X62.375Y-50.21
X64.91Y-52.75
X64.91Y-60.29
X66.18Y-29.89
X66.18Y-83.15
X67.45Y-52.75
X67.45Y-60.29
X68.72Y-29.89
X68.72Y-83.15
X69.99Y-52.75
X69.99Y-60.29
X72.525Y-62.83
X72.53Y-52.75
X72.53Y-60.29
X75.07Y-22.27
X75.07Y-24.81
X75.07Y-27.35
X75.07Y-29.89
X75.07Y-32.43
X75.07Y-34.97
X75.07Y-37.51
X75.07Y-40.05
X75.07Y-42.59
X75.07Y-45.13
X75.07Y-47.67
X75.07Y-50.21
X75.07Y-52.75
X75.07Y-60.29
X75.07Y-62.83
X75.07Y-65.37
X75.07Y-67.91
X75.07Y-70.45
X75.07Y-72.99
X75.07Y-75.53
X75.07Y-78.07
X75.07Y-80.61
X75.07Y-83.15
X75.07Y-85.69
X75.07Y-88.23
X75.07Y-90.77
X78.61Y-22.27
X78.61Y-24.81
X78.61Y-27.35
X78.61Y-29.89
X78.61Y-32.43
X78.61Y-34.97
X78.61Y-37.51
X78.61Y-40.05
X78.61Y-42.59
X78.61Y-45.13
X78.61Y-47.67
X78.61Y-50.21
X78.61Y-52.75
X78.61Y-60.29
X78.61Y-62.83
X78.61Y-65.37
X78.61Y-67.91
X78.61Y-70.45
X78.61Y-72.99
X78.61Y-75.53
X78.61Y-78.07
X78.61Y-80.61
X78.61Y-83.15
X78.61Y-85.69
X78.61Y-88.23
X78.61Y-90.77
X81.15Y-52.75
X81.15Y-60.29
X81.155Y-50.21
X83.69Y-52.75
X83.69Y-60.29
X84.96Y-29.89
X84.96Y-83.15
X86.23Y-52.75
X86.23Y-60.29
X87.5Y-29.89
X87.5Y-83.15
X88.77Y-52.75
X88.77Y-60.29
X91.305Y-62.83
X91.31Y-52.75
X91.31Y-60.29
X93.85Y-22.27
X93.85Y-24.81
X93.85Y-27.35
X93.85Y-29.89
X93.85Y-32.43
X93.85Y-34.97
X93.85Y-37.51
X93.85Y-40.05
X93.85Y-42.59
X93.85Y-45.13
X93.85Y-47.67
X93.85Y-50.21
X93.85Y-52.75
X93.85Y-60.29
X93.85Y-62.83
X93.85Y-65.37
X93.85Y-67.91
X93.85Y-70.45
X93.85Y-72.99
X93.85Y-75.53
X93.85Y-78.07
X93.85Y-80.61
X93.85Y-83.15
X93.85Y-85.69
X93.85Y-88.23
X93.85Y-90.77
X97.39Y-22.27
X97.39Y-24.81
X97.39Y-27.35
X97.39Y-29.89
X97.39Y-32.43
X97.39Y-34.97
X97.39Y-37.51
X97.39Y-40.05
X97.39Y-42.59
X97.39Y-45.13
X97.39Y-47.67
X97.39Y-50.21
X97.39Y-52.75
X97.39Y-60.29
X97.39Y-62.83
X97.39Y-65.37
X97.39Y-67.91
X97.39Y-70.45
X97.39Y-72.99
X97.39Y-75.53
X97.39Y-78.07
X97.39Y-80.61
X97.39Y-83.15
X97.39Y-85.69
X97.39Y-88.23
X97.39Y-90.77
X99.93Y-52.75
X99.93Y-60.29
X99.935Y-50.21
X102.47Y-52.75
X102.47Y-60.29
X103.74Y-29.89
X103.74Y-83.15
X105.01Y-52.75
X105.01Y-60.29
X106.28Y-29.89
X106.28Y-83.15
X107.55Y-52.75
X107.55Y-60.29
X110.085Y-62.83
X110.09Y-52.75
X110.09Y-60.29
X112.63Y-22.27
X112.63Y-24.81
X112.63Y-27.35
X112.63Y-29.89
X112.63Y-32.43
X112.63Y-34.97
X112.63Y-37.51
X112.63Y-40.05
X112.63Y-42.59
X112.63Y-45.13
X112.63Y-47.67
X112.63Y-50.21
X112.63Y-52.75
X112.63Y-60.29
X112.63Y-62.83
X112.63Y-65.37
X112.63Y-67.91
X112.63Y-70.45
X112.63Y-72.99
X112.63Y-75.53
X112.63Y-78.07
X112.63Y-80.61
X112.63Y-83.15
X112.63Y-85.69
X112.63Y-88.23
X112.63Y-90.77
T5
X17.5Y-17.5
X17.5Y-95.54
X117.4Y-17.5
T3
G00X24.31Y-22.787
M15
G01X24.31Y-21.688
M16
G05
G00X24.31Y-26.587
M15
G01X24.31Y-25.887
M16
G05
G00X24.32Y-86.453
M15
G01X24.32Y-87.152
M16
G05
G00X24.32Y-90.252
M15
G01X24.32Y-91.352
M16
G05
G00X35.46Y-22.787
M15
G01X35.46Y-21.688
M16
G05
G00X35.46Y-26.587
M15
G01X35.46Y-25.887
M16
G05
G00X35.47Y-86.453
M15
G01X35.47Y-87.152
M16
G05
G00X35.47Y-90.252
M15
G01X35.47Y-91.352
M16
G05
G00X43.09Y-22.787
M15
G01X43.09Y-21.688
M16
G05
G00X43.09Y-26.587
M15
G01X43.09Y-25.887
M16
G05
G00X43.1Y-86.453
M15
G01X43.1Y-87.152
M16
G05
G00X43.1Y-90.252
M15
G01X43.1Y-91.352
M16
G05
G00X54.24Y-22.787
M15
G01X54.24Y-21.688
M16
G05
G00X54.24Y-26.587
M15
G01X54.24Y-25.887
M16
G05
G00X54.25Y-86.453
M15
G01X54.25Y-87.152
M16
G05
G00X54.25Y-90.252
M15
G01X54.25Y-91.352
M16
G05
G00X61.87Y-22.787
M15
G01X61.87Y-21.688
M16
G05
G00X61.87Y-26.587
M15
G01X61.87Y-25.887
M16
G05
G00X61.88Y-86.453
M15
G01X61.88Y-87.152
M16
G05
G00X61.88Y-90.252
M15
G01X61.88Y-91.352
M16
G05
G00X73.02Y-22.787
M15
G01X73.02Y-21.688
M16
G05
G00X73.02Y-26.587
M15
G01X73.02Y-25.887
M16
G05
G00X73.03Y-86.453
M15
G01X73.03Y-87.152
M16
G05
G00X73.03Y-90.252
M15
G01X73.03Y-91.352
M16
G05
G00X80.65Y-22.787
M15
G01X80.65Y-21.688
M16
G05
G00X80.65Y-26.587
M15
G01X80.65Y-25.887
M16
G05
G00X80.66Y-86.453
M15
G01X80.66Y-87.152
M16
G05
G00X80.66Y-90.252
M15
G01X80.66Y-91.352
M16
G05
G00X91.8Y-22.787
M15
G01X91.8Y-21.688
M16
G05
G00X91.8Y-26.587
M15
G01X91.8Y-25.887
M16
G05
G00X91.81Y-86.453
M15
G01X91.81Y-87.152
M16
G05
G00X91.81Y-90.252
M15
G01X91.81Y-91.352
M16
G05
G00X99.43Y-22.787
M15
G01X99.43Y-21.688
M16
G05
G00X99.43Y-26.587
M15
G01X99.43Y-25.887
M16
G05
G00X99.44Y-86.453
M15
G01X99.44Y-87.152
M16
G05
G00X99.44Y-90.252
M15
G01X99.44Y-91.352
M16
G05
G00X110.58Y-22.787
M15
G01X110.58Y-21.688
M16
G05
G00X110.58Y-26.587
M15
G01X110.58Y-25.887
M16
G05
G00X110.59Y-86.453
M15
G01X110.59Y-87.152
M16
G05
G00X110.59Y-90.252
M15
G01X110.59Y-91.352
M16
G05
T0
M30
