G04 #@! TF.GenerationSoftware,KiCad,Pcbnew,7.0.0-da2b9df05c~165~ubuntu22.04.1*
G04 #@! TF.CreationDate,2023-10-10T20:55:34+00:00*
G04 #@! TF.ProjectId,helios-panel,68656c69-6f73-42d7-9061-6e656c2e6b69,rev1.0*
G04 #@! TF.SameCoordinates,Original*
G04 #@! TF.FileFunction,Soldermask,Bot*
G04 #@! TF.FilePolarity,Negative*
%FSLAX46Y46*%
G04 Gerber Fmt 4.6, Leading zero omitted, Abs format (unit mm)*
G04 Created by KiCad (PCBNEW 7.0.0-da2b9df05c~165~ubuntu22.04.1) date 2023-10-10 20:55:34*
%MOMM*%
%LPD*%
G01*
G04 APERTURE LIST*
G04 Aperture macros list*
%AMRoundRect*
0 Rectangle with rounded corners*
0 $1 Rounding radius*
0 $2 $3 $4 $5 $6 $7 $8 $9 X,Y pos of 4 corners*
0 Add a 4 corners polygon primitive as box body*
4,1,4,$2,$3,$4,$5,$6,$7,$8,$9,$2,$3,0*
0 Add four circle primitives for the rounded corners*
1,1,$1+$1,$2,$3*
1,1,$1+$1,$4,$5*
1,1,$1+$1,$6,$7*
1,1,$1+$1,$8,$9*
0 Add four rect primitives between the rounded corners*
20,1,$1+$1,$2,$3,$4,$5,0*
20,1,$1+$1,$4,$5,$6,$7,0*
20,1,$1+$1,$6,$7,$8,$9,0*
20,1,$1+$1,$8,$9,$2,$3,0*%
G04 Aperture macros list end*
%ADD10C,0.400000*%
%ADD11C,2.000000*%
%ADD12C,1.700000*%
%ADD13O,3.230000X1.700000*%
%ADD14O,3.230000X1.720000*%
%ADD15RoundRect,0.425000X0.425000X0.425000X-0.425000X0.425000X-0.425000X-0.425000X0.425000X-0.425000X0*%
%ADD16RoundRect,0.425000X-1.190000X-0.425000X1.190000X-0.425000X1.190000X0.425000X-1.190000X0.425000X0*%
%ADD17O,1.700000X3.230000*%
%ADD18O,1.700000X1.700000*%
%ADD19O,3.230000X1.710000*%
%ADD20RoundRect,0.350000X0.000000X-0.494975X0.494975X0.000000X0.000000X0.494975X-0.494975X0.000000X0*%
%ADD21RoundRect,0.350000X-0.999755X-0.500000X0.999755X-0.500000X0.999755X0.500000X-0.999755X0.500000X0*%
%ADD22O,3.000000X1.700000*%
%ADD23RoundRect,0.425000X1.190000X0.425000X-1.190000X0.425000X-1.190000X-0.425000X1.190000X-0.425000X0*%
%ADD24RoundRect,0.425000X-0.425000X-0.425000X0.425000X-0.425000X0.425000X0.425000X-0.425000X0.425000X0*%
%ADD25RoundRect,0.350000X0.000000X0.494975X-0.494975X0.000000X0.000000X-0.494975X0.494975X0.000000X0*%
%ADD26RoundRect,0.350000X0.999755X0.500000X-0.999755X0.500000X-0.999755X-0.500000X0.999755X-0.500000X0*%
%ADD27O,1.000000X1.700000*%
%ADD28O,1.000000X2.100000*%
%ADD29C,0.800000*%
G04 APERTURE END LIST*
D10*
G04 #@! TO.C,REF\u002A\u002A*
X8065000Y7000000D03*
G04 #@! TD*
G04 #@! TO.C,REF\u002A\u002A*
X50735000Y47330001D03*
G04 #@! TD*
G04 #@! TO.C,REF\u002A\u002A*
X72275000Y80660000D03*
G04 #@! TD*
G04 #@! TO.C,REF\u002A\u002A*
X29668318Y47330001D03*
G04 #@! TD*
G04 #@! TO.C,REF\u002A\u002A*
X28465000Y7000000D03*
G04 #@! TD*
G04 #@! TO.C,REF\u002A\u002A*
X107000000Y43530000D03*
G04 #@! TD*
G04 #@! TO.C,REF\u002A\u002A*
X64608377Y47330001D03*
G04 #@! TD*
G04 #@! TO.C,REF\u002A\u002A*
X87600000Y44730000D03*
G04 #@! TD*
G04 #@! TO.C,REF\u002A\u002A*
X107000000Y42930000D03*
G04 #@! TD*
G04 #@! TO.C,REF\u002A\u002A*
X44865000Y40327633D03*
G04 #@! TD*
G04 #@! TO.C,REF\u002A\u002A*
X70465000Y7000000D03*
G04 #@! TD*
G04 #@! TO.C,REF\u002A\u002A*
X23808377Y47330001D03*
G04 #@! TD*
G04 #@! TO.C,REF\u002A\u002A*
X23798362Y40330000D03*
G04 #@! TD*
G04 #@! TO.C,REF\u002A\u002A*
X82525000Y7000000D03*
G04 #@! TD*
G04 #@! TO.C,REF\u002A\u002A*
X67200000Y43530000D03*
G04 #@! TD*
G04 #@! TO.C,REF\u002A\u002A*
X22475000Y47330001D03*
G04 #@! TD*
G04 #@! TO.C,REF\u002A\u002A*
X105925000Y7000000D03*
G04 #@! TD*
G04 #@! TO.C,REF\u002A\u002A*
X107000000Y0D03*
G04 #@! TD*
G04 #@! TO.C,REF\u002A\u002A*
X0Y80660000D03*
G04 #@! TD*
G04 #@! TO.C,REF\u002A\u002A*
X7000000Y83285000D03*
G04 #@! TD*
G04 #@! TO.C,REF\u002A\u002A*
X87600000Y44130000D03*
G04 #@! TD*
G04 #@! TO.C,REF\u002A\u002A*
X7935000Y47332368D03*
G04 #@! TD*
G04 #@! TO.C,REF\u002A\u002A*
X83735000Y80660000D03*
G04 #@! TD*
G04 #@! TO.C,REF\u002A\u002A*
X107000000Y3750000D03*
G04 #@! TD*
G04 #@! TO.C,REF\u002A\u002A*
X30875000Y80660000D03*
G04 #@! TD*
G04 #@! TO.C,REF\u002A\u002A*
X23131681Y40330000D03*
G04 #@! TD*
G04 #@! TO.C,REF\u002A\u002A*
X104065000Y40330000D03*
G04 #@! TD*
G04 #@! TO.C,REF\u002A\u002A*
X89665000Y7000000D03*
G04 #@! TD*
G04 #@! TO.C,REF\u002A\u002A*
X5000000Y80660000D03*
G04 #@! TD*
G04 #@! TO.C,REF\u002A\u002A*
X8075000Y80660000D03*
G04 #@! TD*
G04 #@! TO.C,REF\u002A\u002A*
X3750000Y7000000D03*
G04 #@! TD*
G04 #@! TO.C,REF\u002A\u002A*
X51875000Y80660000D03*
G04 #@! TD*
G04 #@! TO.C,REF\u002A\u002A*
X24475000Y47333138D03*
G04 #@! TD*
G04 #@! TO.C,REF\u002A\u002A*
X24335000Y80660000D03*
G04 #@! TD*
G04 #@! TO.C,REF\u002A\u002A*
X62125000Y7000000D03*
G04 #@! TD*
G04 #@! TO.C,REF\u002A\u002A*
X21325000Y7000000D03*
G04 #@! TD*
G04 #@! TO.C,REF\u002A\u002A*
X71075000Y80660000D03*
G04 #@! TD*
G04 #@! TO.C,REF\u002A\u002A*
X3750000Y80660000D03*
G04 #@! TD*
G04 #@! TO.C,REF\u002A\u002A*
X102925000Y7000000D03*
G04 #@! TD*
G04 #@! TO.C,REF\u002A\u002A*
X109000000Y80660000D03*
G04 #@! TD*
D11*
G04 #@! TO.C,REF\u002A\u002A*
X2500000Y85160000D03*
G04 #@! TD*
G04 #@! TO.C,REF\u002A\u002A*
X111500000Y85160000D03*
G04 #@! TD*
D10*
G04 #@! TO.C,REF\u002A\u002A*
X104075000Y47330001D03*
G04 #@! TD*
G04 #@! TO.C,REF\u002A\u002A*
X114000000Y7000000D03*
G04 #@! TD*
G04 #@! TO.C,REF\u002A\u002A*
X91525000Y40330000D03*
G04 #@! TD*
G04 #@! TO.C,REF\u002A\u002A*
X87600000Y43530000D03*
G04 #@! TD*
G04 #@! TO.C,REF\u002A\u002A*
X4375000Y80660000D03*
G04 #@! TD*
G04 #@! TO.C,REF\u002A\u002A*
X7000000Y5000000D03*
G04 #@! TD*
G04 #@! TO.C,REF\u002A\u002A*
X107000000Y83285000D03*
G04 #@! TD*
G04 #@! TO.C,REF\u002A\u002A*
X69275000Y80660000D03*
G04 #@! TD*
G04 #@! TO.C,REF\u002A\u002A*
X48865000Y7000000D03*
G04 #@! TD*
G04 #@! TO.C,REF\u002A\u002A*
X50065000Y7000000D03*
G04 #@! TD*
G04 #@! TO.C,REF\u002A\u002A*
X51865000Y7000000D03*
G04 #@! TD*
G04 #@! TO.C,REF\u002A\u002A*
X69791622Y40330000D03*
G04 #@! TD*
G04 #@! TO.C,REF\u002A\u002A*
X69135000Y47332368D03*
G04 #@! TD*
G04 #@! TO.C,REF\u002A\u002A*
X84925000Y7000000D03*
G04 #@! TD*
G04 #@! TO.C,REF\u002A\u002A*
X107000000Y45330000D03*
G04 #@! TD*
G04 #@! TO.C,REF\u002A\u002A*
X42335000Y80660000D03*
G04 #@! TD*
G04 #@! TO.C,REF\u002A\u002A*
X71065000Y7000000D03*
G04 #@! TD*
G04 #@! TO.C,REF\u002A\u002A*
X90201637Y47330001D03*
G04 #@! TD*
G04 #@! TO.C,REF\u002A\u002A*
X7000000Y87660000D03*
G04 #@! TD*
G04 #@! TO.C,REF\u002A\u002A*
X7000000Y3750000D03*
G04 #@! TD*
G04 #@! TO.C,REF\u002A\u002A*
X71135000Y47330001D03*
G04 #@! TD*
G04 #@! TO.C,REF\u002A\u002A*
X51275000Y80660000D03*
G04 #@! TD*
G04 #@! TO.C,REF\u002A\u002A*
X9935000Y47330001D03*
G04 #@! TD*
G04 #@! TO.C,REF\u002A\u002A*
X7000000Y86410000D03*
G04 #@! TD*
G04 #@! TO.C,REF\u002A\u002A*
X9265000Y7000000D03*
G04 #@! TD*
G04 #@! TO.C,REF\u002A\u002A*
X113375000Y7000000D03*
G04 #@! TD*
G04 #@! TO.C,REF\u002A\u002A*
X85008377Y47330001D03*
G04 #@! TD*
G04 #@! TO.C,REF\u002A\u002A*
X105398362Y40330000D03*
G04 #@! TD*
G04 #@! TO.C,REF\u002A\u002A*
X85525000Y7000000D03*
G04 #@! TD*
G04 #@! TO.C,REF\u002A\u002A*
X43541688Y47330001D03*
G04 #@! TD*
D11*
G04 #@! TO.C,REF\u002A\u002A*
X2500000Y2500000D03*
G04 #@! TD*
D10*
G04 #@! TO.C,REF\u002A\u002A*
X70458311Y40330000D03*
G04 #@! TD*
G04 #@! TO.C,REF\u002A\u002A*
X7000000Y42330000D03*
G04 #@! TD*
G04 #@! TO.C,REF\u002A\u002A*
X46800000Y42330000D03*
G04 #@! TD*
G04 #@! TO.C,REF\u002A\u002A*
X104741688Y47330001D03*
G04 #@! TD*
G04 #@! TO.C,REF\u002A\u002A*
X42935000Y80660000D03*
G04 #@! TD*
G04 #@! TO.C,REF\u002A\u002A*
X44208377Y47330001D03*
G04 #@! TD*
G04 #@! TO.C,REF\u002A\u002A*
X7000000Y625000D03*
G04 #@! TD*
G04 #@! TO.C,REF\u002A\u002A*
X70475000Y80660000D03*
G04 #@! TD*
G04 #@! TO.C,REF\u002A\u002A*
X50665000Y7000000D03*
G04 #@! TD*
G04 #@! TO.C,REF\u002A\u002A*
X110875000Y7000000D03*
G04 #@! TD*
G04 #@! TO.C,REF\u002A\u002A*
X105335000Y80660000D03*
G04 #@! TD*
G04 #@! TO.C,REF\u002A\u002A*
X83675000Y47330001D03*
G04 #@! TD*
G04 #@! TO.C,REF\u002A\u002A*
X48725000Y40326863D03*
G04 #@! TD*
G04 #@! TO.C,REF\u002A\u002A*
X104135000Y80660000D03*
G04 #@! TD*
G04 #@! TO.C,REF\u002A\u002A*
X106075000Y47333138D03*
G04 #@! TD*
G04 #@! TO.C,REF\u002A\u002A*
X7925000Y40326863D03*
G04 #@! TD*
G04 #@! TO.C,REF\u002A\u002A*
X46800000Y42930000D03*
G04 #@! TD*
G04 #@! TO.C,REF\u002A\u002A*
X1875000Y80660000D03*
G04 #@! TD*
G04 #@! TO.C,REF\u002A\u002A*
X26400000Y42330000D03*
G04 #@! TD*
G04 #@! TO.C,REF\u002A\u002A*
X107000000Y44130000D03*
G04 #@! TD*
G04 #@! TO.C,REF\u002A\u002A*
X21935000Y80660000D03*
G04 #@! TD*
G04 #@! TO.C,REF\u002A\u002A*
X7000000Y0D03*
G04 #@! TD*
G04 #@! TO.C,REF\u002A\u002A*
X64535000Y80660000D03*
G04 #@! TD*
G04 #@! TO.C,REF\u002A\u002A*
X90191622Y40330000D03*
G04 #@! TD*
G04 #@! TO.C,REF\u002A\u002A*
X29665000Y7000000D03*
G04 #@! TD*
G04 #@! TO.C,REF\u002A\u002A*
X42925000Y7000000D03*
G04 #@! TD*
G04 #@! TO.C,REF\u002A\u002A*
X107000000Y84535000D03*
G04 #@! TD*
G04 #@! TO.C,REF\u002A\u002A*
X9925000Y40330000D03*
G04 #@! TD*
G04 #@! TO.C,REF\u002A\u002A*
X105325000Y7000000D03*
G04 #@! TD*
G04 #@! TO.C,REF\u002A\u002A*
X105408377Y47330001D03*
G04 #@! TD*
G04 #@! TO.C,REF\u002A\u002A*
X111500000Y7000000D03*
G04 #@! TD*
G04 #@! TO.C,REF\u002A\u002A*
X28325000Y40326863D03*
G04 #@! TD*
G04 #@! TO.C,REF\u002A\u002A*
X625000Y7000000D03*
G04 #@! TD*
G04 #@! TO.C,REF\u002A\u002A*
X82535000Y80660000D03*
G04 #@! TD*
G04 #@! TO.C,REF\u002A\u002A*
X109000000Y7000000D03*
G04 #@! TD*
G04 #@! TO.C,REF\u002A\u002A*
X7000000Y1875000D03*
G04 #@! TD*
G04 #@! TO.C,REF\u002A\u002A*
X0Y7000000D03*
G04 #@! TD*
G04 #@! TO.C,REF\u002A\u002A*
X46800000Y45330000D03*
G04 #@! TD*
G04 #@! TO.C,REF\u002A\u002A*
X91475000Y80660000D03*
G04 #@! TD*
G04 #@! TO.C,REF\u002A\u002A*
X103525000Y7000000D03*
G04 #@! TD*
G04 #@! TO.C,REF\u002A\u002A*
X625000Y80660000D03*
G04 #@! TD*
G04 #@! TO.C,REF\u002A\u002A*
X24325000Y7000000D03*
G04 #@! TD*
G04 #@! TO.C,REF\u002A\u002A*
X63941688Y47330001D03*
G04 #@! TD*
G04 #@! TO.C,REF\u002A\u002A*
X21925000Y7000000D03*
G04 #@! TD*
G04 #@! TO.C,REF\u002A\u002A*
X92665000Y7000000D03*
G04 #@! TD*
G04 #@! TO.C,REF\u002A\u002A*
X107000000Y87035000D03*
G04 #@! TD*
G04 #@! TO.C,REF\u002A\u002A*
X29075000Y80660000D03*
G04 #@! TD*
G04 #@! TO.C,REF\u002A\u002A*
X63925000Y7000000D03*
G04 #@! TD*
G04 #@! TO.C,REF\u002A\u002A*
X42875000Y47330001D03*
G04 #@! TD*
G04 #@! TO.C,REF\u002A\u002A*
X109625000Y80660000D03*
G04 #@! TD*
G04 #@! TO.C,REF\u002A\u002A*
X29065000Y7000000D03*
G04 #@! TD*
G04 #@! TO.C,REF\u002A\u002A*
X63325000Y7000000D03*
G04 #@! TD*
G04 #@! TO.C,REF\u002A\u002A*
X7000000Y4375000D03*
G04 #@! TD*
G04 #@! TO.C,REF\u002A\u002A*
X22525000Y7000000D03*
G04 #@! TD*
G04 #@! TO.C,REF\u002A\u002A*
X107000000Y85160000D03*
G04 #@! TD*
G04 #@! TO.C,REF\u002A\u002A*
X106065000Y40327633D03*
G04 #@! TD*
G04 #@! TO.C,REF\u002A\u002A*
X26400000Y43530000D03*
G04 #@! TD*
G04 #@! TO.C,REF\u002A\u002A*
X21335000Y80660000D03*
G04 #@! TD*
G04 #@! TO.C,REF\u002A\u002A*
X112125000Y7000000D03*
G04 #@! TD*
G04 #@! TO.C,REF\u002A\u002A*
X23725000Y7000000D03*
G04 #@! TD*
G04 #@! TO.C,REF\u002A\u002A*
X7000000Y3125000D03*
G04 #@! TD*
G04 #@! TO.C,REF\u002A\u002A*
X105935000Y80660000D03*
G04 #@! TD*
G04 #@! TO.C,REF\u002A\u002A*
X113375000Y80660000D03*
G04 #@! TD*
G04 #@! TO.C,REF\u002A\u002A*
X102935000Y80660000D03*
G04 #@! TD*
G04 #@! TO.C,REF\u002A\u002A*
X107000000Y1875000D03*
G04 #@! TD*
G04 #@! TO.C,REF\u002A\u002A*
X7000000Y85160000D03*
G04 #@! TD*
G04 #@! TO.C,REF\u002A\u002A*
X63275000Y47330001D03*
G04 #@! TD*
G04 #@! TO.C,REF\u002A\u002A*
X65265000Y40327633D03*
G04 #@! TD*
G04 #@! TO.C,REF\u002A\u002A*
X83125000Y7000000D03*
G04 #@! TD*
G04 #@! TO.C,REF\u002A\u002A*
X67200000Y45330000D03*
G04 #@! TD*
G04 #@! TO.C,REF\u002A\u002A*
X92065000Y7000000D03*
G04 #@! TD*
G04 #@! TO.C,REF\u002A\u002A*
X107000000Y5000000D03*
G04 #@! TD*
G04 #@! TO.C,REF\u002A\u002A*
X5000000Y7000000D03*
G04 #@! TD*
G04 #@! TO.C,REF\u002A\u002A*
X30865000Y7000000D03*
G04 #@! TD*
G04 #@! TO.C,REF\u002A\u002A*
X30335000Y47330001D03*
G04 #@! TD*
G04 #@! TO.C,REF\u002A\u002A*
X112750000Y7000000D03*
G04 #@! TD*
G04 #@! TO.C,REF\u002A\u002A*
X7000000Y82660000D03*
G04 #@! TD*
G04 #@! TO.C,REF\u002A\u002A*
X84998362Y40330000D03*
G04 #@! TD*
G04 #@! TO.C,REF\u002A\u002A*
X90868318Y47330001D03*
G04 #@! TD*
G04 #@! TO.C,REF\u002A\u002A*
X50068318Y47330001D03*
G04 #@! TD*
G04 #@! TO.C,REF\u002A\u002A*
X107000000Y3125000D03*
G04 #@! TD*
G04 #@! TO.C,REF\u002A\u002A*
X26400000Y44130000D03*
G04 #@! TD*
G04 #@! TO.C,REF\u002A\u002A*
X90275000Y80660000D03*
G04 #@! TD*
G04 #@! TO.C,REF\u002A\u002A*
X26400000Y42930000D03*
G04 #@! TD*
G04 #@! TO.C,REF\u002A\u002A*
X9268319Y47330001D03*
G04 #@! TD*
G04 #@! TO.C,REF\u002A\u002A*
X103535000Y80660000D03*
G04 #@! TD*
G04 #@! TO.C,REF\u002A\u002A*
X67200000Y42930000D03*
G04 #@! TD*
G04 #@! TO.C,REF\u002A\u002A*
X89675000Y80660000D03*
G04 #@! TD*
G04 #@! TO.C,REF\u002A\u002A*
X44198362Y40330000D03*
G04 #@! TD*
G04 #@! TO.C,REF\u002A\u002A*
X7000000Y87035000D03*
G04 #@! TD*
G04 #@! TO.C,REF\u002A\u002A*
X44125000Y7000000D03*
G04 #@! TD*
G04 #@! TO.C,REF\u002A\u002A*
X7000000Y83910000D03*
G04 #@! TD*
G04 #@! TO.C,REF\u002A\u002A*
X10465000Y7000000D03*
G04 #@! TD*
G04 #@! TO.C,REF\u002A\u002A*
X7000000Y44130000D03*
G04 #@! TD*
G04 #@! TO.C,REF\u002A\u002A*
X50725000Y40330000D03*
G04 #@! TD*
G04 #@! TO.C,REF\u002A\u002A*
X28991622Y40330000D03*
G04 #@! TD*
G04 #@! TO.C,REF\u002A\u002A*
X31475000Y80660000D03*
G04 #@! TD*
G04 #@! TO.C,REF\u002A\u002A*
X23141688Y47330001D03*
G04 #@! TD*
G04 #@! TO.C,REF\u002A\u002A*
X1250000Y7000000D03*
G04 #@! TD*
G04 #@! TO.C,REF\u002A\u002A*
X2500000Y80660000D03*
G04 #@! TD*
G04 #@! TO.C,REF\u002A\u002A*
X11075000Y80660000D03*
G04 #@! TD*
G04 #@! TO.C,REF\u002A\u002A*
X3125000Y7000000D03*
G04 #@! TD*
G04 #@! TO.C,REF\u002A\u002A*
X92075000Y80660000D03*
G04 #@! TD*
G04 #@! TO.C,REF\u002A\u002A*
X22465000Y40330000D03*
G04 #@! TD*
G04 #@! TO.C,REF\u002A\u002A*
X85535000Y80660000D03*
G04 #@! TD*
G04 #@! TO.C,REF\u002A\u002A*
X67200000Y42330000D03*
G04 #@! TD*
G04 #@! TO.C,REF\u002A\u002A*
X64598362Y40330000D03*
G04 #@! TD*
G04 #@! TO.C,REF\u002A\u002A*
X84331681Y40330000D03*
G04 #@! TD*
G04 #@! TO.C,REF\u002A\u002A*
X85665000Y40327633D03*
G04 #@! TD*
G04 #@! TO.C,REF\u002A\u002A*
X8675000Y80660000D03*
G04 #@! TD*
G04 #@! TO.C,REF\u002A\u002A*
X49465000Y7000000D03*
G04 #@! TD*
G04 #@! TO.C,REF\u002A\u002A*
X44875000Y47333138D03*
G04 #@! TD*
G04 #@! TO.C,REF\u002A\u002A*
X2500000Y7000000D03*
G04 #@! TD*
G04 #@! TO.C,REF\u002A\u002A*
X114000000Y80660000D03*
G04 #@! TD*
G04 #@! TO.C,REF\u002A\u002A*
X8665000Y7000000D03*
G04 #@! TD*
G04 #@! TO.C,REF\u002A\u002A*
X42325000Y7000000D03*
G04 #@! TD*
G04 #@! TO.C,REF\u002A\u002A*
X8601638Y47330001D03*
G04 #@! TD*
G04 #@! TO.C,REF\u002A\u002A*
X62725000Y7000000D03*
G04 #@! TD*
G04 #@! TO.C,REF\u002A\u002A*
X71665000Y7000000D03*
G04 #@! TD*
G04 #@! TO.C,REF\u002A\u002A*
X89535000Y47332368D03*
G04 #@! TD*
G04 #@! TO.C,REF\u002A\u002A*
X50675000Y80660000D03*
G04 #@! TD*
G04 #@! TO.C,REF\u002A\u002A*
X7000000Y45330000D03*
G04 #@! TD*
G04 #@! TO.C,REF\u002A\u002A*
X4375000Y7000000D03*
G04 #@! TD*
G04 #@! TO.C,REF\u002A\u002A*
X107000000Y42330000D03*
G04 #@! TD*
G04 #@! TO.C,REF\u002A\u002A*
X72265000Y7000000D03*
G04 #@! TD*
G04 #@! TO.C,REF\u002A\u002A*
X41725000Y7000000D03*
G04 #@! TD*
G04 #@! TO.C,REF\u002A\u002A*
X111500000Y80660000D03*
G04 #@! TD*
G04 #@! TO.C,REF\u002A\u002A*
X84341688Y47330001D03*
G04 #@! TD*
G04 #@! TO.C,REF\u002A\u002A*
X48735000Y47332368D03*
G04 #@! TD*
G04 #@! TO.C,REF\u002A\u002A*
X28475000Y80660000D03*
G04 #@! TD*
G04 #@! TO.C,REF\u002A\u002A*
X1875000Y7000000D03*
G04 #@! TD*
G04 #@! TO.C,REF\u002A\u002A*
X10475000Y80660000D03*
G04 #@! TD*
G04 #@! TO.C,REF\u002A\u002A*
X9275000Y80660000D03*
G04 #@! TD*
G04 #@! TO.C,REF\u002A\u002A*
X51265000Y7000000D03*
G04 #@! TD*
G04 #@! TO.C,REF\u002A\u002A*
X31465000Y7000000D03*
G04 #@! TD*
G04 #@! TO.C,REF\u002A\u002A*
X87600000Y45330000D03*
G04 #@! TD*
G04 #@! TO.C,REF\u002A\u002A*
X62135000Y80660000D03*
G04 #@! TD*
G04 #@! TO.C,REF\u002A\u002A*
X48875000Y80660000D03*
G04 #@! TD*
G04 #@! TO.C,REF\u002A\u002A*
X87600000Y42330000D03*
G04 #@! TD*
G04 #@! TO.C,REF\u002A\u002A*
X69125000Y40326863D03*
G04 #@! TD*
G04 #@! TO.C,REF\u002A\u002A*
X104725000Y7000000D03*
G04 #@! TD*
G04 #@! TO.C,REF\u002A\u002A*
X7000000Y84535000D03*
G04 #@! TD*
G04 #@! TO.C,REF\u002A\u002A*
X107000000Y4375000D03*
G04 #@! TD*
G04 #@! TO.C,REF\u002A\u002A*
X65135000Y80660000D03*
G04 #@! TD*
G04 #@! TO.C,REF\u002A\u002A*
X28335000Y47332368D03*
G04 #@! TD*
G04 #@! TO.C,REF\u002A\u002A*
X69801637Y47330001D03*
G04 #@! TD*
G04 #@! TO.C,REF\u002A\u002A*
X107000000Y625000D03*
G04 #@! TD*
G04 #@! TO.C,REF\u002A\u002A*
X71675000Y80660000D03*
G04 #@! TD*
G04 #@! TO.C,REF\u002A\u002A*
X44135000Y80660000D03*
G04 #@! TD*
G04 #@! TO.C,REF\u002A\u002A*
X90875000Y80660000D03*
G04 #@! TD*
G04 #@! TO.C,REF\u002A\u002A*
X30325000Y40330000D03*
G04 #@! TD*
G04 #@! TO.C,REF\u002A\u002A*
X92675000Y80660000D03*
G04 #@! TD*
G04 #@! TO.C,REF\u002A\u002A*
X110250000Y80660000D03*
G04 #@! TD*
G04 #@! TO.C,REF\u002A\u002A*
X65275000Y47333138D03*
G04 #@! TD*
G04 #@! TO.C,REF\u002A\u002A*
X63265000Y40330000D03*
G04 #@! TD*
G04 #@! TO.C,REF\u002A\u002A*
X83725000Y7000000D03*
G04 #@! TD*
G04 #@! TO.C,REF\u002A\u002A*
X107000000Y87660000D03*
G04 #@! TD*
G04 #@! TO.C,REF\u002A\u002A*
X107000000Y1250000D03*
G04 #@! TD*
G04 #@! TO.C,REF\u002A\u002A*
X29658311Y40330000D03*
G04 #@! TD*
G04 #@! TO.C,REF\u002A\u002A*
X104731681Y40330000D03*
G04 #@! TD*
G04 #@! TO.C,REF\u002A\u002A*
X83665000Y40330000D03*
G04 #@! TD*
G04 #@! TO.C,REF\u002A\u002A*
X84335000Y80660000D03*
G04 #@! TD*
G04 #@! TO.C,REF\u002A\u002A*
X67200000Y44730000D03*
G04 #@! TD*
G04 #@! TO.C,REF\u002A\u002A*
X83135000Y80660000D03*
G04 #@! TD*
G04 #@! TO.C,REF\u002A\u002A*
X62735000Y80660000D03*
G04 #@! TD*
G04 #@! TO.C,REF\u002A\u002A*
X26400000Y44730000D03*
G04 #@! TD*
G04 #@! TO.C,REF\u002A\u002A*
X69865000Y7000000D03*
G04 #@! TD*
G04 #@! TO.C,REF\u002A\u002A*
X29675000Y80660000D03*
G04 #@! TD*
G04 #@! TO.C,REF\u002A\u002A*
X9258312Y40330000D03*
G04 #@! TD*
G04 #@! TO.C,REF\u002A\u002A*
X23125000Y7000000D03*
G04 #@! TD*
G04 #@! TO.C,REF\u002A\u002A*
X49391622Y40330000D03*
G04 #@! TD*
G04 #@! TO.C,REF\u002A\u002A*
X67200000Y44130000D03*
G04 #@! TD*
G04 #@! TO.C,REF\u002A\u002A*
X30265000Y7000000D03*
G04 #@! TD*
G04 #@! TO.C,REF\u002A\u002A*
X46800000Y44730000D03*
G04 #@! TD*
G04 #@! TO.C,REF\u002A\u002A*
X23135000Y80660000D03*
G04 #@! TD*
G04 #@! TO.C,REF\u002A\u002A*
X30275000Y80660000D03*
G04 #@! TD*
G04 #@! TO.C,REF\u002A\u002A*
X90265000Y7000000D03*
G04 #@! TD*
G04 #@! TO.C,REF\u002A\u002A*
X87600000Y42930000D03*
G04 #@! TD*
G04 #@! TO.C,REF\u002A\u002A*
X9875000Y80660000D03*
G04 #@! TD*
G04 #@! TO.C,REF\u002A\u002A*
X50058311Y40330000D03*
G04 #@! TD*
G04 #@! TO.C,REF\u002A\u002A*
X63335000Y80660000D03*
G04 #@! TD*
G04 #@! TO.C,REF\u002A\u002A*
X44735000Y80660000D03*
G04 #@! TD*
G04 #@! TO.C,REF\u002A\u002A*
X7000000Y2500000D03*
G04 #@! TD*
G04 #@! TO.C,REF\u002A\u002A*
X109625000Y7000000D03*
G04 #@! TD*
G04 #@! TO.C,REF\u002A\u002A*
X69875000Y80660000D03*
G04 #@! TD*
G04 #@! TO.C,REF\u002A\u002A*
X43525000Y7000000D03*
G04 #@! TD*
G04 #@! TO.C,REF\u002A\u002A*
X104735000Y80660000D03*
G04 #@! TD*
G04 #@! TO.C,REF\u002A\u002A*
X64525000Y7000000D03*
G04 #@! TD*
G04 #@! TO.C,REF\u002A\u002A*
X9865000Y7000000D03*
G04 #@! TD*
G04 #@! TO.C,REF\u002A\u002A*
X107000000Y44730000D03*
G04 #@! TD*
G04 #@! TO.C,REF\u002A\u002A*
X110875000Y80660000D03*
G04 #@! TD*
G04 #@! TO.C,REF\u002A\u002A*
X107000000Y86410000D03*
G04 #@! TD*
D12*
G04 #@! TO.C,J2*
X27400000Y79390000D03*
D13*
X28164999Y79389999D03*
D12*
X27400000Y76850000D03*
D14*
X28164999Y76839999D03*
D12*
X27400000Y74310000D03*
D13*
X28164999Y74309999D03*
D15*
X27400000Y71770000D03*
D16*
X28165000Y71770000D03*
D15*
X27400000Y69230000D03*
D16*
X28165000Y69230000D03*
D12*
X27400000Y66690000D03*
D13*
X28164999Y66689999D03*
D12*
X27400000Y64150000D03*
D13*
X28164999Y64149999D03*
D12*
X27400000Y61610000D03*
D13*
X28164999Y61609999D03*
D12*
X27400000Y59070000D03*
D13*
X28164999Y59069999D03*
D12*
X27400000Y56530000D03*
D13*
X28164999Y56529999D03*
D12*
X27400000Y53990000D03*
D13*
X28164999Y53989999D03*
D12*
X27400000Y51450000D03*
D13*
X28164999Y51449999D03*
D12*
X27400000Y48910000D03*
D13*
X28164999Y48909999D03*
D17*
X31519999Y48094999D03*
D12*
X31520000Y47330000D03*
D17*
X34059999Y48094999D03*
D18*
X34059999Y47329999D03*
D17*
X36599999Y48094999D03*
D18*
X36599999Y47329999D03*
D17*
X39139999Y48094999D03*
D18*
X39139999Y47329999D03*
D17*
X41679999Y48094999D03*
D18*
X41679999Y47329999D03*
D13*
X45034999Y48909999D03*
D12*
X45800000Y48910000D03*
D14*
X45034999Y51439999D03*
D12*
X45800000Y51450000D03*
D19*
X45034999Y53984999D03*
D12*
X45800000Y53990000D03*
D13*
X45034999Y56529999D03*
D12*
X45800000Y56530000D03*
D13*
X45034999Y59069999D03*
D12*
X45800000Y59070000D03*
D13*
X45034999Y61609999D03*
D12*
X45800000Y61610000D03*
D13*
X45034999Y64149999D03*
D12*
X45800000Y64150000D03*
D19*
X45034999Y66684999D03*
D12*
X45800000Y66690000D03*
D20*
X44220000Y69230000D03*
D21*
X45249755Y69230000D03*
D22*
X44919999Y71769999D03*
D12*
X45800000Y71770000D03*
D23*
X45035000Y74310000D03*
D24*
X45800000Y74310000D03*
D20*
X44220000Y76850000D03*
D21*
X45249755Y76850000D03*
D19*
X45034999Y79384999D03*
D12*
X45800000Y79390000D03*
X31525000Y51450000D03*
X37870000Y71770000D03*
X35330000Y71770000D03*
G04 #@! TD*
G04 #@! TO.C,J2*
X66200000Y8270000D03*
D13*
X65434999Y8269999D03*
D12*
X66200000Y10810000D03*
D14*
X65434999Y10819999D03*
D12*
X66200000Y13350000D03*
D13*
X65434999Y13349999D03*
D24*
X66200000Y15890000D03*
D23*
X65435000Y15890000D03*
D24*
X66200000Y18430000D03*
D23*
X65435000Y18430000D03*
D12*
X66200000Y20970000D03*
D13*
X65434999Y20969999D03*
D12*
X66200000Y23510000D03*
D13*
X65434999Y23509999D03*
D12*
X66200000Y26050000D03*
D13*
X65434999Y26049999D03*
D12*
X66200000Y28590000D03*
D13*
X65434999Y28589999D03*
D12*
X66200000Y31130000D03*
D13*
X65434999Y31129999D03*
D12*
X66200000Y33670000D03*
D13*
X65434999Y33669999D03*
D12*
X66200000Y36210000D03*
D13*
X65434999Y36209999D03*
D12*
X66200000Y38750000D03*
D13*
X65434999Y38749999D03*
D17*
X62079999Y39564999D03*
D12*
X62080000Y40330000D03*
D17*
X59539999Y39564999D03*
D18*
X59539999Y40329999D03*
D17*
X56999999Y39564999D03*
D18*
X56999999Y40329999D03*
D17*
X54459999Y39564999D03*
D18*
X54459999Y40329999D03*
D17*
X51919999Y39564999D03*
D18*
X51919999Y40329999D03*
D13*
X48564999Y38749999D03*
D12*
X47800000Y38750000D03*
D14*
X48564999Y36219999D03*
D12*
X47800000Y36210000D03*
D19*
X48564999Y33674999D03*
D12*
X47800000Y33670000D03*
D13*
X48564999Y31129999D03*
D12*
X47800000Y31130000D03*
D13*
X48564999Y28589999D03*
D12*
X47800000Y28590000D03*
D13*
X48564999Y26049999D03*
D12*
X47800000Y26050000D03*
D13*
X48564999Y23509999D03*
D12*
X47800000Y23510000D03*
D19*
X48564999Y20974999D03*
D12*
X47800000Y20970000D03*
D25*
X49380000Y18430000D03*
D26*
X48350245Y18430000D03*
D22*
X48679999Y15889999D03*
D12*
X47800000Y15890000D03*
D16*
X48565000Y13350000D03*
D15*
X47800000Y13350000D03*
D25*
X49380000Y10810000D03*
D26*
X48350245Y10810000D03*
D19*
X48564999Y8274999D03*
D12*
X47800000Y8270000D03*
X62075000Y36210000D03*
X55730000Y15890000D03*
X58270000Y15890000D03*
G04 #@! TD*
G04 #@! TO.C,J2*
X107000000Y8270000D03*
D13*
X106234999Y8269999D03*
D12*
X107000000Y10810000D03*
D14*
X106234999Y10819999D03*
D12*
X107000000Y13350000D03*
D13*
X106234999Y13349999D03*
D24*
X107000000Y15890000D03*
D23*
X106235000Y15890000D03*
D24*
X107000000Y18430000D03*
D23*
X106235000Y18430000D03*
D12*
X107000000Y20970000D03*
D13*
X106234999Y20969999D03*
D12*
X107000000Y23510000D03*
D13*
X106234999Y23509999D03*
D12*
X107000000Y26050000D03*
D13*
X106234999Y26049999D03*
D12*
X107000000Y28590000D03*
D13*
X106234999Y28589999D03*
D12*
X107000000Y31130000D03*
D13*
X106234999Y31129999D03*
D12*
X107000000Y33670000D03*
D13*
X106234999Y33669999D03*
D12*
X107000000Y36210000D03*
D13*
X106234999Y36209999D03*
D12*
X107000000Y38750000D03*
D13*
X106234999Y38749999D03*
D17*
X102879999Y39564999D03*
D12*
X102880000Y40330000D03*
D17*
X100339999Y39564999D03*
D18*
X100339999Y40329999D03*
D17*
X97799999Y39564999D03*
D18*
X97799999Y40329999D03*
D17*
X95259999Y39564999D03*
D18*
X95259999Y40329999D03*
D17*
X92719999Y39564999D03*
D18*
X92719999Y40329999D03*
D13*
X89364999Y38749999D03*
D12*
X88600000Y38750000D03*
D14*
X89364999Y36219999D03*
D12*
X88600000Y36210000D03*
D19*
X89364999Y33674999D03*
D12*
X88600000Y33670000D03*
D13*
X89364999Y31129999D03*
D12*
X88600000Y31130000D03*
D13*
X89364999Y28589999D03*
D12*
X88600000Y28590000D03*
D13*
X89364999Y26049999D03*
D12*
X88600000Y26050000D03*
D13*
X89364999Y23509999D03*
D12*
X88600000Y23510000D03*
D19*
X89364999Y20974999D03*
D12*
X88600000Y20970000D03*
D25*
X90180000Y18430000D03*
D26*
X89150245Y18430000D03*
D22*
X89479999Y15889999D03*
D12*
X88600000Y15890000D03*
D16*
X89365000Y13350000D03*
D15*
X88600000Y13350000D03*
D25*
X90180000Y10810000D03*
D26*
X89150245Y10810000D03*
D19*
X89364999Y8274999D03*
D12*
X88600000Y8270000D03*
X102875000Y36210000D03*
X96530000Y15890000D03*
X99070000Y15890000D03*
G04 #@! TD*
G04 #@! TO.C,J2*
X45800000Y8270000D03*
D13*
X45034999Y8269999D03*
D12*
X45800000Y10810000D03*
D14*
X45034999Y10819999D03*
D12*
X45800000Y13350000D03*
D13*
X45034999Y13349999D03*
D24*
X45800000Y15890000D03*
D23*
X45035000Y15890000D03*
D24*
X45800000Y18430000D03*
D23*
X45035000Y18430000D03*
D12*
X45800000Y20970000D03*
D13*
X45034999Y20969999D03*
D12*
X45800000Y23510000D03*
D13*
X45034999Y23509999D03*
D12*
X45800000Y26050000D03*
D13*
X45034999Y26049999D03*
D12*
X45800000Y28590000D03*
D13*
X45034999Y28589999D03*
D12*
X45800000Y31130000D03*
D13*
X45034999Y31129999D03*
D12*
X45800000Y33670000D03*
D13*
X45034999Y33669999D03*
D12*
X45800000Y36210000D03*
D13*
X45034999Y36209999D03*
D12*
X45800000Y38750000D03*
D13*
X45034999Y38749999D03*
D17*
X41679999Y39564999D03*
D12*
X41680000Y40330000D03*
D17*
X39139999Y39564999D03*
D18*
X39139999Y40329999D03*
D17*
X36599999Y39564999D03*
D18*
X36599999Y40329999D03*
D17*
X34059999Y39564999D03*
D18*
X34059999Y40329999D03*
D17*
X31519999Y39564999D03*
D18*
X31519999Y40329999D03*
D13*
X28164999Y38749999D03*
D12*
X27400000Y38750000D03*
D14*
X28164999Y36219999D03*
D12*
X27400000Y36210000D03*
D19*
X28164999Y33674999D03*
D12*
X27400000Y33670000D03*
D13*
X28164999Y31129999D03*
D12*
X27400000Y31130000D03*
D13*
X28164999Y28589999D03*
D12*
X27400000Y28590000D03*
D13*
X28164999Y26049999D03*
D12*
X27400000Y26050000D03*
D13*
X28164999Y23509999D03*
D12*
X27400000Y23510000D03*
D19*
X28164999Y20974999D03*
D12*
X27400000Y20970000D03*
D25*
X28980000Y18430000D03*
D26*
X27950245Y18430000D03*
D22*
X28279999Y15889999D03*
D12*
X27400000Y15890000D03*
D16*
X28165000Y13350000D03*
D15*
X27400000Y13350000D03*
D25*
X28980000Y10810000D03*
D26*
X27950245Y10810000D03*
D19*
X28164999Y8274999D03*
D12*
X27400000Y8270000D03*
X41675000Y36210000D03*
X35330000Y15890000D03*
X37870000Y15890000D03*
G04 #@! TD*
G04 #@! TO.C,J2*
X88600000Y79390000D03*
D13*
X89364999Y79389999D03*
D12*
X88600000Y76850000D03*
D14*
X89364999Y76839999D03*
D12*
X88600000Y74310000D03*
D13*
X89364999Y74309999D03*
D15*
X88600000Y71770000D03*
D16*
X89365000Y71770000D03*
D15*
X88600000Y69230000D03*
D16*
X89365000Y69230000D03*
D12*
X88600000Y66690000D03*
D13*
X89364999Y66689999D03*
D12*
X88600000Y64150000D03*
D13*
X89364999Y64149999D03*
D12*
X88600000Y61610000D03*
D13*
X89364999Y61609999D03*
D12*
X88600000Y59070000D03*
D13*
X89364999Y59069999D03*
D12*
X88600000Y56530000D03*
D13*
X89364999Y56529999D03*
D12*
X88600000Y53990000D03*
D13*
X89364999Y53989999D03*
D12*
X88600000Y51450000D03*
D13*
X89364999Y51449999D03*
D12*
X88600000Y48910000D03*
D13*
X89364999Y48909999D03*
D17*
X92719999Y48094999D03*
D12*
X92720000Y47330000D03*
D17*
X95259999Y48094999D03*
D18*
X95259999Y47329999D03*
D17*
X97799999Y48094999D03*
D18*
X97799999Y47329999D03*
D17*
X100339999Y48094999D03*
D18*
X100339999Y47329999D03*
D17*
X102879999Y48094999D03*
D18*
X102879999Y47329999D03*
D13*
X106234999Y48909999D03*
D12*
X107000000Y48910000D03*
D14*
X106234999Y51439999D03*
D12*
X107000000Y51450000D03*
D19*
X106234999Y53984999D03*
D12*
X107000000Y53990000D03*
D13*
X106234999Y56529999D03*
D12*
X107000000Y56530000D03*
D13*
X106234999Y59069999D03*
D12*
X107000000Y59070000D03*
D13*
X106234999Y61609999D03*
D12*
X107000000Y61610000D03*
D13*
X106234999Y64149999D03*
D12*
X107000000Y64150000D03*
D19*
X106234999Y66684999D03*
D12*
X107000000Y66690000D03*
D20*
X105420000Y69230000D03*
D21*
X106449755Y69230000D03*
D22*
X106119999Y71769999D03*
D12*
X107000000Y71770000D03*
D23*
X106235000Y74310000D03*
D24*
X107000000Y74310000D03*
D20*
X105420000Y76850000D03*
D21*
X106449755Y76850000D03*
D19*
X106234999Y79384999D03*
D12*
X107000000Y79390000D03*
X92725000Y51450000D03*
X99070000Y71770000D03*
X96530000Y71770000D03*
G04 #@! TD*
G04 #@! TO.C,J2*
X68200000Y79390000D03*
D13*
X68964999Y79389999D03*
D12*
X68200000Y76850000D03*
D14*
X68964999Y76839999D03*
D12*
X68200000Y74310000D03*
D13*
X68964999Y74309999D03*
D15*
X68200000Y71770000D03*
D16*
X68965000Y71770000D03*
D15*
X68200000Y69230000D03*
D16*
X68965000Y69230000D03*
D12*
X68200000Y66690000D03*
D13*
X68964999Y66689999D03*
D12*
X68200000Y64150000D03*
D13*
X68964999Y64149999D03*
D12*
X68200000Y61610000D03*
D13*
X68964999Y61609999D03*
D12*
X68200000Y59070000D03*
D13*
X68964999Y59069999D03*
D12*
X68200000Y56530000D03*
D13*
X68964999Y56529999D03*
D12*
X68200000Y53990000D03*
D13*
X68964999Y53989999D03*
D12*
X68200000Y51450000D03*
D13*
X68964999Y51449999D03*
D12*
X68200000Y48910000D03*
D13*
X68964999Y48909999D03*
D17*
X72319999Y48094999D03*
D12*
X72320000Y47330000D03*
D17*
X74859999Y48094999D03*
D18*
X74859999Y47329999D03*
D17*
X77399999Y48094999D03*
D18*
X77399999Y47329999D03*
D17*
X79939999Y48094999D03*
D18*
X79939999Y47329999D03*
D17*
X82479999Y48094999D03*
D18*
X82479999Y47329999D03*
D13*
X85834999Y48909999D03*
D12*
X86600000Y48910000D03*
D14*
X85834999Y51439999D03*
D12*
X86600000Y51450000D03*
D19*
X85834999Y53984999D03*
D12*
X86600000Y53990000D03*
D13*
X85834999Y56529999D03*
D12*
X86600000Y56530000D03*
D13*
X85834999Y59069999D03*
D12*
X86600000Y59070000D03*
D13*
X85834999Y61609999D03*
D12*
X86600000Y61610000D03*
D13*
X85834999Y64149999D03*
D12*
X86600000Y64150000D03*
D19*
X85834999Y66684999D03*
D12*
X86600000Y66690000D03*
D20*
X85020000Y69230000D03*
D21*
X86049755Y69230000D03*
D22*
X85719999Y71769999D03*
D12*
X86600000Y71770000D03*
D23*
X85835000Y74310000D03*
D24*
X86600000Y74310000D03*
D20*
X85020000Y76850000D03*
D21*
X86049755Y76850000D03*
D19*
X85834999Y79384999D03*
D12*
X86600000Y79390000D03*
X72325000Y51450000D03*
X78670000Y71770000D03*
X76130000Y71770000D03*
G04 #@! TD*
G04 #@! TO.C,J2*
X7000000Y79390000D03*
D13*
X7764999Y79389999D03*
D12*
X7000000Y76850000D03*
D14*
X7764999Y76839999D03*
D12*
X7000000Y74310000D03*
D13*
X7764999Y74309999D03*
D15*
X7000000Y71770000D03*
D16*
X7765000Y71770000D03*
D15*
X7000000Y69230000D03*
D16*
X7765000Y69230000D03*
D12*
X7000000Y66690000D03*
D13*
X7764999Y66689999D03*
D12*
X7000000Y64150000D03*
D13*
X7764999Y64149999D03*
D12*
X7000000Y61610000D03*
D13*
X7764999Y61609999D03*
D12*
X7000000Y59070000D03*
D13*
X7764999Y59069999D03*
D12*
X7000000Y56530000D03*
D13*
X7764999Y56529999D03*
D12*
X7000000Y53990000D03*
D13*
X7764999Y53989999D03*
D12*
X7000000Y51450000D03*
D13*
X7764999Y51449999D03*
D12*
X7000000Y48910000D03*
D13*
X7764999Y48909999D03*
D17*
X11119999Y48094999D03*
D12*
X11120000Y47330000D03*
D17*
X13659999Y48094999D03*
D18*
X13659999Y47329999D03*
D17*
X16199999Y48094999D03*
D18*
X16199999Y47329999D03*
D17*
X18739999Y48094999D03*
D18*
X18739999Y47329999D03*
D17*
X21279999Y48094999D03*
D18*
X21279999Y47329999D03*
D13*
X24634999Y48909999D03*
D12*
X25400000Y48910000D03*
D14*
X24634999Y51439999D03*
D12*
X25400000Y51450000D03*
D19*
X24634999Y53984999D03*
D12*
X25400000Y53990000D03*
D13*
X24634999Y56529999D03*
D12*
X25400000Y56530000D03*
D13*
X24634999Y59069999D03*
D12*
X25400000Y59070000D03*
D13*
X24634999Y61609999D03*
D12*
X25400000Y61610000D03*
D13*
X24634999Y64149999D03*
D12*
X25400000Y64150000D03*
D19*
X24634999Y66684999D03*
D12*
X25400000Y66690000D03*
D20*
X23820000Y69230000D03*
D21*
X24849755Y69230000D03*
D22*
X24519999Y71769999D03*
D12*
X25400000Y71770000D03*
D23*
X24635000Y74310000D03*
D24*
X25400000Y74310000D03*
D20*
X23820000Y76850000D03*
D21*
X24849755Y76850000D03*
D19*
X24634999Y79384999D03*
D12*
X25400000Y79390000D03*
X11125000Y51450000D03*
X17470000Y71770000D03*
X14930000Y71770000D03*
G04 #@! TD*
G04 #@! TO.C,J2*
X86600000Y8270000D03*
D13*
X85834999Y8269999D03*
D12*
X86600000Y10810000D03*
D14*
X85834999Y10819999D03*
D12*
X86600000Y13350000D03*
D13*
X85834999Y13349999D03*
D24*
X86600000Y15890000D03*
D23*
X85835000Y15890000D03*
D24*
X86600000Y18430000D03*
D23*
X85835000Y18430000D03*
D12*
X86600000Y20970000D03*
D13*
X85834999Y20969999D03*
D12*
X86600000Y23510000D03*
D13*
X85834999Y23509999D03*
D12*
X86600000Y26050000D03*
D13*
X85834999Y26049999D03*
D12*
X86600000Y28590000D03*
D13*
X85834999Y28589999D03*
D12*
X86600000Y31130000D03*
D13*
X85834999Y31129999D03*
D12*
X86600000Y33670000D03*
D13*
X85834999Y33669999D03*
D12*
X86600000Y36210000D03*
D13*
X85834999Y36209999D03*
D12*
X86600000Y38750000D03*
D13*
X85834999Y38749999D03*
D17*
X82479999Y39564999D03*
D12*
X82480000Y40330000D03*
D17*
X79939999Y39564999D03*
D18*
X79939999Y40329999D03*
D17*
X77399999Y39564999D03*
D18*
X77399999Y40329999D03*
D17*
X74859999Y39564999D03*
D18*
X74859999Y40329999D03*
D17*
X72319999Y39564999D03*
D18*
X72319999Y40329999D03*
D13*
X68964999Y38749999D03*
D12*
X68200000Y38750000D03*
D14*
X68964999Y36219999D03*
D12*
X68200000Y36210000D03*
D19*
X68964999Y33674999D03*
D12*
X68200000Y33670000D03*
D13*
X68964999Y31129999D03*
D12*
X68200000Y31130000D03*
D13*
X68964999Y28589999D03*
D12*
X68200000Y28590000D03*
D13*
X68964999Y26049999D03*
D12*
X68200000Y26050000D03*
D13*
X68964999Y23509999D03*
D12*
X68200000Y23510000D03*
D19*
X68964999Y20974999D03*
D12*
X68200000Y20970000D03*
D25*
X69780000Y18430000D03*
D26*
X68750245Y18430000D03*
D22*
X69079999Y15889999D03*
D12*
X68200000Y15890000D03*
D16*
X68965000Y13350000D03*
D15*
X68200000Y13350000D03*
D25*
X69780000Y10810000D03*
D26*
X68750245Y10810000D03*
D19*
X68964999Y8274999D03*
D12*
X68200000Y8270000D03*
X82475000Y36210000D03*
X76130000Y15890000D03*
X78670000Y15890000D03*
G04 #@! TD*
G04 #@! TO.C,J2*
X25400000Y8270000D03*
D13*
X24634999Y8269999D03*
D12*
X25400000Y10810000D03*
D14*
X24634999Y10819999D03*
D12*
X25400000Y13350000D03*
D13*
X24634999Y13349999D03*
D24*
X25400000Y15890000D03*
D23*
X24635000Y15890000D03*
D24*
X25400000Y18430000D03*
D23*
X24635000Y18430000D03*
D12*
X25400000Y20970000D03*
D13*
X24634999Y20969999D03*
D12*
X25400000Y23510000D03*
D13*
X24634999Y23509999D03*
D12*
X25400000Y26050000D03*
D13*
X24634999Y26049999D03*
D12*
X25400000Y28590000D03*
D13*
X24634999Y28589999D03*
D12*
X25400000Y31130000D03*
D13*
X24634999Y31129999D03*
D12*
X25400000Y33670000D03*
D13*
X24634999Y33669999D03*
D12*
X25400000Y36210000D03*
D13*
X24634999Y36209999D03*
D12*
X25400000Y38750000D03*
D13*
X24634999Y38749999D03*
D17*
X21279999Y39564999D03*
D12*
X21280000Y40330000D03*
D17*
X18739999Y39564999D03*
D18*
X18739999Y40329999D03*
D17*
X16199999Y39564999D03*
D18*
X16199999Y40329999D03*
D17*
X13659999Y39564999D03*
D18*
X13659999Y40329999D03*
D17*
X11119999Y39564999D03*
D18*
X11119999Y40329999D03*
D13*
X7764999Y38749999D03*
D12*
X7000000Y38750000D03*
D14*
X7764999Y36219999D03*
D12*
X7000000Y36210000D03*
D19*
X7764999Y33674999D03*
D12*
X7000000Y33670000D03*
D13*
X7764999Y31129999D03*
D12*
X7000000Y31130000D03*
D13*
X7764999Y28589999D03*
D12*
X7000000Y28590000D03*
D13*
X7764999Y26049999D03*
D12*
X7000000Y26050000D03*
D13*
X7764999Y23509999D03*
D12*
X7000000Y23510000D03*
D19*
X7764999Y20974999D03*
D12*
X7000000Y20970000D03*
D25*
X8580000Y18430000D03*
D26*
X7550245Y18430000D03*
D22*
X7879999Y15889999D03*
D12*
X7000000Y15890000D03*
D16*
X7765000Y13350000D03*
D15*
X7000000Y13350000D03*
D25*
X8580000Y10810000D03*
D26*
X7550245Y10810000D03*
D19*
X7764999Y8274999D03*
D12*
X7000000Y8270000D03*
X21275000Y36210000D03*
X14930000Y15890000D03*
X17470000Y15890000D03*
G04 #@! TD*
G04 #@! TO.C,J2*
X47800000Y79390000D03*
D13*
X48564999Y79389999D03*
D12*
X47800000Y76850000D03*
D14*
X48564999Y76839999D03*
D12*
X47800000Y74310000D03*
D13*
X48564999Y74309999D03*
D15*
X47800000Y71770000D03*
D16*
X48565000Y71770000D03*
D15*
X47800000Y69230000D03*
D16*
X48565000Y69230000D03*
D12*
X47800000Y66690000D03*
D13*
X48564999Y66689999D03*
D12*
X47800000Y64150000D03*
D13*
X48564999Y64149999D03*
D12*
X47800000Y61610000D03*
D13*
X48564999Y61609999D03*
D12*
X47800000Y59070000D03*
D13*
X48564999Y59069999D03*
D12*
X47800000Y56530000D03*
D13*
X48564999Y56529999D03*
D12*
X47800000Y53990000D03*
D13*
X48564999Y53989999D03*
D12*
X47800000Y51450000D03*
D13*
X48564999Y51449999D03*
D12*
X47800000Y48910000D03*
D13*
X48564999Y48909999D03*
D17*
X51919999Y48094999D03*
D12*
X51920000Y47330000D03*
D17*
X54459999Y48094999D03*
D18*
X54459999Y47329999D03*
D17*
X56999999Y48094999D03*
D18*
X56999999Y47329999D03*
D17*
X59539999Y48094999D03*
D18*
X59539999Y47329999D03*
D17*
X62079999Y48094999D03*
D18*
X62079999Y47329999D03*
D13*
X65434999Y48909999D03*
D12*
X66200000Y48910000D03*
D14*
X65434999Y51439999D03*
D12*
X66200000Y51450000D03*
D19*
X65434999Y53984999D03*
D12*
X66200000Y53990000D03*
D13*
X65434999Y56529999D03*
D12*
X66200000Y56530000D03*
D13*
X65434999Y59069999D03*
D12*
X66200000Y59070000D03*
D13*
X65434999Y61609999D03*
D12*
X66200000Y61610000D03*
D13*
X65434999Y64149999D03*
D12*
X66200000Y64150000D03*
D19*
X65434999Y66684999D03*
D12*
X66200000Y66690000D03*
D20*
X64620000Y69230000D03*
D21*
X65649755Y69230000D03*
D22*
X65319999Y71769999D03*
D12*
X66200000Y71770000D03*
D23*
X65435000Y74310000D03*
D24*
X66200000Y74310000D03*
D20*
X64620000Y76850000D03*
D21*
X65649755Y76850000D03*
D19*
X65434999Y79384999D03*
D12*
X66200000Y79390000D03*
X51925000Y51450000D03*
X58270000Y71770000D03*
X55730000Y71770000D03*
G04 #@! TD*
D10*
G04 #@! TO.C,REF\u002A\u002A*
X107000000Y83910000D03*
G04 #@! TD*
G04 #@! TO.C,REF\u002A\u002A*
X85675000Y47333138D03*
G04 #@! TD*
G04 #@! TO.C,REF\u002A\u002A*
X49401637Y47330001D03*
G04 #@! TD*
G04 #@! TO.C,REF\u002A\u002A*
X91465000Y7000000D03*
G04 #@! TD*
G04 #@! TO.C,REF\u002A\u002A*
X112125000Y80660000D03*
G04 #@! TD*
G04 #@! TO.C,REF\u002A\u002A*
X8591623Y40330000D03*
G04 #@! TD*
G04 #@! TO.C,REF\u002A\u002A*
X107000000Y85785000D03*
G04 #@! TD*
G04 #@! TO.C,REF\u002A\u002A*
X91535000Y47330001D03*
G04 #@! TD*
G04 #@! TO.C,REF\u002A\u002A*
X50075000Y80660000D03*
G04 #@! TD*
G04 #@! TO.C,REF\u002A\u002A*
X24465000Y40327633D03*
G04 #@! TD*
D27*
G04 #@! TO.C,J1*
X82974999Y75419999D03*
X71824999Y75419999D03*
D28*
X71824999Y79419999D03*
X82974999Y79419999D03*
G04 #@! TD*
D27*
G04 #@! TO.C,J1*
X31024999Y12239999D03*
X42174999Y12239999D03*
D28*
X42174999Y8239999D03*
X31024999Y8239999D03*
G04 #@! TD*
D27*
G04 #@! TO.C,J1*
X42174999Y75419999D03*
X31024999Y75419999D03*
D28*
X31024999Y79419999D03*
X42174999Y79419999D03*
G04 #@! TD*
D27*
G04 #@! TO.C,J1*
X10624999Y12239999D03*
X21774999Y12239999D03*
D28*
X21774999Y8239999D03*
X10624999Y8239999D03*
G04 #@! TD*
D27*
G04 #@! TO.C,J1*
X62574999Y75419999D03*
X51424999Y75419999D03*
D28*
X51424999Y79419999D03*
X62574999Y79419999D03*
G04 #@! TD*
D27*
G04 #@! TO.C,J1*
X51424999Y12239999D03*
X62574999Y12239999D03*
D28*
X62574999Y8239999D03*
X51424999Y8239999D03*
G04 #@! TD*
D27*
G04 #@! TO.C,J1*
X92224999Y12239999D03*
X103374999Y12239999D03*
D28*
X103374999Y8239999D03*
X92224999Y8239999D03*
G04 #@! TD*
D27*
G04 #@! TO.C,J1*
X21774999Y75419999D03*
X10624999Y75419999D03*
D28*
X10624999Y79419999D03*
X21774999Y79419999D03*
G04 #@! TD*
D27*
G04 #@! TO.C,J1*
X71824999Y12239999D03*
X82974999Y12239999D03*
D28*
X82974999Y8239999D03*
X71824999Y8239999D03*
G04 #@! TD*
D27*
G04 #@! TO.C,J1*
X103374999Y75419999D03*
X92224999Y75419999D03*
D28*
X92224999Y79419999D03*
X103374999Y79419999D03*
G04 #@! TD*
D10*
G04 #@! TO.C,REF\u002A\u002A*
X84325000Y7000000D03*
G04 #@! TD*
G04 #@! TO.C,REF\u002A\u002A*
X26400000Y45330000D03*
G04 #@! TD*
G04 #@! TO.C,REF\u002A\u002A*
X7000000Y44730000D03*
G04 #@! TD*
G04 #@! TO.C,REF\u002A\u002A*
X7000000Y43530000D03*
G04 #@! TD*
G04 #@! TO.C,REF\u002A\u002A*
X104125000Y7000000D03*
G04 #@! TD*
G04 #@! TO.C,REF\u002A\u002A*
X41735000Y80660000D03*
G04 #@! TD*
G04 #@! TO.C,REF\u002A\u002A*
X29001637Y47330001D03*
G04 #@! TD*
G04 #@! TO.C,REF\u002A\u002A*
X42865000Y40330000D03*
G04 #@! TD*
G04 #@! TO.C,REF\u002A\u002A*
X112750000Y80660000D03*
G04 #@! TD*
G04 #@! TO.C,REF\u002A\u002A*
X110250000Y7000000D03*
G04 #@! TD*
G04 #@! TO.C,REF\u002A\u002A*
X70468318Y47330001D03*
G04 #@! TD*
G04 #@! TO.C,REF\u002A\u002A*
X7000000Y42930000D03*
G04 #@! TD*
G04 #@! TO.C,REF\u002A\u002A*
X84935000Y80660000D03*
G04 #@! TD*
G04 #@! TO.C,REF\u002A\u002A*
X1250000Y80660000D03*
G04 #@! TD*
G04 #@! TO.C,REF\u002A\u002A*
X90858311Y40330000D03*
G04 #@! TD*
G04 #@! TO.C,REF\u002A\u002A*
X22535000Y80660000D03*
G04 #@! TD*
G04 #@! TO.C,REF\u002A\u002A*
X69265000Y7000000D03*
G04 #@! TD*
G04 #@! TO.C,REF\u002A\u002A*
X43531681Y40330000D03*
G04 #@! TD*
G04 #@! TO.C,REF\u002A\u002A*
X11065000Y7000000D03*
G04 #@! TD*
G04 #@! TO.C,REF\u002A\u002A*
X65125000Y7000000D03*
G04 #@! TD*
G04 #@! TO.C,REF\u002A\u002A*
X63935000Y80660000D03*
G04 #@! TD*
G04 #@! TO.C,REF\u002A\u002A*
X46800000Y43530000D03*
G04 #@! TD*
G04 #@! TO.C,REF\u002A\u002A*
X23735000Y80660000D03*
G04 #@! TD*
G04 #@! TO.C,REF\u002A\u002A*
X63931681Y40330000D03*
G04 #@! TD*
G04 #@! TO.C,REF\u002A\u002A*
X107000000Y2500000D03*
G04 #@! TD*
G04 #@! TO.C,REF\u002A\u002A*
X3125000Y80660000D03*
G04 #@! TD*
G04 #@! TO.C,REF\u002A\u002A*
X7000000Y85785000D03*
G04 #@! TD*
G04 #@! TO.C,REF\u002A\u002A*
X7000000Y1250000D03*
G04 #@! TD*
G04 #@! TO.C,REF\u002A\u002A*
X71125000Y40330000D03*
G04 #@! TD*
G04 #@! TO.C,REF\u002A\u002A*
X89525000Y40326863D03*
G04 #@! TD*
G04 #@! TO.C,REF\u002A\u002A*
X44725000Y7000000D03*
G04 #@! TD*
G04 #@! TO.C,REF\u002A\u002A*
X107000000Y82660000D03*
G04 #@! TD*
G04 #@! TO.C,REF\u002A\u002A*
X46800000Y44130000D03*
G04 #@! TD*
G04 #@! TO.C,REF\u002A\u002A*
X90865000Y7000000D03*
G04 #@! TD*
G04 #@! TO.C,REF\u002A\u002A*
X49475000Y80660000D03*
G04 #@! TD*
G04 #@! TO.C,REF\u002A\u002A*
X43535000Y80660000D03*
G04 #@! TD*
D11*
G04 #@! TO.C,REF\u002A\u002A*
X5000000Y3850000D03*
G04 #@! TD*
G04 #@! TO.C,REF\u002A\u002A*
X5000000Y83810000D03*
G04 #@! TD*
G04 #@! TO.C,REF\u002A\u002A*
X109000000Y83810000D03*
G04 #@! TD*
D29*
G04 #@! TO.C,TP1*
X15715000Y55600000D03*
G04 #@! TD*
G04 #@! TO.C,TP1*
X36115000Y55600000D03*
G04 #@! TD*
G04 #@! TO.C,TP1*
X56515000Y55600000D03*
G04 #@! TD*
G04 #@! TO.C,TP1*
X76915000Y55600000D03*
G04 #@! TD*
G04 #@! TO.C,TP1*
X97315000Y55600000D03*
G04 #@! TD*
G04 #@! TO.C,TP1*
X16685000Y32060000D03*
G04 #@! TD*
G04 #@! TO.C,TP1*
X37085000Y32060000D03*
G04 #@! TD*
G04 #@! TO.C,TP1*
X57485000Y32060000D03*
G04 #@! TD*
G04 #@! TO.C,TP1*
X77885000Y32060000D03*
G04 #@! TD*
G04 #@! TO.C,TP1*
X98285000Y32060000D03*
G04 #@! TD*
G04 #@! TO.C,TP2*
X76785000Y32070000D03*
G04 #@! TD*
G04 #@! TO.C,TP2*
X97185000Y32070000D03*
G04 #@! TD*
G04 #@! TO.C,TP2*
X16815000Y55590000D03*
G04 #@! TD*
G04 #@! TO.C,TP2*
X37215000Y55590000D03*
G04 #@! TD*
G04 #@! TO.C,TP2*
X57615000Y55590000D03*
G04 #@! TD*
G04 #@! TO.C,TP2*
X78015000Y55590000D03*
G04 #@! TD*
G04 #@! TO.C,TP2*
X98415000Y55590000D03*
G04 #@! TD*
G04 #@! TO.C,TP2*
X15585000Y32070000D03*
G04 #@! TD*
G04 #@! TO.C,TP2*
X35985000Y32070000D03*
G04 #@! TD*
G04 #@! TO.C,TP2*
X56385000Y32070000D03*
G04 #@! TD*
M02*
