G04 #@! TF.GenerationSoftware,KiCad,Pcbnew,7.0.0-da2b9df05c~165~ubuntu22.04.1*
G04 #@! TF.CreationDate,2023-10-10T20:55:34+00:00*
G04 #@! TF.ProjectId,helios-panel,68656c69-6f73-42d7-9061-6e656c2e6b69,rev1.0*
G04 #@! TF.SameCoordinates,Original*
G04 #@! TF.FileFunction,Profile,NP*
%FSLAX46Y46*%
G04 Gerber Fmt 4.6, Leading zero omitted, Abs format (unit mm)*
G04 Created by KiCad (PCBNEW 7.0.0-da2b9df05c~165~ubuntu22.04.1) date 2023-10-10 20:55:34*
%MOMM*%
%LPD*%
G01*
G04 APERTURE LIST*
G04 #@! TA.AperFunction,Profile*
%ADD10C,0.100000*%
G04 #@! TD*
G04 APERTURE END LIST*
D10*
X7749347Y40298078D02*
X7700636Y40284140D01*
X47979236Y39901269D02*
X47951355Y39858965D01*
X85994355Y47411043D02*
X86040394Y47432196D01*
X69135000Y45330000D02*
X67200000Y45330000D01*
X63265000Y40330000D02*
X50725000Y40330000D01*
X68200000Y79660000D02*
X68200000Y48330000D01*
X48541181Y80625926D02*
X48490983Y80611056D01*
X106440394Y80557805D02*
X106394355Y80578958D01*
X27462247Y39677306D02*
X27445860Y39629364D01*
X106688966Y47605208D02*
X106724792Y47641034D01*
X8000000Y7000000D02*
X8065000Y7000000D01*
X46800000Y45330000D02*
X44875000Y45330000D01*
X24335000Y82660000D02*
X28475000Y82660000D01*
X88702195Y39770395D02*
X88681042Y39724356D01*
X85756434Y7012313D02*
X85756434Y7012313D01*
X106987687Y7843566D02*
X106994521Y7895472D01*
X88666420Y47971633D02*
X88686455Y47923264D01*
X88605130Y39431169D02*
X88601283Y39380650D01*
X106104528Y7005479D02*
X106156434Y7012313D01*
X48452694Y40267753D02*
X48405644Y40248958D01*
X7190983Y47742216D02*
X7222854Y47700681D01*
X25337752Y80007306D02*
X25318957Y80054356D01*
X45737752Y47982695D02*
X45754139Y48030637D01*
X48643565Y47342313D02*
X48695471Y47335479D01*
X106052335Y7001371D02*
X106104528Y7005479D01*
X47801370Y79712336D02*
X47800000Y79660000D01*
X106309016Y7048945D02*
X106358367Y7066421D01*
X68266420Y47971633D02*
X68286455Y47923264D01*
X7641632Y80593580D02*
X7593263Y80573545D01*
X45507105Y7292895D02*
X45543143Y7330871D01*
X45253989Y40221006D02*
X45206736Y40243545D01*
X89100000Y47463976D02*
X89146010Y47438995D01*
X48393263Y80573545D02*
X48346010Y80551006D01*
X68492894Y80367106D02*
X68456856Y80329130D01*
X7125653Y7514699D02*
X7151355Y7471036D01*
X27431922Y39580653D02*
X27420470Y39531299D01*
X7151355Y7471036D02*
X7179236Y7428732D01*
X528603Y118079D02*
X617316Y76121D01*
X106999999Y8000000D02*
X107000000Y39330000D01*
X65304528Y40324522D02*
X65265000Y40327633D01*
X92665000Y7000000D02*
X93175000Y7000000D01*
X45697804Y47889606D02*
X45718957Y47935645D01*
X89547664Y80658630D02*
X89495471Y80654522D01*
X48735000Y45330000D02*
X46800000Y45330000D01*
X27481042Y7605645D02*
X27502195Y7559606D01*
X86578147Y7792089D02*
X86587687Y7843566D01*
X7108994Y47876011D02*
X7133975Y47830001D01*
X50735000Y47330001D02*
X63275000Y47330001D01*
X65653989Y7108995D02*
X65699999Y7133976D01*
X88600000Y8000000D02*
X88601283Y7949351D01*
X89114698Y40204347D02*
X89071035Y40178645D01*
X48598701Y7020471D02*
X48648572Y7011532D01*
X48875000Y82660000D02*
X48875000Y80660000D01*
X66154139Y79959364D02*
X66137752Y80007306D01*
X109000000Y5000000D02*
X105925000Y5000000D01*
X102925000Y7000000D02*
X102925000Y5000000D01*
X89071035Y40178645D02*
X89028731Y40150764D01*
X617316Y87583880D02*
X528603Y87541922D01*
X48500636Y7045861D02*
X48549347Y7031923D01*
X25238669Y39874639D02*
X25209016Y39917785D01*
X27946010Y80551006D02*
X27900000Y80526025D01*
X47848944Y79969017D02*
X47834074Y79918819D01*
X65252335Y7001371D02*
X65304528Y7005479D01*
X106937752Y80007306D02*
X106918957Y80054356D01*
X88601283Y7949351D02*
X88605130Y7898832D01*
X106933579Y7641633D02*
X106951055Y7690984D01*
X68511033Y7275208D02*
X68548627Y7241242D01*
X113382683Y87583880D02*
X113290284Y87616941D01*
X45798716Y48279351D02*
X45800000Y48330000D01*
X48314698Y40204347D02*
X48271035Y40178645D01*
X106201298Y80639530D02*
X106151427Y80648469D01*
X47925653Y7514699D02*
X47951355Y7471036D01*
X107000000Y42330000D02*
X109000000Y42330000D01*
X45147305Y80597753D02*
X45099363Y80614140D01*
X47933975Y47830001D02*
X47961330Y47785362D01*
X106724792Y80348967D02*
X106688966Y80384793D01*
X48300000Y80526025D02*
X48255361Y80498670D01*
X7428731Y40150764D02*
X7387894Y40120776D01*
X89341181Y80625926D02*
X89290983Y80611056D01*
X85704528Y40324522D02*
X85665000Y40327633D01*
X28192088Y80638148D02*
X28141181Y80625926D01*
X89665000Y7000000D02*
X89665000Y5000000D01*
X7000000Y79660000D02*
X7000000Y48330000D01*
X113995184Y86758018D02*
X113980785Y86855091D01*
X113098017Y4816D02*
X113195090Y19215D01*
X42865000Y40330000D02*
X30325000Y40330000D01*
X68409224Y39942106D02*
X68379236Y39901269D01*
X45488966Y47605208D02*
X45524792Y47641034D01*
X109000000Y45330000D02*
X107000000Y45330000D01*
X66165925Y7741182D02*
X66178147Y7792089D01*
X68212312Y48173566D02*
X68221852Y48122089D01*
X28248572Y40318469D02*
X28198701Y40309530D01*
X114000000Y86660000D02*
X113995184Y86758018D01*
X87600000Y42330000D02*
X89525000Y42330000D01*
X41225000Y75000000D02*
X31985000Y75000000D01*
X24607911Y7021853D02*
X24658818Y7034075D01*
X27400000Y39330000D02*
X27400000Y8000000D01*
X7048944Y48020984D02*
X7066420Y47971633D01*
X45798716Y79710650D02*
X45794869Y79761169D01*
X68475207Y40018967D02*
X68441241Y39981373D01*
X27401370Y48277665D02*
X27405478Y48225472D01*
X45691005Y39783990D02*
X45666024Y39830000D01*
X113382683Y76121D02*
X113471396Y118079D01*
X48592088Y80638148D02*
X48541181Y80625926D01*
X88666420Y80018368D02*
X88648944Y79969017D01*
X88761330Y80204639D02*
X88733975Y80160000D01*
X27855361Y47491331D02*
X27900000Y47463976D01*
X106612105Y47539225D02*
X106651372Y47571242D01*
X106987687Y39486435D02*
X106978147Y39537912D01*
X86040394Y80557805D02*
X85994355Y80578958D01*
X7000000Y39330000D02*
X7000000Y8000000D01*
X25388468Y48178573D02*
X25394869Y48228832D01*
X85600000Y80660000D02*
X85535000Y80660000D01*
X24551427Y80648469D02*
X24501168Y80654870D01*
X65450652Y47361923D02*
X65499363Y47375861D01*
X88662247Y7652695D02*
X88681042Y7605645D01*
X28100636Y7045861D02*
X28149347Y7031923D01*
X7848572Y40318469D02*
X7798701Y40309530D01*
X24699363Y47375861D02*
X24747305Y47392248D01*
X65990775Y47717895D02*
X66020763Y47758732D01*
X45558758Y47678628D02*
X45590775Y47717895D01*
X8075000Y82660000D02*
X8075000Y80660000D01*
X66137752Y47982695D02*
X66154139Y48030637D01*
X45800000Y39330000D02*
X45798629Y39382336D01*
X68900636Y40284140D02*
X68852694Y40267753D01*
X27828731Y40150764D02*
X27787894Y40120776D01*
X24971268Y80480764D02*
X24928964Y80508645D01*
X89600000Y80660000D02*
X89547664Y80658630D01*
X47845860Y39629364D02*
X47831922Y39580653D01*
X106629319Y7222855D02*
X106669129Y7256857D01*
X44901168Y47335131D02*
X44951427Y47341532D01*
X25394869Y48228832D02*
X25398716Y48279351D01*
X24601298Y80639530D02*
X24551427Y80648469D01*
X65812105Y47539225D02*
X65851372Y47571242D01*
X88686455Y47923264D02*
X88708994Y47876011D01*
X68805644Y40248958D02*
X68759605Y40227805D01*
X27448944Y79969017D02*
X27434074Y79918819D01*
X65458818Y40295926D02*
X65407911Y40308148D01*
X102415000Y7000000D02*
X102925000Y7000000D01*
X66048644Y47801036D02*
X66074346Y47844699D01*
X19214Y804910D02*
X43059Y709716D01*
X88822854Y80289320D02*
X88790983Y80247785D01*
X47951355Y39858965D02*
X47925653Y39815302D01*
X88779236Y39901269D02*
X88751355Y39858965D01*
X86600000Y79660000D02*
X86598716Y79710650D01*
X27421852Y48122089D02*
X27434074Y48071182D01*
X7241241Y7348628D02*
X7275207Y7311034D01*
X85665000Y40327633D02*
X85665000Y42330000D01*
X69098831Y40324870D02*
X69048572Y40318469D01*
X48725000Y40326863D02*
X48698831Y40324870D01*
X31465000Y7000000D02*
X31975000Y7000000D01*
X86466024Y39830000D02*
X86438669Y39874639D01*
X9925000Y40330000D02*
X9925000Y40330000D01*
X45344638Y40168670D02*
X45299999Y40196025D01*
X27787894Y40120776D02*
X27748627Y40088759D01*
X68333975Y80160000D02*
X68308994Y80113990D01*
X88648944Y79969017D02*
X88634074Y79918819D01*
X25398716Y79710650D02*
X25394869Y79761169D01*
X27434074Y79918819D02*
X27421852Y79867912D01*
X86594521Y7895472D02*
X86598629Y7947665D01*
X89055361Y80498670D02*
X89012215Y80469017D01*
X89252694Y40267753D02*
X89205644Y40248958D01*
X106587784Y40139017D02*
X106544638Y40168670D01*
X86554139Y79959364D02*
X86537752Y80007306D01*
X7256856Y80329130D02*
X7222854Y80289320D01*
X86466024Y7500001D02*
X86491005Y7546011D01*
X168530Y87215571D02*
X118078Y87131397D01*
X88631922Y39580653D02*
X88620470Y39531299D01*
X7108994Y80113990D02*
X7086455Y80066737D01*
X27675207Y40018967D02*
X27641241Y39981373D01*
X86128964Y47481356D02*
X86171268Y47509237D01*
X7741181Y80625926D02*
X7690983Y80611056D01*
X45099363Y47375861D02*
X45147305Y47392248D01*
X65458818Y7034075D02*
X65509016Y7048945D01*
X62135000Y80660000D02*
X61625000Y80660000D01*
X85850652Y47361923D02*
X85899363Y47375861D01*
X88611531Y7848573D02*
X88620470Y7798702D01*
X66009016Y39917785D02*
X65977145Y39959320D01*
X65407911Y40308148D02*
X65356434Y40317688D01*
X27420470Y7798702D02*
X27431922Y7749348D01*
X65125000Y7000000D02*
X65200000Y7000000D01*
X86513544Y7593264D02*
X86533579Y7641633D01*
X88809224Y7387895D02*
X88841241Y7348628D01*
X25177145Y7370681D02*
X25209016Y7412216D01*
X48130870Y80403144D02*
X48092894Y80367106D01*
X88725653Y7514699D02*
X88751355Y7471036D01*
X30335000Y47330001D02*
X42875000Y47330001D01*
X48490983Y80611056D02*
X48441632Y80593580D01*
X24944638Y7161331D02*
X24987784Y7190984D01*
X48056856Y80329130D02*
X48022854Y80289320D01*
X7848572Y7011532D02*
X7898831Y7005131D01*
X45507105Y40037106D02*
X45469129Y40073144D01*
X65200000Y7000000D02*
X65252335Y7001371D01*
X44852335Y7001371D02*
X44904528Y7005479D01*
X86390775Y80272106D02*
X86358758Y80311373D01*
X66091005Y7546011D02*
X66113544Y7593264D01*
X27466420Y80018368D02*
X27448944Y79969017D01*
X27400000Y48330000D02*
X27401370Y48277665D01*
X88621852Y48122089D02*
X88634074Y48071182D01*
X47886455Y80066737D02*
X47866420Y80018368D01*
X27525653Y39815302D02*
X27502195Y39770395D01*
X27508994Y80113990D02*
X27486455Y80066737D01*
X7012312Y79816435D02*
X7005478Y79764529D01*
X7500000Y80526025D02*
X7455361Y80498670D01*
X66038669Y39874639D02*
X66009016Y39917785D01*
X85652335Y7001371D02*
X85704528Y7005479D01*
X24501168Y47335131D02*
X24551427Y47341532D01*
X86533579Y39688368D02*
X86513544Y39736737D01*
X7062247Y39677306D02*
X7045860Y39629364D01*
X88841241Y39981373D02*
X88809224Y39942106D01*
X86578147Y39537912D02*
X86565925Y39588819D01*
X47800000Y39330000D02*
X47800000Y8000000D01*
X24650652Y47361923D02*
X24699363Y47375861D01*
X65351427Y47341532D02*
X65401298Y47350471D01*
X65594355Y47411043D02*
X65640394Y47432196D01*
X106994869Y48228832D02*
X106998716Y48279351D01*
X27405478Y48225472D02*
X27412312Y48173566D01*
X709715Y43060D02*
X804909Y19215D01*
X107000000Y39330000D02*
X106998629Y39382336D01*
X24987784Y7190984D02*
X25029319Y7222855D01*
X93185000Y80660000D02*
X93185000Y80660000D01*
X24556434Y40317688D02*
X24504528Y40324522D01*
X85850652Y80628078D02*
X85801298Y80639530D01*
X89028731Y7179237D02*
X89071035Y7151356D01*
X68201370Y79712336D02*
X68200000Y79660000D01*
X86598716Y79710650D02*
X86594869Y79761169D01*
X69095471Y47335479D02*
X69135000Y47332368D01*
X22465000Y42330000D02*
X22465000Y40330000D01*
X24658818Y7034075D02*
X24709016Y7048945D01*
X88601370Y48277665D02*
X88605478Y48225472D01*
X48148627Y7241242D02*
X48187894Y7209225D01*
X44865000Y40327633D02*
X44865000Y42330000D01*
X86040394Y47432196D02*
X86085301Y47455654D01*
X68759605Y7102196D02*
X68805644Y7081043D01*
X27400000Y8000000D02*
X27401283Y7949351D01*
X24885301Y47455654D02*
X24928964Y47481356D01*
X65301168Y80654870D02*
X65250649Y80658717D01*
X44725000Y7000000D02*
X44800000Y7000000D01*
X68456856Y47660871D02*
X68492894Y47622895D01*
X28465000Y7000000D02*
X28465000Y5000000D01*
X69048572Y7011532D02*
X69098831Y7005131D01*
X69125000Y42330000D02*
X69125000Y40326863D01*
X7292894Y47622895D02*
X7330870Y47586857D01*
X24450649Y80658717D02*
X24400000Y80660000D01*
X52375000Y12660000D02*
X61615000Y12660000D01*
X88751355Y39858965D02*
X88725653Y39815302D01*
X76120Y617317D02*
X118078Y528604D01*
X68390983Y47742216D02*
X68422854Y47700681D01*
X25379529Y48128702D02*
X25388468Y48178573D01*
X68302195Y39770395D02*
X68281042Y39724356D01*
X28141181Y80625926D02*
X28090983Y80611056D01*
X45697804Y80100395D02*
X45674346Y80145302D01*
X65356434Y40317688D02*
X65304528Y40324522D01*
X88611531Y39481428D02*
X88605130Y39431169D01*
X68266420Y80018368D02*
X68248944Y79969017D01*
X48800000Y7000000D02*
X48865000Y7000000D01*
X69135000Y47332368D02*
X69135000Y45330000D01*
X66198716Y79710650D02*
X66194869Y79761169D01*
X27405130Y39431169D02*
X27401283Y39380650D01*
X66151055Y39639017D02*
X66133579Y39688368D01*
X28198701Y7020471D02*
X28248572Y7011532D01*
X45007911Y7021853D02*
X45058818Y7034075D01*
X7005478Y79764529D02*
X7001370Y79712336D01*
X45788468Y79811428D02*
X45779529Y79861299D01*
X27420470Y39531299D02*
X27411531Y39481428D01*
X25313544Y39736737D02*
X25291005Y39783990D01*
X7066420Y80018368D02*
X7048944Y79969017D01*
X113831469Y444430D02*
X113881921Y528604D01*
X113000000Y0D02*
X113098017Y4816D01*
X65924792Y47641034D02*
X65958758Y47678628D01*
X88645860Y39629364D02*
X88631922Y39580653D01*
X86554139Y48030637D02*
X86568077Y48079348D01*
X91525000Y40330000D02*
X91525000Y42330000D01*
X65509016Y7048945D02*
X65558367Y7066421D01*
X89349347Y40298078D02*
X89300636Y40284140D01*
X68201370Y48277665D02*
X68205478Y48225472D01*
X65250649Y80658717D02*
X65200000Y80660000D01*
X106994521Y7895472D02*
X106998629Y7947665D01*
X7848572Y40318469D02*
X7848572Y40318469D01*
X24504528Y7005479D02*
X24556434Y7012313D01*
X31975000Y12660000D02*
X41215000Y12660000D01*
X45794869Y79761169D02*
X45788468Y79811428D01*
X88620470Y7798702D02*
X88631922Y7749348D01*
X28141181Y47364075D02*
X28192088Y47351853D01*
X41215000Y12660000D02*
X41215000Y7000000D01*
X48111033Y7275208D02*
X48148627Y7241242D01*
X28400000Y7000000D02*
X28465000Y7000000D01*
X48749350Y7001284D02*
X48800000Y7000000D01*
X42865000Y42330000D02*
X42865000Y40330000D01*
X69043565Y80647688D02*
X69043565Y80647688D01*
X83665000Y42330000D02*
X83665000Y40330000D01*
X25177145Y39959320D02*
X25143143Y39999130D01*
X27959605Y7102196D02*
X28005644Y7081043D01*
X7605644Y40248958D02*
X7559605Y40227805D01*
X113773010Y87294394D02*
X113707106Y87367107D01*
X86438669Y39874639D02*
X86409016Y39917785D01*
X47820470Y39531299D02*
X47811531Y39481428D01*
X7593263Y80573545D02*
X7546010Y80551006D01*
X65640394Y47432196D02*
X65685301Y47455654D01*
X68949347Y40298078D02*
X68900636Y40284140D01*
X48695471Y47335479D02*
X48735000Y47332368D01*
X88601370Y79712336D02*
X88600000Y79660000D01*
X88809224Y39942106D02*
X88779236Y39901269D01*
X44735000Y82660000D02*
X48875000Y82660000D01*
X48092894Y80367106D02*
X48056856Y80329130D01*
X48187894Y7209225D02*
X48228731Y7179237D01*
X7387894Y40120776D02*
X7348627Y40088759D01*
X106347305Y80597753D02*
X106299363Y80614140D01*
X45543143Y39999130D02*
X45507105Y40037106D01*
X106207911Y40308148D02*
X106156434Y40317688D01*
X88605478Y48225472D02*
X88612312Y48173566D01*
X113555570Y168531D02*
X113634393Y226990D01*
X7125653Y39815302D02*
X7102195Y39770395D01*
X89498831Y40324870D02*
X89448572Y40318469D01*
X66097804Y47889606D02*
X66118957Y47935645D01*
X45713544Y39736737D02*
X45691005Y39783990D01*
X65685301Y47455654D02*
X65728964Y47481356D01*
X88605478Y79764529D02*
X88601370Y79712336D01*
X28052694Y7062248D02*
X28100636Y7045861D01*
X24452335Y7001371D02*
X24504528Y7005479D01*
X47820470Y7798702D02*
X47831922Y7749348D01*
X44904528Y7005479D02*
X44956434Y7012313D01*
X24899999Y7133976D02*
X24944638Y7161331D01*
X89114698Y7125654D02*
X89159605Y7102196D01*
X82525000Y7000000D02*
X82525000Y5000000D01*
X88686455Y80066737D02*
X88666420Y80018368D01*
X106743143Y7330871D02*
X106777145Y7370681D01*
X106994521Y39434529D02*
X106987687Y39486435D01*
X27993263Y47416456D02*
X28041632Y47396421D01*
X24971268Y47509237D02*
X25012105Y47539225D01*
X27730870Y47586857D02*
X27770680Y47552855D01*
X65558367Y40263580D02*
X65509016Y40281056D01*
X27533975Y80160000D02*
X27508994Y80113990D01*
X102935000Y82660000D02*
X102935000Y80660000D01*
X88725653Y39815302D02*
X88702195Y39770395D01*
X22475000Y45330000D02*
X9935000Y45330000D01*
X45412105Y80450776D02*
X45371268Y80480764D01*
X25248644Y80188965D02*
X25220763Y80231269D01*
X106151427Y80648469D02*
X106101168Y80654870D01*
X47979236Y7428732D02*
X48009224Y7387895D01*
X62125000Y7000000D02*
X62125000Y5000000D01*
X63275000Y45330000D02*
X50735000Y45330000D01*
X65606736Y7086456D02*
X65653989Y7108995D01*
X25158758Y47678628D02*
X25190775Y47717895D01*
X27675207Y7311034D02*
X27711033Y7275208D01*
X28090983Y80611056D02*
X28041632Y80593580D01*
X68205478Y48225472D02*
X68212312Y48173566D01*
X22475000Y47330001D02*
X22475000Y45330000D01*
X24400000Y80660000D02*
X24335000Y80660000D01*
X7798701Y7020471D02*
X7848572Y7011532D01*
X7741181Y47364075D02*
X7792088Y47351853D01*
X25029319Y40107146D02*
X24987784Y40139017D01*
X89300636Y40284140D02*
X89252694Y40267753D01*
X47821852Y79867912D02*
X47812312Y79816435D01*
X89241632Y47396421D02*
X89290983Y47378945D01*
X48346010Y47438995D02*
X48393263Y47416456D01*
X45779529Y79861299D02*
X45768077Y79910653D01*
X27462247Y7652695D02*
X27481042Y7605645D01*
X113956940Y709716D02*
X113980785Y804910D01*
X25387687Y39486435D02*
X25378147Y39537912D01*
X47848944Y48020984D02*
X47866420Y47971633D01*
X45469129Y40073144D02*
X45429319Y40107146D01*
X66118957Y47935645D02*
X66137752Y47982695D01*
X65924792Y80348967D02*
X65888966Y80384793D01*
X86269129Y7256857D02*
X86307105Y7292895D01*
X47800000Y48330000D02*
X47801370Y48277665D01*
X86288966Y47605208D02*
X86324792Y47641034D01*
X86587687Y39486435D02*
X86578147Y39537912D01*
X65450652Y80628078D02*
X65401298Y80639530D01*
X48865000Y5000000D02*
X44725000Y5000000D01*
X7546010Y47438995D02*
X7593263Y47416456D01*
X88662247Y39677306D02*
X88645860Y39629364D01*
X45733579Y39688368D02*
X45713544Y39736737D01*
X7330870Y47586857D02*
X7370680Y47552855D01*
X46800000Y42330000D02*
X48725000Y42330000D01*
X11075000Y82660000D02*
X21335000Y82660000D01*
X28295471Y47335479D02*
X28335000Y47332368D01*
X24601298Y47350471D02*
X24650652Y47361923D01*
X21335000Y82660000D02*
X21335000Y80660000D01*
X65787784Y40139017D02*
X65744638Y40168670D01*
X28298831Y40324870D02*
X28248572Y40318469D01*
X45590775Y80272106D02*
X45558758Y80311373D01*
X28100636Y40284140D02*
X28052694Y40267753D01*
X68351355Y7471036D02*
X68379236Y7428732D01*
X44735000Y80660000D02*
X44735000Y82660000D01*
X7081042Y7605645D02*
X7102195Y7559606D01*
X65699999Y40196025D02*
X65653989Y40221006D01*
X106998716Y48279351D02*
X107000000Y48330000D01*
X106347305Y47392248D02*
X106394355Y47411043D01*
X86409016Y7412216D02*
X86438669Y7455362D01*
X85807911Y40308148D02*
X85756434Y40317688D01*
X66154139Y48030637D02*
X66168077Y48079348D01*
X65135000Y80660000D02*
X65135000Y82660000D01*
X106954139Y48030637D02*
X106968077Y48079348D01*
X45778147Y39537912D02*
X45765925Y39588819D01*
X85858818Y40295926D02*
X85807911Y40308148D01*
X88620470Y39531299D02*
X88611531Y39481428D01*
X89495471Y47335479D02*
X89535000Y47332368D01*
X48271035Y7151356D02*
X48314698Y7125654D01*
X65301168Y47335131D02*
X65351427Y47341532D01*
X69048572Y40318469D02*
X68998701Y40309530D01*
X44850649Y80658717D02*
X44800000Y80660000D01*
X30325000Y42330000D02*
X42865000Y42330000D01*
X25220763Y47758732D02*
X25248644Y47801036D01*
X47902195Y7559606D02*
X47925653Y7514699D01*
X25274346Y47844699D02*
X25297804Y47889606D01*
X45206736Y7086456D02*
X45253989Y7108995D01*
X47990983Y80247785D02*
X47961330Y80204639D01*
X7001370Y79712336D02*
X7000000Y79660000D01*
X68211531Y7848573D02*
X68220470Y7798702D01*
X68221852Y79867912D02*
X68212312Y79816435D01*
X27486455Y80066737D02*
X27466420Y80018368D01*
X69275000Y82660000D02*
X69275000Y80660000D01*
X106968077Y48079348D02*
X106979529Y48128702D01*
X85958367Y40263580D02*
X85909016Y40281056D01*
X31985000Y80660000D02*
X31475000Y80660000D01*
X68570680Y80437146D02*
X68530870Y80403144D01*
X85756434Y7012313D02*
X85807911Y7021853D01*
X85801298Y80639530D02*
X85751427Y80648469D01*
X106299363Y47375861D02*
X106347305Y47392248D01*
X66038669Y7455362D02*
X66066024Y7500001D01*
X9935000Y45330000D02*
X9935000Y47330001D01*
X113471396Y118079D02*
X113555570Y168531D01*
X82015000Y7000000D02*
X82525000Y7000000D01*
X27561330Y80204639D02*
X27533975Y80160000D01*
X24899999Y40196025D02*
X24853989Y40221006D01*
X68201283Y7949351D02*
X68205130Y7898832D01*
X45799999Y8000000D02*
X45800000Y39330000D01*
X25333579Y39688368D02*
X25313544Y39736737D01*
X25291005Y7546011D02*
X25313544Y7593264D01*
X44725000Y5000000D02*
X44725000Y7000000D01*
X48271035Y40178645D02*
X48228731Y40150764D01*
X86006736Y7086456D02*
X86053989Y7108995D01*
X86579529Y48128702D02*
X86588468Y48178573D01*
X86420763Y80231269D02*
X86390775Y80272106D01*
X86551055Y7690984D02*
X86565925Y7741182D01*
X45754139Y48030637D02*
X45768077Y48079348D01*
X86599999Y8000000D02*
X86600000Y39330000D01*
X106528964Y47481356D02*
X106571268Y47509237D01*
X62125000Y5000000D02*
X51865000Y5000000D01*
X72275000Y82660000D02*
X82535000Y82660000D01*
X106075000Y47333138D02*
X106101168Y47335131D01*
X45609016Y7412216D02*
X45638669Y7455362D01*
X69043565Y47342313D02*
X69095471Y47335479D01*
X41215000Y7000000D02*
X41725000Y7000000D01*
X86588468Y79811428D02*
X86579529Y79861299D01*
X68220470Y39531299D02*
X68211531Y39481428D01*
X48405644Y40248958D02*
X48359605Y40227805D01*
X65275000Y47333138D02*
X65301168Y47335131D01*
X106485301Y47455654D02*
X106528964Y47481356D01*
X89392088Y80638148D02*
X89341181Y80625926D01*
X25088966Y80384793D02*
X25051372Y80418759D01*
X45058818Y7034075D02*
X45109016Y7048945D01*
X27508994Y47876011D02*
X27533975Y47830001D01*
X7898831Y7005131D02*
X7949350Y7001284D01*
X43059Y86950285D02*
X19214Y86855091D01*
X68890983Y80611056D02*
X68841632Y80593580D01*
X43059Y709716D02*
X76120Y617317D01*
X24758367Y7066421D02*
X24806736Y7086456D01*
X88930870Y80403144D02*
X88892894Y80367106D01*
X86598629Y7947665D02*
X86599999Y8000000D01*
X88621852Y79867912D02*
X88612312Y79816435D01*
X106544638Y7161331D02*
X106587784Y7190984D01*
X25051372Y80418759D02*
X25012105Y80450776D01*
X1000000Y87660000D02*
X901982Y87655185D01*
X68200000Y39330000D02*
X68200000Y8000000D01*
X7031922Y39580653D02*
X7020470Y39531299D01*
X106000000Y7000000D02*
X106052335Y7001371D01*
X45577145Y7370681D02*
X45609016Y7412216D01*
X47831922Y7749348D02*
X47845860Y7700637D01*
X88911033Y40054793D02*
X88875207Y40018967D01*
X85665000Y42330000D02*
X87600000Y42330000D01*
X28052694Y40267753D02*
X28005644Y40248958D01*
X89443565Y80647688D02*
X89392088Y80638148D01*
X65728964Y80508645D02*
X65685301Y80534347D01*
X48148627Y40088759D02*
X48111033Y40054793D01*
X27411531Y39481428D02*
X27405130Y39431169D01*
X25143143Y39999130D02*
X25107105Y40037106D01*
X27502195Y7559606D02*
X27525653Y7514699D01*
X86128964Y80508645D02*
X86085301Y80534347D01*
X27855361Y80498670D02*
X27812215Y80469017D01*
X7045860Y39629364D02*
X7031922Y39580653D01*
X89535000Y47332368D02*
X89535000Y45330000D01*
X48300000Y47463976D02*
X48346010Y47438995D01*
X27730870Y80403144D02*
X27692894Y80367106D01*
X89159605Y7102196D02*
X89205644Y7081043D01*
X61615000Y12660000D02*
X61615000Y7000000D01*
X66091005Y39783990D02*
X66066024Y39830000D01*
X107000000Y79660000D02*
X106998716Y79710650D01*
X31975000Y7000000D02*
X31975000Y12660000D01*
X66179529Y79861299D02*
X66168077Y79910653D01*
X45638669Y7455362D02*
X45666024Y7500001D01*
X7455361Y47491331D02*
X7500000Y47463976D01*
X66074346Y47844699D02*
X66097804Y47889606D01*
X65547305Y80597753D02*
X65499363Y80614140D01*
X68841632Y47396421D02*
X68890983Y47378945D01*
X68548627Y40088759D02*
X68511033Y40054793D01*
X7000000Y8000000D02*
X7001283Y7949351D01*
X65401298Y47350471D02*
X65450652Y47361923D01*
X68841632Y80593580D02*
X68793263Y80573545D01*
X24501168Y80654870D02*
X24450649Y80658717D01*
X25394521Y7895472D02*
X25398629Y7947665D01*
X25029319Y7222855D02*
X25069129Y7256857D01*
X88600000Y48330000D02*
X88601370Y48277665D01*
X27946010Y47438995D02*
X27993263Y47416456D01*
X89290983Y47378945D02*
X89341181Y47364075D01*
X106065000Y42330000D02*
X107000000Y42330000D01*
X66194521Y7895472D02*
X66198629Y7947665D01*
X106758758Y80311373D02*
X106724792Y80348967D01*
X104075000Y45330000D02*
X91535000Y45330000D01*
X106250652Y47361923D02*
X106299363Y47375861D01*
X44956434Y7012313D02*
X45007911Y7021853D01*
X66194869Y48228832D02*
X66198716Y48279351D01*
X66133579Y7641633D02*
X66151055Y7690984D01*
X48075207Y40018967D02*
X48041241Y39981373D01*
X28335000Y45330000D02*
X26400000Y45330000D01*
X48075207Y7311034D02*
X48111033Y7275208D01*
X85801298Y47350471D02*
X85850652Y47361923D01*
X89398701Y40309530D02*
X89349347Y40298078D01*
X86251372Y47571242D02*
X86288966Y47605208D01*
X45674346Y47844699D02*
X45697804Y47889606D01*
X51865000Y5000000D02*
X51865000Y7000000D01*
X48346010Y80551006D02*
X48300000Y80526025D01*
X86588468Y48178573D02*
X86594869Y48228832D01*
X47990983Y47742216D02*
X48022854Y47700681D01*
X7034074Y48071182D02*
X7048944Y48020984D01*
X89146010Y47438995D02*
X89193263Y47416456D01*
X45344638Y7161331D02*
X45387784Y7190984D01*
X86343143Y39999130D02*
X86307105Y40037106D01*
X85958367Y7066421D02*
X86006736Y7086456D01*
X28041632Y80593580D02*
X27993263Y80573545D01*
X24840394Y47432196D02*
X24885301Y47455654D01*
X65943143Y39999130D02*
X65907105Y40037106D01*
X7086455Y80066737D02*
X7066420Y80018368D01*
X68992088Y47351853D02*
X69043565Y47342313D01*
X113195090Y19215D02*
X113290284Y43060D01*
X7895471Y80654522D02*
X7843565Y80647688D01*
X106758758Y47678628D02*
X106790775Y47717895D01*
X68248944Y79969017D02*
X68234074Y79918819D01*
X47834074Y48071182D02*
X47848944Y48020984D01*
X118078Y87131397D02*
X76120Y87042684D01*
X89665000Y5000000D02*
X85525000Y5000000D01*
X8065000Y7000000D02*
X8065000Y5000000D01*
X50725000Y42330000D02*
X63265000Y42330000D01*
X27609224Y39942106D02*
X27579236Y39901269D01*
X7559605Y7102196D02*
X7605644Y7081043D01*
X68992088Y80638148D02*
X68941181Y80625926D01*
X66151055Y7690984D02*
X66165925Y7741182D01*
X86358758Y80311373D02*
X86324792Y80348967D01*
X50725000Y40330000D02*
X50725000Y42330000D01*
X113881921Y528604D02*
X113923879Y617317D01*
X7020470Y39531299D02*
X7011531Y39481428D01*
X66020763Y47758732D02*
X66048644Y47801036D01*
X93185000Y80660000D02*
X92675000Y80660000D01*
X66118957Y80054356D02*
X66097804Y80100395D01*
X48022854Y47700681D02*
X48056856Y47660871D01*
X68612215Y80469017D02*
X68570680Y80437146D01*
X27871035Y7151356D02*
X27914698Y7125654D01*
X86551055Y39639017D02*
X86533579Y39688368D01*
X68628731Y7179237D02*
X68671035Y7151356D01*
X85909016Y7048945D02*
X85958367Y7066421D01*
X25124792Y47641034D02*
X25158758Y47678628D01*
X226989Y365607D02*
X292893Y292894D01*
X106998629Y7947665D02*
X106999999Y8000000D01*
X48228731Y7179237D02*
X48271035Y7151356D01*
X7690983Y47378945D02*
X7741181Y47364075D01*
X85701168Y80654870D02*
X85650649Y80658717D01*
X25351055Y39639017D02*
X25333579Y39688368D01*
X66187687Y39486435D02*
X66178147Y39537912D01*
X45794521Y39434529D02*
X45787687Y39486435D01*
X106866024Y7500001D02*
X106891005Y7546011D01*
X25351055Y7690984D02*
X25365925Y7741182D01*
X24928964Y80508645D02*
X24885301Y80534347D01*
X41225000Y80660000D02*
X41225000Y75000000D01*
X106688966Y80384793D02*
X106651372Y80418759D01*
X88841241Y7348628D02*
X88875207Y7311034D01*
X24853989Y40221006D02*
X24806736Y40243545D01*
X24607911Y40308148D02*
X24556434Y40317688D01*
X106299363Y80614140D02*
X106250652Y80628078D01*
X106891005Y7546011D02*
X106913544Y7593264D01*
X47812312Y79816435D02*
X47805478Y79764529D01*
X71135000Y45330000D02*
X71135000Y47330001D01*
X106848644Y80188965D02*
X106820763Y80231269D01*
X118078Y528604D02*
X168530Y444430D01*
X86251372Y80418759D02*
X86212105Y80450776D01*
X106453989Y40221006D02*
X106406736Y40243545D01*
X47881042Y39724356D02*
X47862247Y39677306D01*
X7000000Y42330000D02*
X7925000Y42330000D01*
X7102195Y7559606D02*
X7125653Y7514699D01*
X292893Y87367107D02*
X226989Y87294394D01*
X106965925Y7741182D02*
X106978147Y7792089D01*
X66009016Y7412216D02*
X66038669Y7455362D01*
X68441241Y39981373D02*
X68409224Y39942106D01*
X25266024Y39830000D02*
X25238669Y39874639D01*
X25124792Y80348967D02*
X25088966Y80384793D01*
X27622854Y80289320D02*
X27590983Y80247785D01*
X106968077Y79910653D02*
X106954139Y79959364D01*
X25313544Y7593264D02*
X25333579Y7641633D01*
X44956434Y40317688D02*
X44904528Y40324522D01*
X106820763Y80231269D02*
X106790775Y80272106D01*
X68422854Y80289320D02*
X68390983Y80247785D01*
X7161330Y47785362D02*
X7190983Y47742216D01*
X86171268Y47509237D02*
X86212105Y47539225D01*
X25333579Y7641633D02*
X25351055Y7690984D01*
X106156434Y7012313D02*
X106156434Y7012313D01*
X72775000Y12660000D02*
X82015000Y12660000D01*
X68900636Y7045861D02*
X68949347Y7031923D01*
X25107105Y40037106D02*
X25069129Y40073144D01*
X45328964Y47481356D02*
X45371268Y47509237D01*
X68949347Y7031923D02*
X68998701Y7020471D01*
X25297804Y80100395D02*
X25274346Y80145302D01*
X65640394Y80557805D02*
X65594355Y80578958D01*
X42875000Y45330000D02*
X30335000Y45330000D01*
X89341181Y47364075D02*
X89392088Y47351853D01*
X65958758Y47678628D02*
X65990775Y47717895D01*
X68671035Y40178645D02*
X68628731Y40150764D01*
X68211531Y39481428D02*
X68205130Y39431169D01*
X7001370Y48277665D02*
X7005478Y48225472D01*
X88733975Y80160000D02*
X88708994Y80113990D01*
X106151427Y47341532D02*
X106151427Y47341532D01*
X89392088Y47351853D02*
X89443565Y47342313D01*
X89159605Y40227805D02*
X89114698Y40204347D01*
X27445860Y7700637D02*
X27462247Y7652695D01*
X89193263Y80573545D02*
X89146010Y80551006D01*
X7471035Y40178645D02*
X7428731Y40150764D01*
X88600000Y39330000D02*
X88600000Y8000000D01*
X7843565Y47342313D02*
X7895471Y47335479D01*
X48725000Y42330000D02*
X48725000Y40326863D01*
X25291005Y39783990D02*
X25266024Y39830000D01*
X47866420Y47971633D02*
X47886455Y47923264D01*
X27641241Y7348628D02*
X27675207Y7311034D01*
X22465000Y40330000D02*
X9925000Y40330000D01*
X86390775Y47717895D02*
X86420763Y47758732D01*
X86187784Y7190984D02*
X86229319Y7222855D01*
X88761330Y47785362D02*
X88790983Y47742216D01*
X25365925Y39588819D02*
X25351055Y39639017D01*
X48255361Y47491331D02*
X48300000Y47463976D01*
X27900000Y47463976D02*
X27946010Y47438995D01*
X106156434Y40317688D02*
X106104528Y40324522D01*
X28465000Y5000000D02*
X24325000Y5000000D01*
X27770680Y47552855D02*
X27812215Y47520984D01*
X106651372Y80418759D02*
X106612105Y80450776D01*
X44800000Y80660000D02*
X44735000Y80660000D01*
X25220763Y80231269D02*
X25190775Y80272106D01*
X24794355Y80578958D02*
X24747305Y80597753D01*
X28248572Y7011532D02*
X28298831Y7005131D01*
X106954139Y79959364D02*
X106937752Y80007306D01*
X89012215Y47520984D02*
X89055361Y47491331D01*
X25297804Y47889606D02*
X25318957Y47935645D01*
X24335000Y80660000D02*
X24335000Y82660000D01*
X25266024Y7500001D02*
X25291005Y7546011D01*
X45794869Y48228832D02*
X45798716Y48279351D01*
X45050652Y47361923D02*
X45099363Y47375861D01*
X86533579Y7641633D02*
X86551055Y7690984D01*
X113923879Y617317D02*
X113956940Y709716D01*
X28298831Y7005131D02*
X28349350Y7001284D01*
X45429319Y7222855D02*
X45469129Y7256857D01*
X106075000Y45330000D02*
X106075000Y47333138D01*
X47800000Y79660000D02*
X47800000Y48330000D01*
X88875207Y40018967D02*
X88841241Y39981373D01*
X45543143Y7330871D02*
X45577145Y7370681D01*
X25318957Y80054356D02*
X25297804Y80100395D01*
X25365925Y7741182D02*
X25378147Y7792089D01*
X27787894Y7209225D02*
X27828731Y7179237D01*
X65200000Y80660000D02*
X65135000Y80660000D01*
X45285301Y47455654D02*
X45328964Y47481356D01*
X72775000Y7000000D02*
X72775000Y12660000D01*
X68759605Y40227805D02*
X68714698Y40204347D01*
X68308994Y47876011D02*
X68333975Y47830001D01*
X48541181Y47364075D02*
X48592088Y47351853D01*
X89443565Y47342313D02*
X89495471Y47335479D01*
X69200000Y7000000D02*
X69265000Y7000000D01*
X26400000Y45330000D02*
X24475000Y45330000D01*
X7133975Y80160000D02*
X7108994Y80113990D01*
X88987894Y40120776D02*
X88948627Y40088759D01*
X106933579Y39688368D02*
X106913544Y39736737D01*
X45733579Y7641633D02*
X45751055Y7690984D01*
X61625000Y75000000D02*
X52385000Y75000000D01*
X82015000Y7000000D02*
X82015000Y7000000D01*
X24475000Y47333138D02*
X24501168Y47335131D01*
X21325000Y5000000D02*
X11065000Y5000000D01*
X168530Y444430D02*
X226989Y365607D01*
X86053989Y40221006D02*
X86006736Y40243545D01*
X68714698Y7125654D02*
X68759605Y7102196D01*
X89252694Y7062248D02*
X89300636Y7045861D01*
X106891005Y39783990D02*
X106866024Y39830000D01*
X68890983Y47378945D02*
X68941181Y47364075D01*
X28243565Y80647688D02*
X28243565Y80647688D01*
X88708994Y47876011D02*
X88733975Y47830001D01*
X47831922Y39580653D02*
X47820470Y39531299D01*
X86324792Y80348967D02*
X86288966Y80384793D01*
X86288966Y80384793D02*
X86251372Y80418759D01*
X45674346Y80145302D02*
X45648644Y80188965D01*
X45109016Y40281056D02*
X45058818Y40295926D01*
X102425000Y75000000D02*
X93185000Y75000000D01*
X28325000Y40326863D02*
X28298831Y40324870D01*
X69043565Y80647688D02*
X68992088Y80638148D01*
X69275000Y80660000D02*
X69200000Y80660000D01*
X86307105Y40037106D02*
X86269129Y40073144D01*
X45050652Y80628078D02*
X45001298Y80639530D01*
X89193263Y47416456D02*
X89241632Y47396421D01*
X24650652Y80628078D02*
X24601298Y80639530D01*
X50735000Y45330000D02*
X50735000Y47330001D01*
X85675000Y47333138D02*
X85701168Y47335131D01*
X7005478Y48225472D02*
X7012312Y48173566D01*
X86212105Y80450776D02*
X86171268Y80480764D01*
X89100000Y80526025D02*
X89055361Y80498670D01*
X106571268Y47509237D02*
X106612105Y47539225D01*
X7275207Y40018967D02*
X7241241Y39981373D01*
X113923879Y87042684D02*
X113881921Y87131397D01*
X27622854Y47700681D02*
X27656856Y47660871D01*
X86537752Y80007306D02*
X86518957Y80054356D01*
X66200000Y39330000D02*
X66198629Y39382336D01*
X45648644Y80188965D02*
X45620763Y80231269D01*
X68361330Y80204639D02*
X68333975Y80160000D01*
X27400000Y79660000D02*
X27400000Y48330000D01*
X86377145Y7370681D02*
X86409016Y7412216D01*
X107000000Y45330000D02*
X106075000Y45330000D01*
X47886455Y47923264D02*
X47908994Y47876011D01*
X65888966Y80384793D02*
X65851372Y80418759D01*
X48405644Y7081043D02*
X48452694Y7062248D01*
X65356434Y7012313D02*
X65407911Y7021853D01*
X85675000Y45330000D02*
X85675000Y47333138D01*
X44875000Y45330000D02*
X44875000Y47333138D01*
X47801370Y48277665D02*
X47805478Y48225472D01*
X106258818Y7034075D02*
X106309016Y7048945D01*
X28005644Y7081043D02*
X28052694Y7062248D01*
X68281042Y7605645D02*
X68302195Y7559606D01*
X41725000Y7000000D02*
X41725000Y5000000D01*
X7021852Y48122089D02*
X7034074Y48071182D01*
X106951055Y7690984D02*
X106965925Y7741182D01*
X106406736Y40243545D02*
X106358367Y40263580D01*
X113707106Y87367107D02*
X113634393Y87433011D01*
X62135000Y82660000D02*
X62135000Y80660000D01*
X86187784Y40139017D02*
X86144638Y40168670D01*
X72275000Y80660000D02*
X72275000Y82660000D01*
X45691005Y7546011D02*
X45713544Y7593264D01*
X65771268Y47509237D02*
X65812105Y47539225D01*
X27914698Y40204347D02*
X27871035Y40178645D01*
X89146010Y80551006D02*
X89100000Y80526025D01*
X7021852Y79867912D02*
X7012312Y79816435D01*
X66165925Y39588819D02*
X66151055Y39639017D01*
X72785000Y75000000D02*
X72785000Y80660000D01*
X68205478Y79764529D02*
X68201370Y79712336D01*
X27748627Y7241242D02*
X27787894Y7209225D01*
X68441241Y7348628D02*
X68475207Y7311034D01*
X65125000Y5000000D02*
X65125000Y7000000D01*
X25209016Y39917785D02*
X25177145Y39959320D01*
X66179529Y48128702D02*
X66188468Y48178573D01*
X65744638Y40168670D02*
X65699999Y40196025D01*
X86568077Y48079348D02*
X86579529Y48128702D01*
X106724792Y47641034D02*
X106758758Y47678628D01*
X85947305Y80597753D02*
X85899363Y80614140D01*
X7641632Y47396421D02*
X7690983Y47378945D01*
X7133975Y47830001D02*
X7161330Y47785362D01*
X48643565Y80647688D02*
X48592088Y80638148D01*
X5000000Y82660000D02*
X8075000Y82660000D01*
X83675000Y47330001D02*
X83675000Y47330001D01*
X68612215Y47520984D02*
X68655361Y47491331D01*
X88892894Y80367106D02*
X88856856Y80329130D01*
X24325000Y5000000D02*
X24325000Y7000000D01*
X109000000Y82660000D02*
X109000000Y45330000D01*
X66113544Y39736737D02*
X66091005Y39783990D01*
X106065000Y40327633D02*
X106065000Y42330000D01*
X88645860Y7700637D02*
X88662247Y7652695D01*
X48212215Y80469017D02*
X48170680Y80437146D01*
X65943143Y7330871D02*
X65977145Y7370681D01*
X45158367Y40263580D02*
X45109016Y40281056D01*
X65990775Y80272106D02*
X65958758Y80311373D01*
X86307105Y7292895D02*
X86343143Y7330871D01*
X86579529Y79861299D02*
X86568077Y79910653D01*
X24709016Y7048945D02*
X24758367Y7066421D01*
X45754139Y79959364D02*
X45737752Y80007306D01*
X48747664Y80658630D02*
X48695471Y80654522D01*
X106587784Y7190984D02*
X106629319Y7222855D01*
X66198716Y48279351D02*
X66200000Y48330000D01*
X85600000Y7000000D02*
X85652335Y7001371D01*
X27711033Y40054793D02*
X27675207Y40018967D01*
X25069129Y7256857D02*
X25107105Y7292895D01*
X72785000Y80660000D02*
X72785000Y80660000D01*
X7190983Y80247785D02*
X7161330Y80204639D01*
X7370680Y47552855D02*
X7412215Y47520984D01*
X89448572Y7011532D02*
X89498831Y7005131D01*
X76120Y87042684D02*
X43059Y86950285D01*
X7045860Y7700637D02*
X7062247Y7652695D01*
X106838669Y7455362D02*
X106866024Y7500001D01*
X65771268Y80480764D02*
X65728964Y80508645D01*
X31465000Y5000000D02*
X31465000Y7000000D01*
X68530870Y80403144D02*
X68492894Y80367106D01*
X89675000Y82660000D02*
X89675000Y80660000D01*
X25051372Y47571242D02*
X25088966Y47605208D01*
X106571268Y80480764D02*
X106528964Y80508645D01*
X86420763Y47758732D02*
X86448644Y47801036D01*
X88648944Y48020984D02*
X88666420Y47971633D01*
X528603Y87541922D02*
X444429Y87491470D01*
X91535000Y45330000D02*
X91535000Y47330001D01*
X68262247Y7652695D02*
X68281042Y7605645D01*
X72265000Y7000000D02*
X72775000Y7000000D01*
X25158758Y80311373D02*
X25124792Y80348967D01*
X27434074Y48071182D02*
X27448944Y48020984D01*
X66178147Y39537912D02*
X66165925Y39588819D01*
X66187687Y7843566D02*
X66194521Y7895472D01*
X88600000Y79660000D02*
X88600000Y48330000D01*
X106669129Y40073144D02*
X106629319Y40107146D01*
X27486455Y47923264D02*
X27508994Y47876011D01*
X31985000Y75000000D02*
X31985000Y80660000D01*
X65401298Y80639530D02*
X65351427Y80648469D01*
X27551355Y7471036D02*
X27579236Y7428732D01*
X42875000Y47330001D02*
X42875000Y47330001D01*
X86324792Y47641034D02*
X86358758Y47678628D01*
X65728964Y47481356D02*
X65771268Y47509237D01*
X86491005Y39783990D02*
X86466024Y39830000D01*
X86448644Y80188965D02*
X86420763Y80231269D01*
X7020470Y7798702D02*
X7031922Y7749348D01*
X106874346Y47844699D02*
X106897804Y47889606D01*
X7652694Y40267753D02*
X7605644Y40248958D01*
X106874346Y80145302D02*
X106848644Y80188965D01*
X7348627Y7241242D02*
X7387894Y7209225D01*
X7652694Y7062248D02*
X7700636Y7045861D01*
X68234074Y79918819D02*
X68221852Y79867912D01*
X113195090Y87640786D02*
X113098017Y87655185D01*
X45620763Y47758732D02*
X45648644Y47801036D01*
X66188468Y79811428D02*
X66179529Y79861299D01*
X102935000Y80660000D02*
X102425000Y80660000D01*
X102415000Y7000000D02*
X102415000Y7000000D01*
X89290983Y80611056D02*
X89241632Y80593580D01*
X68456856Y80329130D02*
X68422854Y80289320D01*
X86568077Y79910653D02*
X86554139Y79959364D01*
X7000000Y48330000D02*
X7001370Y48277665D01*
X45778147Y7792089D02*
X45787687Y7843566D01*
X47811531Y7848573D02*
X47820470Y7798702D01*
X27405478Y79764529D02*
X27401370Y79712336D01*
X82025000Y80660000D02*
X82025000Y75000000D01*
X65275000Y45330000D02*
X65275000Y47333138D01*
X68998701Y40309530D02*
X68949347Y40298078D01*
X106988468Y79811428D02*
X106979529Y79861299D01*
X7081042Y39724356D02*
X7062247Y39677306D01*
X25107105Y7292895D02*
X25143143Y7330871D01*
X65558367Y7066421D02*
X65606736Y7086456D01*
X27421852Y79867912D02*
X27412312Y79816435D01*
X27401283Y7949351D02*
X27405130Y7898832D01*
X41735000Y82660000D02*
X41735000Y80660000D01*
X47862247Y7652695D02*
X47881042Y7605645D01*
X7241241Y39981373D02*
X7209224Y39942106D01*
X28349350Y7001284D02*
X28400000Y7000000D01*
X7179236Y7428732D02*
X7209224Y7387895D01*
X68205130Y39431169D02*
X68201283Y39380650D01*
X68221852Y48122089D02*
X68234074Y48071182D01*
X106866024Y39830000D02*
X106838669Y39874639D01*
X106913544Y39736737D02*
X106891005Y39783990D01*
X65888966Y47605208D02*
X65924792Y47641034D01*
X65407911Y7021853D02*
X65458818Y7034075D01*
X89012215Y80469017D02*
X88970680Y80437146D01*
X106951055Y39639017D02*
X106933579Y39688368D01*
X68245860Y39629364D02*
X68231922Y39580653D01*
X63265000Y42330000D02*
X63265000Y42330000D01*
X27812215Y80469017D02*
X27770680Y80437146D01*
X106651372Y47571242D02*
X106688966Y47605208D01*
X88930870Y47586857D02*
X88970680Y47552855D01*
X52385000Y75000000D02*
X52385000Y80660000D01*
X48875000Y80660000D02*
X48800000Y80660000D01*
X114000000Y1000000D02*
X114000000Y86660000D01*
X47902195Y39770395D02*
X47881042Y39724356D01*
X24709016Y40281056D02*
X24658818Y40295926D01*
X68262247Y39677306D02*
X68245860Y39629364D01*
X51875000Y82660000D02*
X62135000Y82660000D01*
X45387784Y7190984D02*
X45429319Y7222855D01*
X113831469Y87215571D02*
X113773010Y87294394D01*
X27533975Y47830001D02*
X27561330Y47785362D01*
X106499999Y7133976D02*
X106544638Y7161331D01*
X113980785Y86855091D02*
X113980785Y86855091D01*
X28347664Y80658630D02*
X28295471Y80654522D01*
X68475207Y7311034D02*
X68511033Y7275208D01*
X24840394Y80557805D02*
X24794355Y80578958D01*
X45206736Y40243545D02*
X45158367Y40263580D01*
X65812105Y80450776D02*
X65771268Y80480764D01*
X86497804Y80100395D02*
X86474346Y80145302D01*
X106528964Y80508645D02*
X106485301Y80534347D01*
X65265000Y42330000D02*
X67200000Y42330000D01*
X48490983Y47378945D02*
X48541181Y47364075D01*
X65547305Y47392248D02*
X65594355Y47411043D01*
X88822854Y47700681D02*
X88856856Y47660871D01*
X27431922Y7749348D02*
X27445860Y7700637D01*
X47961330Y47785362D02*
X47990983Y47742216D01*
X7700636Y7045861D02*
X7749347Y7031923D01*
X25379529Y79861299D02*
X25368077Y79910653D01*
X30325000Y42330000D02*
X30325000Y42330000D01*
X68231922Y7749348D02*
X68245860Y7700637D01*
X27656856Y80329130D02*
X27622854Y80289320D01*
X7348627Y40088759D02*
X7311033Y40054793D01*
X45328964Y80508645D02*
X45285301Y80534347D01*
X66168077Y48079348D02*
X66179529Y48128702D01*
X68200000Y8000000D02*
X68201283Y7949351D01*
X444429Y87491470D02*
X365606Y87433011D01*
X88948627Y40088759D02*
X88911033Y40054793D01*
X48643565Y80647688D02*
X48643565Y80647688D01*
X11065000Y5000000D02*
X11065000Y7000000D01*
X27914698Y7125654D02*
X27959605Y7102196D01*
X24885301Y80534347D02*
X24840394Y80557805D01*
X25012105Y47539225D02*
X25051372Y47571242D01*
X7370680Y80437146D02*
X7330870Y80403144D01*
X68361330Y47785362D02*
X68390983Y47742216D01*
X109000000Y42330000D02*
X109000000Y5000000D01*
X0Y86660000D02*
X0Y1000000D01*
X28325000Y42330000D02*
X28325000Y40326863D01*
X41735000Y80660000D02*
X41225000Y80660000D01*
X7001283Y7949351D02*
X7005130Y7898832D01*
X68200000Y48330000D02*
X68201370Y48277665D01*
X89675000Y80660000D02*
X89600000Y80660000D01*
X48393263Y47416456D02*
X48441632Y47396421D01*
X65499363Y80614140D02*
X65450652Y80628078D01*
X106979529Y48128702D02*
X106988468Y48178573D01*
X106101168Y47335131D02*
X106151427Y47341532D01*
X45524792Y47641034D02*
X45558758Y47678628D01*
X45451372Y47571242D02*
X45488966Y47605208D01*
X71135000Y47330001D02*
X83675000Y47330001D01*
X86600000Y39330000D02*
X86598629Y39382336D01*
X25378147Y39537912D02*
X25365925Y39588819D01*
X27993263Y80573545D02*
X27946010Y80551006D01*
X48111033Y40054793D02*
X48075207Y40018967D01*
X47845860Y7700637D02*
X47862247Y7652695D01*
X89300636Y7045861D02*
X89349347Y7031923D01*
X48359605Y7102196D02*
X48405644Y7081043D01*
X106440394Y47432196D02*
X106485301Y47455654D01*
X45737752Y80007306D02*
X45718957Y80054356D01*
X68700000Y80526025D02*
X68655361Y80498670D01*
X47805478Y48225472D02*
X47812312Y48173566D01*
X63275000Y47330001D02*
X63275000Y45330000D01*
X88605130Y7898832D02*
X88611531Y7848573D01*
X44951427Y47341532D02*
X45001298Y47350471D01*
X65606736Y40243545D02*
X65558367Y40263580D01*
X86269129Y40073144D02*
X86229319Y40107146D01*
X65653989Y40221006D02*
X65606736Y40243545D01*
X45609016Y39917785D02*
X45577145Y39959320D01*
X68671035Y7151356D02*
X68714698Y7125654D01*
X45648644Y47801036D02*
X45674346Y47844699D01*
X69125000Y40326863D02*
X69098831Y40324870D01*
X66113544Y7593264D02*
X66133579Y7641633D01*
X69200000Y80660000D02*
X69147664Y80658630D01*
X7500000Y47463976D02*
X7546010Y47438995D01*
X48056856Y47660871D02*
X48092894Y47622895D01*
X27609224Y7387895D02*
X27641241Y7348628D01*
X106820763Y47758732D02*
X106848644Y47801036D01*
X68325653Y7514699D02*
X68351355Y7471036D01*
X7048944Y79969017D02*
X7034074Y79918819D01*
X86598716Y48279351D02*
X86600000Y48330000D01*
X27411531Y7848573D02*
X27420470Y7798702D01*
X92675000Y80660000D02*
X92675000Y82660000D01*
X68308994Y80113990D02*
X68286455Y80066737D01*
X66194521Y39434529D02*
X66187687Y39486435D01*
X85525000Y7000000D02*
X85600000Y7000000D01*
X45299999Y7133976D02*
X45344638Y7161331D01*
X7935000Y47332368D02*
X7935000Y45330000D01*
X7898831Y40324870D02*
X7848572Y40318469D01*
X44904528Y40324522D02*
X44865000Y40327633D01*
X45798629Y7947665D02*
X45799999Y8000000D01*
X86377145Y39959320D02*
X86343143Y39999130D01*
X88948627Y7241242D02*
X88987894Y7209225D01*
X11575000Y12660000D02*
X20815000Y12660000D01*
X88681042Y7605645D02*
X88702195Y7559606D01*
X27412312Y48173566D02*
X27421852Y48122089D01*
X25398629Y39382336D02*
X25394521Y39434529D01*
X88601283Y39380650D02*
X88600000Y39330000D01*
X45638669Y39874639D02*
X45609016Y39917785D01*
X68941181Y80625926D02*
X68890983Y80611056D01*
X88970680Y47552855D02*
X89012215Y47520984D01*
X48695471Y80654522D02*
X48643565Y80647688D01*
X24747305Y80597753D02*
X24699363Y80614140D01*
X27405130Y7898832D02*
X27411531Y7848573D01*
X7209224Y39942106D02*
X7179236Y39901269D01*
X86491005Y7546011D02*
X86513544Y7593264D01*
X68655361Y47491331D02*
X68700000Y47463976D01*
X106156434Y7012313D02*
X106207911Y7021853D01*
X85947305Y47392248D02*
X85994355Y47411043D01*
X68746010Y80551006D02*
X68700000Y80526025D01*
X45158367Y7066421D02*
X45206736Y7086456D01*
X27692894Y80367106D02*
X27656856Y80329130D01*
X113707106Y292894D02*
X113773010Y365607D01*
X106358367Y7066421D02*
X106406736Y7086456D01*
X82025000Y75000000D02*
X72785000Y75000000D01*
X106394355Y80578958D02*
X106347305Y80597753D01*
X66066024Y7500001D02*
X66091005Y7546011D01*
X86594869Y48228832D02*
X86598716Y48279351D01*
X9925000Y42330000D02*
X22465000Y42330000D01*
X68530870Y47586857D02*
X68570680Y47552855D01*
X72785000Y80660000D02*
X72275000Y80660000D01*
X47801283Y7949351D02*
X47805130Y7898832D01*
X28041632Y47396421D02*
X28090983Y47378945D01*
X65977145Y7370681D02*
X66009016Y7412216D01*
X45577145Y39959320D02*
X45543143Y39999130D01*
X1000000Y0D02*
X113000000Y0D01*
X44956434Y7012313D02*
X44956434Y7012313D01*
X68231922Y39580653D02*
X68220470Y39531299D01*
X106406736Y7086456D02*
X106453989Y7108995D01*
X7514698Y7125654D02*
X7559605Y7102196D01*
X27959605Y40227805D02*
X27914698Y40204347D01*
X85535000Y82660000D02*
X89675000Y82660000D01*
X68793263Y80573545D02*
X68746010Y80551006D01*
X68212312Y79816435D02*
X68205478Y79764529D01*
X7031922Y7749348D02*
X7045860Y7700637D01*
X106104528Y40324522D02*
X106065000Y40327633D01*
X104065000Y40330000D02*
X91525000Y40330000D01*
X7798701Y40309530D02*
X7749347Y40298078D01*
X65907105Y7292895D02*
X65943143Y7330871D01*
X89349347Y7031923D02*
X89398701Y7020471D01*
X7256856Y47660871D02*
X7292894Y47622895D01*
X7086455Y47923264D02*
X7108994Y47876011D01*
X85899363Y80614140D02*
X85850652Y80628078D01*
X7792088Y80638148D02*
X7741181Y80625926D01*
X106838669Y39874639D02*
X106809016Y39917785D01*
X92675000Y82660000D02*
X102935000Y82660000D01*
X25400000Y48330000D02*
X25400000Y79660000D01*
X11575000Y7000000D02*
X11575000Y12660000D01*
X20815000Y7000000D02*
X20815000Y7000000D01*
X45058818Y40295926D02*
X45007911Y40308148D01*
X82535000Y82660000D02*
X82535000Y80660000D01*
X113956940Y86950285D02*
X113923879Y87042684D01*
X66198629Y7947665D02*
X66199999Y8000000D01*
X66137752Y80007306D02*
X66118957Y80054356D01*
X7605644Y7081043D02*
X7652694Y7062248D01*
X89600000Y7000000D02*
X89665000Y7000000D01*
X45751055Y7690984D02*
X45765925Y7741182D01*
X86448644Y47801036D02*
X86474346Y47844699D01*
X68379236Y7428732D02*
X68409224Y7387895D01*
X113980785Y804910D02*
X113995184Y901983D01*
X30335000Y45330000D02*
X30335000Y47330001D01*
X28475000Y82660000D02*
X28475000Y80660000D01*
X45787687Y39486435D02*
X45778147Y39537912D01*
X67200000Y45330000D02*
X65275000Y45330000D01*
X106918957Y80054356D02*
X106897804Y80100395D01*
X68409224Y7387895D02*
X68441241Y7348628D01*
X86343143Y7330871D02*
X86377145Y7370681D01*
X47866420Y80018368D02*
X47848944Y79969017D01*
X47812312Y48173566D02*
X47821852Y48122089D01*
X61625000Y80660000D02*
X61625000Y75000000D01*
X7593263Y47416456D02*
X7641632Y47396421D01*
X27401370Y79712336D02*
X27400000Y79660000D01*
X24987784Y40139017D02*
X24944638Y40168670D01*
X106250652Y80628078D02*
X106201298Y80639530D01*
X27445860Y39629364D02*
X27431922Y39580653D01*
X45718957Y80054356D02*
X45697804Y80100395D01*
X106897804Y47889606D02*
X106918957Y47935645D01*
X31475000Y82660000D02*
X41735000Y82660000D01*
X68325653Y39815302D02*
X68302195Y39770395D01*
X20825000Y80660000D02*
X20825000Y75000000D01*
X48800000Y80660000D02*
X48747664Y80658630D01*
X11075000Y80660000D02*
X11075000Y82660000D01*
X66020763Y80231269D02*
X65990775Y80272106D01*
X61615000Y7000000D02*
X62125000Y7000000D01*
X7275207Y7311034D02*
X7311033Y7275208D01*
X51875000Y80660000D02*
X51875000Y82660000D01*
X106790775Y80272106D02*
X106758758Y80311373D01*
X9935000Y47330001D02*
X22475000Y47330001D01*
X69149350Y7001284D02*
X69200000Y7000000D01*
X106485301Y80534347D02*
X106440394Y80557805D01*
X86594869Y79761169D02*
X86588468Y79811428D01*
X7066420Y47971633D02*
X7086455Y47923264D01*
X68220470Y7798702D02*
X68231922Y7749348D01*
X901982Y87655185D02*
X804909Y87640786D01*
X88970680Y80437146D02*
X88930870Y80403144D01*
X85756434Y40317688D02*
X85704528Y40324522D01*
X7412215Y47520984D02*
X7455361Y47491331D01*
X11585000Y80660000D02*
X11585000Y80660000D01*
X106000000Y80660000D02*
X105935000Y80660000D01*
X47961330Y80204639D02*
X47933975Y80160000D01*
X25387687Y7843566D02*
X25394521Y7895472D01*
X86537752Y47982695D02*
X86554139Y48030637D01*
X69265000Y5000000D02*
X65125000Y5000000D01*
X27812215Y47520984D02*
X27855361Y47491331D01*
X106207911Y7021853D02*
X106258818Y7034075D01*
X68714698Y40204347D02*
X68671035Y40178645D01*
X47951355Y7471036D02*
X47979236Y7428732D01*
X106629319Y40107146D02*
X106587784Y40139017D01*
X65699999Y7133976D02*
X65744638Y7161331D01*
X9925000Y40330000D02*
X9925000Y42330000D01*
X113000000Y87660000D02*
X1000000Y87660000D01*
X63265000Y42330000D02*
X63265000Y40330000D01*
X85535000Y80660000D02*
X85535000Y82660000D01*
X68998701Y7020471D02*
X69048572Y7011532D01*
X89398701Y7020471D02*
X89448572Y7011532D01*
X89448572Y40318469D02*
X89398701Y40309530D01*
X7700636Y40284140D02*
X7652694Y40267753D01*
X86099999Y7133976D02*
X86144638Y7161331D01*
X106707105Y7292895D02*
X106743143Y7330871D01*
X48598701Y40309530D02*
X48549347Y40298078D01*
X85909016Y40281056D02*
X85858818Y40295926D01*
X25398629Y7947665D02*
X25399999Y8000000D01*
X106848644Y47801036D02*
X106874346Y47844699D01*
X28090983Y47378945D02*
X28141181Y47364075D01*
X83665000Y40330000D02*
X71125000Y40330000D01*
X22475000Y47330001D02*
X22475000Y47330001D01*
X7311033Y40054793D02*
X7275207Y40018967D01*
X24699363Y80614140D02*
X24650652Y80628078D01*
X86171268Y80480764D02*
X86128964Y80508645D01*
X45469129Y7256857D02*
X45507105Y7292895D01*
X86229319Y40107146D02*
X86187784Y40139017D01*
X48359605Y40227805D02*
X48314698Y40204347D01*
X48022854Y80289320D02*
X47990983Y80247785D01*
X24475000Y45330000D02*
X24475000Y47333138D01*
X86006736Y40243545D02*
X85958367Y40263580D01*
X8065000Y5000000D02*
X5000000Y5000000D01*
X27656856Y47660871D02*
X27692894Y47622895D01*
X66194869Y79761169D02*
X66188468Y79811428D01*
X7514698Y40204347D02*
X7471035Y40178645D01*
X85994355Y80578958D02*
X85947305Y80597753D01*
X68655361Y80498670D02*
X68612215Y80469017D01*
X106453989Y7108995D02*
X106499999Y7133976D01*
X68570680Y47552855D02*
X68612215Y47520984D01*
X47908994Y80113990D02*
X47886455Y80066737D01*
X106937752Y47982695D02*
X106954139Y48030637D01*
X106669129Y7256857D02*
X106707105Y7292895D01*
X45768077Y79910653D02*
X45754139Y79959364D01*
X45524792Y80348967D02*
X45488966Y80384793D01*
X106309016Y40281056D02*
X106258818Y40295926D01*
X106918957Y47935645D02*
X106937752Y47982695D01*
X45800000Y79660000D02*
X45798716Y79710650D01*
X24747305Y47392248D02*
X24794355Y47411043D01*
X89241632Y80593580D02*
X89193263Y80573545D01*
X48228731Y40150764D02*
X48187894Y40120776D01*
X28335000Y47332368D02*
X28335000Y45330000D01*
X113995184Y901983D02*
X114000000Y1000000D01*
X7005130Y39431169D02*
X7001283Y39380650D01*
X8000000Y80660000D02*
X7947664Y80658630D01*
X24551427Y47341532D02*
X24601298Y47350471D01*
X47834074Y79918819D02*
X47821852Y79867912D01*
X7455361Y80498670D02*
X7412215Y80469017D01*
X69265000Y7000000D02*
X69265000Y5000000D01*
X901982Y4816D02*
X1000000Y0D01*
X106707105Y40037106D02*
X106669129Y40073144D01*
X68351355Y39858965D02*
X68325653Y39815302D01*
X24556434Y7012313D02*
X24607911Y7021853D01*
X27579236Y39901269D02*
X27551355Y39858965D01*
X27828731Y7179237D02*
X27871035Y7151356D01*
X61615000Y7000000D02*
X61615000Y7000000D01*
X21325000Y7000000D02*
X21325000Y5000000D01*
X27590983Y80247785D02*
X27561330Y80204639D01*
X28149347Y7031923D02*
X28198701Y7020471D01*
X44901168Y80654870D02*
X44850649Y80658717D01*
X47925653Y39815302D02*
X47902195Y39770395D01*
X83675000Y45330000D02*
X71135000Y45330000D01*
X27502195Y39770395D02*
X27481042Y39724356D01*
X86099999Y40196025D02*
X86053989Y40221006D01*
X106743143Y39999130D02*
X106707105Y40037106D01*
X106777145Y7370681D02*
X106809016Y7412216D01*
X7209224Y7387895D02*
X7241241Y7348628D01*
X48452694Y7062248D02*
X48500636Y7045861D01*
X45240394Y47432196D02*
X45285301Y47455654D01*
X68805644Y7081043D02*
X68852694Y7062248D01*
X7949350Y7001284D02*
X8000000Y7000000D01*
X71125000Y42330000D02*
X83665000Y42330000D01*
X48092894Y47622895D02*
X48130870Y47586857D01*
X45007911Y40308148D02*
X44956434Y40317688D01*
X85650649Y80658717D02*
X85600000Y80660000D01*
X7749347Y7031923D02*
X7798701Y7020471D01*
X7412215Y80469017D02*
X7370680Y80437146D01*
X91525000Y42330000D02*
X104065000Y42330000D01*
X66133579Y39688368D02*
X66113544Y39736737D01*
X7011531Y39481428D02*
X7005130Y39431169D01*
X65685301Y80534347D02*
X65640394Y80557805D01*
X25143143Y7330871D02*
X25177145Y7370681D01*
X28198701Y40309530D02*
X28149347Y40298078D01*
X365606Y226990D02*
X444429Y168531D01*
X72265000Y5000000D02*
X72265000Y7000000D01*
X85751427Y47341532D02*
X85801298Y47350471D01*
X48698831Y40324870D02*
X48648572Y40318469D01*
X89535000Y45330000D02*
X87600000Y45330000D01*
X47811531Y39481428D02*
X47805130Y39431169D01*
X24928964Y47481356D02*
X24971268Y47509237D01*
X113980785Y86855091D02*
X113956940Y86950285D01*
X86144638Y40168670D02*
X86099999Y40196025D01*
X7034074Y79918819D02*
X7021852Y79867912D01*
X25190775Y80272106D02*
X25158758Y80311373D01*
X48130870Y47586857D02*
X48170680Y47552855D01*
X68205130Y7898832D02*
X68211531Y7848573D01*
X85751427Y80648469D02*
X85701168Y80654870D01*
X86474346Y80145302D02*
X86448644Y80188965D01*
X7471035Y7151356D02*
X7514698Y7125654D01*
X86053989Y7108995D02*
X86099999Y7133976D01*
X65829319Y40107146D02*
X65787784Y40139017D01*
X113290284Y87616941D02*
X113195090Y87640786D01*
X104075000Y47330001D02*
X104075000Y47330001D01*
X88856856Y80329130D02*
X88822854Y80289320D01*
X45109016Y7048945D02*
X45158367Y7066421D01*
X86229319Y7222855D02*
X86269129Y7256857D01*
X68248944Y48020984D02*
X68266420Y47971633D01*
X804909Y19215D02*
X901982Y4816D01*
X28475000Y80660000D02*
X28400000Y80660000D01*
X88702195Y7559606D02*
X88725653Y7514699D01*
X7000000Y45330000D02*
X5000000Y45330000D01*
X25378147Y7792089D02*
X25387687Y7843566D01*
X85525000Y5000000D02*
X85525000Y7000000D01*
X68746010Y47438995D02*
X68793263Y47416456D01*
X45666024Y7500001D02*
X45691005Y7546011D01*
X47805130Y39431169D02*
X47801283Y39380650D01*
X68511033Y40054793D02*
X68475207Y40018967D01*
X48865000Y7000000D02*
X48865000Y5000000D01*
X42875000Y47330001D02*
X42875000Y45330000D01*
X27551355Y39858965D02*
X27525653Y39815302D01*
X106978147Y39537912D02*
X106965925Y39588819D01*
X27579236Y7428732D02*
X27609224Y7387895D01*
X47933975Y80160000D02*
X47908994Y80113990D01*
X86212105Y47539225D02*
X86251372Y47571242D01*
X11585000Y75000000D02*
X11585000Y80660000D01*
X48041241Y39981373D02*
X48009224Y39942106D01*
X106394355Y47411043D02*
X106440394Y47432196D01*
X65509016Y40281056D02*
X65458818Y40295926D01*
X27466420Y47971633D02*
X27486455Y47923264D01*
X27692894Y47622895D02*
X27730870Y47586857D01*
X68941181Y47364075D02*
X68992088Y47351853D01*
X7792088Y47351853D02*
X7843565Y47342313D01*
X27401283Y39380650D02*
X27400000Y39330000D01*
X7012312Y48173566D02*
X7021852Y48122089D01*
X113634393Y226990D02*
X113707106Y292894D01*
X86565925Y7741182D02*
X86578147Y7792089D01*
X26400000Y42330000D02*
X28325000Y42330000D01*
X27525653Y7514699D02*
X27551355Y7471036D01*
X105925000Y7000000D02*
X106000000Y7000000D01*
X88790983Y80247785D02*
X88761330Y80204639D01*
X44865000Y42330000D02*
X46800000Y42330000D01*
X69095471Y80654522D02*
X69043565Y80647688D01*
X226989Y87294394D02*
X168530Y87215571D01*
X4815Y901983D02*
X19214Y804910D01*
X48255361Y80498670D02*
X48212215Y80469017D01*
X107000000Y48330000D02*
X107000000Y79660000D01*
X65829319Y7222855D02*
X65869129Y7256857D01*
X24465000Y40327633D02*
X24465000Y42330000D01*
X89495471Y80654522D02*
X89443565Y80647688D01*
X67200000Y42330000D02*
X69125000Y42330000D01*
X86587687Y7843566D02*
X86594521Y7895472D01*
X7292894Y80367106D02*
X7256856Y80329130D01*
X25337752Y47982695D02*
X25354139Y48030637D01*
X65787784Y7190984D02*
X65829319Y7222855D01*
X45299999Y40196025D02*
X45253989Y40221006D01*
X88708994Y80113990D02*
X88686455Y80066737D01*
X66200000Y79660000D02*
X66198716Y79710650D01*
X365606Y87433011D02*
X292893Y87367107D01*
X104075000Y47330001D02*
X104075000Y45330000D01*
X93175000Y12660000D02*
X102415000Y12660000D01*
X25238669Y7455362D02*
X25266024Y7500001D01*
X292893Y292894D02*
X365606Y226990D01*
X28192088Y47351853D02*
X28243565Y47342313D01*
X27711033Y7275208D02*
X27748627Y7241242D01*
X45666024Y39830000D02*
X45638669Y39874639D01*
X68333975Y47830001D02*
X68361330Y47785362D01*
X82525000Y5000000D02*
X72265000Y5000000D01*
X20815000Y12660000D02*
X20815000Y7000000D01*
X65356434Y7012313D02*
X65356434Y7012313D01*
X102415000Y12660000D02*
X102415000Y7000000D01*
X47862247Y39677306D02*
X47845860Y39629364D01*
X48648572Y40318469D02*
X48598701Y40309530D01*
X68852694Y7062248D02*
X68900636Y7045861D01*
X7102195Y39770395D02*
X7081042Y39724356D01*
X106151427Y47341532D02*
X106201298Y47350471D01*
X48170680Y80437146D02*
X48130870Y80403144D01*
X86085301Y47455654D02*
X86128964Y47481356D01*
X27448944Y48020984D02*
X27466420Y47971633D01*
X52385000Y80660000D02*
X52385000Y80660000D01*
X106988468Y48178573D02*
X106994869Y48228832D01*
X65977145Y39959320D02*
X65943143Y39999130D01*
X85701168Y47335131D02*
X85751427Y47341532D01*
X25012105Y80450776D02*
X24971268Y80480764D01*
X68492894Y47622895D02*
X68530870Y47586857D01*
X68286455Y80066737D02*
X68266420Y80018368D01*
X86409016Y39917785D02*
X86377145Y39959320D01*
X83665000Y40330000D02*
X83665000Y40330000D01*
X45765925Y7741182D02*
X45778147Y7792089D01*
X89525000Y40326863D02*
X89498831Y40324870D01*
X68700000Y47463976D02*
X68746010Y47438995D01*
X88987894Y7209225D02*
X89028731Y7179237D01*
X106201298Y47350471D02*
X106250652Y47361923D01*
X86518957Y80054356D02*
X86497804Y80100395D01*
X106998716Y79710650D02*
X106994869Y79761169D01*
X89443565Y80647688D02*
X89443565Y80647688D01*
X68234074Y48071182D02*
X68248944Y48020984D01*
X91525000Y40330000D02*
X91525000Y40330000D01*
X0Y1000000D02*
X4815Y901983D01*
X5000000Y42330000D02*
X7000000Y42330000D01*
X68245860Y7700637D02*
X68262247Y7652695D01*
X47821852Y48122089D02*
X47834074Y48071182D01*
X66188468Y48178573D02*
X66194869Y48228832D01*
X45765925Y39588819D02*
X45751055Y39639017D01*
X85807911Y7021853D02*
X85858818Y7034075D01*
X89205644Y7081043D02*
X89252694Y7062248D01*
X7311033Y7275208D02*
X7348627Y7241242D01*
X45194355Y47411043D02*
X45240394Y47432196D01*
X7559605Y40227805D02*
X7514698Y40204347D01*
X45798629Y39382336D02*
X45794521Y39434529D01*
X92665000Y5000000D02*
X92665000Y7000000D01*
X45240394Y80557805D02*
X45194355Y80578958D01*
X88875207Y7311034D02*
X88911033Y7275208D01*
X51865000Y7000000D02*
X52375000Y7000000D01*
X88911033Y7275208D02*
X88948627Y7241242D01*
X25388468Y79811428D02*
X25379529Y79861299D01*
X20815000Y7000000D02*
X21325000Y7000000D01*
X7925000Y42330000D02*
X7925000Y40326863D01*
X105935000Y80660000D02*
X105935000Y82660000D01*
X48441632Y80593580D02*
X48393263Y80573545D01*
X25400000Y79660000D02*
X25398716Y79710650D01*
X25088966Y47605208D02*
X25124792Y47641034D01*
X20825000Y75000000D02*
X11585000Y75000000D01*
X45713544Y7593264D02*
X45733579Y7641633D01*
X47800000Y8000000D02*
X47801283Y7949351D01*
X68201283Y39380650D02*
X68200000Y39330000D01*
X89071035Y7151356D02*
X89114698Y7125654D01*
X65744638Y7161331D02*
X65787784Y7190984D01*
X28243565Y80647688D02*
X28192088Y80638148D01*
X113634393Y87433011D02*
X113555570Y87491470D01*
X28243565Y47342313D02*
X28295471Y47335479D01*
X25368077Y48079348D02*
X25379529Y48128702D01*
X86085301Y80534347D02*
X86040394Y80557805D01*
X45371268Y47509237D02*
X45412105Y47539225D01*
X68422854Y47700681D02*
X68456856Y47660871D01*
X86594521Y39434529D02*
X86587687Y39486435D01*
X48314698Y7125654D02*
X48359605Y7102196D01*
X24504528Y40324522D02*
X24465000Y40327633D01*
X27412312Y79816435D02*
X27405478Y79764529D01*
X88634074Y79918819D02*
X88621852Y79867912D01*
X106101168Y80654870D02*
X106050649Y80658717D01*
X45387784Y40139017D02*
X45344638Y40168670D01*
X21335000Y80660000D02*
X20825000Y80660000D01*
X66178147Y7792089D02*
X66187687Y7843566D01*
X48212215Y47520984D02*
X48255361Y47491331D01*
X27561330Y47785362D02*
X27590983Y47742216D01*
X71125000Y40330000D02*
X71125000Y42330000D01*
X91535000Y47330001D02*
X104075000Y47330001D01*
X25318957Y47935645D02*
X25337752Y47982695D01*
X45768077Y48079348D02*
X45779529Y48128702D01*
X28400000Y80660000D02*
X28347664Y80658630D01*
X88751355Y7471036D02*
X88779236Y7428732D01*
X48698831Y7005131D02*
X48749350Y7001284D01*
X45147305Y47392248D02*
X45194355Y47411043D01*
X11065000Y7000000D02*
X11575000Y7000000D01*
X65265000Y40327633D02*
X65265000Y42330000D01*
X48592088Y47351853D02*
X48643565Y47342313D01*
X44800000Y7000000D02*
X44852335Y7001371D01*
X86565925Y39588819D02*
X86551055Y39639017D01*
X52375000Y7000000D02*
X52375000Y12660000D01*
X7011531Y7848573D02*
X7020470Y7798702D01*
X444429Y168531D02*
X528603Y118079D01*
X25248644Y47801036D02*
X25274346Y47844699D01*
X65594355Y80578958D02*
X65547305Y80597753D01*
X86600000Y48330000D02*
X86600000Y79660000D01*
X85858818Y7034075D02*
X85909016Y7048945D01*
X24853989Y7108995D02*
X24899999Y7133976D01*
X88681042Y39724356D02*
X88662247Y39677306D01*
X88612312Y79816435D02*
X88605478Y79764529D01*
X45412105Y47539225D02*
X45451372Y47571242D01*
X44875000Y47333138D02*
X44901168Y47335131D01*
X7001283Y39380650D02*
X7000000Y39330000D01*
X65135000Y82660000D02*
X69275000Y82660000D01*
X45429319Y40107146D02*
X45387784Y40139017D01*
X48170680Y47552855D02*
X48212215Y47520984D01*
X24806736Y40243545D02*
X24758367Y40263580D01*
X7179236Y39901269D02*
X7151355Y39858965D01*
X7062247Y7652695D02*
X7081042Y7605645D01*
X804909Y87640786D02*
X709715Y87616941D01*
X47908994Y47876011D02*
X47933975Y47830001D01*
X86598629Y39382336D02*
X86594521Y39434529D01*
X106998629Y39382336D02*
X106994521Y39434529D01*
X45800000Y48330000D02*
X45800000Y79660000D01*
X7161330Y80204639D02*
X7133975Y80160000D01*
X617316Y76121D02*
X709715Y43060D01*
X106994869Y79761169D02*
X106988468Y79811428D01*
X7546010Y80551006D02*
X7500000Y80526025D01*
X66048644Y80188965D02*
X66020763Y80231269D01*
X88892894Y47622895D02*
X88930870Y47586857D01*
X45001298Y80639530D02*
X44951427Y80648469D01*
X7690983Y80611056D02*
X7641632Y80593580D01*
X102925000Y5000000D02*
X92665000Y5000000D01*
X24944638Y40168670D02*
X24899999Y40196025D01*
X88779236Y7428732D02*
X88809224Y7387895D01*
X31475000Y80660000D02*
X31475000Y82660000D01*
X19214Y86855091D02*
X4815Y86758018D01*
X106358367Y40263580D02*
X106309016Y40281056D01*
X45099363Y80614140D02*
X45050652Y80628078D01*
X89055361Y47491331D02*
X89100000Y47463976D01*
X27770680Y80437146D02*
X27730870Y80403144D01*
X47805130Y7898832D02*
X47811531Y7848573D01*
X7947664Y80658630D02*
X7895471Y80654522D01*
X7222854Y47700681D02*
X7256856Y47660871D01*
X24325000Y7000000D02*
X24400000Y7000000D01*
X86497804Y47889606D02*
X86518957Y47935645D01*
X106258818Y40295926D02*
X106207911Y40308148D01*
X88612312Y48173566D02*
X88621852Y48122089D01*
X65907105Y40037106D02*
X65869129Y40073144D01*
X28295471Y80654522D02*
X28243565Y80647688D01*
X85899363Y47375861D02*
X85947305Y47392248D01*
X48735000Y47332368D02*
X48735000Y45330000D01*
X45788468Y48178573D02*
X45794869Y48228832D01*
X113471396Y87541922D02*
X113382683Y87583880D01*
X48500636Y40284140D02*
X48452694Y40267753D01*
X7428731Y7179237D02*
X7471035Y7151356D01*
X66074346Y80145302D02*
X66048644Y80188965D01*
X65958758Y80311373D02*
X65924792Y80348967D01*
X24658818Y40295926D02*
X24607911Y40308148D01*
X68587894Y7209225D02*
X68628731Y7179237D01*
X63275000Y47330001D02*
X63275000Y47330001D01*
X25274346Y80145302D02*
X25248644Y80188965D01*
X65869129Y40073144D02*
X65829319Y40107146D01*
X45751055Y39639017D02*
X45733579Y39688368D01*
X44951427Y80648469D02*
X44901168Y80654870D01*
X45620763Y80231269D02*
X45590775Y80272106D01*
X113290284Y43060D02*
X113382683Y76121D01*
X52385000Y80660000D02*
X51875000Y80660000D01*
X48549347Y40298078D02*
X48500636Y40284140D01*
X88631922Y7749348D02*
X88645860Y7700637D01*
X25209016Y7412216D02*
X25238669Y7455362D01*
X68628731Y40150764D02*
X68587894Y40120776D01*
X25399999Y8000000D02*
X25400000Y39330000D01*
X27900000Y80526025D02*
X27855361Y80498670D01*
X24465000Y42330000D02*
X26400000Y42330000D01*
X5000000Y5000000D02*
X5000000Y42330000D01*
X27871035Y40178645D02*
X27828731Y40150764D01*
X24806736Y7086456D02*
X24853989Y7108995D01*
X45001298Y47350471D02*
X45050652Y47361923D01*
X5000000Y45330000D02*
X5000000Y82660000D01*
X24556434Y7012313D02*
X24556434Y7012313D01*
X45787687Y7843566D02*
X45794521Y7895472D01*
X66200000Y48330000D02*
X66200000Y79660000D01*
X106612105Y80450776D02*
X106571268Y80480764D01*
X68793263Y47416456D02*
X68841632Y47396421D01*
X65351427Y80648469D02*
X65301168Y80654870D01*
X66198629Y39382336D02*
X66194521Y39434529D01*
X30325000Y40330000D02*
X30325000Y42330000D01*
X27590983Y47742216D02*
X27622854Y47700681D01*
X68302195Y7559606D02*
X68325653Y7514699D01*
X106965925Y39588819D02*
X106951055Y39639017D01*
X106499999Y40196025D02*
X106453989Y40221006D01*
X47881042Y7605645D02*
X47902195Y7559606D01*
X27748627Y40088759D02*
X27711033Y40054793D01*
X88856856Y47660871D02*
X88892894Y47622895D01*
X106978147Y7792089D02*
X106987687Y7843566D01*
X25368077Y79910653D02*
X25354139Y79959364D01*
X85704528Y7005479D02*
X85756434Y7012313D01*
X8075000Y80660000D02*
X8000000Y80660000D01*
X7935000Y45330000D02*
X7000000Y45330000D01*
X89028731Y40150764D02*
X88987894Y40120776D01*
X25400000Y39330000D02*
X25398629Y39382336D01*
X47805478Y79764529D02*
X47801370Y79712336D01*
X113773010Y365607D02*
X113831469Y444430D01*
X47801283Y39380650D02*
X47800000Y39330000D01*
X45194355Y80578958D02*
X45147305Y80597753D01*
X25398716Y48279351D02*
X25400000Y48330000D01*
X65304528Y7005479D02*
X65356434Y7012313D01*
X45779529Y48128702D02*
X45788468Y48178573D01*
X31985000Y80660000D02*
X31985000Y80660000D01*
X113881921Y87131397D02*
X113831469Y87215571D01*
X25190775Y47717895D02*
X25220763Y47758732D01*
X93175000Y7000000D02*
X93175000Y12660000D01*
X68587894Y40120776D02*
X68548627Y40088759D01*
X4815Y86758018D02*
X0Y86660000D01*
X105935000Y82660000D02*
X109000000Y82660000D01*
X106897804Y80100395D02*
X106874346Y80145302D01*
X27481042Y39724356D02*
X27462247Y39677306D01*
X113098017Y87655185D02*
X113000000Y87660000D01*
X27641241Y39981373D02*
X27609224Y39942106D01*
X86438669Y7455362D02*
X86466024Y7500001D01*
X87600000Y45330000D02*
X85675000Y45330000D01*
X82015000Y12660000D02*
X82015000Y7000000D01*
X45253989Y7108995D02*
X45299999Y7133976D01*
X45488966Y80384793D02*
X45451372Y80418759D01*
X28005644Y40248958D02*
X27959605Y40227805D01*
X106809016Y39917785D02*
X106777145Y39959320D01*
X86358758Y47678628D02*
X86390775Y47717895D01*
X69147664Y80658630D02*
X69095471Y80654522D01*
X45451372Y80418759D02*
X45412105Y80450776D01*
X25394521Y39434529D02*
X25387687Y39486435D01*
X709715Y87616941D02*
X617316Y87583880D01*
X86144638Y7161331D02*
X86187784Y7190984D01*
X66097804Y80100395D02*
X66074346Y80145302D01*
X25069129Y40073144D02*
X25029319Y40107146D01*
X45371268Y80480764D02*
X45328964Y80508645D01*
X25354139Y48030637D02*
X25368077Y48079348D01*
X48009224Y7387895D02*
X48041241Y7348628D01*
X25394869Y79761169D02*
X25388468Y79811428D01*
X11585000Y80660000D02*
X11075000Y80660000D01*
X45794521Y7895472D02*
X45798629Y7947665D01*
X106913544Y7593264D02*
X106933579Y7641633D01*
X41725000Y5000000D02*
X31465000Y5000000D01*
X68548627Y7241242D02*
X68587894Y7209225D01*
X48009224Y39942106D02*
X47979236Y39901269D01*
X66199999Y8000000D02*
X66200000Y39330000D01*
X7330870Y80403144D02*
X7292894Y80367106D01*
X48549347Y7031923D02*
X48598701Y7020471D01*
X106809016Y7412216D02*
X106838669Y7455362D01*
X66168077Y79910653D02*
X66154139Y79959364D01*
X69098831Y7005131D02*
X69149350Y7001284D01*
X7005130Y7898832D02*
X7011531Y7848573D01*
X65499363Y47375861D02*
X65547305Y47392248D01*
X89205644Y40248958D02*
X89159605Y40227805D01*
X68379236Y39901269D02*
X68351355Y39858965D01*
X24794355Y47411043D02*
X24840394Y47432196D01*
X102425000Y80660000D02*
X102425000Y75000000D01*
X7843565Y80647688D02*
X7792088Y80638148D01*
X93185000Y75000000D02*
X93185000Y80660000D01*
X86518957Y47935645D02*
X86537752Y47982695D01*
X105925000Y5000000D02*
X105925000Y7000000D01*
X82535000Y80660000D02*
X82025000Y80660000D01*
X68390983Y80247785D02*
X68361330Y80204639D01*
X88634074Y48071182D02*
X88648944Y48020984D01*
X106777145Y39959320D02*
X106743143Y39999130D01*
X25354139Y79959364D02*
X25337752Y80007306D01*
X7222854Y80289320D02*
X7190983Y80247785D01*
X45718957Y47935645D02*
X45737752Y47982695D01*
X86513544Y39736737D02*
X86491005Y39783990D01*
X66066024Y39830000D02*
X66038669Y39874639D01*
X48187894Y40120776D02*
X48148627Y40088759D01*
X7895471Y47335479D02*
X7935000Y47332368D01*
X45590775Y47717895D02*
X45620763Y47758732D01*
X106979529Y79861299D02*
X106968077Y79910653D01*
X89498831Y7005131D02*
X89549350Y7001284D01*
X88733975Y47830001D02*
X88761330Y47785362D01*
X45285301Y80534347D02*
X45240394Y80557805D01*
X106790775Y47717895D02*
X106820763Y47758732D01*
X68281042Y39724356D02*
X68262247Y39677306D01*
X83675000Y47330001D02*
X83675000Y45330000D01*
X7151355Y39858965D02*
X7125653Y39815302D01*
X48041241Y7348628D02*
X48075207Y7311034D01*
X89549350Y7001284D02*
X89600000Y7000000D01*
X45558758Y80311373D02*
X45524792Y80348967D01*
X7925000Y40326863D02*
X7898831Y40324870D01*
X24400000Y7000000D02*
X24452335Y7001371D01*
X28149347Y40298078D02*
X28100636Y40284140D01*
X104065000Y42330000D02*
X104065000Y40330000D01*
X48648572Y7011532D02*
X48698831Y7005131D01*
X86474346Y47844699D02*
X86497804Y47889606D01*
X65851372Y47571242D02*
X65888966Y47605208D01*
X113555570Y87491470D02*
X113471396Y87541922D01*
X65851372Y80418759D02*
X65812105Y80450776D01*
X106544638Y40168670D02*
X106499999Y40196025D01*
X88790983Y47742216D02*
X88822854Y47700681D01*
X41215000Y7000000D02*
X41215000Y7000000D01*
X48441632Y47396421D02*
X48490983Y47378945D01*
X68852694Y40267753D02*
X68805644Y40248958D01*
X65869129Y7256857D02*
X65907105Y7292895D01*
X68286455Y47923264D02*
X68308994Y47876011D01*
X7387894Y7209225D02*
X7428731Y7179237D01*
X89525000Y42330000D02*
X89525000Y40326863D01*
X24758367Y40263580D02*
X24709016Y40281056D01*
X106050649Y80658717D02*
X106000000Y80660000D01*
X7741181Y80625926D02*
X7741181Y80625926D01*
M02*
