M48
; DRILL file {KiCad 7.0.0-da2b9df05c~165~ubuntu22.04.1} date Tue Oct 10 20:55:34 2023
; FORMAT={-:-/ absolute / metric / decimal}
; #@! TF.CreationDate,2023-10-10T20:55:34+00:00
; #@! TF.GenerationSoftware,Kicad,Pcbnew,7.0.0-da2b9df05c~165~ubuntu22.04.1
; #@! TF.FileFunction,MixedPlating,1,4
FMAT,2
METRIC
; #@! TA.AperFunction,Plated,PTH,ViaDrill
T1C0.200
; #@! TA.AperFunction,Plated,PTH,ViaDrill
T2C0.300
; #@! TA.AperFunction,Plated,PTH,ComponentDrill
T3C0.600
; #@! TA.AperFunction,Plated,PTH,ComponentDrill
T4C1.000
; #@! TA.AperFunction,Plated,PTH,ComponentDrill
T5C1.300
; #@! TA.AperFunction,NonPlated,NPTH,ComponentDrill
T6C0.400
; #@! TA.AperFunction,NonPlated,NPTH,ComponentDrill
T7C2.000
%
G90
G05
T1
X7.795Y70.52
X7.835Y65.43
X7.835Y62.88
X7.845Y50.17
X7.845Y22.26
X7.855Y57.8
X7.855Y17.21
X7.895Y32.39
X7.945Y34.97
X9.515Y19.59
X9.535Y29.98
X9.845Y48.22
X9.985Y35.68
X10.075Y56.77
X10.205Y58.86
X10.525Y77.37
X10.545Y18.05
X10.545Y17.55
X10.615Y10.21
X10.735Y68.79
X10.755Y66.92
X11.015Y70.05
X11.125Y32.26
X11.205Y27.93
X11.395Y34.01
X11.415Y61.04
X11.455Y30.81
X11.465Y66.22
X11.545Y57.125
X11.58Y28.885
X11.585Y31.58
X11.605Y63.28
X11.605Y13.97
X11.675Y73.55
X11.675Y21.13
X11.745Y27.55
X11.755Y19.81
X12.095Y52.98
X12.155Y26.45
X12.285Y67.19
X12.395Y48.28
X12.405Y39.42
X12.415Y36.07
X12.495Y66.2
X12.555Y35.42
X12.585Y64.86
X12.725Y24.2
X12.895Y62.45
X12.905Y25.18
X12.985Y70.4
X13.12Y54.425
X13.425Y28.39
X13.435Y27.76
X13.465Y31.17
X13.475Y30.38
X13.605Y62.76
X13.635Y56.87
X13.695Y57.48
X13.715Y58.12
X13.755Y25.19
X13.795Y59.935
X13.825Y16.87
X13.865Y29.41
X13.995Y55.19
X14.055Y32.51
X14.08Y23.61
X14.08Y22.335
X14.08Y21.06
X14.085Y18.05
X14.085Y17.55
X14.095Y68.725
X14.135Y53.59
X14.145Y67.85
X14.145Y66.6
X14.145Y65.3
X14.395Y59.85
X14.415Y25.21
X14.455Y36.96
X14.475Y55.61
X14.495Y34.98
X14.585Y73.19
X14.925Y39.41
X14.965Y14.29
X15.02Y59.825
X15.045Y34.44
X15.13Y27.56
X15.525Y29.21
X15.53Y29.81
X15.535Y30.41
X15.585Y32.07
X15.62Y59.925
X15.665Y57.25
X15.67Y57.85
X15.675Y58.45
X15.715Y55.6
X15.765Y18.1
X15.785Y69.56
X15.785Y62.46
X15.845Y60.5
X15.865Y27.55
X15.885Y34.44
X15.945Y25.18
X15.945Y14.35
X16.13Y30.41
X16.13Y29.81
X16.13Y29.21
X16.155Y22.91
X16.155Y22.31
X16.155Y21.71
X16.155Y21.11
X16.155Y20.51
X16.245Y67.15
X16.245Y66.55
X16.245Y65.95
X16.245Y65.35
X16.245Y64.75
X16.27Y58.45
X16.27Y57.85
X16.27Y57.25
X16.455Y73.31
X16.455Y62.48
X16.515Y53.22
X16.535Y60.11
X16.555Y27.16
X16.615Y25.2
X16.615Y18.1
X16.635Y69.56
X16.685Y32.06
X16.725Y29.21
X16.73Y29.81
X16.735Y30.41
X16.78Y27.735
X16.815Y55.59
X16.865Y57.25
X16.87Y57.85
X16.875Y58.45
X17.27Y60.1
X17.355Y53.22
X17.38Y27.835
X17.435Y73.37
X17.475Y48.25
X17.815Y14.47
X17.905Y52.68
X17.925Y32.05
X17.945Y50.7
X17.985Y62.45
X18.005Y27.81
X18.255Y22.36
X18.255Y21.06
X18.255Y19.81
X18.265Y34.07
X18.305Y18.935
X18.315Y70.11
X18.315Y69.61
X18.32Y66.6
X18.32Y65.325
X18.32Y64.05
X18.345Y55.15
X18.405Y32.47
X18.535Y58.25
X18.575Y70.79
X18.605Y27.725
X18.645Y62.47
X18.685Y29.54
X18.705Y30.18
X18.765Y30.79
X18.795Y24.9
X18.925Y57.28
X18.935Y56.49
X18.965Y59.9
X18.975Y59.27
X19.28Y33.235
X19.415Y17.26
X19.495Y62.48
X19.505Y25.21
X19.675Y63.46
X19.815Y22.8
X19.845Y52.24
X19.905Y21.46
X19.985Y51.59
X19.995Y48.24
X20.005Y39.38
X20.115Y20.47
X20.245Y61.21
X20.305Y34.68
X20.645Y67.85
X20.655Y60.11
X20.725Y66.53
X20.725Y14.11
X20.795Y73.69
X20.795Y24.38
X20.815Y56.08
X20.82Y58.775
X20.855Y30.535
X20.935Y21.44
X20.945Y56.85
X20.985Y26.62
X21.005Y53.65
X21.195Y59.73
X21.275Y55.4
X21.385Y17.61
X21.645Y20.74
X21.665Y18.87
X21.785Y77.45
X21.855Y70.11
X21.855Y69.61
X21.875Y10.29
X22.195Y28.8
X22.325Y30.89
X22.415Y51.98
X22.555Y39.44
X22.865Y57.68
X22.885Y68.07
X24.455Y52.69
X24.505Y55.27
X24.545Y70.45
X24.545Y29.86
X24.555Y65.4
X24.555Y37.49
X24.565Y24.78
X24.565Y22.23
X24.605Y17.14
X28.195Y70.52
X28.235Y65.43
X28.235Y62.88
X28.245Y50.17
X28.245Y22.26
X28.255Y57.8
X28.255Y17.21
X28.295Y32.39
X28.345Y34.97
X29.915Y19.59
X29.935Y29.98
X30.245Y48.22
X30.385Y35.68
X30.475Y56.77
X30.605Y58.86
X30.925Y77.37
X30.945Y18.05
X30.945Y17.55
X31.015Y10.21
X31.135Y68.79
X31.155Y66.92
X31.415Y70.05
X31.525Y32.26
X31.605Y27.93
X31.795Y34.01
X31.815Y61.04
X31.855Y30.81
X31.865Y66.22
X31.945Y57.125
X31.98Y28.885
X31.985Y31.58
X32.005Y63.28
X32.005Y13.97
X32.075Y73.55
X32.075Y21.13
X32.145Y27.55
X32.155Y19.81
X32.495Y52.98
X32.555Y26.45
X32.685Y67.19
X32.795Y48.28
X32.805Y39.42
X32.815Y36.07
X32.895Y66.2
X32.955Y35.42
X32.985Y64.86
X33.125Y24.2
X33.295Y62.45
X33.305Y25.18
X33.385Y70.4
X33.52Y54.425
X33.825Y28.39
X33.835Y27.76
X33.865Y31.17
X33.875Y30.38
X34.005Y62.76
X34.035Y56.87
X34.095Y57.48
X34.115Y58.12
X34.155Y25.19
X34.195Y59.935
X34.225Y16.87
X34.265Y29.41
X34.395Y55.19
X34.455Y32.51
X34.48Y23.61
X34.48Y22.335
X34.48Y21.06
X34.485Y18.05
X34.485Y17.55
X34.495Y68.725
X34.535Y53.59
X34.545Y67.85
X34.545Y66.6
X34.545Y65.3
X34.795Y59.85
X34.815Y25.21
X34.855Y36.96
X34.875Y55.61
X34.895Y34.98
X34.985Y73.19
X35.325Y39.41
X35.365Y14.29
X35.42Y59.825
X35.445Y34.44
X35.53Y27.56
X35.925Y29.21
X35.93Y29.81
X35.935Y30.41
X35.985Y32.07
X36.02Y59.925
X36.065Y57.25
X36.07Y57.85
X36.075Y58.45
X36.115Y55.6
X36.165Y18.1
X36.185Y69.56
X36.185Y62.46
X36.245Y60.5
X36.265Y27.55
X36.285Y34.44
X36.345Y25.18
X36.345Y14.35
X36.53Y30.41
X36.53Y29.81
X36.53Y29.21
X36.555Y22.91
X36.555Y22.31
X36.555Y21.71
X36.555Y21.11
X36.555Y20.51
X36.645Y67.15
X36.645Y66.55
X36.645Y65.95
X36.645Y65.35
X36.645Y64.75
X36.67Y58.45
X36.67Y57.85
X36.67Y57.25
X36.855Y73.31
X36.855Y62.48
X36.915Y53.22
X36.935Y60.11
X36.955Y27.16
X37.015Y25.2
X37.015Y18.1
X37.035Y69.56
X37.085Y32.06
X37.125Y29.21
X37.13Y29.81
X37.135Y30.41
X37.18Y27.735
X37.215Y55.59
X37.265Y57.25
X37.27Y57.85
X37.275Y58.45
X37.67Y60.1
X37.755Y53.22
X37.78Y27.835
X37.835Y73.37
X37.875Y48.25
X38.215Y14.47
X38.305Y52.68
X38.325Y32.05
X38.345Y50.7
X38.385Y62.45
X38.405Y27.81
X38.655Y22.36
X38.655Y21.06
X38.655Y19.81
X38.665Y34.07
X38.705Y18.935
X38.715Y70.11
X38.715Y69.61
X38.72Y66.6
X38.72Y65.325
X38.72Y64.05
X38.745Y55.15
X38.805Y32.47
X38.935Y58.25
X38.975Y70.79
X39.005Y27.725
X39.045Y62.47
X39.085Y29.54
X39.105Y30.18
X39.165Y30.79
X39.195Y24.9
X39.325Y57.28
X39.335Y56.49
X39.365Y59.9
X39.375Y59.27
X39.68Y33.235
X39.815Y17.26
X39.895Y62.48
X39.905Y25.21
X40.075Y63.46
X40.215Y22.8
X40.245Y52.24
X40.305Y21.46
X40.385Y51.59
X40.395Y48.24
X40.405Y39.38
X40.515Y20.47
X40.645Y61.21
X40.705Y34.68
X41.045Y67.85
X41.055Y60.11
X41.125Y66.53
X41.125Y14.11
X41.195Y73.69
X41.195Y24.38
X41.215Y56.08
X41.22Y58.775
X41.255Y30.535
X41.335Y21.44
X41.345Y56.85
X41.385Y26.62
X41.405Y53.65
X41.595Y59.73
X41.675Y55.4
X41.785Y17.61
X42.045Y20.74
X42.065Y18.87
X42.185Y77.45
X42.255Y70.11
X42.255Y69.61
X42.275Y10.29
X42.595Y28.8
X42.725Y30.89
X42.815Y51.98
X42.955Y39.44
X43.265Y57.68
X43.285Y68.07
X44.855Y52.69
X44.905Y55.27
X44.945Y70.45
X44.945Y29.86
X44.955Y65.4
X44.955Y37.49
X44.965Y24.78
X44.965Y22.23
X45.005Y17.14
X48.595Y70.52
X48.635Y65.43
X48.635Y62.88
X48.645Y50.17
X48.645Y22.26
X48.655Y57.8
X48.655Y17.21
X48.695Y32.39
X48.745Y34.97
X50.315Y19.59
X50.335Y29.98
X50.645Y48.22
X50.785Y35.68
X50.875Y56.77
X51.005Y58.86
X51.325Y77.37
X51.345Y18.05
X51.345Y17.55
X51.415Y10.21
X51.535Y68.79
X51.555Y66.92
X51.815Y70.05
X51.925Y32.26
X52.005Y27.93
X52.195Y34.01
X52.215Y61.04
X52.255Y30.81
X52.265Y66.22
X52.345Y57.125
X52.38Y28.885
X52.385Y31.58
X52.405Y63.28
X52.405Y13.97
X52.475Y73.55
X52.475Y21.13
X52.545Y27.55
X52.555Y19.81
X52.895Y52.98
X52.955Y26.45
X53.085Y67.19
X53.195Y48.28
X53.205Y39.42
X53.215Y36.07
X53.295Y66.2
X53.355Y35.42
X53.385Y64.86
X53.525Y24.2
X53.695Y62.45
X53.705Y25.18
X53.785Y70.4
X53.92Y54.425
X54.225Y28.39
X54.235Y27.76
X54.265Y31.17
X54.275Y30.38
X54.405Y62.76
X54.435Y56.87
X54.495Y57.48
X54.515Y58.12
X54.555Y25.19
X54.595Y59.935
X54.625Y16.87
X54.665Y29.41
X54.795Y55.19
X54.855Y32.51
X54.88Y23.61
X54.88Y22.335
X54.88Y21.06
X54.885Y18.05
X54.885Y17.55
X54.895Y68.725
X54.935Y53.59
X54.945Y67.85
X54.945Y66.6
X54.945Y65.3
X55.195Y59.85
X55.215Y25.21
X55.255Y36.96
X55.275Y55.61
X55.295Y34.98
X55.385Y73.19
X55.725Y39.41
X55.765Y14.29
X55.82Y59.825
X55.845Y34.44
X55.93Y27.56
X56.325Y29.21
X56.33Y29.81
X56.335Y30.41
X56.385Y32.07
X56.42Y59.925
X56.465Y57.25
X56.47Y57.85
X56.475Y58.45
X56.515Y55.6
X56.565Y18.1
X56.585Y69.56
X56.585Y62.46
X56.645Y60.5
X56.665Y27.55
X56.685Y34.44
X56.745Y25.18
X56.745Y14.35
X56.93Y30.41
X56.93Y29.81
X56.93Y29.21
X56.955Y22.91
X56.955Y22.31
X56.955Y21.71
X56.955Y21.11
X56.955Y20.51
X57.045Y67.15
X57.045Y66.55
X57.045Y65.95
X57.045Y65.35
X57.045Y64.75
X57.07Y58.45
X57.07Y57.85
X57.07Y57.25
X57.255Y73.31
X57.255Y62.48
X57.315Y53.22
X57.335Y60.11
X57.355Y27.16
X57.415Y25.2
X57.415Y18.1
X57.435Y69.56
X57.485Y32.06
X57.525Y29.21
X57.53Y29.81
X57.535Y30.41
X57.58Y27.735
X57.615Y55.59
X57.665Y57.25
X57.67Y57.85
X57.675Y58.45
X58.07Y60.1
X58.155Y53.22
X58.18Y27.835
X58.235Y73.37
X58.275Y48.25
X58.615Y14.47
X58.705Y52.68
X58.725Y32.05
X58.745Y50.7
X58.785Y62.45
X58.805Y27.81
X59.055Y22.36
X59.055Y21.06
X59.055Y19.81
X59.065Y34.07
X59.105Y18.935
X59.115Y70.11
X59.115Y69.61
X59.12Y66.6
X59.12Y65.325
X59.12Y64.05
X59.145Y55.15
X59.205Y32.47
X59.335Y58.25
X59.375Y70.79
X59.405Y27.725
X59.445Y62.47
X59.485Y29.54
X59.505Y30.18
X59.565Y30.79
X59.595Y24.9
X59.725Y57.28
X59.735Y56.49
X59.765Y59.9
X59.775Y59.27
X60.08Y33.235
X60.215Y17.26
X60.295Y62.48
X60.305Y25.21
X60.475Y63.46
X60.615Y22.8
X60.645Y52.24
X60.705Y21.46
X60.785Y51.59
X60.795Y48.24
X60.805Y39.38
X60.915Y20.47
X61.045Y61.21
X61.105Y34.68
X61.445Y67.85
X61.455Y60.11
X61.525Y66.53
X61.525Y14.11
X61.595Y73.69
X61.595Y24.38
X61.615Y56.08
X61.62Y58.775
X61.655Y30.535
X61.735Y21.44
X61.745Y56.85
X61.785Y26.62
X61.805Y53.65
X61.995Y59.73
X62.075Y55.4
X62.185Y17.61
X62.445Y20.74
X62.465Y18.87
X62.585Y77.45
X62.655Y70.11
X62.655Y69.61
X62.675Y10.29
X62.995Y28.8
X63.125Y30.89
X63.215Y51.98
X63.355Y39.44
X63.665Y57.68
X63.685Y68.07
X65.255Y52.69
X65.305Y55.27
X65.345Y70.45
X65.345Y29.86
X65.355Y65.4
X65.355Y37.49
X65.365Y24.78
X65.365Y22.23
X65.405Y17.14
X68.995Y70.52
X69.035Y65.43
X69.035Y62.88
X69.045Y50.17
X69.045Y22.26
X69.055Y57.8
X69.055Y17.21
X69.095Y32.39
X69.145Y34.97
X70.715Y19.59
X70.735Y29.98
X71.045Y48.22
X71.185Y35.68
X71.275Y56.77
X71.405Y58.86
X71.725Y77.37
X71.745Y18.05
X71.745Y17.55
X71.815Y10.21
X71.935Y68.79
X71.955Y66.92
X72.215Y70.05
X72.325Y32.26
X72.405Y27.93
X72.595Y34.01
X72.615Y61.04
X72.655Y30.81
X72.665Y66.22
X72.745Y57.125
X72.78Y28.885
X72.785Y31.58
X72.805Y63.28
X72.805Y13.97
X72.875Y73.55
X72.875Y21.13
X72.945Y27.55
X72.955Y19.81
X73.295Y52.98
X73.355Y26.45
X73.485Y67.19
X73.595Y48.28
X73.605Y39.42
X73.615Y36.07
X73.695Y66.2
X73.755Y35.42
X73.785Y64.86
X73.925Y24.2
X74.095Y62.45
X74.105Y25.18
X74.185Y70.4
X74.32Y54.425
X74.625Y28.39
X74.635Y27.76
X74.665Y31.17
X74.675Y30.38
X74.805Y62.76
X74.835Y56.87
X74.895Y57.48
X74.915Y58.12
X74.955Y25.19
X74.995Y59.935
X75.025Y16.87
X75.065Y29.41
X75.195Y55.19
X75.255Y32.51
X75.28Y23.61
X75.28Y22.335
X75.28Y21.06
X75.285Y18.05
X75.285Y17.55
X75.295Y68.725
X75.335Y53.59
X75.345Y67.85
X75.345Y66.6
X75.345Y65.3
X75.595Y59.85
X75.615Y25.21
X75.655Y36.96
X75.675Y55.61
X75.695Y34.98
X75.785Y73.19
X76.125Y39.41
X76.165Y14.29
X76.22Y59.825
X76.245Y34.44
X76.33Y27.56
X76.725Y29.21
X76.73Y29.81
X76.735Y30.41
X76.785Y32.07
X76.82Y59.925
X76.865Y57.25
X76.87Y57.85
X76.875Y58.45
X76.915Y55.6
X76.965Y18.1
X76.985Y69.56
X76.985Y62.46
X77.045Y60.5
X77.065Y27.55
X77.085Y34.44
X77.145Y25.18
X77.145Y14.35
X77.33Y30.41
X77.33Y29.81
X77.33Y29.21
X77.355Y22.91
X77.355Y22.31
X77.355Y21.71
X77.355Y21.11
X77.355Y20.51
X77.445Y67.15
X77.445Y66.55
X77.445Y65.95
X77.445Y65.35
X77.445Y64.75
X77.47Y58.45
X77.47Y57.85
X77.47Y57.25
X77.655Y73.31
X77.655Y62.48
X77.715Y53.22
X77.735Y60.11
X77.755Y27.16
X77.815Y25.2
X77.815Y18.1
X77.835Y69.56
X77.885Y32.06
X77.925Y29.21
X77.93Y29.81
X77.935Y30.41
X77.98Y27.735
X78.015Y55.59
X78.065Y57.25
X78.07Y57.85
X78.075Y58.45
X78.47Y60.1
X78.555Y53.22
X78.58Y27.835
X78.635Y73.37
X78.675Y48.25
X79.015Y14.47
X79.105Y52.68
X79.125Y32.05
X79.145Y50.7
X79.185Y62.45
X79.205Y27.81
X79.455Y22.36
X79.455Y21.06
X79.455Y19.81
X79.465Y34.07
X79.505Y18.935
X79.515Y70.11
X79.515Y69.61
X79.52Y66.6
X79.52Y65.325
X79.52Y64.05
X79.545Y55.15
X79.605Y32.47
X79.735Y58.25
X79.775Y70.79
X79.805Y27.725
X79.845Y62.47
X79.885Y29.54
X79.905Y30.18
X79.965Y30.79
X79.995Y24.9
X80.125Y57.28
X80.135Y56.49
X80.165Y59.9
X80.175Y59.27
X80.48Y33.235
X80.615Y17.26
X80.695Y62.48
X80.705Y25.21
X80.875Y63.46
X81.015Y22.8
X81.045Y52.24
X81.105Y21.46
X81.185Y51.59
X81.195Y48.24
X81.205Y39.38
X81.315Y20.47
X81.445Y61.21
X81.505Y34.68
X81.845Y67.85
X81.855Y60.11
X81.925Y66.53
X81.925Y14.11
X81.995Y73.69
X81.995Y24.38
X82.015Y56.08
X82.02Y58.775
X82.055Y30.535
X82.135Y21.44
X82.145Y56.85
X82.185Y26.62
X82.205Y53.65
X82.395Y59.73
X82.475Y55.4
X82.585Y17.61
X82.845Y20.74
X82.865Y18.87
X82.985Y77.45
X83.055Y70.11
X83.055Y69.61
X83.075Y10.29
X83.395Y28.8
X83.525Y30.89
X83.615Y51.98
X83.755Y39.44
X84.065Y57.68
X84.085Y68.07
X85.655Y52.69
X85.705Y55.27
X85.745Y70.45
X85.745Y29.86
X85.755Y65.4
X85.755Y37.49
X85.765Y24.78
X85.765Y22.23
X85.805Y17.14
X89.395Y70.52
X89.435Y65.43
X89.435Y62.88
X89.445Y50.17
X89.445Y22.26
X89.455Y57.8
X89.455Y17.21
X89.495Y32.39
X89.545Y34.97
X91.115Y19.59
X91.135Y29.98
X91.445Y48.22
X91.585Y35.68
X91.675Y56.77
X91.805Y58.86
X92.125Y77.37
X92.145Y18.05
X92.145Y17.55
X92.215Y10.21
X92.335Y68.79
X92.355Y66.92
X92.615Y70.05
X92.725Y32.26
X92.805Y27.93
X92.995Y34.01
X93.015Y61.04
X93.055Y30.81
X93.065Y66.22
X93.145Y57.125
X93.18Y28.885
X93.185Y31.58
X93.205Y63.28
X93.205Y13.97
X93.275Y73.55
X93.275Y21.13
X93.345Y27.55
X93.355Y19.81
X93.695Y52.98
X93.755Y26.45
X93.885Y67.19
X93.995Y48.28
X94.005Y39.42
X94.015Y36.07
X94.095Y66.2
X94.155Y35.42
X94.185Y64.86
X94.325Y24.2
X94.495Y62.45
X94.505Y25.18
X94.585Y70.4
X94.72Y54.425
X95.025Y28.39
X95.035Y27.76
X95.065Y31.17
X95.075Y30.38
X95.205Y62.76
X95.235Y56.87
X95.295Y57.48
X95.315Y58.12
X95.355Y25.19
X95.395Y59.935
X95.425Y16.87
X95.465Y29.41
X95.595Y55.19
X95.655Y32.51
X95.68Y23.61
X95.68Y22.335
X95.68Y21.06
X95.685Y18.05
X95.685Y17.55
X95.695Y68.725
X95.735Y53.59
X95.745Y67.85
X95.745Y66.6
X95.745Y65.3
X95.995Y59.85
X96.015Y25.21
X96.055Y36.96
X96.075Y55.61
X96.095Y34.98
X96.185Y73.19
X96.525Y39.41
X96.565Y14.29
X96.62Y59.825
X96.645Y34.44
X96.73Y27.56
X97.125Y29.21
X97.13Y29.81
X97.135Y30.41
X97.185Y32.07
X97.22Y59.925
X97.265Y57.25
X97.27Y57.85
X97.275Y58.45
X97.315Y55.6
X97.365Y18.1
X97.385Y69.56
X97.385Y62.46
X97.445Y60.5
X97.465Y27.55
X97.485Y34.44
X97.545Y25.18
X97.545Y14.35
X97.73Y30.41
X97.73Y29.81
X97.73Y29.21
X97.755Y22.91
X97.755Y22.31
X97.755Y21.71
X97.755Y21.11
X97.755Y20.51
X97.845Y67.15
X97.845Y66.55
X97.845Y65.95
X97.845Y65.35
X97.845Y64.75
X97.87Y58.45
X97.87Y57.85
X97.87Y57.25
X98.055Y73.31
X98.055Y62.48
X98.115Y53.22
X98.135Y60.11
X98.155Y27.16
X98.215Y25.2
X98.215Y18.1
X98.235Y69.56
X98.285Y32.06
X98.325Y29.21
X98.33Y29.81
X98.335Y30.41
X98.38Y27.735
X98.415Y55.59
X98.465Y57.25
X98.47Y57.85
X98.475Y58.45
X98.87Y60.1
X98.955Y53.22
X98.98Y27.835
X99.035Y73.37
X99.075Y48.25
X99.415Y14.47
X99.505Y52.68
X99.525Y32.05
X99.545Y50.7
X99.585Y62.45
X99.605Y27.81
X99.855Y22.36
X99.855Y21.06
X99.855Y19.81
X99.865Y34.07
X99.905Y18.935
X99.915Y70.11
X99.915Y69.61
X99.92Y66.6
X99.92Y65.325
X99.92Y64.05
X99.945Y55.15
X100.005Y32.47
X100.135Y58.25
X100.175Y70.79
X100.205Y27.725
X100.245Y62.47
X100.285Y29.54
X100.305Y30.18
X100.365Y30.79
X100.395Y24.9
X100.525Y57.28
X100.535Y56.49
X100.565Y59.9
X100.575Y59.27
X100.88Y33.235
X101.015Y17.26
X101.095Y62.48
X101.105Y25.21
X101.275Y63.46
X101.415Y22.8
X101.445Y52.24
X101.505Y21.46
X101.585Y51.59
X101.595Y48.24
X101.605Y39.38
X101.715Y20.47
X101.845Y61.21
X101.905Y34.68
X102.245Y67.85
X102.255Y60.11
X102.325Y66.53
X102.325Y14.11
X102.395Y73.69
X102.395Y24.38
X102.415Y56.08
X102.42Y58.775
X102.455Y30.535
X102.535Y21.44
X102.545Y56.85
X102.585Y26.62
X102.605Y53.65
X102.795Y59.73
X102.875Y55.4
X102.985Y17.61
X103.245Y20.74
X103.265Y18.87
X103.385Y77.45
X103.455Y70.11
X103.455Y69.61
X103.475Y10.29
X103.795Y28.8
X103.925Y30.89
X104.015Y51.98
X104.155Y39.44
X104.465Y57.68
X104.485Y68.07
X106.055Y52.69
X106.105Y55.27
X106.145Y70.45
X106.145Y29.86
X106.155Y65.4
X106.155Y37.49
X106.165Y24.78
X106.165Y22.23
X106.205Y17.14
T2
X12.305Y14.52
X12.345Y73.14
X12.975Y14.52
X13.015Y73.14
X13.795Y73.15
X13.815Y14.51
X16.185Y17.59
X16.215Y70.07
X18.585Y73.15
X18.605Y14.51
X19.385Y14.52
X19.425Y73.14
X20.055Y14.52
X20.095Y73.14
X32.705Y14.52
X32.745Y73.14
X33.375Y14.52
X33.415Y73.14
X34.195Y73.15
X34.215Y14.51
X36.585Y17.59
X36.615Y70.07
X38.985Y73.15
X39.005Y14.51
X39.785Y14.52
X39.825Y73.14
X40.455Y14.52
X40.495Y73.14
X53.105Y14.52
X53.145Y73.14
X53.775Y14.52
X53.815Y73.14
X54.595Y73.15
X54.615Y14.51
X56.985Y17.59
X57.015Y70.07
X59.385Y73.15
X59.405Y14.51
X60.185Y14.52
X60.225Y73.14
X60.855Y14.52
X60.895Y73.14
X73.505Y14.52
X73.545Y73.14
X74.175Y14.52
X74.215Y73.14
X74.995Y73.15
X75.015Y14.51
X77.385Y17.59
X77.415Y70.07
X79.785Y73.15
X79.805Y14.51
X80.585Y14.52
X80.625Y73.14
X81.255Y14.52
X81.295Y73.14
X93.905Y14.52
X93.945Y73.14
X94.575Y14.52
X94.615Y73.14
X95.395Y73.15
X95.415Y14.51
X97.785Y17.59
X97.815Y70.07
X100.185Y73.15
X100.205Y14.51
X100.985Y14.52
X101.025Y73.14
X101.655Y14.52
X101.695Y73.14
T4
X8.58Y79.39
X8.58Y76.85
X8.58Y74.31
X8.58Y71.77
X8.58Y69.23
X8.58Y66.69
X8.58Y64.15
X8.58Y61.61
X8.58Y59.07
X8.58Y56.53
X8.58Y53.99
X8.58Y51.45
X8.58Y48.91
X8.58Y38.75
X8.58Y36.21
X8.58Y33.67
X8.58Y31.13
X8.58Y28.59
X8.58Y26.05
X8.58Y23.51
X8.58Y20.97
X8.58Y18.43
X8.58Y15.89
X8.58Y13.35
X8.58Y10.81
X8.58Y8.27
X11.12Y48.91
X11.12Y38.75
X11.125Y51.45
X13.66Y48.91
X13.66Y38.75
X14.93Y71.77
X14.93Y15.89
X16.2Y48.91
X16.2Y38.75
X17.47Y71.77
X17.47Y15.89
X18.74Y48.91
X18.74Y38.75
X21.275Y36.21
X21.28Y48.91
X21.28Y38.75
X23.82Y79.39
X23.82Y76.85
X23.82Y74.31
X23.82Y71.77
X23.82Y69.23
X23.82Y66.69
X23.82Y64.15
X23.82Y61.61
X23.82Y59.07
X23.82Y56.53
X23.82Y53.99
X23.82Y51.45
X23.82Y48.91
X23.82Y38.75
X23.82Y36.21
X23.82Y33.67
X23.82Y31.13
X23.82Y28.59
X23.82Y26.05
X23.82Y23.51
X23.82Y20.97
X23.82Y18.43
X23.82Y15.89
X23.82Y13.35
X23.82Y10.81
X23.82Y8.27
X28.98Y79.39
X28.98Y76.85
X28.98Y74.31
X28.98Y71.77
X28.98Y69.23
X28.98Y66.69
X28.98Y64.15
X28.98Y61.61
X28.98Y59.07
X28.98Y56.53
X28.98Y53.99
X28.98Y51.45
X28.98Y48.91
X28.98Y38.75
X28.98Y36.21
X28.98Y33.67
X28.98Y31.13
X28.98Y28.59
X28.98Y26.05
X28.98Y23.51
X28.98Y20.97
X28.98Y18.43
X28.98Y15.89
X28.98Y13.35
X28.98Y10.81
X28.98Y8.27
X31.52Y48.91
X31.52Y38.75
X31.525Y51.45
X34.06Y48.91
X34.06Y38.75
X35.33Y71.77
X35.33Y15.89
X36.6Y48.91
X36.6Y38.75
X37.87Y71.77
X37.87Y15.89
X39.14Y48.91
X39.14Y38.75
X41.675Y36.21
X41.68Y48.91
X41.68Y38.75
X44.22Y79.39
X44.22Y76.85
X44.22Y74.31
X44.22Y71.77
X44.22Y69.23
X44.22Y66.69
X44.22Y64.15
X44.22Y61.61
X44.22Y59.07
X44.22Y56.53
X44.22Y53.99
X44.22Y51.45
X44.22Y48.91
X44.22Y38.75
X44.22Y36.21
X44.22Y33.67
X44.22Y31.13
X44.22Y28.59
X44.22Y26.05
X44.22Y23.51
X44.22Y20.97
X44.22Y18.43
X44.22Y15.89
X44.22Y13.35
X44.22Y10.81
X44.22Y8.27
X49.38Y79.39
X49.38Y76.85
X49.38Y74.31
X49.38Y71.77
X49.38Y69.23
X49.38Y66.69
X49.38Y64.15
X49.38Y61.61
X49.38Y59.07
X49.38Y56.53
X49.38Y53.99
X49.38Y51.45
X49.38Y48.91
X49.38Y38.75
X49.38Y36.21
X49.38Y33.67
X49.38Y31.13
X49.38Y28.59
X49.38Y26.05
X49.38Y23.51
X49.38Y20.97
X49.38Y18.43
X49.38Y15.89
X49.38Y13.35
X49.38Y10.81
X49.38Y8.27
X51.92Y48.91
X51.92Y38.75
X51.925Y51.45
X54.46Y48.91
X54.46Y38.75
X55.73Y71.77
X55.73Y15.89
X57.0Y48.91
X57.0Y38.75
X58.27Y71.77
X58.27Y15.89
X59.54Y48.91
X59.54Y38.75
X62.075Y36.21
X62.08Y48.91
X62.08Y38.75
X64.62Y79.39
X64.62Y76.85
X64.62Y74.31
X64.62Y71.77
X64.62Y69.23
X64.62Y66.69
X64.62Y64.15
X64.62Y61.61
X64.62Y59.07
X64.62Y56.53
X64.62Y53.99
X64.62Y51.45
X64.62Y48.91
X64.62Y38.75
X64.62Y36.21
X64.62Y33.67
X64.62Y31.13
X64.62Y28.59
X64.62Y26.05
X64.62Y23.51
X64.62Y20.97
X64.62Y18.43
X64.62Y15.89
X64.62Y13.35
X64.62Y10.81
X64.62Y8.27
X69.78Y79.39
X69.78Y76.85
X69.78Y74.31
X69.78Y71.77
X69.78Y69.23
X69.78Y66.69
X69.78Y64.15
X69.78Y61.61
X69.78Y59.07
X69.78Y56.53
X69.78Y53.99
X69.78Y51.45
X69.78Y48.91
X69.78Y38.75
X69.78Y36.21
X69.78Y33.67
X69.78Y31.13
X69.78Y28.59
X69.78Y26.05
X69.78Y23.51
X69.78Y20.97
X69.78Y18.43
X69.78Y15.89
X69.78Y13.35
X69.78Y10.81
X69.78Y8.27
X72.32Y48.91
X72.32Y38.75
X72.325Y51.45
X74.86Y48.91
X74.86Y38.75
X76.13Y71.77
X76.13Y15.89
X77.4Y48.91
X77.4Y38.75
X78.67Y71.77
X78.67Y15.89
X79.94Y48.91
X79.94Y38.75
X82.475Y36.21
X82.48Y48.91
X82.48Y38.75
X85.02Y79.39
X85.02Y76.85
X85.02Y74.31
X85.02Y71.77
X85.02Y69.23
X85.02Y66.69
X85.02Y64.15
X85.02Y61.61
X85.02Y59.07
X85.02Y56.53
X85.02Y53.99
X85.02Y51.45
X85.02Y48.91
X85.02Y38.75
X85.02Y36.21
X85.02Y33.67
X85.02Y31.13
X85.02Y28.59
X85.02Y26.05
X85.02Y23.51
X85.02Y20.97
X85.02Y18.43
X85.02Y15.89
X85.02Y13.35
X85.02Y10.81
X85.02Y8.27
X90.18Y79.39
X90.18Y76.85
X90.18Y74.31
X90.18Y71.77
X90.18Y69.23
X90.18Y66.69
X90.18Y64.15
X90.18Y61.61
X90.18Y59.07
X90.18Y56.53
X90.18Y53.99
X90.18Y51.45
X90.18Y48.91
X90.18Y38.75
X90.18Y36.21
X90.18Y33.67
X90.18Y31.13
X90.18Y28.59
X90.18Y26.05
X90.18Y23.51
X90.18Y20.97
X90.18Y18.43
X90.18Y15.89
X90.18Y13.35
X90.18Y10.81
X90.18Y8.27
X92.72Y48.91
X92.72Y38.75
X92.725Y51.45
X95.26Y48.91
X95.26Y38.75
X96.53Y71.77
X96.53Y15.89
X97.8Y48.91
X97.8Y38.75
X99.07Y71.77
X99.07Y15.89
X100.34Y48.91
X100.34Y38.75
X102.875Y36.21
X102.88Y48.91
X102.88Y38.75
X105.42Y79.39
X105.42Y76.85
X105.42Y74.31
X105.42Y71.77
X105.42Y69.23
X105.42Y66.69
X105.42Y64.15
X105.42Y61.61
X105.42Y59.07
X105.42Y56.53
X105.42Y53.99
X105.42Y51.45
X105.42Y48.91
X105.42Y38.75
X105.42Y36.21
X105.42Y33.67
X105.42Y31.13
X105.42Y28.59
X105.42Y26.05
X105.42Y23.51
X105.42Y20.97
X105.42Y18.43
X105.42Y15.89
X105.42Y13.35
X105.42Y10.81
X105.42Y8.27
T5
X7.0Y79.39
X7.0Y76.85
X7.0Y74.31
X7.0Y71.77
X7.0Y69.23
X7.0Y66.69
X7.0Y64.15
X7.0Y61.61
X7.0Y59.07
X7.0Y56.53
X7.0Y53.99
X7.0Y51.45
X7.0Y48.91
X7.0Y38.75
X7.0Y36.21
X7.0Y33.67
X7.0Y31.13
X7.0Y28.59
X7.0Y26.05
X7.0Y23.51
X7.0Y20.97
X7.0Y18.43
X7.0Y15.89
X7.0Y13.35
X7.0Y10.81
X7.0Y8.27
X11.12Y47.33
X11.12Y40.33
X13.66Y47.33
X13.66Y40.33
X16.2Y47.33
X16.2Y40.33
X18.74Y47.33
X18.74Y40.33
X21.28Y47.33
X21.28Y40.33
X25.4Y79.39
X25.4Y76.85
X25.4Y74.31
X25.4Y71.77
X25.4Y69.23
X25.4Y66.69
X25.4Y64.15
X25.4Y61.61
X25.4Y59.07
X25.4Y56.53
X25.4Y53.99
X25.4Y51.45
X25.4Y48.91
X25.4Y38.75
X25.4Y36.21
X25.4Y33.67
X25.4Y31.13
X25.4Y28.59
X25.4Y26.05
X25.4Y23.51
X25.4Y20.97
X25.4Y18.43
X25.4Y15.89
X25.4Y13.35
X25.4Y10.81
X25.4Y8.27
X27.4Y79.39
X27.4Y76.85
X27.4Y74.31
X27.4Y71.77
X27.4Y69.23
X27.4Y66.69
X27.4Y64.15
X27.4Y61.61
X27.4Y59.07
X27.4Y56.53
X27.4Y53.99
X27.4Y51.45
X27.4Y48.91
X27.4Y38.75
X27.4Y36.21
X27.4Y33.67
X27.4Y31.13
X27.4Y28.59
X27.4Y26.05
X27.4Y23.51
X27.4Y20.97
X27.4Y18.43
X27.4Y15.89
X27.4Y13.35
X27.4Y10.81
X27.4Y8.27
X31.52Y47.33
X31.52Y40.33
X34.06Y47.33
X34.06Y40.33
X36.6Y47.33
X36.6Y40.33
X39.14Y47.33
X39.14Y40.33
X41.68Y47.33
X41.68Y40.33
X45.8Y79.39
X45.8Y76.85
X45.8Y74.31
X45.8Y71.77
X45.8Y69.23
X45.8Y66.69
X45.8Y64.15
X45.8Y61.61
X45.8Y59.07
X45.8Y56.53
X45.8Y53.99
X45.8Y51.45
X45.8Y48.91
X45.8Y38.75
X45.8Y36.21
X45.8Y33.67
X45.8Y31.13
X45.8Y28.59
X45.8Y26.05
X45.8Y23.51
X45.8Y20.97
X45.8Y18.43
X45.8Y15.89
X45.8Y13.35
X45.8Y10.81
X45.8Y8.27
X47.8Y79.39
X47.8Y76.85
X47.8Y74.31
X47.8Y71.77
X47.8Y69.23
X47.8Y66.69
X47.8Y64.15
X47.8Y61.61
X47.8Y59.07
X47.8Y56.53
X47.8Y53.99
X47.8Y51.45
X47.8Y48.91
X47.8Y38.75
X47.8Y36.21
X47.8Y33.67
X47.8Y31.13
X47.8Y28.59
X47.8Y26.05
X47.8Y23.51
X47.8Y20.97
X47.8Y18.43
X47.8Y15.89
X47.8Y13.35
X47.8Y10.81
X47.8Y8.27
X51.92Y47.33
X51.92Y40.33
X54.46Y47.33
X54.46Y40.33
X57.0Y47.33
X57.0Y40.33
X59.54Y47.33
X59.54Y40.33
X62.08Y47.33
X62.08Y40.33
X66.2Y79.39
X66.2Y76.85
X66.2Y74.31
X66.2Y71.77
X66.2Y69.23
X66.2Y66.69
X66.2Y64.15
X66.2Y61.61
X66.2Y59.07
X66.2Y56.53
X66.2Y53.99
X66.2Y51.45
X66.2Y48.91
X66.2Y38.75
X66.2Y36.21
X66.2Y33.67
X66.2Y31.13
X66.2Y28.59
X66.2Y26.05
X66.2Y23.51
X66.2Y20.97
X66.2Y18.43
X66.2Y15.89
X66.2Y13.35
X66.2Y10.81
X66.2Y8.27
X68.2Y79.39
X68.2Y76.85
X68.2Y74.31
X68.2Y71.77
X68.2Y69.23
X68.2Y66.69
X68.2Y64.15
X68.2Y61.61
X68.2Y59.07
X68.2Y56.53
X68.2Y53.99
X68.2Y51.45
X68.2Y48.91
X68.2Y38.75
X68.2Y36.21
X68.2Y33.67
X68.2Y31.13
X68.2Y28.59
X68.2Y26.05
X68.2Y23.51
X68.2Y20.97
X68.2Y18.43
X68.2Y15.89
X68.2Y13.35
X68.2Y10.81
X68.2Y8.27
X72.32Y47.33
X72.32Y40.33
X74.86Y47.33
X74.86Y40.33
X77.4Y47.33
X77.4Y40.33
X79.94Y47.33
X79.94Y40.33
X82.48Y47.33
X82.48Y40.33
X86.6Y79.39
X86.6Y76.85
X86.6Y74.31
X86.6Y71.77
X86.6Y69.23
X86.6Y66.69
X86.6Y64.15
X86.6Y61.61
X86.6Y59.07
X86.6Y56.53
X86.6Y53.99
X86.6Y51.45
X86.6Y48.91
X86.6Y38.75
X86.6Y36.21
X86.6Y33.67
X86.6Y31.13
X86.6Y28.59
X86.6Y26.05
X86.6Y23.51
X86.6Y20.97
X86.6Y18.43
X86.6Y15.89
X86.6Y13.35
X86.6Y10.81
X86.6Y8.27
X88.6Y79.39
X88.6Y76.85
X88.6Y74.31
X88.6Y71.77
X88.6Y69.23
X88.6Y66.69
X88.6Y64.15
X88.6Y61.61
X88.6Y59.07
X88.6Y56.53
X88.6Y53.99
X88.6Y51.45
X88.6Y48.91
X88.6Y38.75
X88.6Y36.21
X88.6Y33.67
X88.6Y31.13
X88.6Y28.59
X88.6Y26.05
X88.6Y23.51
X88.6Y20.97
X88.6Y18.43
X88.6Y15.89
X88.6Y13.35
X88.6Y10.81
X88.6Y8.27
X92.72Y47.33
X92.72Y40.33
X95.26Y47.33
X95.26Y40.33
X97.8Y47.33
X97.8Y40.33
X100.34Y47.33
X100.34Y40.33
X102.88Y47.33
X102.88Y40.33
X107.0Y79.39
X107.0Y76.85
X107.0Y74.31
X107.0Y71.77
X107.0Y69.23
X107.0Y66.69
X107.0Y64.15
X107.0Y61.61
X107.0Y59.07
X107.0Y56.53
X107.0Y53.99
X107.0Y51.45
X107.0Y48.91
X107.0Y38.75
X107.0Y36.21
X107.0Y33.67
X107.0Y31.13
X107.0Y28.59
X107.0Y26.05
X107.0Y23.51
X107.0Y20.97
X107.0Y18.43
X107.0Y15.89
X107.0Y13.35
X107.0Y10.81
X107.0Y8.27
T6
X0.0Y80.66
X0.0Y7.0
X0.625Y80.66
X0.625Y7.0
X1.25Y80.66
X1.25Y7.0
X1.875Y80.66
X1.875Y7.0
X2.5Y80.66
X2.5Y7.0
X3.125Y80.66
X3.125Y7.0
X3.75Y80.66
X3.75Y7.0
X4.375Y80.66
X4.375Y7.0
X5.0Y80.66
X5.0Y7.0
X7.0Y87.66
X7.0Y87.035
X7.0Y86.41
X7.0Y85.785
X7.0Y85.16
X7.0Y84.535
X7.0Y83.91
X7.0Y83.285
X7.0Y82.66
X7.0Y45.33
X7.0Y44.73
X7.0Y44.13
X7.0Y43.53
X7.0Y42.93
X7.0Y42.33
X7.0Y5.0
X7.0Y4.375
X7.0Y3.75
X7.0Y3.125
X7.0Y2.5
X7.0Y1.875
X7.0Y1.25
X7.0Y0.625
X7.0Y0.0
X7.925Y40.327
X7.935Y47.332
X8.065Y7.0
X8.075Y80.66
X8.592Y40.33
X8.602Y47.33
X8.665Y7.0
X8.675Y80.66
X9.258Y40.33
X9.265Y7.0
X9.268Y47.33
X9.275Y80.66
X9.865Y7.0
X9.875Y80.66
X9.925Y40.33
X9.935Y47.33
X10.465Y7.0
X10.475Y80.66
X11.065Y7.0
X11.075Y80.66
X21.325Y7.0
X21.335Y80.66
X21.925Y7.0
X21.935Y80.66
X22.465Y40.33
X22.475Y47.33
X22.525Y7.0
X22.535Y80.66
X23.125Y7.0
X23.132Y40.33
X23.135Y80.66
X23.142Y47.33
X23.725Y7.0
X23.735Y80.66
X23.798Y40.33
X23.808Y47.33
X24.325Y7.0
X24.335Y80.66
X24.465Y40.328
X24.475Y47.333
X26.4Y45.33
X26.4Y44.73
X26.4Y44.13
X26.4Y43.53
X26.4Y42.93
X26.4Y42.33
X28.325Y40.327
X28.335Y47.332
X28.465Y7.0
X28.475Y80.66
X28.992Y40.33
X29.002Y47.33
X29.065Y7.0
X29.075Y80.66
X29.658Y40.33
X29.665Y7.0
X29.668Y47.33
X29.675Y80.66
X30.265Y7.0
X30.275Y80.66
X30.325Y40.33
X30.335Y47.33
X30.865Y7.0
X30.875Y80.66
X31.465Y7.0
X31.475Y80.66
X41.725Y7.0
X41.735Y80.66
X42.325Y7.0
X42.335Y80.66
X42.865Y40.33
X42.875Y47.33
X42.925Y7.0
X42.935Y80.66
X43.525Y7.0
X43.532Y40.33
X43.535Y80.66
X43.542Y47.33
X44.125Y7.0
X44.135Y80.66
X44.198Y40.33
X44.208Y47.33
X44.725Y7.0
X44.735Y80.66
X44.865Y40.328
X44.875Y47.333
X46.8Y45.33
X46.8Y44.73
X46.8Y44.13
X46.8Y43.53
X46.8Y42.93
X46.8Y42.33
X48.725Y40.327
X48.735Y47.332
X48.865Y7.0
X48.875Y80.66
X49.392Y40.33
X49.402Y47.33
X49.465Y7.0
X49.475Y80.66
X50.058Y40.33
X50.065Y7.0
X50.068Y47.33
X50.075Y80.66
X50.665Y7.0
X50.675Y80.66
X50.725Y40.33
X50.735Y47.33
X51.265Y7.0
X51.275Y80.66
X51.865Y7.0
X51.875Y80.66
X62.125Y7.0
X62.135Y80.66
X62.725Y7.0
X62.735Y80.66
X63.265Y40.33
X63.275Y47.33
X63.325Y7.0
X63.335Y80.66
X63.925Y7.0
X63.932Y40.33
X63.935Y80.66
X63.942Y47.33
X64.525Y7.0
X64.535Y80.66
X64.598Y40.33
X64.608Y47.33
X65.125Y7.0
X65.135Y80.66
X65.265Y40.328
X65.275Y47.333
X67.2Y45.33
X67.2Y44.73
X67.2Y44.13
X67.2Y43.53
X67.2Y42.93
X67.2Y42.33
X69.125Y40.327
X69.135Y47.332
X69.265Y7.0
X69.275Y80.66
X69.792Y40.33
X69.802Y47.33
X69.865Y7.0
X69.875Y80.66
X70.458Y40.33
X70.465Y7.0
X70.468Y47.33
X70.475Y80.66
X71.065Y7.0
X71.075Y80.66
X71.125Y40.33
X71.135Y47.33
X71.665Y7.0
X71.675Y80.66
X72.265Y7.0
X72.275Y80.66
X82.525Y7.0
X82.535Y80.66
X83.125Y7.0
X83.135Y80.66
X83.665Y40.33
X83.675Y47.33
X83.725Y7.0
X83.735Y80.66
X84.325Y7.0
X84.332Y40.33
X84.335Y80.66
X84.342Y47.33
X84.925Y7.0
X84.935Y80.66
X84.998Y40.33
X85.008Y47.33
X85.525Y7.0
X85.535Y80.66
X85.665Y40.328
X85.675Y47.333
X87.6Y45.33
X87.6Y44.73
X87.6Y44.13
X87.6Y43.53
X87.6Y42.93
X87.6Y42.33
X89.525Y40.327
X89.535Y47.332
X89.665Y7.0
X89.675Y80.66
X90.192Y40.33
X90.202Y47.33
X90.265Y7.0
X90.275Y80.66
X90.858Y40.33
X90.865Y7.0
X90.868Y47.33
X90.875Y80.66
X91.465Y7.0
X91.475Y80.66
X91.525Y40.33
X91.535Y47.33
X92.065Y7.0
X92.075Y80.66
X92.665Y7.0
X92.675Y80.66
X102.925Y7.0
X102.935Y80.66
X103.525Y7.0
X103.535Y80.66
X104.065Y40.33
X104.075Y47.33
X104.125Y7.0
X104.135Y80.66
X104.725Y7.0
X104.732Y40.33
X104.735Y80.66
X104.742Y47.33
X105.325Y7.0
X105.335Y80.66
X105.398Y40.33
X105.408Y47.33
X105.925Y7.0
X105.935Y80.66
X106.065Y40.328
X106.075Y47.333
X107.0Y87.66
X107.0Y87.035
X107.0Y86.41
X107.0Y85.785
X107.0Y85.16
X107.0Y84.535
X107.0Y83.91
X107.0Y83.285
X107.0Y82.66
X107.0Y45.33
X107.0Y44.73
X107.0Y44.13
X107.0Y43.53
X107.0Y42.93
X107.0Y42.33
X107.0Y5.0
X107.0Y4.375
X107.0Y3.75
X107.0Y3.125
X107.0Y2.5
X107.0Y1.875
X107.0Y1.25
X107.0Y0.625
X107.0Y0.0
X109.0Y80.66
X109.0Y7.0
X109.625Y80.66
X109.625Y7.0
X110.25Y80.66
X110.25Y7.0
X110.875Y80.66
X110.875Y7.0
X111.5Y80.66
X111.5Y7.0
X112.125Y80.66
X112.125Y7.0
X112.75Y80.66
X112.75Y7.0
X113.375Y80.66
X113.375Y7.0
X114.0Y80.66
X114.0Y7.0
T7
X2.5Y85.16
X2.5Y2.5
X111.5Y85.16
T3
X10.625Y78.87G85X10.625Y79.97
G05
X10.625Y75.07G85X10.625Y75.77
G05
X10.625Y12.59G85X10.625Y11.89
G05
X10.625Y8.79G85X10.625Y7.69
G05
X21.775Y78.87G85X21.775Y79.97
G05
X21.775Y75.07G85X21.775Y75.77
G05
X21.775Y12.59G85X21.775Y11.89
G05
X21.775Y8.79G85X21.775Y7.69
G05
X31.025Y78.87G85X31.025Y79.97
G05
X31.025Y75.07G85X31.025Y75.77
G05
X31.025Y12.59G85X31.025Y11.89
G05
X31.025Y8.79G85X31.025Y7.69
G05
X42.175Y78.87G85X42.175Y79.97
G05
X42.175Y75.07G85X42.175Y75.77
G05
X42.175Y12.59G85X42.175Y11.89
G05
X42.175Y8.79G85X42.175Y7.69
G05
X51.425Y78.87G85X51.425Y79.97
G05
X51.425Y75.07G85X51.425Y75.77
G05
X51.425Y12.59G85X51.425Y11.89
G05
X51.425Y8.79G85X51.425Y7.69
G05
X62.575Y78.87G85X62.575Y79.97
G05
X62.575Y75.07G85X62.575Y75.77
G05
X62.575Y12.59G85X62.575Y11.89
G05
X62.575Y8.79G85X62.575Y7.69
G05
X71.825Y78.87G85X71.825Y79.97
G05
X71.825Y75.07G85X71.825Y75.77
G05
X71.825Y12.59G85X71.825Y11.89
G05
X71.825Y8.79G85X71.825Y7.69
G05
X82.975Y78.87G85X82.975Y79.97
G05
X82.975Y75.07G85X82.975Y75.77
G05
X82.975Y12.59G85X82.975Y11.89
G05
X82.975Y8.79G85X82.975Y7.69
G05
X92.225Y78.87G85X92.225Y79.97
G05
X92.225Y75.07G85X92.225Y75.77
G05
X92.225Y12.59G85X92.225Y11.89
G05
X92.225Y8.79G85X92.225Y7.69
G05
X103.375Y78.87G85X103.375Y79.97
G05
X103.375Y75.07G85X103.375Y75.77
G05
X103.375Y12.59G85X103.375Y11.89
G05
X103.375Y8.79G85X103.375Y7.69
G05
T0
M30
