G04 #@! TF.GenerationSoftware,KiCad,Pcbnew,7.0.0-da2b9df05c~165~ubuntu22.04.1*
G04 #@! TF.CreationDate,2023-08-03T16:43:10+00:00*
G04 #@! TF.ProjectId,helios-panel,68656c69-6f73-42d7-9061-6e656c2e6b69,rev1.0*
G04 #@! TF.SameCoordinates,Original*
G04 #@! TF.FileFunction,Profile,NP*
%FSLAX46Y46*%
G04 Gerber Fmt 4.6, Leading zero omitted, Abs format (unit mm)*
G04 Created by KiCad (PCBNEW 7.0.0-da2b9df05c~165~ubuntu22.04.1) date 2023-08-03 16:43:10*
%MOMM*%
%LPD*%
G01*
G04 APERTURE LIST*
G04 #@! TA.AperFunction,Profile*
%ADD10C,0.100000*%
G04 #@! TD*
G04 APERTURE END LIST*
D10*
X79615000Y43020000D02*
X79615000Y44020000D01*
X80117434Y76590585D02*
X80109764Y76640650D01*
X19515000Y71380000D02*
X10275000Y71380000D01*
X42549073Y38623956D02*
X42535528Y38674509D01*
X62362930Y6350319D02*
X62380521Y6302823D01*
X62402826Y38762651D02*
X62380521Y38717178D01*
X80015387Y44213948D02*
X80030381Y44234366D01*
X10265000Y11660000D02*
X19505000Y11660000D01*
X40055000Y44020001D02*
X40055000Y44020001D01*
X60825000Y39020000D02*
X60825000Y40020000D01*
X57065000Y6000000D02*
X57075000Y6000002D01*
X42324482Y44095678D02*
X42366052Y44124613D01*
X104190284Y82996941D02*
X104095090Y83020786D01*
X23544482Y44095678D02*
X23586052Y44124613D01*
X43060000Y43020000D02*
X42055000Y43020000D01*
X27285000Y39020000D02*
X27285000Y40020000D01*
X38285000Y11660000D02*
X38285000Y6000000D01*
X901982Y4816D02*
X1000000Y0D01*
X99900000Y78040000D02*
X99900000Y43020000D01*
X104455570Y168531D02*
X104534393Y226990D01*
X81422822Y38979479D02*
X81399802Y38968903D01*
X104282683Y82963880D02*
X104190284Y82996941D01*
X6002739Y76592265D02*
X6000000Y76540000D01*
X6015961Y38645327D02*
X6010235Y38620650D01*
X21275000Y44020001D02*
X21275000Y43020000D01*
X62468427Y76874566D02*
X62468427Y76874566D01*
X8505000Y39020000D02*
X8505000Y40020000D01*
X24780000Y76540000D02*
X24780000Y44520000D01*
X42060000Y44020000D02*
X42110584Y44022566D01*
X24884612Y38826053D02*
X24855677Y38784483D01*
X42497173Y44277350D02*
X42508902Y44299803D01*
X528603Y82921922D02*
X444429Y82871470D01*
X61104482Y76964323D02*
X61085000Y76975791D01*
X6024471Y44365492D02*
X6043227Y44316632D01*
X6089618Y6214366D02*
X6120620Y6174314D01*
X62666347Y38988877D02*
X62642822Y38979479D01*
X104095090Y83020786D02*
X103998017Y83035185D01*
X43715516Y38882397D02*
X43697603Y38864484D01*
X98400000Y39020000D02*
X98385000Y39020000D01*
X43664612Y6193948D02*
X43680620Y6174314D01*
X42112264Y39017261D02*
X42060000Y39020000D01*
X25285000Y39020000D02*
X25280000Y39020000D01*
X47835000Y77040000D02*
X47825000Y77039999D01*
X24795961Y38645327D02*
X24790235Y38620650D01*
X5000000Y5000000D02*
X5000000Y40020000D01*
X23280000Y44020000D02*
X23330584Y44022566D01*
X79670584Y44022566D02*
X79720649Y44030236D01*
X40045000Y40020000D02*
X40045000Y39020000D01*
X43688427Y76874566D02*
X43688427Y76874566D01*
X58835000Y44020001D02*
X58835000Y43020000D01*
X23633553Y6146447D02*
X23651572Y6165435D01*
X60840000Y39020000D02*
X60825000Y39020000D01*
X42305000Y78040000D02*
X43825000Y78040000D01*
X24813210Y76719184D02*
X24804471Y76694509D01*
X44060000Y44020001D02*
X44075000Y44020001D01*
X104673010Y82674394D02*
X104607106Y82747107D01*
X62595000Y6064210D02*
X62595000Y5000000D01*
X81393004Y44074498D02*
X81440816Y44053211D01*
X24802930Y38669682D02*
X24795961Y38645327D01*
X42544038Y76665327D02*
X42528876Y76713653D01*
X61060197Y44071098D02*
X61104482Y44095678D01*
X61259334Y6227681D02*
X61285502Y6273005D01*
X19525000Y77040000D02*
X19515000Y77040000D01*
X23769073Y38623956D02*
X23755528Y38674509D01*
X62855000Y43020000D02*
X61840000Y43020000D01*
X60965326Y44035962D02*
X61013652Y44051124D01*
X42332319Y6080666D02*
X42353892Y6095492D01*
X23777260Y6447736D02*
X23779999Y6500000D01*
X104673010Y365607D02*
X104731469Y444430D01*
X98897260Y38572265D02*
X98889073Y38623956D01*
X42413553Y38873554D02*
X42374659Y38908573D01*
X80120000Y76540000D02*
X80117434Y76590585D01*
X42516772Y38723369D02*
X42493012Y38770000D01*
X81160521Y38717178D02*
X81142930Y38669682D01*
X6024471Y76694509D02*
X6010926Y76643956D01*
X6370590Y44037038D02*
X6421782Y44026156D01*
X81122739Y44467736D02*
X81130926Y44416045D01*
X6374673Y39004039D02*
X6326347Y38988877D01*
X43560000Y76540000D02*
X43560000Y44520000D01*
X62714673Y39004039D02*
X62666347Y38988877D01*
X98597177Y44060522D02*
X98642650Y44082827D01*
X62460620Y6174314D02*
X62495516Y6137604D01*
X62845000Y40020000D02*
X62845000Y39020000D01*
X24782739Y76592265D02*
X24780000Y76540000D01*
X61075000Y5000000D02*
X61075000Y6059119D01*
X23651572Y38854566D02*
X23633553Y38873554D01*
X62619802Y38968903D02*
X62575517Y38944323D01*
X61296772Y38723369D02*
X61285502Y38746996D01*
X79905634Y44109619D02*
X79945686Y44140621D01*
X617316Y76121D02*
X709715Y43060D01*
X5000000Y78040000D02*
X6265000Y78040000D01*
X42439379Y44194314D02*
X42455387Y44213948D01*
X79723955Y39009074D02*
X79672264Y39017261D01*
X226989Y82674394D02*
X168530Y82595571D01*
X85385000Y6000000D02*
X85385000Y11660000D01*
X79720649Y44030236D02*
X79745326Y44035962D01*
X80104038Y44394674D02*
X80109764Y44419351D01*
X62350926Y44416045D02*
X62364471Y44365492D01*
X61154659Y38908573D02*
X61112319Y38939335D01*
X62505434Y76911573D02*
X62468427Y76874566D01*
X46075000Y44020001D02*
X58835000Y44020001D01*
X40055000Y44020001D02*
X40055000Y43020000D01*
X21265000Y39020000D02*
X8505000Y39020000D01*
X80120000Y38520000D02*
X80117260Y38572265D01*
X43611097Y38740198D02*
X43591123Y38693653D01*
X24860665Y44247681D02*
X24891427Y44205341D01*
X98503955Y39009074D02*
X98452264Y39017261D01*
X24994365Y6089619D02*
X25035000Y6064291D01*
X79855000Y6059119D02*
X79892319Y6080666D01*
X6279802Y38968903D02*
X6257349Y38957174D01*
X24908427Y76874566D02*
X24875491Y76833893D01*
X43664612Y38826053D02*
X43649618Y38805635D01*
X80117260Y6447736D02*
X80119999Y6500000D01*
X98795387Y44213948D02*
X98810381Y44234366D01*
X81313947Y6104613D02*
X81355517Y6075678D01*
X23594659Y6111428D02*
X23633553Y6146447D01*
X98900000Y76540000D02*
X98899358Y76565325D01*
X98753553Y6146447D02*
X98771572Y6165435D01*
X104880785Y82235091D02*
X104880785Y82235091D01*
X24926446Y76893554D02*
X24908427Y76874566D01*
X60835000Y44020000D02*
X60840000Y44020000D01*
X43577037Y76669410D02*
X43570926Y76643956D01*
X42431572Y6165435D02*
X42464508Y6206108D01*
X24965340Y76928573D02*
X24926446Y76893554D01*
X42374659Y38908573D02*
X42332319Y38939335D01*
X80057173Y76782651D02*
X80030381Y76825635D01*
X43984286Y39014235D02*
X43934673Y39004039D01*
X61277173Y44277350D02*
X61299478Y44322823D01*
X103900000Y83040000D02*
X1000000Y83040000D01*
X25280000Y44020001D02*
X25295000Y44020001D01*
X23684508Y38813893D02*
X23651572Y38854566D01*
X98400000Y44020000D02*
X98450584Y44022566D01*
X60892264Y39017261D02*
X60840000Y39020000D01*
X43614497Y76766996D02*
X43593210Y76719184D01*
X24280000Y43020000D02*
X23275000Y43020000D01*
X85385000Y77039999D02*
X85385000Y78040000D01*
X43753947Y38915388D02*
X43715516Y38882397D01*
X6000000Y76540000D02*
X6000000Y44520000D01*
X66605000Y6000000D02*
X66605000Y11660000D01*
X42394565Y6128428D02*
X42431572Y6165435D01*
X61329073Y6396045D02*
X61337260Y6447736D01*
X62383227Y44316632D02*
X62394497Y44293005D01*
X62444612Y38826053D02*
X62429618Y38805635D01*
X23453652Y44051124D02*
X23477177Y44060522D01*
X83625000Y39020000D02*
X83625000Y39020000D01*
X98859478Y76737178D02*
X98848902Y76760198D01*
X79620000Y44020000D02*
X79670584Y44022566D01*
X23780000Y44520000D02*
X23780000Y76540000D01*
X98706052Y44124613D02*
X98744483Y44157604D01*
X23684508Y6206108D02*
X23713012Y6250001D01*
X79855000Y5000000D02*
X79855000Y6059119D01*
X79620000Y39020000D02*
X79605000Y39020000D01*
X94635000Y71380000D02*
X85395000Y71380000D01*
X42209681Y44042931D02*
X42257177Y44060522D01*
X42455387Y44213948D02*
X42470381Y44234366D01*
X43565765Y6424287D02*
X43575961Y6374674D01*
X6040521Y38717178D02*
X6022930Y38669682D01*
X62486446Y44166447D02*
X62525340Y44131428D01*
X61104482Y44095678D02*
X61125634Y44109619D01*
X81375000Y6064210D02*
X81375000Y5000000D01*
X23764038Y76665327D02*
X23748876Y76713653D01*
X61019183Y38986790D02*
X60969409Y39002963D01*
X79749409Y39002963D02*
X79723955Y39009074D01*
X38295000Y6000002D02*
X38295000Y5000000D01*
X60969409Y39002963D02*
X60943955Y39009074D01*
X23704322Y76804483D02*
X23675387Y76846053D01*
X61840000Y43020000D02*
X60835000Y43020000D01*
X62855000Y44020001D02*
X62855000Y43020000D01*
X61340000Y44520000D02*
X61340000Y76540000D01*
X80008572Y38834660D02*
X79973553Y38873554D01*
X80015387Y76846053D02*
X79982396Y76884484D01*
X98804508Y38813893D02*
X98788572Y38834660D01*
X25295000Y43020000D02*
X24280000Y43020000D01*
X79991572Y6165435D02*
X80008572Y6185341D01*
X29055000Y77040000D02*
X29045000Y77039999D01*
X24782565Y6449416D02*
X24790235Y6399351D01*
X23773844Y6421783D02*
X23777260Y6447736D01*
X38285000Y6000000D02*
X38295000Y6000002D01*
X24855677Y38784483D02*
X24842826Y38762651D01*
X292893Y82747107D02*
X226989Y82674394D01*
X98450584Y44022566D02*
X98500649Y44030236D01*
X81440816Y44053211D02*
X81490590Y44037038D01*
X66615000Y77040000D02*
X66615000Y77040000D01*
X79865000Y76975791D02*
X79865000Y78040000D01*
X24780000Y6500000D02*
X24782565Y6449416D01*
X94645000Y78040000D02*
X94645000Y77040000D01*
X29035000Y6000000D02*
X29045000Y6000000D01*
X43715516Y6137604D02*
X43753947Y6104613D01*
X42055000Y43020000D02*
X42055000Y44020000D01*
X901982Y83035185D02*
X804909Y83020786D01*
X98645000Y76975710D02*
X98645000Y78040000D01*
X10275000Y77040000D02*
X10265000Y77039999D01*
X47835000Y77040000D02*
X47835000Y77040000D01*
X42305000Y76975791D02*
X42305000Y78040000D01*
X42493012Y38770000D02*
X42464508Y38813893D01*
X24908427Y76874566D02*
X24908427Y76874566D01*
X47835000Y71380000D02*
X47835000Y77040000D01*
X81313947Y38915388D02*
X81294313Y38899380D01*
X43934673Y39004039D02*
X43886347Y38988877D01*
X104731469Y444430D02*
X104781921Y528604D01*
X81130926Y44416045D02*
X81144471Y44365492D01*
X709715Y82996941D02*
X617316Y82963880D01*
X617316Y82963880D02*
X528603Y82921922D01*
X6500000Y44020001D02*
X6515000Y44020001D01*
X10255000Y5000000D02*
X10255000Y6000000D01*
X6227680Y44100666D02*
X6273004Y44074498D01*
X85385000Y78040000D02*
X94645000Y78040000D01*
X25154673Y39004039D02*
X25106347Y38988877D01*
X62845000Y39020000D02*
X62840000Y39020000D01*
X104856940Y82330285D02*
X104823879Y82422684D01*
X43725434Y44148428D02*
X43766107Y44115492D01*
X6273004Y44074498D02*
X6320816Y44053211D01*
X81620000Y44020001D02*
X81635000Y44020001D01*
X98859478Y44322823D02*
X98877069Y44370319D01*
X23777260Y38572265D02*
X23769073Y38623956D01*
X23332264Y39017261D02*
X23280000Y39020000D01*
X98819334Y6227681D02*
X98845502Y6273005D01*
X23525000Y78040000D02*
X25045000Y78040000D01*
X57075000Y71380000D02*
X47835000Y71380000D01*
X25007680Y44100666D02*
X25053004Y44074498D01*
X27285000Y40020000D02*
X40045000Y40020000D01*
X804909Y83020786D02*
X709715Y82996941D01*
X104880785Y82235091D02*
X104856940Y82330285D01*
X24790926Y76643956D02*
X24782739Y76592265D01*
X43825000Y78040000D02*
X43825000Y76980882D01*
X10275000Y77040000D02*
X10275000Y77040000D01*
X62477603Y38864484D02*
X62444612Y38826053D01*
X24795961Y6374674D02*
X24811123Y6326348D01*
X42464508Y6206108D02*
X42493012Y6250001D01*
X79884482Y76964323D02*
X79865000Y76975791D01*
X118078Y82511397D02*
X76120Y82422684D01*
X47825000Y77039999D02*
X47825000Y78040000D01*
X80039334Y6227681D02*
X80065502Y6273005D01*
X40045000Y39020000D02*
X27285000Y39020000D01*
X24842826Y38762651D02*
X24820521Y38717178D01*
X98833012Y38770000D02*
X98804508Y38813893D01*
X23769764Y76640650D02*
X23764038Y76665327D01*
X62575517Y38944323D02*
X62533947Y38915388D01*
X79615000Y44020000D02*
X79620000Y44020000D01*
X104607106Y292894D02*
X104673010Y365607D01*
X62840000Y39020000D02*
X62789415Y39017435D01*
X42431572Y38854566D02*
X42413553Y38873554D01*
X61299478Y76737178D02*
X61277173Y76782651D01*
X98452264Y39017261D02*
X98400000Y39020000D01*
X44060000Y39020000D02*
X44009415Y39017435D01*
X98866789Y6320817D02*
X98882962Y6370591D01*
X43886347Y38988877D02*
X43839802Y38968903D01*
X81375000Y5000000D02*
X79855000Y5000000D01*
X42535528Y38674509D02*
X42516772Y38723369D01*
X61322962Y6370591D02*
X61329073Y6396045D01*
X23275000Y44020000D02*
X23280000Y44020000D01*
X6473832Y44020686D02*
X6500000Y44020001D01*
X43815000Y5000000D02*
X42295000Y5000000D01*
X62364471Y76694509D02*
X62350926Y76643956D01*
X444429Y82871470D02*
X365606Y82813011D01*
X23755528Y38674509D02*
X23736772Y38723369D01*
X98685634Y44109619D02*
X98706052Y44124613D01*
X42508902Y76760198D02*
X42497173Y76782651D01*
X98899999Y6500000D02*
X98900000Y38520000D01*
X24782565Y38570585D02*
X24780000Y38520000D01*
X58835000Y44020001D02*
X58835000Y44020001D01*
X98779379Y76865687D02*
X98744483Y76902397D01*
X42559999Y6500000D02*
X42560000Y38520000D01*
X98884038Y44394674D02*
X98894234Y44444287D01*
X6051097Y6279803D02*
X6075677Y6235518D01*
X6000000Y43020000D02*
X5000000Y43020000D01*
X43787680Y76959335D02*
X43766107Y76944509D01*
X80065502Y6273005D02*
X80086789Y6320817D01*
X43640665Y44247681D02*
X43671427Y44205341D01*
X27285000Y40020000D02*
X27285000Y40020000D01*
X23459183Y38986790D02*
X23434508Y38995529D01*
X81635000Y43020000D02*
X80620000Y43020000D01*
X42439379Y76865687D02*
X42404483Y76902397D01*
X98884038Y76665327D02*
X98877069Y76689682D01*
X23265000Y39020000D02*
X23265000Y40020000D01*
X6193947Y38915388D02*
X6174313Y38899380D01*
X98672319Y6080666D02*
X98714659Y6111428D01*
X25285000Y40020000D02*
X25285000Y39020000D01*
X79991572Y6165435D02*
X79991572Y6165435D01*
X99900000Y40020000D02*
X99900000Y5000000D01*
X57075000Y6000002D02*
X57075000Y5000000D01*
X6146446Y44166447D02*
X6185340Y44131428D01*
X80065502Y38746996D02*
X80039334Y38792320D01*
X62761782Y44026156D02*
X62787735Y44022740D01*
X42324482Y76964323D02*
X42305000Y76975791D01*
X85385000Y11660000D02*
X94625000Y11660000D01*
X444429Y168531D02*
X528603Y118079D01*
X528603Y118079D02*
X617316Y76121D01*
X4815Y82138018D02*
X0Y82040000D01*
X98645000Y78040000D02*
X99900000Y78040000D01*
X80119999Y6500000D02*
X80120000Y38520000D01*
X81130926Y76643956D02*
X81122739Y76592265D01*
X38305000Y78040000D02*
X38305000Y77040000D01*
X57065000Y6000000D02*
X57065000Y6000000D01*
X47825000Y11660000D02*
X57065000Y11660000D01*
X96385000Y40020000D02*
X96385000Y39020000D01*
X804909Y19215D02*
X901982Y4816D01*
X104731469Y82595571D02*
X104673010Y82674394D01*
X23434508Y38995529D02*
X23383955Y39009074D01*
X24790235Y38620650D02*
X24782565Y38570585D01*
X103998017Y83035185D02*
X103900000Y83040000D01*
X104282683Y76121D02*
X104371396Y118079D01*
X23704322Y44255518D02*
X23717173Y44277350D01*
X64845000Y39020000D02*
X64845000Y40020000D01*
X168530Y444430D02*
X226989Y365607D01*
X80102962Y6370591D02*
X80109073Y6396045D01*
X10265000Y77039999D02*
X10265000Y78040000D01*
X77615000Y44020001D02*
X77615000Y44020001D01*
X81135961Y38645327D02*
X81130235Y38620650D01*
X61228572Y38834660D02*
X61193553Y38873554D01*
X79892319Y6080666D02*
X79934659Y6111428D01*
X19505000Y6000000D02*
X19505000Y6000000D01*
X62787735Y44022740D02*
X62840000Y44020001D01*
X46075000Y43020000D02*
X46075000Y44020001D01*
X79973553Y38873554D02*
X79934659Y38908573D01*
X6095491Y76833893D02*
X6080665Y76812320D01*
X94635000Y6000002D02*
X94635000Y5000000D01*
X24954313Y38899380D02*
X24917603Y38864484D01*
X23515000Y6059119D02*
X23552319Y6080666D01*
X6062826Y38762651D02*
X6040521Y38717178D01*
X23552319Y6080666D02*
X23594659Y6111428D01*
X81620000Y39020000D02*
X81569415Y39017435D01*
X81494673Y39004039D02*
X81446347Y38988877D01*
X6515000Y43020000D02*
X6000000Y43020000D01*
X58825000Y39020000D02*
X46065000Y39020000D01*
X42295000Y5000000D02*
X42295000Y6059119D01*
X98889073Y38623956D02*
X98875528Y38674509D01*
X43060000Y40020000D02*
X44065000Y40020000D01*
X98549681Y44042931D02*
X98597177Y44060522D01*
X43562739Y76592265D02*
X43560000Y76540000D01*
X6185340Y44131428D02*
X6227680Y44100666D01*
X25229415Y39017435D02*
X25204286Y39014235D01*
X104781921Y528604D02*
X104823879Y617317D01*
X6120620Y6174314D02*
X6155516Y6137604D01*
X19214Y804910D02*
X43059Y709716D01*
X80076772Y38723369D02*
X80065502Y38746996D01*
X79982396Y44175517D02*
X80015387Y44213948D01*
X81209618Y38805635D02*
X81182826Y38762651D01*
X42332319Y38939335D02*
X42286995Y38965503D01*
X42542962Y6370591D02*
X42549073Y6396045D01*
X6002565Y38570585D02*
X6000000Y38520000D01*
X25106347Y38988877D02*
X25059802Y38968903D01*
X61085000Y76975791D02*
X61085000Y78040000D01*
X98744483Y76902397D02*
X98706052Y76935388D01*
X61337260Y6447736D02*
X61339999Y6500000D01*
X6505000Y39020000D02*
X6500000Y39020000D01*
X6010926Y44416045D02*
X6024471Y44365492D01*
X29035000Y5000000D02*
X29035000Y6000000D01*
X80030381Y44234366D02*
X80057173Y44277350D01*
X80097069Y76689682D02*
X80079478Y76737178D01*
X66605000Y11660000D02*
X75845000Y11660000D01*
X24780000Y38520000D02*
X24780000Y6500000D01*
X43603227Y44316632D02*
X43626987Y44270001D01*
X42526789Y6320817D02*
X42542962Y6370591D01*
X23651572Y6165435D02*
X23684508Y6206108D01*
X23675387Y44213948D02*
X23704322Y44255518D01*
X79846995Y38965503D02*
X79799183Y38986790D01*
X98603368Y38976773D02*
X98554508Y38995529D01*
X44009415Y39017435D02*
X43984286Y39014235D01*
X24820521Y6302823D02*
X24831097Y6279803D01*
X6000000Y6500000D02*
X6002565Y6449416D01*
X42455387Y76846053D02*
X42439379Y76865687D01*
X62342565Y6449416D02*
X62350235Y6399351D01*
X6137603Y38864484D02*
X6104612Y38826053D01*
X42404483Y76902397D02*
X42366052Y76935388D01*
X60943955Y39009074D02*
X60892264Y39017261D01*
X25100816Y44053211D02*
X25150590Y44037038D01*
X81355517Y6075678D02*
X81375000Y6064210D01*
X43905491Y44044472D02*
X43956044Y44030927D01*
X104895184Y82138018D02*
X104880785Y82235091D01*
X43825000Y76980882D02*
X43787680Y76959335D01*
X43565765Y38595714D02*
X43562565Y38570585D01*
X79934659Y6111428D02*
X79954565Y6128428D01*
X43059Y709716D02*
X76120Y617317D01*
X98856772Y38723369D02*
X98833012Y38770000D01*
X46065000Y40020000D02*
X46065000Y40020000D01*
X24965340Y44131428D02*
X25007680Y44100666D01*
X81122739Y76592265D02*
X81120000Y76540000D01*
X24973947Y6104613D02*
X24994365Y6089619D01*
X104371396Y118079D02*
X104455570Y168531D01*
X6111427Y44205341D02*
X6146446Y44166447D01*
X98875528Y38674509D02*
X98856772Y38723369D01*
X80086789Y6320817D02*
X80102962Y6370591D01*
X6515000Y44020001D02*
X6515000Y43020000D01*
X23651572Y6165435D02*
X23651572Y6165435D01*
X5000000Y43020000D02*
X5000000Y78040000D01*
X81567735Y44022740D02*
X81620000Y44020001D01*
X81153210Y76719184D02*
X81144471Y76694509D01*
X81120000Y6500000D02*
X81122565Y6449416D01*
X61075000Y6059119D02*
X61112319Y6080666D01*
X61277173Y76782651D02*
X61250381Y76825635D01*
X42557260Y38572265D02*
X42549073Y38623956D01*
X104455570Y82871470D02*
X104371396Y82921922D01*
X24869618Y6214366D02*
X24900620Y6174314D01*
X62380521Y6302823D02*
X62391097Y6279803D01*
X24917603Y38864484D02*
X24884612Y38826053D01*
X6054497Y76766996D02*
X6033210Y76719184D01*
X62444612Y6193948D02*
X62460620Y6174314D01*
X62340000Y38520000D02*
X62340000Y6500000D01*
X98900000Y44520000D02*
X98900000Y76540000D01*
X23725502Y6273005D02*
X23746789Y6320817D01*
X42557434Y44469416D02*
X42560000Y44520000D01*
X85375000Y6000000D02*
X85385000Y6000000D01*
X42163955Y39009074D02*
X42112264Y39017261D01*
X42528876Y76713653D02*
X42508902Y76760198D01*
X24280000Y40020000D02*
X25285000Y40020000D01*
X61146052Y76935388D02*
X61104482Y76964323D01*
X43570926Y76643956D02*
X43562739Y76592265D01*
X6010235Y6399351D02*
X6015961Y6374674D01*
X75855000Y71380000D02*
X66615000Y71380000D01*
X61235387Y76846053D02*
X61202396Y76884484D01*
X98900000Y40020000D02*
X99900000Y40020000D01*
X83625000Y40020000D02*
X96385000Y40020000D01*
X6421782Y44026156D02*
X6473832Y44020686D01*
X104880785Y804910D02*
X104895184Y901983D01*
X292893Y292894D02*
X365606Y226990D01*
X43593210Y76719184D02*
X43577037Y76669410D01*
X61037177Y44060522D02*
X61060197Y44071098D01*
X43774365Y6089619D02*
X43815000Y6064291D01*
X61337260Y38572265D02*
X61329073Y38623956D01*
X43766107Y44115492D02*
X43810000Y44086988D01*
X98771572Y6165435D02*
X98804508Y6206108D01*
X43839802Y38968903D02*
X43817349Y38957174D01*
X61228572Y6185341D02*
X61259334Y6227681D01*
X99900000Y43020000D02*
X98900000Y43020000D01*
X23748876Y44346348D02*
X23764038Y44394674D01*
X24790235Y6399351D02*
X24795961Y6374674D01*
X43815000Y6064291D02*
X43815000Y5000000D01*
X98395000Y44020000D02*
X98400000Y44020000D01*
X6040521Y6302823D02*
X6051097Y6279803D01*
X43626987Y44270001D02*
X43640665Y44247681D01*
X104095090Y19215D02*
X104190284Y43060D01*
X6128427Y76874566D02*
X6095491Y76833893D01*
X6080665Y44247681D02*
X6111427Y44205341D01*
X62764286Y39014235D02*
X62714673Y39004039D01*
X24831097Y6279803D02*
X24855677Y6235518D01*
X23739478Y76737178D02*
X23717173Y76782651D01*
X77605000Y39020000D02*
X64845000Y39020000D01*
X98385000Y40020000D02*
X98900000Y40020000D01*
X62342565Y38570585D02*
X62340000Y38520000D01*
X79945686Y76919380D02*
X79926052Y76935388D01*
X81122565Y38570585D02*
X81120000Y38520000D01*
X43611097Y6279803D02*
X43635677Y6235518D01*
X6214365Y38930382D02*
X6193947Y38915388D01*
X24973947Y38915388D02*
X24954313Y38899380D01*
X25053004Y44074498D02*
X25100816Y44053211D01*
X42549073Y6396045D02*
X42557260Y6447736D01*
X6214365Y6089619D02*
X6255000Y6064291D01*
X61324038Y76665327D02*
X61317069Y76689682D01*
X62605000Y76980882D02*
X62567680Y76959335D01*
X61317069Y76689682D02*
X61299478Y76737178D01*
X77605000Y39020000D02*
X77605000Y39020000D01*
X6043227Y44316632D02*
X6054497Y44293005D01*
X27295000Y43020000D02*
X27295000Y44020001D01*
X81294313Y38899380D02*
X81257603Y38864484D01*
X57065000Y11660000D02*
X57065000Y6000000D01*
X80117260Y38572265D02*
X80109073Y38623956D01*
X80109764Y44419351D02*
X80117434Y44469416D01*
X81266446Y44166447D02*
X81305340Y44131428D01*
X103900000Y0D02*
X103998017Y4816D01*
X80109073Y6396045D02*
X80117260Y6447736D01*
X23275000Y43020000D02*
X23275000Y44020000D01*
X81231427Y76854660D02*
X81200665Y76812320D01*
X62495516Y6137604D02*
X62533947Y6104613D01*
X21275000Y43020000D02*
X8515000Y43020000D01*
X23330584Y44022566D02*
X23380649Y44030236D01*
X43810000Y44086988D02*
X43856631Y44063228D01*
X61840000Y40020000D02*
X62845000Y40020000D01*
X43725434Y76911573D02*
X43688427Y76874566D01*
X98845502Y6273005D02*
X98866789Y6320817D01*
X79945686Y44140621D02*
X79982396Y44175517D01*
X25204286Y39014235D02*
X25154673Y39004039D01*
X80620000Y43020000D02*
X79615000Y43020000D01*
X104856940Y709716D02*
X104880785Y804910D01*
X43591123Y38693653D02*
X43575961Y38645327D01*
X43697603Y38864484D02*
X43664612Y38826053D01*
X43655491Y76833893D02*
X43640665Y76812320D01*
X85395000Y77040000D02*
X85395000Y77040000D01*
X62355961Y6374674D02*
X62362930Y6350319D01*
X23633553Y38873554D02*
X23594659Y38908573D01*
X98554508Y38995529D02*
X98503955Y39009074D01*
X80120000Y44520000D02*
X80120000Y76540000D01*
X80030381Y76825635D02*
X80015387Y76846053D01*
X98894234Y44444287D02*
X98899358Y44494676D01*
X43570926Y44416045D02*
X43584471Y44365492D01*
X8505000Y40020000D02*
X21265000Y40020000D01*
X47815000Y5000000D02*
X47815000Y6000000D01*
X24834497Y76766996D02*
X24813210Y76719184D01*
X19214Y82235091D02*
X4815Y82138018D01*
X5000000Y40020000D02*
X6000000Y40020000D01*
X96395000Y43020000D02*
X83635000Y43020000D01*
X104781921Y82511397D02*
X104731469Y82595571D01*
X23405326Y44035962D02*
X23453652Y44051124D01*
X43600521Y6302823D02*
X43611097Y6279803D01*
X98848902Y76760198D02*
X98824322Y76804483D01*
X62342739Y76592265D02*
X62340000Y76540000D01*
X47825000Y78040000D02*
X57085000Y78040000D01*
X98635000Y5000000D02*
X98635000Y6059119D01*
X58825000Y40020000D02*
X58825000Y39020000D01*
X42257177Y44060522D02*
X42302650Y44082827D01*
X43622826Y38762651D02*
X43611097Y38740198D01*
X118078Y528604D02*
X168530Y444430D01*
X61202396Y44175517D02*
X61235387Y44213948D01*
X42493012Y6250001D02*
X42505502Y6273005D01*
X8505000Y39020000D02*
X8505000Y39020000D01*
X98450584Y44022566D02*
X98450584Y44022566D01*
X62533947Y38915388D02*
X62514313Y38899380D01*
X24782739Y44467736D02*
X24790926Y44416045D01*
X79793652Y44051124D02*
X79817177Y44060522D01*
X80117434Y44469416D02*
X80120000Y44520000D01*
X98894234Y76615714D02*
X98884038Y76665327D01*
X23594659Y38908573D02*
X23552319Y38939335D01*
X6080665Y76812320D02*
X6080665Y76812320D01*
X10255000Y6000000D02*
X10265000Y6000000D01*
X75865000Y78040000D02*
X75865000Y77040000D01*
X6255000Y5000000D02*
X5000000Y5000000D01*
X42160649Y44030236D02*
X42185326Y44035962D01*
X62525340Y76928573D02*
X62505434Y76911573D01*
X44007735Y44022740D02*
X44060000Y44020001D01*
X61174565Y6128428D02*
X61211572Y6165435D01*
X43562739Y44467736D02*
X43570926Y44416045D01*
X79892319Y38939335D02*
X79846995Y38965503D01*
X47825000Y6000000D02*
X47825000Y11660000D01*
X23477177Y44060522D02*
X23522650Y44082827D01*
X98900000Y43020000D02*
X98395000Y43020000D01*
X60835000Y43020000D02*
X60835000Y44020000D01*
X23780000Y76540000D02*
X23777434Y76590585D01*
X42470381Y76825635D02*
X42455387Y76846053D01*
X81240620Y6174314D02*
X81275516Y6137604D01*
X43560000Y38520000D02*
X43560000Y6500000D01*
X23713012Y38770000D02*
X23684508Y38813893D01*
X98395000Y43020000D02*
X98395000Y44020000D01*
X98804508Y6206108D02*
X98819334Y6227681D01*
X6075677Y6235518D02*
X6089618Y6214366D01*
X98795387Y76846053D02*
X98779379Y76865687D01*
X4815Y901983D02*
X19214Y804910D01*
X62451427Y76854660D02*
X62420665Y76812320D01*
X25253832Y44020686D02*
X25280000Y44020001D01*
X76120Y617317D02*
X118078Y528604D01*
X66605000Y78040000D02*
X75865000Y78040000D01*
X85375000Y5000000D02*
X85375000Y6000000D01*
X23748876Y76713653D02*
X23739478Y76737178D01*
X81163227Y44316632D02*
X81174497Y44293005D01*
X24900620Y6174314D02*
X24935516Y6137604D01*
X61125634Y44109619D02*
X61165686Y44140621D01*
X43753947Y6104613D02*
X43774365Y6089619D01*
X42554234Y44444287D02*
X42557434Y44469416D01*
X81200665Y44247681D02*
X81231427Y44205341D01*
X6010926Y76643956D02*
X6002739Y76592265D01*
X6257349Y38957174D02*
X6214365Y38930382D01*
X38295000Y77040000D02*
X38295000Y71380000D01*
X6500000Y39020000D02*
X6449415Y39017435D01*
X42110584Y44022566D02*
X42160649Y44030236D01*
X25045000Y76980882D02*
X25007680Y76959335D01*
X75855000Y77040000D02*
X75855000Y71380000D01*
X81355517Y38944323D02*
X81313947Y38915388D01*
X43575961Y38645327D02*
X43565765Y38595714D01*
X6033210Y76719184D02*
X6024471Y76694509D01*
X23586052Y76935388D02*
X23544482Y76964323D01*
X62575517Y6075678D02*
X62595000Y6064210D01*
X61250381Y44234366D02*
X61277173Y44277350D01*
X8515000Y43020000D02*
X8515000Y44020001D01*
X60825000Y40020000D02*
X61840000Y40020000D01*
X24811123Y6326348D02*
X24820521Y6302823D01*
X62340000Y6500000D02*
X62342565Y6449416D01*
X24820521Y38717178D02*
X24802930Y38669682D01*
X79884482Y44095678D02*
X79905634Y44109619D01*
X43774365Y38930382D02*
X43753947Y38915388D01*
X42431572Y6165435D02*
X42431572Y6165435D01*
X42295000Y6059119D02*
X42332319Y6080666D01*
X23769764Y44419351D02*
X23777434Y44469416D01*
X81399802Y38968903D02*
X81355517Y38944323D01*
X19515000Y6000002D02*
X19515000Y5000000D01*
X42560000Y44520000D02*
X42560000Y76540000D01*
X42286995Y38965503D02*
X42239183Y38986790D01*
X42366052Y44124613D02*
X42404483Y44157604D01*
X61211572Y6165435D02*
X61211572Y6165435D01*
X85395000Y77040000D02*
X85385000Y77039999D01*
X23586052Y44124613D02*
X23624483Y44157604D01*
X25045000Y78040000D02*
X25045000Y76980882D01*
X61306789Y6320817D02*
X61322962Y6370591D01*
X23764038Y44394674D02*
X23769764Y44419351D01*
X81275516Y6137604D02*
X81313947Y6104613D01*
X23624483Y44157604D02*
X23642396Y44175517D01*
X104900000Y82040000D02*
X104895184Y82138018D01*
X46065000Y39020000D02*
X46065000Y40020000D01*
X61250381Y76825635D02*
X61235387Y76846053D01*
X0Y82040000D02*
X0Y1000000D01*
X98779379Y44194314D02*
X98795387Y44213948D01*
X42366052Y76935388D02*
X42324482Y76964323D01*
X62451427Y44205341D02*
X62486446Y44166447D01*
X24875491Y76833893D02*
X24860665Y76812320D01*
X1000000Y83040000D02*
X901982Y83035185D01*
X38285000Y6000000D02*
X38285000Y6000000D01*
X25201782Y44026156D02*
X25253832Y44020686D01*
X62350926Y76643956D02*
X62342739Y76592265D01*
X80039334Y38792320D02*
X80008572Y38834660D01*
X23779999Y6500000D02*
X23780000Y38520000D01*
X80104038Y76665327D02*
X80097069Y76689682D01*
X23642396Y76884484D02*
X23624483Y76902397D01*
X42557260Y6447736D02*
X42559999Y6500000D01*
X64845000Y40020000D02*
X77605000Y40020000D01*
X19525000Y78040000D02*
X19525000Y77040000D01*
X61285502Y38746996D02*
X61259334Y38792320D01*
X98788572Y38834660D02*
X98753553Y38873554D01*
X43059Y82330285D02*
X19214Y82235091D01*
X25007680Y76959335D02*
X24965340Y76928573D01*
X81195677Y6235518D02*
X81224612Y6193948D01*
X60940649Y44030236D02*
X60965326Y44035962D01*
X23380649Y44030236D02*
X23405326Y44035962D01*
X104534393Y82813011D02*
X104455570Y82871470D01*
X81120000Y44520000D02*
X81122739Y44467736D01*
X62340000Y76540000D02*
X62340000Y44520000D01*
X43560000Y6500000D02*
X43562565Y6449416D01*
X81569415Y39017435D02*
X81544286Y39014235D01*
X61165686Y76919380D02*
X61146052Y76935388D01*
X98706052Y76935388D02*
X98685634Y76950382D01*
X57075000Y5000000D02*
X47815000Y5000000D01*
X38295000Y71380000D02*
X29055000Y71380000D01*
X62595000Y5000000D02*
X61075000Y5000000D01*
X42045000Y39020000D02*
X42045000Y40020000D01*
X62362930Y38669682D02*
X62355961Y38645327D01*
X61329764Y44419351D02*
X61337434Y44469416D01*
X81224612Y38826053D02*
X81209618Y38805635D01*
X6000000Y44520000D02*
X6002739Y44467736D01*
X23544482Y76964323D02*
X23525000Y76975791D01*
X6155516Y6137604D02*
X6193947Y6104613D01*
X42055000Y44020000D02*
X42060000Y44020000D01*
X61235387Y44213948D02*
X61250381Y44234366D01*
X23675387Y76846053D02*
X23642396Y76884484D01*
X23522650Y44082827D02*
X23544482Y44095678D01*
X81347680Y44100666D02*
X81393004Y44074498D01*
X61315528Y38674509D02*
X61296772Y38723369D01*
X98693892Y38924509D02*
X98649999Y38953013D01*
X62394497Y44293005D02*
X62420665Y44247681D01*
X66615000Y71380000D02*
X66615000Y77040000D01*
X43956044Y44030927D02*
X44007735Y44022740D01*
X6000000Y40020000D02*
X6505000Y40020000D01*
X23780000Y38520000D02*
X23777260Y38572265D01*
X6104612Y38826053D02*
X6075677Y38784483D01*
X6193947Y6104613D02*
X6214365Y6089619D01*
X94635000Y77040000D02*
X94635000Y71380000D01*
X98635000Y6059119D02*
X98672319Y6080666D01*
X98714659Y6111428D02*
X98753553Y6146447D01*
X98897260Y6447736D02*
X98899999Y6500000D01*
X42302650Y44082827D02*
X42324482Y44095678D01*
X42544038Y44394674D02*
X42554234Y44444287D01*
X6010235Y38620650D02*
X6002565Y38570585D01*
X104534393Y226990D02*
X104607106Y292894D01*
X46065000Y40020000D02*
X58825000Y40020000D01*
X104190284Y43060D02*
X104282683Y76121D01*
X94625000Y11660000D02*
X94625000Y6000000D01*
X98771572Y6165435D02*
X98771572Y6165435D01*
X57085000Y77040000D02*
X57075000Y77040000D01*
X81625000Y39020000D02*
X81620000Y39020000D01*
X23717173Y44277350D02*
X23739478Y44322823D01*
X98685634Y76950382D02*
X98645000Y76975710D01*
X83625000Y39020000D02*
X83625000Y40020000D01*
X62840000Y44020001D02*
X62855000Y44020001D01*
X81347680Y76959335D02*
X81305340Y76928573D01*
X75865000Y77040000D02*
X75855000Y77040000D01*
X103998017Y4816D02*
X104095090Y19215D01*
X43575961Y6374674D02*
X43591123Y6326348D01*
X75855000Y6000002D02*
X75855000Y5000000D01*
X75845000Y6000000D02*
X75845000Y6000000D01*
X62394497Y76766996D02*
X62373210Y76719184D01*
X6031123Y6326348D02*
X6040521Y6302823D01*
X43817349Y38957174D02*
X43774365Y38930382D01*
X98882962Y6370591D02*
X98889073Y6396045D01*
X42528876Y44346348D02*
X42544038Y44394674D01*
X62567680Y44100666D02*
X62613004Y44074498D01*
X19515000Y5000000D02*
X10255000Y5000000D01*
X42060000Y39020000D02*
X42045000Y39020000D01*
X43562565Y38570585D02*
X43560000Y38520000D01*
X6002739Y44467736D02*
X6010926Y44416045D01*
X104895184Y901983D02*
X104900000Y1000000D01*
X24804471Y44365492D02*
X24823227Y44316632D01*
X23552319Y38939335D02*
X23506995Y38965503D01*
X98649999Y38953013D02*
X98603368Y38976773D01*
X61340000Y38520000D02*
X61337260Y38572265D01*
X6320816Y44053211D02*
X6370590Y44037038D01*
X40055000Y43020000D02*
X27295000Y43020000D01*
X80057173Y44277350D02*
X80079478Y44322823D01*
X66605000Y77039999D02*
X66605000Y78040000D01*
X43671427Y44205341D02*
X43706446Y44166447D01*
X77605000Y40020000D02*
X77605000Y39020000D01*
X66595000Y6000000D02*
X66605000Y6000000D01*
X61165686Y44140621D02*
X61202396Y44175517D01*
X62660816Y44053211D02*
X62710590Y44037038D01*
X75845000Y11660000D02*
X75845000Y6000000D01*
X61329764Y76640650D02*
X61324038Y76665327D01*
X29045000Y78040000D02*
X38305000Y78040000D01*
X10265000Y6000000D02*
X10265000Y11660000D01*
X104900000Y1000000D02*
X104900000Y82040000D01*
X61337434Y76590585D02*
X61329764Y76640650D01*
X62514313Y38899380D02*
X62477603Y38864484D01*
X23642396Y44175517D02*
X23675387Y44213948D01*
X10275000Y71380000D02*
X10275000Y77040000D01*
X19505000Y11660000D02*
X19505000Y6000000D01*
X29045000Y6000000D02*
X29045000Y11660000D01*
X61085000Y78040000D02*
X62605000Y78040000D01*
X79799183Y38986790D02*
X79749409Y39002963D01*
X24855677Y6235518D02*
X24869618Y6214366D01*
X6075677Y38784483D02*
X6062826Y38762651D01*
X79840197Y44071098D02*
X79884482Y44095678D01*
X61112319Y6080666D02*
X61154659Y6111428D01*
X25295000Y44020001D02*
X25295000Y43020000D01*
X81182826Y38762651D02*
X81160521Y38717178D01*
X25280000Y39020000D02*
X25229415Y39017435D01*
X81120000Y76540000D02*
X81120000Y44520000D01*
X81385000Y76980882D02*
X81347680Y76959335D01*
X24935516Y6137604D02*
X24973947Y6104613D01*
X79817177Y44060522D02*
X79840197Y44071098D01*
X29055000Y71380000D02*
X29055000Y77040000D01*
X23777434Y76590585D02*
X23769764Y76640650D01*
X6174313Y38899380D02*
X6137603Y38864484D01*
X24804471Y76694509D02*
X24790926Y76643956D01*
X98642650Y44082827D02*
X98685634Y44109619D01*
X25035000Y6064291D02*
X25035000Y5000000D01*
X43591123Y6326348D02*
X43600521Y6302823D01*
X62342739Y44467736D02*
X62350926Y44416045D01*
X62340000Y44520000D02*
X62342739Y44467736D01*
X24823227Y44316632D02*
X24834497Y44293005D01*
X96385000Y39020000D02*
X83625000Y39020000D01*
X81248427Y76874566D02*
X81231427Y76854660D01*
X25150590Y44037038D02*
X25201782Y44026156D01*
X29045000Y77039999D02*
X29045000Y78040000D01*
X61337434Y44469416D02*
X61340000Y44520000D01*
X85395000Y71380000D02*
X85395000Y77040000D01*
X64855000Y43020000D02*
X64855000Y44020001D01*
X80095528Y38674509D02*
X80076772Y38723369D01*
X23717173Y76782651D02*
X23704322Y76804483D01*
X42560000Y76540000D02*
X42557434Y76590585D01*
X44075000Y43020000D02*
X43060000Y43020000D01*
X80620000Y40020000D02*
X81625000Y40020000D01*
X42214508Y38995529D02*
X42163955Y39009074D01*
X23736772Y38723369D02*
X23713012Y38770000D01*
X81122565Y6449416D02*
X81130235Y6399351D01*
X62350235Y6399351D02*
X62355961Y6374674D01*
X62710590Y44037038D02*
X62761782Y44026156D01*
X104823879Y82422684D02*
X104781921Y82511397D01*
X81541782Y44026156D02*
X81567735Y44022740D01*
X80008572Y6185341D02*
X80039334Y6227681D01*
X23515000Y5000000D02*
X23515000Y6059119D01*
X61299478Y44322823D02*
X61317069Y44370319D01*
X42045000Y40020000D02*
X43060000Y40020000D01*
X6185340Y76928573D02*
X6146446Y76893554D01*
X21265000Y40020000D02*
X21265000Y39020000D01*
X44065000Y40020000D02*
X44065000Y39020000D01*
X79745326Y44035962D02*
X79793652Y44051124D01*
X94625000Y6000000D02*
X94635000Y6000002D01*
X6449415Y39017435D02*
X6449415Y39017435D01*
X43688427Y76874566D02*
X43655491Y76833893D01*
X168530Y82595571D02*
X118078Y82511397D01*
X6015961Y6374674D02*
X6031123Y6326348D01*
X62420665Y76812320D02*
X62394497Y76766996D01*
X61317069Y44370319D02*
X61324038Y44394674D01*
X57085000Y78040000D02*
X57085000Y77040000D01*
X62605000Y78040000D02*
X62605000Y76980882D01*
X81635000Y44020001D02*
X81635000Y43020000D01*
X80079478Y44322823D02*
X80097069Y44370319D01*
X81142930Y38669682D02*
X81135961Y38645327D01*
X42505502Y6273005D02*
X42526789Y6320817D01*
X61340000Y76540000D02*
X61337434Y76590585D01*
X81144471Y44365492D02*
X81163227Y44316632D01*
X83635000Y43020000D02*
X83635000Y44020001D01*
X62364471Y44365492D02*
X62383227Y44316632D01*
X6080665Y76812320D02*
X6054497Y76766996D01*
X42185326Y44035962D02*
X42209681Y44042931D01*
X29045000Y11660000D02*
X38285000Y11660000D01*
X98877069Y76689682D02*
X98859478Y76737178D01*
X43649618Y38805635D02*
X43622826Y38762651D01*
X62355961Y38645327D02*
X62350235Y38620650D01*
X62525340Y44131428D02*
X62567680Y44100666D01*
X96395000Y44020001D02*
X96395000Y43020000D01*
X6054497Y44293005D02*
X6080665Y44247681D01*
X6265000Y76980882D02*
X6227680Y76959335D01*
X6000000Y38520000D02*
X6000000Y6500000D01*
X24834497Y44293005D02*
X24860665Y44247681D01*
X61329073Y38623956D02*
X61315528Y38674509D01*
X47815000Y6000000D02*
X47825000Y6000000D01*
X42404483Y44157604D02*
X42439379Y44194314D01*
X81130235Y6399351D02*
X81135961Y6374674D01*
X62373210Y76719184D02*
X62364471Y76694509D01*
X98899358Y44494676D02*
X98900000Y44520000D01*
X23762962Y6370591D02*
X23773844Y6421783D01*
X709715Y43060D02*
X804909Y19215D01*
X61193553Y38873554D02*
X61154659Y38908573D01*
X44065000Y39020000D02*
X44060000Y39020000D01*
X61013652Y44051124D02*
X61037177Y44060522D01*
X61324038Y44394674D02*
X61329764Y44419351D01*
X25037349Y38957174D02*
X24994365Y38930382D01*
X43766107Y76944509D02*
X43725434Y76911573D01*
X62415677Y6235518D02*
X62444612Y6193948D01*
X43560000Y44520000D02*
X43562739Y44467736D01*
X79926052Y76935388D02*
X79884482Y76964323D01*
X94645000Y77040000D02*
X94635000Y77040000D01*
X42470381Y44234366D02*
X42497173Y44277350D01*
X62789415Y39017435D02*
X62764286Y39014235D01*
X98810381Y44234366D02*
X98837173Y44277350D01*
X365606Y226990D02*
X444429Y168531D01*
X81130235Y38620650D02*
X81122565Y38570585D01*
X23525000Y76975791D02*
X23525000Y78040000D01*
X79865000Y78040000D02*
X81385000Y78040000D01*
X38295000Y5000000D02*
X29035000Y5000000D01*
X42557434Y76590585D02*
X42554234Y76615714D01*
X98899358Y76565325D02*
X98894234Y76615714D01*
X43584471Y44365492D02*
X43603227Y44316632D01*
X42508902Y44299803D02*
X42528876Y44346348D01*
X60890584Y44022566D02*
X60940649Y44030236D01*
X104371396Y82921922D02*
X104282683Y82963880D01*
X24780000Y44520000D02*
X24782739Y44467736D01*
X94625000Y6000000D02*
X94625000Y6000000D01*
X81305340Y44131428D02*
X81347680Y44100666D01*
X98714659Y38908573D02*
X98693892Y38924509D01*
X83635000Y44020001D02*
X96395000Y44020001D01*
X98500649Y44030236D02*
X98525326Y44035962D01*
X80079478Y76737178D02*
X80057173Y76782651D01*
X6505000Y40020000D02*
X6505000Y39020000D01*
X42353892Y6095492D02*
X42394565Y6128428D01*
X98753553Y38873554D02*
X98714659Y38908573D01*
X98385000Y39020000D02*
X98385000Y40020000D01*
X62380521Y38717178D02*
X62362930Y38669682D01*
X6022930Y38669682D02*
X6015961Y38645327D01*
X75855000Y5000000D02*
X66595000Y5000000D01*
X226989Y365607D02*
X292893Y292894D01*
X23739478Y44322823D02*
X23748876Y44346348D01*
X98744483Y44157604D02*
X98779379Y44194314D01*
X81120000Y38520000D02*
X81120000Y6500000D01*
X6255000Y6064291D02*
X6255000Y5000000D01*
X62420665Y44247681D02*
X62451427Y44205341D01*
X66595000Y5000000D02*
X66595000Y6000000D01*
X61339999Y6500000D02*
X61340000Y38520000D01*
X80109073Y38623956D02*
X80095528Y38674509D01*
X61066995Y38965503D02*
X61019183Y38986790D01*
X6002565Y6449416D02*
X6010235Y6399351D01*
X81544286Y39014235D02*
X81494673Y39004039D01*
X81174497Y76766996D02*
X81153210Y76719184D01*
X23383955Y39009074D02*
X23332264Y39017261D01*
X81285434Y76911573D02*
X81248427Y76874566D01*
X98525326Y44035962D02*
X98549681Y44042931D01*
X60840000Y44020000D02*
X60890584Y44022566D01*
X6265000Y78040000D02*
X6265000Y76980882D01*
X94635000Y5000000D02*
X85375000Y5000000D01*
X38305000Y77040000D02*
X38295000Y77040000D01*
X81248427Y76874566D02*
X81248427Y76874566D01*
X64855000Y44020001D02*
X77615000Y44020001D01*
X24926446Y44166447D02*
X24965340Y44131428D01*
X23506995Y38965503D02*
X23459183Y38986790D01*
X81135961Y6374674D02*
X81142930Y6350319D01*
X99900000Y5000000D02*
X98635000Y5000000D01*
X81171097Y6279803D02*
X81195677Y6235518D01*
X81142930Y6350319D02*
X81160521Y6302823D01*
X43680620Y6174314D02*
X43715516Y6137604D01*
X23624483Y76902397D02*
X23586052Y76935388D01*
X61259334Y38792320D02*
X61228572Y38834660D01*
X79982396Y76884484D02*
X79945686Y76919380D01*
X98824322Y76804483D02*
X98795387Y76846053D01*
X6449415Y39017435D02*
X6424286Y39014235D01*
X43640665Y76812320D02*
X43614497Y76766996D01*
X61211572Y6165435D02*
X61228572Y6185341D01*
X23265000Y40020000D02*
X24280000Y40020000D01*
X42560000Y38520000D02*
X42557260Y38572265D01*
X98900000Y38520000D02*
X98897260Y38572265D01*
X81446347Y38988877D02*
X81422822Y38979479D01*
X23713012Y6250001D02*
X23725502Y6273005D01*
X6424286Y39014235D02*
X6374673Y39004039D01*
X23280000Y39020000D02*
X23265000Y39020000D01*
X62391097Y6279803D02*
X62415677Y6235518D01*
X24994365Y38930382D02*
X24973947Y38915388D01*
X23746789Y6320817D02*
X23762962Y6370591D01*
X6227680Y76959335D02*
X6185340Y76928573D01*
X77615000Y44020001D02*
X77615000Y43020000D01*
X6146446Y76893554D02*
X6128427Y76874566D01*
X79605000Y40020000D02*
X80620000Y40020000D01*
X61285502Y6273005D02*
X61306789Y6320817D01*
X62350235Y38620650D02*
X62342565Y38570585D01*
X57075000Y77040000D02*
X57075000Y71380000D01*
X75845000Y6000000D02*
X75855000Y6000002D01*
X21275000Y43020000D02*
X21275000Y43020000D01*
X58835000Y43020000D02*
X46075000Y43020000D01*
X43856631Y44063228D02*
X43905491Y44044472D01*
X81174497Y44293005D02*
X81200665Y44247681D01*
X24790926Y44416045D02*
X24804471Y44365492D01*
X23777434Y44469416D02*
X23780000Y44520000D01*
X79934659Y38908573D02*
X79892319Y38939335D01*
X42464508Y38813893D02*
X42431572Y38854566D01*
X42239183Y38986790D02*
X42214508Y38995529D01*
X43635677Y6235518D02*
X43664612Y6193948D01*
X98877069Y44370319D02*
X98884038Y44394674D01*
X62642822Y38979479D02*
X62619802Y38968903D01*
X44075000Y44020001D02*
X44075000Y43020000D01*
X79954565Y6128428D02*
X79991572Y6165435D01*
X62429618Y38805635D02*
X62402826Y38762651D01*
X6326347Y38988877D02*
X6279802Y38968903D01*
X98889073Y6396045D02*
X98897260Y6447736D01*
X8515000Y44020001D02*
X21275000Y44020001D01*
X98837173Y44277350D02*
X98859478Y44322823D01*
X24891427Y44205341D02*
X24926446Y44166447D01*
X81257603Y38864484D02*
X81224612Y38826053D01*
X81200665Y76812320D02*
X81174497Y76766996D01*
X0Y1000000D02*
X4815Y901983D01*
X81160521Y6302823D02*
X81171097Y6279803D01*
X81490590Y44037038D02*
X81541782Y44026156D01*
X66615000Y77040000D02*
X66605000Y77039999D01*
X43562565Y6449416D02*
X43565765Y6424287D01*
X43706446Y44166447D02*
X43725434Y44148428D01*
X42554234Y76615714D02*
X42544038Y76665327D01*
X62567680Y76959335D02*
X62525340Y76928573D01*
X61154659Y6111428D02*
X61174565Y6128428D01*
X81385000Y78040000D02*
X81385000Y76980882D01*
X77615000Y43020000D02*
X64855000Y43020000D01*
X81625000Y40020000D02*
X81625000Y39020000D01*
X42497173Y76782651D02*
X42470381Y76825635D01*
X29055000Y77040000D02*
X29055000Y77040000D01*
X1000000Y0D02*
X103900000Y0D01*
X61112319Y38939335D02*
X61066995Y38965503D01*
X25059802Y38968903D02*
X25037349Y38957174D01*
X62613004Y44074498D02*
X62660816Y44053211D01*
X76120Y82422684D02*
X43059Y82330285D01*
X25035000Y5000000D02*
X23515000Y5000000D01*
X27295000Y44020001D02*
X40055000Y44020001D01*
X96395000Y44020001D02*
X96395000Y44020001D01*
X62468427Y76874566D02*
X62451427Y76854660D01*
X104607106Y82747107D02*
X104534393Y82813011D01*
X19515000Y77040000D02*
X19515000Y71380000D01*
X79672264Y39017261D02*
X79620000Y39020000D01*
X61202396Y76884484D02*
X61165686Y76919380D01*
X10265000Y78040000D02*
X19525000Y78040000D01*
X81305340Y76928573D02*
X81285434Y76911573D01*
X81231427Y44205341D02*
X81266446Y44166447D01*
X80109764Y76640650D02*
X80104038Y76665327D01*
X365606Y82813011D02*
X292893Y82747107D01*
X80097069Y44370319D02*
X80104038Y44394674D01*
X81224612Y6193948D02*
X81240620Y6174314D01*
X81144471Y76694509D02*
X81130926Y76643956D01*
X104823879Y617317D02*
X104856940Y709716D01*
X24860665Y76812320D02*
X24834497Y76766996D01*
X19505000Y6000000D02*
X19515000Y6000002D01*
X62533947Y6104613D02*
X62575517Y6075678D01*
X79605000Y39020000D02*
X79605000Y40020000D01*
M02*
