G04 #@! TF.GenerationSoftware,KiCad,Pcbnew,(6.0.9)*
G04 #@! TF.CreationDate,2022-12-11T20:21:07+01:00*
G04 #@! TF.ProjectId,helios-panel,68656c69-6f73-42d7-9061-6e656c2e6b69,rev1.0*
G04 #@! TF.SameCoordinates,Original*
G04 #@! TF.FileFunction,Legend,Top*
G04 #@! TF.FilePolarity,Positive*
%FSLAX46Y46*%
G04 Gerber Fmt 4.6, Leading zero omitted, Abs format (unit mm)*
G04 Created by KiCad (PCBNEW (6.0.9)) date 2022-12-11 20:21:07*
%MOMM*%
%LPD*%
G01*
G04 APERTURE LIST*
%ADD10C,0.300000*%
G04 APERTURE END LIST*
D10*
X41914285Y81361429D02*
X42057142Y81361429D01*
X42199999Y81290000D01*
X42271428Y81218572D01*
X42342857Y81075715D01*
X42414285Y80790000D01*
X42414285Y80432858D01*
X42342857Y80147143D01*
X42271428Y80004286D01*
X42199999Y79932858D01*
X42057142Y79861429D01*
X41914285Y79861429D01*
X41771428Y79932858D01*
X41699999Y80004286D01*
X41628571Y80147143D01*
X41557142Y80432858D01*
X41557142Y80790000D01*
X41628571Y81075715D01*
X41699999Y81218572D01*
X41771428Y81290000D01*
X41914285Y81361429D01*
X42914285Y79861429D02*
X43699999Y80861429D01*
X42914285Y80861429D02*
X43699999Y79861429D01*
X45128571Y80004286D02*
X45057142Y79932858D01*
X44842857Y79861429D01*
X44699999Y79861429D01*
X44485714Y79932858D01*
X44342857Y80075715D01*
X44271428Y80218572D01*
X44199999Y80504286D01*
X44199999Y80718572D01*
X44271428Y81004286D01*
X44342857Y81147143D01*
X44485714Y81290000D01*
X44699999Y81361429D01*
X44842857Y81361429D01*
X45057142Y81290000D01*
X45128571Y81218572D01*
X46271428Y80647143D02*
X46485714Y80575715D01*
X46557142Y80504286D01*
X46628571Y80361429D01*
X46628571Y80147143D01*
X46557142Y80004286D01*
X46485714Y79932858D01*
X46342857Y79861429D01*
X45771428Y79861429D01*
X45771428Y81361429D01*
X46271428Y81361429D01*
X46414285Y81290000D01*
X46485714Y81218572D01*
X46557142Y81075715D01*
X46557142Y80932858D01*
X46485714Y80790000D01*
X46414285Y80718572D01*
X46271428Y80647143D01*
X45771428Y80647143D01*
X48414285Y79861429D02*
X48414285Y81361429D01*
X48414285Y80647143D02*
X49271428Y80647143D01*
X49271428Y79861429D02*
X49271428Y81361429D01*
X50557142Y79932858D02*
X50414285Y79861429D01*
X50128571Y79861429D01*
X49985714Y79932858D01*
X49914285Y80075715D01*
X49914285Y80647143D01*
X49985714Y80790000D01*
X50128571Y80861429D01*
X50414285Y80861429D01*
X50557142Y80790000D01*
X50628571Y80647143D01*
X50628571Y80504286D01*
X49914285Y80361429D01*
X51485714Y79861429D02*
X51342857Y79932858D01*
X51271428Y80075715D01*
X51271428Y81361429D01*
X52057142Y79861429D02*
X52057142Y80861429D01*
X52057142Y81361429D02*
X51985714Y81290000D01*
X52057142Y81218572D01*
X52128571Y81290000D01*
X52057142Y81361429D01*
X52057142Y81218572D01*
X52985714Y79861429D02*
X52842857Y79932858D01*
X52771428Y80004286D01*
X52700000Y80147143D01*
X52700000Y80575715D01*
X52771428Y80718572D01*
X52842857Y80790000D01*
X52985714Y80861429D01*
X53200000Y80861429D01*
X53342857Y80790000D01*
X53414285Y80718572D01*
X53485714Y80575715D01*
X53485714Y80147143D01*
X53414285Y80004286D01*
X53342857Y79932858D01*
X53200000Y79861429D01*
X52985714Y79861429D01*
X54057142Y79932858D02*
X54200000Y79861429D01*
X54485714Y79861429D01*
X54628571Y79932858D01*
X54700000Y80075715D01*
X54700000Y80147143D01*
X54628571Y80290000D01*
X54485714Y80361429D01*
X54271428Y80361429D01*
X54128571Y80432858D01*
X54057142Y80575715D01*
X54057142Y80647143D01*
X54128571Y80790000D01*
X54271428Y80861429D01*
X54485714Y80861429D01*
X54628571Y80790000D01*
X57342857Y79861429D02*
X56842857Y80575715D01*
X56485714Y79861429D02*
X56485714Y81361429D01*
X57057142Y81361429D01*
X57200000Y81290000D01*
X57271428Y81218572D01*
X57342857Y81075715D01*
X57342857Y80861429D01*
X57271428Y80718572D01*
X57200000Y80647143D01*
X57057142Y80575715D01*
X56485714Y80575715D01*
X58557142Y79932858D02*
X58414285Y79861429D01*
X58128571Y79861429D01*
X57985714Y79932858D01*
X57914285Y80075715D01*
X57914285Y80647143D01*
X57985714Y80790000D01*
X58128571Y80861429D01*
X58414285Y80861429D01*
X58557142Y80790000D01*
X58628571Y80647143D01*
X58628571Y80504286D01*
X57914285Y80361429D01*
X59128571Y80861429D02*
X59485714Y79861429D01*
X59842857Y80861429D01*
X61200000Y79861429D02*
X60342857Y79861429D01*
X60771428Y79861429D02*
X60771428Y81361429D01*
X60628571Y81147143D01*
X60485714Y81004286D01*
X60342857Y80932858D01*
X61842857Y80004286D02*
X61914285Y79932858D01*
X61842857Y79861429D01*
X61771428Y79932858D01*
X61842857Y80004286D01*
X61842857Y79861429D01*
X62842857Y81361429D02*
X62985714Y81361429D01*
X63128571Y81290000D01*
X63200000Y81218572D01*
X63271428Y81075715D01*
X63342857Y80790000D01*
X63342857Y80432858D01*
X63271428Y80147143D01*
X63200000Y80004286D01*
X63128571Y79932858D01*
X62985714Y79861429D01*
X62842857Y79861429D01*
X62700000Y79932858D01*
X62628571Y80004286D01*
X62557142Y80147143D01*
X62485714Y80432858D01*
X62485714Y80790000D01*
X62557142Y81075715D01*
X62628571Y81218572D01*
X62700000Y81290000D01*
X62842857Y81361429D01*
M02*
