G04 #@! TF.GenerationSoftware,KiCad,Pcbnew,7.0.0-da2b9df05c~165~ubuntu22.04.1*
G04 #@! TF.CreationDate,2023-05-29T12:25:45+00:00*
G04 #@! TF.ProjectId,helios-panel,68656c69-6f73-42d7-9061-6e656c2e6b69,rev1.0*
G04 #@! TF.SameCoordinates,Original*
G04 #@! TF.FileFunction,Soldermask,Bot*
G04 #@! TF.FilePolarity,Negative*
%FSLAX46Y46*%
G04 Gerber Fmt 4.6, Leading zero omitted, Abs format (unit mm)*
G04 Created by KiCad (PCBNEW 7.0.0-da2b9df05c~165~ubuntu22.04.1) date 2023-05-29 12:25:45*
%MOMM*%
%LPD*%
G01*
G04 APERTURE LIST*
G04 Aperture macros list*
%AMRoundRect*
0 Rectangle with rounded corners*
0 $1 Rounding radius*
0 $2 $3 $4 $5 $6 $7 $8 $9 X,Y pos of 4 corners*
0 Add a 4 corners polygon primitive as box body*
4,1,4,$2,$3,$4,$5,$6,$7,$8,$9,$2,$3,0*
0 Add four circle primitives for the rounded corners*
1,1,$1+$1,$2,$3*
1,1,$1+$1,$4,$5*
1,1,$1+$1,$6,$7*
1,1,$1+$1,$8,$9*
0 Add four rect primitives between the rounded corners*
20,1,$1+$1,$2,$3,$4,$5,0*
20,1,$1+$1,$4,$5,$6,$7,0*
20,1,$1+$1,$6,$7,$8,$9,0*
20,1,$1+$1,$8,$9,$2,$3,0*%
G04 Aperture macros list end*
%ADD10C,1.700000*%
%ADD11O,3.000000X1.700000*%
%ADD12RoundRect,0.425000X0.425000X0.425000X-0.425000X0.425000X-0.425000X-0.425000X0.425000X-0.425000X0*%
%ADD13RoundRect,0.425000X-1.075000X-0.425000X1.075000X-0.425000X1.075000X0.425000X-1.075000X0.425000X0*%
%ADD14O,1.700000X3.000000*%
%ADD15O,1.700000X1.700000*%
%ADD16RoundRect,0.350000X0.000000X-0.494975X0.494975X0.000000X0.000000X0.494975X-0.494975X0.000000X0*%
%ADD17RoundRect,0.350000X-0.894755X-0.500000X0.894755X-0.500000X0.894755X0.500000X-0.894755X0.500000X0*%
%ADD18RoundRect,0.425000X-0.425000X-0.425000X0.425000X-0.425000X0.425000X0.425000X-0.425000X0.425000X0*%
%ADD19RoundRect,0.350000X-0.902255X-0.500000X0.902255X-0.500000X0.902255X0.500000X-0.902255X0.500000X0*%
%ADD20RoundRect,0.425000X1.075000X0.425000X-1.075000X0.425000X-1.075000X-0.425000X1.075000X-0.425000X0*%
%ADD21RoundRect,0.350000X0.000000X0.494975X-0.494975X0.000000X0.000000X-0.494975X0.494975X0.000000X0*%
%ADD22RoundRect,0.350000X0.894755X0.500000X-0.894755X0.500000X-0.894755X-0.500000X0.894755X-0.500000X0*%
%ADD23RoundRect,0.350000X0.902255X0.500000X-0.902255X0.500000X-0.902255X-0.500000X0.902255X-0.500000X0*%
%ADD24C,2.000000*%
%ADD25O,1.000000X1.700000*%
%ADD26O,1.000000X2.100000*%
%ADD27C,0.800000*%
G04 APERTURE END LIST*
D10*
G04 #@! TO.C,J2*
X24650000Y75770000D03*
D11*
X25349999Y75769999D03*
D10*
X24650000Y73230000D03*
D11*
X25349999Y73229999D03*
D10*
X24650000Y70690000D03*
D11*
X25349999Y70689999D03*
D12*
X24650000Y68150000D03*
D13*
X25350000Y68150000D03*
D12*
X24650000Y65610000D03*
D13*
X25350000Y65610000D03*
D10*
X24650000Y63070000D03*
D11*
X25349999Y63069999D03*
D10*
X24650000Y60530000D03*
D11*
X25349999Y60529999D03*
D10*
X24650000Y57990000D03*
D11*
X25349999Y57989999D03*
D10*
X24650000Y55450000D03*
D11*
X25349999Y55449999D03*
D10*
X24650000Y52910000D03*
D11*
X25349999Y52909999D03*
D10*
X24650000Y50370000D03*
D11*
X25349999Y50369999D03*
D10*
X24650000Y47830000D03*
D11*
X25349999Y47829999D03*
D10*
X24650000Y45290000D03*
D11*
X25349999Y45289999D03*
D14*
X28589999Y44589999D03*
D10*
X28590000Y43890000D03*
D14*
X31129999Y44589999D03*
D15*
X31129999Y43889999D03*
D14*
X33669999Y44589999D03*
D15*
X33669999Y43889999D03*
D14*
X36209999Y44589999D03*
D15*
X36209999Y43889999D03*
D14*
X38749999Y44589999D03*
D15*
X38749999Y43889999D03*
D11*
X41989999Y45289999D03*
D10*
X42690000Y45290000D03*
D11*
X41989999Y47829999D03*
D10*
X42690000Y47830000D03*
D11*
X41989999Y50369999D03*
D10*
X42690000Y50370000D03*
D11*
X41989999Y52909999D03*
D10*
X42690000Y52910000D03*
D11*
X41989999Y55449999D03*
D10*
X42690000Y55450000D03*
D11*
X41989999Y57989999D03*
D10*
X42690000Y57990000D03*
D11*
X41989999Y60529999D03*
D10*
X42690000Y60530000D03*
D11*
X41989999Y63069999D03*
D10*
X42690000Y63070000D03*
D16*
X41290000Y65610000D03*
D17*
X42244755Y65610000D03*
D11*
X41989999Y68149999D03*
D10*
X42690000Y68150000D03*
D18*
X41290000Y70690000D03*
D13*
X41990000Y70690000D03*
D16*
X41290000Y73230000D03*
D19*
X42237255Y73230000D03*
D11*
X41989999Y75769999D03*
D10*
X42690000Y75770000D03*
X28595000Y47830000D03*
X34940000Y68150000D03*
X32400000Y68150000D03*
G04 #@! TD*
G04 #@! TO.C,J2*
X5870000Y75770000D03*
D11*
X6569999Y75769999D03*
D10*
X5870000Y73230000D03*
D11*
X6569999Y73229999D03*
D10*
X5870000Y70690000D03*
D11*
X6569999Y70689999D03*
D12*
X5870000Y68150000D03*
D13*
X6570000Y68150000D03*
D12*
X5870000Y65610000D03*
D13*
X6570000Y65610000D03*
D10*
X5870000Y63070000D03*
D11*
X6569999Y63069999D03*
D10*
X5870000Y60530000D03*
D11*
X6569999Y60529999D03*
D10*
X5870000Y57990000D03*
D11*
X6569999Y57989999D03*
D10*
X5870000Y55450000D03*
D11*
X6569999Y55449999D03*
D10*
X5870000Y52910000D03*
D11*
X6569999Y52909999D03*
D10*
X5870000Y50370000D03*
D11*
X6569999Y50369999D03*
D10*
X5870000Y47830000D03*
D11*
X6569999Y47829999D03*
D10*
X5870000Y45290000D03*
D11*
X6569999Y45289999D03*
D14*
X9809999Y44589999D03*
D10*
X9810000Y43890000D03*
D14*
X12349999Y44589999D03*
D15*
X12349999Y43889999D03*
D14*
X14889999Y44589999D03*
D15*
X14889999Y43889999D03*
D14*
X17429999Y44589999D03*
D15*
X17429999Y43889999D03*
D14*
X19969999Y44589999D03*
D15*
X19969999Y43889999D03*
D11*
X23209999Y45289999D03*
D10*
X23910000Y45290000D03*
D11*
X23209999Y47829999D03*
D10*
X23910000Y47830000D03*
D11*
X23209999Y50369999D03*
D10*
X23910000Y50370000D03*
D11*
X23209999Y52909999D03*
D10*
X23910000Y52910000D03*
D11*
X23209999Y55449999D03*
D10*
X23910000Y55450000D03*
D11*
X23209999Y57989999D03*
D10*
X23910000Y57990000D03*
D11*
X23209999Y60529999D03*
D10*
X23910000Y60530000D03*
D11*
X23209999Y63069999D03*
D10*
X23910000Y63070000D03*
D16*
X22510000Y65610000D03*
D17*
X23464755Y65610000D03*
D11*
X23209999Y68149999D03*
D10*
X23910000Y68150000D03*
D18*
X22510000Y70690000D03*
D13*
X23210000Y70690000D03*
D16*
X22510000Y73230000D03*
D19*
X23457255Y73230000D03*
D11*
X23209999Y75769999D03*
D10*
X23910000Y75770000D03*
X9815000Y47830000D03*
X16160000Y68150000D03*
X13620000Y68150000D03*
G04 #@! TD*
G04 #@! TO.C,J2*
X62210000Y75770000D03*
D11*
X62909999Y75769999D03*
D10*
X62210000Y73230000D03*
D11*
X62909999Y73229999D03*
D10*
X62210000Y70690000D03*
D11*
X62909999Y70689999D03*
D12*
X62210000Y68150000D03*
D13*
X62910000Y68150000D03*
D12*
X62210000Y65610000D03*
D13*
X62910000Y65610000D03*
D10*
X62210000Y63070000D03*
D11*
X62909999Y63069999D03*
D10*
X62210000Y60530000D03*
D11*
X62909999Y60529999D03*
D10*
X62210000Y57990000D03*
D11*
X62909999Y57989999D03*
D10*
X62210000Y55450000D03*
D11*
X62909999Y55449999D03*
D10*
X62210000Y52910000D03*
D11*
X62909999Y52909999D03*
D10*
X62210000Y50370000D03*
D11*
X62909999Y50369999D03*
D10*
X62210000Y47830000D03*
D11*
X62909999Y47829999D03*
D10*
X62210000Y45290000D03*
D11*
X62909999Y45289999D03*
D14*
X66149999Y44589999D03*
D10*
X66150000Y43890000D03*
D14*
X68689999Y44589999D03*
D15*
X68689999Y43889999D03*
D14*
X71229999Y44589999D03*
D15*
X71229999Y43889999D03*
D14*
X73769999Y44589999D03*
D15*
X73769999Y43889999D03*
D14*
X76309999Y44589999D03*
D15*
X76309999Y43889999D03*
D11*
X79549999Y45289999D03*
D10*
X80250000Y45290000D03*
D11*
X79549999Y47829999D03*
D10*
X80250000Y47830000D03*
D11*
X79549999Y50369999D03*
D10*
X80250000Y50370000D03*
D11*
X79549999Y52909999D03*
D10*
X80250000Y52910000D03*
D11*
X79549999Y55449999D03*
D10*
X80250000Y55450000D03*
D11*
X79549999Y57989999D03*
D10*
X80250000Y57990000D03*
D11*
X79549999Y60529999D03*
D10*
X80250000Y60530000D03*
D11*
X79549999Y63069999D03*
D10*
X80250000Y63070000D03*
D16*
X78850000Y65610000D03*
D17*
X79804755Y65610000D03*
D11*
X79549999Y68149999D03*
D10*
X80250000Y68150000D03*
D18*
X78850000Y70690000D03*
D13*
X79550000Y70690000D03*
D16*
X78850000Y73230000D03*
D19*
X79797255Y73230000D03*
D11*
X79549999Y75769999D03*
D10*
X80250000Y75770000D03*
X66155000Y47830000D03*
X72500000Y68150000D03*
X69960000Y68150000D03*
G04 #@! TD*
G04 #@! TO.C,J2*
X61470000Y7270000D03*
D11*
X60769999Y7269999D03*
D10*
X61470000Y9810000D03*
D11*
X60769999Y9809999D03*
D10*
X61470000Y12350000D03*
D11*
X60769999Y12349999D03*
D18*
X61470000Y14890000D03*
D20*
X60770000Y14890000D03*
D18*
X61470000Y17430000D03*
D20*
X60770000Y17430000D03*
D10*
X61470000Y19970000D03*
D11*
X60769999Y19969999D03*
D10*
X61470000Y22510000D03*
D11*
X60769999Y22509999D03*
D10*
X61470000Y25050000D03*
D11*
X60769999Y25049999D03*
D10*
X61470000Y27590000D03*
D11*
X60769999Y27589999D03*
D10*
X61470000Y30130000D03*
D11*
X60769999Y30129999D03*
D10*
X61470000Y32670000D03*
D11*
X60769999Y32669999D03*
D10*
X61470000Y35210000D03*
D11*
X60769999Y35209999D03*
D10*
X61470000Y37750000D03*
D11*
X60769999Y37749999D03*
D14*
X57529999Y38449999D03*
D10*
X57530000Y39150000D03*
D14*
X54989999Y38449999D03*
D15*
X54989999Y39149999D03*
D14*
X52449999Y38449999D03*
D15*
X52449999Y39149999D03*
D14*
X49909999Y38449999D03*
D15*
X49909999Y39149999D03*
D14*
X47369999Y38449999D03*
D15*
X47369999Y39149999D03*
D11*
X44129999Y37749999D03*
D10*
X43430000Y37750000D03*
D11*
X44129999Y35209999D03*
D10*
X43430000Y35210000D03*
D11*
X44129999Y32669999D03*
D10*
X43430000Y32670000D03*
D11*
X44129999Y30129999D03*
D10*
X43430000Y30130000D03*
D11*
X44129999Y27589999D03*
D10*
X43430000Y27590000D03*
D11*
X44129999Y25049999D03*
D10*
X43430000Y25050000D03*
D11*
X44129999Y22509999D03*
D10*
X43430000Y22510000D03*
D11*
X44129999Y19969999D03*
D10*
X43430000Y19970000D03*
D21*
X44830000Y17430000D03*
D22*
X43875245Y17430000D03*
D11*
X44129999Y14889999D03*
D10*
X43430000Y14890000D03*
D12*
X44830000Y12350000D03*
D20*
X44130000Y12350000D03*
D21*
X44830000Y9810000D03*
D23*
X43882745Y9810000D03*
D11*
X44129999Y7269999D03*
D10*
X43430000Y7270000D03*
X57525000Y35210000D03*
X51180000Y14890000D03*
X53720000Y14890000D03*
G04 #@! TD*
G04 #@! TO.C,J2*
X80250000Y7270000D03*
D11*
X79549999Y7269999D03*
D10*
X80250000Y9810000D03*
D11*
X79549999Y9809999D03*
D10*
X80250000Y12350000D03*
D11*
X79549999Y12349999D03*
D18*
X80250000Y14890000D03*
D20*
X79550000Y14890000D03*
D18*
X80250000Y17430000D03*
D20*
X79550000Y17430000D03*
D10*
X80250000Y19970000D03*
D11*
X79549999Y19969999D03*
D10*
X80250000Y22510000D03*
D11*
X79549999Y22509999D03*
D10*
X80250000Y25050000D03*
D11*
X79549999Y25049999D03*
D10*
X80250000Y27590000D03*
D11*
X79549999Y27589999D03*
D10*
X80250000Y30130000D03*
D11*
X79549999Y30129999D03*
D10*
X80250000Y32670000D03*
D11*
X79549999Y32669999D03*
D10*
X80250000Y35210000D03*
D11*
X79549999Y35209999D03*
D10*
X80250000Y37750000D03*
D11*
X79549999Y37749999D03*
D14*
X76309999Y38449999D03*
D10*
X76310000Y39150000D03*
D14*
X73769999Y38449999D03*
D15*
X73769999Y39149999D03*
D14*
X71229999Y38449999D03*
D15*
X71229999Y39149999D03*
D14*
X68689999Y38449999D03*
D15*
X68689999Y39149999D03*
D14*
X66149999Y38449999D03*
D15*
X66149999Y39149999D03*
D11*
X62909999Y37749999D03*
D10*
X62210000Y37750000D03*
D11*
X62909999Y35209999D03*
D10*
X62210000Y35210000D03*
D11*
X62909999Y32669999D03*
D10*
X62210000Y32670000D03*
D11*
X62909999Y30129999D03*
D10*
X62210000Y30130000D03*
D11*
X62909999Y27589999D03*
D10*
X62210000Y27590000D03*
D11*
X62909999Y25049999D03*
D10*
X62210000Y25050000D03*
D11*
X62909999Y22509999D03*
D10*
X62210000Y22510000D03*
D11*
X62909999Y19969999D03*
D10*
X62210000Y19970000D03*
D21*
X63610000Y17430000D03*
D22*
X62655245Y17430000D03*
D11*
X62909999Y14889999D03*
D10*
X62210000Y14890000D03*
D12*
X63610000Y12350000D03*
D20*
X62910000Y12350000D03*
D21*
X63610000Y9810000D03*
D23*
X62662745Y9810000D03*
D11*
X62909999Y7269999D03*
D10*
X62210000Y7270000D03*
X76305000Y35210000D03*
X69960000Y14890000D03*
X72500000Y14890000D03*
G04 #@! TD*
G04 #@! TO.C,J2*
X42690000Y7270000D03*
D11*
X41989999Y7269999D03*
D10*
X42690000Y9810000D03*
D11*
X41989999Y9809999D03*
D10*
X42690000Y12350000D03*
D11*
X41989999Y12349999D03*
D18*
X42690000Y14890000D03*
D20*
X41990000Y14890000D03*
D18*
X42690000Y17430000D03*
D20*
X41990000Y17430000D03*
D10*
X42690000Y19970000D03*
D11*
X41989999Y19969999D03*
D10*
X42690000Y22510000D03*
D11*
X41989999Y22509999D03*
D10*
X42690000Y25050000D03*
D11*
X41989999Y25049999D03*
D10*
X42690000Y27590000D03*
D11*
X41989999Y27589999D03*
D10*
X42690000Y30130000D03*
D11*
X41989999Y30129999D03*
D10*
X42690000Y32670000D03*
D11*
X41989999Y32669999D03*
D10*
X42690000Y35210000D03*
D11*
X41989999Y35209999D03*
D10*
X42690000Y37750000D03*
D11*
X41989999Y37749999D03*
D14*
X38749999Y38449999D03*
D10*
X38750000Y39150000D03*
D14*
X36209999Y38449999D03*
D15*
X36209999Y39149999D03*
D14*
X33669999Y38449999D03*
D15*
X33669999Y39149999D03*
D14*
X31129999Y38449999D03*
D15*
X31129999Y39149999D03*
D14*
X28589999Y38449999D03*
D15*
X28589999Y39149999D03*
D11*
X25349999Y37749999D03*
D10*
X24650000Y37750000D03*
D11*
X25349999Y35209999D03*
D10*
X24650000Y35210000D03*
D11*
X25349999Y32669999D03*
D10*
X24650000Y32670000D03*
D11*
X25349999Y30129999D03*
D10*
X24650000Y30130000D03*
D11*
X25349999Y27589999D03*
D10*
X24650000Y27590000D03*
D11*
X25349999Y25049999D03*
D10*
X24650000Y25050000D03*
D11*
X25349999Y22509999D03*
D10*
X24650000Y22510000D03*
D11*
X25349999Y19969999D03*
D10*
X24650000Y19970000D03*
D21*
X26050000Y17430000D03*
D22*
X25095245Y17430000D03*
D11*
X25349999Y14889999D03*
D10*
X24650000Y14890000D03*
D12*
X26050000Y12350000D03*
D20*
X25350000Y12350000D03*
D21*
X26050000Y9810000D03*
D23*
X25102745Y9810000D03*
D11*
X25349999Y7269999D03*
D10*
X24650000Y7270000D03*
X38745000Y35210000D03*
X32400000Y14890000D03*
X34940000Y14890000D03*
G04 #@! TD*
G04 #@! TO.C,J2*
X99030000Y7270000D03*
D11*
X98329999Y7269999D03*
D10*
X99030000Y9810000D03*
D11*
X98329999Y9809999D03*
D10*
X99030000Y12350000D03*
D11*
X98329999Y12349999D03*
D18*
X99030000Y14890000D03*
D20*
X98330000Y14890000D03*
D18*
X99030000Y17430000D03*
D20*
X98330000Y17430000D03*
D10*
X99030000Y19970000D03*
D11*
X98329999Y19969999D03*
D10*
X99030000Y22510000D03*
D11*
X98329999Y22509999D03*
D10*
X99030000Y25050000D03*
D11*
X98329999Y25049999D03*
D10*
X99030000Y27590000D03*
D11*
X98329999Y27589999D03*
D10*
X99030000Y30130000D03*
D11*
X98329999Y30129999D03*
D10*
X99030000Y32670000D03*
D11*
X98329999Y32669999D03*
D10*
X99030000Y35210000D03*
D11*
X98329999Y35209999D03*
D10*
X99030000Y37750000D03*
D11*
X98329999Y37749999D03*
D14*
X95089999Y38449999D03*
D10*
X95090000Y39150000D03*
D14*
X92549999Y38449999D03*
D15*
X92549999Y39149999D03*
D14*
X90009999Y38449999D03*
D15*
X90009999Y39149999D03*
D14*
X87469999Y38449999D03*
D15*
X87469999Y39149999D03*
D14*
X84929999Y38449999D03*
D15*
X84929999Y39149999D03*
D11*
X81689999Y37749999D03*
D10*
X80990000Y37750000D03*
D11*
X81689999Y35209999D03*
D10*
X80990000Y35210000D03*
D11*
X81689999Y32669999D03*
D10*
X80990000Y32670000D03*
D11*
X81689999Y30129999D03*
D10*
X80990000Y30130000D03*
D11*
X81689999Y27589999D03*
D10*
X80990000Y27590000D03*
D11*
X81689999Y25049999D03*
D10*
X80990000Y25050000D03*
D11*
X81689999Y22509999D03*
D10*
X80990000Y22510000D03*
D11*
X81689999Y19969999D03*
D10*
X80990000Y19970000D03*
D21*
X82390000Y17430000D03*
D22*
X81435245Y17430000D03*
D11*
X81689999Y14889999D03*
D10*
X80990000Y14890000D03*
D12*
X82390000Y12350000D03*
D20*
X81690000Y12350000D03*
D21*
X82390000Y9810000D03*
D23*
X81442745Y9810000D03*
D11*
X81689999Y7269999D03*
D10*
X80990000Y7270000D03*
X95085000Y35210000D03*
X88740000Y14890000D03*
X91280000Y14890000D03*
G04 #@! TD*
G04 #@! TO.C,J2*
X23910000Y7270000D03*
D11*
X23209999Y7269999D03*
D10*
X23910000Y9810000D03*
D11*
X23209999Y9809999D03*
D10*
X23910000Y12350000D03*
D11*
X23209999Y12349999D03*
D18*
X23910000Y14890000D03*
D20*
X23210000Y14890000D03*
D18*
X23910000Y17430000D03*
D20*
X23210000Y17430000D03*
D10*
X23910000Y19970000D03*
D11*
X23209999Y19969999D03*
D10*
X23910000Y22510000D03*
D11*
X23209999Y22509999D03*
D10*
X23910000Y25050000D03*
D11*
X23209999Y25049999D03*
D10*
X23910000Y27590000D03*
D11*
X23209999Y27589999D03*
D10*
X23910000Y30130000D03*
D11*
X23209999Y30129999D03*
D10*
X23910000Y32670000D03*
D11*
X23209999Y32669999D03*
D10*
X23910000Y35210000D03*
D11*
X23209999Y35209999D03*
D10*
X23910000Y37750000D03*
D11*
X23209999Y37749999D03*
D14*
X19969999Y38449999D03*
D10*
X19970000Y39150000D03*
D14*
X17429999Y38449999D03*
D15*
X17429999Y39149999D03*
D14*
X14889999Y38449999D03*
D15*
X14889999Y39149999D03*
D14*
X12349999Y38449999D03*
D15*
X12349999Y39149999D03*
D14*
X9809999Y38449999D03*
D15*
X9809999Y39149999D03*
D11*
X6569999Y37749999D03*
D10*
X5870000Y37750000D03*
D11*
X6569999Y35209999D03*
D10*
X5870000Y35210000D03*
D11*
X6569999Y32669999D03*
D10*
X5870000Y32670000D03*
D11*
X6569999Y30129999D03*
D10*
X5870000Y30130000D03*
D11*
X6569999Y27589999D03*
D10*
X5870000Y27590000D03*
D11*
X6569999Y25049999D03*
D10*
X5870000Y25050000D03*
D11*
X6569999Y22509999D03*
D10*
X5870000Y22510000D03*
D11*
X6569999Y19969999D03*
D10*
X5870000Y19970000D03*
D21*
X7270000Y17430000D03*
D22*
X6315245Y17430000D03*
D11*
X6569999Y14889999D03*
D10*
X5870000Y14890000D03*
D12*
X7270000Y12350000D03*
D20*
X6570000Y12350000D03*
D21*
X7270000Y9810000D03*
D23*
X6322745Y9810000D03*
D11*
X6569999Y7269999D03*
D10*
X5870000Y7270000D03*
X19965000Y35210000D03*
X13620000Y14890000D03*
X16160000Y14890000D03*
G04 #@! TD*
G04 #@! TO.C,J2*
X80990000Y75770000D03*
D11*
X81689999Y75769999D03*
D10*
X80990000Y73230000D03*
D11*
X81689999Y73229999D03*
D10*
X80990000Y70690000D03*
D11*
X81689999Y70689999D03*
D12*
X80990000Y68150000D03*
D13*
X81690000Y68150000D03*
D12*
X80990000Y65610000D03*
D13*
X81690000Y65610000D03*
D10*
X80990000Y63070000D03*
D11*
X81689999Y63069999D03*
D10*
X80990000Y60530000D03*
D11*
X81689999Y60529999D03*
D10*
X80990000Y57990000D03*
D11*
X81689999Y57989999D03*
D10*
X80990000Y55450000D03*
D11*
X81689999Y55449999D03*
D10*
X80990000Y52910000D03*
D11*
X81689999Y52909999D03*
D10*
X80990000Y50370000D03*
D11*
X81689999Y50369999D03*
D10*
X80990000Y47830000D03*
D11*
X81689999Y47829999D03*
D10*
X80990000Y45290000D03*
D11*
X81689999Y45289999D03*
D14*
X84929999Y44589999D03*
D10*
X84930000Y43890000D03*
D14*
X87469999Y44589999D03*
D15*
X87469999Y43889999D03*
D14*
X90009999Y44589999D03*
D15*
X90009999Y43889999D03*
D14*
X92549999Y44589999D03*
D15*
X92549999Y43889999D03*
D14*
X95089999Y44589999D03*
D15*
X95089999Y43889999D03*
D11*
X98329999Y45289999D03*
D10*
X99030000Y45290000D03*
D11*
X98329999Y47829999D03*
D10*
X99030000Y47830000D03*
D11*
X98329999Y50369999D03*
D10*
X99030000Y50370000D03*
D11*
X98329999Y52909999D03*
D10*
X99030000Y52910000D03*
D11*
X98329999Y55449999D03*
D10*
X99030000Y55450000D03*
D11*
X98329999Y57989999D03*
D10*
X99030000Y57990000D03*
D11*
X98329999Y60529999D03*
D10*
X99030000Y60530000D03*
D11*
X98329999Y63069999D03*
D10*
X99030000Y63070000D03*
D16*
X97630000Y65610000D03*
D17*
X98584755Y65610000D03*
D11*
X98329999Y68149999D03*
D10*
X99030000Y68150000D03*
D18*
X97630000Y70690000D03*
D13*
X98330000Y70690000D03*
D16*
X97630000Y73230000D03*
D19*
X98577255Y73230000D03*
D11*
X98329999Y75769999D03*
D10*
X99030000Y75770000D03*
X84935000Y47830000D03*
X91280000Y68150000D03*
X88740000Y68150000D03*
G04 #@! TD*
G04 #@! TO.C,J2*
X43430000Y75770000D03*
D11*
X44129999Y75769999D03*
D10*
X43430000Y73230000D03*
D11*
X44129999Y73229999D03*
D10*
X43430000Y70690000D03*
D11*
X44129999Y70689999D03*
D12*
X43430000Y68150000D03*
D13*
X44130000Y68150000D03*
D12*
X43430000Y65610000D03*
D13*
X44130000Y65610000D03*
D10*
X43430000Y63070000D03*
D11*
X44129999Y63069999D03*
D10*
X43430000Y60530000D03*
D11*
X44129999Y60529999D03*
D10*
X43430000Y57990000D03*
D11*
X44129999Y57989999D03*
D10*
X43430000Y55450000D03*
D11*
X44129999Y55449999D03*
D10*
X43430000Y52910000D03*
D11*
X44129999Y52909999D03*
D10*
X43430000Y50370000D03*
D11*
X44129999Y50369999D03*
D10*
X43430000Y47830000D03*
D11*
X44129999Y47829999D03*
D10*
X43430000Y45290000D03*
D11*
X44129999Y45289999D03*
D14*
X47369999Y44589999D03*
D10*
X47370000Y43890000D03*
D14*
X49909999Y44589999D03*
D15*
X49909999Y43889999D03*
D14*
X52449999Y44589999D03*
D15*
X52449999Y43889999D03*
D14*
X54989999Y44589999D03*
D15*
X54989999Y43889999D03*
D14*
X57529999Y44589999D03*
D15*
X57529999Y43889999D03*
D11*
X60769999Y45289999D03*
D10*
X61470000Y45290000D03*
D11*
X60769999Y47829999D03*
D10*
X61470000Y47830000D03*
D11*
X60769999Y50369999D03*
D10*
X61470000Y50370000D03*
D11*
X60769999Y52909999D03*
D10*
X61470000Y52910000D03*
D11*
X60769999Y55449999D03*
D10*
X61470000Y55450000D03*
D11*
X60769999Y57989999D03*
D10*
X61470000Y57990000D03*
D11*
X60769999Y60529999D03*
D10*
X61470000Y60530000D03*
D11*
X60769999Y63069999D03*
D10*
X61470000Y63070000D03*
D16*
X60070000Y65610000D03*
D17*
X61024755Y65610000D03*
D11*
X60769999Y68149999D03*
D10*
X61470000Y68150000D03*
D18*
X60070000Y70690000D03*
D13*
X60770000Y70690000D03*
D16*
X60070000Y73230000D03*
D19*
X61017255Y73230000D03*
D11*
X60769999Y75769999D03*
D10*
X61470000Y75770000D03*
X47375000Y47830000D03*
X53720000Y68150000D03*
X51180000Y68150000D03*
G04 #@! TD*
D24*
G04 #@! TO.C,REF\u002A\u002A*
X102400000Y80540000D03*
G04 #@! TD*
G04 #@! TO.C,REF\u002A\u002A*
X2500000Y2500000D03*
G04 #@! TD*
D25*
G04 #@! TO.C,J1*
X20464999Y71799999D03*
X9314999Y71799999D03*
D26*
X9314999Y75799999D03*
X20464999Y75799999D03*
G04 #@! TD*
D25*
G04 #@! TO.C,J1*
X65654999Y11239999D03*
X76804999Y11239999D03*
D26*
X76804999Y7239999D03*
X65654999Y7239999D03*
G04 #@! TD*
D25*
G04 #@! TO.C,J1*
X39244999Y71799999D03*
X28094999Y71799999D03*
D26*
X28094999Y75799999D03*
X39244999Y75799999D03*
G04 #@! TD*
D25*
G04 #@! TO.C,J1*
X46874999Y11239999D03*
X58024999Y11239999D03*
D26*
X58024999Y7239999D03*
X46874999Y7239999D03*
G04 #@! TD*
D25*
G04 #@! TO.C,J1*
X84434999Y11239999D03*
X95584999Y11239999D03*
D26*
X95584999Y7239999D03*
X84434999Y7239999D03*
G04 #@! TD*
D25*
G04 #@! TO.C,J1*
X58024999Y71799999D03*
X46874999Y71799999D03*
D26*
X46874999Y75799999D03*
X58024999Y75799999D03*
G04 #@! TD*
D25*
G04 #@! TO.C,J1*
X76804999Y71799999D03*
X65654999Y71799999D03*
D26*
X65654999Y75799999D03*
X76804999Y75799999D03*
G04 #@! TD*
D25*
G04 #@! TO.C,J1*
X95584999Y71799999D03*
X84434999Y71799999D03*
D26*
X84434999Y75799999D03*
X95584999Y75799999D03*
G04 #@! TD*
D25*
G04 #@! TO.C,J1*
X9314999Y11239999D03*
X20464999Y11239999D03*
D26*
X20464999Y7239999D03*
X9314999Y7239999D03*
G04 #@! TD*
D25*
G04 #@! TO.C,J1*
X28094999Y11239999D03*
X39244999Y11239999D03*
D26*
X39244999Y7239999D03*
X28094999Y7239999D03*
G04 #@! TD*
D24*
G04 #@! TO.C,REF\u002A\u002A*
X2500000Y80540000D03*
G04 #@! TD*
G04 #@! TO.C,REF\u002A\u002A*
X99900000Y79190000D03*
G04 #@! TD*
D27*
G04 #@! TO.C,TP1*
X15375000Y31060000D03*
G04 #@! TD*
G04 #@! TO.C,TP1*
X34155000Y31060000D03*
G04 #@! TD*
G04 #@! TO.C,TP1*
X52935000Y31060000D03*
G04 #@! TD*
G04 #@! TO.C,TP1*
X71715000Y31060000D03*
G04 #@! TD*
G04 #@! TO.C,TP1*
X90495000Y31060000D03*
G04 #@! TD*
G04 #@! TO.C,TP1*
X14405000Y51980000D03*
G04 #@! TD*
G04 #@! TO.C,TP1*
X51965000Y51980000D03*
G04 #@! TD*
G04 #@! TO.C,TP1*
X70745000Y51980000D03*
G04 #@! TD*
G04 #@! TO.C,TP1*
X33185000Y51980000D03*
G04 #@! TD*
G04 #@! TO.C,TP1*
X89525000Y51980000D03*
G04 #@! TD*
D24*
G04 #@! TO.C,REF\u002A\u002A*
X5000000Y79190000D03*
G04 #@! TD*
G04 #@! TO.C,REF\u002A\u002A*
X5000000Y3850000D03*
G04 #@! TD*
D27*
G04 #@! TO.C,TP2*
X15505000Y51970000D03*
G04 #@! TD*
G04 #@! TO.C,TP2*
X34285000Y51970000D03*
G04 #@! TD*
G04 #@! TO.C,TP2*
X14275000Y31070000D03*
G04 #@! TD*
G04 #@! TO.C,TP2*
X71845000Y51970000D03*
G04 #@! TD*
G04 #@! TO.C,TP2*
X90625000Y51970000D03*
G04 #@! TD*
G04 #@! TO.C,TP2*
X33055000Y31070000D03*
G04 #@! TD*
G04 #@! TO.C,TP2*
X51835000Y31070000D03*
G04 #@! TD*
G04 #@! TO.C,TP2*
X70615000Y31070000D03*
G04 #@! TD*
G04 #@! TO.C,TP2*
X89395000Y31070000D03*
G04 #@! TD*
G04 #@! TO.C,TP2*
X53065000Y51970000D03*
G04 #@! TD*
M02*
