G04 #@! TF.GenerationSoftware,KiCad,Pcbnew,(6.0.8)*
G04 #@! TF.CreationDate,2022-10-20T22:48:32+02:00*
G04 #@! TF.ProjectId,helios-panel,68656c69-6f73-42d7-9061-6e656c2e6b69,rev1.0*
G04 #@! TF.SameCoordinates,Original*
G04 #@! TF.FileFunction,Other,Comment*
%FSLAX46Y46*%
G04 Gerber Fmt 4.6, Leading zero omitted, Abs format (unit mm)*
G04 Created by KiCad (PCBNEW (6.0.8)) date 2022-10-20 22:48:32*
%MOMM*%
%LPD*%
G01*
G04 APERTURE LIST*
%ADD10C,0.400000*%
G04 APERTURE END LIST*
D10*
X-3000000Y6000000D02*
X107900000Y6000000D01*
X6000000Y86040000D02*
X6000000Y-3000000D01*
X-3000000Y77040000D02*
X107900000Y77040000D01*
X98900000Y86040000D02*
X98900000Y-3000000D01*
X-3000000Y39020000D02*
X107900000Y39020000D01*
X-3000000Y44020000D02*
X107900000Y44020000D01*
X111350476Y40115239D02*
X112017142Y38115239D01*
X112683809Y40115239D01*
X113350476Y38877143D02*
X114874285Y38877143D01*
X116969523Y38305715D02*
X116874285Y38210477D01*
X116588571Y38115239D01*
X116398095Y38115239D01*
X116112380Y38210477D01*
X115921904Y38400953D01*
X115826666Y38591429D01*
X115731428Y38972381D01*
X115731428Y39258096D01*
X115826666Y39639048D01*
X115921904Y39829524D01*
X116112380Y40020000D01*
X116398095Y40115239D01*
X116588571Y40115239D01*
X116874285Y40020000D01*
X116969523Y39924762D01*
X117826666Y40115239D02*
X117826666Y38496191D01*
X117921904Y38305715D01*
X118017142Y38210477D01*
X118207619Y38115239D01*
X118588571Y38115239D01*
X118779047Y38210477D01*
X118874285Y38305715D01*
X118969523Y38496191D01*
X118969523Y40115239D01*
X119636190Y40115239D02*
X120779047Y40115239D01*
X120207619Y38115239D02*
X120207619Y40115239D01*
X111350476Y7095239D02*
X112017142Y5095239D01*
X112683809Y7095239D01*
X113350476Y5857143D02*
X114874285Y5857143D01*
X116969523Y5285715D02*
X116874285Y5190477D01*
X116588571Y5095239D01*
X116398095Y5095239D01*
X116112380Y5190477D01*
X115921904Y5380953D01*
X115826666Y5571429D01*
X115731428Y5952381D01*
X115731428Y6238096D01*
X115826666Y6619048D01*
X115921904Y6809524D01*
X116112380Y7000000D01*
X116398095Y7095239D01*
X116588571Y7095239D01*
X116874285Y7000000D01*
X116969523Y6904762D01*
X117826666Y7095239D02*
X117826666Y5476191D01*
X117921904Y5285715D01*
X118017142Y5190477D01*
X118207619Y5095239D01*
X118588571Y5095239D01*
X118779047Y5190477D01*
X118874285Y5285715D01*
X118969523Y5476191D01*
X118969523Y7095239D01*
X119636190Y7095239D02*
X120779047Y7095239D01*
X120207619Y5095239D02*
X120207619Y7095239D01*
X111350476Y45115239D02*
X112017142Y43115239D01*
X112683809Y45115239D01*
X113350476Y43877143D02*
X114874285Y43877143D01*
X116969523Y43305715D02*
X116874285Y43210477D01*
X116588571Y43115239D01*
X116398095Y43115239D01*
X116112380Y43210477D01*
X115921904Y43400953D01*
X115826666Y43591429D01*
X115731428Y43972381D01*
X115731428Y44258096D01*
X115826666Y44639048D01*
X115921904Y44829524D01*
X116112380Y45020000D01*
X116398095Y45115239D01*
X116588571Y45115239D01*
X116874285Y45020000D01*
X116969523Y44924762D01*
X117826666Y45115239D02*
X117826666Y43496191D01*
X117921904Y43305715D01*
X118017142Y43210477D01*
X118207619Y43115239D01*
X118588571Y43115239D01*
X118779047Y43210477D01*
X118874285Y43305715D01*
X118969523Y43496191D01*
X118969523Y45115239D01*
X119636190Y45115239D02*
X120779047Y45115239D01*
X120207619Y43115239D02*
X120207619Y45115239D01*
X4904761Y89490477D02*
X6904761Y90157143D01*
X4904761Y90823810D01*
X6142857Y91490477D02*
X6142857Y93014286D01*
X6714285Y95109524D02*
X6809523Y95014286D01*
X6904761Y94728572D01*
X6904761Y94538096D01*
X6809523Y94252381D01*
X6619047Y94061905D01*
X6428571Y93966667D01*
X6047619Y93871429D01*
X5761904Y93871429D01*
X5380952Y93966667D01*
X5190476Y94061905D01*
X5000000Y94252381D01*
X4904761Y94538096D01*
X4904761Y94728572D01*
X5000000Y95014286D01*
X5095238Y95109524D01*
X4904761Y95966667D02*
X6523809Y95966667D01*
X6714285Y96061905D01*
X6809523Y96157143D01*
X6904761Y96347620D01*
X6904761Y96728572D01*
X6809523Y96919048D01*
X6714285Y97014286D01*
X6523809Y97109524D01*
X4904761Y97109524D01*
X4904761Y97776191D02*
X4904761Y98919047D01*
X6904761Y98347619D02*
X4904761Y98347619D01*
X97804761Y89490477D02*
X99804761Y90157143D01*
X97804761Y90823810D01*
X99042857Y91490477D02*
X99042857Y93014286D01*
X99614285Y95109524D02*
X99709523Y95014286D01*
X99804761Y94728572D01*
X99804761Y94538096D01*
X99709523Y94252381D01*
X99519047Y94061905D01*
X99328571Y93966667D01*
X98947619Y93871429D01*
X98661904Y93871429D01*
X98280952Y93966667D01*
X98090476Y94061905D01*
X97900000Y94252381D01*
X97804761Y94538096D01*
X97804761Y94728572D01*
X97900000Y95014286D01*
X97995238Y95109524D01*
X97804761Y95966667D02*
X99423809Y95966667D01*
X99614285Y96061905D01*
X99709523Y96157143D01*
X99804761Y96347620D01*
X99804761Y96728572D01*
X99709523Y96919048D01*
X99614285Y97014286D01*
X99423809Y97109524D01*
X97804761Y97109524D01*
X97804761Y97776191D02*
X97804761Y98919047D01*
X99804761Y98347619D02*
X97804761Y98347619D01*
X111350476Y78135239D02*
X112017142Y76135239D01*
X112683809Y78135239D01*
X113350476Y76897143D02*
X114874285Y76897143D01*
X116969523Y76325715D02*
X116874285Y76230477D01*
X116588571Y76135239D01*
X116398095Y76135239D01*
X116112380Y76230477D01*
X115921904Y76420953D01*
X115826666Y76611429D01*
X115731428Y76992381D01*
X115731428Y77278096D01*
X115826666Y77659048D01*
X115921904Y77849524D01*
X116112380Y78040000D01*
X116398095Y78135239D01*
X116588571Y78135239D01*
X116874285Y78040000D01*
X116969523Y77944762D01*
X117826666Y78135239D02*
X117826666Y76516191D01*
X117921904Y76325715D01*
X118017142Y76230477D01*
X118207619Y76135239D01*
X118588571Y76135239D01*
X118779047Y76230477D01*
X118874285Y76325715D01*
X118969523Y76516191D01*
X118969523Y78135239D01*
X119636190Y78135239D02*
X120779047Y78135239D01*
X120207619Y76135239D02*
X120207619Y78135239D01*
M02*
