G04 #@! TF.GenerationSoftware,KiCad,Pcbnew,7.0.0-da2b9df05c~165~ubuntu22.04.1*
G04 #@! TF.CreationDate,2023-08-03T15:42:47+00:00*
G04 #@! TF.ProjectId,helios-panel,68656c69-6f73-42d7-9061-6e656c2e6b69,rev1.0*
G04 #@! TF.SameCoordinates,Original*
G04 #@! TF.FileFunction,Soldermask,Bot*
G04 #@! TF.FilePolarity,Negative*
%FSLAX46Y46*%
G04 Gerber Fmt 4.6, Leading zero omitted, Abs format (unit mm)*
G04 Created by KiCad (PCBNEW 7.0.0-da2b9df05c~165~ubuntu22.04.1) date 2023-08-03 15:42:47*
%MOMM*%
%LPD*%
G01*
G04 APERTURE LIST*
G04 Aperture macros list*
%AMRoundRect*
0 Rectangle with rounded corners*
0 $1 Rounding radius*
0 $2 $3 $4 $5 $6 $7 $8 $9 X,Y pos of 4 corners*
0 Add a 4 corners polygon primitive as box body*
4,1,4,$2,$3,$4,$5,$6,$7,$8,$9,$2,$3,0*
0 Add four circle primitives for the rounded corners*
1,1,$1+$1,$2,$3*
1,1,$1+$1,$4,$5*
1,1,$1+$1,$6,$7*
1,1,$1+$1,$8,$9*
0 Add four rect primitives between the rounded corners*
20,1,$1+$1,$2,$3,$4,$5,0*
20,1,$1+$1,$4,$5,$6,$7,0*
20,1,$1+$1,$6,$7,$8,$9,0*
20,1,$1+$1,$8,$9,$2,$3,0*%
G04 Aperture macros list end*
%ADD10C,0.400000*%
%ADD11C,2.000000*%
%ADD12C,1.700000*%
%ADD13O,3.000000X1.700000*%
%ADD14RoundRect,0.425000X-0.425000X-0.425000X0.425000X-0.425000X0.425000X0.425000X-0.425000X0.425000X0*%
%ADD15RoundRect,0.425000X1.075000X0.425000X-1.075000X0.425000X-1.075000X-0.425000X1.075000X-0.425000X0*%
%ADD16O,1.700000X3.000000*%
%ADD17O,1.700000X1.700000*%
%ADD18RoundRect,0.350000X0.000000X0.494975X-0.494975X0.000000X0.000000X-0.494975X0.494975X0.000000X0*%
%ADD19RoundRect,0.350000X0.894755X0.500000X-0.894755X0.500000X-0.894755X-0.500000X0.894755X-0.500000X0*%
%ADD20RoundRect,0.425000X0.425000X0.425000X-0.425000X0.425000X-0.425000X-0.425000X0.425000X-0.425000X0*%
%ADD21RoundRect,0.350000X0.902255X0.500000X-0.902255X0.500000X-0.902255X-0.500000X0.902255X-0.500000X0*%
%ADD22RoundRect,0.425000X-1.075000X-0.425000X1.075000X-0.425000X1.075000X0.425000X-1.075000X0.425000X0*%
%ADD23RoundRect,0.350000X0.000000X-0.494975X0.494975X0.000000X0.000000X0.494975X-0.494975X0.000000X0*%
%ADD24RoundRect,0.350000X-0.894755X-0.500000X0.894755X-0.500000X0.894755X0.500000X-0.894755X0.500000X0*%
%ADD25RoundRect,0.350000X-0.902255X-0.500000X0.902255X-0.500000X0.902255X0.500000X-0.902255X0.500000X0*%
%ADD26O,1.000000X1.700000*%
%ADD27O,1.000000X2.100000*%
%ADD28C,0.800000*%
G04 APERTURE END LIST*
D10*
G04 #@! TO.C,REF\u002A\u002A*
X3125000Y77040000D03*
G04 #@! TD*
G04 #@! TO.C,REF\u002A\u002A*
X82385008Y44120127D03*
G04 #@! TD*
G04 #@! TO.C,REF\u002A\u002A*
X8015009Y44120064D03*
G04 #@! TD*
G04 #@! TO.C,REF\u002A\u002A*
X46405286Y76940000D03*
G04 #@! TD*
G04 #@! TO.C,REF\u002A\u002A*
X78104991Y44120064D03*
G04 #@! TD*
G04 #@! TO.C,REF\u002A\u002A*
X47795000Y6100000D03*
G04 #@! TD*
G04 #@! TO.C,REF\u002A\u002A*
X78854991Y44120127D03*
G04 #@! TD*
G04 #@! TO.C,REF\u002A\u002A*
X99900000Y77040000D03*
G04 #@! TD*
G04 #@! TO.C,REF\u002A\u002A*
X6000000Y83040000D03*
G04 #@! TD*
G04 #@! TO.C,REF\u002A\u002A*
X39019856Y6100000D03*
G04 #@! TD*
G04 #@! TO.C,REF\u002A\u002A*
X60563249Y76830509D03*
G04 #@! TD*
G04 #@! TO.C,REF\u002A\u002A*
X8845287Y76940000D03*
G04 #@! TD*
G04 #@! TO.C,REF\u002A\u002A*
X9540144Y6100000D03*
G04 #@! TD*
G04 #@! TO.C,REF\u002A\u002A*
X44336750Y76830510D03*
G04 #@! TD*
G04 #@! TO.C,REF\u002A\u002A*
X625000Y6000000D03*
G04 #@! TD*
G04 #@! TO.C,REF\u002A\u002A*
X59884427Y76940000D03*
G04 #@! TD*
G04 #@! TO.C,REF\u002A\u002A*
X63795572Y6100000D03*
G04 #@! TD*
G04 #@! TO.C,REF\u002A\u002A*
X96134991Y38920001D03*
G04 #@! TD*
G04 #@! TO.C,REF\u002A\u002A*
X1250000Y6000000D03*
G04 #@! TD*
G04 #@! TO.C,REF\u002A\u002A*
X8765009Y38920001D03*
G04 #@! TD*
G04 #@! TO.C,REF\u002A\u002A*
X45710429Y76940000D03*
G04 #@! TD*
G04 #@! TO.C,REF\u002A\u002A*
X20239856Y6100000D03*
G04 #@! TD*
G04 #@! TO.C,REF\u002A\u002A*
X101775000Y77040000D03*
G04 #@! TD*
G04 #@! TO.C,REF\u002A\u002A*
X25556750Y76830510D03*
G04 #@! TD*
G04 #@! TO.C,REF\u002A\u002A*
X41104427Y76940000D03*
G04 #@! TD*
G04 #@! TO.C,REF\u002A\u002A*
X25556750Y6209491D03*
G04 #@! TD*
G04 #@! TO.C,REF\u002A\u002A*
X21629570Y6100000D03*
G04 #@! TD*
G04 #@! TO.C,REF\u002A\u002A*
X63116750Y6209491D03*
G04 #@! TD*
G04 #@! TO.C,REF\u002A\u002A*
X65880143Y76940000D03*
G04 #@! TD*
G04 #@! TO.C,REF\u002A\u002A*
X98900000Y4375000D03*
G04 #@! TD*
G04 #@! TO.C,REF\u002A\u002A*
X96054713Y76940000D03*
G04 #@! TD*
G04 #@! TO.C,REF\u002A\u002A*
X22324427Y6100000D03*
G04 #@! TD*
G04 #@! TO.C,REF\u002A\u002A*
X98900000Y81165000D03*
G04 #@! TD*
G04 #@! TO.C,REF\u002A\u002A*
X6000000Y0D03*
G04 #@! TD*
G04 #@! TO.C,REF\u002A\u002A*
X5000000Y77040000D03*
G04 #@! TD*
G04 #@! TO.C,REF\u002A\u002A*
X64355008Y44120064D03*
G04 #@! TD*
G04 #@! TO.C,REF\u002A\u002A*
X77354991Y44120000D03*
G04 #@! TD*
G04 #@! TO.C,REF\u002A\u002A*
X98900000Y3125000D03*
G04 #@! TD*
G04 #@! TO.C,REF\u002A\u002A*
X6776751Y76830510D03*
G04 #@! TD*
G04 #@! TO.C,REF\u002A\u002A*
X75885000Y6100000D03*
G04 #@! TD*
G04 #@! TO.C,REF\u002A\u002A*
X45575008Y44120064D03*
G04 #@! TD*
G04 #@! TO.C,REF\u002A\u002A*
X6000000Y5000000D03*
G04 #@! TD*
G04 #@! TO.C,REF\u002A\u002A*
X102400000Y77040000D03*
G04 #@! TD*
G04 #@! TO.C,REF\u002A\u002A*
X6000000Y78665000D03*
G04 #@! TD*
G04 #@! TO.C,REF\u002A\u002A*
X27545008Y38920001D03*
G04 #@! TD*
G04 #@! TO.C,REF\u002A\u002A*
X59324991Y38919937D03*
G04 #@! TD*
G04 #@! TO.C,REF\u002A\u002A*
X83965286Y76940000D03*
G04 #@! TD*
G04 #@! TO.C,REF\u002A\u002A*
X28320143Y6100000D03*
G04 #@! TD*
G04 #@! TO.C,REF\u002A\u002A*
X63795572Y76940000D03*
G04 #@! TD*
G04 #@! TO.C,REF\u002A\u002A*
X98900000Y78040000D03*
G04 #@! TD*
G04 #@! TO.C,REF\u002A\u002A*
X6000000Y3125000D03*
G04 #@! TD*
G04 #@! TO.C,REF\u002A\u002A*
X47100143Y76940000D03*
G04 #@! TD*
G04 #@! TO.C,REF\u002A\u002A*
X41783249Y6209490D03*
G04 #@! TD*
G04 #@! TO.C,REF\u002A\u002A*
X45575008Y38919937D03*
G04 #@! TD*
G04 #@! TO.C,REF\u002A\u002A*
X60074991Y38919874D03*
G04 #@! TD*
G04 #@! TO.C,REF\u002A\u002A*
X39714713Y76940000D03*
G04 #@! TD*
G04 #@! TO.C,REF\u002A\u002A*
X6000000Y79915000D03*
G04 #@! TD*
G04 #@! TO.C,REF\u002A\u002A*
X83270429Y76940000D03*
G04 #@! TD*
G04 #@! TO.C,REF\u002A\u002A*
X27625286Y6100000D03*
G04 #@! TD*
G04 #@! TO.C,REF\u002A\u002A*
X0Y77040000D03*
G04 #@! TD*
G04 #@! TO.C,REF\u002A\u002A*
X8015009Y38919937D03*
G04 #@! TD*
G04 #@! TO.C,REF\u002A\u002A*
X6776751Y6209491D03*
G04 #@! TD*
G04 #@! TO.C,REF\u002A\u002A*
X19545000Y6100000D03*
G04 #@! TD*
G04 #@! TO.C,REF\u002A\u002A*
X100525000Y77040000D03*
G04 #@! TD*
D11*
G04 #@! TO.C,REF\u002A\u002A*
X2500000Y80540000D03*
G04 #@! TD*
D10*
G04 #@! TO.C,REF\u002A\u002A*
X6000000Y79290000D03*
G04 #@! TD*
G04 #@! TO.C,REF\u002A\u002A*
X102400000Y6000000D03*
G04 #@! TD*
G04 #@! TO.C,REF\u002A\u002A*
X26795008Y38919937D03*
G04 #@! TD*
G04 #@! TO.C,REF\u002A\u002A*
X96054713Y6100000D03*
G04 #@! TD*
G04 #@! TO.C,REF\u002A\u002A*
X60563249Y6209490D03*
G04 #@! TD*
G04 #@! TO.C,REF\u002A\u002A*
X21014991Y44120000D03*
G04 #@! TD*
G04 #@! TO.C,REF\u002A\u002A*
X58494713Y6100000D03*
G04 #@! TD*
G04 #@! TO.C,REF\u002A\u002A*
X58574991Y44120000D03*
G04 #@! TD*
G04 #@! TO.C,REF\u002A\u002A*
X45015572Y76940000D03*
G04 #@! TD*
G04 #@! TO.C,REF\u002A\u002A*
X1875000Y77040000D03*
G04 #@! TD*
G04 #@! TO.C,REF\u002A\u002A*
X83270429Y6100000D03*
G04 #@! TD*
G04 #@! TO.C,REF\u002A\u002A*
X65185286Y6100000D03*
G04 #@! TD*
G04 #@! TO.C,REF\u002A\u002A*
X39794991Y44120000D03*
G04 #@! TD*
G04 #@! TO.C,REF\u002A\u002A*
X57799856Y76940000D03*
G04 #@! TD*
G04 #@! TO.C,REF\u002A\u002A*
X40544991Y38919937D03*
G04 #@! TD*
G04 #@! TO.C,REF\u002A\u002A*
X103025000Y6000000D03*
G04 #@! TD*
G04 #@! TO.C,REF\u002A\u002A*
X98900000Y80540000D03*
G04 #@! TD*
G04 #@! TO.C,REF\u002A\u002A*
X45015572Y6100000D03*
G04 #@! TD*
G04 #@! TO.C,REF\u002A\u002A*
X6000000Y81165000D03*
G04 #@! TD*
G04 #@! TO.C,REF\u002A\u002A*
X6000000Y1875000D03*
G04 #@! TD*
G04 #@! TO.C,REF\u002A\u002A*
X98900000Y82415000D03*
G04 #@! TD*
D12*
G04 #@! TO.C,J2*
X23910000Y7270000D03*
D13*
X23209999Y7269999D03*
D12*
X23910000Y9810000D03*
D13*
X23209999Y9809999D03*
D12*
X23910000Y12350000D03*
D13*
X23209999Y12349999D03*
D14*
X23910000Y14890000D03*
D15*
X23210000Y14890000D03*
D14*
X23910000Y17430000D03*
D15*
X23210000Y17430000D03*
D12*
X23910000Y19970000D03*
D13*
X23209999Y19969999D03*
D12*
X23910000Y22510000D03*
D13*
X23209999Y22509999D03*
D12*
X23910000Y25050000D03*
D13*
X23209999Y25049999D03*
D12*
X23910000Y27590000D03*
D13*
X23209999Y27589999D03*
D12*
X23910000Y30130000D03*
D13*
X23209999Y30129999D03*
D12*
X23910000Y32670000D03*
D13*
X23209999Y32669999D03*
D12*
X23910000Y35210000D03*
D13*
X23209999Y35209999D03*
D12*
X23910000Y37750000D03*
D13*
X23209999Y37749999D03*
D16*
X19969999Y38449999D03*
D12*
X19970000Y39150000D03*
D16*
X17429999Y38449999D03*
D17*
X17429999Y39149999D03*
D16*
X14889999Y38449999D03*
D17*
X14889999Y39149999D03*
D16*
X12349999Y38449999D03*
D17*
X12349999Y39149999D03*
D16*
X9809999Y38449999D03*
D17*
X9809999Y39149999D03*
D13*
X6569999Y37749999D03*
D12*
X5870000Y37750000D03*
D13*
X6569999Y35209999D03*
D12*
X5870000Y35210000D03*
D13*
X6569999Y32669999D03*
D12*
X5870000Y32670000D03*
D13*
X6569999Y30129999D03*
D12*
X5870000Y30130000D03*
D13*
X6569999Y27589999D03*
D12*
X5870000Y27590000D03*
D13*
X6569999Y25049999D03*
D12*
X5870000Y25050000D03*
D13*
X6569999Y22509999D03*
D12*
X5870000Y22510000D03*
D13*
X6569999Y19969999D03*
D12*
X5870000Y19970000D03*
D18*
X7270000Y17430000D03*
D19*
X6315245Y17430000D03*
D13*
X6569999Y14889999D03*
D12*
X5870000Y14890000D03*
D20*
X7270000Y12350000D03*
D15*
X6570000Y12350000D03*
D18*
X7270000Y9810000D03*
D21*
X6322745Y9810000D03*
D13*
X6569999Y7269999D03*
D12*
X5870000Y7270000D03*
X19965000Y35210000D03*
X13620000Y14890000D03*
X16160000Y14890000D03*
G04 #@! TD*
G04 #@! TO.C,J2*
X61470000Y7270000D03*
D13*
X60769999Y7269999D03*
D12*
X61470000Y9810000D03*
D13*
X60769999Y9809999D03*
D12*
X61470000Y12350000D03*
D13*
X60769999Y12349999D03*
D14*
X61470000Y14890000D03*
D15*
X60770000Y14890000D03*
D14*
X61470000Y17430000D03*
D15*
X60770000Y17430000D03*
D12*
X61470000Y19970000D03*
D13*
X60769999Y19969999D03*
D12*
X61470000Y22510000D03*
D13*
X60769999Y22509999D03*
D12*
X61470000Y25050000D03*
D13*
X60769999Y25049999D03*
D12*
X61470000Y27590000D03*
D13*
X60769999Y27589999D03*
D12*
X61470000Y30130000D03*
D13*
X60769999Y30129999D03*
D12*
X61470000Y32670000D03*
D13*
X60769999Y32669999D03*
D12*
X61470000Y35210000D03*
D13*
X60769999Y35209999D03*
D12*
X61470000Y37750000D03*
D13*
X60769999Y37749999D03*
D16*
X57529999Y38449999D03*
D12*
X57530000Y39150000D03*
D16*
X54989999Y38449999D03*
D17*
X54989999Y39149999D03*
D16*
X52449999Y38449999D03*
D17*
X52449999Y39149999D03*
D16*
X49909999Y38449999D03*
D17*
X49909999Y39149999D03*
D16*
X47369999Y38449999D03*
D17*
X47369999Y39149999D03*
D13*
X44129999Y37749999D03*
D12*
X43430000Y37750000D03*
D13*
X44129999Y35209999D03*
D12*
X43430000Y35210000D03*
D13*
X44129999Y32669999D03*
D12*
X43430000Y32670000D03*
D13*
X44129999Y30129999D03*
D12*
X43430000Y30130000D03*
D13*
X44129999Y27589999D03*
D12*
X43430000Y27590000D03*
D13*
X44129999Y25049999D03*
D12*
X43430000Y25050000D03*
D13*
X44129999Y22509999D03*
D12*
X43430000Y22510000D03*
D13*
X44129999Y19969999D03*
D12*
X43430000Y19970000D03*
D18*
X44830000Y17430000D03*
D19*
X43875245Y17430000D03*
D13*
X44129999Y14889999D03*
D12*
X43430000Y14890000D03*
D20*
X44830000Y12350000D03*
D15*
X44130000Y12350000D03*
D18*
X44830000Y9810000D03*
D21*
X43882745Y9810000D03*
D13*
X44129999Y7269999D03*
D12*
X43430000Y7270000D03*
X57525000Y35210000D03*
X51180000Y14890000D03*
X53720000Y14890000D03*
G04 #@! TD*
G04 #@! TO.C,J2*
X5870000Y75770000D03*
D13*
X6569999Y75769999D03*
D12*
X5870000Y73230000D03*
D13*
X6569999Y73229999D03*
D12*
X5870000Y70690000D03*
D13*
X6569999Y70689999D03*
D20*
X5870000Y68150000D03*
D22*
X6570000Y68150000D03*
D20*
X5870000Y65610000D03*
D22*
X6570000Y65610000D03*
D12*
X5870000Y63070000D03*
D13*
X6569999Y63069999D03*
D12*
X5870000Y60530000D03*
D13*
X6569999Y60529999D03*
D12*
X5870000Y57990000D03*
D13*
X6569999Y57989999D03*
D12*
X5870000Y55450000D03*
D13*
X6569999Y55449999D03*
D12*
X5870000Y52910000D03*
D13*
X6569999Y52909999D03*
D12*
X5870000Y50370000D03*
D13*
X6569999Y50369999D03*
D12*
X5870000Y47830000D03*
D13*
X6569999Y47829999D03*
D12*
X5870000Y45290000D03*
D13*
X6569999Y45289999D03*
D16*
X9809999Y44589999D03*
D12*
X9810000Y43890000D03*
D16*
X12349999Y44589999D03*
D17*
X12349999Y43889999D03*
D16*
X14889999Y44589999D03*
D17*
X14889999Y43889999D03*
D16*
X17429999Y44589999D03*
D17*
X17429999Y43889999D03*
D16*
X19969999Y44589999D03*
D17*
X19969999Y43889999D03*
D13*
X23209999Y45289999D03*
D12*
X23910000Y45290000D03*
D13*
X23209999Y47829999D03*
D12*
X23910000Y47830000D03*
D13*
X23209999Y50369999D03*
D12*
X23910000Y50370000D03*
D13*
X23209999Y52909999D03*
D12*
X23910000Y52910000D03*
D13*
X23209999Y55449999D03*
D12*
X23910000Y55450000D03*
D13*
X23209999Y57989999D03*
D12*
X23910000Y57990000D03*
D13*
X23209999Y60529999D03*
D12*
X23910000Y60530000D03*
D13*
X23209999Y63069999D03*
D12*
X23910000Y63070000D03*
D23*
X22510000Y65610000D03*
D24*
X23464755Y65610000D03*
D13*
X23209999Y68149999D03*
D12*
X23910000Y68150000D03*
D14*
X22510000Y70690000D03*
D22*
X23210000Y70690000D03*
D23*
X22510000Y73230000D03*
D25*
X23457255Y73230000D03*
D13*
X23209999Y75769999D03*
D12*
X23910000Y75770000D03*
X9815000Y47830000D03*
X16160000Y68150000D03*
X13620000Y68150000D03*
G04 #@! TD*
G04 #@! TO.C,J2*
X80250000Y7270000D03*
D13*
X79549999Y7269999D03*
D12*
X80250000Y9810000D03*
D13*
X79549999Y9809999D03*
D12*
X80250000Y12350000D03*
D13*
X79549999Y12349999D03*
D14*
X80250000Y14890000D03*
D15*
X79550000Y14890000D03*
D14*
X80250000Y17430000D03*
D15*
X79550000Y17430000D03*
D12*
X80250000Y19970000D03*
D13*
X79549999Y19969999D03*
D12*
X80250000Y22510000D03*
D13*
X79549999Y22509999D03*
D12*
X80250000Y25050000D03*
D13*
X79549999Y25049999D03*
D12*
X80250000Y27590000D03*
D13*
X79549999Y27589999D03*
D12*
X80250000Y30130000D03*
D13*
X79549999Y30129999D03*
D12*
X80250000Y32670000D03*
D13*
X79549999Y32669999D03*
D12*
X80250000Y35210000D03*
D13*
X79549999Y35209999D03*
D12*
X80250000Y37750000D03*
D13*
X79549999Y37749999D03*
D16*
X76309999Y38449999D03*
D12*
X76310000Y39150000D03*
D16*
X73769999Y38449999D03*
D17*
X73769999Y39149999D03*
D16*
X71229999Y38449999D03*
D17*
X71229999Y39149999D03*
D16*
X68689999Y38449999D03*
D17*
X68689999Y39149999D03*
D16*
X66149999Y38449999D03*
D17*
X66149999Y39149999D03*
D13*
X62909999Y37749999D03*
D12*
X62210000Y37750000D03*
D13*
X62909999Y35209999D03*
D12*
X62210000Y35210000D03*
D13*
X62909999Y32669999D03*
D12*
X62210000Y32670000D03*
D13*
X62909999Y30129999D03*
D12*
X62210000Y30130000D03*
D13*
X62909999Y27589999D03*
D12*
X62210000Y27590000D03*
D13*
X62909999Y25049999D03*
D12*
X62210000Y25050000D03*
D13*
X62909999Y22509999D03*
D12*
X62210000Y22510000D03*
D13*
X62909999Y19969999D03*
D12*
X62210000Y19970000D03*
D18*
X63610000Y17430000D03*
D19*
X62655245Y17430000D03*
D13*
X62909999Y14889999D03*
D12*
X62210000Y14890000D03*
D20*
X63610000Y12350000D03*
D15*
X62910000Y12350000D03*
D18*
X63610000Y9810000D03*
D21*
X62662745Y9810000D03*
D13*
X62909999Y7269999D03*
D12*
X62210000Y7270000D03*
X76305000Y35210000D03*
X69960000Y14890000D03*
X72500000Y14890000D03*
G04 #@! TD*
G04 #@! TO.C,J2*
X62210000Y75770000D03*
D13*
X62909999Y75769999D03*
D12*
X62210000Y73230000D03*
D13*
X62909999Y73229999D03*
D12*
X62210000Y70690000D03*
D13*
X62909999Y70689999D03*
D20*
X62210000Y68150000D03*
D22*
X62910000Y68150000D03*
D20*
X62210000Y65610000D03*
D22*
X62910000Y65610000D03*
D12*
X62210000Y63070000D03*
D13*
X62909999Y63069999D03*
D12*
X62210000Y60530000D03*
D13*
X62909999Y60529999D03*
D12*
X62210000Y57990000D03*
D13*
X62909999Y57989999D03*
D12*
X62210000Y55450000D03*
D13*
X62909999Y55449999D03*
D12*
X62210000Y52910000D03*
D13*
X62909999Y52909999D03*
D12*
X62210000Y50370000D03*
D13*
X62909999Y50369999D03*
D12*
X62210000Y47830000D03*
D13*
X62909999Y47829999D03*
D12*
X62210000Y45290000D03*
D13*
X62909999Y45289999D03*
D16*
X66149999Y44589999D03*
D12*
X66150000Y43890000D03*
D16*
X68689999Y44589999D03*
D17*
X68689999Y43889999D03*
D16*
X71229999Y44589999D03*
D17*
X71229999Y43889999D03*
D16*
X73769999Y44589999D03*
D17*
X73769999Y43889999D03*
D16*
X76309999Y44589999D03*
D17*
X76309999Y43889999D03*
D13*
X79549999Y45289999D03*
D12*
X80250000Y45290000D03*
D13*
X79549999Y47829999D03*
D12*
X80250000Y47830000D03*
D13*
X79549999Y50369999D03*
D12*
X80250000Y50370000D03*
D13*
X79549999Y52909999D03*
D12*
X80250000Y52910000D03*
D13*
X79549999Y55449999D03*
D12*
X80250000Y55450000D03*
D13*
X79549999Y57989999D03*
D12*
X80250000Y57990000D03*
D13*
X79549999Y60529999D03*
D12*
X80250000Y60530000D03*
D13*
X79549999Y63069999D03*
D12*
X80250000Y63070000D03*
D23*
X78850000Y65610000D03*
D24*
X79804755Y65610000D03*
D13*
X79549999Y68149999D03*
D12*
X80250000Y68150000D03*
D14*
X78850000Y70690000D03*
D22*
X79550000Y70690000D03*
D23*
X78850000Y73230000D03*
D25*
X79797255Y73230000D03*
D13*
X79549999Y75769999D03*
D12*
X80250000Y75770000D03*
X66155000Y47830000D03*
X72500000Y68150000D03*
X69960000Y68150000D03*
G04 #@! TD*
G04 #@! TO.C,J2*
X42690000Y7270000D03*
D13*
X41989999Y7269999D03*
D12*
X42690000Y9810000D03*
D13*
X41989999Y9809999D03*
D12*
X42690000Y12350000D03*
D13*
X41989999Y12349999D03*
D14*
X42690000Y14890000D03*
D15*
X41990000Y14890000D03*
D14*
X42690000Y17430000D03*
D15*
X41990000Y17430000D03*
D12*
X42690000Y19970000D03*
D13*
X41989999Y19969999D03*
D12*
X42690000Y22510000D03*
D13*
X41989999Y22509999D03*
D12*
X42690000Y25050000D03*
D13*
X41989999Y25049999D03*
D12*
X42690000Y27590000D03*
D13*
X41989999Y27589999D03*
D12*
X42690000Y30130000D03*
D13*
X41989999Y30129999D03*
D12*
X42690000Y32670000D03*
D13*
X41989999Y32669999D03*
D12*
X42690000Y35210000D03*
D13*
X41989999Y35209999D03*
D12*
X42690000Y37750000D03*
D13*
X41989999Y37749999D03*
D16*
X38749999Y38449999D03*
D12*
X38750000Y39150000D03*
D16*
X36209999Y38449999D03*
D17*
X36209999Y39149999D03*
D16*
X33669999Y38449999D03*
D17*
X33669999Y39149999D03*
D16*
X31129999Y38449999D03*
D17*
X31129999Y39149999D03*
D16*
X28589999Y38449999D03*
D17*
X28589999Y39149999D03*
D13*
X25349999Y37749999D03*
D12*
X24650000Y37750000D03*
D13*
X25349999Y35209999D03*
D12*
X24650000Y35210000D03*
D13*
X25349999Y32669999D03*
D12*
X24650000Y32670000D03*
D13*
X25349999Y30129999D03*
D12*
X24650000Y30130000D03*
D13*
X25349999Y27589999D03*
D12*
X24650000Y27590000D03*
D13*
X25349999Y25049999D03*
D12*
X24650000Y25050000D03*
D13*
X25349999Y22509999D03*
D12*
X24650000Y22510000D03*
D13*
X25349999Y19969999D03*
D12*
X24650000Y19970000D03*
D18*
X26050000Y17430000D03*
D19*
X25095245Y17430000D03*
D13*
X25349999Y14889999D03*
D12*
X24650000Y14890000D03*
D20*
X26050000Y12350000D03*
D15*
X25350000Y12350000D03*
D18*
X26050000Y9810000D03*
D21*
X25102745Y9810000D03*
D13*
X25349999Y7269999D03*
D12*
X24650000Y7270000D03*
X38745000Y35210000D03*
X32400000Y14890000D03*
X34940000Y14890000D03*
G04 #@! TD*
G04 #@! TO.C,J2*
X99030000Y7270000D03*
D13*
X98329999Y7269999D03*
D12*
X99030000Y9810000D03*
D13*
X98329999Y9809999D03*
D12*
X99030000Y12350000D03*
D13*
X98329999Y12349999D03*
D14*
X99030000Y14890000D03*
D15*
X98330000Y14890000D03*
D14*
X99030000Y17430000D03*
D15*
X98330000Y17430000D03*
D12*
X99030000Y19970000D03*
D13*
X98329999Y19969999D03*
D12*
X99030000Y22510000D03*
D13*
X98329999Y22509999D03*
D12*
X99030000Y25050000D03*
D13*
X98329999Y25049999D03*
D12*
X99030000Y27590000D03*
D13*
X98329999Y27589999D03*
D12*
X99030000Y30130000D03*
D13*
X98329999Y30129999D03*
D12*
X99030000Y32670000D03*
D13*
X98329999Y32669999D03*
D12*
X99030000Y35210000D03*
D13*
X98329999Y35209999D03*
D12*
X99030000Y37750000D03*
D13*
X98329999Y37749999D03*
D16*
X95089999Y38449999D03*
D12*
X95090000Y39150000D03*
D16*
X92549999Y38449999D03*
D17*
X92549999Y39149999D03*
D16*
X90009999Y38449999D03*
D17*
X90009999Y39149999D03*
D16*
X87469999Y38449999D03*
D17*
X87469999Y39149999D03*
D16*
X84929999Y38449999D03*
D17*
X84929999Y39149999D03*
D13*
X81689999Y37749999D03*
D12*
X80990000Y37750000D03*
D13*
X81689999Y35209999D03*
D12*
X80990000Y35210000D03*
D13*
X81689999Y32669999D03*
D12*
X80990000Y32670000D03*
D13*
X81689999Y30129999D03*
D12*
X80990000Y30130000D03*
D13*
X81689999Y27589999D03*
D12*
X80990000Y27590000D03*
D13*
X81689999Y25049999D03*
D12*
X80990000Y25050000D03*
D13*
X81689999Y22509999D03*
D12*
X80990000Y22510000D03*
D13*
X81689999Y19969999D03*
D12*
X80990000Y19970000D03*
D18*
X82390000Y17430000D03*
D19*
X81435245Y17430000D03*
D13*
X81689999Y14889999D03*
D12*
X80990000Y14890000D03*
D20*
X82390000Y12350000D03*
D15*
X81690000Y12350000D03*
D18*
X82390000Y9810000D03*
D21*
X81442745Y9810000D03*
D13*
X81689999Y7269999D03*
D12*
X80990000Y7270000D03*
X95085000Y35210000D03*
X88740000Y14890000D03*
X91280000Y14890000D03*
G04 #@! TD*
G04 #@! TO.C,J2*
X43430000Y75770000D03*
D13*
X44129999Y75769999D03*
D12*
X43430000Y73230000D03*
D13*
X44129999Y73229999D03*
D12*
X43430000Y70690000D03*
D13*
X44129999Y70689999D03*
D20*
X43430000Y68150000D03*
D22*
X44130000Y68150000D03*
D20*
X43430000Y65610000D03*
D22*
X44130000Y65610000D03*
D12*
X43430000Y63070000D03*
D13*
X44129999Y63069999D03*
D12*
X43430000Y60530000D03*
D13*
X44129999Y60529999D03*
D12*
X43430000Y57990000D03*
D13*
X44129999Y57989999D03*
D12*
X43430000Y55450000D03*
D13*
X44129999Y55449999D03*
D12*
X43430000Y52910000D03*
D13*
X44129999Y52909999D03*
D12*
X43430000Y50370000D03*
D13*
X44129999Y50369999D03*
D12*
X43430000Y47830000D03*
D13*
X44129999Y47829999D03*
D12*
X43430000Y45290000D03*
D13*
X44129999Y45289999D03*
D16*
X47369999Y44589999D03*
D12*
X47370000Y43890000D03*
D16*
X49909999Y44589999D03*
D17*
X49909999Y43889999D03*
D16*
X52449999Y44589999D03*
D17*
X52449999Y43889999D03*
D16*
X54989999Y44589999D03*
D17*
X54989999Y43889999D03*
D16*
X57529999Y44589999D03*
D17*
X57529999Y43889999D03*
D13*
X60769999Y45289999D03*
D12*
X61470000Y45290000D03*
D13*
X60769999Y47829999D03*
D12*
X61470000Y47830000D03*
D13*
X60769999Y50369999D03*
D12*
X61470000Y50370000D03*
D13*
X60769999Y52909999D03*
D12*
X61470000Y52910000D03*
D13*
X60769999Y55449999D03*
D12*
X61470000Y55450000D03*
D13*
X60769999Y57989999D03*
D12*
X61470000Y57990000D03*
D13*
X60769999Y60529999D03*
D12*
X61470000Y60530000D03*
D13*
X60769999Y63069999D03*
D12*
X61470000Y63070000D03*
D23*
X60070000Y65610000D03*
D24*
X61024755Y65610000D03*
D13*
X60769999Y68149999D03*
D12*
X61470000Y68150000D03*
D14*
X60070000Y70690000D03*
D22*
X60770000Y70690000D03*
D23*
X60070000Y73230000D03*
D25*
X61017255Y73230000D03*
D13*
X60769999Y75769999D03*
D12*
X61470000Y75770000D03*
X47375000Y47830000D03*
X53720000Y68150000D03*
X51180000Y68150000D03*
G04 #@! TD*
G04 #@! TO.C,J2*
X80990000Y75770000D03*
D13*
X81689999Y75769999D03*
D12*
X80990000Y73230000D03*
D13*
X81689999Y73229999D03*
D12*
X80990000Y70690000D03*
D13*
X81689999Y70689999D03*
D20*
X80990000Y68150000D03*
D22*
X81690000Y68150000D03*
D20*
X80990000Y65610000D03*
D22*
X81690000Y65610000D03*
D12*
X80990000Y63070000D03*
D13*
X81689999Y63069999D03*
D12*
X80990000Y60530000D03*
D13*
X81689999Y60529999D03*
D12*
X80990000Y57990000D03*
D13*
X81689999Y57989999D03*
D12*
X80990000Y55450000D03*
D13*
X81689999Y55449999D03*
D12*
X80990000Y52910000D03*
D13*
X81689999Y52909999D03*
D12*
X80990000Y50370000D03*
D13*
X81689999Y50369999D03*
D12*
X80990000Y47830000D03*
D13*
X81689999Y47829999D03*
D12*
X80990000Y45290000D03*
D13*
X81689999Y45289999D03*
D16*
X84929999Y44589999D03*
D12*
X84930000Y43890000D03*
D16*
X87469999Y44589999D03*
D17*
X87469999Y43889999D03*
D16*
X90009999Y44589999D03*
D17*
X90009999Y43889999D03*
D16*
X92549999Y44589999D03*
D17*
X92549999Y43889999D03*
D16*
X95089999Y44589999D03*
D17*
X95089999Y43889999D03*
D13*
X98329999Y45289999D03*
D12*
X99030000Y45290000D03*
D13*
X98329999Y47829999D03*
D12*
X99030000Y47830000D03*
D13*
X98329999Y50369999D03*
D12*
X99030000Y50370000D03*
D13*
X98329999Y52909999D03*
D12*
X99030000Y52910000D03*
D13*
X98329999Y55449999D03*
D12*
X99030000Y55450000D03*
D13*
X98329999Y57989999D03*
D12*
X99030000Y57990000D03*
D13*
X98329999Y60529999D03*
D12*
X99030000Y60530000D03*
D13*
X98329999Y63069999D03*
D12*
X99030000Y63070000D03*
D23*
X97630000Y65610000D03*
D24*
X98584755Y65610000D03*
D13*
X98329999Y68149999D03*
D12*
X99030000Y68150000D03*
D14*
X97630000Y70690000D03*
D22*
X98330000Y70690000D03*
D23*
X97630000Y73230000D03*
D25*
X98577255Y73230000D03*
D13*
X98329999Y75769999D03*
D12*
X99030000Y75770000D03*
X84935000Y47830000D03*
X91280000Y68150000D03*
X88740000Y68150000D03*
G04 #@! TD*
G04 #@! TO.C,J2*
X24650000Y75770000D03*
D13*
X25349999Y75769999D03*
D12*
X24650000Y73230000D03*
D13*
X25349999Y73229999D03*
D12*
X24650000Y70690000D03*
D13*
X25349999Y70689999D03*
D20*
X24650000Y68150000D03*
D22*
X25350000Y68150000D03*
D20*
X24650000Y65610000D03*
D22*
X25350000Y65610000D03*
D12*
X24650000Y63070000D03*
D13*
X25349999Y63069999D03*
D12*
X24650000Y60530000D03*
D13*
X25349999Y60529999D03*
D12*
X24650000Y57990000D03*
D13*
X25349999Y57989999D03*
D12*
X24650000Y55450000D03*
D13*
X25349999Y55449999D03*
D12*
X24650000Y52910000D03*
D13*
X25349999Y52909999D03*
D12*
X24650000Y50370000D03*
D13*
X25349999Y50369999D03*
D12*
X24650000Y47830000D03*
D13*
X25349999Y47829999D03*
D12*
X24650000Y45290000D03*
D13*
X25349999Y45289999D03*
D16*
X28589999Y44589999D03*
D12*
X28590000Y43890000D03*
D16*
X31129999Y44589999D03*
D17*
X31129999Y43889999D03*
D16*
X33669999Y44589999D03*
D17*
X33669999Y43889999D03*
D16*
X36209999Y44589999D03*
D17*
X36209999Y43889999D03*
D16*
X38749999Y44589999D03*
D17*
X38749999Y43889999D03*
D13*
X41989999Y45289999D03*
D12*
X42690000Y45290000D03*
D13*
X41989999Y47829999D03*
D12*
X42690000Y47830000D03*
D13*
X41989999Y50369999D03*
D12*
X42690000Y50370000D03*
D13*
X41989999Y52909999D03*
D12*
X42690000Y52910000D03*
D13*
X41989999Y55449999D03*
D12*
X42690000Y55450000D03*
D13*
X41989999Y57989999D03*
D12*
X42690000Y57990000D03*
D13*
X41989999Y60529999D03*
D12*
X42690000Y60530000D03*
D13*
X41989999Y63069999D03*
D12*
X42690000Y63070000D03*
D23*
X41290000Y65610000D03*
D24*
X42244755Y65610000D03*
D13*
X41989999Y68149999D03*
D12*
X42690000Y68150000D03*
D14*
X41290000Y70690000D03*
D22*
X41990000Y70690000D03*
D23*
X41290000Y73230000D03*
D25*
X42237255Y73230000D03*
D13*
X41989999Y75769999D03*
D12*
X42690000Y75770000D03*
X28595000Y47830000D03*
X34940000Y68150000D03*
X32400000Y68150000D03*
G04 #@! TD*
D10*
G04 #@! TO.C,REF\u002A\u002A*
X6000000Y625000D03*
G04 #@! TD*
G04 #@! TO.C,REF\u002A\u002A*
X0Y6000000D03*
G04 #@! TD*
G04 #@! TO.C,REF\u002A\u002A*
X104900000Y77040000D03*
G04 #@! TD*
G04 #@! TO.C,REF\u002A\u002A*
X47795000Y76940000D03*
G04 #@! TD*
G04 #@! TO.C,REF\u002A\u002A*
X96884991Y38919937D03*
G04 #@! TD*
G04 #@! TO.C,REF\u002A\u002A*
X60074991Y44120127D03*
G04 #@! TD*
G04 #@! TO.C,REF\u002A\u002A*
X26930429Y76940000D03*
G04 #@! TD*
G04 #@! TO.C,REF\u002A\u002A*
X63605008Y44120127D03*
G04 #@! TD*
G04 #@! TO.C,REF\u002A\u002A*
X98900000Y79290000D03*
G04 #@! TD*
G04 #@! TO.C,REF\u002A\u002A*
X94665000Y6100000D03*
G04 #@! TD*
G04 #@! TO.C,REF\u002A\u002A*
X5000000Y6000000D03*
G04 #@! TD*
G04 #@! TO.C,REF\u002A\u002A*
X98900000Y83040000D03*
G04 #@! TD*
G04 #@! TO.C,REF\u002A\u002A*
X625000Y77040000D03*
G04 #@! TD*
G04 #@! TO.C,REF\u002A\u002A*
X84660143Y6100000D03*
G04 #@! TD*
G04 #@! TO.C,REF\u002A\u002A*
X59189570Y76940000D03*
G04 #@! TD*
G04 #@! TO.C,REF\u002A\u002A*
X83885008Y44120000D03*
G04 #@! TD*
G04 #@! TO.C,REF\u002A\u002A*
X8845287Y6100000D03*
G04 #@! TD*
G04 #@! TO.C,REF\u002A\u002A*
X26930429Y6100000D03*
G04 #@! TD*
G04 #@! TO.C,REF\u002A\u002A*
X64490429Y6100000D03*
G04 #@! TD*
G04 #@! TO.C,REF\u002A\u002A*
X59189570Y6100000D03*
G04 #@! TD*
G04 #@! TO.C,REF\u002A\u002A*
X82575572Y6100000D03*
G04 #@! TD*
G04 #@! TO.C,REF\u002A\u002A*
X21764991Y38919937D03*
G04 #@! TD*
G04 #@! TO.C,REF\u002A\u002A*
X77969570Y6100000D03*
G04 #@! TD*
G04 #@! TO.C,REF\u002A\u002A*
X7265009Y38919874D03*
G04 #@! TD*
G04 #@! TO.C,REF\u002A\u002A*
X98900000Y1250000D03*
G04 #@! TD*
G04 #@! TO.C,REF\u002A\u002A*
X82575572Y76940000D03*
G04 #@! TD*
G04 #@! TO.C,REF\u002A\u002A*
X81896750Y76830510D03*
G04 #@! TD*
G04 #@! TO.C,REF\u002A\u002A*
X97444427Y6100000D03*
G04 #@! TD*
G04 #@! TO.C,REF\u002A\u002A*
X29015000Y6100000D03*
G04 #@! TD*
G04 #@! TO.C,REF\u002A\u002A*
X103650000Y77040000D03*
G04 #@! TD*
G04 #@! TO.C,REF\u002A\u002A*
X103025000Y77040000D03*
G04 #@! TD*
G04 #@! TO.C,REF\u002A\u002A*
X79343249Y6209490D03*
G04 #@! TD*
G04 #@! TO.C,REF\u002A\u002A*
X78104991Y38919937D03*
G04 #@! TD*
G04 #@! TO.C,REF\u002A\u002A*
X22514991Y44120127D03*
G04 #@! TD*
G04 #@! TO.C,REF\u002A\u002A*
X6000000Y78040000D03*
G04 #@! TD*
G04 #@! TO.C,REF\u002A\u002A*
X26045008Y38919874D03*
G04 #@! TD*
G04 #@! TO.C,REF\u002A\u002A*
X57105000Y76940000D03*
G04 #@! TD*
G04 #@! TO.C,REF\u002A\u002A*
X100525000Y6000000D03*
G04 #@! TD*
G04 #@! TO.C,REF\u002A\u002A*
X3125000Y6000000D03*
G04 #@! TD*
G04 #@! TO.C,REF\u002A\u002A*
X10235000Y6100000D03*
G04 #@! TD*
G04 #@! TO.C,REF\u002A\u002A*
X95359856Y76940000D03*
G04 #@! TD*
G04 #@! TO.C,REF\u002A\u002A*
X40409570Y6100000D03*
G04 #@! TD*
G04 #@! TO.C,REF\u002A\u002A*
X3750000Y6000000D03*
G04 #@! TD*
G04 #@! TO.C,REF\u002A\u002A*
X77354991Y38920001D03*
G04 #@! TD*
G04 #@! TO.C,REF\u002A\u002A*
X46405286Y6100000D03*
G04 #@! TD*
G04 #@! TO.C,REF\u002A\u002A*
X41294991Y44120127D03*
G04 #@! TD*
G04 #@! TO.C,REF\u002A\u002A*
X20239856Y76940000D03*
G04 #@! TD*
G04 #@! TO.C,REF\u002A\u002A*
X40409570Y76940000D03*
G04 #@! TD*
G04 #@! TO.C,REF\u002A\u002A*
X9540144Y76940000D03*
G04 #@! TD*
G04 #@! TO.C,REF\u002A\u002A*
X104900000Y6000000D03*
G04 #@! TD*
G04 #@! TO.C,REF\u002A\u002A*
X7455573Y76940000D03*
G04 #@! TD*
G04 #@! TO.C,REF\u002A\u002A*
X21629570Y76940000D03*
G04 #@! TD*
G04 #@! TO.C,REF\u002A\u002A*
X23003249Y76830509D03*
G04 #@! TD*
G04 #@! TO.C,REF\u002A\u002A*
X6000000Y3750000D03*
G04 #@! TD*
G04 #@! TO.C,REF\u002A\u002A*
X58494713Y76940000D03*
G04 #@! TD*
G04 #@! TO.C,REF\u002A\u002A*
X96749570Y6100000D03*
G04 #@! TD*
G04 #@! TO.C,REF\u002A\u002A*
X96884991Y44120064D03*
G04 #@! TD*
G04 #@! TO.C,REF\u002A\u002A*
X83135008Y44120064D03*
G04 #@! TD*
G04 #@! TO.C,REF\u002A\u002A*
X27545008Y44120000D03*
G04 #@! TD*
G04 #@! TO.C,REF\u002A\u002A*
X63605008Y38919874D03*
G04 #@! TD*
G04 #@! TO.C,REF\u002A\u002A*
X28320143Y76940000D03*
G04 #@! TD*
G04 #@! TO.C,REF\u002A\u002A*
X6000000Y2500000D03*
G04 #@! TD*
G04 #@! TO.C,REF\u002A\u002A*
X98123249Y6209490D03*
G04 #@! TD*
G04 #@! TO.C,REF\u002A\u002A*
X59884427Y6100000D03*
G04 #@! TD*
G04 #@! TO.C,REF\u002A\u002A*
X101150000Y6000000D03*
G04 #@! TD*
G04 #@! TO.C,REF\u002A\u002A*
X98900000Y3750000D03*
G04 #@! TD*
G04 #@! TO.C,REF\u002A\u002A*
X104275000Y6000000D03*
G04 #@! TD*
G04 #@! TO.C,REF\u002A\u002A*
X38325000Y6100000D03*
G04 #@! TD*
G04 #@! TO.C,REF\u002A\u002A*
X63116750Y76830510D03*
G04 #@! TD*
G04 #@! TO.C,REF\u002A\u002A*
X98900000Y0D03*
G04 #@! TD*
G04 #@! TO.C,REF\u002A\u002A*
X57799856Y6100000D03*
G04 #@! TD*
G04 #@! TO.C,REF\u002A\u002A*
X101150000Y77040000D03*
G04 #@! TD*
G04 #@! TO.C,REF\u002A\u002A*
X77969570Y76940000D03*
G04 #@! TD*
G04 #@! TO.C,REF\u002A\u002A*
X64355008Y38919937D03*
G04 #@! TD*
G04 #@! TO.C,REF\u002A\u002A*
X44825008Y38919874D03*
G04 #@! TD*
G04 #@! TO.C,REF\u002A\u002A*
X39794991Y38920001D03*
G04 #@! TD*
G04 #@! TO.C,REF\u002A\u002A*
X76579856Y76940000D03*
G04 #@! TD*
G04 #@! TO.C,REF\u002A\u002A*
X65105008Y38920001D03*
G04 #@! TD*
G04 #@! TO.C,REF\u002A\u002A*
X2500000Y6000000D03*
G04 #@! TD*
G04 #@! TO.C,REF\u002A\u002A*
X39019856Y76940000D03*
G04 #@! TD*
G04 #@! TO.C,REF\u002A\u002A*
X47100143Y6100000D03*
G04 #@! TD*
G04 #@! TO.C,REF\u002A\u002A*
X41783249Y76830509D03*
G04 #@! TD*
G04 #@! TO.C,REF\u002A\u002A*
X38325000Y76940000D03*
G04 #@! TD*
G04 #@! TO.C,REF\u002A\u002A*
X39714713Y6100000D03*
G04 #@! TD*
G04 #@! TO.C,REF\u002A\u002A*
X97634991Y38919874D03*
G04 #@! TD*
G04 #@! TO.C,REF\u002A\u002A*
X26045008Y44120127D03*
G04 #@! TD*
G04 #@! TO.C,REF\u002A\u002A*
X46325008Y38920001D03*
G04 #@! TD*
G04 #@! TO.C,REF\u002A\u002A*
X20934713Y76940000D03*
G04 #@! TD*
G04 #@! TO.C,REF\u002A\u002A*
X21764991Y44120064D03*
G04 #@! TD*
G04 #@! TO.C,REF\u002A\u002A*
X98900000Y81790000D03*
G04 #@! TD*
G04 #@! TO.C,REF\u002A\u002A*
X22324427Y76940000D03*
G04 #@! TD*
G04 #@! TO.C,REF\u002A\u002A*
X19545000Y76940000D03*
G04 #@! TD*
G04 #@! TO.C,REF\u002A\u002A*
X95359856Y6100000D03*
G04 #@! TD*
G04 #@! TO.C,REF\u002A\u002A*
X77274713Y6100000D03*
G04 #@! TD*
G04 #@! TO.C,REF\u002A\u002A*
X46325008Y44120000D03*
G04 #@! TD*
G04 #@! TO.C,REF\u002A\u002A*
X98900000Y2500000D03*
G04 #@! TD*
G04 #@! TO.C,REF\u002A\u002A*
X98900000Y78665000D03*
G04 #@! TD*
G04 #@! TO.C,REF\u002A\u002A*
X45710429Y6100000D03*
G04 #@! TD*
G04 #@! TO.C,REF\u002A\u002A*
X8765009Y44120000D03*
G04 #@! TD*
G04 #@! TO.C,REF\u002A\u002A*
X78854991Y38919874D03*
G04 #@! TD*
G04 #@! TO.C,REF\u002A\u002A*
X26795008Y44120064D03*
G04 #@! TD*
G04 #@! TO.C,REF\u002A\u002A*
X7455573Y6100000D03*
G04 #@! TD*
G04 #@! TO.C,REF\u002A\u002A*
X83135008Y38919937D03*
G04 #@! TD*
G04 #@! TO.C,REF\u002A\u002A*
X27625286Y76940000D03*
G04 #@! TD*
G04 #@! TO.C,REF\u002A\u002A*
X6000000Y1250000D03*
G04 #@! TD*
G04 #@! TO.C,REF\u002A\u002A*
X4375000Y6000000D03*
G04 #@! TD*
G04 #@! TO.C,REF\u002A\u002A*
X78664427Y76940000D03*
G04 #@! TD*
G04 #@! TO.C,REF\u002A\u002A*
X85355000Y76940000D03*
G04 #@! TD*
G04 #@! TO.C,REF\u002A\u002A*
X3750000Y77040000D03*
G04 #@! TD*
G04 #@! TO.C,REF\u002A\u002A*
X101775000Y6000000D03*
G04 #@! TD*
G04 #@! TO.C,REF\u002A\u002A*
X59324991Y44120064D03*
G04 #@! TD*
G04 #@! TO.C,REF\u002A\u002A*
X99900000Y6000000D03*
G04 #@! TD*
G04 #@! TO.C,REF\u002A\u002A*
X83885008Y38920001D03*
G04 #@! TD*
G04 #@! TO.C,REF\u002A\u002A*
X75885000Y76940000D03*
G04 #@! TD*
G04 #@! TO.C,REF\u002A\u002A*
X10235000Y76940000D03*
G04 #@! TD*
G04 #@! TO.C,REF\u002A\u002A*
X65880143Y6100000D03*
G04 #@! TD*
G04 #@! TO.C,REF\u002A\u002A*
X83965286Y6100000D03*
G04 #@! TD*
G04 #@! TO.C,REF\u002A\u002A*
X98123249Y76830509D03*
G04 #@! TD*
G04 #@! TO.C,REF\u002A\u002A*
X40544991Y44120064D03*
G04 #@! TD*
G04 #@! TO.C,REF\u002A\u002A*
X6000000Y82415000D03*
G04 #@! TD*
G04 #@! TO.C,REF\u002A\u002A*
X66575000Y76940000D03*
G04 #@! TD*
G04 #@! TO.C,REF\u002A\u002A*
X8150430Y6100000D03*
G04 #@! TD*
G04 #@! TO.C,REF\u002A\u002A*
X65185286Y76940000D03*
G04 #@! TD*
G04 #@! TO.C,REF\u002A\u002A*
X97444427Y76940000D03*
G04 #@! TD*
G04 #@! TO.C,REF\u002A\u002A*
X58574991Y38920001D03*
G04 #@! TD*
G04 #@! TO.C,REF\u002A\u002A*
X65105008Y44120000D03*
G04 #@! TD*
G04 #@! TO.C,REF\u002A\u002A*
X77274713Y76940000D03*
G04 #@! TD*
G04 #@! TO.C,REF\u002A\u002A*
X104275000Y77040000D03*
G04 #@! TD*
G04 #@! TO.C,REF\u002A\u002A*
X26235572Y6100000D03*
G04 #@! TD*
D11*
G04 #@! TO.C,REF\u002A\u002A*
X102400000Y80540000D03*
G04 #@! TD*
D10*
G04 #@! TO.C,REF\u002A\u002A*
X79343249Y76830509D03*
G04 #@! TD*
G04 #@! TO.C,REF\u002A\u002A*
X29015000Y76940000D03*
G04 #@! TD*
G04 #@! TO.C,REF\u002A\u002A*
X98900000Y79915000D03*
G04 #@! TD*
G04 #@! TO.C,REF\u002A\u002A*
X8150430Y76940000D03*
G04 #@! TD*
G04 #@! TO.C,REF\u002A\u002A*
X84660143Y76940000D03*
G04 #@! TD*
G04 #@! TO.C,REF\u002A\u002A*
X81896750Y6209491D03*
G04 #@! TD*
G04 #@! TO.C,REF\u002A\u002A*
X4375000Y77040000D03*
G04 #@! TD*
D11*
G04 #@! TO.C,REF\u002A\u002A*
X2500000Y2500000D03*
G04 #@! TD*
D10*
G04 #@! TO.C,REF\u002A\u002A*
X22514991Y38919874D03*
G04 #@! TD*
D26*
G04 #@! TO.C,J1*
X95584999Y71799999D03*
X84434999Y71799999D03*
D27*
X84434999Y75799999D03*
X95584999Y75799999D03*
G04 #@! TD*
D26*
G04 #@! TO.C,J1*
X84434999Y11239999D03*
X95584999Y11239999D03*
D27*
X95584999Y7239999D03*
X84434999Y7239999D03*
G04 #@! TD*
D26*
G04 #@! TO.C,J1*
X9314999Y11239999D03*
X20464999Y11239999D03*
D27*
X20464999Y7239999D03*
X9314999Y7239999D03*
G04 #@! TD*
D26*
G04 #@! TO.C,J1*
X39244999Y71799999D03*
X28094999Y71799999D03*
D27*
X28094999Y75799999D03*
X39244999Y75799999D03*
G04 #@! TD*
D26*
G04 #@! TO.C,J1*
X20464999Y71799999D03*
X9314999Y71799999D03*
D27*
X9314999Y75799999D03*
X20464999Y75799999D03*
G04 #@! TD*
D26*
G04 #@! TO.C,J1*
X46874999Y11239999D03*
X58024999Y11239999D03*
D27*
X58024999Y7239999D03*
X46874999Y7239999D03*
G04 #@! TD*
D26*
G04 #@! TO.C,J1*
X76804999Y71799999D03*
X65654999Y71799999D03*
D27*
X65654999Y75799999D03*
X76804999Y75799999D03*
G04 #@! TD*
D26*
G04 #@! TO.C,J1*
X58024999Y71799999D03*
X46874999Y71799999D03*
D27*
X46874999Y75799999D03*
X58024999Y75799999D03*
G04 #@! TD*
D26*
G04 #@! TO.C,J1*
X28094999Y11239999D03*
X39244999Y11239999D03*
D27*
X39244999Y7239999D03*
X28094999Y7239999D03*
G04 #@! TD*
D26*
G04 #@! TO.C,J1*
X65654999Y11239999D03*
X76804999Y11239999D03*
D27*
X76804999Y7239999D03*
X65654999Y7239999D03*
G04 #@! TD*
D10*
G04 #@! TO.C,REF\u002A\u002A*
X41294991Y38919874D03*
G04 #@! TD*
G04 #@! TO.C,REF\u002A\u002A*
X98900000Y5000000D03*
G04 #@! TD*
G04 #@! TO.C,REF\u002A\u002A*
X96134991Y44120000D03*
G04 #@! TD*
G04 #@! TO.C,REF\u002A\u002A*
X41104427Y6100000D03*
G04 #@! TD*
G04 #@! TO.C,REF\u002A\u002A*
X6000000Y4375000D03*
G04 #@! TD*
G04 #@! TO.C,REF\u002A\u002A*
X6000000Y81790000D03*
G04 #@! TD*
G04 #@! TO.C,REF\u002A\u002A*
X85355000Y6100000D03*
G04 #@! TD*
G04 #@! TO.C,REF\u002A\u002A*
X66575000Y6100000D03*
G04 #@! TD*
G04 #@! TO.C,REF\u002A\u002A*
X97634991Y44120127D03*
G04 #@! TD*
G04 #@! TO.C,REF\u002A\u002A*
X1875000Y6000000D03*
G04 #@! TD*
G04 #@! TO.C,REF\u002A\u002A*
X98900000Y1875000D03*
G04 #@! TD*
G04 #@! TO.C,REF\u002A\u002A*
X78664427Y6100000D03*
G04 #@! TD*
G04 #@! TO.C,REF\u002A\u002A*
X44336750Y6209491D03*
G04 #@! TD*
G04 #@! TO.C,REF\u002A\u002A*
X76579856Y6100000D03*
G04 #@! TD*
G04 #@! TO.C,REF\u002A\u002A*
X64490429Y76940000D03*
G04 #@! TD*
G04 #@! TO.C,REF\u002A\u002A*
X44825008Y44120127D03*
G04 #@! TD*
G04 #@! TO.C,REF\u002A\u002A*
X6000000Y80540000D03*
G04 #@! TD*
G04 #@! TO.C,REF\u002A\u002A*
X103650000Y6000000D03*
G04 #@! TD*
G04 #@! TO.C,REF\u002A\u002A*
X1250000Y77040000D03*
G04 #@! TD*
G04 #@! TO.C,REF\u002A\u002A*
X21014991Y38920001D03*
G04 #@! TD*
G04 #@! TO.C,REF\u002A\u002A*
X82385008Y38919874D03*
G04 #@! TD*
G04 #@! TO.C,REF\u002A\u002A*
X94665000Y76940000D03*
G04 #@! TD*
G04 #@! TO.C,REF\u002A\u002A*
X23003249Y6209490D03*
G04 #@! TD*
G04 #@! TO.C,REF\u002A\u002A*
X20934713Y6100000D03*
G04 #@! TD*
G04 #@! TO.C,REF\u002A\u002A*
X7265009Y44120127D03*
G04 #@! TD*
G04 #@! TO.C,REF\u002A\u002A*
X96749570Y76940000D03*
G04 #@! TD*
G04 #@! TO.C,REF\u002A\u002A*
X2500000Y77040000D03*
G04 #@! TD*
G04 #@! TO.C,REF\u002A\u002A*
X26235572Y76940000D03*
G04 #@! TD*
G04 #@! TO.C,REF\u002A\u002A*
X98900000Y625000D03*
G04 #@! TD*
G04 #@! TO.C,REF\u002A\u002A*
X57105000Y6100000D03*
G04 #@! TD*
D11*
G04 #@! TO.C,REF\u002A\u002A*
X99900000Y79190000D03*
G04 #@! TD*
D28*
G04 #@! TO.C,TP1*
X14405000Y51980000D03*
G04 #@! TD*
G04 #@! TO.C,TP1*
X33185000Y51980000D03*
G04 #@! TD*
G04 #@! TO.C,TP1*
X51965000Y51980000D03*
G04 #@! TD*
G04 #@! TO.C,TP1*
X70745000Y51980000D03*
G04 #@! TD*
G04 #@! TO.C,TP1*
X89525000Y51980000D03*
G04 #@! TD*
G04 #@! TO.C,TP1*
X15375000Y31060000D03*
G04 #@! TD*
G04 #@! TO.C,TP1*
X34155000Y31060000D03*
G04 #@! TD*
G04 #@! TO.C,TP1*
X52935000Y31060000D03*
G04 #@! TD*
G04 #@! TO.C,TP1*
X71715000Y31060000D03*
G04 #@! TD*
G04 #@! TO.C,TP1*
X90495000Y31060000D03*
G04 #@! TD*
D11*
G04 #@! TO.C,REF\u002A\u002A*
X5000000Y3850000D03*
G04 #@! TD*
D28*
G04 #@! TO.C,TP2*
X15505000Y51970000D03*
G04 #@! TD*
G04 #@! TO.C,TP2*
X34285000Y51970000D03*
G04 #@! TD*
G04 #@! TO.C,TP2*
X53065000Y51970000D03*
G04 #@! TD*
G04 #@! TO.C,TP2*
X71845000Y51970000D03*
G04 #@! TD*
G04 #@! TO.C,TP2*
X90625000Y51970000D03*
G04 #@! TD*
G04 #@! TO.C,TP2*
X14275000Y31070000D03*
G04 #@! TD*
G04 #@! TO.C,TP2*
X33055000Y31070000D03*
G04 #@! TD*
G04 #@! TO.C,TP2*
X51835000Y31070000D03*
G04 #@! TD*
G04 #@! TO.C,TP2*
X70615000Y31070000D03*
G04 #@! TD*
G04 #@! TO.C,TP2*
X89395000Y31070000D03*
G04 #@! TD*
D11*
G04 #@! TO.C,REF\u002A\u002A*
X5000000Y79190000D03*
G04 #@! TD*
M02*
