G04 #@! TF.GenerationSoftware,KiCad,Pcbnew,7.0.0-da2b9df05c~165~ubuntu22.04.1*
G04 #@! TF.CreationDate,2023-10-10T20:55:34+00:00*
G04 #@! TF.ProjectId,helios-panel,68656c69-6f73-42d7-9061-6e656c2e6b69,rev1.0*
G04 #@! TF.SameCoordinates,Original*
G04 #@! TF.FileFunction,Soldermask,Top*
G04 #@! TF.FilePolarity,Negative*
%FSLAX46Y46*%
G04 Gerber Fmt 4.6, Leading zero omitted, Abs format (unit mm)*
G04 Created by KiCad (PCBNEW 7.0.0-da2b9df05c~165~ubuntu22.04.1) date 2023-10-10 20:55:34*
%MOMM*%
%LPD*%
G01*
G04 APERTURE LIST*
G04 Aperture macros list*
%AMRoundRect*
0 Rectangle with rounded corners*
0 $1 Rounding radius*
0 $2 $3 $4 $5 $6 $7 $8 $9 X,Y pos of 4 corners*
0 Add a 4 corners polygon primitive as box body*
4,1,4,$2,$3,$4,$5,$6,$7,$8,$9,$2,$3,0*
0 Add four circle primitives for the rounded corners*
1,1,$1+$1,$2,$3*
1,1,$1+$1,$4,$5*
1,1,$1+$1,$6,$7*
1,1,$1+$1,$8,$9*
0 Add four rect primitives between the rounded corners*
20,1,$1+$1,$2,$3,$4,$5,0*
20,1,$1+$1,$4,$5,$6,$7,0*
20,1,$1+$1,$6,$7,$8,$9,0*
20,1,$1+$1,$8,$9,$2,$3,0*%
%AMOutline5P*
0 Free polygon, 5 corners , with rotation*
0 The origin of the aperture is its center*
0 number of corners: always 5*
0 $1 to $10 corner X, Y*
0 $11 Rotation angle, in degrees counterclockwise*
0 create outline with 5 corners*
4,1,5,$1,$2,$3,$4,$5,$6,$7,$8,$9,$10,$1,$2,$11*%
%AMOutline6P*
0 Free polygon, 6 corners , with rotation*
0 The origin of the aperture is its center*
0 number of corners: always 6*
0 $1 to $12 corner X, Y*
0 $13 Rotation angle, in degrees counterclockwise*
0 create outline with 6 corners*
4,1,6,$1,$2,$3,$4,$5,$6,$7,$8,$9,$10,$11,$12,$1,$2,$13*%
%AMOutline7P*
0 Free polygon, 7 corners , with rotation*
0 The origin of the aperture is its center*
0 number of corners: always 7*
0 $1 to $14 corner X, Y*
0 $15 Rotation angle, in degrees counterclockwise*
0 create outline with 7 corners*
4,1,7,$1,$2,$3,$4,$5,$6,$7,$8,$9,$10,$11,$12,$13,$14,$1,$2,$15*%
%AMOutline8P*
0 Free polygon, 8 corners , with rotation*
0 The origin of the aperture is its center*
0 number of corners: always 8*
0 $1 to $16 corner X, Y*
0 $17 Rotation angle, in degrees counterclockwise*
0 create outline with 8 corners*
4,1,8,$1,$2,$3,$4,$5,$6,$7,$8,$9,$10,$11,$12,$13,$14,$15,$16,$1,$2,$17*%
%AMFreePoly0*
4,1,18,-0.437500,0.000000,-0.337500,0.100000,0.387500,0.100000,0.406634,0.096194,0.422855,0.085355,0.433694,0.069134,0.437500,0.050000,0.437500,-0.050000,0.433694,-0.069134,0.422855,-0.085355,0.406634,-0.096194,0.387500,-0.100000,-0.387500,-0.100000,-0.406634,-0.096194,-0.422855,-0.085355,-0.433694,-0.069134,-0.437500,-0.050000,-0.437500,0.000000,-0.437500,0.000000,$1*%
%AMFreePoly1*
4,1,6,1.000000,0.000000,0.500000,-0.750000,-0.500000,-0.750000,-0.500000,0.750000,0.500000,0.750000,1.000000,0.000000,1.000000,0.000000,$1*%
%AMFreePoly2*
4,1,6,0.500000,-0.750000,-0.650000,-0.750000,-0.150000,0.000000,-0.650000,0.750000,0.500000,0.750000,0.500000,-0.750000,0.500000,-0.750000,$1*%
%AMFreePoly3*
4,1,18,-0.520000,0.066000,-0.366000,0.220000,0.493600,0.220000,0.503703,0.217990,0.512268,0.212268,0.517990,0.203703,0.520000,0.193600,0.520000,-0.193600,0.517990,-0.203703,0.512268,-0.212268,0.503703,-0.217990,0.493600,-0.220000,-0.493600,-0.220000,-0.503703,-0.217990,-0.512268,-0.212268,-0.517990,-0.203703,-0.520000,-0.193600,-0.520000,0.066000,-0.520000,0.066000,$1*%
G04 Aperture macros list end*
%ADD10C,0.010000*%
%ADD11C,0.400000*%
%ADD12Outline5P,-0.350000X0.051000X-0.231000X0.170000X0.350000X0.170000X0.350000X-0.170000X-0.350000X-0.170000X90.000000*%
%ADD13R,0.340000X0.700000*%
%ADD14Outline5P,-0.350000X0.051000X-0.231000X0.170000X0.350000X0.170000X0.350000X-0.170000X-0.350000X-0.170000X270.000000*%
%ADD15RoundRect,0.135000X-0.135000X-0.185000X0.135000X-0.185000X0.135000X0.185000X-0.135000X0.185000X0*%
%ADD16RoundRect,0.135000X0.135000X0.185000X-0.135000X0.185000X-0.135000X-0.185000X0.135000X-0.185000X0*%
%ADD17RoundRect,0.135000X-0.185000X0.135000X-0.185000X-0.135000X0.185000X-0.135000X0.185000X0.135000X0*%
%ADD18RoundRect,0.135000X0.185000X-0.135000X0.185000X0.135000X-0.185000X0.135000X-0.185000X-0.135000X0*%
%ADD19RoundRect,0.140000X0.140000X0.170000X-0.140000X0.170000X-0.140000X-0.170000X0.140000X-0.170000X0*%
%ADD20RoundRect,0.140000X-0.140000X-0.170000X0.140000X-0.170000X0.140000X0.170000X-0.140000X0.170000X0*%
%ADD21Outline5P,-0.250000X0.056250X-0.118750X0.187500X0.250000X0.187500X0.250000X-0.187500X-0.250000X-0.187500X90.000000*%
%ADD22R,0.300000X0.650000*%
%ADD23R,0.375000X0.500000*%
%ADD24Outline5P,-0.250000X0.056250X-0.118750X0.187500X0.250000X0.187500X0.250000X-0.187500X-0.250000X-0.187500X270.000000*%
%ADD25C,2.000000*%
%ADD26FreePoly0,180.000000*%
%ADD27RoundRect,0.050000X0.387500X0.050000X-0.387500X0.050000X-0.387500X-0.050000X0.387500X-0.050000X0*%
%ADD28RoundRect,0.050000X0.050000X0.387500X-0.050000X0.387500X-0.050000X-0.387500X0.050000X-0.387500X0*%
%ADD29RoundRect,0.144000X1.456000X1.456000X-1.456000X1.456000X-1.456000X-1.456000X1.456000X-1.456000X0*%
%ADD30FreePoly0,0.000000*%
%ADD31RoundRect,0.050000X-0.387500X-0.050000X0.387500X-0.050000X0.387500X0.050000X-0.387500X0.050000X0*%
%ADD32RoundRect,0.050000X-0.050000X-0.387500X0.050000X-0.387500X0.050000X0.387500X-0.050000X0.387500X0*%
%ADD33RoundRect,0.144000X-1.456000X-1.456000X1.456000X-1.456000X1.456000X1.456000X-1.456000X1.456000X0*%
%ADD34RoundRect,0.075000X-0.075000X-0.375000X0.075000X-0.375000X0.075000X0.375000X-0.075000X0.375000X0*%
%ADD35RoundRect,0.075000X0.075000X0.375000X-0.075000X0.375000X-0.075000X-0.375000X0.075000X-0.375000X0*%
%ADD36RoundRect,0.140000X-0.170000X0.140000X-0.170000X-0.140000X0.170000X-0.140000X0.170000X0.140000X0*%
%ADD37RoundRect,0.140000X0.170000X-0.140000X0.170000X0.140000X-0.170000X0.140000X-0.170000X-0.140000X0*%
%ADD38FreePoly1,90.000000*%
%ADD39FreePoly2,90.000000*%
%ADD40FreePoly1,270.000000*%
%ADD41FreePoly2,270.000000*%
%ADD42R,0.640000X0.590000*%
%ADD43RoundRect,0.147500X0.172500X-0.147500X0.172500X0.147500X-0.172500X0.147500X-0.172500X-0.147500X0*%
%ADD44RoundRect,0.147500X-0.172500X0.147500X-0.172500X-0.147500X0.172500X-0.147500X0.172500X0.147500X0*%
%ADD45R,0.500000X0.700000*%
%ADD46RoundRect,0.125000X-0.125000X-0.225000X0.125000X-0.225000X0.125000X0.225000X-0.125000X0.225000X0*%
%ADD47RoundRect,0.125000X0.125000X0.225000X-0.125000X0.225000X-0.125000X-0.225000X0.125000X-0.225000X0*%
%ADD48RoundRect,0.250000X0.325000X0.250000X-0.325000X0.250000X-0.325000X-0.250000X0.325000X-0.250000X0*%
%ADD49RoundRect,0.250000X-0.325000X-0.250000X0.325000X-0.250000X0.325000X0.250000X-0.325000X0.250000X0*%
%ADD50FreePoly3,180.000000*%
%ADD51RoundRect,0.026400X0.493600X0.193600X-0.493600X0.193600X-0.493600X-0.193600X0.493600X-0.193600X0*%
%ADD52R,3.400000X4.300000*%
%ADD53FreePoly3,0.000000*%
%ADD54RoundRect,0.026400X-0.493600X-0.193600X0.493600X-0.193600X0.493600X0.193600X-0.493600X0.193600X0*%
%ADD55RoundRect,0.137500X-0.137500X0.212500X-0.137500X-0.212500X0.137500X-0.212500X0.137500X0.212500X0*%
%ADD56RoundRect,0.137500X0.137500X-0.212500X0.137500X0.212500X-0.137500X0.212500X-0.137500X-0.212500X0*%
%ADD57C,1.700000*%
%ADD58O,3.230000X1.700000*%
%ADD59O,3.230000X1.720000*%
%ADD60RoundRect,0.425000X0.425000X0.425000X-0.425000X0.425000X-0.425000X-0.425000X0.425000X-0.425000X0*%
%ADD61RoundRect,0.425000X-1.190000X-0.425000X1.190000X-0.425000X1.190000X0.425000X-1.190000X0.425000X0*%
%ADD62O,1.700000X3.230000*%
%ADD63O,1.700000X1.700000*%
%ADD64O,3.230000X1.710000*%
%ADD65RoundRect,0.350000X0.000000X-0.494975X0.494975X0.000000X0.000000X0.494975X-0.494975X0.000000X0*%
%ADD66RoundRect,0.350000X-0.999755X-0.500000X0.999755X-0.500000X0.999755X0.500000X-0.999755X0.500000X0*%
%ADD67O,3.000000X1.700000*%
%ADD68RoundRect,0.425000X1.190000X0.425000X-1.190000X0.425000X-1.190000X-0.425000X1.190000X-0.425000X0*%
%ADD69RoundRect,0.425000X-0.425000X-0.425000X0.425000X-0.425000X0.425000X0.425000X-0.425000X0.425000X0*%
%ADD70RoundRect,0.350000X0.000000X0.494975X-0.494975X0.000000X0.000000X-0.494975X0.494975X0.000000X0*%
%ADD71RoundRect,0.350000X0.999755X0.500000X-0.999755X0.500000X-0.999755X-0.500000X0.999755X-0.500000X0*%
%ADD72R,0.600000X1.150000*%
%ADD73R,0.300000X1.150000*%
%ADD74O,1.000000X1.700000*%
%ADD75O,1.000000X2.100000*%
%ADD76RoundRect,0.218750X-0.218750X-0.256250X0.218750X-0.256250X0.218750X0.256250X-0.218750X0.256250X0*%
%ADD77RoundRect,0.218750X0.218750X0.256250X-0.218750X0.256250X-0.218750X-0.256250X0.218750X-0.256250X0*%
G04 APERTURE END LIST*
D10*
G04 #@! TO.C,JP2*
X30565000Y14710000D02*
X30815000Y14710000D01*
X30815000Y14710000D02*
X30815000Y14310000D01*
X30815000Y14310000D02*
X30565000Y14310000D01*
X30565000Y14310000D02*
X30565000Y14710000D01*
G36*
X30565000Y14710000D02*
G01*
X30815000Y14710000D01*
X30815000Y14310000D01*
X30565000Y14310000D01*
X30565000Y14710000D01*
G37*
X10165000Y14710000D02*
X10415000Y14710000D01*
X10415000Y14710000D02*
X10415000Y14310000D01*
X10415000Y14310000D02*
X10165000Y14310000D01*
X10165000Y14310000D02*
X10165000Y14710000D01*
G36*
X10165000Y14710000D02*
G01*
X10415000Y14710000D01*
X10415000Y14310000D01*
X10165000Y14310000D01*
X10165000Y14710000D01*
G37*
X63035000Y72950000D02*
X62785000Y72950000D01*
X62785000Y72950000D02*
X62785000Y73350000D01*
X62785000Y73350000D02*
X63035000Y73350000D01*
X63035000Y73350000D02*
X63035000Y72950000D01*
G36*
X63035000Y72950000D02*
G01*
X62785000Y72950000D01*
X62785000Y73350000D01*
X63035000Y73350000D01*
X63035000Y72950000D01*
G37*
X50965000Y14710000D02*
X51215000Y14710000D01*
X51215000Y14710000D02*
X51215000Y14310000D01*
X51215000Y14310000D02*
X50965000Y14310000D01*
X50965000Y14310000D02*
X50965000Y14710000D01*
G36*
X50965000Y14710000D02*
G01*
X51215000Y14710000D01*
X51215000Y14310000D01*
X50965000Y14310000D01*
X50965000Y14710000D01*
G37*
X83435000Y72950000D02*
X83185000Y72950000D01*
X83185000Y72950000D02*
X83185000Y73350000D01*
X83185000Y73350000D02*
X83435000Y73350000D01*
X83435000Y73350000D02*
X83435000Y72950000D01*
G36*
X83435000Y72950000D02*
G01*
X83185000Y72950000D01*
X83185000Y73350000D01*
X83435000Y73350000D01*
X83435000Y72950000D01*
G37*
X42635000Y72950000D02*
X42385000Y72950000D01*
X42385000Y72950000D02*
X42385000Y73350000D01*
X42385000Y73350000D02*
X42635000Y73350000D01*
X42635000Y73350000D02*
X42635000Y72950000D01*
G36*
X42635000Y72950000D02*
G01*
X42385000Y72950000D01*
X42385000Y73350000D01*
X42635000Y73350000D01*
X42635000Y72950000D01*
G37*
X22235000Y72950000D02*
X21985000Y72950000D01*
X21985000Y72950000D02*
X21985000Y73350000D01*
X21985000Y73350000D02*
X22235000Y73350000D01*
X22235000Y73350000D02*
X22235000Y72950000D01*
G36*
X22235000Y72950000D02*
G01*
X21985000Y72950000D01*
X21985000Y73350000D01*
X22235000Y73350000D01*
X22235000Y72950000D01*
G37*
X103835000Y72950000D02*
X103585000Y72950000D01*
X103585000Y72950000D02*
X103585000Y73350000D01*
X103585000Y73350000D02*
X103835000Y73350000D01*
X103835000Y73350000D02*
X103835000Y72950000D01*
G36*
X103835000Y72950000D02*
G01*
X103585000Y72950000D01*
X103585000Y73350000D01*
X103835000Y73350000D01*
X103835000Y72950000D01*
G37*
X71365000Y14710000D02*
X71615000Y14710000D01*
X71615000Y14710000D02*
X71615000Y14310000D01*
X71615000Y14310000D02*
X71365000Y14310000D01*
X71365000Y14310000D02*
X71365000Y14710000D01*
G36*
X71365000Y14710000D02*
G01*
X71615000Y14710000D01*
X71615000Y14310000D01*
X71365000Y14310000D01*
X71365000Y14710000D01*
G37*
X91765000Y14710000D02*
X92015000Y14710000D01*
X92015000Y14710000D02*
X92015000Y14310000D01*
X92015000Y14310000D02*
X91765000Y14310000D01*
X91765000Y14310000D02*
X91765000Y14710000D01*
G36*
X91765000Y14710000D02*
G01*
X92015000Y14710000D01*
X92015000Y14310000D01*
X91765000Y14310000D01*
X91765000Y14710000D01*
G37*
G04 #@! TO.C,U2*
G36*
X81698143Y69383143D02*
G01*
X81285000Y68970001D01*
X80871857Y69383143D01*
X81285000Y69796286D01*
X81698143Y69383143D01*
G37*
X81698143Y69383143D02*
X81285000Y68970001D01*
X80871857Y69383143D01*
X81285000Y69796286D01*
X81698143Y69383143D01*
G36*
X81150000Y69735000D02*
G01*
X80905000Y69485000D01*
X80625000Y69485000D01*
X80625000Y69865000D01*
X81150000Y69865000D01*
X81150000Y69735000D01*
G37*
G36*
X81150000Y69035000D02*
G01*
X81150000Y68905000D01*
X80625000Y68905000D01*
X80625000Y69285000D01*
X80905000Y69285000D01*
X81150000Y69035000D01*
G37*
G36*
X81945000Y69485000D02*
G01*
X81665000Y69485000D01*
X81420000Y69735000D01*
X81420000Y69865000D01*
X81945000Y69865000D01*
X81945000Y69485000D01*
G37*
G36*
X81945000Y68905000D02*
G01*
X81420000Y68905000D01*
X81420000Y69035000D01*
X81665000Y69285000D01*
X81945000Y69285000D01*
X81945000Y68905000D01*
G37*
G36*
X61298143Y69383143D02*
G01*
X60885000Y68970001D01*
X60471857Y69383143D01*
X60885000Y69796286D01*
X61298143Y69383143D01*
G37*
X61298143Y69383143D02*
X60885000Y68970001D01*
X60471857Y69383143D01*
X60885000Y69796286D01*
X61298143Y69383143D01*
G36*
X60750000Y69735000D02*
G01*
X60505000Y69485000D01*
X60225000Y69485000D01*
X60225000Y69865000D01*
X60750000Y69865000D01*
X60750000Y69735000D01*
G37*
G36*
X60750000Y69035000D02*
G01*
X60750000Y68905000D01*
X60225000Y68905000D01*
X60225000Y69285000D01*
X60505000Y69285000D01*
X60750000Y69035000D01*
G37*
G36*
X61545000Y69485000D02*
G01*
X61265000Y69485000D01*
X61020000Y69735000D01*
X61020000Y69865000D01*
X61545000Y69865000D01*
X61545000Y69485000D01*
G37*
G36*
X61545000Y68905000D02*
G01*
X61020000Y68905000D01*
X61020000Y69035000D01*
X61265000Y69285000D01*
X61545000Y69285000D01*
X61545000Y68905000D01*
G37*
G36*
X53528143Y18276857D02*
G01*
X53115000Y17863714D01*
X52701857Y18276857D01*
X53115000Y18689999D01*
X53528143Y18276857D01*
G37*
X53528143Y18276857D02*
X53115000Y17863714D01*
X52701857Y18276857D01*
X53115000Y18689999D01*
X53528143Y18276857D01*
G36*
X53775000Y17795000D02*
G01*
X53250000Y17795000D01*
X53250000Y17925000D01*
X53495000Y18175000D01*
X53775000Y18175000D01*
X53775000Y17795000D01*
G37*
G36*
X53775000Y18375000D02*
G01*
X53495000Y18375000D01*
X53250000Y18625000D01*
X53250000Y18755000D01*
X53775000Y18755000D01*
X53775000Y18375000D01*
G37*
G36*
X52980000Y17925000D02*
G01*
X52980000Y17795000D01*
X52455000Y17795000D01*
X52455000Y18175000D01*
X52735000Y18175000D01*
X52980000Y17925000D01*
G37*
G36*
X52980000Y18625000D02*
G01*
X52735000Y18375000D01*
X52455000Y18375000D01*
X52455000Y18755000D01*
X52980000Y18755000D01*
X52980000Y18625000D01*
G37*
G36*
X20498143Y69383143D02*
G01*
X20085000Y68970001D01*
X19671857Y69383143D01*
X20085000Y69796286D01*
X20498143Y69383143D01*
G37*
X20498143Y69383143D02*
X20085000Y68970001D01*
X19671857Y69383143D01*
X20085000Y69796286D01*
X20498143Y69383143D01*
G36*
X19950000Y69735000D02*
G01*
X19705000Y69485000D01*
X19425000Y69485000D01*
X19425000Y69865000D01*
X19950000Y69865000D01*
X19950000Y69735000D01*
G37*
G36*
X19950000Y69035000D02*
G01*
X19950000Y68905000D01*
X19425000Y68905000D01*
X19425000Y69285000D01*
X19705000Y69285000D01*
X19950000Y69035000D01*
G37*
G36*
X20745000Y69485000D02*
G01*
X20465000Y69485000D01*
X20220000Y69735000D01*
X20220000Y69865000D01*
X20745000Y69865000D01*
X20745000Y69485000D01*
G37*
G36*
X20745000Y68905000D02*
G01*
X20220000Y68905000D01*
X20220000Y69035000D01*
X20465000Y69285000D01*
X20745000Y69285000D01*
X20745000Y68905000D01*
G37*
G36*
X33128143Y18276857D02*
G01*
X32715000Y17863714D01*
X32301857Y18276857D01*
X32715000Y18689999D01*
X33128143Y18276857D01*
G37*
X33128143Y18276857D02*
X32715000Y17863714D01*
X32301857Y18276857D01*
X32715000Y18689999D01*
X33128143Y18276857D01*
G36*
X33375000Y17795000D02*
G01*
X32850000Y17795000D01*
X32850000Y17925000D01*
X33095000Y18175000D01*
X33375000Y18175000D01*
X33375000Y17795000D01*
G37*
G36*
X33375000Y18375000D02*
G01*
X33095000Y18375000D01*
X32850000Y18625000D01*
X32850000Y18755000D01*
X33375000Y18755000D01*
X33375000Y18375000D01*
G37*
G36*
X32580000Y17925000D02*
G01*
X32580000Y17795000D01*
X32055000Y17795000D01*
X32055000Y18175000D01*
X32335000Y18175000D01*
X32580000Y17925000D01*
G37*
G36*
X32580000Y18625000D02*
G01*
X32335000Y18375000D01*
X32055000Y18375000D01*
X32055000Y18755000D01*
X32580000Y18755000D01*
X32580000Y18625000D01*
G37*
G36*
X40898143Y69383143D02*
G01*
X40485000Y68970001D01*
X40071857Y69383143D01*
X40485000Y69796286D01*
X40898143Y69383143D01*
G37*
X40898143Y69383143D02*
X40485000Y68970001D01*
X40071857Y69383143D01*
X40485000Y69796286D01*
X40898143Y69383143D01*
G36*
X40350000Y69735000D02*
G01*
X40105000Y69485000D01*
X39825000Y69485000D01*
X39825000Y69865000D01*
X40350000Y69865000D01*
X40350000Y69735000D01*
G37*
G36*
X40350000Y69035000D02*
G01*
X40350000Y68905000D01*
X39825000Y68905000D01*
X39825000Y69285000D01*
X40105000Y69285000D01*
X40350000Y69035000D01*
G37*
G36*
X41145000Y69485000D02*
G01*
X40865000Y69485000D01*
X40620000Y69735000D01*
X40620000Y69865000D01*
X41145000Y69865000D01*
X41145000Y69485000D01*
G37*
G36*
X41145000Y68905000D02*
G01*
X40620000Y68905000D01*
X40620000Y69035000D01*
X40865000Y69285000D01*
X41145000Y69285000D01*
X41145000Y68905000D01*
G37*
G36*
X94328143Y18276857D02*
G01*
X93915000Y17863714D01*
X93501857Y18276857D01*
X93915000Y18689999D01*
X94328143Y18276857D01*
G37*
X94328143Y18276857D02*
X93915000Y17863714D01*
X93501857Y18276857D01*
X93915000Y18689999D01*
X94328143Y18276857D01*
G36*
X94575000Y17795000D02*
G01*
X94050000Y17795000D01*
X94050000Y17925000D01*
X94295000Y18175000D01*
X94575000Y18175000D01*
X94575000Y17795000D01*
G37*
G36*
X94575000Y18375000D02*
G01*
X94295000Y18375000D01*
X94050000Y18625000D01*
X94050000Y18755000D01*
X94575000Y18755000D01*
X94575000Y18375000D01*
G37*
G36*
X93780000Y17925000D02*
G01*
X93780000Y17795000D01*
X93255000Y17795000D01*
X93255000Y18175000D01*
X93535000Y18175000D01*
X93780000Y17925000D01*
G37*
G36*
X93780000Y18625000D02*
G01*
X93535000Y18375000D01*
X93255000Y18375000D01*
X93255000Y18755000D01*
X93780000Y18755000D01*
X93780000Y18625000D01*
G37*
G36*
X73928143Y18276857D02*
G01*
X73515000Y17863714D01*
X73101857Y18276857D01*
X73515000Y18689999D01*
X73928143Y18276857D01*
G37*
X73928143Y18276857D02*
X73515000Y17863714D01*
X73101857Y18276857D01*
X73515000Y18689999D01*
X73928143Y18276857D01*
G36*
X74175000Y17795000D02*
G01*
X73650000Y17795000D01*
X73650000Y17925000D01*
X73895000Y18175000D01*
X74175000Y18175000D01*
X74175000Y17795000D01*
G37*
G36*
X74175000Y18375000D02*
G01*
X73895000Y18375000D01*
X73650000Y18625000D01*
X73650000Y18755000D01*
X74175000Y18755000D01*
X74175000Y18375000D01*
G37*
G36*
X73380000Y17925000D02*
G01*
X73380000Y17795000D01*
X72855000Y17795000D01*
X72855000Y18175000D01*
X73135000Y18175000D01*
X73380000Y17925000D01*
G37*
G36*
X73380000Y18625000D02*
G01*
X73135000Y18375000D01*
X72855000Y18375000D01*
X72855000Y18755000D01*
X73380000Y18755000D01*
X73380000Y18625000D01*
G37*
G36*
X12728143Y18276857D02*
G01*
X12315000Y17863714D01*
X11901857Y18276857D01*
X12315000Y18689999D01*
X12728143Y18276857D01*
G37*
X12728143Y18276857D02*
X12315000Y17863714D01*
X11901857Y18276857D01*
X12315000Y18689999D01*
X12728143Y18276857D01*
G36*
X12975000Y17795000D02*
G01*
X12450000Y17795000D01*
X12450000Y17925000D01*
X12695000Y18175000D01*
X12975000Y18175000D01*
X12975000Y17795000D01*
G37*
G36*
X12975000Y18375000D02*
G01*
X12695000Y18375000D01*
X12450000Y18625000D01*
X12450000Y18755000D01*
X12975000Y18755000D01*
X12975000Y18375000D01*
G37*
G36*
X12180000Y17925000D02*
G01*
X12180000Y17795000D01*
X11655000Y17795000D01*
X11655000Y18175000D01*
X11935000Y18175000D01*
X12180000Y17925000D01*
G37*
G36*
X12180000Y18625000D02*
G01*
X11935000Y18375000D01*
X11655000Y18375000D01*
X11655000Y18755000D01*
X12180000Y18755000D01*
X12180000Y18625000D01*
G37*
G36*
X102098143Y69383143D02*
G01*
X101685000Y68970001D01*
X101271857Y69383143D01*
X101685000Y69796286D01*
X102098143Y69383143D01*
G37*
X102098143Y69383143D02*
X101685000Y68970001D01*
X101271857Y69383143D01*
X101685000Y69796286D01*
X102098143Y69383143D01*
G36*
X101550000Y69735000D02*
G01*
X101305000Y69485000D01*
X101025000Y69485000D01*
X101025000Y69865000D01*
X101550000Y69865000D01*
X101550000Y69735000D01*
G37*
G36*
X101550000Y69035000D02*
G01*
X101550000Y68905000D01*
X101025000Y68905000D01*
X101025000Y69285000D01*
X101305000Y69285000D01*
X101550000Y69035000D01*
G37*
G36*
X102345000Y69485000D02*
G01*
X102065000Y69485000D01*
X101820000Y69735000D01*
X101820000Y69865000D01*
X102345000Y69865000D01*
X102345000Y69485000D01*
G37*
G36*
X102345000Y68905000D02*
G01*
X101820000Y68905000D01*
X101820000Y69035000D01*
X102065000Y69285000D01*
X102345000Y69285000D01*
X102345000Y68905000D01*
G37*
G04 #@! TD*
D11*
G04 #@! TO.C,REF\u002A\u002A*
X8065000Y7000000D03*
G04 #@! TD*
G04 #@! TO.C,REF\u002A\u002A*
X50735000Y47330001D03*
G04 #@! TD*
G04 #@! TO.C,REF\u002A\u002A*
X72275000Y80660000D03*
G04 #@! TD*
G04 #@! TO.C,REF\u002A\u002A*
X29668318Y47330001D03*
G04 #@! TD*
D12*
G04 #@! TO.C,Q1*
X53734999Y34579999D03*
D13*
X54234999Y34579999D03*
X54734999Y34579999D03*
X54734999Y36079999D03*
X54234999Y36079999D03*
X53734999Y36079999D03*
G04 #@! TD*
D12*
G04 #@! TO.C,Q1*
X12934999Y34579999D03*
D13*
X13434999Y34579999D03*
X13934999Y34579999D03*
X13934999Y36079999D03*
X13434999Y36079999D03*
X12934999Y36079999D03*
G04 #@! TD*
D14*
G04 #@! TO.C,Q1*
X101064999Y53079999D03*
D13*
X100564999Y53079999D03*
X100064999Y53079999D03*
X100064999Y51579999D03*
X100564999Y51579999D03*
X101064999Y51579999D03*
G04 #@! TD*
D14*
G04 #@! TO.C,Q1*
X80664999Y53079999D03*
D13*
X80164999Y53079999D03*
X79664999Y53079999D03*
X79664999Y51579999D03*
X80164999Y51579999D03*
X80664999Y51579999D03*
G04 #@! TD*
D12*
G04 #@! TO.C,Q1*
X33334999Y34579999D03*
D13*
X33834999Y34579999D03*
X34334999Y34579999D03*
X34334999Y36079999D03*
X33834999Y36079999D03*
X33334999Y36079999D03*
G04 #@! TD*
D12*
G04 #@! TO.C,Q1*
X74134999Y34579999D03*
D13*
X74634999Y34579999D03*
X75134999Y34579999D03*
X75134999Y36079999D03*
X74634999Y36079999D03*
X74134999Y36079999D03*
G04 #@! TD*
D14*
G04 #@! TO.C,Q1*
X19464999Y53079999D03*
D13*
X18964999Y53079999D03*
X18464999Y53079999D03*
X18464999Y51579999D03*
X18964999Y51579999D03*
X19464999Y51579999D03*
G04 #@! TD*
D12*
G04 #@! TO.C,Q1*
X94534999Y34579999D03*
D13*
X95034999Y34579999D03*
X95534999Y34579999D03*
X95534999Y36079999D03*
X95034999Y36079999D03*
X94534999Y36079999D03*
G04 #@! TD*
D14*
G04 #@! TO.C,Q1*
X39864999Y53079999D03*
D13*
X39364999Y53079999D03*
X38864999Y53079999D03*
X38864999Y51579999D03*
X39364999Y51579999D03*
X39864999Y51579999D03*
G04 #@! TD*
D14*
G04 #@! TO.C,Q1*
X60264999Y53079999D03*
D13*
X59764999Y53079999D03*
X59264999Y53079999D03*
X59264999Y51579999D03*
X59764999Y51579999D03*
X60264999Y51579999D03*
G04 #@! TD*
D11*
G04 #@! TO.C,REF\u002A\u002A*
X28465000Y7000000D03*
G04 #@! TD*
G04 #@! TO.C,REF\u002A\u002A*
X107000000Y43530000D03*
G04 #@! TD*
G04 #@! TO.C,REF\u002A\u002A*
X64608377Y47330001D03*
G04 #@! TD*
G04 #@! TO.C,REF\u002A\u002A*
X87600000Y44730000D03*
G04 #@! TD*
G04 #@! TO.C,REF\u002A\u002A*
X107000000Y42930000D03*
G04 #@! TD*
G04 #@! TO.C,REF\u002A\u002A*
X44865000Y40327633D03*
G04 #@! TD*
G04 #@! TO.C,REF\u002A\u002A*
X70465000Y7000000D03*
G04 #@! TD*
G04 #@! TO.C,REF\u002A\u002A*
X23808377Y47330001D03*
G04 #@! TD*
G04 #@! TO.C,REF\u002A\u002A*
X23798362Y40330000D03*
G04 #@! TD*
G04 #@! TO.C,REF\u002A\u002A*
X82525000Y7000000D03*
G04 #@! TD*
G04 #@! TO.C,REF\u002A\u002A*
X67200000Y43530000D03*
G04 #@! TD*
G04 #@! TO.C,REF\u002A\u002A*
X22475000Y47330001D03*
G04 #@! TD*
D15*
G04 #@! TO.C,R5*
X41145000Y16135000D03*
X42165000Y16135000D03*
G04 #@! TD*
G04 #@! TO.C,R5*
X20745000Y16135000D03*
X21765000Y16135000D03*
G04 #@! TD*
D16*
G04 #@! TO.C,R5*
X93255000Y71525000D03*
X92235000Y71525000D03*
G04 #@! TD*
D15*
G04 #@! TO.C,R5*
X61545000Y16135000D03*
X62565000Y16135000D03*
G04 #@! TD*
G04 #@! TO.C,R5*
X102345000Y16135000D03*
X103365000Y16135000D03*
G04 #@! TD*
G04 #@! TO.C,R5*
X81945000Y16135000D03*
X82965000Y16135000D03*
G04 #@! TD*
D16*
G04 #@! TO.C,R5*
X11655000Y71525000D03*
X10635000Y71525000D03*
G04 #@! TD*
G04 #@! TO.C,R5*
X32055000Y71525000D03*
X31035000Y71525000D03*
G04 #@! TD*
G04 #@! TO.C,R5*
X52455000Y71525000D03*
X51435000Y71525000D03*
G04 #@! TD*
G04 #@! TO.C,R5*
X72855000Y71525000D03*
X71835000Y71525000D03*
G04 #@! TD*
D11*
G04 #@! TO.C,REF\u002A\u002A*
X105925000Y7000000D03*
G04 #@! TD*
G04 #@! TO.C,REF\u002A\u002A*
X107000000Y0D03*
G04 #@! TD*
G04 #@! TO.C,REF\u002A\u002A*
X0Y80660000D03*
G04 #@! TD*
G04 #@! TO.C,REF\u002A\u002A*
X7000000Y83285000D03*
G04 #@! TD*
G04 #@! TO.C,REF\u002A\u002A*
X87600000Y44130000D03*
G04 #@! TD*
G04 #@! TO.C,REF\u002A\u002A*
X7935000Y47332368D03*
G04 #@! TD*
G04 #@! TO.C,REF\u002A\u002A*
X83735000Y80660000D03*
G04 #@! TD*
G04 #@! TO.C,REF\u002A\u002A*
X107000000Y3750000D03*
G04 #@! TD*
G04 #@! TO.C,REF\u002A\u002A*
X30875000Y80660000D03*
G04 #@! TD*
G04 #@! TO.C,REF\u002A\u002A*
X23131681Y40330000D03*
G04 #@! TD*
G04 #@! TO.C,REF\u002A\u002A*
X104065000Y40330000D03*
G04 #@! TD*
G04 #@! TO.C,REF\u002A\u002A*
X89665000Y7000000D03*
G04 #@! TD*
G04 #@! TO.C,REF\u002A\u002A*
X5000000Y80660000D03*
G04 #@! TD*
D17*
G04 #@! TO.C,R3*
X76215000Y36950000D03*
X76215000Y35930000D03*
G04 #@! TD*
D18*
G04 #@! TO.C,R3*
X98985000Y50710000D03*
X98985000Y51730000D03*
G04 #@! TD*
G04 #@! TO.C,R3*
X17385000Y50710000D03*
X17385000Y51730000D03*
G04 #@! TD*
D17*
G04 #@! TO.C,R3*
X15015000Y36950000D03*
X15015000Y35930000D03*
G04 #@! TD*
D18*
G04 #@! TO.C,R3*
X37785000Y50710000D03*
X37785000Y51730000D03*
G04 #@! TD*
G04 #@! TO.C,R3*
X58185000Y50710000D03*
X58185000Y51730000D03*
G04 #@! TD*
D17*
G04 #@! TO.C,R3*
X35415000Y36950000D03*
X35415000Y35930000D03*
G04 #@! TD*
D18*
G04 #@! TO.C,R3*
X78585000Y50710000D03*
X78585000Y51730000D03*
G04 #@! TD*
D17*
G04 #@! TO.C,R3*
X96615000Y36950000D03*
X96615000Y35930000D03*
G04 #@! TD*
G04 #@! TO.C,R3*
X55815000Y36950000D03*
X55815000Y35930000D03*
G04 #@! TD*
D11*
G04 #@! TO.C,REF\u002A\u002A*
X8075000Y80660000D03*
G04 #@! TD*
G04 #@! TO.C,REF\u002A\u002A*
X3750000Y7000000D03*
G04 #@! TD*
G04 #@! TO.C,REF\u002A\u002A*
X51875000Y80660000D03*
G04 #@! TD*
G04 #@! TO.C,REF\u002A\u002A*
X24475000Y47333138D03*
G04 #@! TD*
D19*
G04 #@! TO.C,C3*
X33945000Y15480000D03*
X32985000Y15480000D03*
G04 #@! TD*
G04 #@! TO.C,C3*
X54345000Y15480000D03*
X53385000Y15480000D03*
G04 #@! TD*
G04 #@! TO.C,C3*
X74745000Y15480000D03*
X73785000Y15480000D03*
G04 #@! TD*
D20*
G04 #@! TO.C,C3*
X18855000Y72180000D03*
X19815000Y72180000D03*
G04 #@! TD*
D19*
G04 #@! TO.C,C3*
X95145000Y15480000D03*
X94185000Y15480000D03*
G04 #@! TD*
D20*
G04 #@! TO.C,C3*
X59655000Y72180000D03*
X60615000Y72180000D03*
G04 #@! TD*
G04 #@! TO.C,C3*
X39255000Y72180000D03*
X40215000Y72180000D03*
G04 #@! TD*
G04 #@! TO.C,C3*
X80055000Y72180000D03*
X81015000Y72180000D03*
G04 #@! TD*
D19*
G04 #@! TO.C,C3*
X13545000Y15480000D03*
X12585000Y15480000D03*
G04 #@! TD*
D20*
G04 #@! TO.C,C3*
X100455000Y72180000D03*
X101415000Y72180000D03*
G04 #@! TD*
D11*
G04 #@! TO.C,REF\u002A\u002A*
X24335000Y80660000D03*
G04 #@! TD*
G04 #@! TO.C,REF\u002A\u002A*
X62125000Y7000000D03*
G04 #@! TD*
G04 #@! TO.C,REF\u002A\u002A*
X21325000Y7000000D03*
G04 #@! TD*
G04 #@! TO.C,REF\u002A\u002A*
X71075000Y80660000D03*
G04 #@! TD*
G04 #@! TO.C,REF\u002A\u002A*
X3750000Y80660000D03*
G04 #@! TD*
G04 #@! TO.C,REF\u002A\u002A*
X102925000Y7000000D03*
G04 #@! TD*
G04 #@! TO.C,REF\u002A\u002A*
X109000000Y80660000D03*
G04 #@! TD*
D21*
G04 #@! TO.C,U1*
X56467499Y68899999D03*
D22*
X57004999Y68824999D03*
D23*
X57542499Y68899999D03*
X57542499Y70599999D03*
D22*
X57004999Y70674999D03*
D23*
X56467499Y70599999D03*
G04 #@! TD*
D21*
G04 #@! TO.C,U1*
X76867499Y68899999D03*
D22*
X77404999Y68824999D03*
D23*
X77942499Y68899999D03*
X77942499Y70599999D03*
D22*
X77404999Y70674999D03*
D23*
X76867499Y70599999D03*
G04 #@! TD*
D24*
G04 #@! TO.C,U1*
X98332499Y18759999D03*
D22*
X97794999Y18834999D03*
D23*
X97257499Y18759999D03*
X97257499Y17059999D03*
D22*
X97794999Y16984999D03*
D23*
X98332499Y17059999D03*
G04 #@! TD*
D21*
G04 #@! TO.C,U1*
X97267499Y68899999D03*
D22*
X97804999Y68824999D03*
D23*
X98342499Y68899999D03*
X98342499Y70599999D03*
D22*
X97804999Y70674999D03*
D23*
X97267499Y70599999D03*
G04 #@! TD*
D24*
G04 #@! TO.C,U1*
X37132499Y18759999D03*
D22*
X36594999Y18834999D03*
D23*
X36057499Y18759999D03*
X36057499Y17059999D03*
D22*
X36594999Y16984999D03*
D23*
X37132499Y17059999D03*
G04 #@! TD*
D24*
G04 #@! TO.C,U1*
X16732499Y18759999D03*
D22*
X16194999Y18834999D03*
D23*
X15657499Y18759999D03*
X15657499Y17059999D03*
D22*
X16194999Y16984999D03*
D23*
X16732499Y17059999D03*
G04 #@! TD*
D24*
G04 #@! TO.C,U1*
X57532499Y18759999D03*
D22*
X56994999Y18834999D03*
D23*
X56457499Y18759999D03*
X56457499Y17059999D03*
D22*
X56994999Y16984999D03*
D23*
X57532499Y17059999D03*
G04 #@! TD*
D24*
G04 #@! TO.C,U1*
X77932499Y18759999D03*
D22*
X77394999Y18834999D03*
D23*
X76857499Y18759999D03*
X76857499Y17059999D03*
D22*
X77394999Y16984999D03*
D23*
X77932499Y17059999D03*
G04 #@! TD*
D21*
G04 #@! TO.C,U1*
X15667499Y68899999D03*
D22*
X16204999Y68824999D03*
D23*
X16742499Y68899999D03*
X16742499Y70599999D03*
D22*
X16204999Y70674999D03*
D23*
X15667499Y70599999D03*
G04 #@! TD*
D21*
G04 #@! TO.C,U1*
X36067499Y68899999D03*
D22*
X36604999Y68824999D03*
D23*
X37142499Y68899999D03*
X37142499Y70599999D03*
D22*
X36604999Y70674999D03*
D23*
X36067499Y70599999D03*
G04 #@! TD*
D25*
G04 #@! TO.C,REF\u002A\u002A*
X2500000Y85160000D03*
G04 #@! TD*
G04 #@! TO.C,REF\u002A\u002A*
X111500000Y85160000D03*
G04 #@! TD*
D11*
G04 #@! TO.C,REF\u002A\u002A*
X104075000Y47330001D03*
G04 #@! TD*
G04 #@! TO.C,REF\u002A\u002A*
X114000000Y7000000D03*
G04 #@! TD*
D19*
G04 #@! TO.C,C1*
X32025000Y72400000D03*
X31065000Y72400000D03*
G04 #@! TD*
G04 #@! TO.C,C1*
X11625000Y72400000D03*
X10665000Y72400000D03*
G04 #@! TD*
D20*
G04 #@! TO.C,C1*
X102375000Y15260000D03*
X103335000Y15260000D03*
G04 #@! TD*
D19*
G04 #@! TO.C,C1*
X52425000Y72400000D03*
X51465000Y72400000D03*
G04 #@! TD*
G04 #@! TO.C,C1*
X93225000Y72400000D03*
X92265000Y72400000D03*
G04 #@! TD*
G04 #@! TO.C,C1*
X72825000Y72400000D03*
X71865000Y72400000D03*
G04 #@! TD*
D20*
G04 #@! TO.C,C1*
X41175000Y15260000D03*
X42135000Y15260000D03*
G04 #@! TD*
G04 #@! TO.C,C1*
X20775000Y15260000D03*
X21735000Y15260000D03*
G04 #@! TD*
G04 #@! TO.C,C1*
X61575000Y15260000D03*
X62535000Y15260000D03*
G04 #@! TD*
G04 #@! TO.C,C1*
X81975000Y15260000D03*
X82935000Y15260000D03*
G04 #@! TD*
D11*
G04 #@! TO.C,REF\u002A\u002A*
X91525000Y40330000D03*
G04 #@! TD*
G04 #@! TO.C,REF\u002A\u002A*
X87600000Y43530000D03*
G04 #@! TD*
G04 #@! TO.C,REF\u002A\u002A*
X4375000Y80660000D03*
G04 #@! TD*
G04 #@! TO.C,REF\u002A\u002A*
X7000000Y5000000D03*
G04 #@! TD*
G04 #@! TO.C,REF\u002A\u002A*
X107000000Y83285000D03*
G04 #@! TD*
G04 #@! TO.C,REF\u002A\u002A*
X69275000Y80660000D03*
G04 #@! TD*
G04 #@! TO.C,REF\u002A\u002A*
X48865000Y7000000D03*
G04 #@! TD*
D26*
G04 #@! TO.C,U4*
X101167499Y27209999D03*
D27*
X101167500Y27610000D03*
X101167500Y28010000D03*
X101167500Y28410000D03*
X101167500Y28810000D03*
X101167500Y29210000D03*
X101167500Y29610000D03*
X101167500Y30010000D03*
X101167500Y30410000D03*
X101167500Y30810000D03*
X101167500Y31210000D03*
X101167500Y31610000D03*
X101167500Y32010000D03*
X101167500Y32410000D03*
D28*
X100330000Y33247500D03*
X99930000Y33247500D03*
X99530000Y33247500D03*
X99130000Y33247500D03*
X98730000Y33247500D03*
X98330000Y33247500D03*
X97930000Y33247500D03*
X97530000Y33247500D03*
X97130000Y33247500D03*
X96730000Y33247500D03*
X96330000Y33247500D03*
X95930000Y33247500D03*
X95530000Y33247500D03*
X95130000Y33247500D03*
D27*
X94292500Y32410000D03*
X94292500Y32010000D03*
X94292500Y31610000D03*
X94292500Y31210000D03*
X94292500Y30810000D03*
X94292500Y30410000D03*
X94292500Y30010000D03*
X94292500Y29610000D03*
X94292500Y29210000D03*
X94292500Y28810000D03*
X94292500Y28410000D03*
X94292500Y28010000D03*
X94292500Y27610000D03*
X94292500Y27210000D03*
D28*
X95130000Y26372500D03*
X95530000Y26372500D03*
X95930000Y26372500D03*
X96330000Y26372500D03*
X96730000Y26372500D03*
X97130000Y26372500D03*
X97530000Y26372500D03*
X97930000Y26372500D03*
X98330000Y26372500D03*
X98730000Y26372500D03*
X99130000Y26372500D03*
X99530000Y26372500D03*
X99930000Y26372500D03*
X100330000Y26372500D03*
D29*
X97730000Y29810000D03*
G04 #@! TD*
D30*
G04 #@! TO.C,U4*
X94432499Y60449999D03*
D31*
X94432500Y60050000D03*
X94432500Y59650000D03*
X94432500Y59250000D03*
X94432500Y58850000D03*
X94432500Y58450000D03*
X94432500Y58050000D03*
X94432500Y57650000D03*
X94432500Y57250000D03*
X94432500Y56850000D03*
X94432500Y56450000D03*
X94432500Y56050000D03*
X94432500Y55650000D03*
X94432500Y55250000D03*
D32*
X95270000Y54412500D03*
X95670000Y54412500D03*
X96070000Y54412500D03*
X96470000Y54412500D03*
X96870000Y54412500D03*
X97270000Y54412500D03*
X97670000Y54412500D03*
X98070000Y54412500D03*
X98470000Y54412500D03*
X98870000Y54412500D03*
X99270000Y54412500D03*
X99670000Y54412500D03*
X100070000Y54412500D03*
X100470000Y54412500D03*
D31*
X101307500Y55250000D03*
X101307500Y55650000D03*
X101307500Y56050000D03*
X101307500Y56450000D03*
X101307500Y56850000D03*
X101307500Y57250000D03*
X101307500Y57650000D03*
X101307500Y58050000D03*
X101307500Y58450000D03*
X101307500Y58850000D03*
X101307500Y59250000D03*
X101307500Y59650000D03*
X101307500Y60050000D03*
X101307500Y60450000D03*
D32*
X100470000Y61287500D03*
X100070000Y61287500D03*
X99670000Y61287500D03*
X99270000Y61287500D03*
X98870000Y61287500D03*
X98470000Y61287500D03*
X98070000Y61287500D03*
X97670000Y61287500D03*
X97270000Y61287500D03*
X96870000Y61287500D03*
X96470000Y61287500D03*
X96070000Y61287500D03*
X95670000Y61287500D03*
X95270000Y61287500D03*
D33*
X97870000Y57850000D03*
G04 #@! TD*
D30*
G04 #@! TO.C,U4*
X53632499Y60449999D03*
D31*
X53632500Y60050000D03*
X53632500Y59650000D03*
X53632500Y59250000D03*
X53632500Y58850000D03*
X53632500Y58450000D03*
X53632500Y58050000D03*
X53632500Y57650000D03*
X53632500Y57250000D03*
X53632500Y56850000D03*
X53632500Y56450000D03*
X53632500Y56050000D03*
X53632500Y55650000D03*
X53632500Y55250000D03*
D32*
X54470000Y54412500D03*
X54870000Y54412500D03*
X55270000Y54412500D03*
X55670000Y54412500D03*
X56070000Y54412500D03*
X56470000Y54412500D03*
X56870000Y54412500D03*
X57270000Y54412500D03*
X57670000Y54412500D03*
X58070000Y54412500D03*
X58470000Y54412500D03*
X58870000Y54412500D03*
X59270000Y54412500D03*
X59670000Y54412500D03*
D31*
X60507500Y55250000D03*
X60507500Y55650000D03*
X60507500Y56050000D03*
X60507500Y56450000D03*
X60507500Y56850000D03*
X60507500Y57250000D03*
X60507500Y57650000D03*
X60507500Y58050000D03*
X60507500Y58450000D03*
X60507500Y58850000D03*
X60507500Y59250000D03*
X60507500Y59650000D03*
X60507500Y60050000D03*
X60507500Y60450000D03*
D32*
X59670000Y61287500D03*
X59270000Y61287500D03*
X58870000Y61287500D03*
X58470000Y61287500D03*
X58070000Y61287500D03*
X57670000Y61287500D03*
X57270000Y61287500D03*
X56870000Y61287500D03*
X56470000Y61287500D03*
X56070000Y61287500D03*
X55670000Y61287500D03*
X55270000Y61287500D03*
X54870000Y61287500D03*
X54470000Y61287500D03*
D33*
X57070000Y57850000D03*
G04 #@! TD*
D26*
G04 #@! TO.C,U4*
X80767499Y27209999D03*
D27*
X80767500Y27610000D03*
X80767500Y28010000D03*
X80767500Y28410000D03*
X80767500Y28810000D03*
X80767500Y29210000D03*
X80767500Y29610000D03*
X80767500Y30010000D03*
X80767500Y30410000D03*
X80767500Y30810000D03*
X80767500Y31210000D03*
X80767500Y31610000D03*
X80767500Y32010000D03*
X80767500Y32410000D03*
D28*
X79930000Y33247500D03*
X79530000Y33247500D03*
X79130000Y33247500D03*
X78730000Y33247500D03*
X78330000Y33247500D03*
X77930000Y33247500D03*
X77530000Y33247500D03*
X77130000Y33247500D03*
X76730000Y33247500D03*
X76330000Y33247500D03*
X75930000Y33247500D03*
X75530000Y33247500D03*
X75130000Y33247500D03*
X74730000Y33247500D03*
D27*
X73892500Y32410000D03*
X73892500Y32010000D03*
X73892500Y31610000D03*
X73892500Y31210000D03*
X73892500Y30810000D03*
X73892500Y30410000D03*
X73892500Y30010000D03*
X73892500Y29610000D03*
X73892500Y29210000D03*
X73892500Y28810000D03*
X73892500Y28410000D03*
X73892500Y28010000D03*
X73892500Y27610000D03*
X73892500Y27210000D03*
D28*
X74730000Y26372500D03*
X75130000Y26372500D03*
X75530000Y26372500D03*
X75930000Y26372500D03*
X76330000Y26372500D03*
X76730000Y26372500D03*
X77130000Y26372500D03*
X77530000Y26372500D03*
X77930000Y26372500D03*
X78330000Y26372500D03*
X78730000Y26372500D03*
X79130000Y26372500D03*
X79530000Y26372500D03*
X79930000Y26372500D03*
D29*
X77330000Y29810000D03*
G04 #@! TD*
D30*
G04 #@! TO.C,U4*
X74032499Y60449999D03*
D31*
X74032500Y60050000D03*
X74032500Y59650000D03*
X74032500Y59250000D03*
X74032500Y58850000D03*
X74032500Y58450000D03*
X74032500Y58050000D03*
X74032500Y57650000D03*
X74032500Y57250000D03*
X74032500Y56850000D03*
X74032500Y56450000D03*
X74032500Y56050000D03*
X74032500Y55650000D03*
X74032500Y55250000D03*
D32*
X74870000Y54412500D03*
X75270000Y54412500D03*
X75670000Y54412500D03*
X76070000Y54412500D03*
X76470000Y54412500D03*
X76870000Y54412500D03*
X77270000Y54412500D03*
X77670000Y54412500D03*
X78070000Y54412500D03*
X78470000Y54412500D03*
X78870000Y54412500D03*
X79270000Y54412500D03*
X79670000Y54412500D03*
X80070000Y54412500D03*
D31*
X80907500Y55250000D03*
X80907500Y55650000D03*
X80907500Y56050000D03*
X80907500Y56450000D03*
X80907500Y56850000D03*
X80907500Y57250000D03*
X80907500Y57650000D03*
X80907500Y58050000D03*
X80907500Y58450000D03*
X80907500Y58850000D03*
X80907500Y59250000D03*
X80907500Y59650000D03*
X80907500Y60050000D03*
X80907500Y60450000D03*
D32*
X80070000Y61287500D03*
X79670000Y61287500D03*
X79270000Y61287500D03*
X78870000Y61287500D03*
X78470000Y61287500D03*
X78070000Y61287500D03*
X77670000Y61287500D03*
X77270000Y61287500D03*
X76870000Y61287500D03*
X76470000Y61287500D03*
X76070000Y61287500D03*
X75670000Y61287500D03*
X75270000Y61287500D03*
X74870000Y61287500D03*
D33*
X77470000Y57850000D03*
G04 #@! TD*
D26*
G04 #@! TO.C,U4*
X19567499Y27209999D03*
D27*
X19567500Y27610000D03*
X19567500Y28010000D03*
X19567500Y28410000D03*
X19567500Y28810000D03*
X19567500Y29210000D03*
X19567500Y29610000D03*
X19567500Y30010000D03*
X19567500Y30410000D03*
X19567500Y30810000D03*
X19567500Y31210000D03*
X19567500Y31610000D03*
X19567500Y32010000D03*
X19567500Y32410000D03*
D28*
X18730000Y33247500D03*
X18330000Y33247500D03*
X17930000Y33247500D03*
X17530000Y33247500D03*
X17130000Y33247500D03*
X16730000Y33247500D03*
X16330000Y33247500D03*
X15930000Y33247500D03*
X15530000Y33247500D03*
X15130000Y33247500D03*
X14730000Y33247500D03*
X14330000Y33247500D03*
X13930000Y33247500D03*
X13530000Y33247500D03*
D27*
X12692500Y32410000D03*
X12692500Y32010000D03*
X12692500Y31610000D03*
X12692500Y31210000D03*
X12692500Y30810000D03*
X12692500Y30410000D03*
X12692500Y30010000D03*
X12692500Y29610000D03*
X12692500Y29210000D03*
X12692500Y28810000D03*
X12692500Y28410000D03*
X12692500Y28010000D03*
X12692500Y27610000D03*
X12692500Y27210000D03*
D28*
X13530000Y26372500D03*
X13930000Y26372500D03*
X14330000Y26372500D03*
X14730000Y26372500D03*
X15130000Y26372500D03*
X15530000Y26372500D03*
X15930000Y26372500D03*
X16330000Y26372500D03*
X16730000Y26372500D03*
X17130000Y26372500D03*
X17530000Y26372500D03*
X17930000Y26372500D03*
X18330000Y26372500D03*
X18730000Y26372500D03*
D29*
X16130000Y29810000D03*
G04 #@! TD*
D30*
G04 #@! TO.C,U4*
X12832499Y60449999D03*
D31*
X12832500Y60050000D03*
X12832500Y59650000D03*
X12832500Y59250000D03*
X12832500Y58850000D03*
X12832500Y58450000D03*
X12832500Y58050000D03*
X12832500Y57650000D03*
X12832500Y57250000D03*
X12832500Y56850000D03*
X12832500Y56450000D03*
X12832500Y56050000D03*
X12832500Y55650000D03*
X12832500Y55250000D03*
D32*
X13670000Y54412500D03*
X14070000Y54412500D03*
X14470000Y54412500D03*
X14870000Y54412500D03*
X15270000Y54412500D03*
X15670000Y54412500D03*
X16070000Y54412500D03*
X16470000Y54412500D03*
X16870000Y54412500D03*
X17270000Y54412500D03*
X17670000Y54412500D03*
X18070000Y54412500D03*
X18470000Y54412500D03*
X18870000Y54412500D03*
D31*
X19707500Y55250000D03*
X19707500Y55650000D03*
X19707500Y56050000D03*
X19707500Y56450000D03*
X19707500Y56850000D03*
X19707500Y57250000D03*
X19707500Y57650000D03*
X19707500Y58050000D03*
X19707500Y58450000D03*
X19707500Y58850000D03*
X19707500Y59250000D03*
X19707500Y59650000D03*
X19707500Y60050000D03*
X19707500Y60450000D03*
D32*
X18870000Y61287500D03*
X18470000Y61287500D03*
X18070000Y61287500D03*
X17670000Y61287500D03*
X17270000Y61287500D03*
X16870000Y61287500D03*
X16470000Y61287500D03*
X16070000Y61287500D03*
X15670000Y61287500D03*
X15270000Y61287500D03*
X14870000Y61287500D03*
X14470000Y61287500D03*
X14070000Y61287500D03*
X13670000Y61287500D03*
D33*
X16270000Y57850000D03*
G04 #@! TD*
D26*
G04 #@! TO.C,U4*
X60367499Y27209999D03*
D27*
X60367500Y27610000D03*
X60367500Y28010000D03*
X60367500Y28410000D03*
X60367500Y28810000D03*
X60367500Y29210000D03*
X60367500Y29610000D03*
X60367500Y30010000D03*
X60367500Y30410000D03*
X60367500Y30810000D03*
X60367500Y31210000D03*
X60367500Y31610000D03*
X60367500Y32010000D03*
X60367500Y32410000D03*
D28*
X59530000Y33247500D03*
X59130000Y33247500D03*
X58730000Y33247500D03*
X58330000Y33247500D03*
X57930000Y33247500D03*
X57530000Y33247500D03*
X57130000Y33247500D03*
X56730000Y33247500D03*
X56330000Y33247500D03*
X55930000Y33247500D03*
X55530000Y33247500D03*
X55130000Y33247500D03*
X54730000Y33247500D03*
X54330000Y33247500D03*
D27*
X53492500Y32410000D03*
X53492500Y32010000D03*
X53492500Y31610000D03*
X53492500Y31210000D03*
X53492500Y30810000D03*
X53492500Y30410000D03*
X53492500Y30010000D03*
X53492500Y29610000D03*
X53492500Y29210000D03*
X53492500Y28810000D03*
X53492500Y28410000D03*
X53492500Y28010000D03*
X53492500Y27610000D03*
X53492500Y27210000D03*
D28*
X54330000Y26372500D03*
X54730000Y26372500D03*
X55130000Y26372500D03*
X55530000Y26372500D03*
X55930000Y26372500D03*
X56330000Y26372500D03*
X56730000Y26372500D03*
X57130000Y26372500D03*
X57530000Y26372500D03*
X57930000Y26372500D03*
X58330000Y26372500D03*
X58730000Y26372500D03*
X59130000Y26372500D03*
X59530000Y26372500D03*
D29*
X56930000Y29810000D03*
G04 #@! TD*
D30*
G04 #@! TO.C,U4*
X33232499Y60449999D03*
D31*
X33232500Y60050000D03*
X33232500Y59650000D03*
X33232500Y59250000D03*
X33232500Y58850000D03*
X33232500Y58450000D03*
X33232500Y58050000D03*
X33232500Y57650000D03*
X33232500Y57250000D03*
X33232500Y56850000D03*
X33232500Y56450000D03*
X33232500Y56050000D03*
X33232500Y55650000D03*
X33232500Y55250000D03*
D32*
X34070000Y54412500D03*
X34470000Y54412500D03*
X34870000Y54412500D03*
X35270000Y54412500D03*
X35670000Y54412500D03*
X36070000Y54412500D03*
X36470000Y54412500D03*
X36870000Y54412500D03*
X37270000Y54412500D03*
X37670000Y54412500D03*
X38070000Y54412500D03*
X38470000Y54412500D03*
X38870000Y54412500D03*
X39270000Y54412500D03*
D31*
X40107500Y55250000D03*
X40107500Y55650000D03*
X40107500Y56050000D03*
X40107500Y56450000D03*
X40107500Y56850000D03*
X40107500Y57250000D03*
X40107500Y57650000D03*
X40107500Y58050000D03*
X40107500Y58450000D03*
X40107500Y58850000D03*
X40107500Y59250000D03*
X40107500Y59650000D03*
X40107500Y60050000D03*
X40107500Y60450000D03*
D32*
X39270000Y61287500D03*
X38870000Y61287500D03*
X38470000Y61287500D03*
X38070000Y61287500D03*
X37670000Y61287500D03*
X37270000Y61287500D03*
X36870000Y61287500D03*
X36470000Y61287500D03*
X36070000Y61287500D03*
X35670000Y61287500D03*
X35270000Y61287500D03*
X34870000Y61287500D03*
X34470000Y61287500D03*
X34070000Y61287500D03*
D33*
X36670000Y57850000D03*
G04 #@! TD*
D26*
G04 #@! TO.C,U4*
X39967499Y27209999D03*
D27*
X39967500Y27610000D03*
X39967500Y28010000D03*
X39967500Y28410000D03*
X39967500Y28810000D03*
X39967500Y29210000D03*
X39967500Y29610000D03*
X39967500Y30010000D03*
X39967500Y30410000D03*
X39967500Y30810000D03*
X39967500Y31210000D03*
X39967500Y31610000D03*
X39967500Y32010000D03*
X39967500Y32410000D03*
D28*
X39130000Y33247500D03*
X38730000Y33247500D03*
X38330000Y33247500D03*
X37930000Y33247500D03*
X37530000Y33247500D03*
X37130000Y33247500D03*
X36730000Y33247500D03*
X36330000Y33247500D03*
X35930000Y33247500D03*
X35530000Y33247500D03*
X35130000Y33247500D03*
X34730000Y33247500D03*
X34330000Y33247500D03*
X33930000Y33247500D03*
D27*
X33092500Y32410000D03*
X33092500Y32010000D03*
X33092500Y31610000D03*
X33092500Y31210000D03*
X33092500Y30810000D03*
X33092500Y30410000D03*
X33092500Y30010000D03*
X33092500Y29610000D03*
X33092500Y29210000D03*
X33092500Y28810000D03*
X33092500Y28410000D03*
X33092500Y28010000D03*
X33092500Y27610000D03*
X33092500Y27210000D03*
D28*
X33930000Y26372500D03*
X34330000Y26372500D03*
X34730000Y26372500D03*
X35130000Y26372500D03*
X35530000Y26372500D03*
X35930000Y26372500D03*
X36330000Y26372500D03*
X36730000Y26372500D03*
X37130000Y26372500D03*
X37530000Y26372500D03*
X37930000Y26372500D03*
X38330000Y26372500D03*
X38730000Y26372500D03*
X39130000Y26372500D03*
D29*
X36530000Y29810000D03*
G04 #@! TD*
D14*
G04 #@! TO.C,Q2*
X60829999Y18034999D03*
D13*
X60329999Y18034999D03*
X59829999Y18034999D03*
X59829999Y16534999D03*
X60329999Y16534999D03*
X60829999Y16534999D03*
G04 #@! TD*
D12*
G04 #@! TO.C,Q2*
X12369999Y69624999D03*
D13*
X12869999Y69624999D03*
X13369999Y69624999D03*
X13369999Y71124999D03*
X12869999Y71124999D03*
X12369999Y71124999D03*
G04 #@! TD*
D14*
G04 #@! TO.C,Q2*
X81229999Y18034999D03*
D13*
X80729999Y18034999D03*
X80229999Y18034999D03*
X80229999Y16534999D03*
X80729999Y16534999D03*
X81229999Y16534999D03*
G04 #@! TD*
D12*
G04 #@! TO.C,Q2*
X32769999Y69624999D03*
D13*
X33269999Y69624999D03*
X33769999Y69624999D03*
X33769999Y71124999D03*
X33269999Y71124999D03*
X32769999Y71124999D03*
G04 #@! TD*
D12*
G04 #@! TO.C,Q2*
X53169999Y69624999D03*
D13*
X53669999Y69624999D03*
X54169999Y69624999D03*
X54169999Y71124999D03*
X53669999Y71124999D03*
X53169999Y71124999D03*
G04 #@! TD*
D14*
G04 #@! TO.C,Q2*
X101629999Y18034999D03*
D13*
X101129999Y18034999D03*
X100629999Y18034999D03*
X100629999Y16534999D03*
X101129999Y16534999D03*
X101629999Y16534999D03*
G04 #@! TD*
D12*
G04 #@! TO.C,Q2*
X73569999Y69624999D03*
D13*
X74069999Y69624999D03*
X74569999Y69624999D03*
X74569999Y71124999D03*
X74069999Y71124999D03*
X73569999Y71124999D03*
G04 #@! TD*
D12*
G04 #@! TO.C,Q2*
X93969999Y69624999D03*
D13*
X94469999Y69624999D03*
X94969999Y69624999D03*
X94969999Y71124999D03*
X94469999Y71124999D03*
X93969999Y71124999D03*
G04 #@! TD*
D14*
G04 #@! TO.C,Q2*
X20029999Y18034999D03*
D13*
X19529999Y18034999D03*
X19029999Y18034999D03*
X19029999Y16534999D03*
X19529999Y16534999D03*
X20029999Y16534999D03*
G04 #@! TD*
D14*
G04 #@! TO.C,Q2*
X40429999Y18034999D03*
D13*
X39929999Y18034999D03*
X39429999Y18034999D03*
X39429999Y16534999D03*
X39929999Y16534999D03*
X40429999Y16534999D03*
G04 #@! TD*
D11*
G04 #@! TO.C,REF\u002A\u002A*
X50065000Y7000000D03*
G04 #@! TD*
D15*
G04 #@! TO.C,R14*
X14755000Y53110000D03*
X15775000Y53110000D03*
G04 #@! TD*
D16*
G04 #@! TO.C,R14*
X38045000Y34550000D03*
X37025000Y34550000D03*
G04 #@! TD*
G04 #@! TO.C,R14*
X99245000Y34550000D03*
X98225000Y34550000D03*
G04 #@! TD*
D15*
G04 #@! TO.C,R14*
X35155000Y53110000D03*
X36175000Y53110000D03*
G04 #@! TD*
D16*
G04 #@! TO.C,R14*
X17645000Y34550000D03*
X16625000Y34550000D03*
G04 #@! TD*
D15*
G04 #@! TO.C,R14*
X55555000Y53110000D03*
X56575000Y53110000D03*
G04 #@! TD*
G04 #@! TO.C,R14*
X75955000Y53110000D03*
X76975000Y53110000D03*
G04 #@! TD*
D16*
G04 #@! TO.C,R14*
X58445000Y34550000D03*
X57425000Y34550000D03*
G04 #@! TD*
D15*
G04 #@! TO.C,R14*
X96355000Y53110000D03*
X97375000Y53110000D03*
G04 #@! TD*
D16*
G04 #@! TO.C,R14*
X78845000Y34550000D03*
X77825000Y34550000D03*
G04 #@! TD*
D11*
G04 #@! TO.C,REF\u002A\u002A*
X51865000Y7000000D03*
G04 #@! TD*
G04 #@! TO.C,REF\u002A\u002A*
X69791622Y40330000D03*
G04 #@! TD*
G04 #@! TO.C,REF\u002A\u002A*
X69135000Y47332368D03*
G04 #@! TD*
G04 #@! TO.C,REF\u002A\u002A*
X84925000Y7000000D03*
G04 #@! TD*
G04 #@! TO.C,REF\u002A\u002A*
X107000000Y45330000D03*
G04 #@! TD*
G04 #@! TO.C,REF\u002A\u002A*
X42335000Y80660000D03*
G04 #@! TD*
D19*
G04 #@! TO.C,C12*
X52535000Y30810000D03*
X51575000Y30810000D03*
G04 #@! TD*
G04 #@! TO.C,C12*
X72935000Y30810000D03*
X71975000Y30810000D03*
G04 #@! TD*
G04 #@! TO.C,C12*
X93335000Y30810000D03*
X92375000Y30810000D03*
G04 #@! TD*
D20*
G04 #@! TO.C,C12*
X20665000Y56850000D03*
X21625000Y56850000D03*
G04 #@! TD*
G04 #@! TO.C,C12*
X41065000Y56850000D03*
X42025000Y56850000D03*
G04 #@! TD*
G04 #@! TO.C,C12*
X61465000Y56850000D03*
X62425000Y56850000D03*
G04 #@! TD*
G04 #@! TO.C,C12*
X81865000Y56850000D03*
X82825000Y56850000D03*
G04 #@! TD*
G04 #@! TO.C,C12*
X102265000Y56850000D03*
X103225000Y56850000D03*
G04 #@! TD*
D19*
G04 #@! TO.C,C12*
X11735000Y30810000D03*
X10775000Y30810000D03*
G04 #@! TD*
G04 #@! TO.C,C12*
X32135000Y30810000D03*
X31175000Y30810000D03*
G04 #@! TD*
D11*
G04 #@! TO.C,REF\u002A\u002A*
X71065000Y7000000D03*
G04 #@! TD*
G04 #@! TO.C,REF\u002A\u002A*
X90201637Y47330001D03*
G04 #@! TD*
G04 #@! TO.C,REF\u002A\u002A*
X7000000Y87660000D03*
G04 #@! TD*
G04 #@! TO.C,REF\u002A\u002A*
X7000000Y3750000D03*
G04 #@! TD*
G04 #@! TO.C,REF\u002A\u002A*
X71135000Y47330001D03*
G04 #@! TD*
D34*
G04 #@! TO.C,JP2*
X30415000Y14510000D03*
X30965000Y14510000D03*
X31490000Y14510000D03*
G04 #@! TD*
G04 #@! TO.C,JP2*
X10015000Y14510000D03*
X10565000Y14510000D03*
X11090000Y14510000D03*
G04 #@! TD*
D35*
G04 #@! TO.C,JP2*
X63185000Y73150000D03*
X62635000Y73150000D03*
X62110000Y73150000D03*
G04 #@! TD*
D34*
G04 #@! TO.C,JP2*
X50815000Y14510000D03*
X51365000Y14510000D03*
X51890000Y14510000D03*
G04 #@! TD*
D35*
G04 #@! TO.C,JP2*
X83585000Y73150000D03*
X83035000Y73150000D03*
X82510000Y73150000D03*
G04 #@! TD*
G04 #@! TO.C,JP2*
X42785000Y73150000D03*
X42235000Y73150000D03*
X41710000Y73150000D03*
G04 #@! TD*
G04 #@! TO.C,JP2*
X22385000Y73150000D03*
X21835000Y73150000D03*
X21310000Y73150000D03*
G04 #@! TD*
G04 #@! TO.C,JP2*
X103985000Y73150000D03*
X103435000Y73150000D03*
X102910000Y73150000D03*
G04 #@! TD*
D34*
G04 #@! TO.C,JP2*
X71215000Y14510000D03*
X71765000Y14510000D03*
X72290000Y14510000D03*
G04 #@! TD*
G04 #@! TO.C,JP2*
X91615000Y14510000D03*
X92165000Y14510000D03*
X92690000Y14510000D03*
G04 #@! TD*
D11*
G04 #@! TO.C,REF\u002A\u002A*
X51275000Y80660000D03*
G04 #@! TD*
D36*
G04 #@! TO.C,C9*
X59445000Y63120000D03*
X59445000Y62160000D03*
G04 #@! TD*
G04 #@! TO.C,C9*
X79845000Y63120000D03*
X79845000Y62160000D03*
G04 #@! TD*
G04 #@! TO.C,C9*
X100245000Y63120000D03*
X100245000Y62160000D03*
G04 #@! TD*
D37*
G04 #@! TO.C,C9*
X13755000Y24540000D03*
X13755000Y25500000D03*
G04 #@! TD*
G04 #@! TO.C,C9*
X34155000Y24540000D03*
X34155000Y25500000D03*
G04 #@! TD*
G04 #@! TO.C,C9*
X54555000Y24540000D03*
X54555000Y25500000D03*
G04 #@! TD*
D36*
G04 #@! TO.C,C9*
X18645000Y63120000D03*
X18645000Y62160000D03*
G04 #@! TD*
D37*
G04 #@! TO.C,C9*
X74955000Y24540000D03*
X74955000Y25500000D03*
G04 #@! TD*
D36*
G04 #@! TO.C,C9*
X39045000Y63120000D03*
X39045000Y62160000D03*
G04 #@! TD*
D37*
G04 #@! TO.C,C9*
X95355000Y24540000D03*
X95355000Y25500000D03*
G04 #@! TD*
D11*
G04 #@! TO.C,REF\u002A\u002A*
X9935000Y47330001D03*
G04 #@! TD*
G04 #@! TO.C,REF\u002A\u002A*
X7000000Y86410000D03*
G04 #@! TD*
G04 #@! TO.C,REF\u002A\u002A*
X9265000Y7000000D03*
G04 #@! TD*
G04 #@! TO.C,REF\u002A\u002A*
X113375000Y7000000D03*
G04 #@! TD*
D15*
G04 #@! TO.C,R9*
X12135000Y68810000D03*
X13155000Y68810000D03*
G04 #@! TD*
D16*
G04 #@! TO.C,R9*
X101865000Y18850000D03*
X100845000Y18850000D03*
G04 #@! TD*
D15*
G04 #@! TO.C,R9*
X32535000Y68810000D03*
X33555000Y68810000D03*
G04 #@! TD*
G04 #@! TO.C,R9*
X52935000Y68810000D03*
X53955000Y68810000D03*
G04 #@! TD*
D16*
G04 #@! TO.C,R9*
X20265000Y18850000D03*
X19245000Y18850000D03*
G04 #@! TD*
D15*
G04 #@! TO.C,R9*
X73335000Y68810000D03*
X74355000Y68810000D03*
G04 #@! TD*
D16*
G04 #@! TO.C,R9*
X40665000Y18850000D03*
X39645000Y18850000D03*
G04 #@! TD*
D15*
G04 #@! TO.C,R9*
X93735000Y68810000D03*
X94755000Y68810000D03*
G04 #@! TD*
D16*
G04 #@! TO.C,R9*
X61065000Y18850000D03*
X60045000Y18850000D03*
G04 #@! TD*
G04 #@! TO.C,R9*
X81465000Y18850000D03*
X80445000Y18850000D03*
G04 #@! TD*
D11*
G04 #@! TO.C,REF\u002A\u002A*
X85008377Y47330001D03*
G04 #@! TD*
G04 #@! TO.C,REF\u002A\u002A*
X105398362Y40330000D03*
G04 #@! TD*
G04 #@! TO.C,REF\u002A\u002A*
X85525000Y7000000D03*
G04 #@! TD*
G04 #@! TO.C,REF\u002A\u002A*
X43541688Y47330001D03*
G04 #@! TD*
D25*
G04 #@! TO.C,REF\u002A\u002A*
X2500000Y2500000D03*
G04 #@! TD*
D11*
G04 #@! TO.C,REF\u002A\u002A*
X70458311Y40330000D03*
G04 #@! TD*
G04 #@! TO.C,REF\u002A\u002A*
X7000000Y42330000D03*
G04 #@! TD*
D38*
G04 #@! TO.C,JP1*
X42065000Y19015000D03*
D39*
X42065000Y20465000D03*
G04 #@! TD*
D40*
G04 #@! TO.C,JP1*
X31135000Y68645000D03*
D41*
X31135000Y67195000D03*
G04 #@! TD*
D40*
G04 #@! TO.C,JP1*
X10735000Y68645000D03*
D41*
X10735000Y67195000D03*
G04 #@! TD*
D38*
G04 #@! TO.C,JP1*
X62465000Y19015000D03*
D39*
X62465000Y20465000D03*
G04 #@! TD*
D40*
G04 #@! TO.C,JP1*
X71935000Y68645000D03*
D41*
X71935000Y67195000D03*
G04 #@! TD*
D38*
G04 #@! TO.C,JP1*
X21665000Y19015000D03*
D39*
X21665000Y20465000D03*
G04 #@! TD*
D40*
G04 #@! TO.C,JP1*
X51535000Y68645000D03*
D41*
X51535000Y67195000D03*
G04 #@! TD*
D38*
G04 #@! TO.C,JP1*
X82865000Y19015000D03*
D39*
X82865000Y20465000D03*
G04 #@! TD*
D40*
G04 #@! TO.C,JP1*
X92335000Y68645000D03*
D41*
X92335000Y67195000D03*
G04 #@! TD*
D38*
G04 #@! TO.C,JP1*
X103265000Y19015000D03*
D39*
X103265000Y20465000D03*
G04 #@! TD*
D11*
G04 #@! TO.C,REF\u002A\u002A*
X46800000Y42330000D03*
G04 #@! TD*
G04 #@! TO.C,REF\u002A\u002A*
X104741688Y47330001D03*
G04 #@! TD*
G04 #@! TO.C,REF\u002A\u002A*
X42935000Y80660000D03*
G04 #@! TD*
G04 #@! TO.C,REF\u002A\u002A*
X44208377Y47330001D03*
G04 #@! TD*
G04 #@! TO.C,REF\u002A\u002A*
X7000000Y625000D03*
G04 #@! TD*
G04 #@! TO.C,REF\u002A\u002A*
X70475000Y80660000D03*
G04 #@! TD*
G04 #@! TO.C,REF\u002A\u002A*
X50665000Y7000000D03*
G04 #@! TD*
G04 #@! TO.C,REF\u002A\u002A*
X110875000Y7000000D03*
G04 #@! TD*
G04 #@! TO.C,REF\u002A\u002A*
X105335000Y80660000D03*
G04 #@! TD*
G04 #@! TO.C,REF\u002A\u002A*
X83675000Y47330001D03*
G04 #@! TD*
G04 #@! TO.C,REF\u002A\u002A*
X48725000Y40326863D03*
G04 #@! TD*
G04 #@! TO.C,REF\u002A\u002A*
X104135000Y80660000D03*
G04 #@! TD*
D37*
G04 #@! TO.C,C5*
X33865000Y17800000D03*
X33865000Y18760000D03*
G04 #@! TD*
G04 #@! TO.C,C5*
X54265000Y17800000D03*
X54265000Y18760000D03*
G04 #@! TD*
G04 #@! TO.C,C5*
X74665000Y17800000D03*
X74665000Y18760000D03*
G04 #@! TD*
G04 #@! TO.C,C5*
X95065000Y17800000D03*
X95065000Y18760000D03*
G04 #@! TD*
D36*
G04 #@! TO.C,C5*
X18935000Y69860000D03*
X18935000Y68900000D03*
G04 #@! TD*
G04 #@! TO.C,C5*
X59735000Y69860000D03*
X59735000Y68900000D03*
G04 #@! TD*
G04 #@! TO.C,C5*
X39335000Y69860000D03*
X39335000Y68900000D03*
G04 #@! TD*
G04 #@! TO.C,C5*
X100535000Y69860000D03*
X100535000Y68900000D03*
G04 #@! TD*
G04 #@! TO.C,C5*
X80135000Y69860000D03*
X80135000Y68900000D03*
G04 #@! TD*
D37*
G04 #@! TO.C,C5*
X13465000Y17800000D03*
X13465000Y18760000D03*
G04 #@! TD*
D11*
G04 #@! TO.C,REF\u002A\u002A*
X106075000Y47333138D03*
G04 #@! TD*
G04 #@! TO.C,REF\u002A\u002A*
X7925000Y40326863D03*
G04 #@! TD*
G04 #@! TO.C,REF\u002A\u002A*
X46800000Y42930000D03*
G04 #@! TD*
G04 #@! TO.C,REF\u002A\u002A*
X1875000Y80660000D03*
G04 #@! TD*
G04 #@! TO.C,REF\u002A\u002A*
X26400000Y42330000D03*
G04 #@! TD*
D18*
G04 #@! TO.C,R15*
X81565000Y63970000D03*
X81565000Y64990000D03*
G04 #@! TD*
G04 #@! TO.C,R15*
X101965000Y63970000D03*
X101965000Y64990000D03*
G04 #@! TD*
D17*
G04 #@! TO.C,R15*
X32435000Y23690000D03*
X32435000Y22670000D03*
G04 #@! TD*
G04 #@! TO.C,R15*
X12035000Y23690000D03*
X12035000Y22670000D03*
G04 #@! TD*
G04 #@! TO.C,R15*
X52835000Y23690000D03*
X52835000Y22670000D03*
G04 #@! TD*
G04 #@! TO.C,R15*
X73235000Y23690000D03*
X73235000Y22670000D03*
G04 #@! TD*
D18*
G04 #@! TO.C,R15*
X20365000Y63970000D03*
X20365000Y64990000D03*
G04 #@! TD*
D17*
G04 #@! TO.C,R15*
X93635000Y23690000D03*
X93635000Y22670000D03*
G04 #@! TD*
D18*
G04 #@! TO.C,R15*
X40765000Y63970000D03*
X40765000Y64990000D03*
G04 #@! TD*
G04 #@! TO.C,R15*
X61165000Y63970000D03*
X61165000Y64990000D03*
G04 #@! TD*
D11*
G04 #@! TO.C,REF\u002A\u002A*
X107000000Y44130000D03*
G04 #@! TD*
G04 #@! TO.C,REF\u002A\u002A*
X21935000Y80660000D03*
G04 #@! TD*
D17*
G04 #@! TO.C,R2*
X99905000Y18430000D03*
X99905000Y17410000D03*
G04 #@! TD*
D18*
G04 #@! TO.C,R2*
X14095000Y69230000D03*
X14095000Y70250000D03*
G04 #@! TD*
G04 #@! TO.C,R2*
X75295000Y69230000D03*
X75295000Y70250000D03*
G04 #@! TD*
G04 #@! TO.C,R2*
X34495000Y69230000D03*
X34495000Y70250000D03*
G04 #@! TD*
G04 #@! TO.C,R2*
X54895000Y69230000D03*
X54895000Y70250000D03*
G04 #@! TD*
G04 #@! TO.C,R2*
X95695000Y69230000D03*
X95695000Y70250000D03*
G04 #@! TD*
D17*
G04 #@! TO.C,R2*
X18305000Y18430000D03*
X18305000Y17410000D03*
G04 #@! TD*
G04 #@! TO.C,R2*
X38705000Y18430000D03*
X38705000Y17410000D03*
G04 #@! TD*
G04 #@! TO.C,R2*
X59105000Y18430000D03*
X59105000Y17410000D03*
G04 #@! TD*
G04 #@! TO.C,R2*
X79505000Y18430000D03*
X79505000Y17410000D03*
G04 #@! TD*
D11*
G04 #@! TO.C,REF\u002A\u002A*
X7000000Y0D03*
G04 #@! TD*
G04 #@! TO.C,REF\u002A\u002A*
X64535000Y80660000D03*
G04 #@! TD*
G04 #@! TO.C,REF\u002A\u002A*
X90191622Y40330000D03*
G04 #@! TD*
G04 #@! TO.C,REF\u002A\u002A*
X29665000Y7000000D03*
G04 #@! TD*
G04 #@! TO.C,REF\u002A\u002A*
X42925000Y7000000D03*
G04 #@! TD*
D15*
G04 #@! TO.C,R17*
X61435000Y54525000D03*
X62455000Y54525000D03*
G04 #@! TD*
G04 #@! TO.C,R17*
X81835000Y54525000D03*
X82855000Y54525000D03*
G04 #@! TD*
G04 #@! TO.C,R17*
X102235000Y54525000D03*
X103255000Y54525000D03*
G04 #@! TD*
D16*
G04 #@! TO.C,R17*
X11765000Y33135000D03*
X10745000Y33135000D03*
G04 #@! TD*
G04 #@! TO.C,R17*
X32165000Y33135000D03*
X31145000Y33135000D03*
G04 #@! TD*
G04 #@! TO.C,R17*
X52565000Y33135000D03*
X51545000Y33135000D03*
G04 #@! TD*
D15*
G04 #@! TO.C,R17*
X41035000Y54525000D03*
X42055000Y54525000D03*
G04 #@! TD*
D16*
G04 #@! TO.C,R17*
X72965000Y33135000D03*
X71945000Y33135000D03*
G04 #@! TD*
G04 #@! TO.C,R17*
X93365000Y33135000D03*
X92345000Y33135000D03*
G04 #@! TD*
D15*
G04 #@! TO.C,R17*
X20635000Y54525000D03*
X21655000Y54525000D03*
G04 #@! TD*
D11*
G04 #@! TO.C,REF\u002A\u002A*
X107000000Y84535000D03*
G04 #@! TD*
G04 #@! TO.C,REF\u002A\u002A*
X9925000Y40330000D03*
G04 #@! TD*
G04 #@! TO.C,REF\u002A\u002A*
X105325000Y7000000D03*
G04 #@! TD*
G04 #@! TO.C,REF\u002A\u002A*
X105408377Y47330001D03*
G04 #@! TD*
G04 #@! TO.C,REF\u002A\u002A*
X111500000Y7000000D03*
G04 #@! TD*
G04 #@! TO.C,REF\u002A\u002A*
X28325000Y40326863D03*
G04 #@! TD*
G04 #@! TO.C,REF\u002A\u002A*
X625000Y7000000D03*
G04 #@! TD*
G04 #@! TO.C,REF\u002A\u002A*
X82535000Y80660000D03*
G04 #@! TD*
G04 #@! TO.C,REF\u002A\u002A*
X109000000Y7000000D03*
G04 #@! TD*
G04 #@! TO.C,REF\u002A\u002A*
X7000000Y1875000D03*
G04 #@! TD*
G04 #@! TO.C,REF\u002A\u002A*
X0Y7000000D03*
G04 #@! TD*
G04 #@! TO.C,REF\u002A\u002A*
X46800000Y45330000D03*
G04 #@! TD*
G04 #@! TO.C,REF\u002A\u002A*
X91475000Y80660000D03*
G04 #@! TD*
G04 #@! TO.C,REF\u002A\u002A*
X103525000Y7000000D03*
G04 #@! TD*
G04 #@! TO.C,REF\u002A\u002A*
X625000Y80660000D03*
G04 #@! TD*
G04 #@! TO.C,REF\u002A\u002A*
X24325000Y7000000D03*
G04 #@! TD*
G04 #@! TO.C,REF\u002A\u002A*
X63941688Y47330001D03*
G04 #@! TD*
D12*
G04 #@! TO.C,U5*
X11469999Y64149999D03*
D13*
X11969999Y64149999D03*
X12469999Y64149999D03*
X12469999Y65649999D03*
X11969999Y65649999D03*
X11469999Y65649999D03*
G04 #@! TD*
D14*
G04 #@! TO.C,U5*
X41329999Y23509999D03*
D13*
X40829999Y23509999D03*
X40329999Y23509999D03*
X40329999Y22009999D03*
X40829999Y22009999D03*
X41329999Y22009999D03*
G04 #@! TD*
D12*
G04 #@! TO.C,U5*
X31869999Y64149999D03*
D13*
X32369999Y64149999D03*
X32869999Y64149999D03*
X32869999Y65649999D03*
X32369999Y65649999D03*
X31869999Y65649999D03*
G04 #@! TD*
D14*
G04 #@! TO.C,U5*
X61729999Y23509999D03*
D13*
X61229999Y23509999D03*
X60729999Y23509999D03*
X60729999Y22009999D03*
X61229999Y22009999D03*
X61729999Y22009999D03*
G04 #@! TD*
D14*
G04 #@! TO.C,U5*
X82129999Y23509999D03*
D13*
X81629999Y23509999D03*
X81129999Y23509999D03*
X81129999Y22009999D03*
X81629999Y22009999D03*
X82129999Y22009999D03*
G04 #@! TD*
D12*
G04 #@! TO.C,U5*
X52269999Y64149999D03*
D13*
X52769999Y64149999D03*
X53269999Y64149999D03*
X53269999Y65649999D03*
X52769999Y65649999D03*
X52269999Y65649999D03*
G04 #@! TD*
D14*
G04 #@! TO.C,U5*
X20929999Y23509999D03*
D13*
X20429999Y23509999D03*
X19929999Y23509999D03*
X19929999Y22009999D03*
X20429999Y22009999D03*
X20929999Y22009999D03*
G04 #@! TD*
D14*
G04 #@! TO.C,U5*
X102529999Y23509999D03*
D13*
X102029999Y23509999D03*
X101529999Y23509999D03*
X101529999Y22009999D03*
X102029999Y22009999D03*
X102529999Y22009999D03*
G04 #@! TD*
D12*
G04 #@! TO.C,U5*
X72669999Y64149999D03*
D13*
X73169999Y64149999D03*
X73669999Y64149999D03*
X73669999Y65649999D03*
X73169999Y65649999D03*
X72669999Y65649999D03*
G04 #@! TD*
D12*
G04 #@! TO.C,U5*
X93069999Y64149999D03*
D13*
X93569999Y64149999D03*
X94069999Y64149999D03*
X94069999Y65649999D03*
X93569999Y65649999D03*
X93069999Y65649999D03*
G04 #@! TD*
D11*
G04 #@! TO.C,REF\u002A\u002A*
X21925000Y7000000D03*
G04 #@! TD*
G04 #@! TO.C,REF\u002A\u002A*
X92665000Y7000000D03*
G04 #@! TD*
G04 #@! TO.C,REF\u002A\u002A*
X107000000Y87035000D03*
G04 #@! TD*
G04 #@! TO.C,REF\u002A\u002A*
X29075000Y80660000D03*
G04 #@! TD*
G04 #@! TO.C,REF\u002A\u002A*
X63925000Y7000000D03*
G04 #@! TD*
D36*
G04 #@! TO.C,C16*
X39965000Y25500000D03*
X39965000Y24540000D03*
G04 #@! TD*
D37*
G04 #@! TO.C,C16*
X12835000Y62160000D03*
X12835000Y63120000D03*
G04 #@! TD*
G04 #@! TO.C,C16*
X33235000Y62160000D03*
X33235000Y63120000D03*
G04 #@! TD*
D36*
G04 #@! TO.C,C16*
X60365000Y25500000D03*
X60365000Y24540000D03*
G04 #@! TD*
D37*
G04 #@! TO.C,C16*
X53635000Y62160000D03*
X53635000Y63120000D03*
G04 #@! TD*
D36*
G04 #@! TO.C,C16*
X101165000Y25500000D03*
X101165000Y24540000D03*
G04 #@! TD*
G04 #@! TO.C,C16*
X80765000Y25500000D03*
X80765000Y24540000D03*
G04 #@! TD*
D37*
G04 #@! TO.C,C16*
X74035000Y62160000D03*
X74035000Y63120000D03*
G04 #@! TD*
G04 #@! TO.C,C16*
X94435000Y62160000D03*
X94435000Y63120000D03*
G04 #@! TD*
D36*
G04 #@! TO.C,C16*
X19565000Y25500000D03*
X19565000Y24540000D03*
G04 #@! TD*
D11*
G04 #@! TO.C,REF\u002A\u002A*
X42875000Y47330001D03*
G04 #@! TD*
G04 #@! TO.C,REF\u002A\u002A*
X109625000Y80660000D03*
G04 #@! TD*
D36*
G04 #@! TO.C,C17*
X37005000Y25500000D03*
X37005000Y24540000D03*
G04 #@! TD*
G04 #@! TO.C,C17*
X57405000Y25500000D03*
X57405000Y24540000D03*
G04 #@! TD*
G04 #@! TO.C,C17*
X98205000Y25500000D03*
X98205000Y24540000D03*
G04 #@! TD*
G04 #@! TO.C,C17*
X77805000Y25500000D03*
X77805000Y24540000D03*
G04 #@! TD*
G04 #@! TO.C,C17*
X16605000Y25500000D03*
X16605000Y24540000D03*
G04 #@! TD*
D37*
G04 #@! TO.C,C17*
X36195000Y62160000D03*
X36195000Y63120000D03*
G04 #@! TD*
G04 #@! TO.C,C17*
X15795000Y62160000D03*
X15795000Y63120000D03*
G04 #@! TD*
G04 #@! TO.C,C17*
X56595000Y62160000D03*
X56595000Y63120000D03*
G04 #@! TD*
G04 #@! TO.C,C17*
X76995000Y62160000D03*
X76995000Y63120000D03*
G04 #@! TD*
G04 #@! TO.C,C17*
X97395000Y62160000D03*
X97395000Y63120000D03*
G04 #@! TD*
D11*
G04 #@! TO.C,REF\u002A\u002A*
X29065000Y7000000D03*
G04 #@! TD*
G04 #@! TO.C,REF\u002A\u002A*
X63325000Y7000000D03*
G04 #@! TD*
G04 #@! TO.C,REF\u002A\u002A*
X7000000Y4375000D03*
G04 #@! TD*
G04 #@! TO.C,REF\u002A\u002A*
X22525000Y7000000D03*
G04 #@! TD*
G04 #@! TO.C,REF\u002A\u002A*
X107000000Y85160000D03*
G04 #@! TD*
G04 #@! TO.C,REF\u002A\u002A*
X106065000Y40327633D03*
G04 #@! TD*
G04 #@! TO.C,REF\u002A\u002A*
X26400000Y43530000D03*
G04 #@! TD*
G04 #@! TO.C,REF\u002A\u002A*
X21335000Y80660000D03*
G04 #@! TD*
G04 #@! TO.C,REF\u002A\u002A*
X112125000Y7000000D03*
G04 #@! TD*
G04 #@! TO.C,REF\u002A\u002A*
X23725000Y7000000D03*
G04 #@! TD*
G04 #@! TO.C,REF\u002A\u002A*
X7000000Y3125000D03*
G04 #@! TD*
G04 #@! TO.C,REF\u002A\u002A*
X105935000Y80660000D03*
G04 #@! TD*
G04 #@! TO.C,REF\u002A\u002A*
X113375000Y80660000D03*
G04 #@! TD*
D18*
G04 #@! TO.C,R10*
X21255000Y63970000D03*
X21255000Y64990000D03*
G04 #@! TD*
G04 #@! TO.C,R10*
X41655000Y63970000D03*
X41655000Y64990000D03*
G04 #@! TD*
D17*
G04 #@! TO.C,R10*
X72345000Y23690000D03*
X72345000Y22670000D03*
G04 #@! TD*
D18*
G04 #@! TO.C,R10*
X62055000Y63970000D03*
X62055000Y64990000D03*
G04 #@! TD*
D17*
G04 #@! TO.C,R10*
X51945000Y23690000D03*
X51945000Y22670000D03*
G04 #@! TD*
D18*
G04 #@! TO.C,R10*
X82455000Y63970000D03*
X82455000Y64990000D03*
G04 #@! TD*
G04 #@! TO.C,R10*
X102855000Y63970000D03*
X102855000Y64990000D03*
G04 #@! TD*
D17*
G04 #@! TO.C,R10*
X31545000Y23690000D03*
X31545000Y22670000D03*
G04 #@! TD*
G04 #@! TO.C,R10*
X92745000Y23690000D03*
X92745000Y22670000D03*
G04 #@! TD*
G04 #@! TO.C,R10*
X11145000Y23690000D03*
X11145000Y22670000D03*
G04 #@! TD*
D11*
G04 #@! TO.C,REF\u002A\u002A*
X102935000Y80660000D03*
G04 #@! TD*
G04 #@! TO.C,REF\u002A\u002A*
X107000000Y1875000D03*
G04 #@! TD*
G04 #@! TO.C,REF\u002A\u002A*
X7000000Y85160000D03*
G04 #@! TD*
G04 #@! TO.C,REF\u002A\u002A*
X63275000Y47330001D03*
G04 #@! TD*
G04 #@! TO.C,REF\u002A\u002A*
X65265000Y40327633D03*
G04 #@! TD*
G04 #@! TO.C,REF\u002A\u002A*
X83125000Y7000000D03*
G04 #@! TD*
D42*
G04 #@! TO.C,D2*
X73234999Y24524999D03*
D43*
X73235000Y25495000D03*
G04 #@! TD*
D42*
G04 #@! TO.C,D2*
X52834999Y24524999D03*
D43*
X52835000Y25495000D03*
G04 #@! TD*
D42*
G04 #@! TO.C,D2*
X32434999Y24524999D03*
D43*
X32435000Y25495000D03*
G04 #@! TD*
D42*
G04 #@! TO.C,D2*
X93634999Y24524999D03*
D43*
X93635000Y25495000D03*
G04 #@! TD*
D42*
G04 #@! TO.C,D2*
X20364999Y63134999D03*
D44*
X20365000Y62165000D03*
G04 #@! TD*
D42*
G04 #@! TO.C,D2*
X40764999Y63134999D03*
D44*
X40765000Y62165000D03*
G04 #@! TD*
D42*
G04 #@! TO.C,D2*
X61164999Y63134999D03*
D44*
X61165000Y62165000D03*
G04 #@! TD*
D42*
G04 #@! TO.C,D2*
X101964999Y63134999D03*
D44*
X101965000Y62165000D03*
G04 #@! TD*
D42*
G04 #@! TO.C,D2*
X81564999Y63134999D03*
D44*
X81565000Y62165000D03*
G04 #@! TD*
D42*
G04 #@! TO.C,D2*
X12034999Y24524999D03*
D43*
X12035000Y25495000D03*
G04 #@! TD*
D11*
G04 #@! TO.C,REF\u002A\u002A*
X67200000Y45330000D03*
G04 #@! TD*
G04 #@! TO.C,REF\u002A\u002A*
X92065000Y7000000D03*
G04 #@! TD*
G04 #@! TO.C,REF\u002A\u002A*
X107000000Y5000000D03*
G04 #@! TD*
G04 #@! TO.C,REF\u002A\u002A*
X5000000Y7000000D03*
G04 #@! TD*
G04 #@! TO.C,REF\u002A\u002A*
X30865000Y7000000D03*
G04 #@! TD*
G04 #@! TO.C,REF\u002A\u002A*
X30335000Y47330001D03*
G04 #@! TD*
G04 #@! TO.C,REF\u002A\u002A*
X112750000Y7000000D03*
G04 #@! TD*
D15*
G04 #@! TO.C,R7*
X40615000Y74120000D03*
X41635000Y74120000D03*
G04 #@! TD*
G04 #@! TO.C,R7*
X20215000Y74120000D03*
X21235000Y74120000D03*
G04 #@! TD*
D16*
G04 #@! TO.C,R7*
X52985000Y13540000D03*
X51965000Y13540000D03*
G04 #@! TD*
D15*
G04 #@! TO.C,R7*
X81415000Y74120000D03*
X82435000Y74120000D03*
G04 #@! TD*
G04 #@! TO.C,R7*
X61015000Y74120000D03*
X62035000Y74120000D03*
G04 #@! TD*
G04 #@! TO.C,R7*
X101815000Y74120000D03*
X102835000Y74120000D03*
G04 #@! TD*
D16*
G04 #@! TO.C,R7*
X32585000Y13540000D03*
X31565000Y13540000D03*
G04 #@! TD*
G04 #@! TO.C,R7*
X12185000Y13540000D03*
X11165000Y13540000D03*
G04 #@! TD*
G04 #@! TO.C,R7*
X73385000Y13540000D03*
X72365000Y13540000D03*
G04 #@! TD*
G04 #@! TO.C,R7*
X93785000Y13540000D03*
X92765000Y13540000D03*
G04 #@! TD*
D37*
G04 #@! TO.C,C19*
X55845000Y34120000D03*
X55845000Y35080000D03*
G04 #@! TD*
G04 #@! TO.C,C19*
X35445000Y34120000D03*
X35445000Y35080000D03*
G04 #@! TD*
D36*
G04 #@! TO.C,C19*
X58155000Y53540000D03*
X58155000Y52580000D03*
G04 #@! TD*
G04 #@! TO.C,C19*
X78555000Y53540000D03*
X78555000Y52580000D03*
G04 #@! TD*
G04 #@! TO.C,C19*
X98955000Y53540000D03*
X98955000Y52580000D03*
G04 #@! TD*
G04 #@! TO.C,C19*
X17355000Y53540000D03*
X17355000Y52580000D03*
G04 #@! TD*
D37*
G04 #@! TO.C,C19*
X15045000Y34120000D03*
X15045000Y35080000D03*
G04 #@! TD*
D36*
G04 #@! TO.C,C19*
X37755000Y53540000D03*
X37755000Y52580000D03*
G04 #@! TD*
D37*
G04 #@! TO.C,C19*
X76245000Y34120000D03*
X76245000Y35080000D03*
G04 #@! TD*
G04 #@! TO.C,C19*
X96645000Y34120000D03*
X96645000Y35080000D03*
G04 #@! TD*
D11*
G04 #@! TO.C,REF\u002A\u002A*
X7000000Y82660000D03*
G04 #@! TD*
G04 #@! TO.C,REF\u002A\u002A*
X84998362Y40330000D03*
G04 #@! TD*
G04 #@! TO.C,REF\u002A\u002A*
X90868318Y47330001D03*
G04 #@! TD*
D16*
G04 #@! TO.C,R16*
X82855000Y55400000D03*
X81835000Y55400000D03*
G04 #@! TD*
G04 #@! TO.C,R16*
X103255000Y55400000D03*
X102235000Y55400000D03*
G04 #@! TD*
D15*
G04 #@! TO.C,R16*
X10745000Y32260000D03*
X11765000Y32260000D03*
G04 #@! TD*
D16*
G04 #@! TO.C,R16*
X62455000Y55400000D03*
X61435000Y55400000D03*
G04 #@! TD*
D15*
G04 #@! TO.C,R16*
X31145000Y32260000D03*
X32165000Y32260000D03*
G04 #@! TD*
G04 #@! TO.C,R16*
X51545000Y32260000D03*
X52565000Y32260000D03*
G04 #@! TD*
D16*
G04 #@! TO.C,R16*
X21655000Y55400000D03*
X20635000Y55400000D03*
G04 #@! TD*
D15*
G04 #@! TO.C,R16*
X71945000Y32260000D03*
X72965000Y32260000D03*
G04 #@! TD*
D16*
G04 #@! TO.C,R16*
X42055000Y55400000D03*
X41035000Y55400000D03*
G04 #@! TD*
D15*
G04 #@! TO.C,R16*
X92345000Y32260000D03*
X93365000Y32260000D03*
G04 #@! TD*
D11*
G04 #@! TO.C,REF\u002A\u002A*
X50068318Y47330001D03*
G04 #@! TD*
G04 #@! TO.C,REF\u002A\u002A*
X107000000Y3125000D03*
G04 #@! TD*
G04 #@! TO.C,REF\u002A\u002A*
X26400000Y44130000D03*
G04 #@! TD*
G04 #@! TO.C,REF\u002A\u002A*
X90275000Y80660000D03*
G04 #@! TD*
G04 #@! TO.C,REF\u002A\u002A*
X26400000Y42930000D03*
G04 #@! TD*
G04 #@! TO.C,REF\u002A\u002A*
X9268319Y47330001D03*
G04 #@! TD*
D37*
G04 #@! TO.C,C8*
X60535000Y35780000D03*
X60535000Y36740000D03*
G04 #@! TD*
D36*
G04 #@! TO.C,C8*
X12665000Y51880000D03*
X12665000Y50920000D03*
G04 #@! TD*
G04 #@! TO.C,C8*
X33065000Y51880000D03*
X33065000Y50920000D03*
G04 #@! TD*
D37*
G04 #@! TO.C,C8*
X80935000Y35780000D03*
X80935000Y36740000D03*
G04 #@! TD*
D36*
G04 #@! TO.C,C8*
X53465000Y51880000D03*
X53465000Y50920000D03*
G04 #@! TD*
D37*
G04 #@! TO.C,C8*
X40135000Y35780000D03*
X40135000Y36740000D03*
G04 #@! TD*
D36*
G04 #@! TO.C,C8*
X73865000Y51880000D03*
X73865000Y50920000D03*
G04 #@! TD*
D37*
G04 #@! TO.C,C8*
X19735000Y35780000D03*
X19735000Y36740000D03*
G04 #@! TD*
D36*
G04 #@! TO.C,C8*
X94265000Y51880000D03*
X94265000Y50920000D03*
G04 #@! TD*
D37*
G04 #@! TO.C,C8*
X101335000Y35780000D03*
X101335000Y36740000D03*
G04 #@! TD*
D11*
G04 #@! TO.C,REF\u002A\u002A*
X103535000Y80660000D03*
G04 #@! TD*
G04 #@! TO.C,REF\u002A\u002A*
X67200000Y42930000D03*
G04 #@! TD*
G04 #@! TO.C,REF\u002A\u002A*
X89675000Y80660000D03*
G04 #@! TD*
G04 #@! TO.C,REF\u002A\u002A*
X44198362Y40330000D03*
G04 #@! TD*
G04 #@! TO.C,REF\u002A\u002A*
X7000000Y87035000D03*
G04 #@! TD*
D45*
G04 #@! TO.C,D3*
X103444999Y72159999D03*
D46*
X102645000Y72160000D03*
G04 #@! TD*
D45*
G04 #@! TO.C,D3*
X30954999Y15499999D03*
D47*
X31755000Y15500000D03*
G04 #@! TD*
D45*
G04 #@! TO.C,D3*
X10554999Y15499999D03*
D47*
X11355000Y15500000D03*
G04 #@! TD*
D45*
G04 #@! TO.C,D3*
X71754999Y15499999D03*
D47*
X72555000Y15500000D03*
G04 #@! TD*
D45*
G04 #@! TO.C,D3*
X51354999Y15499999D03*
D47*
X52155000Y15500000D03*
G04 #@! TD*
D45*
G04 #@! TO.C,D3*
X92154999Y15499999D03*
D47*
X92955000Y15500000D03*
G04 #@! TD*
D45*
G04 #@! TO.C,D3*
X21844999Y72159999D03*
D46*
X21045000Y72160000D03*
G04 #@! TD*
D45*
G04 #@! TO.C,D3*
X83044999Y72159999D03*
D46*
X82245000Y72160000D03*
G04 #@! TD*
D45*
G04 #@! TO.C,D3*
X42244999Y72159999D03*
D46*
X41445000Y72160000D03*
G04 #@! TD*
D45*
G04 #@! TO.C,D3*
X62644999Y72159999D03*
D46*
X61845000Y72160000D03*
G04 #@! TD*
D11*
G04 #@! TO.C,REF\u002A\u002A*
X44125000Y7000000D03*
G04 #@! TD*
D18*
G04 #@! TO.C,R13*
X99065000Y69240000D03*
X99065000Y70260000D03*
G04 #@! TD*
D17*
G04 #@! TO.C,R13*
X14935000Y18420000D03*
X14935000Y17400000D03*
G04 #@! TD*
G04 #@! TO.C,R13*
X35335000Y18420000D03*
X35335000Y17400000D03*
G04 #@! TD*
G04 #@! TO.C,R13*
X76135000Y18420000D03*
X76135000Y17400000D03*
G04 #@! TD*
G04 #@! TO.C,R13*
X96535000Y18420000D03*
X96535000Y17400000D03*
G04 #@! TD*
D18*
G04 #@! TO.C,R13*
X17465000Y69240000D03*
X17465000Y70260000D03*
G04 #@! TD*
G04 #@! TO.C,R13*
X37865000Y69240000D03*
X37865000Y70260000D03*
G04 #@! TD*
D17*
G04 #@! TO.C,R13*
X55735000Y18420000D03*
X55735000Y17400000D03*
G04 #@! TD*
D18*
G04 #@! TO.C,R13*
X58265000Y69240000D03*
X58265000Y70260000D03*
G04 #@! TD*
G04 #@! TO.C,R13*
X78665000Y69240000D03*
X78665000Y70260000D03*
G04 #@! TD*
D11*
G04 #@! TO.C,REF\u002A\u002A*
X7000000Y83910000D03*
G04 #@! TD*
G04 #@! TO.C,REF\u002A\u002A*
X10465000Y7000000D03*
G04 #@! TD*
G04 #@! TO.C,REF\u002A\u002A*
X7000000Y44130000D03*
G04 #@! TD*
G04 #@! TO.C,REF\u002A\u002A*
X50725000Y40330000D03*
G04 #@! TD*
G04 #@! TO.C,REF\u002A\u002A*
X28991622Y40330000D03*
G04 #@! TD*
G04 #@! TO.C,REF\u002A\u002A*
X31475000Y80660000D03*
G04 #@! TD*
D17*
G04 #@! TO.C,R12*
X99055000Y18430000D03*
X99055000Y17410000D03*
G04 #@! TD*
D18*
G04 #@! TO.C,R12*
X14945000Y69230000D03*
X14945000Y70250000D03*
G04 #@! TD*
G04 #@! TO.C,R12*
X35345000Y69230000D03*
X35345000Y70250000D03*
G04 #@! TD*
G04 #@! TO.C,R12*
X55745000Y69230000D03*
X55745000Y70250000D03*
G04 #@! TD*
G04 #@! TO.C,R12*
X76145000Y69230000D03*
X76145000Y70250000D03*
G04 #@! TD*
G04 #@! TO.C,R12*
X96545000Y69230000D03*
X96545000Y70250000D03*
G04 #@! TD*
D17*
G04 #@! TO.C,R12*
X17455000Y18430000D03*
X17455000Y17410000D03*
G04 #@! TD*
G04 #@! TO.C,R12*
X37855000Y18430000D03*
X37855000Y17410000D03*
G04 #@! TD*
G04 #@! TO.C,R12*
X58255000Y18430000D03*
X58255000Y17410000D03*
G04 #@! TD*
G04 #@! TO.C,R12*
X78655000Y18430000D03*
X78655000Y17410000D03*
G04 #@! TD*
D48*
G04 #@! TO.C,Y1*
X18710000Y36960000D03*
X16960000Y36960000D03*
X16960000Y35560000D03*
X18710000Y35560000D03*
G04 #@! TD*
D49*
G04 #@! TO.C,Y1*
X13690000Y50700000D03*
X15440000Y50700000D03*
X15440000Y52100000D03*
X13690000Y52100000D03*
G04 #@! TD*
D48*
G04 #@! TO.C,Y1*
X59510000Y36960000D03*
X57760000Y36960000D03*
X57760000Y35560000D03*
X59510000Y35560000D03*
G04 #@! TD*
D49*
G04 #@! TO.C,Y1*
X34090000Y50700000D03*
X35840000Y50700000D03*
X35840000Y52100000D03*
X34090000Y52100000D03*
G04 #@! TD*
D48*
G04 #@! TO.C,Y1*
X39110000Y36960000D03*
X37360000Y36960000D03*
X37360000Y35560000D03*
X39110000Y35560000D03*
G04 #@! TD*
D49*
G04 #@! TO.C,Y1*
X54490000Y50700000D03*
X56240000Y50700000D03*
X56240000Y52100000D03*
X54490000Y52100000D03*
G04 #@! TD*
D48*
G04 #@! TO.C,Y1*
X100310000Y36960000D03*
X98560000Y36960000D03*
X98560000Y35560000D03*
X100310000Y35560000D03*
G04 #@! TD*
D49*
G04 #@! TO.C,Y1*
X74890000Y50700000D03*
X76640000Y50700000D03*
X76640000Y52100000D03*
X74890000Y52100000D03*
G04 #@! TD*
G04 #@! TO.C,Y1*
X95290000Y50700000D03*
X97040000Y50700000D03*
X97040000Y52100000D03*
X95290000Y52100000D03*
G04 #@! TD*
D48*
G04 #@! TO.C,Y1*
X79910000Y36960000D03*
X78160000Y36960000D03*
X78160000Y35560000D03*
X79910000Y35560000D03*
G04 #@! TD*
D11*
G04 #@! TO.C,REF\u002A\u002A*
X23141688Y47330001D03*
G04 #@! TD*
G04 #@! TO.C,REF\u002A\u002A*
X1250000Y7000000D03*
G04 #@! TD*
G04 #@! TO.C,REF\u002A\u002A*
X2500000Y80660000D03*
G04 #@! TD*
G04 #@! TO.C,REF\u002A\u002A*
X11075000Y80660000D03*
G04 #@! TD*
G04 #@! TO.C,REF\u002A\u002A*
X3125000Y7000000D03*
G04 #@! TD*
G04 #@! TO.C,REF\u002A\u002A*
X92075000Y80660000D03*
G04 #@! TD*
D50*
G04 #@! TO.C,U3*
X18999999Y19804999D03*
D51*
X19000000Y21075000D03*
X19000000Y22345000D03*
X19000000Y23615000D03*
X13310000Y23615000D03*
X13310000Y22345000D03*
X13310000Y21075000D03*
X13310000Y19805000D03*
D52*
X16154999Y21709999D03*
G04 #@! TD*
D50*
G04 #@! TO.C,U3*
X59799999Y19804999D03*
D51*
X59800000Y21075000D03*
X59800000Y22345000D03*
X59800000Y23615000D03*
X54110000Y23615000D03*
X54110000Y22345000D03*
X54110000Y21075000D03*
X54110000Y19805000D03*
D52*
X56954999Y21709999D03*
G04 #@! TD*
D50*
G04 #@! TO.C,U3*
X100599999Y19804999D03*
D51*
X100600000Y21075000D03*
X100600000Y22345000D03*
X100600000Y23615000D03*
X94910000Y23615000D03*
X94910000Y22345000D03*
X94910000Y21075000D03*
X94910000Y19805000D03*
D52*
X97754999Y21709999D03*
G04 #@! TD*
D53*
G04 #@! TO.C,U3*
X13399999Y67854999D03*
D54*
X13400000Y66585000D03*
X13400000Y65315000D03*
X13400000Y64045000D03*
X19090000Y64045000D03*
X19090000Y65315000D03*
X19090000Y66585000D03*
X19090000Y67855000D03*
D52*
X16244999Y65949999D03*
G04 #@! TD*
D53*
G04 #@! TO.C,U3*
X33799999Y67854999D03*
D54*
X33800000Y66585000D03*
X33800000Y65315000D03*
X33800000Y64045000D03*
X39490000Y64045000D03*
X39490000Y65315000D03*
X39490000Y66585000D03*
X39490000Y67855000D03*
D52*
X36644999Y65949999D03*
G04 #@! TD*
D50*
G04 #@! TO.C,U3*
X80199999Y19804999D03*
D51*
X80200000Y21075000D03*
X80200000Y22345000D03*
X80200000Y23615000D03*
X74510000Y23615000D03*
X74510000Y22345000D03*
X74510000Y21075000D03*
X74510000Y19805000D03*
D52*
X77354999Y21709999D03*
G04 #@! TD*
D50*
G04 #@! TO.C,U3*
X39399999Y19804999D03*
D51*
X39400000Y21075000D03*
X39400000Y22345000D03*
X39400000Y23615000D03*
X33710000Y23615000D03*
X33710000Y22345000D03*
X33710000Y21075000D03*
X33710000Y19805000D03*
D52*
X36554999Y21709999D03*
G04 #@! TD*
D53*
G04 #@! TO.C,U3*
X54199999Y67854999D03*
D54*
X54200000Y66585000D03*
X54200000Y65315000D03*
X54200000Y64045000D03*
X59890000Y64045000D03*
X59890000Y65315000D03*
X59890000Y66585000D03*
X59890000Y67855000D03*
D52*
X57044999Y65949999D03*
G04 #@! TD*
D53*
G04 #@! TO.C,U3*
X74599999Y67854999D03*
D54*
X74600000Y66585000D03*
X74600000Y65315000D03*
X74600000Y64045000D03*
X80290000Y64045000D03*
X80290000Y65315000D03*
X80290000Y66585000D03*
X80290000Y67855000D03*
D52*
X77444999Y65949999D03*
G04 #@! TD*
D53*
G04 #@! TO.C,U3*
X94999999Y67854999D03*
D54*
X95000000Y66585000D03*
X95000000Y65315000D03*
X95000000Y64045000D03*
X100690000Y64045000D03*
X100690000Y65315000D03*
X100690000Y66585000D03*
X100690000Y67855000D03*
D52*
X97844999Y65949999D03*
G04 #@! TD*
D11*
G04 #@! TO.C,REF\u002A\u002A*
X22465000Y40330000D03*
G04 #@! TD*
G04 #@! TO.C,REF\u002A\u002A*
X85535000Y80660000D03*
G04 #@! TD*
G04 #@! TO.C,REF\u002A\u002A*
X67200000Y42330000D03*
G04 #@! TD*
G04 #@! TO.C,REF\u002A\u002A*
X64598362Y40330000D03*
G04 #@! TD*
G04 #@! TO.C,REF\u002A\u002A*
X84331681Y40330000D03*
G04 #@! TD*
G04 #@! TO.C,REF\u002A\u002A*
X85665000Y40327633D03*
G04 #@! TD*
G04 #@! TO.C,REF\u002A\u002A*
X8675000Y80660000D03*
G04 #@! TD*
G04 #@! TO.C,REF\u002A\u002A*
X49465000Y7000000D03*
G04 #@! TD*
G04 #@! TO.C,REF\u002A\u002A*
X44875000Y47333138D03*
G04 #@! TD*
G04 #@! TO.C,REF\u002A\u002A*
X2500000Y7000000D03*
G04 #@! TD*
G04 #@! TO.C,REF\u002A\u002A*
X114000000Y80660000D03*
G04 #@! TD*
G04 #@! TO.C,REF\u002A\u002A*
X8665000Y7000000D03*
G04 #@! TD*
G04 #@! TO.C,REF\u002A\u002A*
X42325000Y7000000D03*
G04 #@! TD*
G04 #@! TO.C,REF\u002A\u002A*
X8601638Y47330001D03*
G04 #@! TD*
G04 #@! TO.C,REF\u002A\u002A*
X62725000Y7000000D03*
G04 #@! TD*
G04 #@! TO.C,REF\u002A\u002A*
X71665000Y7000000D03*
G04 #@! TD*
G04 #@! TO.C,REF\u002A\u002A*
X89535000Y47332368D03*
G04 #@! TD*
G04 #@! TO.C,REF\u002A\u002A*
X50675000Y80660000D03*
G04 #@! TD*
G04 #@! TO.C,REF\u002A\u002A*
X7000000Y45330000D03*
G04 #@! TD*
G04 #@! TO.C,REF\u002A\u002A*
X4375000Y7000000D03*
G04 #@! TD*
G04 #@! TO.C,REF\u002A\u002A*
X107000000Y42330000D03*
G04 #@! TD*
G04 #@! TO.C,REF\u002A\u002A*
X72265000Y7000000D03*
G04 #@! TD*
D37*
G04 #@! TO.C,C10*
X14605000Y24540000D03*
X14605000Y25500000D03*
G04 #@! TD*
D36*
G04 #@! TO.C,C10*
X17795000Y63120000D03*
X17795000Y62160000D03*
G04 #@! TD*
G04 #@! TO.C,C10*
X99395000Y63120000D03*
X99395000Y62160000D03*
G04 #@! TD*
G04 #@! TO.C,C10*
X38195000Y63120000D03*
X38195000Y62160000D03*
G04 #@! TD*
D37*
G04 #@! TO.C,C10*
X35005000Y24540000D03*
X35005000Y25500000D03*
G04 #@! TD*
D36*
G04 #@! TO.C,C10*
X78995000Y63120000D03*
X78995000Y62160000D03*
G04 #@! TD*
G04 #@! TO.C,C10*
X58595000Y63120000D03*
X58595000Y62160000D03*
G04 #@! TD*
D37*
G04 #@! TO.C,C10*
X75805000Y24540000D03*
X75805000Y25500000D03*
G04 #@! TD*
G04 #@! TO.C,C10*
X55405000Y24540000D03*
X55405000Y25500000D03*
G04 #@! TD*
G04 #@! TO.C,C10*
X96205000Y24540000D03*
X96205000Y25500000D03*
G04 #@! TD*
D11*
G04 #@! TO.C,REF\u002A\u002A*
X41725000Y7000000D03*
G04 #@! TD*
G04 #@! TO.C,REF\u002A\u002A*
X111500000Y80660000D03*
G04 #@! TD*
G04 #@! TO.C,REF\u002A\u002A*
X84341688Y47330001D03*
G04 #@! TD*
G04 #@! TO.C,REF\u002A\u002A*
X48735000Y47332368D03*
G04 #@! TD*
G04 #@! TO.C,REF\u002A\u002A*
X28475000Y80660000D03*
G04 #@! TD*
D25*
G04 #@! TO.C,REF\u002A\u002A*
X5000000Y3850000D03*
G04 #@! TD*
D11*
G04 #@! TO.C,REF\u002A\u002A*
X1875000Y7000000D03*
G04 #@! TD*
G04 #@! TO.C,REF\u002A\u002A*
X10475000Y80660000D03*
G04 #@! TD*
D42*
G04 #@! TO.C,D1*
X72344999Y24514999D03*
D43*
X72345000Y25485000D03*
G04 #@! TD*
D42*
G04 #@! TO.C,D1*
X92744999Y24514999D03*
D43*
X92745000Y25485000D03*
G04 #@! TD*
D42*
G04 #@! TO.C,D1*
X41654999Y63144999D03*
D44*
X41655000Y62175000D03*
G04 #@! TD*
D42*
G04 #@! TO.C,D1*
X51944999Y24514999D03*
D43*
X51945000Y25485000D03*
G04 #@! TD*
D42*
G04 #@! TO.C,D1*
X62054999Y63144999D03*
D44*
X62055000Y62175000D03*
G04 #@! TD*
D42*
G04 #@! TO.C,D1*
X82454999Y63144999D03*
D44*
X82455000Y62175000D03*
G04 #@! TD*
D42*
G04 #@! TO.C,D1*
X102854999Y63144999D03*
D44*
X102855000Y62175000D03*
G04 #@! TD*
D42*
G04 #@! TO.C,D1*
X11144999Y24514999D03*
D43*
X11145000Y25485000D03*
G04 #@! TD*
D42*
G04 #@! TO.C,D1*
X21254999Y63144999D03*
D44*
X21255000Y62175000D03*
G04 #@! TD*
D42*
G04 #@! TO.C,D1*
X31544999Y24514999D03*
D43*
X31545000Y25485000D03*
G04 #@! TD*
D20*
G04 #@! TO.C,C2*
X94040000Y72075000D03*
X95000000Y72075000D03*
G04 #@! TD*
D19*
G04 #@! TO.C,C2*
X81160000Y15585000D03*
X80200000Y15585000D03*
G04 #@! TD*
G04 #@! TO.C,C2*
X101560000Y15585000D03*
X100600000Y15585000D03*
G04 #@! TD*
G04 #@! TO.C,C2*
X19960000Y15585000D03*
X19000000Y15585000D03*
G04 #@! TD*
G04 #@! TO.C,C2*
X40360000Y15585000D03*
X39400000Y15585000D03*
G04 #@! TD*
G04 #@! TO.C,C2*
X60760000Y15585000D03*
X59800000Y15585000D03*
G04 #@! TD*
D20*
G04 #@! TO.C,C2*
X12440000Y72075000D03*
X13400000Y72075000D03*
G04 #@! TD*
G04 #@! TO.C,C2*
X53240000Y72075000D03*
X54200000Y72075000D03*
G04 #@! TD*
G04 #@! TO.C,C2*
X32840000Y72075000D03*
X33800000Y72075000D03*
G04 #@! TD*
G04 #@! TO.C,C2*
X73640000Y72075000D03*
X74600000Y72075000D03*
G04 #@! TD*
D11*
G04 #@! TO.C,REF\u002A\u002A*
X9275000Y80660000D03*
G04 #@! TD*
G04 #@! TO.C,REF\u002A\u002A*
X51265000Y7000000D03*
G04 #@! TD*
G04 #@! TO.C,REF\u002A\u002A*
X31465000Y7000000D03*
G04 #@! TD*
G04 #@! TO.C,REF\u002A\u002A*
X87600000Y45330000D03*
G04 #@! TD*
G04 #@! TO.C,REF\u002A\u002A*
X62135000Y80660000D03*
G04 #@! TD*
G04 #@! TO.C,REF\u002A\u002A*
X48875000Y80660000D03*
G04 #@! TD*
G04 #@! TO.C,REF\u002A\u002A*
X87600000Y42330000D03*
G04 #@! TD*
G04 #@! TO.C,REF\u002A\u002A*
X69125000Y40326863D03*
G04 #@! TD*
G04 #@! TO.C,REF\u002A\u002A*
X104725000Y7000000D03*
G04 #@! TD*
G04 #@! TO.C,REF\u002A\u002A*
X7000000Y84535000D03*
G04 #@! TD*
G04 #@! TO.C,REF\u002A\u002A*
X107000000Y4375000D03*
G04 #@! TD*
G04 #@! TO.C,REF\u002A\u002A*
X65135000Y80660000D03*
G04 #@! TD*
G04 #@! TO.C,REF\u002A\u002A*
X28335000Y47332368D03*
G04 #@! TD*
G04 #@! TO.C,REF\u002A\u002A*
X69801637Y47330001D03*
G04 #@! TD*
G04 #@! TO.C,REF\u002A\u002A*
X107000000Y625000D03*
G04 #@! TD*
G04 #@! TO.C,REF\u002A\u002A*
X71675000Y80660000D03*
G04 #@! TD*
G04 #@! TO.C,REF\u002A\u002A*
X44135000Y80660000D03*
G04 #@! TD*
G04 #@! TO.C,REF\u002A\u002A*
X90875000Y80660000D03*
G04 #@! TD*
G04 #@! TO.C,REF\u002A\u002A*
X30325000Y40330000D03*
G04 #@! TD*
G04 #@! TO.C,REF\u002A\u002A*
X92675000Y80660000D03*
G04 #@! TD*
G04 #@! TO.C,REF\u002A\u002A*
X110250000Y80660000D03*
G04 #@! TD*
G04 #@! TO.C,REF\u002A\u002A*
X65275000Y47333138D03*
G04 #@! TD*
G04 #@! TO.C,REF\u002A\u002A*
X63265000Y40330000D03*
G04 #@! TD*
G04 #@! TO.C,REF\u002A\u002A*
X83725000Y7000000D03*
G04 #@! TD*
D25*
G04 #@! TO.C,REF\u002A\u002A*
X5000000Y83810000D03*
G04 #@! TD*
D11*
G04 #@! TO.C,REF\u002A\u002A*
X107000000Y87660000D03*
G04 #@! TD*
G04 #@! TO.C,REF\u002A\u002A*
X107000000Y1250000D03*
G04 #@! TD*
G04 #@! TO.C,REF\u002A\u002A*
X29658311Y40330000D03*
G04 #@! TD*
D16*
G04 #@! TO.C,R1*
X95535000Y36970000D03*
X94515000Y36970000D03*
G04 #@! TD*
D15*
G04 #@! TO.C,R1*
X79665000Y50690000D03*
X80685000Y50690000D03*
G04 #@! TD*
G04 #@! TO.C,R1*
X100065000Y50690000D03*
X101085000Y50690000D03*
G04 #@! TD*
D16*
G04 #@! TO.C,R1*
X13935000Y36970000D03*
X12915000Y36970000D03*
G04 #@! TD*
D15*
G04 #@! TO.C,R1*
X18465000Y50690000D03*
X19485000Y50690000D03*
G04 #@! TD*
D16*
G04 #@! TO.C,R1*
X34335000Y36970000D03*
X33315000Y36970000D03*
G04 #@! TD*
D15*
G04 #@! TO.C,R1*
X38865000Y50690000D03*
X39885000Y50690000D03*
G04 #@! TD*
G04 #@! TO.C,R1*
X59265000Y50690000D03*
X60285000Y50690000D03*
G04 #@! TD*
D16*
G04 #@! TO.C,R1*
X54735000Y36970000D03*
X53715000Y36970000D03*
G04 #@! TD*
G04 #@! TO.C,R1*
X75135000Y36970000D03*
X74115000Y36970000D03*
G04 #@! TD*
D11*
G04 #@! TO.C,REF\u002A\u002A*
X104731681Y40330000D03*
G04 #@! TD*
G04 #@! TO.C,REF\u002A\u002A*
X83665000Y40330000D03*
G04 #@! TD*
G04 #@! TO.C,REF\u002A\u002A*
X84335000Y80660000D03*
G04 #@! TD*
D37*
G04 #@! TO.C,C18*
X19495000Y62160000D03*
X19495000Y63120000D03*
G04 #@! TD*
G04 #@! TO.C,C18*
X60295000Y62160000D03*
X60295000Y63120000D03*
G04 #@! TD*
D36*
G04 #@! TO.C,C18*
X12905000Y25500000D03*
X12905000Y24540000D03*
G04 #@! TD*
G04 #@! TO.C,C18*
X94505000Y25500000D03*
X94505000Y24540000D03*
G04 #@! TD*
G04 #@! TO.C,C18*
X74105000Y25500000D03*
X74105000Y24540000D03*
G04 #@! TD*
D37*
G04 #@! TO.C,C18*
X101095000Y62160000D03*
X101095000Y63120000D03*
G04 #@! TD*
G04 #@! TO.C,C18*
X39895000Y62160000D03*
X39895000Y63120000D03*
G04 #@! TD*
D36*
G04 #@! TO.C,C18*
X53705000Y25500000D03*
X53705000Y24540000D03*
G04 #@! TD*
D37*
G04 #@! TO.C,C18*
X80695000Y62160000D03*
X80695000Y63120000D03*
G04 #@! TD*
D36*
G04 #@! TO.C,C18*
X33305000Y25500000D03*
X33305000Y24540000D03*
G04 #@! TD*
D11*
G04 #@! TO.C,REF\u002A\u002A*
X67200000Y44730000D03*
G04 #@! TD*
D55*
G04 #@! TO.C,SW1*
X42060000Y53630000D03*
X42060000Y50930000D03*
X40910000Y53630000D03*
X40910000Y50930000D03*
G04 #@! TD*
D56*
G04 #@! TO.C,SW1*
X31140000Y34030000D03*
X31140000Y36730000D03*
X32290000Y34030000D03*
X32290000Y36730000D03*
G04 #@! TD*
G04 #@! TO.C,SW1*
X51540000Y34030000D03*
X51540000Y36730000D03*
X52690000Y34030000D03*
X52690000Y36730000D03*
G04 #@! TD*
D55*
G04 #@! TO.C,SW1*
X62460000Y53630000D03*
X62460000Y50930000D03*
X61310000Y53630000D03*
X61310000Y50930000D03*
G04 #@! TD*
D56*
G04 #@! TO.C,SW1*
X71940000Y34030000D03*
X71940000Y36730000D03*
X73090000Y34030000D03*
X73090000Y36730000D03*
G04 #@! TD*
D55*
G04 #@! TO.C,SW1*
X21660000Y53630000D03*
X21660000Y50930000D03*
X20510000Y53630000D03*
X20510000Y50930000D03*
G04 #@! TD*
D56*
G04 #@! TO.C,SW1*
X10740000Y34030000D03*
X10740000Y36730000D03*
X11890000Y34030000D03*
X11890000Y36730000D03*
G04 #@! TD*
G04 #@! TO.C,SW1*
X92340000Y34030000D03*
X92340000Y36730000D03*
X93490000Y34030000D03*
X93490000Y36730000D03*
G04 #@! TD*
D55*
G04 #@! TO.C,SW1*
X82860000Y53630000D03*
X82860000Y50930000D03*
X81710000Y53630000D03*
X81710000Y50930000D03*
G04 #@! TD*
G04 #@! TO.C,SW1*
X103260000Y53630000D03*
X103260000Y50930000D03*
X102110000Y53630000D03*
X102110000Y50930000D03*
G04 #@! TD*
D11*
G04 #@! TO.C,REF\u002A\u002A*
X83135000Y80660000D03*
G04 #@! TD*
G04 #@! TO.C,REF\u002A\u002A*
X62735000Y80660000D03*
G04 #@! TD*
G04 #@! TO.C,REF\u002A\u002A*
X26400000Y44730000D03*
G04 #@! TD*
G04 #@! TO.C,REF\u002A\u002A*
X69865000Y7000000D03*
G04 #@! TD*
G04 #@! TO.C,REF\u002A\u002A*
X29675000Y80660000D03*
G04 #@! TD*
G04 #@! TO.C,REF\u002A\u002A*
X9258312Y40330000D03*
G04 #@! TD*
D25*
G04 #@! TO.C,REF\u002A\u002A*
X109000000Y83810000D03*
G04 #@! TD*
D11*
G04 #@! TO.C,REF\u002A\u002A*
X23125000Y7000000D03*
G04 #@! TD*
G04 #@! TO.C,REF\u002A\u002A*
X49391622Y40330000D03*
G04 #@! TD*
D36*
G04 #@! TO.C,C7*
X36315000Y36740000D03*
X36315000Y35780000D03*
G04 #@! TD*
D37*
G04 #@! TO.C,C7*
X57285000Y50920000D03*
X57285000Y51880000D03*
G04 #@! TD*
D36*
G04 #@! TO.C,C7*
X56715000Y36740000D03*
X56715000Y35780000D03*
G04 #@! TD*
G04 #@! TO.C,C7*
X97515000Y36740000D03*
X97515000Y35780000D03*
G04 #@! TD*
G04 #@! TO.C,C7*
X77115000Y36740000D03*
X77115000Y35780000D03*
G04 #@! TD*
G04 #@! TO.C,C7*
X15915000Y36740000D03*
X15915000Y35780000D03*
G04 #@! TD*
D37*
G04 #@! TO.C,C7*
X16485000Y50920000D03*
X16485000Y51880000D03*
G04 #@! TD*
G04 #@! TO.C,C7*
X77685000Y50920000D03*
X77685000Y51880000D03*
G04 #@! TD*
G04 #@! TO.C,C7*
X36885000Y50920000D03*
X36885000Y51880000D03*
G04 #@! TD*
G04 #@! TO.C,C7*
X98085000Y50920000D03*
X98085000Y51880000D03*
G04 #@! TD*
D11*
G04 #@! TO.C,REF\u002A\u002A*
X67200000Y44130000D03*
G04 #@! TD*
G04 #@! TO.C,REF\u002A\u002A*
X30265000Y7000000D03*
G04 #@! TD*
G04 #@! TO.C,REF\u002A\u002A*
X46800000Y44730000D03*
G04 #@! TD*
G04 #@! TO.C,REF\u002A\u002A*
X23135000Y80660000D03*
G04 #@! TD*
G04 #@! TO.C,REF\u002A\u002A*
X30275000Y80660000D03*
G04 #@! TD*
G04 #@! TO.C,REF\u002A\u002A*
X90265000Y7000000D03*
G04 #@! TD*
G04 #@! TO.C,REF\u002A\u002A*
X87600000Y42930000D03*
G04 #@! TD*
D19*
G04 #@! TO.C,C15*
X93450000Y57125000D03*
X92490000Y57125000D03*
G04 #@! TD*
D20*
G04 #@! TO.C,C15*
X61350000Y30535000D03*
X62310000Y30535000D03*
G04 #@! TD*
D19*
G04 #@! TO.C,C15*
X52650000Y57125000D03*
X51690000Y57125000D03*
G04 #@! TD*
D20*
G04 #@! TO.C,C15*
X20550000Y30535000D03*
X21510000Y30535000D03*
G04 #@! TD*
D19*
G04 #@! TO.C,C15*
X73050000Y57125000D03*
X72090000Y57125000D03*
G04 #@! TD*
D20*
G04 #@! TO.C,C15*
X81750000Y30535000D03*
X82710000Y30535000D03*
G04 #@! TD*
G04 #@! TO.C,C15*
X40950000Y30535000D03*
X41910000Y30535000D03*
G04 #@! TD*
D19*
G04 #@! TO.C,C15*
X32250000Y57125000D03*
X31290000Y57125000D03*
G04 #@! TD*
D20*
G04 #@! TO.C,C15*
X102150000Y30535000D03*
X103110000Y30535000D03*
G04 #@! TD*
D19*
G04 #@! TO.C,C15*
X11850000Y57125000D03*
X10890000Y57125000D03*
G04 #@! TD*
D11*
G04 #@! TO.C,REF\u002A\u002A*
X9875000Y80660000D03*
G04 #@! TD*
G04 #@! TO.C,REF\u002A\u002A*
X50058311Y40330000D03*
G04 #@! TD*
G04 #@! TO.C,REF\u002A\u002A*
X63335000Y80660000D03*
G04 #@! TD*
G04 #@! TO.C,REF\u002A\u002A*
X44735000Y80660000D03*
G04 #@! TD*
G04 #@! TO.C,REF\u002A\u002A*
X7000000Y2500000D03*
G04 #@! TD*
G04 #@! TO.C,REF\u002A\u002A*
X109625000Y7000000D03*
G04 #@! TD*
G04 #@! TO.C,REF\u002A\u002A*
X69875000Y80660000D03*
G04 #@! TD*
G04 #@! TO.C,REF\u002A\u002A*
X43525000Y7000000D03*
G04 #@! TD*
G04 #@! TO.C,REF\u002A\u002A*
X104735000Y80660000D03*
G04 #@! TD*
G04 #@! TO.C,REF\u002A\u002A*
X64525000Y7000000D03*
G04 #@! TD*
G04 #@! TO.C,REF\u002A\u002A*
X9865000Y7000000D03*
G04 #@! TD*
G04 #@! TO.C,REF\u002A\u002A*
X107000000Y44730000D03*
G04 #@! TD*
G04 #@! TO.C,REF\u002A\u002A*
X110875000Y80660000D03*
G04 #@! TD*
G04 #@! TO.C,REF\u002A\u002A*
X107000000Y86410000D03*
G04 #@! TD*
D57*
G04 #@! TO.C,J2*
X27400000Y79390000D03*
D58*
X28164999Y79389999D03*
D57*
X27400000Y76850000D03*
D59*
X28164999Y76839999D03*
D57*
X27400000Y74310000D03*
D58*
X28164999Y74309999D03*
D60*
X27400000Y71770000D03*
D61*
X28165000Y71770000D03*
D60*
X27400000Y69230000D03*
D61*
X28165000Y69230000D03*
D57*
X27400000Y66690000D03*
D58*
X28164999Y66689999D03*
D57*
X27400000Y64150000D03*
D58*
X28164999Y64149999D03*
D57*
X27400000Y61610000D03*
D58*
X28164999Y61609999D03*
D57*
X27400000Y59070000D03*
D58*
X28164999Y59069999D03*
D57*
X27400000Y56530000D03*
D58*
X28164999Y56529999D03*
D57*
X27400000Y53990000D03*
D58*
X28164999Y53989999D03*
D57*
X27400000Y51450000D03*
D58*
X28164999Y51449999D03*
D57*
X27400000Y48910000D03*
D58*
X28164999Y48909999D03*
D62*
X31519999Y48094999D03*
D57*
X31520000Y47330000D03*
D62*
X34059999Y48094999D03*
D63*
X34059999Y47329999D03*
D62*
X36599999Y48094999D03*
D63*
X36599999Y47329999D03*
D62*
X39139999Y48094999D03*
D63*
X39139999Y47329999D03*
D62*
X41679999Y48094999D03*
D63*
X41679999Y47329999D03*
D58*
X45034999Y48909999D03*
D57*
X45800000Y48910000D03*
D59*
X45034999Y51439999D03*
D57*
X45800000Y51450000D03*
D64*
X45034999Y53984999D03*
D57*
X45800000Y53990000D03*
D58*
X45034999Y56529999D03*
D57*
X45800000Y56530000D03*
D58*
X45034999Y59069999D03*
D57*
X45800000Y59070000D03*
D58*
X45034999Y61609999D03*
D57*
X45800000Y61610000D03*
D58*
X45034999Y64149999D03*
D57*
X45800000Y64150000D03*
D64*
X45034999Y66684999D03*
D57*
X45800000Y66690000D03*
D65*
X44220000Y69230000D03*
D66*
X45249755Y69230000D03*
D67*
X44919999Y71769999D03*
D57*
X45800000Y71770000D03*
D68*
X45035000Y74310000D03*
D69*
X45800000Y74310000D03*
D65*
X44220000Y76850000D03*
D66*
X45249755Y76850000D03*
D64*
X45034999Y79384999D03*
D57*
X45800000Y79390000D03*
X31525000Y51450000D03*
X37870000Y71770000D03*
X35330000Y71770000D03*
G04 #@! TD*
G04 #@! TO.C,J2*
X66200000Y8270000D03*
D58*
X65434999Y8269999D03*
D57*
X66200000Y10810000D03*
D59*
X65434999Y10819999D03*
D57*
X66200000Y13350000D03*
D58*
X65434999Y13349999D03*
D69*
X66200000Y15890000D03*
D68*
X65435000Y15890000D03*
D69*
X66200000Y18430000D03*
D68*
X65435000Y18430000D03*
D57*
X66200000Y20970000D03*
D58*
X65434999Y20969999D03*
D57*
X66200000Y23510000D03*
D58*
X65434999Y23509999D03*
D57*
X66200000Y26050000D03*
D58*
X65434999Y26049999D03*
D57*
X66200000Y28590000D03*
D58*
X65434999Y28589999D03*
D57*
X66200000Y31130000D03*
D58*
X65434999Y31129999D03*
D57*
X66200000Y33670000D03*
D58*
X65434999Y33669999D03*
D57*
X66200000Y36210000D03*
D58*
X65434999Y36209999D03*
D57*
X66200000Y38750000D03*
D58*
X65434999Y38749999D03*
D62*
X62079999Y39564999D03*
D57*
X62080000Y40330000D03*
D62*
X59539999Y39564999D03*
D63*
X59539999Y40329999D03*
D62*
X56999999Y39564999D03*
D63*
X56999999Y40329999D03*
D62*
X54459999Y39564999D03*
D63*
X54459999Y40329999D03*
D62*
X51919999Y39564999D03*
D63*
X51919999Y40329999D03*
D58*
X48564999Y38749999D03*
D57*
X47800000Y38750000D03*
D59*
X48564999Y36219999D03*
D57*
X47800000Y36210000D03*
D64*
X48564999Y33674999D03*
D57*
X47800000Y33670000D03*
D58*
X48564999Y31129999D03*
D57*
X47800000Y31130000D03*
D58*
X48564999Y28589999D03*
D57*
X47800000Y28590000D03*
D58*
X48564999Y26049999D03*
D57*
X47800000Y26050000D03*
D58*
X48564999Y23509999D03*
D57*
X47800000Y23510000D03*
D64*
X48564999Y20974999D03*
D57*
X47800000Y20970000D03*
D70*
X49380000Y18430000D03*
D71*
X48350245Y18430000D03*
D67*
X48679999Y15889999D03*
D57*
X47800000Y15890000D03*
D61*
X48565000Y13350000D03*
D60*
X47800000Y13350000D03*
D70*
X49380000Y10810000D03*
D71*
X48350245Y10810000D03*
D64*
X48564999Y8274999D03*
D57*
X47800000Y8270000D03*
X62075000Y36210000D03*
X55730000Y15890000D03*
X58270000Y15890000D03*
G04 #@! TD*
G04 #@! TO.C,J2*
X107000000Y8270000D03*
D58*
X106234999Y8269999D03*
D57*
X107000000Y10810000D03*
D59*
X106234999Y10819999D03*
D57*
X107000000Y13350000D03*
D58*
X106234999Y13349999D03*
D69*
X107000000Y15890000D03*
D68*
X106235000Y15890000D03*
D69*
X107000000Y18430000D03*
D68*
X106235000Y18430000D03*
D57*
X107000000Y20970000D03*
D58*
X106234999Y20969999D03*
D57*
X107000000Y23510000D03*
D58*
X106234999Y23509999D03*
D57*
X107000000Y26050000D03*
D58*
X106234999Y26049999D03*
D57*
X107000000Y28590000D03*
D58*
X106234999Y28589999D03*
D57*
X107000000Y31130000D03*
D58*
X106234999Y31129999D03*
D57*
X107000000Y33670000D03*
D58*
X106234999Y33669999D03*
D57*
X107000000Y36210000D03*
D58*
X106234999Y36209999D03*
D57*
X107000000Y38750000D03*
D58*
X106234999Y38749999D03*
D62*
X102879999Y39564999D03*
D57*
X102880000Y40330000D03*
D62*
X100339999Y39564999D03*
D63*
X100339999Y40329999D03*
D62*
X97799999Y39564999D03*
D63*
X97799999Y40329999D03*
D62*
X95259999Y39564999D03*
D63*
X95259999Y40329999D03*
D62*
X92719999Y39564999D03*
D63*
X92719999Y40329999D03*
D58*
X89364999Y38749999D03*
D57*
X88600000Y38750000D03*
D59*
X89364999Y36219999D03*
D57*
X88600000Y36210000D03*
D64*
X89364999Y33674999D03*
D57*
X88600000Y33670000D03*
D58*
X89364999Y31129999D03*
D57*
X88600000Y31130000D03*
D58*
X89364999Y28589999D03*
D57*
X88600000Y28590000D03*
D58*
X89364999Y26049999D03*
D57*
X88600000Y26050000D03*
D58*
X89364999Y23509999D03*
D57*
X88600000Y23510000D03*
D64*
X89364999Y20974999D03*
D57*
X88600000Y20970000D03*
D70*
X90180000Y18430000D03*
D71*
X89150245Y18430000D03*
D67*
X89479999Y15889999D03*
D57*
X88600000Y15890000D03*
D61*
X89365000Y13350000D03*
D60*
X88600000Y13350000D03*
D70*
X90180000Y10810000D03*
D71*
X89150245Y10810000D03*
D64*
X89364999Y8274999D03*
D57*
X88600000Y8270000D03*
X102875000Y36210000D03*
X96530000Y15890000D03*
X99070000Y15890000D03*
G04 #@! TD*
G04 #@! TO.C,J2*
X45800000Y8270000D03*
D58*
X45034999Y8269999D03*
D57*
X45800000Y10810000D03*
D59*
X45034999Y10819999D03*
D57*
X45800000Y13350000D03*
D58*
X45034999Y13349999D03*
D69*
X45800000Y15890000D03*
D68*
X45035000Y15890000D03*
D69*
X45800000Y18430000D03*
D68*
X45035000Y18430000D03*
D57*
X45800000Y20970000D03*
D58*
X45034999Y20969999D03*
D57*
X45800000Y23510000D03*
D58*
X45034999Y23509999D03*
D57*
X45800000Y26050000D03*
D58*
X45034999Y26049999D03*
D57*
X45800000Y28590000D03*
D58*
X45034999Y28589999D03*
D57*
X45800000Y31130000D03*
D58*
X45034999Y31129999D03*
D57*
X45800000Y33670000D03*
D58*
X45034999Y33669999D03*
D57*
X45800000Y36210000D03*
D58*
X45034999Y36209999D03*
D57*
X45800000Y38750000D03*
D58*
X45034999Y38749999D03*
D62*
X41679999Y39564999D03*
D57*
X41680000Y40330000D03*
D62*
X39139999Y39564999D03*
D63*
X39139999Y40329999D03*
D62*
X36599999Y39564999D03*
D63*
X36599999Y40329999D03*
D62*
X34059999Y39564999D03*
D63*
X34059999Y40329999D03*
D62*
X31519999Y39564999D03*
D63*
X31519999Y40329999D03*
D58*
X28164999Y38749999D03*
D57*
X27400000Y38750000D03*
D59*
X28164999Y36219999D03*
D57*
X27400000Y36210000D03*
D64*
X28164999Y33674999D03*
D57*
X27400000Y33670000D03*
D58*
X28164999Y31129999D03*
D57*
X27400000Y31130000D03*
D58*
X28164999Y28589999D03*
D57*
X27400000Y28590000D03*
D58*
X28164999Y26049999D03*
D57*
X27400000Y26050000D03*
D58*
X28164999Y23509999D03*
D57*
X27400000Y23510000D03*
D64*
X28164999Y20974999D03*
D57*
X27400000Y20970000D03*
D70*
X28980000Y18430000D03*
D71*
X27950245Y18430000D03*
D67*
X28279999Y15889999D03*
D57*
X27400000Y15890000D03*
D61*
X28165000Y13350000D03*
D60*
X27400000Y13350000D03*
D70*
X28980000Y10810000D03*
D71*
X27950245Y10810000D03*
D64*
X28164999Y8274999D03*
D57*
X27400000Y8270000D03*
X41675000Y36210000D03*
X35330000Y15890000D03*
X37870000Y15890000D03*
G04 #@! TD*
G04 #@! TO.C,J2*
X88600000Y79390000D03*
D58*
X89364999Y79389999D03*
D57*
X88600000Y76850000D03*
D59*
X89364999Y76839999D03*
D57*
X88600000Y74310000D03*
D58*
X89364999Y74309999D03*
D60*
X88600000Y71770000D03*
D61*
X89365000Y71770000D03*
D60*
X88600000Y69230000D03*
D61*
X89365000Y69230000D03*
D57*
X88600000Y66690000D03*
D58*
X89364999Y66689999D03*
D57*
X88600000Y64150000D03*
D58*
X89364999Y64149999D03*
D57*
X88600000Y61610000D03*
D58*
X89364999Y61609999D03*
D57*
X88600000Y59070000D03*
D58*
X89364999Y59069999D03*
D57*
X88600000Y56530000D03*
D58*
X89364999Y56529999D03*
D57*
X88600000Y53990000D03*
D58*
X89364999Y53989999D03*
D57*
X88600000Y51450000D03*
D58*
X89364999Y51449999D03*
D57*
X88600000Y48910000D03*
D58*
X89364999Y48909999D03*
D62*
X92719999Y48094999D03*
D57*
X92720000Y47330000D03*
D62*
X95259999Y48094999D03*
D63*
X95259999Y47329999D03*
D62*
X97799999Y48094999D03*
D63*
X97799999Y47329999D03*
D62*
X100339999Y48094999D03*
D63*
X100339999Y47329999D03*
D62*
X102879999Y48094999D03*
D63*
X102879999Y47329999D03*
D58*
X106234999Y48909999D03*
D57*
X107000000Y48910000D03*
D59*
X106234999Y51439999D03*
D57*
X107000000Y51450000D03*
D64*
X106234999Y53984999D03*
D57*
X107000000Y53990000D03*
D58*
X106234999Y56529999D03*
D57*
X107000000Y56530000D03*
D58*
X106234999Y59069999D03*
D57*
X107000000Y59070000D03*
D58*
X106234999Y61609999D03*
D57*
X107000000Y61610000D03*
D58*
X106234999Y64149999D03*
D57*
X107000000Y64150000D03*
D64*
X106234999Y66684999D03*
D57*
X107000000Y66690000D03*
D65*
X105420000Y69230000D03*
D66*
X106449755Y69230000D03*
D67*
X106119999Y71769999D03*
D57*
X107000000Y71770000D03*
D68*
X106235000Y74310000D03*
D69*
X107000000Y74310000D03*
D65*
X105420000Y76850000D03*
D66*
X106449755Y76850000D03*
D64*
X106234999Y79384999D03*
D57*
X107000000Y79390000D03*
X92725000Y51450000D03*
X99070000Y71770000D03*
X96530000Y71770000D03*
G04 #@! TD*
G04 #@! TO.C,J2*
X68200000Y79390000D03*
D58*
X68964999Y79389999D03*
D57*
X68200000Y76850000D03*
D59*
X68964999Y76839999D03*
D57*
X68200000Y74310000D03*
D58*
X68964999Y74309999D03*
D60*
X68200000Y71770000D03*
D61*
X68965000Y71770000D03*
D60*
X68200000Y69230000D03*
D61*
X68965000Y69230000D03*
D57*
X68200000Y66690000D03*
D58*
X68964999Y66689999D03*
D57*
X68200000Y64150000D03*
D58*
X68964999Y64149999D03*
D57*
X68200000Y61610000D03*
D58*
X68964999Y61609999D03*
D57*
X68200000Y59070000D03*
D58*
X68964999Y59069999D03*
D57*
X68200000Y56530000D03*
D58*
X68964999Y56529999D03*
D57*
X68200000Y53990000D03*
D58*
X68964999Y53989999D03*
D57*
X68200000Y51450000D03*
D58*
X68964999Y51449999D03*
D57*
X68200000Y48910000D03*
D58*
X68964999Y48909999D03*
D62*
X72319999Y48094999D03*
D57*
X72320000Y47330000D03*
D62*
X74859999Y48094999D03*
D63*
X74859999Y47329999D03*
D62*
X77399999Y48094999D03*
D63*
X77399999Y47329999D03*
D62*
X79939999Y48094999D03*
D63*
X79939999Y47329999D03*
D62*
X82479999Y48094999D03*
D63*
X82479999Y47329999D03*
D58*
X85834999Y48909999D03*
D57*
X86600000Y48910000D03*
D59*
X85834999Y51439999D03*
D57*
X86600000Y51450000D03*
D64*
X85834999Y53984999D03*
D57*
X86600000Y53990000D03*
D58*
X85834999Y56529999D03*
D57*
X86600000Y56530000D03*
D58*
X85834999Y59069999D03*
D57*
X86600000Y59070000D03*
D58*
X85834999Y61609999D03*
D57*
X86600000Y61610000D03*
D58*
X85834999Y64149999D03*
D57*
X86600000Y64150000D03*
D64*
X85834999Y66684999D03*
D57*
X86600000Y66690000D03*
D65*
X85020000Y69230000D03*
D66*
X86049755Y69230000D03*
D67*
X85719999Y71769999D03*
D57*
X86600000Y71770000D03*
D68*
X85835000Y74310000D03*
D69*
X86600000Y74310000D03*
D65*
X85020000Y76850000D03*
D66*
X86049755Y76850000D03*
D64*
X85834999Y79384999D03*
D57*
X86600000Y79390000D03*
X72325000Y51450000D03*
X78670000Y71770000D03*
X76130000Y71770000D03*
G04 #@! TD*
G04 #@! TO.C,J2*
X7000000Y79390000D03*
D58*
X7764999Y79389999D03*
D57*
X7000000Y76850000D03*
D59*
X7764999Y76839999D03*
D57*
X7000000Y74310000D03*
D58*
X7764999Y74309999D03*
D60*
X7000000Y71770000D03*
D61*
X7765000Y71770000D03*
D60*
X7000000Y69230000D03*
D61*
X7765000Y69230000D03*
D57*
X7000000Y66690000D03*
D58*
X7764999Y66689999D03*
D57*
X7000000Y64150000D03*
D58*
X7764999Y64149999D03*
D57*
X7000000Y61610000D03*
D58*
X7764999Y61609999D03*
D57*
X7000000Y59070000D03*
D58*
X7764999Y59069999D03*
D57*
X7000000Y56530000D03*
D58*
X7764999Y56529999D03*
D57*
X7000000Y53990000D03*
D58*
X7764999Y53989999D03*
D57*
X7000000Y51450000D03*
D58*
X7764999Y51449999D03*
D57*
X7000000Y48910000D03*
D58*
X7764999Y48909999D03*
D62*
X11119999Y48094999D03*
D57*
X11120000Y47330000D03*
D62*
X13659999Y48094999D03*
D63*
X13659999Y47329999D03*
D62*
X16199999Y48094999D03*
D63*
X16199999Y47329999D03*
D62*
X18739999Y48094999D03*
D63*
X18739999Y47329999D03*
D62*
X21279999Y48094999D03*
D63*
X21279999Y47329999D03*
D58*
X24634999Y48909999D03*
D57*
X25400000Y48910000D03*
D59*
X24634999Y51439999D03*
D57*
X25400000Y51450000D03*
D64*
X24634999Y53984999D03*
D57*
X25400000Y53990000D03*
D58*
X24634999Y56529999D03*
D57*
X25400000Y56530000D03*
D58*
X24634999Y59069999D03*
D57*
X25400000Y59070000D03*
D58*
X24634999Y61609999D03*
D57*
X25400000Y61610000D03*
D58*
X24634999Y64149999D03*
D57*
X25400000Y64150000D03*
D64*
X24634999Y66684999D03*
D57*
X25400000Y66690000D03*
D65*
X23820000Y69230000D03*
D66*
X24849755Y69230000D03*
D67*
X24519999Y71769999D03*
D57*
X25400000Y71770000D03*
D68*
X24635000Y74310000D03*
D69*
X25400000Y74310000D03*
D65*
X23820000Y76850000D03*
D66*
X24849755Y76850000D03*
D64*
X24634999Y79384999D03*
D57*
X25400000Y79390000D03*
X11125000Y51450000D03*
X17470000Y71770000D03*
X14930000Y71770000D03*
G04 #@! TD*
G04 #@! TO.C,J2*
X86600000Y8270000D03*
D58*
X85834999Y8269999D03*
D57*
X86600000Y10810000D03*
D59*
X85834999Y10819999D03*
D57*
X86600000Y13350000D03*
D58*
X85834999Y13349999D03*
D69*
X86600000Y15890000D03*
D68*
X85835000Y15890000D03*
D69*
X86600000Y18430000D03*
D68*
X85835000Y18430000D03*
D57*
X86600000Y20970000D03*
D58*
X85834999Y20969999D03*
D57*
X86600000Y23510000D03*
D58*
X85834999Y23509999D03*
D57*
X86600000Y26050000D03*
D58*
X85834999Y26049999D03*
D57*
X86600000Y28590000D03*
D58*
X85834999Y28589999D03*
D57*
X86600000Y31130000D03*
D58*
X85834999Y31129999D03*
D57*
X86600000Y33670000D03*
D58*
X85834999Y33669999D03*
D57*
X86600000Y36210000D03*
D58*
X85834999Y36209999D03*
D57*
X86600000Y38750000D03*
D58*
X85834999Y38749999D03*
D62*
X82479999Y39564999D03*
D57*
X82480000Y40330000D03*
D62*
X79939999Y39564999D03*
D63*
X79939999Y40329999D03*
D62*
X77399999Y39564999D03*
D63*
X77399999Y40329999D03*
D62*
X74859999Y39564999D03*
D63*
X74859999Y40329999D03*
D62*
X72319999Y39564999D03*
D63*
X72319999Y40329999D03*
D58*
X68964999Y38749999D03*
D57*
X68200000Y38750000D03*
D59*
X68964999Y36219999D03*
D57*
X68200000Y36210000D03*
D64*
X68964999Y33674999D03*
D57*
X68200000Y33670000D03*
D58*
X68964999Y31129999D03*
D57*
X68200000Y31130000D03*
D58*
X68964999Y28589999D03*
D57*
X68200000Y28590000D03*
D58*
X68964999Y26049999D03*
D57*
X68200000Y26050000D03*
D58*
X68964999Y23509999D03*
D57*
X68200000Y23510000D03*
D64*
X68964999Y20974999D03*
D57*
X68200000Y20970000D03*
D70*
X69780000Y18430000D03*
D71*
X68750245Y18430000D03*
D67*
X69079999Y15889999D03*
D57*
X68200000Y15890000D03*
D61*
X68965000Y13350000D03*
D60*
X68200000Y13350000D03*
D70*
X69780000Y10810000D03*
D71*
X68750245Y10810000D03*
D64*
X68964999Y8274999D03*
D57*
X68200000Y8270000D03*
X82475000Y36210000D03*
X76130000Y15890000D03*
X78670000Y15890000D03*
G04 #@! TD*
G04 #@! TO.C,J2*
X25400000Y8270000D03*
D58*
X24634999Y8269999D03*
D57*
X25400000Y10810000D03*
D59*
X24634999Y10819999D03*
D57*
X25400000Y13350000D03*
D58*
X24634999Y13349999D03*
D69*
X25400000Y15890000D03*
D68*
X24635000Y15890000D03*
D69*
X25400000Y18430000D03*
D68*
X24635000Y18430000D03*
D57*
X25400000Y20970000D03*
D58*
X24634999Y20969999D03*
D57*
X25400000Y23510000D03*
D58*
X24634999Y23509999D03*
D57*
X25400000Y26050000D03*
D58*
X24634999Y26049999D03*
D57*
X25400000Y28590000D03*
D58*
X24634999Y28589999D03*
D57*
X25400000Y31130000D03*
D58*
X24634999Y31129999D03*
D57*
X25400000Y33670000D03*
D58*
X24634999Y33669999D03*
D57*
X25400000Y36210000D03*
D58*
X24634999Y36209999D03*
D57*
X25400000Y38750000D03*
D58*
X24634999Y38749999D03*
D62*
X21279999Y39564999D03*
D57*
X21280000Y40330000D03*
D62*
X18739999Y39564999D03*
D63*
X18739999Y40329999D03*
D62*
X16199999Y39564999D03*
D63*
X16199999Y40329999D03*
D62*
X13659999Y39564999D03*
D63*
X13659999Y40329999D03*
D62*
X11119999Y39564999D03*
D63*
X11119999Y40329999D03*
D58*
X7764999Y38749999D03*
D57*
X7000000Y38750000D03*
D59*
X7764999Y36219999D03*
D57*
X7000000Y36210000D03*
D64*
X7764999Y33674999D03*
D57*
X7000000Y33670000D03*
D58*
X7764999Y31129999D03*
D57*
X7000000Y31130000D03*
D58*
X7764999Y28589999D03*
D57*
X7000000Y28590000D03*
D58*
X7764999Y26049999D03*
D57*
X7000000Y26050000D03*
D58*
X7764999Y23509999D03*
D57*
X7000000Y23510000D03*
D64*
X7764999Y20974999D03*
D57*
X7000000Y20970000D03*
D70*
X8580000Y18430000D03*
D71*
X7550245Y18430000D03*
D67*
X7879999Y15889999D03*
D57*
X7000000Y15890000D03*
D61*
X7765000Y13350000D03*
D60*
X7000000Y13350000D03*
D70*
X8580000Y10810000D03*
D71*
X7550245Y10810000D03*
D64*
X7764999Y8274999D03*
D57*
X7000000Y8270000D03*
X21275000Y36210000D03*
X14930000Y15890000D03*
X17470000Y15890000D03*
G04 #@! TD*
G04 #@! TO.C,J2*
X47800000Y79390000D03*
D58*
X48564999Y79389999D03*
D57*
X47800000Y76850000D03*
D59*
X48564999Y76839999D03*
D57*
X47800000Y74310000D03*
D58*
X48564999Y74309999D03*
D60*
X47800000Y71770000D03*
D61*
X48565000Y71770000D03*
D60*
X47800000Y69230000D03*
D61*
X48565000Y69230000D03*
D57*
X47800000Y66690000D03*
D58*
X48564999Y66689999D03*
D57*
X47800000Y64150000D03*
D58*
X48564999Y64149999D03*
D57*
X47800000Y61610000D03*
D58*
X48564999Y61609999D03*
D57*
X47800000Y59070000D03*
D58*
X48564999Y59069999D03*
D57*
X47800000Y56530000D03*
D58*
X48564999Y56529999D03*
D57*
X47800000Y53990000D03*
D58*
X48564999Y53989999D03*
D57*
X47800000Y51450000D03*
D58*
X48564999Y51449999D03*
D57*
X47800000Y48910000D03*
D58*
X48564999Y48909999D03*
D62*
X51919999Y48094999D03*
D57*
X51920000Y47330000D03*
D62*
X54459999Y48094999D03*
D63*
X54459999Y47329999D03*
D62*
X56999999Y48094999D03*
D63*
X56999999Y47329999D03*
D62*
X59539999Y48094999D03*
D63*
X59539999Y47329999D03*
D62*
X62079999Y48094999D03*
D63*
X62079999Y47329999D03*
D58*
X65434999Y48909999D03*
D57*
X66200000Y48910000D03*
D59*
X65434999Y51439999D03*
D57*
X66200000Y51450000D03*
D64*
X65434999Y53984999D03*
D57*
X66200000Y53990000D03*
D58*
X65434999Y56529999D03*
D57*
X66200000Y56530000D03*
D58*
X65434999Y59069999D03*
D57*
X66200000Y59070000D03*
D58*
X65434999Y61609999D03*
D57*
X66200000Y61610000D03*
D58*
X65434999Y64149999D03*
D57*
X66200000Y64150000D03*
D64*
X65434999Y66684999D03*
D57*
X66200000Y66690000D03*
D65*
X64620000Y69230000D03*
D66*
X65649755Y69230000D03*
D67*
X65319999Y71769999D03*
D57*
X66200000Y71770000D03*
D68*
X65435000Y74310000D03*
D69*
X66200000Y74310000D03*
D65*
X64620000Y76850000D03*
D66*
X65649755Y76850000D03*
D64*
X65434999Y79384999D03*
D57*
X66200000Y79390000D03*
X51925000Y51450000D03*
X58270000Y71770000D03*
X55730000Y71770000D03*
G04 #@! TD*
D11*
G04 #@! TO.C,REF\u002A\u002A*
X107000000Y83910000D03*
G04 #@! TD*
G04 #@! TO.C,REF\u002A\u002A*
X85675000Y47333138D03*
G04 #@! TD*
G04 #@! TO.C,REF\u002A\u002A*
X49401637Y47330001D03*
G04 #@! TD*
G04 #@! TO.C,REF\u002A\u002A*
X91465000Y7000000D03*
G04 #@! TD*
G04 #@! TO.C,REF\u002A\u002A*
X112125000Y80660000D03*
G04 #@! TD*
G04 #@! TO.C,REF\u002A\u002A*
X8591623Y40330000D03*
G04 #@! TD*
G04 #@! TO.C,REF\u002A\u002A*
X107000000Y85785000D03*
G04 #@! TD*
G04 #@! TO.C,REF\u002A\u002A*
X91535000Y47330001D03*
G04 #@! TD*
G04 #@! TO.C,REF\u002A\u002A*
X50075000Y80660000D03*
G04 #@! TD*
G04 #@! TO.C,REF\u002A\u002A*
X24465000Y40327633D03*
G04 #@! TD*
D72*
G04 #@! TO.C,J1*
X80599999Y74119999D03*
X79799999Y74119999D03*
D73*
X78649999Y74119999D03*
X77649999Y74119999D03*
X77149999Y74119999D03*
X76149999Y74119999D03*
D72*
X74999999Y74119999D03*
X74199999Y74119999D03*
X74199999Y74119999D03*
X74999999Y74119999D03*
D73*
X75649999Y74119999D03*
X76649999Y74119999D03*
X78149999Y74119999D03*
X79149999Y74119999D03*
D72*
X79799999Y74119999D03*
X80599999Y74119999D03*
D74*
X82974999Y75419999D03*
X71824999Y75419999D03*
D75*
X71824999Y79419999D03*
X82974999Y79419999D03*
G04 #@! TD*
D72*
G04 #@! TO.C,J1*
X33399999Y13539999D03*
X34199999Y13539999D03*
D73*
X35349999Y13539999D03*
X36349999Y13539999D03*
X36849999Y13539999D03*
X37849999Y13539999D03*
D72*
X38999999Y13539999D03*
X39799999Y13539999D03*
X39799999Y13539999D03*
X38999999Y13539999D03*
D73*
X38349999Y13539999D03*
X37349999Y13539999D03*
X35849999Y13539999D03*
X34849999Y13539999D03*
D72*
X34199999Y13539999D03*
X33399999Y13539999D03*
D74*
X31024999Y12239999D03*
X42174999Y12239999D03*
D75*
X42174999Y8239999D03*
X31024999Y8239999D03*
G04 #@! TD*
D72*
G04 #@! TO.C,J1*
X39799999Y74119999D03*
X38999999Y74119999D03*
D73*
X37849999Y74119999D03*
X36849999Y74119999D03*
X36349999Y74119999D03*
X35349999Y74119999D03*
D72*
X34199999Y74119999D03*
X33399999Y74119999D03*
X33399999Y74119999D03*
X34199999Y74119999D03*
D73*
X34849999Y74119999D03*
X35849999Y74119999D03*
X37349999Y74119999D03*
X38349999Y74119999D03*
D72*
X38999999Y74119999D03*
X39799999Y74119999D03*
D74*
X42174999Y75419999D03*
X31024999Y75419999D03*
D75*
X31024999Y79419999D03*
X42174999Y79419999D03*
G04 #@! TD*
D72*
G04 #@! TO.C,J1*
X12999999Y13539999D03*
X13799999Y13539999D03*
D73*
X14949999Y13539999D03*
X15949999Y13539999D03*
X16449999Y13539999D03*
X17449999Y13539999D03*
D72*
X18599999Y13539999D03*
X19399999Y13539999D03*
X19399999Y13539999D03*
X18599999Y13539999D03*
D73*
X17949999Y13539999D03*
X16949999Y13539999D03*
X15449999Y13539999D03*
X14449999Y13539999D03*
D72*
X13799999Y13539999D03*
X12999999Y13539999D03*
D74*
X10624999Y12239999D03*
X21774999Y12239999D03*
D75*
X21774999Y8239999D03*
X10624999Y8239999D03*
G04 #@! TD*
D72*
G04 #@! TO.C,J1*
X60199999Y74119999D03*
X59399999Y74119999D03*
D73*
X58249999Y74119999D03*
X57249999Y74119999D03*
X56749999Y74119999D03*
X55749999Y74119999D03*
D72*
X54599999Y74119999D03*
X53799999Y74119999D03*
X53799999Y74119999D03*
X54599999Y74119999D03*
D73*
X55249999Y74119999D03*
X56249999Y74119999D03*
X57749999Y74119999D03*
X58749999Y74119999D03*
D72*
X59399999Y74119999D03*
X60199999Y74119999D03*
D74*
X62574999Y75419999D03*
X51424999Y75419999D03*
D75*
X51424999Y79419999D03*
X62574999Y79419999D03*
G04 #@! TD*
D72*
G04 #@! TO.C,J1*
X53799999Y13539999D03*
X54599999Y13539999D03*
D73*
X55749999Y13539999D03*
X56749999Y13539999D03*
X57249999Y13539999D03*
X58249999Y13539999D03*
D72*
X59399999Y13539999D03*
X60199999Y13539999D03*
X60199999Y13539999D03*
X59399999Y13539999D03*
D73*
X58749999Y13539999D03*
X57749999Y13539999D03*
X56249999Y13539999D03*
X55249999Y13539999D03*
D72*
X54599999Y13539999D03*
X53799999Y13539999D03*
D74*
X51424999Y12239999D03*
X62574999Y12239999D03*
D75*
X62574999Y8239999D03*
X51424999Y8239999D03*
G04 #@! TD*
D72*
G04 #@! TO.C,J1*
X94599999Y13539999D03*
X95399999Y13539999D03*
D73*
X96549999Y13539999D03*
X97549999Y13539999D03*
X98049999Y13539999D03*
X99049999Y13539999D03*
D72*
X100199999Y13539999D03*
X100999999Y13539999D03*
X100999999Y13539999D03*
X100199999Y13539999D03*
D73*
X99549999Y13539999D03*
X98549999Y13539999D03*
X97049999Y13539999D03*
X96049999Y13539999D03*
D72*
X95399999Y13539999D03*
X94599999Y13539999D03*
D74*
X92224999Y12239999D03*
X103374999Y12239999D03*
D75*
X103374999Y8239999D03*
X92224999Y8239999D03*
G04 #@! TD*
D72*
G04 #@! TO.C,J1*
X19399999Y74119999D03*
X18599999Y74119999D03*
D73*
X17449999Y74119999D03*
X16449999Y74119999D03*
X15949999Y74119999D03*
X14949999Y74119999D03*
D72*
X13799999Y74119999D03*
X12999999Y74119999D03*
X12999999Y74119999D03*
X13799999Y74119999D03*
D73*
X14449999Y74119999D03*
X15449999Y74119999D03*
X16949999Y74119999D03*
X17949999Y74119999D03*
D72*
X18599999Y74119999D03*
X19399999Y74119999D03*
D74*
X21774999Y75419999D03*
X10624999Y75419999D03*
D75*
X10624999Y79419999D03*
X21774999Y79419999D03*
G04 #@! TD*
D72*
G04 #@! TO.C,J1*
X74199999Y13539999D03*
X74999999Y13539999D03*
D73*
X76149999Y13539999D03*
X77149999Y13539999D03*
X77649999Y13539999D03*
X78649999Y13539999D03*
D72*
X79799999Y13539999D03*
X80599999Y13539999D03*
X80599999Y13539999D03*
X79799999Y13539999D03*
D73*
X79149999Y13539999D03*
X78149999Y13539999D03*
X76649999Y13539999D03*
X75649999Y13539999D03*
D72*
X74999999Y13539999D03*
X74199999Y13539999D03*
D74*
X71824999Y12239999D03*
X82974999Y12239999D03*
D75*
X82974999Y8239999D03*
X71824999Y8239999D03*
G04 #@! TD*
D72*
G04 #@! TO.C,J1*
X100999999Y74119999D03*
X100199999Y74119999D03*
D73*
X99049999Y74119999D03*
X98049999Y74119999D03*
X97549999Y74119999D03*
X96549999Y74119999D03*
D72*
X95399999Y74119999D03*
X94599999Y74119999D03*
X94599999Y74119999D03*
X95399999Y74119999D03*
D73*
X96049999Y74119999D03*
X97049999Y74119999D03*
X98549999Y74119999D03*
X99549999Y74119999D03*
D72*
X100199999Y74119999D03*
X100999999Y74119999D03*
D74*
X103374999Y75419999D03*
X92224999Y75419999D03*
D75*
X92224999Y79419999D03*
X103374999Y79419999D03*
G04 #@! TD*
D11*
G04 #@! TO.C,REF\u002A\u002A*
X84325000Y7000000D03*
G04 #@! TD*
D36*
G04 #@! TO.C,C11*
X77715000Y53540000D03*
X77715000Y52580000D03*
G04 #@! TD*
G04 #@! TO.C,C11*
X98115000Y53540000D03*
X98115000Y52580000D03*
G04 #@! TD*
G04 #@! TO.C,C11*
X16515000Y53540000D03*
X16515000Y52580000D03*
G04 #@! TD*
G04 #@! TO.C,C11*
X36915000Y53540000D03*
X36915000Y52580000D03*
G04 #@! TD*
G04 #@! TO.C,C11*
X57315000Y53540000D03*
X57315000Y52580000D03*
G04 #@! TD*
D37*
G04 #@! TO.C,C11*
X56685000Y34120000D03*
X56685000Y35080000D03*
G04 #@! TD*
G04 #@! TO.C,C11*
X77085000Y34120000D03*
X77085000Y35080000D03*
G04 #@! TD*
G04 #@! TO.C,C11*
X15885000Y34120000D03*
X15885000Y35080000D03*
G04 #@! TD*
G04 #@! TO.C,C11*
X36285000Y34120000D03*
X36285000Y35080000D03*
G04 #@! TD*
G04 #@! TO.C,C11*
X97485000Y34120000D03*
X97485000Y35080000D03*
G04 #@! TD*
D11*
G04 #@! TO.C,REF\u002A\u002A*
X26400000Y45330000D03*
G04 #@! TD*
G04 #@! TO.C,REF\u002A\u002A*
X7000000Y44730000D03*
G04 #@! TD*
G04 #@! TO.C,REF\u002A\u002A*
X7000000Y43530000D03*
G04 #@! TD*
G04 #@! TO.C,REF\u002A\u002A*
X104125000Y7000000D03*
G04 #@! TD*
D19*
G04 #@! TO.C,C13*
X32145000Y27210000D03*
X31185000Y27210000D03*
G04 #@! TD*
G04 #@! TO.C,C13*
X52545000Y27210000D03*
X51585000Y27210000D03*
G04 #@! TD*
G04 #@! TO.C,C13*
X72945000Y27210000D03*
X71985000Y27210000D03*
G04 #@! TD*
G04 #@! TO.C,C13*
X93345000Y27210000D03*
X92385000Y27210000D03*
G04 #@! TD*
D20*
G04 #@! TO.C,C13*
X20655000Y60450000D03*
X21615000Y60450000D03*
G04 #@! TD*
G04 #@! TO.C,C13*
X41055000Y60450000D03*
X42015000Y60450000D03*
G04 #@! TD*
G04 #@! TO.C,C13*
X61455000Y60450000D03*
X62415000Y60450000D03*
G04 #@! TD*
G04 #@! TO.C,C13*
X81855000Y60450000D03*
X82815000Y60450000D03*
G04 #@! TD*
G04 #@! TO.C,C13*
X102255000Y60450000D03*
X103215000Y60450000D03*
G04 #@! TD*
D19*
G04 #@! TO.C,C13*
X11745000Y27210000D03*
X10785000Y27210000D03*
G04 #@! TD*
D11*
G04 #@! TO.C,REF\u002A\u002A*
X41735000Y80660000D03*
G04 #@! TD*
G04 #@! TO.C,REF\u002A\u002A*
X29001637Y47330001D03*
G04 #@! TD*
D76*
G04 #@! TO.C,F1*
X19467500Y71240000D03*
X21042500Y71240000D03*
G04 #@! TD*
G04 #@! TO.C,F1*
X39867500Y71240000D03*
X41442500Y71240000D03*
G04 #@! TD*
D77*
G04 #@! TO.C,F1*
X94532500Y16420000D03*
X92957500Y16420000D03*
G04 #@! TD*
G04 #@! TO.C,F1*
X12932500Y16420000D03*
X11357500Y16420000D03*
G04 #@! TD*
G04 #@! TO.C,F1*
X33332500Y16420000D03*
X31757500Y16420000D03*
G04 #@! TD*
G04 #@! TO.C,F1*
X53732500Y16420000D03*
X52157500Y16420000D03*
G04 #@! TD*
G04 #@! TO.C,F1*
X74132500Y16420000D03*
X72557500Y16420000D03*
G04 #@! TD*
D76*
G04 #@! TO.C,F1*
X60267500Y71240000D03*
X61842500Y71240000D03*
G04 #@! TD*
G04 #@! TO.C,F1*
X80667500Y71240000D03*
X82242500Y71240000D03*
G04 #@! TD*
G04 #@! TO.C,F1*
X101067500Y71240000D03*
X102642500Y71240000D03*
G04 #@! TD*
D18*
G04 #@! TO.C,R11*
X12145000Y66840000D03*
X12145000Y67860000D03*
G04 #@! TD*
G04 #@! TO.C,R11*
X32545000Y66840000D03*
X32545000Y67860000D03*
G04 #@! TD*
G04 #@! TO.C,R11*
X52945000Y66840000D03*
X52945000Y67860000D03*
G04 #@! TD*
G04 #@! TO.C,R11*
X73345000Y66840000D03*
X73345000Y67860000D03*
G04 #@! TD*
G04 #@! TO.C,R11*
X93745000Y66840000D03*
X93745000Y67860000D03*
G04 #@! TD*
D17*
G04 #@! TO.C,R11*
X20255000Y20820000D03*
X20255000Y19800000D03*
G04 #@! TD*
G04 #@! TO.C,R11*
X40655000Y20820000D03*
X40655000Y19800000D03*
G04 #@! TD*
G04 #@! TO.C,R11*
X61055000Y20820000D03*
X61055000Y19800000D03*
G04 #@! TD*
G04 #@! TO.C,R11*
X81455000Y20820000D03*
X81455000Y19800000D03*
G04 #@! TD*
G04 #@! TO.C,R11*
X101855000Y20820000D03*
X101855000Y19800000D03*
G04 #@! TD*
D11*
G04 #@! TO.C,REF\u002A\u002A*
X42865000Y40330000D03*
G04 #@! TD*
D19*
G04 #@! TO.C,C6*
X52865000Y19800000D03*
X51905000Y19800000D03*
G04 #@! TD*
G04 #@! TO.C,C6*
X73265000Y19800000D03*
X72305000Y19800000D03*
G04 #@! TD*
G04 #@! TO.C,C6*
X93665000Y19800000D03*
X92705000Y19800000D03*
G04 #@! TD*
D20*
G04 #@! TO.C,C6*
X81535000Y67860000D03*
X82495000Y67860000D03*
G04 #@! TD*
G04 #@! TO.C,C6*
X101935000Y67860000D03*
X102895000Y67860000D03*
G04 #@! TD*
D19*
G04 #@! TO.C,C6*
X12065000Y19800000D03*
X11105000Y19800000D03*
G04 #@! TD*
G04 #@! TO.C,C6*
X32465000Y19800000D03*
X31505000Y19800000D03*
G04 #@! TD*
D20*
G04 #@! TO.C,C6*
X20335000Y67860000D03*
X21295000Y67860000D03*
G04 #@! TD*
G04 #@! TO.C,C6*
X40735000Y67860000D03*
X41695000Y67860000D03*
G04 #@! TD*
G04 #@! TO.C,C6*
X61135000Y67860000D03*
X62095000Y67860000D03*
G04 #@! TD*
D11*
G04 #@! TO.C,REF\u002A\u002A*
X112750000Y80660000D03*
G04 #@! TD*
D16*
G04 #@! TO.C,R8*
X12175000Y74120000D03*
X11155000Y74120000D03*
G04 #@! TD*
G04 #@! TO.C,R8*
X32575000Y74120000D03*
X31555000Y74120000D03*
G04 #@! TD*
G04 #@! TO.C,R8*
X52975000Y74120000D03*
X51955000Y74120000D03*
G04 #@! TD*
G04 #@! TO.C,R8*
X73375000Y74120000D03*
X72355000Y74120000D03*
G04 #@! TD*
D15*
G04 #@! TO.C,R8*
X101825000Y13540000D03*
X102845000Y13540000D03*
G04 #@! TD*
D16*
G04 #@! TO.C,R8*
X93775000Y74120000D03*
X92755000Y74120000D03*
G04 #@! TD*
D15*
G04 #@! TO.C,R8*
X20225000Y13540000D03*
X21245000Y13540000D03*
G04 #@! TD*
G04 #@! TO.C,R8*
X40625000Y13540000D03*
X41645000Y13540000D03*
G04 #@! TD*
G04 #@! TO.C,R8*
X61025000Y13540000D03*
X62045000Y13540000D03*
G04 #@! TD*
G04 #@! TO.C,R8*
X81425000Y13540000D03*
X82445000Y13540000D03*
G04 #@! TD*
D11*
G04 #@! TO.C,REF\u002A\u002A*
X110250000Y7000000D03*
G04 #@! TD*
G04 #@! TO.C,REF\u002A\u002A*
X70468318Y47330001D03*
G04 #@! TD*
G04 #@! TO.C,REF\u002A\u002A*
X7000000Y42930000D03*
G04 #@! TD*
G04 #@! TO.C,REF\u002A\u002A*
X84935000Y80660000D03*
G04 #@! TD*
G04 #@! TO.C,REF\u002A\u002A*
X1250000Y80660000D03*
G04 #@! TD*
G04 #@! TO.C,REF\u002A\u002A*
X90858311Y40330000D03*
G04 #@! TD*
G04 #@! TO.C,REF\u002A\u002A*
X22535000Y80660000D03*
G04 #@! TD*
G04 #@! TO.C,REF\u002A\u002A*
X69265000Y7000000D03*
G04 #@! TD*
G04 #@! TO.C,REF\u002A\u002A*
X43531681Y40330000D03*
G04 #@! TD*
G04 #@! TO.C,REF\u002A\u002A*
X11065000Y7000000D03*
G04 #@! TD*
G04 #@! TO.C,REF\u002A\u002A*
X65125000Y7000000D03*
G04 #@! TD*
D18*
G04 #@! TO.C,R6*
X21780000Y16975000D03*
X21780000Y17995000D03*
G04 #@! TD*
G04 #@! TO.C,R6*
X42180000Y16975000D03*
X42180000Y17995000D03*
G04 #@! TD*
G04 #@! TO.C,R6*
X62580000Y16975000D03*
X62580000Y17995000D03*
G04 #@! TD*
G04 #@! TO.C,R6*
X82980000Y16975000D03*
X82980000Y17995000D03*
G04 #@! TD*
G04 #@! TO.C,R6*
X103380000Y16975000D03*
X103380000Y17995000D03*
G04 #@! TD*
D17*
G04 #@! TO.C,R6*
X10620000Y70685000D03*
X10620000Y69665000D03*
G04 #@! TD*
G04 #@! TO.C,R6*
X31020000Y70685000D03*
X31020000Y69665000D03*
G04 #@! TD*
G04 #@! TO.C,R6*
X51420000Y70685000D03*
X51420000Y69665000D03*
G04 #@! TD*
G04 #@! TO.C,R6*
X71820000Y70685000D03*
X71820000Y69665000D03*
G04 #@! TD*
G04 #@! TO.C,R6*
X92220000Y70685000D03*
X92220000Y69665000D03*
G04 #@! TD*
D11*
G04 #@! TO.C,REF\u002A\u002A*
X63935000Y80660000D03*
G04 #@! TD*
G04 #@! TO.C,REF\u002A\u002A*
X46800000Y43530000D03*
G04 #@! TD*
G04 #@! TO.C,REF\u002A\u002A*
X23735000Y80660000D03*
G04 #@! TD*
G04 #@! TO.C,REF\u002A\u002A*
X63931681Y40330000D03*
G04 #@! TD*
D37*
G04 #@! TO.C,C4*
X11165000Y17800000D03*
X11165000Y18760000D03*
G04 #@! TD*
G04 #@! TO.C,C4*
X31565000Y17800000D03*
X31565000Y18760000D03*
G04 #@! TD*
G04 #@! TO.C,C4*
X51965000Y17800000D03*
X51965000Y18760000D03*
G04 #@! TD*
G04 #@! TO.C,C4*
X72365000Y17800000D03*
X72365000Y18760000D03*
G04 #@! TD*
G04 #@! TO.C,C4*
X92765000Y17800000D03*
X92765000Y18760000D03*
G04 #@! TD*
D36*
G04 #@! TO.C,C4*
X21235000Y69860000D03*
X21235000Y68900000D03*
G04 #@! TD*
G04 #@! TO.C,C4*
X41635000Y69860000D03*
X41635000Y68900000D03*
G04 #@! TD*
G04 #@! TO.C,C4*
X62035000Y69860000D03*
X62035000Y68900000D03*
G04 #@! TD*
G04 #@! TO.C,C4*
X82435000Y69860000D03*
X82435000Y68900000D03*
G04 #@! TD*
G04 #@! TO.C,C4*
X102835000Y69860000D03*
X102835000Y68900000D03*
G04 #@! TD*
D11*
G04 #@! TO.C,REF\u002A\u002A*
X107000000Y2500000D03*
G04 #@! TD*
G04 #@! TO.C,REF\u002A\u002A*
X3125000Y80660000D03*
G04 #@! TD*
G04 #@! TO.C,REF\u002A\u002A*
X7000000Y85785000D03*
G04 #@! TD*
D18*
G04 #@! TO.C,R4*
X11645000Y69665000D03*
X11645000Y70685000D03*
G04 #@! TD*
G04 #@! TO.C,R4*
X32045000Y69665000D03*
X32045000Y70685000D03*
G04 #@! TD*
G04 #@! TO.C,R4*
X52445000Y69665000D03*
X52445000Y70685000D03*
G04 #@! TD*
G04 #@! TO.C,R4*
X72845000Y69665000D03*
X72845000Y70685000D03*
G04 #@! TD*
G04 #@! TO.C,R4*
X93245000Y69665000D03*
X93245000Y70685000D03*
G04 #@! TD*
D17*
G04 #@! TO.C,R4*
X20755000Y17995000D03*
X20755000Y16975000D03*
G04 #@! TD*
G04 #@! TO.C,R4*
X41155000Y17995000D03*
X41155000Y16975000D03*
G04 #@! TD*
G04 #@! TO.C,R4*
X61555000Y17995000D03*
X61555000Y16975000D03*
G04 #@! TD*
G04 #@! TO.C,R4*
X81955000Y17995000D03*
X81955000Y16975000D03*
G04 #@! TD*
G04 #@! TO.C,R4*
X102355000Y17995000D03*
X102355000Y16975000D03*
G04 #@! TD*
D11*
G04 #@! TO.C,REF\u002A\u002A*
X7000000Y1250000D03*
G04 #@! TD*
G04 #@! TO.C,REF\u002A\u002A*
X71125000Y40330000D03*
G04 #@! TD*
G04 #@! TO.C,REF\u002A\u002A*
X89525000Y40326863D03*
G04 #@! TD*
G04 #@! TO.C,REF\u002A\u002A*
X44725000Y7000000D03*
G04 #@! TD*
G04 #@! TO.C,REF\u002A\u002A*
X107000000Y82660000D03*
G04 #@! TD*
D37*
G04 #@! TO.C,C14*
X37045000Y62160000D03*
X37045000Y63120000D03*
G04 #@! TD*
G04 #@! TO.C,C14*
X57445000Y62160000D03*
X57445000Y63120000D03*
G04 #@! TD*
G04 #@! TO.C,C14*
X77845000Y62160000D03*
X77845000Y63120000D03*
G04 #@! TD*
G04 #@! TO.C,C14*
X98245000Y62160000D03*
X98245000Y63120000D03*
G04 #@! TD*
D36*
G04 #@! TO.C,C14*
X15755000Y25500000D03*
X15755000Y24540000D03*
G04 #@! TD*
G04 #@! TO.C,C14*
X36155000Y25500000D03*
X36155000Y24540000D03*
G04 #@! TD*
G04 #@! TO.C,C14*
X56555000Y25500000D03*
X56555000Y24540000D03*
G04 #@! TD*
G04 #@! TO.C,C14*
X76955000Y25500000D03*
X76955000Y24540000D03*
G04 #@! TD*
G04 #@! TO.C,C14*
X97355000Y25500000D03*
X97355000Y24540000D03*
G04 #@! TD*
D37*
G04 #@! TO.C,C14*
X16645000Y62160000D03*
X16645000Y63120000D03*
G04 #@! TD*
D18*
G04 #@! TO.C,FB1*
X21765000Y76810000D03*
X21765000Y77830000D03*
G04 #@! TD*
G04 #@! TO.C,FB1*
X42165000Y76810000D03*
X42165000Y77830000D03*
G04 #@! TD*
G04 #@! TO.C,FB1*
X62565000Y76810000D03*
X62565000Y77830000D03*
G04 #@! TD*
G04 #@! TO.C,FB1*
X82965000Y76810000D03*
X82965000Y77830000D03*
G04 #@! TD*
G04 #@! TO.C,FB1*
X103365000Y76810000D03*
X103365000Y77830000D03*
G04 #@! TD*
D17*
G04 #@! TO.C,FB1*
X10635000Y10850000D03*
X10635000Y9830000D03*
G04 #@! TD*
G04 #@! TO.C,FB1*
X31035000Y10850000D03*
X31035000Y9830000D03*
G04 #@! TD*
G04 #@! TO.C,FB1*
X51435000Y10850000D03*
X51435000Y9830000D03*
G04 #@! TD*
G04 #@! TO.C,FB1*
X71835000Y10850000D03*
X71835000Y9830000D03*
G04 #@! TD*
G04 #@! TO.C,FB1*
X92235000Y10850000D03*
X92235000Y9830000D03*
G04 #@! TD*
D11*
G04 #@! TO.C,REF\u002A\u002A*
X46800000Y44130000D03*
G04 #@! TD*
G04 #@! TO.C,REF\u002A\u002A*
X90865000Y7000000D03*
G04 #@! TD*
G04 #@! TO.C,REF\u002A\u002A*
X49475000Y80660000D03*
G04 #@! TD*
G04 #@! TO.C,REF\u002A\u002A*
X43535000Y80660000D03*
G04 #@! TD*
M02*
