G04 #@! TF.GenerationSoftware,KiCad,Pcbnew,7.0.0-da2b9df05c~165~ubuntu22.04.1*
G04 #@! TF.CreationDate,2023-10-10T20:55:34+00:00*
G04 #@! TF.ProjectId,helios-panel,68656c69-6f73-42d7-9061-6e656c2e6b69,rev1.0*
G04 #@! TF.SameCoordinates,Original*
G04 #@! TF.FileFunction,Legend,Top*
G04 #@! TF.FilePolarity,Positive*
%FSLAX46Y46*%
G04 Gerber Fmt 4.6, Leading zero omitted, Abs format (unit mm)*
G04 Created by KiCad (PCBNEW 7.0.0-da2b9df05c~165~ubuntu22.04.1) date 2023-10-10 20:55:34*
%MOMM*%
%LPD*%
G01*
G04 APERTURE LIST*
%ADD10C,0.300000*%
G04 APERTURE END LIST*
D10*
X46707143Y86108929D02*
X46850000Y86108929D01*
X46850000Y86108929D02*
X46992857Y86037500D01*
X46992857Y86037500D02*
X47064286Y85966072D01*
X47064286Y85966072D02*
X47135714Y85823215D01*
X47135714Y85823215D02*
X47207143Y85537500D01*
X47207143Y85537500D02*
X47207143Y85180358D01*
X47207143Y85180358D02*
X47135714Y84894643D01*
X47135714Y84894643D02*
X47064286Y84751786D01*
X47064286Y84751786D02*
X46992857Y84680358D01*
X46992857Y84680358D02*
X46850000Y84608929D01*
X46850000Y84608929D02*
X46707143Y84608929D01*
X46707143Y84608929D02*
X46564286Y84680358D01*
X46564286Y84680358D02*
X46492857Y84751786D01*
X46492857Y84751786D02*
X46421428Y84894643D01*
X46421428Y84894643D02*
X46350000Y85180358D01*
X46350000Y85180358D02*
X46350000Y85537500D01*
X46350000Y85537500D02*
X46421428Y85823215D01*
X46421428Y85823215D02*
X46492857Y85966072D01*
X46492857Y85966072D02*
X46564286Y86037500D01*
X46564286Y86037500D02*
X46707143Y86108929D01*
X47707142Y84608929D02*
X48492857Y85608929D01*
X47707142Y85608929D02*
X48492857Y84608929D01*
X49921428Y84751786D02*
X49850000Y84680358D01*
X49850000Y84680358D02*
X49635714Y84608929D01*
X49635714Y84608929D02*
X49492857Y84608929D01*
X49492857Y84608929D02*
X49278571Y84680358D01*
X49278571Y84680358D02*
X49135714Y84823215D01*
X49135714Y84823215D02*
X49064285Y84966072D01*
X49064285Y84966072D02*
X48992857Y85251786D01*
X48992857Y85251786D02*
X48992857Y85466072D01*
X48992857Y85466072D02*
X49064285Y85751786D01*
X49064285Y85751786D02*
X49135714Y85894643D01*
X49135714Y85894643D02*
X49278571Y86037500D01*
X49278571Y86037500D02*
X49492857Y86108929D01*
X49492857Y86108929D02*
X49635714Y86108929D01*
X49635714Y86108929D02*
X49850000Y86037500D01*
X49850000Y86037500D02*
X49921428Y85966072D01*
X51064285Y85394643D02*
X51278571Y85323215D01*
X51278571Y85323215D02*
X51350000Y85251786D01*
X51350000Y85251786D02*
X51421428Y85108929D01*
X51421428Y85108929D02*
X51421428Y84894643D01*
X51421428Y84894643D02*
X51350000Y84751786D01*
X51350000Y84751786D02*
X51278571Y84680358D01*
X51278571Y84680358D02*
X51135714Y84608929D01*
X51135714Y84608929D02*
X50564285Y84608929D01*
X50564285Y84608929D02*
X50564285Y86108929D01*
X50564285Y86108929D02*
X51064285Y86108929D01*
X51064285Y86108929D02*
X51207143Y86037500D01*
X51207143Y86037500D02*
X51278571Y85966072D01*
X51278571Y85966072D02*
X51350000Y85823215D01*
X51350000Y85823215D02*
X51350000Y85680358D01*
X51350000Y85680358D02*
X51278571Y85537500D01*
X51278571Y85537500D02*
X51207143Y85466072D01*
X51207143Y85466072D02*
X51064285Y85394643D01*
X51064285Y85394643D02*
X50564285Y85394643D01*
X52964285Y84608929D02*
X52964285Y86108929D01*
X52964285Y85394643D02*
X53821428Y85394643D01*
X53821428Y84608929D02*
X53821428Y86108929D01*
X55107143Y84680358D02*
X54964286Y84608929D01*
X54964286Y84608929D02*
X54678572Y84608929D01*
X54678572Y84608929D02*
X54535714Y84680358D01*
X54535714Y84680358D02*
X54464286Y84823215D01*
X54464286Y84823215D02*
X54464286Y85394643D01*
X54464286Y85394643D02*
X54535714Y85537500D01*
X54535714Y85537500D02*
X54678572Y85608929D01*
X54678572Y85608929D02*
X54964286Y85608929D01*
X54964286Y85608929D02*
X55107143Y85537500D01*
X55107143Y85537500D02*
X55178572Y85394643D01*
X55178572Y85394643D02*
X55178572Y85251786D01*
X55178572Y85251786D02*
X54464286Y85108929D01*
X56035714Y84608929D02*
X55892857Y84680358D01*
X55892857Y84680358D02*
X55821428Y84823215D01*
X55821428Y84823215D02*
X55821428Y86108929D01*
X56607142Y84608929D02*
X56607142Y85608929D01*
X56607142Y86108929D02*
X56535714Y86037500D01*
X56535714Y86037500D02*
X56607142Y85966072D01*
X56607142Y85966072D02*
X56678571Y86037500D01*
X56678571Y86037500D02*
X56607142Y86108929D01*
X56607142Y86108929D02*
X56607142Y85966072D01*
X57535714Y84608929D02*
X57392857Y84680358D01*
X57392857Y84680358D02*
X57321428Y84751786D01*
X57321428Y84751786D02*
X57250000Y84894643D01*
X57250000Y84894643D02*
X57250000Y85323215D01*
X57250000Y85323215D02*
X57321428Y85466072D01*
X57321428Y85466072D02*
X57392857Y85537500D01*
X57392857Y85537500D02*
X57535714Y85608929D01*
X57535714Y85608929D02*
X57750000Y85608929D01*
X57750000Y85608929D02*
X57892857Y85537500D01*
X57892857Y85537500D02*
X57964286Y85466072D01*
X57964286Y85466072D02*
X58035714Y85323215D01*
X58035714Y85323215D02*
X58035714Y84894643D01*
X58035714Y84894643D02*
X57964286Y84751786D01*
X57964286Y84751786D02*
X57892857Y84680358D01*
X57892857Y84680358D02*
X57750000Y84608929D01*
X57750000Y84608929D02*
X57535714Y84608929D01*
X58607143Y84680358D02*
X58750000Y84608929D01*
X58750000Y84608929D02*
X59035714Y84608929D01*
X59035714Y84608929D02*
X59178571Y84680358D01*
X59178571Y84680358D02*
X59250000Y84823215D01*
X59250000Y84823215D02*
X59250000Y84894643D01*
X59250000Y84894643D02*
X59178571Y85037500D01*
X59178571Y85037500D02*
X59035714Y85108929D01*
X59035714Y85108929D02*
X58821429Y85108929D01*
X58821429Y85108929D02*
X58678571Y85180358D01*
X58678571Y85180358D02*
X58607143Y85323215D01*
X58607143Y85323215D02*
X58607143Y85394643D01*
X58607143Y85394643D02*
X58678571Y85537500D01*
X58678571Y85537500D02*
X58821429Y85608929D01*
X58821429Y85608929D02*
X59035714Y85608929D01*
X59035714Y85608929D02*
X59178571Y85537500D01*
X61650000Y84608929D02*
X61150000Y85323215D01*
X60792857Y84608929D02*
X60792857Y86108929D01*
X60792857Y86108929D02*
X61364286Y86108929D01*
X61364286Y86108929D02*
X61507143Y86037500D01*
X61507143Y86037500D02*
X61578572Y85966072D01*
X61578572Y85966072D02*
X61650000Y85823215D01*
X61650000Y85823215D02*
X61650000Y85608929D01*
X61650000Y85608929D02*
X61578572Y85466072D01*
X61578572Y85466072D02*
X61507143Y85394643D01*
X61507143Y85394643D02*
X61364286Y85323215D01*
X61364286Y85323215D02*
X60792857Y85323215D01*
X62864286Y84680358D02*
X62721429Y84608929D01*
X62721429Y84608929D02*
X62435715Y84608929D01*
X62435715Y84608929D02*
X62292857Y84680358D01*
X62292857Y84680358D02*
X62221429Y84823215D01*
X62221429Y84823215D02*
X62221429Y85394643D01*
X62221429Y85394643D02*
X62292857Y85537500D01*
X62292857Y85537500D02*
X62435715Y85608929D01*
X62435715Y85608929D02*
X62721429Y85608929D01*
X62721429Y85608929D02*
X62864286Y85537500D01*
X62864286Y85537500D02*
X62935715Y85394643D01*
X62935715Y85394643D02*
X62935715Y85251786D01*
X62935715Y85251786D02*
X62221429Y85108929D01*
X63435714Y85608929D02*
X63792857Y84608929D01*
X63792857Y84608929D02*
X64150000Y85608929D01*
X65507143Y84608929D02*
X64650000Y84608929D01*
X65078571Y84608929D02*
X65078571Y86108929D01*
X65078571Y86108929D02*
X64935714Y85894643D01*
X64935714Y85894643D02*
X64792857Y85751786D01*
X64792857Y85751786D02*
X64650000Y85680358D01*
X66149999Y84751786D02*
X66221428Y84680358D01*
X66221428Y84680358D02*
X66149999Y84608929D01*
X66149999Y84608929D02*
X66078571Y84680358D01*
X66078571Y84680358D02*
X66149999Y84751786D01*
X66149999Y84751786D02*
X66149999Y84608929D01*
X67150000Y86108929D02*
X67292857Y86108929D01*
X67292857Y86108929D02*
X67435714Y86037500D01*
X67435714Y86037500D02*
X67507143Y85966072D01*
X67507143Y85966072D02*
X67578571Y85823215D01*
X67578571Y85823215D02*
X67650000Y85537500D01*
X67650000Y85537500D02*
X67650000Y85180358D01*
X67650000Y85180358D02*
X67578571Y84894643D01*
X67578571Y84894643D02*
X67507143Y84751786D01*
X67507143Y84751786D02*
X67435714Y84680358D01*
X67435714Y84680358D02*
X67292857Y84608929D01*
X67292857Y84608929D02*
X67150000Y84608929D01*
X67150000Y84608929D02*
X67007143Y84680358D01*
X67007143Y84680358D02*
X66935714Y84751786D01*
X66935714Y84751786D02*
X66864285Y84894643D01*
X66864285Y84894643D02*
X66792857Y85180358D01*
X66792857Y85180358D02*
X66792857Y85537500D01*
X66792857Y85537500D02*
X66864285Y85823215D01*
X66864285Y85823215D02*
X66935714Y85966072D01*
X66935714Y85966072D02*
X67007143Y86037500D01*
X67007143Y86037500D02*
X67150000Y86108929D01*
M02*
