M48
; DRILL file {KiCad (6.0.8)} date Thu Oct 20 22:48:32 2022
; FORMAT={-:-/ absolute / metric / decimal}
; #@! TF.CreationDate,2022-10-20T22:48:32+02:00
; #@! TF.GenerationSoftware,Kicad,Pcbnew,(6.0.8)
; #@! TF.FileFunction,MixedPlating,1,4
FMAT,2
METRIC
; #@! TA.AperFunction,Plated,PTH,ViaDrill
T1C0.200
; #@! TA.AperFunction,Plated,PTH,ViaDrill
T2C0.300
; #@! TA.AperFunction,Plated,PTH,ComponentDrill
T3C0.600
; #@! TA.AperFunction,Plated,PTH,ComponentDrill
T4C1.092
; #@! TA.AperFunction,NonPlated,NPTH,ComponentDrill
T5C2.000
%
G90
G05
T1
X6.485Y66.9
X6.525Y61.81
X6.525Y59.26
X6.535Y46.55
X6.535Y21.26
X6.545Y54.18
X6.545Y16.21
X6.585Y31.39
X6.635Y33.97
X8.205Y18.59
X8.225Y28.98
X8.535Y44.6
X8.675Y34.68
X8.765Y53.15
X8.895Y55.24
X9.215Y73.75
X9.235Y17.05
X9.235Y16.55
X9.305Y9.21
X9.425Y65.17
X9.445Y63.3
X9.705Y66.43
X9.815Y31.26
X9.895Y26.93
X10.085Y33.01
X10.105Y57.42
X10.145Y29.81
X10.155Y62.6
X10.235Y53.505
X10.27Y27.885
X10.275Y30.58
X10.295Y59.66
X10.295Y12.97
X10.365Y69.93
X10.365Y20.13
X10.435Y26.55
X10.445Y18.81
X10.785Y49.36
X10.845Y25.45
X10.975Y63.57
X11.085Y44.66
X11.095Y38.42
X11.105Y35.07
X11.185Y62.58
X11.245Y34.42
X11.275Y61.24
X11.415Y23.2
X11.585Y58.83
X11.595Y24.18
X11.675Y66.78
X11.81Y50.805
X12.115Y27.39
X12.125Y26.76
X12.155Y30.17
X12.165Y29.38
X12.295Y59.14
X12.325Y53.25
X12.385Y53.86
X12.405Y54.5
X12.445Y24.19
X12.485Y56.315
X12.515Y15.87
X12.555Y28.41
X12.685Y51.57
X12.745Y31.51
X12.77Y22.61
X12.77Y21.335
X12.77Y20.06
X12.775Y17.05
X12.775Y16.55
X12.785Y65.105
X12.825Y49.97
X12.835Y64.23
X12.835Y62.98
X12.835Y61.68
X13.085Y56.23
X13.105Y24.21
X13.145Y35.96
X13.165Y51.99
X13.185Y33.98
X13.275Y69.57
X13.615Y38.41
X13.655Y13.29
X13.71Y56.205
X13.735Y33.44
X13.82Y26.56
X14.215Y28.21
X14.22Y28.81
X14.225Y29.41
X14.275Y31.07
X14.31Y56.305
X14.355Y53.63
X14.36Y54.23
X14.365Y54.83
X14.405Y51.98
X14.455Y17.1
X14.475Y65.94
X14.475Y58.84
X14.535Y56.88
X14.555Y26.55
X14.575Y33.44
X14.635Y24.18
X14.635Y13.35
X14.82Y29.41
X14.82Y28.81
X14.82Y28.21
X14.845Y21.91
X14.845Y21.31
X14.845Y20.71
X14.845Y20.11
X14.845Y19.51
X14.935Y63.53
X14.935Y62.93
X14.935Y62.33
X14.935Y61.73
X14.935Y61.13
X14.96Y54.83
X14.96Y54.23
X14.96Y53.63
X15.145Y69.69
X15.145Y58.86
X15.205Y49.6
X15.225Y56.49
X15.245Y26.16
X15.305Y24.2
X15.305Y17.1
X15.325Y65.94
X15.375Y31.06
X15.415Y28.21
X15.42Y28.81
X15.425Y29.41
X15.47Y26.735
X15.505Y51.97
X15.555Y53.63
X15.56Y54.23
X15.565Y54.83
X15.96Y56.48
X16.045Y49.6
X16.07Y26.835
X16.125Y69.75
X16.165Y44.63
X16.505Y13.47
X16.595Y49.06
X16.615Y31.05
X16.635Y47.08
X16.675Y58.83
X16.695Y26.81
X16.945Y21.36
X16.945Y20.06
X16.945Y18.81
X16.955Y33.07
X16.995Y17.935
X17.005Y66.49
X17.005Y65.99
X17.01Y62.98
X17.01Y61.705
X17.01Y60.43
X17.035Y51.53
X17.095Y31.47
X17.225Y54.63
X17.265Y67.17
X17.295Y26.725
X17.335Y58.85
X17.375Y28.54
X17.395Y29.18
X17.455Y29.79
X17.485Y23.9
X17.615Y53.66
X17.625Y52.87
X17.655Y56.28
X17.665Y55.65
X17.97Y32.235
X18.105Y16.26
X18.185Y58.86
X18.195Y24.21
X18.365Y59.84
X18.505Y21.8
X18.535Y48.62
X18.595Y20.46
X18.675Y47.97
X18.685Y44.62
X18.695Y38.38
X18.805Y19.47
X18.935Y57.59
X18.995Y33.68
X19.335Y64.23
X19.345Y56.49
X19.415Y62.91
X19.415Y13.11
X19.485Y70.07
X19.485Y23.38
X19.505Y52.46
X19.51Y55.155
X19.545Y29.535
X19.625Y20.44
X19.635Y53.23
X19.675Y25.62
X19.695Y50.03
X19.885Y56.11
X19.965Y51.78
X20.075Y16.61
X20.335Y19.74
X20.355Y17.87
X20.475Y73.83
X20.545Y66.49
X20.545Y65.99
X20.565Y9.29
X20.885Y27.8
X21.015Y29.89
X21.105Y48.36
X21.245Y38.44
X21.555Y54.06
X21.575Y64.45
X23.145Y49.07
X23.195Y51.65
X23.235Y66.83
X23.235Y28.86
X23.245Y61.78
X23.245Y36.49
X23.255Y23.78
X23.255Y21.23
X23.295Y16.14
X25.265Y66.9
X25.305Y61.81
X25.305Y59.26
X25.315Y46.55
X25.315Y21.26
X25.325Y54.18
X25.325Y16.21
X25.365Y31.39
X25.415Y33.97
X26.985Y18.59
X27.005Y28.98
X27.315Y44.6
X27.455Y34.68
X27.545Y53.15
X27.675Y55.24
X27.995Y73.75
X28.015Y17.05
X28.015Y16.55
X28.085Y9.21
X28.205Y65.17
X28.225Y63.3
X28.485Y66.43
X28.595Y31.26
X28.675Y26.93
X28.865Y33.01
X28.885Y57.42
X28.925Y29.81
X28.935Y62.6
X29.015Y53.505
X29.05Y27.885
X29.055Y30.58
X29.075Y59.66
X29.075Y12.97
X29.145Y69.93
X29.145Y20.13
X29.215Y26.55
X29.225Y18.81
X29.565Y49.36
X29.625Y25.45
X29.755Y63.57
X29.865Y44.66
X29.875Y38.42
X29.885Y35.07
X29.965Y62.58
X30.025Y34.42
X30.055Y61.24
X30.195Y23.2
X30.365Y58.83
X30.375Y24.18
X30.455Y66.78
X30.59Y50.805
X30.895Y27.39
X30.905Y26.76
X30.935Y30.17
X30.945Y29.38
X31.075Y59.14
X31.105Y53.25
X31.165Y53.86
X31.185Y54.5
X31.225Y24.19
X31.265Y56.315
X31.295Y15.87
X31.335Y28.41
X31.465Y51.57
X31.525Y31.51
X31.55Y22.61
X31.55Y21.335
X31.55Y20.06
X31.555Y17.05
X31.555Y16.55
X31.565Y65.105
X31.605Y49.97
X31.615Y64.23
X31.615Y62.98
X31.615Y61.68
X31.865Y56.23
X31.885Y24.21
X31.925Y35.96
X31.945Y51.99
X31.965Y33.98
X32.055Y69.57
X32.395Y38.41
X32.435Y13.29
X32.49Y56.205
X32.515Y33.44
X32.6Y26.56
X32.995Y28.21
X33.0Y28.81
X33.005Y29.41
X33.055Y31.07
X33.09Y56.305
X33.135Y53.63
X33.14Y54.23
X33.145Y54.83
X33.185Y51.98
X33.235Y17.1
X33.255Y65.94
X33.255Y58.84
X33.315Y56.88
X33.335Y26.55
X33.355Y33.44
X33.415Y24.18
X33.415Y13.35
X33.6Y29.41
X33.6Y28.81
X33.6Y28.21
X33.625Y21.91
X33.625Y21.31
X33.625Y20.71
X33.625Y20.11
X33.625Y19.51
X33.715Y63.53
X33.715Y62.93
X33.715Y62.33
X33.715Y61.73
X33.715Y61.13
X33.74Y54.83
X33.74Y54.23
X33.74Y53.63
X33.925Y69.69
X33.925Y58.86
X33.985Y49.6
X34.005Y56.49
X34.025Y26.16
X34.085Y24.2
X34.085Y17.1
X34.105Y65.94
X34.155Y31.06
X34.195Y28.21
X34.2Y28.81
X34.205Y29.41
X34.25Y26.735
X34.285Y51.97
X34.335Y53.63
X34.34Y54.23
X34.345Y54.83
X34.74Y56.48
X34.825Y49.6
X34.85Y26.835
X34.905Y69.75
X34.945Y44.63
X35.285Y13.47
X35.375Y49.06
X35.395Y31.05
X35.415Y47.08
X35.455Y58.83
X35.475Y26.81
X35.725Y21.36
X35.725Y20.06
X35.725Y18.81
X35.735Y33.07
X35.775Y17.935
X35.785Y66.49
X35.785Y65.99
X35.79Y62.98
X35.79Y61.705
X35.79Y60.43
X35.815Y51.53
X35.875Y31.47
X36.005Y54.63
X36.045Y67.17
X36.075Y26.725
X36.115Y58.85
X36.155Y28.54
X36.175Y29.18
X36.235Y29.79
X36.265Y23.9
X36.395Y53.66
X36.405Y52.87
X36.435Y56.28
X36.445Y55.65
X36.75Y32.235
X36.885Y16.26
X36.965Y58.86
X36.975Y24.21
X37.145Y59.84
X37.285Y21.8
X37.315Y48.62
X37.375Y20.46
X37.455Y47.97
X37.465Y44.62
X37.475Y38.38
X37.585Y19.47
X37.715Y57.59
X37.775Y33.68
X38.115Y64.23
X38.125Y56.49
X38.195Y62.91
X38.195Y13.11
X38.265Y70.07
X38.265Y23.38
X38.285Y52.46
X38.29Y55.155
X38.325Y29.535
X38.405Y20.44
X38.415Y53.23
X38.455Y25.62
X38.475Y50.03
X38.665Y56.11
X38.745Y51.78
X38.855Y16.61
X39.115Y19.74
X39.135Y17.87
X39.255Y73.83
X39.325Y66.49
X39.325Y65.99
X39.345Y9.29
X39.665Y27.8
X39.795Y29.89
X39.885Y48.36
X40.025Y38.44
X40.335Y54.06
X40.355Y64.45
X41.925Y49.07
X41.975Y51.65
X42.015Y66.83
X42.015Y28.86
X42.025Y61.78
X42.025Y36.49
X42.035Y23.78
X42.035Y21.23
X42.075Y16.14
X44.045Y66.9
X44.085Y61.81
X44.085Y59.26
X44.095Y46.55
X44.095Y21.26
X44.105Y54.18
X44.105Y16.21
X44.145Y31.39
X44.195Y33.97
X45.765Y18.59
X45.785Y28.98
X46.095Y44.6
X46.235Y34.68
X46.325Y53.15
X46.455Y55.24
X46.775Y73.75
X46.795Y17.05
X46.795Y16.55
X46.865Y9.21
X46.985Y65.17
X47.005Y63.3
X47.265Y66.43
X47.375Y31.26
X47.455Y26.93
X47.645Y33.01
X47.665Y57.42
X47.705Y29.81
X47.715Y62.6
X47.795Y53.505
X47.83Y27.885
X47.835Y30.58
X47.855Y59.66
X47.855Y12.97
X47.925Y69.93
X47.925Y20.13
X47.995Y26.55
X48.005Y18.81
X48.345Y49.36
X48.405Y25.45
X48.535Y63.57
X48.645Y44.66
X48.655Y38.42
X48.665Y35.07
X48.745Y62.58
X48.805Y34.42
X48.835Y61.24
X48.975Y23.2
X49.145Y58.83
X49.155Y24.18
X49.235Y66.78
X49.37Y50.805
X49.675Y27.39
X49.685Y26.76
X49.715Y30.17
X49.725Y29.38
X49.855Y59.14
X49.885Y53.25
X49.945Y53.86
X49.965Y54.5
X50.005Y24.19
X50.045Y56.315
X50.075Y15.87
X50.115Y28.41
X50.245Y51.57
X50.305Y31.51
X50.33Y22.61
X50.33Y21.335
X50.33Y20.06
X50.335Y17.05
X50.335Y16.55
X50.345Y65.105
X50.385Y49.97
X50.395Y64.23
X50.395Y62.98
X50.395Y61.68
X50.645Y56.23
X50.665Y24.21
X50.705Y35.96
X50.725Y51.99
X50.745Y33.98
X50.835Y69.57
X51.175Y38.41
X51.215Y13.29
X51.27Y56.205
X51.295Y33.44
X51.38Y26.56
X51.775Y28.21
X51.78Y28.81
X51.785Y29.41
X51.835Y31.07
X51.87Y56.305
X51.915Y53.63
X51.92Y54.23
X51.925Y54.83
X51.965Y51.98
X52.015Y17.1
X52.035Y65.94
X52.035Y58.84
X52.095Y56.88
X52.115Y26.55
X52.135Y33.44
X52.195Y24.18
X52.195Y13.35
X52.38Y29.41
X52.38Y28.81
X52.38Y28.21
X52.405Y21.91
X52.405Y21.31
X52.405Y20.71
X52.405Y20.11
X52.405Y19.51
X52.495Y63.53
X52.495Y62.93
X52.495Y62.33
X52.495Y61.73
X52.495Y61.13
X52.52Y54.83
X52.52Y54.23
X52.52Y53.63
X52.705Y69.69
X52.705Y58.86
X52.765Y49.6
X52.785Y56.49
X52.805Y26.16
X52.865Y24.2
X52.865Y17.1
X52.885Y65.94
X52.935Y31.06
X52.975Y28.21
X52.98Y28.81
X52.985Y29.41
X53.03Y26.735
X53.065Y51.97
X53.115Y53.63
X53.12Y54.23
X53.125Y54.83
X53.52Y56.48
X53.605Y49.6
X53.63Y26.835
X53.685Y69.75
X53.725Y44.63
X54.065Y13.47
X54.155Y49.06
X54.175Y31.05
X54.195Y47.08
X54.235Y58.83
X54.255Y26.81
X54.505Y21.36
X54.505Y20.06
X54.505Y18.81
X54.515Y33.07
X54.555Y17.935
X54.565Y66.49
X54.565Y65.99
X54.57Y62.98
X54.57Y61.705
X54.57Y60.43
X54.595Y51.53
X54.655Y31.47
X54.785Y54.63
X54.825Y67.17
X54.855Y26.725
X54.895Y58.85
X54.935Y28.54
X54.955Y29.18
X55.015Y29.79
X55.045Y23.9
X55.175Y53.66
X55.185Y52.87
X55.215Y56.28
X55.225Y55.65
X55.53Y32.235
X55.665Y16.26
X55.745Y58.86
X55.755Y24.21
X55.925Y59.84
X56.065Y21.8
X56.095Y48.62
X56.155Y20.46
X56.235Y47.97
X56.245Y44.62
X56.255Y38.38
X56.365Y19.47
X56.495Y57.59
X56.555Y33.68
X56.895Y64.23
X56.905Y56.49
X56.975Y62.91
X56.975Y13.11
X57.045Y70.07
X57.045Y23.38
X57.065Y52.46
X57.07Y55.155
X57.105Y29.535
X57.185Y20.44
X57.195Y53.23
X57.235Y25.62
X57.255Y50.03
X57.445Y56.11
X57.525Y51.78
X57.635Y16.61
X57.895Y19.74
X57.915Y17.87
X58.035Y73.83
X58.105Y66.49
X58.105Y65.99
X58.125Y9.29
X58.445Y27.8
X58.575Y29.89
X58.665Y48.36
X58.805Y38.44
X59.115Y54.06
X59.135Y64.45
X60.705Y49.07
X60.755Y51.65
X60.795Y66.83
X60.795Y28.86
X60.805Y61.78
X60.805Y36.49
X60.815Y23.78
X60.815Y21.23
X60.855Y16.14
X62.825Y66.9
X62.865Y61.81
X62.865Y59.26
X62.875Y46.55
X62.875Y21.26
X62.885Y54.18
X62.885Y16.21
X62.925Y31.39
X62.975Y33.97
X64.545Y18.59
X64.565Y28.98
X64.875Y44.6
X65.015Y34.68
X65.105Y53.15
X65.235Y55.24
X65.555Y73.75
X65.575Y17.05
X65.575Y16.55
X65.645Y9.21
X65.765Y65.17
X65.785Y63.3
X66.045Y66.43
X66.155Y31.26
X66.235Y26.93
X66.425Y33.01
X66.445Y57.42
X66.485Y29.81
X66.495Y62.6
X66.575Y53.505
X66.61Y27.885
X66.615Y30.58
X66.635Y59.66
X66.635Y12.97
X66.705Y69.93
X66.705Y20.13
X66.775Y26.55
X66.785Y18.81
X67.125Y49.36
X67.185Y25.45
X67.315Y63.57
X67.425Y44.66
X67.435Y38.42
X67.445Y35.07
X67.525Y62.58
X67.585Y34.42
X67.615Y61.24
X67.755Y23.2
X67.925Y58.83
X67.935Y24.18
X68.015Y66.78
X68.15Y50.805
X68.455Y27.39
X68.465Y26.76
X68.495Y30.17
X68.505Y29.38
X68.635Y59.14
X68.665Y53.25
X68.725Y53.86
X68.745Y54.5
X68.785Y24.19
X68.825Y56.315
X68.855Y15.87
X68.895Y28.41
X69.025Y51.57
X69.085Y31.51
X69.11Y22.61
X69.11Y21.335
X69.11Y20.06
X69.115Y17.05
X69.115Y16.55
X69.125Y65.105
X69.165Y49.97
X69.175Y64.23
X69.175Y62.98
X69.175Y61.68
X69.425Y56.23
X69.445Y24.21
X69.485Y35.96
X69.505Y51.99
X69.525Y33.98
X69.615Y69.57
X69.955Y38.41
X69.995Y13.29
X70.05Y56.205
X70.075Y33.44
X70.16Y26.56
X70.555Y28.21
X70.56Y28.81
X70.565Y29.41
X70.615Y31.07
X70.65Y56.305
X70.695Y53.63
X70.7Y54.23
X70.705Y54.83
X70.745Y51.98
X70.795Y17.1
X70.815Y65.94
X70.815Y58.84
X70.875Y56.88
X70.895Y26.55
X70.915Y33.44
X70.975Y24.18
X70.975Y13.35
X71.16Y29.41
X71.16Y28.81
X71.16Y28.21
X71.185Y21.91
X71.185Y21.31
X71.185Y20.71
X71.185Y20.11
X71.185Y19.51
X71.275Y63.53
X71.275Y62.93
X71.275Y62.33
X71.275Y61.73
X71.275Y61.13
X71.3Y54.83
X71.3Y54.23
X71.3Y53.63
X71.485Y69.69
X71.485Y58.86
X71.545Y49.6
X71.565Y56.49
X71.585Y26.16
X71.645Y24.2
X71.645Y17.1
X71.665Y65.94
X71.715Y31.06
X71.755Y28.21
X71.76Y28.81
X71.765Y29.41
X71.81Y26.735
X71.845Y51.97
X71.895Y53.63
X71.9Y54.23
X71.905Y54.83
X72.3Y56.48
X72.385Y49.6
X72.41Y26.835
X72.465Y69.75
X72.505Y44.63
X72.845Y13.47
X72.935Y49.06
X72.955Y31.05
X72.975Y47.08
X73.015Y58.83
X73.035Y26.81
X73.285Y21.36
X73.285Y20.06
X73.285Y18.81
X73.295Y33.07
X73.335Y17.935
X73.345Y66.49
X73.345Y65.99
X73.35Y62.98
X73.35Y61.705
X73.35Y60.43
X73.375Y51.53
X73.435Y31.47
X73.565Y54.63
X73.605Y67.17
X73.635Y26.725
X73.675Y58.85
X73.715Y28.54
X73.735Y29.18
X73.795Y29.79
X73.825Y23.9
X73.955Y53.66
X73.965Y52.87
X73.995Y56.28
X74.005Y55.65
X74.31Y32.235
X74.445Y16.26
X74.525Y58.86
X74.535Y24.21
X74.705Y59.84
X74.845Y21.8
X74.875Y48.62
X74.935Y20.46
X75.015Y47.97
X75.025Y44.62
X75.035Y38.38
X75.145Y19.47
X75.275Y57.59
X75.335Y33.68
X75.675Y64.23
X75.685Y56.49
X75.755Y62.91
X75.755Y13.11
X75.825Y70.07
X75.825Y23.38
X75.845Y52.46
X75.85Y55.155
X75.885Y29.535
X75.965Y20.44
X75.975Y53.23
X76.015Y25.62
X76.035Y50.03
X76.225Y56.11
X76.305Y51.78
X76.415Y16.61
X76.675Y19.74
X76.695Y17.87
X76.815Y73.83
X76.885Y66.49
X76.885Y65.99
X76.905Y9.29
X77.225Y27.8
X77.355Y29.89
X77.445Y48.36
X77.585Y38.44
X77.895Y54.06
X77.915Y64.45
X79.485Y49.07
X79.535Y51.65
X79.575Y66.83
X79.575Y28.86
X79.585Y61.78
X79.585Y36.49
X79.595Y23.78
X79.595Y21.23
X79.635Y16.14
X81.605Y66.9
X81.645Y61.81
X81.645Y59.26
X81.655Y46.55
X81.655Y21.26
X81.665Y54.18
X81.665Y16.21
X81.705Y31.39
X81.755Y33.97
X83.325Y18.59
X83.345Y28.98
X83.655Y44.6
X83.795Y34.68
X83.885Y53.15
X84.015Y55.24
X84.335Y73.75
X84.355Y17.05
X84.355Y16.55
X84.425Y9.21
X84.545Y65.17
X84.565Y63.3
X84.825Y66.43
X84.935Y31.26
X85.015Y26.93
X85.205Y33.01
X85.225Y57.42
X85.265Y29.81
X85.275Y62.6
X85.355Y53.505
X85.39Y27.885
X85.395Y30.58
X85.415Y59.66
X85.415Y12.97
X85.485Y69.93
X85.485Y20.13
X85.555Y26.55
X85.565Y18.81
X85.905Y49.36
X85.965Y25.45
X86.095Y63.57
X86.205Y44.66
X86.215Y38.42
X86.225Y35.07
X86.305Y62.58
X86.365Y34.42
X86.395Y61.24
X86.535Y23.2
X86.705Y58.83
X86.715Y24.18
X86.795Y66.78
X86.93Y50.805
X87.235Y27.39
X87.245Y26.76
X87.275Y30.17
X87.285Y29.38
X87.415Y59.14
X87.445Y53.25
X87.505Y53.86
X87.525Y54.5
X87.565Y24.19
X87.605Y56.315
X87.635Y15.87
X87.675Y28.41
X87.805Y51.57
X87.865Y31.51
X87.89Y22.61
X87.89Y21.335
X87.89Y20.06
X87.895Y17.05
X87.895Y16.55
X87.905Y65.105
X87.945Y49.97
X87.955Y64.23
X87.955Y62.98
X87.955Y61.68
X88.205Y56.23
X88.225Y24.21
X88.265Y35.96
X88.285Y51.99
X88.305Y33.98
X88.395Y69.57
X88.735Y38.41
X88.775Y13.29
X88.83Y56.205
X88.855Y33.44
X88.94Y26.56
X89.335Y28.21
X89.34Y28.81
X89.345Y29.41
X89.395Y31.07
X89.43Y56.305
X89.475Y53.63
X89.48Y54.23
X89.485Y54.83
X89.525Y51.98
X89.575Y17.1
X89.595Y65.94
X89.595Y58.84
X89.655Y56.88
X89.675Y26.55
X89.695Y33.44
X89.755Y24.18
X89.755Y13.35
X89.94Y29.41
X89.94Y28.81
X89.94Y28.21
X89.965Y21.91
X89.965Y21.31
X89.965Y20.71
X89.965Y20.11
X89.965Y19.51
X90.055Y63.53
X90.055Y62.93
X90.055Y62.33
X90.055Y61.73
X90.055Y61.13
X90.08Y54.83
X90.08Y54.23
X90.08Y53.63
X90.265Y69.69
X90.265Y58.86
X90.325Y49.6
X90.345Y56.49
X90.365Y26.16
X90.425Y24.2
X90.425Y17.1
X90.445Y65.94
X90.495Y31.06
X90.535Y28.21
X90.54Y28.81
X90.545Y29.41
X90.59Y26.735
X90.625Y51.97
X90.675Y53.63
X90.68Y54.23
X90.685Y54.83
X91.08Y56.48
X91.165Y49.6
X91.19Y26.835
X91.245Y69.75
X91.285Y44.63
X91.625Y13.47
X91.715Y49.06
X91.735Y31.05
X91.755Y47.08
X91.795Y58.83
X91.815Y26.81
X92.065Y21.36
X92.065Y20.06
X92.065Y18.81
X92.075Y33.07
X92.115Y17.935
X92.125Y66.49
X92.125Y65.99
X92.13Y62.98
X92.13Y61.705
X92.13Y60.43
X92.155Y51.53
X92.215Y31.47
X92.345Y54.63
X92.385Y67.17
X92.415Y26.725
X92.455Y58.85
X92.495Y28.54
X92.515Y29.18
X92.575Y29.79
X92.605Y23.9
X92.735Y53.66
X92.745Y52.87
X92.775Y56.28
X92.785Y55.65
X93.09Y32.235
X93.225Y16.26
X93.305Y58.86
X93.315Y24.21
X93.485Y59.84
X93.625Y21.8
X93.655Y48.62
X93.715Y20.46
X93.795Y47.97
X93.805Y44.62
X93.815Y38.38
X93.925Y19.47
X94.055Y57.59
X94.115Y33.68
X94.455Y64.23
X94.465Y56.49
X94.535Y62.91
X94.535Y13.11
X94.605Y70.07
X94.605Y23.38
X94.625Y52.46
X94.63Y55.155
X94.665Y29.535
X94.745Y20.44
X94.755Y53.23
X94.795Y25.62
X94.815Y50.03
X95.005Y56.11
X95.085Y51.78
X95.195Y16.61
X95.455Y19.74
X95.475Y17.87
X95.595Y73.83
X95.665Y66.49
X95.665Y65.99
X95.685Y9.29
X96.005Y27.8
X96.135Y29.89
X96.225Y48.36
X96.365Y38.44
X96.675Y54.06
X96.695Y64.45
X98.265Y49.07
X98.315Y51.65
X98.355Y66.83
X98.355Y28.86
X98.365Y61.78
X98.365Y36.49
X98.375Y23.78
X98.375Y21.23
X98.415Y16.14
T2
X10.995Y13.52
X11.035Y69.52
X11.665Y13.52
X11.705Y69.52
X12.485Y69.53
X12.505Y13.51
X14.875Y16.59
X14.905Y66.45
X17.275Y69.53
X17.295Y13.51
X18.075Y13.52
X18.115Y69.52
X18.745Y13.52
X18.785Y69.52
X29.775Y13.52
X29.815Y69.52
X30.445Y13.52
X30.485Y69.52
X31.265Y69.53
X31.285Y13.51
X33.655Y16.59
X33.685Y66.45
X36.055Y69.53
X36.075Y13.51
X36.855Y13.52
X36.895Y69.52
X37.525Y13.52
X37.565Y69.52
X48.555Y13.52
X48.595Y69.52
X49.225Y13.52
X49.265Y69.52
X50.045Y69.53
X50.065Y13.51
X52.435Y16.59
X52.465Y66.45
X54.835Y69.53
X54.855Y13.51
X55.635Y13.52
X55.675Y69.52
X56.305Y13.52
X56.345Y69.52
X67.335Y13.52
X67.375Y69.52
X68.005Y13.52
X68.045Y69.52
X68.825Y69.53
X68.845Y13.51
X71.215Y16.59
X71.245Y66.45
X73.615Y69.53
X73.635Y13.51
X74.415Y13.52
X74.455Y69.52
X75.085Y13.52
X75.125Y69.52
X86.115Y13.52
X86.155Y69.52
X86.785Y13.52
X86.825Y69.52
X87.605Y69.53
X87.625Y13.51
X89.995Y16.59
X90.025Y66.45
X92.395Y69.53
X92.415Y13.51
X93.195Y13.52
X93.235Y69.52
X93.865Y13.52
X93.905Y69.52
T4
X7.27Y75.77
X7.27Y73.23
X7.27Y70.69
X7.27Y68.15
X7.27Y65.61
X7.27Y63.07
X7.27Y60.53
X7.27Y57.99
X7.27Y55.45
X7.27Y52.91
X7.27Y50.37
X7.27Y47.83
X7.27Y45.29
X7.27Y37.75
X7.27Y35.21
X7.27Y32.67
X7.27Y30.13
X7.27Y27.59
X7.27Y25.05
X7.27Y22.51
X7.27Y19.97
X7.27Y17.43
X7.27Y14.89
X7.27Y12.35
X7.27Y9.81
X7.27Y7.27
X9.81Y45.29
X9.81Y37.75
X9.815Y47.83
X12.35Y45.29
X12.35Y37.75
X13.62Y68.15
X13.62Y14.89
X14.89Y45.29
X14.89Y37.75
X16.16Y68.15
X16.16Y14.89
X17.43Y45.29
X17.43Y37.75
X19.965Y35.21
X19.97Y45.29
X19.97Y37.75
X22.51Y75.77
X22.51Y73.23
X22.51Y70.69
X22.51Y68.15
X22.51Y65.61
X22.51Y63.07
X22.51Y60.53
X22.51Y57.99
X22.51Y55.45
X22.51Y52.91
X22.51Y50.37
X22.51Y47.83
X22.51Y45.29
X22.51Y37.75
X22.51Y35.21
X22.51Y32.67
X22.51Y30.13
X22.51Y27.59
X22.51Y25.05
X22.51Y22.51
X22.51Y19.97
X22.51Y17.43
X22.51Y14.89
X22.51Y12.35
X22.51Y9.81
X22.51Y7.27
X26.05Y75.77
X26.05Y73.23
X26.05Y70.69
X26.05Y68.15
X26.05Y65.61
X26.05Y63.07
X26.05Y60.53
X26.05Y57.99
X26.05Y55.45
X26.05Y52.91
X26.05Y50.37
X26.05Y47.83
X26.05Y45.29
X26.05Y37.75
X26.05Y35.21
X26.05Y32.67
X26.05Y30.13
X26.05Y27.59
X26.05Y25.05
X26.05Y22.51
X26.05Y19.97
X26.05Y17.43
X26.05Y14.89
X26.05Y12.35
X26.05Y9.81
X26.05Y7.27
X28.59Y45.29
X28.59Y37.75
X28.595Y47.83
X31.13Y45.29
X31.13Y37.75
X32.4Y68.15
X32.4Y14.89
X33.67Y45.29
X33.67Y37.75
X34.94Y68.15
X34.94Y14.89
X36.21Y45.29
X36.21Y37.75
X38.745Y35.21
X38.75Y45.29
X38.75Y37.75
X41.29Y75.77
X41.29Y73.23
X41.29Y70.69
X41.29Y68.15
X41.29Y65.61
X41.29Y63.07
X41.29Y60.53
X41.29Y57.99
X41.29Y55.45
X41.29Y52.91
X41.29Y50.37
X41.29Y47.83
X41.29Y45.29
X41.29Y37.75
X41.29Y35.21
X41.29Y32.67
X41.29Y30.13
X41.29Y27.59
X41.29Y25.05
X41.29Y22.51
X41.29Y19.97
X41.29Y17.43
X41.29Y14.89
X41.29Y12.35
X41.29Y9.81
X41.29Y7.27
X44.83Y75.77
X44.83Y73.23
X44.83Y70.69
X44.83Y68.15
X44.83Y65.61
X44.83Y63.07
X44.83Y60.53
X44.83Y57.99
X44.83Y55.45
X44.83Y52.91
X44.83Y50.37
X44.83Y47.83
X44.83Y45.29
X44.83Y37.75
X44.83Y35.21
X44.83Y32.67
X44.83Y30.13
X44.83Y27.59
X44.83Y25.05
X44.83Y22.51
X44.83Y19.97
X44.83Y17.43
X44.83Y14.89
X44.83Y12.35
X44.83Y9.81
X44.83Y7.27
X47.37Y45.29
X47.37Y37.75
X47.375Y47.83
X49.91Y45.29
X49.91Y37.75
X51.18Y68.15
X51.18Y14.89
X52.45Y45.29
X52.45Y37.75
X53.72Y68.15
X53.72Y14.89
X54.99Y45.29
X54.99Y37.75
X57.525Y35.21
X57.53Y45.29
X57.53Y37.75
X60.07Y75.77
X60.07Y73.23
X60.07Y70.69
X60.07Y68.15
X60.07Y65.61
X60.07Y63.07
X60.07Y60.53
X60.07Y57.99
X60.07Y55.45
X60.07Y52.91
X60.07Y50.37
X60.07Y47.83
X60.07Y45.29
X60.07Y37.75
X60.07Y35.21
X60.07Y32.67
X60.07Y30.13
X60.07Y27.59
X60.07Y25.05
X60.07Y22.51
X60.07Y19.97
X60.07Y17.43
X60.07Y14.89
X60.07Y12.35
X60.07Y9.81
X60.07Y7.27
X63.61Y75.77
X63.61Y73.23
X63.61Y70.69
X63.61Y68.15
X63.61Y65.61
X63.61Y63.07
X63.61Y60.53
X63.61Y57.99
X63.61Y55.45
X63.61Y52.91
X63.61Y50.37
X63.61Y47.83
X63.61Y45.29
X63.61Y37.75
X63.61Y35.21
X63.61Y32.67
X63.61Y30.13
X63.61Y27.59
X63.61Y25.05
X63.61Y22.51
X63.61Y19.97
X63.61Y17.43
X63.61Y14.89
X63.61Y12.35
X63.61Y9.81
X63.61Y7.27
X66.15Y45.29
X66.15Y37.75
X66.155Y47.83
X68.69Y45.29
X68.69Y37.75
X69.96Y68.15
X69.96Y14.89
X71.23Y45.29
X71.23Y37.75
X72.5Y68.15
X72.5Y14.89
X73.77Y45.29
X73.77Y37.75
X76.305Y35.21
X76.31Y45.29
X76.31Y37.75
X78.85Y75.77
X78.85Y73.23
X78.85Y70.69
X78.85Y68.15
X78.85Y65.61
X78.85Y63.07
X78.85Y60.53
X78.85Y57.99
X78.85Y55.45
X78.85Y52.91
X78.85Y50.37
X78.85Y47.83
X78.85Y45.29
X78.85Y37.75
X78.85Y35.21
X78.85Y32.67
X78.85Y30.13
X78.85Y27.59
X78.85Y25.05
X78.85Y22.51
X78.85Y19.97
X78.85Y17.43
X78.85Y14.89
X78.85Y12.35
X78.85Y9.81
X78.85Y7.27
X82.39Y75.77
X82.39Y73.23
X82.39Y70.69
X82.39Y68.15
X82.39Y65.61
X82.39Y63.07
X82.39Y60.53
X82.39Y57.99
X82.39Y55.45
X82.39Y52.91
X82.39Y50.37
X82.39Y47.83
X82.39Y45.29
X82.39Y37.75
X82.39Y35.21
X82.39Y32.67
X82.39Y30.13
X82.39Y27.59
X82.39Y25.05
X82.39Y22.51
X82.39Y19.97
X82.39Y17.43
X82.39Y14.89
X82.39Y12.35
X82.39Y9.81
X82.39Y7.27
X84.93Y45.29
X84.93Y37.75
X84.935Y47.83
X87.47Y45.29
X87.47Y37.75
X88.74Y68.15
X88.74Y14.89
X90.01Y45.29
X90.01Y37.75
X91.28Y68.15
X91.28Y14.89
X92.55Y45.29
X92.55Y37.75
X95.085Y35.21
X95.09Y45.29
X95.09Y37.75
X97.63Y75.77
X97.63Y73.23
X97.63Y70.69
X97.63Y68.15
X97.63Y65.61
X97.63Y63.07
X97.63Y60.53
X97.63Y57.99
X97.63Y55.45
X97.63Y52.91
X97.63Y50.37
X97.63Y47.83
X97.63Y45.29
X97.63Y37.75
X97.63Y35.21
X97.63Y32.67
X97.63Y30.13
X97.63Y27.59
X97.63Y25.05
X97.63Y22.51
X97.63Y19.97
X97.63Y17.43
X97.63Y14.89
X97.63Y12.35
X97.63Y9.81
X97.63Y7.27
T5
X2.5Y80.54
X2.5Y2.5
X102.4Y80.54
T3
X9.315Y75.25G85X9.315Y76.35
G05
X9.315Y71.45G85X9.315Y72.15
G05
X9.315Y11.59G85X9.315Y10.89
G05
X9.315Y7.79G85X9.315Y6.69
G05
X20.465Y75.25G85X20.465Y76.35
G05
X20.465Y71.45G85X20.465Y72.15
G05
X20.465Y11.59G85X20.465Y10.89
G05
X20.465Y7.79G85X20.465Y6.69
G05
X28.095Y75.25G85X28.095Y76.35
G05
X28.095Y71.45G85X28.095Y72.15
G05
X28.095Y11.59G85X28.095Y10.89
G05
X28.095Y7.79G85X28.095Y6.69
G05
X39.245Y75.25G85X39.245Y76.35
G05
X39.245Y71.45G85X39.245Y72.15
G05
X39.245Y11.59G85X39.245Y10.89
G05
X39.245Y7.79G85X39.245Y6.69
G05
X46.875Y75.25G85X46.875Y76.35
G05
X46.875Y71.45G85X46.875Y72.15
G05
X46.875Y11.59G85X46.875Y10.89
G05
X46.875Y7.79G85X46.875Y6.69
G05
X58.025Y75.25G85X58.025Y76.35
G05
X58.025Y71.45G85X58.025Y72.15
G05
X58.025Y11.59G85X58.025Y10.89
G05
X58.025Y7.79G85X58.025Y6.69
G05
X65.655Y75.25G85X65.655Y76.35
G05
X65.655Y71.45G85X65.655Y72.15
G05
X65.655Y11.59G85X65.655Y10.89
G05
X65.655Y7.79G85X65.655Y6.69
G05
X76.805Y75.25G85X76.805Y76.35
G05
X76.805Y71.45G85X76.805Y72.15
G05
X76.805Y11.59G85X76.805Y10.89
G05
X76.805Y7.79G85X76.805Y6.69
G05
X84.435Y75.25G85X84.435Y76.35
G05
X84.435Y71.45G85X84.435Y72.15
G05
X84.435Y11.59G85X84.435Y10.89
G05
X84.435Y7.79G85X84.435Y6.69
G05
X95.585Y75.25G85X95.585Y76.35
G05
X95.585Y71.45G85X95.585Y72.15
G05
X95.585Y11.59G85X95.585Y10.89
G05
X95.585Y7.79G85X95.585Y6.69
G05
T0
M30
