G04 #@! TF.GenerationSoftware,KiCad,Pcbnew,7.0.0-da2b9df05c~165~ubuntu22.04.1*
G04 #@! TF.CreationDate,2023-06-03T20:46:25+00:00*
G04 #@! TF.ProjectId,helios-panel,68656c69-6f73-42d7-9061-6e656c2e6b69,rev1.0*
G04 #@! TF.SameCoordinates,Original*
G04 #@! TF.FileFunction,Other,Comment*
%FSLAX46Y46*%
G04 Gerber Fmt 4.6, Leading zero omitted, Abs format (unit mm)*
G04 Created by KiCad (PCBNEW 7.0.0-da2b9df05c~165~ubuntu22.04.1) date 2023-06-03 20:46:25*
%MOMM*%
%LPD*%
G01*
G04 APERTURE LIST*
%ADD10C,0.400000*%
G04 APERTURE END LIST*
D10*
X-3000000Y44020000D02*
X107900000Y44020000D01*
X98900000Y86040000D02*
X98900000Y-3000000D01*
X-3000000Y77040000D02*
X107900000Y77040000D01*
X-3000000Y6000000D02*
X107900000Y6000000D01*
X6000000Y86040000D02*
X6000000Y-3000000D01*
X-3000000Y39020000D02*
X107900000Y39020000D01*
X111090476Y78305239D02*
X111757142Y76305239D01*
X111757142Y76305239D02*
X112423809Y78305239D01*
X113090476Y77067143D02*
X114614286Y77067143D01*
X116709523Y76495715D02*
X116614285Y76400477D01*
X116614285Y76400477D02*
X116328571Y76305239D01*
X116328571Y76305239D02*
X116138095Y76305239D01*
X116138095Y76305239D02*
X115852380Y76400477D01*
X115852380Y76400477D02*
X115661904Y76590953D01*
X115661904Y76590953D02*
X115566666Y76781429D01*
X115566666Y76781429D02*
X115471428Y77162381D01*
X115471428Y77162381D02*
X115471428Y77448096D01*
X115471428Y77448096D02*
X115566666Y77829048D01*
X115566666Y77829048D02*
X115661904Y78019524D01*
X115661904Y78019524D02*
X115852380Y78210000D01*
X115852380Y78210000D02*
X116138095Y78305239D01*
X116138095Y78305239D02*
X116328571Y78305239D01*
X116328571Y78305239D02*
X116614285Y78210000D01*
X116614285Y78210000D02*
X116709523Y78114762D01*
X117566666Y78305239D02*
X117566666Y76686191D01*
X117566666Y76686191D02*
X117661904Y76495715D01*
X117661904Y76495715D02*
X117757142Y76400477D01*
X117757142Y76400477D02*
X117947618Y76305239D01*
X117947618Y76305239D02*
X118328571Y76305239D01*
X118328571Y76305239D02*
X118519047Y76400477D01*
X118519047Y76400477D02*
X118614285Y76495715D01*
X118614285Y76495715D02*
X118709523Y76686191D01*
X118709523Y76686191D02*
X118709523Y78305239D01*
X119376190Y78305239D02*
X120519047Y78305239D01*
X119947618Y76305239D02*
X119947618Y78305239D01*
X4734761Y89230477D02*
X6734761Y89897143D01*
X6734761Y89897143D02*
X4734761Y90563810D01*
X5972857Y91230477D02*
X5972857Y92754286D01*
X6544285Y94849524D02*
X6639523Y94754286D01*
X6639523Y94754286D02*
X6734761Y94468572D01*
X6734761Y94468572D02*
X6734761Y94278096D01*
X6734761Y94278096D02*
X6639523Y93992381D01*
X6639523Y93992381D02*
X6449047Y93801905D01*
X6449047Y93801905D02*
X6258571Y93706667D01*
X6258571Y93706667D02*
X5877619Y93611429D01*
X5877619Y93611429D02*
X5591904Y93611429D01*
X5591904Y93611429D02*
X5210952Y93706667D01*
X5210952Y93706667D02*
X5020476Y93801905D01*
X5020476Y93801905D02*
X4830000Y93992381D01*
X4830000Y93992381D02*
X4734761Y94278096D01*
X4734761Y94278096D02*
X4734761Y94468572D01*
X4734761Y94468572D02*
X4830000Y94754286D01*
X4830000Y94754286D02*
X4925238Y94849524D01*
X4734761Y95706667D02*
X6353809Y95706667D01*
X6353809Y95706667D02*
X6544285Y95801905D01*
X6544285Y95801905D02*
X6639523Y95897143D01*
X6639523Y95897143D02*
X6734761Y96087619D01*
X6734761Y96087619D02*
X6734761Y96468572D01*
X6734761Y96468572D02*
X6639523Y96659048D01*
X6639523Y96659048D02*
X6544285Y96754286D01*
X6544285Y96754286D02*
X6353809Y96849524D01*
X6353809Y96849524D02*
X4734761Y96849524D01*
X4734761Y97516191D02*
X4734761Y98659048D01*
X6734761Y98087619D02*
X4734761Y98087619D01*
X111090476Y45285239D02*
X111757142Y43285239D01*
X111757142Y43285239D02*
X112423809Y45285239D01*
X113090476Y44047143D02*
X114614286Y44047143D01*
X116709523Y43475715D02*
X116614285Y43380477D01*
X116614285Y43380477D02*
X116328571Y43285239D01*
X116328571Y43285239D02*
X116138095Y43285239D01*
X116138095Y43285239D02*
X115852380Y43380477D01*
X115852380Y43380477D02*
X115661904Y43570953D01*
X115661904Y43570953D02*
X115566666Y43761429D01*
X115566666Y43761429D02*
X115471428Y44142381D01*
X115471428Y44142381D02*
X115471428Y44428096D01*
X115471428Y44428096D02*
X115566666Y44809048D01*
X115566666Y44809048D02*
X115661904Y44999524D01*
X115661904Y44999524D02*
X115852380Y45190000D01*
X115852380Y45190000D02*
X116138095Y45285239D01*
X116138095Y45285239D02*
X116328571Y45285239D01*
X116328571Y45285239D02*
X116614285Y45190000D01*
X116614285Y45190000D02*
X116709523Y45094762D01*
X117566666Y45285239D02*
X117566666Y43666191D01*
X117566666Y43666191D02*
X117661904Y43475715D01*
X117661904Y43475715D02*
X117757142Y43380477D01*
X117757142Y43380477D02*
X117947618Y43285239D01*
X117947618Y43285239D02*
X118328571Y43285239D01*
X118328571Y43285239D02*
X118519047Y43380477D01*
X118519047Y43380477D02*
X118614285Y43475715D01*
X118614285Y43475715D02*
X118709523Y43666191D01*
X118709523Y43666191D02*
X118709523Y45285239D01*
X119376190Y45285239D02*
X120519047Y45285239D01*
X119947618Y43285239D02*
X119947618Y45285239D01*
X111090476Y40285239D02*
X111757142Y38285239D01*
X111757142Y38285239D02*
X112423809Y40285239D01*
X113090476Y39047143D02*
X114614286Y39047143D01*
X116709523Y38475715D02*
X116614285Y38380477D01*
X116614285Y38380477D02*
X116328571Y38285239D01*
X116328571Y38285239D02*
X116138095Y38285239D01*
X116138095Y38285239D02*
X115852380Y38380477D01*
X115852380Y38380477D02*
X115661904Y38570953D01*
X115661904Y38570953D02*
X115566666Y38761429D01*
X115566666Y38761429D02*
X115471428Y39142381D01*
X115471428Y39142381D02*
X115471428Y39428096D01*
X115471428Y39428096D02*
X115566666Y39809048D01*
X115566666Y39809048D02*
X115661904Y39999524D01*
X115661904Y39999524D02*
X115852380Y40190000D01*
X115852380Y40190000D02*
X116138095Y40285239D01*
X116138095Y40285239D02*
X116328571Y40285239D01*
X116328571Y40285239D02*
X116614285Y40190000D01*
X116614285Y40190000D02*
X116709523Y40094762D01*
X117566666Y40285239D02*
X117566666Y38666191D01*
X117566666Y38666191D02*
X117661904Y38475715D01*
X117661904Y38475715D02*
X117757142Y38380477D01*
X117757142Y38380477D02*
X117947618Y38285239D01*
X117947618Y38285239D02*
X118328571Y38285239D01*
X118328571Y38285239D02*
X118519047Y38380477D01*
X118519047Y38380477D02*
X118614285Y38475715D01*
X118614285Y38475715D02*
X118709523Y38666191D01*
X118709523Y38666191D02*
X118709523Y40285239D01*
X119376190Y40285239D02*
X120519047Y40285239D01*
X119947618Y38285239D02*
X119947618Y40285239D01*
X111090476Y7265239D02*
X111757142Y5265239D01*
X111757142Y5265239D02*
X112423809Y7265239D01*
X113090476Y6027143D02*
X114614286Y6027143D01*
X116709523Y5455715D02*
X116614285Y5360477D01*
X116614285Y5360477D02*
X116328571Y5265239D01*
X116328571Y5265239D02*
X116138095Y5265239D01*
X116138095Y5265239D02*
X115852380Y5360477D01*
X115852380Y5360477D02*
X115661904Y5550953D01*
X115661904Y5550953D02*
X115566666Y5741429D01*
X115566666Y5741429D02*
X115471428Y6122381D01*
X115471428Y6122381D02*
X115471428Y6408096D01*
X115471428Y6408096D02*
X115566666Y6789048D01*
X115566666Y6789048D02*
X115661904Y6979524D01*
X115661904Y6979524D02*
X115852380Y7170000D01*
X115852380Y7170000D02*
X116138095Y7265239D01*
X116138095Y7265239D02*
X116328571Y7265239D01*
X116328571Y7265239D02*
X116614285Y7170000D01*
X116614285Y7170000D02*
X116709523Y7074762D01*
X117566666Y7265239D02*
X117566666Y5646191D01*
X117566666Y5646191D02*
X117661904Y5455715D01*
X117661904Y5455715D02*
X117757142Y5360477D01*
X117757142Y5360477D02*
X117947618Y5265239D01*
X117947618Y5265239D02*
X118328571Y5265239D01*
X118328571Y5265239D02*
X118519047Y5360477D01*
X118519047Y5360477D02*
X118614285Y5455715D01*
X118614285Y5455715D02*
X118709523Y5646191D01*
X118709523Y5646191D02*
X118709523Y7265239D01*
X119376190Y7265239D02*
X120519047Y7265239D01*
X119947618Y5265239D02*
X119947618Y7265239D01*
X97634761Y89230477D02*
X99634761Y89897143D01*
X99634761Y89897143D02*
X97634761Y90563810D01*
X98872857Y91230477D02*
X98872857Y92754286D01*
X99444285Y94849524D02*
X99539523Y94754286D01*
X99539523Y94754286D02*
X99634761Y94468572D01*
X99634761Y94468572D02*
X99634761Y94278096D01*
X99634761Y94278096D02*
X99539523Y93992381D01*
X99539523Y93992381D02*
X99349047Y93801905D01*
X99349047Y93801905D02*
X99158571Y93706667D01*
X99158571Y93706667D02*
X98777619Y93611429D01*
X98777619Y93611429D02*
X98491904Y93611429D01*
X98491904Y93611429D02*
X98110952Y93706667D01*
X98110952Y93706667D02*
X97920476Y93801905D01*
X97920476Y93801905D02*
X97730000Y93992381D01*
X97730000Y93992381D02*
X97634761Y94278096D01*
X97634761Y94278096D02*
X97634761Y94468572D01*
X97634761Y94468572D02*
X97730000Y94754286D01*
X97730000Y94754286D02*
X97825238Y94849524D01*
X97634761Y95706667D02*
X99253809Y95706667D01*
X99253809Y95706667D02*
X99444285Y95801905D01*
X99444285Y95801905D02*
X99539523Y95897143D01*
X99539523Y95897143D02*
X99634761Y96087619D01*
X99634761Y96087619D02*
X99634761Y96468572D01*
X99634761Y96468572D02*
X99539523Y96659048D01*
X99539523Y96659048D02*
X99444285Y96754286D01*
X99444285Y96754286D02*
X99253809Y96849524D01*
X99253809Y96849524D02*
X97634761Y96849524D01*
X97634761Y97516191D02*
X97634761Y98659048D01*
X99634761Y98087619D02*
X97634761Y98087619D01*
M02*
