G04 #@! TF.GenerationSoftware,KiCad,Pcbnew,(6.0.8)*
G04 #@! TF.CreationDate,2022-10-20T21:20:58+02:00*
G04 #@! TF.ProjectId,helios-panel,68656c69-6f73-42d7-9061-6e656c2e6b69,rev1.0*
G04 #@! TF.SameCoordinates,Original*
G04 #@! TF.FileFunction,Legend,Top*
G04 #@! TF.FilePolarity,Positive*
%FSLAX46Y46*%
G04 Gerber Fmt 4.6, Leading zero omitted, Abs format (unit mm)*
G04 Created by KiCad (PCBNEW (6.0.8)) date 2022-10-20 21:20:58*
%MOMM*%
%LPD*%
G01*
G04 APERTURE LIST*
%ADD10C,0.300000*%
%ADD11C,0.120000*%
%ADD12C,0.100000*%
%ADD13C,0.200000*%
%ADD14C,0.141419*%
G04 APERTURE END LIST*
D10*
X41914285Y81361429D02*
X42057142Y81361429D01*
X42199999Y81290000D01*
X42271428Y81218572D01*
X42342857Y81075715D01*
X42414285Y80790000D01*
X42414285Y80432858D01*
X42342857Y80147143D01*
X42271428Y80004286D01*
X42199999Y79932858D01*
X42057142Y79861429D01*
X41914285Y79861429D01*
X41771428Y79932858D01*
X41699999Y80004286D01*
X41628571Y80147143D01*
X41557142Y80432858D01*
X41557142Y80790000D01*
X41628571Y81075715D01*
X41699999Y81218572D01*
X41771428Y81290000D01*
X41914285Y81361429D01*
X42914285Y79861429D02*
X43699999Y80861429D01*
X42914285Y80861429D02*
X43699999Y79861429D01*
X45128571Y80004286D02*
X45057142Y79932858D01*
X44842857Y79861429D01*
X44699999Y79861429D01*
X44485714Y79932858D01*
X44342857Y80075715D01*
X44271428Y80218572D01*
X44199999Y80504286D01*
X44199999Y80718572D01*
X44271428Y81004286D01*
X44342857Y81147143D01*
X44485714Y81290000D01*
X44699999Y81361429D01*
X44842857Y81361429D01*
X45057142Y81290000D01*
X45128571Y81218572D01*
X46271428Y80647143D02*
X46485714Y80575715D01*
X46557142Y80504286D01*
X46628571Y80361429D01*
X46628571Y80147143D01*
X46557142Y80004286D01*
X46485714Y79932858D01*
X46342857Y79861429D01*
X45771428Y79861429D01*
X45771428Y81361429D01*
X46271428Y81361429D01*
X46414285Y81290000D01*
X46485714Y81218572D01*
X46557142Y81075715D01*
X46557142Y80932858D01*
X46485714Y80790000D01*
X46414285Y80718572D01*
X46271428Y80647143D01*
X45771428Y80647143D01*
X48414285Y79861429D02*
X48414285Y81361429D01*
X48414285Y80647143D02*
X49271428Y80647143D01*
X49271428Y79861429D02*
X49271428Y81361429D01*
X50557142Y79932858D02*
X50414285Y79861429D01*
X50128571Y79861429D01*
X49985714Y79932858D01*
X49914285Y80075715D01*
X49914285Y80647143D01*
X49985714Y80790000D01*
X50128571Y80861429D01*
X50414285Y80861429D01*
X50557142Y80790000D01*
X50628571Y80647143D01*
X50628571Y80504286D01*
X49914285Y80361429D01*
X51485714Y79861429D02*
X51342857Y79932858D01*
X51271428Y80075715D01*
X51271428Y81361429D01*
X52057142Y79861429D02*
X52057142Y80861429D01*
X52057142Y81361429D02*
X51985714Y81290000D01*
X52057142Y81218572D01*
X52128571Y81290000D01*
X52057142Y81361429D01*
X52057142Y81218572D01*
X52985714Y79861429D02*
X52842857Y79932858D01*
X52771428Y80004286D01*
X52700000Y80147143D01*
X52700000Y80575715D01*
X52771428Y80718572D01*
X52842857Y80790000D01*
X52985714Y80861429D01*
X53200000Y80861429D01*
X53342857Y80790000D01*
X53414285Y80718572D01*
X53485714Y80575715D01*
X53485714Y80147143D01*
X53414285Y80004286D01*
X53342857Y79932858D01*
X53200000Y79861429D01*
X52985714Y79861429D01*
X54057142Y79932858D02*
X54200000Y79861429D01*
X54485714Y79861429D01*
X54628571Y79932858D01*
X54700000Y80075715D01*
X54700000Y80147143D01*
X54628571Y80290000D01*
X54485714Y80361429D01*
X54271428Y80361429D01*
X54128571Y80432858D01*
X54057142Y80575715D01*
X54057142Y80647143D01*
X54128571Y80790000D01*
X54271428Y80861429D01*
X54485714Y80861429D01*
X54628571Y80790000D01*
X57342857Y79861429D02*
X56842857Y80575715D01*
X56485714Y79861429D02*
X56485714Y81361429D01*
X57057142Y81361429D01*
X57200000Y81290000D01*
X57271428Y81218572D01*
X57342857Y81075715D01*
X57342857Y80861429D01*
X57271428Y80718572D01*
X57200000Y80647143D01*
X57057142Y80575715D01*
X56485714Y80575715D01*
X58557142Y79932858D02*
X58414285Y79861429D01*
X58128571Y79861429D01*
X57985714Y79932858D01*
X57914285Y80075715D01*
X57914285Y80647143D01*
X57985714Y80790000D01*
X58128571Y80861429D01*
X58414285Y80861429D01*
X58557142Y80790000D01*
X58628571Y80647143D01*
X58628571Y80504286D01*
X57914285Y80361429D01*
X59128571Y80861429D02*
X59485714Y79861429D01*
X59842857Y80861429D01*
X61200000Y79861429D02*
X60342857Y79861429D01*
X60771428Y79861429D02*
X60771428Y81361429D01*
X60628571Y81147143D01*
X60485714Y81004286D01*
X60342857Y80932858D01*
X61842857Y80004286D02*
X61914285Y79932858D01*
X61842857Y79861429D01*
X61771428Y79932858D01*
X61842857Y80004286D01*
X61842857Y79861429D01*
X62842857Y81361429D02*
X62985714Y81361429D01*
X63128571Y81290000D01*
X63200000Y81218572D01*
X63271428Y81075715D01*
X63342857Y80790000D01*
X63342857Y80432858D01*
X63271428Y80147143D01*
X63200000Y80004286D01*
X63128571Y79932858D01*
X62985714Y79861429D01*
X62842857Y79861429D01*
X62700000Y79932858D01*
X62628571Y80004286D01*
X62557142Y80147143D01*
X62485714Y80432858D01*
X62485714Y80790000D01*
X62557142Y81075715D01*
X62628571Y81218572D01*
X62700000Y81290000D01*
X62842857Y81361429D01*
D11*
G04 #@! TO.C,C5*
X31295000Y17172164D02*
X31295000Y17387836D01*
X30575000Y17172164D02*
X30575000Y17387836D01*
G04 #@! TO.C,R4*
X47515000Y66401359D02*
X47515000Y66708641D01*
X48275000Y66401359D02*
X48275000Y66708641D01*
G04 #@! TO.C,C17*
X52405000Y58912164D02*
X52405000Y59127836D01*
X51685000Y58912164D02*
X51685000Y59127836D01*
X34435000Y24127836D02*
X34435000Y23912164D01*
X33715000Y24127836D02*
X33715000Y23912164D01*
G04 #@! TO.C,R12*
X51575000Y65966359D02*
X51575000Y66273641D01*
X50815000Y65966359D02*
X50815000Y66273641D01*
G04 #@! TO.C,R4*
X75405000Y16638641D02*
X75405000Y16331359D01*
X76165000Y16638641D02*
X76165000Y16331359D01*
G04 #@! TO.C,C17*
X89245000Y58912164D02*
X89245000Y59127836D01*
X89965000Y58912164D02*
X89965000Y59127836D01*
G04 #@! TO.C,U5*
X37000000Y21110000D02*
X37000000Y22410000D01*
X38800000Y22660000D02*
X38800000Y21110000D01*
G04 #@! TO.C,R7*
X75601359Y70120000D02*
X75908641Y70120000D01*
X75601359Y70880000D02*
X75908641Y70880000D01*
G04 #@! TO.C,R3*
X34475000Y47446359D02*
X34475000Y47753641D01*
X35235000Y47446359D02*
X35235000Y47753641D01*
G04 #@! TO.C,C3*
X68202836Y14120000D02*
X67987164Y14120000D01*
X68202836Y14840000D02*
X67987164Y14840000D01*
G04 #@! TO.C,R1*
X17511359Y47450000D02*
X17818641Y47450000D01*
X17511359Y46690000D02*
X17818641Y46690000D01*
G04 #@! TO.C,C18*
X86355000Y24127836D02*
X86355000Y23912164D01*
X87075000Y24127836D02*
X87075000Y23912164D01*
G04 #@! TO.C,C3*
X74257164Y68200000D02*
X74472836Y68200000D01*
X74257164Y68920000D02*
X74472836Y68920000D01*
G04 #@! TO.C,U4*
X86330000Y32420000D02*
X86330000Y31770000D01*
X86330000Y25200000D02*
X86330000Y25850000D01*
X86980000Y25200000D02*
X86330000Y25200000D01*
X92900000Y25200000D02*
X93550000Y25200000D01*
X93550000Y32420000D02*
X93550000Y31770000D01*
X92900000Y32420000D02*
X93550000Y32420000D01*
X86980000Y32420000D02*
X86330000Y32420000D01*
G04 #@! TO.C,Y1*
X73120902Y35360000D02*
G75*
G03*
X73120902Y35360000I-55902J0D01*
G01*
G04 #@! TO.C,R8*
X19271359Y12160000D02*
X19578641Y12160000D01*
X19271359Y12920000D02*
X19578641Y12920000D01*
G04 #@! TO.C,F1*
X29777779Y15930000D02*
X29452221Y15930000D01*
X29777779Y14910000D02*
X29452221Y14910000D01*
G04 #@! TO.C,R6*
X28470000Y66708641D02*
X28470000Y66401359D01*
X27710000Y66708641D02*
X27710000Y66401359D01*
X84050000Y66708641D02*
X84050000Y66401359D01*
X84810000Y66708641D02*
X84810000Y66401359D01*
G04 #@! TO.C,R9*
X37378641Y18230000D02*
X37071359Y18230000D01*
X37378641Y17470000D02*
X37071359Y17470000D01*
D12*
G04 #@! TO.C,D1*
X9885000Y23075000D02*
G75*
G03*
X9885000Y23075000I-50000J0D01*
G01*
D13*
G04 #@! TO.C,U3*
X73285000Y18805000D02*
G75*
G03*
X73285000Y18805000I-100000J0D01*
G01*
D11*
G04 #@! TO.C,R11*
X74905000Y19463641D02*
X74905000Y19156359D01*
X75665000Y19463641D02*
X75665000Y19156359D01*
G04 #@! TO.C,C1*
X85062836Y69140000D02*
X84847164Y69140000D01*
X85062836Y68420000D02*
X84847164Y68420000D01*
G04 #@! TO.C,Q1*
X50585000Y34980000D02*
X50585000Y33680000D01*
X48785000Y33430000D02*
X48785000Y34980000D01*
G04 #@! TO.C,C19*
X32155000Y33492164D02*
X32155000Y33707836D01*
X32875000Y33492164D02*
X32875000Y33707836D01*
G04 #@! TO.C,R4*
X29495000Y66401359D02*
X29495000Y66708641D01*
X28735000Y66401359D02*
X28735000Y66708641D01*
G04 #@! TO.C,Q1*
X30005000Y33430000D02*
X30005000Y34980000D01*
X31805000Y34980000D02*
X31805000Y33680000D01*
G04 #@! TO.C,C4*
X84615000Y17172164D02*
X84615000Y17387836D01*
X85335000Y17172164D02*
X85335000Y17387836D01*
G04 #@! TO.C,R5*
X57351359Y15515000D02*
X57658641Y15515000D01*
X57351359Y14755000D02*
X57658641Y14755000D01*
D12*
G04 #@! TO.C,SW1*
X75615000Y49560000D02*
X76615000Y49560000D01*
X76615000Y49560000D02*
X76615000Y47760000D01*
X76615000Y47760000D02*
X75615000Y47760000D01*
X75615000Y47760000D02*
X75615000Y49560000D01*
D11*
G04 #@! TO.C,U1*
X89115000Y66930000D02*
X89115000Y65030000D01*
X90915000Y65330000D02*
X90915000Y66930000D01*
G04 #@! TO.C,C4*
X10215000Y17172164D02*
X10215000Y17387836D01*
X9495000Y17172164D02*
X9495000Y17387836D01*
G04 #@! TO.C,C16*
X93015000Y24127836D02*
X93015000Y23912164D01*
X93735000Y24127836D02*
X93735000Y23912164D01*
G04 #@! TO.C,C18*
X37325000Y58912164D02*
X37325000Y59127836D01*
X36605000Y58912164D02*
X36605000Y59127836D01*
D12*
G04 #@! TO.C,SW1*
X19275000Y49560000D02*
X20275000Y49560000D01*
X20275000Y49560000D02*
X20275000Y47760000D01*
X20275000Y47760000D02*
X19275000Y47760000D01*
X19275000Y47760000D02*
X19275000Y49560000D01*
G04 #@! TO.C,D1*
X38775000Y59965000D02*
G75*
G03*
X38775000Y59965000I-50000J0D01*
G01*
D11*
G04 #@! TO.C,C14*
X70425000Y24127836D02*
X70425000Y23912164D01*
X71145000Y24127836D02*
X71145000Y23912164D01*
G04 #@! TO.C,C8*
X93905000Y35152164D02*
X93905000Y35367836D01*
X93185000Y35152164D02*
X93185000Y35367836D01*
G04 #@! TO.C,Q2*
X48220000Y65855000D02*
X48220000Y67405000D01*
X50020000Y67405000D02*
X50020000Y66105000D01*
G04 #@! TO.C,C17*
X33625000Y58912164D02*
X33625000Y59127836D01*
X32905000Y58912164D02*
X32905000Y59127836D01*
G04 #@! TO.C,C3*
X36697164Y68200000D02*
X36912836Y68200000D01*
X36697164Y68920000D02*
X36912836Y68920000D01*
G04 #@! TO.C,R7*
X66858641Y12920000D02*
X66551359Y12920000D01*
X66858641Y12160000D02*
X66551359Y12160000D01*
D13*
G04 #@! TO.C,U3*
X31815000Y64235000D02*
G75*
G03*
X31815000Y64235000I-100000J0D01*
G01*
D11*
G04 #@! TO.C,C9*
X68425000Y23912164D02*
X68425000Y24127836D01*
X69145000Y23912164D02*
X69145000Y24127836D01*
G04 #@! TO.C,C19*
X50935000Y33492164D02*
X50935000Y33707836D01*
X51655000Y33492164D02*
X51655000Y33707836D01*
G04 #@! TO.C,C2*
X74617836Y14945000D02*
X74402164Y14945000D01*
X74617836Y14225000D02*
X74402164Y14225000D01*
G04 #@! TO.C,R15*
X48665000Y22333641D02*
X48665000Y22026359D01*
X47905000Y22333641D02*
X47905000Y22026359D01*
G04 #@! TO.C,R12*
X70355000Y65966359D02*
X70355000Y66273641D01*
X69595000Y65966359D02*
X69595000Y66273641D01*
G04 #@! TO.C,C11*
X89335000Y33492164D02*
X89335000Y33707836D01*
X90055000Y33492164D02*
X90055000Y33707836D01*
D12*
G04 #@! TO.C,SW1*
X56835000Y49560000D02*
X57835000Y49560000D01*
X57835000Y49560000D02*
X57835000Y47760000D01*
X57835000Y47760000D02*
X56835000Y47760000D01*
X56835000Y47760000D02*
X56835000Y49560000D01*
D11*
G04 #@! TO.C,R10*
X39105000Y60706359D02*
X39105000Y61013641D01*
X38345000Y60706359D02*
X38345000Y61013641D01*
G04 #@! TO.C,R1*
X92631359Y47450000D02*
X92938641Y47450000D01*
X92631359Y46690000D02*
X92938641Y46690000D01*
G04 #@! TO.C,C9*
X49645000Y23912164D02*
X49645000Y24127836D01*
X50365000Y23912164D02*
X50365000Y24127836D01*
G04 #@! TO.C,R14*
X91098641Y33170000D02*
X90791359Y33170000D01*
X91098641Y33930000D02*
X90791359Y33930000D01*
G04 #@! TO.C,FB1*
X58395000Y73546359D02*
X58395000Y73853641D01*
X57635000Y73546359D02*
X57635000Y73853641D01*
G04 #@! TO.C,R13*
X13245000Y17063641D02*
X13245000Y16756359D01*
X14005000Y17063641D02*
X14005000Y16756359D01*
G04 #@! TO.C,C13*
X85182836Y26570000D02*
X84967164Y26570000D01*
X85182836Y25850000D02*
X84967164Y25850000D01*
G04 #@! TO.C,R3*
X72035000Y47446359D02*
X72035000Y47753641D01*
X72795000Y47446359D02*
X72795000Y47753641D01*
G04 #@! TO.C,C14*
X34475000Y58912164D02*
X34475000Y59127836D01*
X33755000Y58912164D02*
X33755000Y59127836D01*
G04 #@! TO.C,R3*
X70425000Y35593641D02*
X70425000Y35286359D01*
X69665000Y35593641D02*
X69665000Y35286359D01*
G04 #@! TO.C,U2*
D14*
X87045709Y16975000D02*
G75*
G03*
X87045709Y16975000I-70709J0D01*
G01*
D11*
G04 #@! TO.C,R16*
X47351359Y31640000D02*
X47658641Y31640000D01*
X47351359Y30880000D02*
X47658641Y30880000D01*
X38768641Y52160000D02*
X38461359Y52160000D01*
X38768641Y51400000D02*
X38461359Y51400000D01*
G04 #@! TO.C,R11*
X29995000Y63576359D02*
X29995000Y63883641D01*
X29235000Y63576359D02*
X29235000Y63883641D01*
G04 #@! TO.C,R10*
X10215000Y22333641D02*
X10215000Y22026359D01*
X9455000Y22333641D02*
X9455000Y22026359D01*
G04 #@! TO.C,R3*
X51645000Y35593641D02*
X51645000Y35286359D01*
X50885000Y35593641D02*
X50885000Y35286359D01*
G04 #@! TO.C,R7*
X29298641Y12160000D02*
X28991359Y12160000D01*
X29298641Y12920000D02*
X28991359Y12920000D01*
G04 #@! TO.C,C2*
X11502164Y68815000D02*
X11717836Y68815000D01*
X11502164Y68095000D02*
X11717836Y68095000D01*
G04 #@! TO.C,C11*
X90685000Y49547836D02*
X90685000Y49332164D01*
X89965000Y49547836D02*
X89965000Y49332164D01*
G04 #@! TO.C,C5*
X54825000Y65867836D02*
X54825000Y65652164D01*
X55545000Y65867836D02*
X55545000Y65652164D01*
X11795000Y17172164D02*
X11795000Y17387836D01*
X12515000Y17172164D02*
X12515000Y17387836D01*
G04 #@! TO.C,U2*
D14*
X93115709Y66065000D02*
G75*
G03*
X93115709Y66065000I-70709J0D01*
G01*
D11*
G04 #@! TO.C,C14*
X14805000Y24127836D02*
X14805000Y23912164D01*
X14085000Y24127836D02*
X14085000Y23912164D01*
G04 #@! TO.C,C13*
X10062836Y26570000D02*
X9847164Y26570000D01*
X10062836Y25850000D02*
X9847164Y25850000D01*
G04 #@! TO.C,U4*
X74770000Y32420000D02*
X74770000Y31770000D01*
X74120000Y32420000D02*
X74770000Y32420000D01*
X68200000Y32420000D02*
X67550000Y32420000D01*
X68200000Y25200000D02*
X67550000Y25200000D01*
X67550000Y32420000D02*
X67550000Y31770000D01*
X67550000Y25200000D02*
X67550000Y25850000D01*
X74120000Y25200000D02*
X74770000Y25200000D01*
G04 #@! TO.C,C12*
X66392836Y30170000D02*
X66177164Y30170000D01*
X66392836Y29450000D02*
X66177164Y29450000D01*
G04 #@! TO.C,R6*
X95970000Y16331359D02*
X95970000Y16638641D01*
X95210000Y16331359D02*
X95210000Y16638641D01*
G04 #@! TO.C,C7*
X52525000Y35367836D02*
X52525000Y35152164D01*
X51805000Y35367836D02*
X51805000Y35152164D01*
G04 #@! TO.C,C14*
X53255000Y58912164D02*
X53255000Y59127836D01*
X52535000Y58912164D02*
X52535000Y59127836D01*
X15695000Y58912164D02*
X15695000Y59127836D01*
X14975000Y58912164D02*
X14975000Y59127836D01*
G04 #@! TO.C,C7*
X71155000Y47672164D02*
X71155000Y47887836D01*
X71875000Y47672164D02*
X71875000Y47887836D01*
G04 #@! TO.C,R7*
X85638641Y12920000D02*
X85331359Y12920000D01*
X85638641Y12160000D02*
X85331359Y12160000D01*
G04 #@! TO.C,C18*
X11235000Y24127836D02*
X11235000Y23912164D01*
X11955000Y24127836D02*
X11955000Y23912164D01*
G04 #@! TO.C,C16*
X87005000Y58912164D02*
X87005000Y59127836D01*
X86285000Y58912164D02*
X86285000Y59127836D01*
G04 #@! TO.C,R5*
X66328641Y67525000D02*
X66021359Y67525000D01*
X66328641Y68285000D02*
X66021359Y68285000D01*
G04 #@! TO.C,C8*
X30495000Y47887836D02*
X30495000Y47672164D01*
X29775000Y47887836D02*
X29775000Y47672164D01*
G04 #@! TO.C,F1*
X86117779Y14910000D02*
X85792221Y14910000D01*
X86117779Y15930000D02*
X85792221Y15930000D01*
G04 #@! TO.C,C7*
X14965000Y35367836D02*
X14965000Y35152164D01*
X14245000Y35367836D02*
X14245000Y35152164D01*
G04 #@! TO.C,C15*
X66507836Y53865000D02*
X66292164Y53865000D01*
X66507836Y53145000D02*
X66292164Y53145000D01*
G04 #@! TO.C,R13*
X72115000Y65976359D02*
X72115000Y66283641D01*
X72875000Y65976359D02*
X72875000Y66283641D01*
G04 #@! TO.C,C12*
X76067164Y52870000D02*
X76282836Y52870000D01*
X76067164Y53590000D02*
X76282836Y53590000D01*
G04 #@! TO.C,C1*
X66282836Y68420000D02*
X66067164Y68420000D01*
X66282836Y69140000D02*
X66067164Y69140000D01*
G04 #@! TO.C,R6*
X76430000Y16331359D02*
X76430000Y16638641D01*
X77190000Y16331359D02*
X77190000Y16638641D01*
G04 #@! TO.C,C10*
X73185000Y59127836D02*
X73185000Y58912164D01*
X72465000Y59127836D02*
X72465000Y58912164D01*
G04 #@! TO.C,C9*
X54535000Y59127836D02*
X54535000Y58912164D01*
X55255000Y59127836D02*
X55255000Y58912164D01*
G04 #@! TO.C,R2*
X36155000Y17073641D02*
X36155000Y16766359D01*
X35395000Y17073641D02*
X35395000Y16766359D01*
D12*
G04 #@! TO.C,SW1*
X66845000Y33480000D02*
X65845000Y33480000D01*
X65845000Y33480000D02*
X65845000Y35280000D01*
X65845000Y35280000D02*
X66845000Y35280000D01*
X66845000Y35280000D02*
X66845000Y33480000D01*
D11*
G04 #@! TO.C,C18*
X30735000Y24127836D02*
X30735000Y23912164D01*
X30015000Y24127836D02*
X30015000Y23912164D01*
G04 #@! TO.C,R9*
X11181359Y65570000D02*
X11488641Y65570000D01*
X11181359Y64810000D02*
X11488641Y64810000D01*
D12*
G04 #@! TO.C,D2*
X67115000Y23085000D02*
G75*
G03*
X67115000Y23085000I-50000J0D01*
G01*
D11*
G04 #@! TO.C,C19*
X90805000Y49547836D02*
X90805000Y49332164D01*
X91525000Y49547836D02*
X91525000Y49332164D01*
G04 #@! TO.C,C10*
X13655000Y23912164D02*
X13655000Y24127836D01*
X12935000Y23912164D02*
X12935000Y24127836D01*
G04 #@! TO.C,C12*
X94847164Y52870000D02*
X95062836Y52870000D01*
X94847164Y53590000D02*
X95062836Y53590000D01*
G04 #@! TO.C,C6*
X10382836Y18440000D02*
X10167164Y18440000D01*
X10382836Y19160000D02*
X10167164Y19160000D01*
G04 #@! TO.C,C9*
X31585000Y23912164D02*
X31585000Y24127836D01*
X30865000Y23912164D02*
X30865000Y24127836D01*
G04 #@! TO.C,R15*
X19435000Y60706359D02*
X19435000Y61013641D01*
X18675000Y60706359D02*
X18675000Y61013641D01*
G04 #@! TO.C,C1*
X9942836Y69140000D02*
X9727164Y69140000D01*
X9942836Y68420000D02*
X9727164Y68420000D01*
G04 #@! TO.C,Y1*
X35560902Y35360000D02*
G75*
G03*
X35560902Y35360000I-55902J0D01*
G01*
G04 #@! TO.C,C9*
X12805000Y23912164D02*
X12805000Y24127836D01*
X12085000Y23912164D02*
X12085000Y24127836D01*
G04 #@! TO.C,R6*
X20090000Y16331359D02*
X20090000Y16638641D01*
X20850000Y16331359D02*
X20850000Y16638641D01*
G04 #@! TO.C,R14*
X72318641Y33930000D02*
X72011359Y33930000D01*
X72318641Y33170000D02*
X72011359Y33170000D01*
G04 #@! TO.C,C1*
X76177164Y13900000D02*
X76392836Y13900000D01*
X76177164Y14620000D02*
X76392836Y14620000D01*
G04 #@! TO.C,C10*
X53685000Y59127836D02*
X53685000Y58912164D01*
X54405000Y59127836D02*
X54405000Y58912164D01*
G04 #@! TO.C,C14*
X89205000Y24127836D02*
X89205000Y23912164D01*
X89925000Y24127836D02*
X89925000Y23912164D01*
G04 #@! TO.C,C11*
X14845000Y49547836D02*
X14845000Y49332164D01*
X15565000Y49547836D02*
X15565000Y49332164D01*
G04 #@! TO.C,Y1*
X54340902Y35360000D02*
G75*
G03*
X54340902Y35360000I-55902J0D01*
G01*
G04 #@! TO.C,C7*
X71305000Y35367836D02*
X71305000Y35152164D01*
X70585000Y35367836D02*
X70585000Y35152164D01*
G04 #@! TO.C,U5*
X47320000Y60380000D02*
X47320000Y61930000D01*
X49120000Y61930000D02*
X49120000Y60630000D01*
G04 #@! TO.C,R13*
X32785000Y17063641D02*
X32785000Y16756359D01*
X32025000Y17063641D02*
X32025000Y16756359D01*
G04 #@! TO.C,R15*
X94555000Y60706359D02*
X94555000Y61013641D01*
X93795000Y60706359D02*
X93795000Y61013641D01*
G04 #@! TO.C,R11*
X19325000Y19463641D02*
X19325000Y19156359D01*
X18565000Y19463641D02*
X18565000Y19156359D01*
G04 #@! TO.C,F1*
X18782221Y68130000D02*
X19107779Y68130000D01*
X18782221Y67110000D02*
X19107779Y67110000D01*
G04 #@! TO.C,R13*
X15775000Y65976359D02*
X15775000Y66283641D01*
X16535000Y65976359D02*
X16535000Y66283641D01*
G04 #@! TO.C,R7*
X48078641Y12920000D02*
X47771359Y12920000D01*
X48078641Y12160000D02*
X47771359Y12160000D01*
G04 #@! TO.C,R1*
X12268641Y35590000D02*
X11961359Y35590000D01*
X12268641Y36350000D02*
X11961359Y36350000D01*
G04 #@! TO.C,R12*
X53325000Y17073641D02*
X53325000Y16766359D01*
X54085000Y17073641D02*
X54085000Y16766359D01*
G04 #@! TO.C,R6*
X39630000Y16331359D02*
X39630000Y16638641D01*
X38870000Y16331359D02*
X38870000Y16638641D01*
G04 #@! TO.C,R17*
X57241359Y51285000D02*
X57548641Y51285000D01*
X57241359Y50525000D02*
X57548641Y50525000D01*
G04 #@! TO.C,R14*
X53538641Y33170000D02*
X53231359Y33170000D01*
X53538641Y33930000D02*
X53231359Y33930000D01*
G04 #@! TO.C,C11*
X71275000Y33492164D02*
X71275000Y33707836D01*
X70555000Y33492164D02*
X70555000Y33707836D01*
G04 #@! TO.C,C10*
X91245000Y59127836D02*
X91245000Y58912164D01*
X91965000Y59127836D02*
X91965000Y58912164D01*
D12*
G04 #@! TO.C,D2*
X75445000Y59955000D02*
G75*
G03*
X75445000Y59955000I-50000J0D01*
G01*
D11*
G04 #@! TO.C,R11*
X11215000Y63576359D02*
X11215000Y63883641D01*
X10455000Y63576359D02*
X10455000Y63883641D01*
D12*
G04 #@! TO.C,SW1*
X29285000Y33480000D02*
X28285000Y33480000D01*
X28285000Y33480000D02*
X28285000Y35280000D01*
X28285000Y35280000D02*
X29285000Y35280000D01*
X29285000Y35280000D02*
X29285000Y33480000D01*
D11*
G04 #@! TO.C,C13*
X28842836Y26570000D02*
X28627164Y26570000D01*
X28842836Y25850000D02*
X28627164Y25850000D01*
G04 #@! TO.C,C12*
X38507164Y53590000D02*
X38722836Y53590000D01*
X38507164Y52870000D02*
X38722836Y52870000D01*
X57287164Y53590000D02*
X57502836Y53590000D01*
X57287164Y52870000D02*
X57502836Y52870000D01*
G04 #@! TO.C,F1*
X10997779Y14910000D02*
X10672221Y14910000D01*
X10997779Y15930000D02*
X10672221Y15930000D01*
G04 #@! TO.C,C4*
X66555000Y17172164D02*
X66555000Y17387836D01*
X65835000Y17172164D02*
X65835000Y17387836D01*
G04 #@! TO.C,R8*
X48068641Y70120000D02*
X47761359Y70120000D01*
X48068641Y70880000D02*
X47761359Y70880000D01*
G04 #@! TO.C,C18*
X93665000Y58912164D02*
X93665000Y59127836D01*
X92945000Y58912164D02*
X92945000Y59127836D01*
G04 #@! TO.C,C17*
X71995000Y24127836D02*
X71995000Y23912164D01*
X71275000Y24127836D02*
X71275000Y23912164D01*
X14125000Y58912164D02*
X14125000Y59127836D01*
X14845000Y58912164D02*
X14845000Y59127836D01*
G04 #@! TO.C,C11*
X52495000Y33492164D02*
X52495000Y33707836D01*
X51775000Y33492164D02*
X51775000Y33707836D01*
G04 #@! TO.C,R4*
X94945000Y16638641D02*
X94945000Y16331359D01*
X94185000Y16638641D02*
X94185000Y16331359D01*
G04 #@! TO.C,F1*
X67337779Y15930000D02*
X67012221Y15930000D01*
X67337779Y14910000D02*
X67012221Y14910000D01*
G04 #@! TO.C,U4*
X18430000Y32420000D02*
X18430000Y31770000D01*
X11860000Y25200000D02*
X11210000Y25200000D01*
X11210000Y25200000D02*
X11210000Y25850000D01*
X17780000Y25200000D02*
X18430000Y25200000D01*
X11860000Y32420000D02*
X11210000Y32420000D01*
X11210000Y32420000D02*
X11210000Y31770000D01*
X17780000Y32420000D02*
X18430000Y32420000D01*
G04 #@! TO.C,R8*
X56831359Y12160000D02*
X57138641Y12160000D01*
X56831359Y12920000D02*
X57138641Y12920000D01*
G04 #@! TO.C,U1*
X13995000Y66930000D02*
X13995000Y65030000D01*
X15795000Y65330000D02*
X15795000Y66930000D01*
G04 #@! TO.C,R17*
X47658641Y32515000D02*
X47351359Y32515000D01*
X47658641Y31755000D02*
X47351359Y31755000D01*
G04 #@! TO.C,C3*
X93037164Y68920000D02*
X93252836Y68920000D01*
X93037164Y68200000D02*
X93252836Y68200000D01*
G04 #@! TO.C,Q2*
X75460000Y17185000D02*
X75460000Y15635000D01*
X73660000Y15635000D02*
X73660000Y16935000D01*
G04 #@! TO.C,R2*
X13165000Y65966359D02*
X13165000Y66273641D01*
X12405000Y65966359D02*
X12405000Y66273641D01*
G04 #@! TO.C,C5*
X92385000Y65867836D02*
X92385000Y65652164D01*
X93105000Y65867836D02*
X93105000Y65652164D01*
G04 #@! TO.C,Q2*
X12460000Y67405000D02*
X12460000Y66105000D01*
X10660000Y65855000D02*
X10660000Y67405000D01*
G04 #@! TO.C,R9*
X93718641Y17470000D02*
X93411359Y17470000D01*
X93718641Y18230000D02*
X93411359Y18230000D01*
D12*
G04 #@! TO.C,D1*
X47445000Y23075000D02*
G75*
G03*
X47445000Y23075000I-50000J0D01*
G01*
D11*
G04 #@! TO.C,U1*
X51545000Y17710000D02*
X51545000Y16110000D01*
X53345000Y16110000D02*
X53345000Y18010000D01*
G04 #@! TO.C,U4*
X68340000Y50620000D02*
X67690000Y50620000D01*
X74260000Y50620000D02*
X74910000Y50620000D01*
X74260000Y57840000D02*
X74910000Y57840000D01*
X67690000Y50620000D02*
X67690000Y51270000D01*
X74910000Y50620000D02*
X74910000Y51270000D01*
X74910000Y57840000D02*
X74910000Y57190000D01*
X68340000Y57840000D02*
X67690000Y57840000D01*
G04 #@! TO.C,C15*
X19612164Y29895000D02*
X19827836Y29895000D01*
X19612164Y29175000D02*
X19827836Y29175000D01*
D12*
G04 #@! TO.C,SW1*
X10505000Y33480000D02*
X9505000Y33480000D01*
X9505000Y33480000D02*
X9505000Y35280000D01*
X9505000Y35280000D02*
X10505000Y35280000D01*
X10505000Y35280000D02*
X10505000Y33480000D01*
D11*
G04 #@! TO.C,R7*
X10518641Y12160000D02*
X10211359Y12160000D01*
X10518641Y12920000D02*
X10211359Y12920000D01*
G04 #@! TO.C,Q2*
X31240000Y67405000D02*
X31240000Y66105000D01*
X29440000Y65855000D02*
X29440000Y67405000D01*
G04 #@! TO.C,C10*
X16845000Y59127836D02*
X16845000Y58912164D01*
X16125000Y59127836D02*
X16125000Y58912164D01*
G04 #@! TO.C,F1*
X56342221Y68130000D02*
X56667779Y68130000D01*
X56342221Y67110000D02*
X56667779Y67110000D01*
D13*
G04 #@! TO.C,U3*
X54505000Y18805000D02*
G75*
G03*
X54505000Y18805000I-100000J0D01*
G01*
D11*
G04 #@! TO.C,Y1*
X88230902Y47680000D02*
G75*
G03*
X88230902Y47680000I-55902J0D01*
G01*
G04 #@! TO.C,R4*
X38605000Y16638641D02*
X38605000Y16331359D01*
X37845000Y16638641D02*
X37845000Y16331359D01*
G04 #@! TO.C,C3*
X55477164Y68200000D02*
X55692836Y68200000D01*
X55477164Y68920000D02*
X55692836Y68920000D01*
G04 #@! TO.C,C4*
X76625000Y65867836D02*
X76625000Y65652164D01*
X75905000Y65867836D02*
X75905000Y65652164D01*
G04 #@! TO.C,C18*
X49515000Y24127836D02*
X49515000Y23912164D01*
X48795000Y24127836D02*
X48795000Y23912164D01*
G04 #@! TO.C,U5*
X76360000Y22660000D02*
X76360000Y21110000D01*
X74560000Y21110000D02*
X74560000Y22410000D01*
G04 #@! TO.C,C4*
X47775000Y17172164D02*
X47775000Y17387836D01*
X47055000Y17172164D02*
X47055000Y17387836D01*
G04 #@! TO.C,R3*
X14085000Y35593641D02*
X14085000Y35286359D01*
X13325000Y35593641D02*
X13325000Y35286359D01*
G04 #@! TO.C,R9*
X29961359Y65570000D02*
X30268641Y65570000D01*
X29961359Y64810000D02*
X30268641Y64810000D01*
G04 #@! TO.C,C13*
X19717164Y56470000D02*
X19932836Y56470000D01*
X19717164Y57190000D02*
X19932836Y57190000D01*
G04 #@! TO.C,C15*
X75952164Y29895000D02*
X76167836Y29895000D01*
X75952164Y29175000D02*
X76167836Y29175000D01*
G04 #@! TO.C,R11*
X56125000Y19463641D02*
X56125000Y19156359D01*
X56885000Y19463641D02*
X56885000Y19156359D01*
G04 #@! TO.C,U5*
X84880000Y60380000D02*
X84880000Y61930000D01*
X86680000Y61930000D02*
X86680000Y60630000D01*
G04 #@! TO.C,C4*
X28995000Y17172164D02*
X28995000Y17387836D01*
X28275000Y17172164D02*
X28275000Y17387836D01*
G04 #@! TO.C,R8*
X94391359Y12160000D02*
X94698641Y12160000D01*
X94391359Y12920000D02*
X94698641Y12920000D01*
G04 #@! TO.C,R16*
X19988641Y51400000D02*
X19681359Y51400000D01*
X19988641Y52160000D02*
X19681359Y52160000D01*
G04 #@! TO.C,F1*
X75122221Y67110000D02*
X75447779Y67110000D01*
X75122221Y68130000D02*
X75447779Y68130000D01*
G04 #@! TO.C,R5*
X19791359Y15515000D02*
X20098641Y15515000D01*
X19791359Y14755000D02*
X20098641Y14755000D01*
G04 #@! TO.C,C18*
X55385000Y58912164D02*
X55385000Y59127836D01*
X56105000Y58912164D02*
X56105000Y59127836D01*
G04 #@! TO.C,F1*
X48557779Y14910000D02*
X48232221Y14910000D01*
X48557779Y15930000D02*
X48232221Y15930000D01*
G04 #@! TO.C,C11*
X33715000Y33492164D02*
X33715000Y33707836D01*
X32995000Y33492164D02*
X32995000Y33707836D01*
G04 #@! TO.C,R10*
X84575000Y22333641D02*
X84575000Y22026359D01*
X85335000Y22333641D02*
X85335000Y22026359D01*
G04 #@! TO.C,R7*
X56821359Y70880000D02*
X57128641Y70880000D01*
X56821359Y70120000D02*
X57128641Y70120000D01*
G04 #@! TO.C,R8*
X29288641Y70880000D02*
X28981359Y70880000D01*
X29288641Y70120000D02*
X28981359Y70120000D01*
G04 #@! TO.C,C7*
X90085000Y35367836D02*
X90085000Y35152164D01*
X89365000Y35367836D02*
X89365000Y35152164D01*
G04 #@! TO.C,U2*
D14*
X11925709Y16975000D02*
G75*
G03*
X11925709Y16975000I-70709J0D01*
G01*
D11*
G04 #@! TO.C,C11*
X33625000Y49547836D02*
X33625000Y49332164D01*
X34345000Y49547836D02*
X34345000Y49332164D01*
G04 #@! TO.C,R4*
X66295000Y66401359D02*
X66295000Y66708641D01*
X67055000Y66401359D02*
X67055000Y66708641D01*
G04 #@! TO.C,C13*
X94837164Y57190000D02*
X95052836Y57190000D01*
X94837164Y56470000D02*
X95052836Y56470000D01*
G04 #@! TO.C,R14*
X32581359Y49110000D02*
X32888641Y49110000D01*
X32581359Y49870000D02*
X32888641Y49870000D01*
D13*
G04 #@! TO.C,U3*
X16945000Y18805000D02*
G75*
G03*
X16945000Y18805000I-100000J0D01*
G01*
D11*
G04 #@! TO.C,C19*
X72745000Y49547836D02*
X72745000Y49332164D01*
X72025000Y49547836D02*
X72025000Y49332164D01*
G04 #@! TO.C,U2*
D14*
X68265709Y16975000D02*
G75*
G03*
X68265709Y16975000I-70709J0D01*
G01*
D11*
G04 #@! TO.C,R13*
X90895000Y65976359D02*
X90895000Y66283641D01*
X91655000Y65976359D02*
X91655000Y66283641D01*
G04 #@! TO.C,C2*
X30282164Y68095000D02*
X30497836Y68095000D01*
X30282164Y68815000D02*
X30497836Y68815000D01*
D12*
G04 #@! TO.C,D1*
X95115000Y59965000D02*
G75*
G03*
X95115000Y59965000I-50000J0D01*
G01*
D11*
G04 #@! TO.C,R7*
X94381359Y70120000D02*
X94688641Y70120000D01*
X94381359Y70880000D02*
X94688641Y70880000D01*
G04 #@! TO.C,R10*
X47775000Y22333641D02*
X47775000Y22026359D01*
X47015000Y22333641D02*
X47015000Y22026359D01*
G04 #@! TO.C,C6*
X85502836Y19160000D02*
X85287164Y19160000D01*
X85502836Y18440000D02*
X85287164Y18440000D01*
G04 #@! TO.C,U2*
D14*
X49485709Y16975000D02*
G75*
G03*
X49485709Y16975000I-70709J0D01*
G01*
D11*
G04 #@! TO.C,C10*
X34905000Y59127836D02*
X34905000Y58912164D01*
X35625000Y59127836D02*
X35625000Y58912164D01*
G04 #@! TO.C,R12*
X15765000Y17073641D02*
X15765000Y16766359D01*
X16525000Y17073641D02*
X16525000Y16766359D01*
G04 #@! TO.C,C4*
X19565000Y65867836D02*
X19565000Y65652164D01*
X20285000Y65867836D02*
X20285000Y65652164D01*
G04 #@! TO.C,C13*
X76057164Y57190000D02*
X76272836Y57190000D01*
X76057164Y56470000D02*
X76272836Y56470000D01*
D12*
G04 #@! TO.C,D1*
X28665000Y23075000D02*
G75*
G03*
X28665000Y23075000I-50000J0D01*
G01*
D11*
G04 #@! TO.C,C7*
X15535000Y47672164D02*
X15535000Y47887836D01*
X14815000Y47672164D02*
X14815000Y47887836D01*
G04 #@! TO.C,C16*
X18615000Y24127836D02*
X18615000Y23912164D01*
X17895000Y24127836D02*
X17895000Y23912164D01*
G04 #@! TO.C,R17*
X19681359Y51285000D02*
X19988641Y51285000D01*
X19681359Y50525000D02*
X19988641Y50525000D01*
G04 #@! TO.C,R12*
X32795000Y65966359D02*
X32795000Y66273641D01*
X32035000Y65966359D02*
X32035000Y66273641D01*
G04 #@! TO.C,R2*
X91735000Y17073641D02*
X91735000Y16766359D01*
X92495000Y17073641D02*
X92495000Y16766359D01*
G04 #@! TO.C,C3*
X11862836Y14120000D02*
X11647164Y14120000D01*
X11862836Y14840000D02*
X11647164Y14840000D01*
G04 #@! TO.C,C17*
X52495000Y24127836D02*
X52495000Y23912164D01*
X53215000Y24127836D02*
X53215000Y23912164D01*
G04 #@! TO.C,FB1*
X27725000Y9493641D02*
X27725000Y9186359D01*
X28485000Y9493641D02*
X28485000Y9186359D01*
G04 #@! TO.C,C13*
X47622836Y25850000D02*
X47407164Y25850000D01*
X47622836Y26570000D02*
X47407164Y26570000D01*
G04 #@! TO.C,R2*
X16615000Y17073641D02*
X16615000Y16766359D01*
X17375000Y17073641D02*
X17375000Y16766359D01*
G04 #@! TO.C,C14*
X52365000Y24127836D02*
X52365000Y23912164D01*
X51645000Y24127836D02*
X51645000Y23912164D01*
G04 #@! TO.C,R14*
X15978641Y33170000D02*
X15671359Y33170000D01*
X15978641Y33930000D02*
X15671359Y33930000D01*
G04 #@! TO.C,R3*
X32865000Y35593641D02*
X32865000Y35286359D01*
X32105000Y35593641D02*
X32105000Y35286359D01*
G04 #@! TO.C,R1*
X55071359Y46690000D02*
X55378641Y46690000D01*
X55071359Y47450000D02*
X55378641Y47450000D01*
G04 #@! TO.C,C5*
X36045000Y65867836D02*
X36045000Y65652164D01*
X36765000Y65867836D02*
X36765000Y65652164D01*
G04 #@! TO.C,R4*
X85075000Y66401359D02*
X85075000Y66708641D01*
X85835000Y66401359D02*
X85835000Y66708641D01*
G04 #@! TO.C,C18*
X17825000Y58912164D02*
X17825000Y59127836D01*
X18545000Y58912164D02*
X18545000Y59127836D01*
G04 #@! TO.C,Q2*
X54880000Y15635000D02*
X54880000Y16935000D01*
X56680000Y17185000D02*
X56680000Y15635000D01*
G04 #@! TO.C,R9*
X86301359Y65570000D02*
X86608641Y65570000D01*
X86301359Y64810000D02*
X86608641Y64810000D01*
G04 #@! TO.C,U1*
X53355000Y65330000D02*
X53355000Y66930000D01*
X51555000Y66930000D02*
X51555000Y65030000D01*
G04 #@! TO.C,R8*
X66848641Y70880000D02*
X66541359Y70880000D01*
X66848641Y70120000D02*
X66541359Y70120000D01*
G04 #@! TO.C,R17*
X38461359Y51285000D02*
X38768641Y51285000D01*
X38461359Y50525000D02*
X38768641Y50525000D01*
G04 #@! TO.C,R15*
X11105000Y22333641D02*
X11105000Y22026359D01*
X10345000Y22333641D02*
X10345000Y22026359D01*
G04 #@! TO.C,C2*
X18277836Y14945000D02*
X18062164Y14945000D01*
X18277836Y14225000D02*
X18062164Y14225000D01*
G04 #@! TO.C,U5*
X20020000Y22660000D02*
X20020000Y21110000D01*
X18220000Y21110000D02*
X18220000Y22410000D01*
G04 #@! TO.C,R13*
X89125000Y17063641D02*
X89125000Y16756359D01*
X88365000Y17063641D02*
X88365000Y16756359D01*
G04 #@! TO.C,C16*
X56175000Y24127836D02*
X56175000Y23912164D01*
X55455000Y24127836D02*
X55455000Y23912164D01*
G04 #@! TO.C,Q2*
X68800000Y67405000D02*
X68800000Y66105000D01*
X67000000Y65855000D02*
X67000000Y67405000D01*
D12*
G04 #@! TO.C,SW1*
X85625000Y33480000D02*
X84625000Y33480000D01*
X84625000Y33480000D02*
X84625000Y35280000D01*
X84625000Y35280000D02*
X85625000Y35280000D01*
X85625000Y35280000D02*
X85625000Y33480000D01*
D11*
G04 #@! TO.C,C15*
X47727836Y53865000D02*
X47512164Y53865000D01*
X47727836Y53145000D02*
X47512164Y53145000D01*
G04 #@! TO.C,Y1*
X91900902Y35360000D02*
G75*
G03*
X91900902Y35360000I-55902J0D01*
G01*
G04 #@! TO.C,R16*
X66131359Y31640000D02*
X66438641Y31640000D01*
X66131359Y30880000D02*
X66438641Y30880000D01*
G04 #@! TO.C,R15*
X85465000Y22333641D02*
X85465000Y22026359D01*
X86225000Y22333641D02*
X86225000Y22026359D01*
G04 #@! TO.C,R17*
X66438641Y31755000D02*
X66131359Y31755000D01*
X66438641Y32515000D02*
X66131359Y32515000D01*
G04 #@! TO.C,R13*
X70345000Y17063641D02*
X70345000Y16756359D01*
X69585000Y17063641D02*
X69585000Y16756359D01*
G04 #@! TO.C,R9*
X74938641Y17470000D02*
X74631359Y17470000D01*
X74938641Y18230000D02*
X74631359Y18230000D01*
D12*
G04 #@! TO.C,D1*
X57555000Y59965000D02*
G75*
G03*
X57555000Y59965000I-50000J0D01*
G01*
D11*
G04 #@! TO.C,C1*
X47502836Y68420000D02*
X47287164Y68420000D01*
X47502836Y69140000D02*
X47287164Y69140000D01*
G04 #@! TO.C,R15*
X67445000Y22333641D02*
X67445000Y22026359D01*
X66685000Y22333641D02*
X66685000Y22026359D01*
G04 #@! TO.C,C6*
X29162836Y19160000D02*
X28947164Y19160000D01*
X29162836Y18440000D02*
X28947164Y18440000D01*
G04 #@! TO.C,R16*
X95108641Y52160000D02*
X94801359Y52160000D01*
X95108641Y51400000D02*
X94801359Y51400000D01*
G04 #@! TO.C,R13*
X54095000Y65976359D02*
X54095000Y66283641D01*
X53335000Y65976359D02*
X53335000Y66283641D01*
G04 #@! TO.C,C1*
X19837164Y14620000D02*
X20052836Y14620000D01*
X19837164Y13900000D02*
X20052836Y13900000D01*
G04 #@! TO.C,U1*
X90905000Y16110000D02*
X90905000Y18010000D01*
X89105000Y17710000D02*
X89105000Y16110000D01*
G04 #@! TO.C,R12*
X34545000Y17073641D02*
X34545000Y16766359D01*
X35305000Y17073641D02*
X35305000Y16766359D01*
G04 #@! TO.C,C11*
X14935000Y33492164D02*
X14935000Y33707836D01*
X14215000Y33492164D02*
X14215000Y33707836D01*
G04 #@! TO.C,R11*
X38105000Y19463641D02*
X38105000Y19156359D01*
X37345000Y19463641D02*
X37345000Y19156359D01*
D12*
G04 #@! TO.C,D2*
X10775000Y23085000D02*
G75*
G03*
X10775000Y23085000I-50000J0D01*
G01*
D11*
G04 #@! TO.C,Q1*
X91875000Y48060000D02*
X91875000Y49360000D01*
X93675000Y49610000D02*
X93675000Y48060000D01*
G04 #@! TO.C,R7*
X19261359Y70880000D02*
X19568641Y70880000D01*
X19261359Y70120000D02*
X19568641Y70120000D01*
G04 #@! TO.C,U5*
X9760000Y60380000D02*
X9760000Y61930000D01*
X11560000Y61930000D02*
X11560000Y60630000D01*
G04 #@! TO.C,R12*
X90885000Y17073641D02*
X90885000Y16766359D01*
X91645000Y17073641D02*
X91645000Y16766359D01*
G04 #@! TO.C,Y1*
X69450902Y47680000D02*
G75*
G03*
X69450902Y47680000I-55902J0D01*
G01*
G04 #@! TO.C,FB1*
X8945000Y9493641D02*
X8945000Y9186359D01*
X9705000Y9493641D02*
X9705000Y9186359D01*
G04 #@! TO.C,R15*
X29125000Y22333641D02*
X29125000Y22026359D01*
X29885000Y22333641D02*
X29885000Y22026359D01*
D13*
G04 #@! TO.C,U3*
X50595000Y64235000D02*
G75*
G03*
X50595000Y64235000I-100000J0D01*
G01*
D11*
G04 #@! TO.C,C2*
X37057836Y14225000D02*
X36842164Y14225000D01*
X37057836Y14945000D02*
X36842164Y14945000D01*
D13*
G04 #@! TO.C,U3*
X69375000Y64235000D02*
G75*
G03*
X69375000Y64235000I-100000J0D01*
G01*
D11*
G04 #@! TO.C,C17*
X15655000Y24127836D02*
X15655000Y23912164D01*
X14935000Y24127836D02*
X14935000Y23912164D01*
G04 #@! TO.C,C14*
X33585000Y24127836D02*
X33585000Y23912164D01*
X32865000Y24127836D02*
X32865000Y23912164D01*
G04 #@! TO.C,R16*
X84911359Y31640000D02*
X85218641Y31640000D01*
X84911359Y30880000D02*
X85218641Y30880000D01*
G04 #@! TO.C,R9*
X48741359Y65570000D02*
X49048641Y65570000D01*
X48741359Y64810000D02*
X49048641Y64810000D01*
G04 #@! TO.C,Q1*
X54315000Y48060000D02*
X54315000Y49360000D01*
X56115000Y49610000D02*
X56115000Y48060000D01*
G04 #@! TO.C,FB1*
X95955000Y73546359D02*
X95955000Y73853641D01*
X95195000Y73546359D02*
X95195000Y73853641D01*
G04 #@! TO.C,U5*
X28540000Y60380000D02*
X28540000Y61930000D01*
X30340000Y61930000D02*
X30340000Y60630000D01*
G04 #@! TO.C,FB1*
X77175000Y73546359D02*
X77175000Y73853641D01*
X76415000Y73546359D02*
X76415000Y73853641D01*
G04 #@! TO.C,C13*
X66402836Y26570000D02*
X66187164Y26570000D01*
X66402836Y25850000D02*
X66187164Y25850000D01*
G04 #@! TO.C,C5*
X68855000Y17172164D02*
X68855000Y17387836D01*
X68135000Y17172164D02*
X68135000Y17387836D01*
D12*
G04 #@! TO.C,D2*
X56665000Y59955000D02*
G75*
G03*
X56665000Y59955000I-50000J0D01*
G01*
D11*
G04 #@! TO.C,C12*
X19727164Y52870000D02*
X19942836Y52870000D01*
X19727164Y53590000D02*
X19942836Y53590000D01*
G04 #@! TO.C,C5*
X86915000Y17172164D02*
X86915000Y17387836D01*
X87635000Y17172164D02*
X87635000Y17387836D01*
G04 #@! TO.C,U4*
X30780000Y57840000D02*
X30130000Y57840000D01*
X37350000Y57840000D02*
X37350000Y57190000D01*
X30130000Y50620000D02*
X30130000Y51270000D01*
X37350000Y50620000D02*
X37350000Y51270000D01*
X36700000Y50620000D02*
X37350000Y50620000D01*
X36700000Y57840000D02*
X37350000Y57840000D01*
X30780000Y50620000D02*
X30130000Y50620000D01*
G04 #@! TO.C,C8*
X48555000Y47887836D02*
X48555000Y47672164D01*
X49275000Y47887836D02*
X49275000Y47672164D01*
G04 #@! TO.C,C5*
X74325000Y65867836D02*
X74325000Y65652164D01*
X73605000Y65867836D02*
X73605000Y65652164D01*
G04 #@! TO.C,C15*
X57172164Y29895000D02*
X57387836Y29895000D01*
X57172164Y29175000D02*
X57387836Y29175000D01*
X38392164Y29895000D02*
X38607836Y29895000D01*
X38392164Y29175000D02*
X38607836Y29175000D01*
G04 #@! TO.C,R6*
X58410000Y16331359D02*
X58410000Y16638641D01*
X57650000Y16331359D02*
X57650000Y16638641D01*
G04 #@! TO.C,C9*
X92815000Y59127836D02*
X92815000Y58912164D01*
X92095000Y59127836D02*
X92095000Y58912164D01*
G04 #@! TO.C,R3*
X88445000Y35593641D02*
X88445000Y35286359D01*
X89205000Y35593641D02*
X89205000Y35286359D01*
G04 #@! TO.C,C8*
X68055000Y47887836D02*
X68055000Y47672164D01*
X67335000Y47887836D02*
X67335000Y47672164D01*
G04 #@! TO.C,U4*
X93040000Y50620000D02*
X93690000Y50620000D01*
X87120000Y50620000D02*
X86470000Y50620000D01*
X87120000Y57840000D02*
X86470000Y57840000D01*
X93690000Y50620000D02*
X93690000Y51270000D01*
X93040000Y57840000D02*
X93690000Y57840000D01*
X93690000Y57840000D02*
X93690000Y57190000D01*
X86470000Y50620000D02*
X86470000Y51270000D01*
D12*
G04 #@! TO.C,D1*
X66225000Y23075000D02*
G75*
G03*
X66225000Y23075000I-50000J0D01*
G01*
D11*
G04 #@! TO.C,R2*
X68745000Y65966359D02*
X68745000Y66273641D01*
X69505000Y65966359D02*
X69505000Y66273641D01*
X31945000Y65966359D02*
X31945000Y66273641D01*
X31185000Y65966359D02*
X31185000Y66273641D01*
G04 #@! TO.C,Q2*
X94240000Y17185000D02*
X94240000Y15635000D01*
X92440000Y15635000D02*
X92440000Y16935000D01*
G04 #@! TO.C,Q1*
X86345000Y33430000D02*
X86345000Y34980000D01*
X88145000Y34980000D02*
X88145000Y33680000D01*
G04 #@! TO.C,U1*
X70325000Y17710000D02*
X70325000Y16110000D01*
X72125000Y16110000D02*
X72125000Y18010000D01*
G04 #@! TO.C,R14*
X88921359Y49870000D02*
X89228641Y49870000D01*
X88921359Y49110000D02*
X89228641Y49110000D01*
G04 #@! TO.C,Q1*
X37335000Y49610000D02*
X37335000Y48060000D01*
X35535000Y48060000D02*
X35535000Y49360000D01*
G04 #@! TO.C,C13*
X38497164Y57190000D02*
X38712836Y57190000D01*
X38497164Y56470000D02*
X38712836Y56470000D01*
G04 #@! TO.C,R2*
X54175000Y17073641D02*
X54175000Y16766359D01*
X54935000Y17073641D02*
X54935000Y16766359D01*
D12*
G04 #@! TO.C,D2*
X29555000Y23085000D02*
G75*
G03*
X29555000Y23085000I-50000J0D01*
G01*
D11*
G04 #@! TO.C,R17*
X10098641Y32515000D02*
X9791359Y32515000D01*
X10098641Y31755000D02*
X9791359Y31755000D01*
G04 #@! TO.C,U2*
D14*
X74335709Y66065000D02*
G75*
G03*
X74335709Y66065000I-70709J0D01*
G01*
D11*
G04 #@! TO.C,C16*
X30665000Y58912164D02*
X30665000Y59127836D01*
X29945000Y58912164D02*
X29945000Y59127836D01*
G04 #@! TO.C,U2*
D14*
X36775709Y66065000D02*
G75*
G03*
X36775709Y66065000I-70709J0D01*
G01*
D11*
G04 #@! TO.C,U1*
X72135000Y65330000D02*
X72135000Y66930000D01*
X70335000Y66930000D02*
X70335000Y65030000D01*
G04 #@! TO.C,C9*
X87925000Y23912164D02*
X87925000Y24127836D01*
X87205000Y23912164D02*
X87205000Y24127836D01*
G04 #@! TO.C,C8*
X10995000Y47887836D02*
X10995000Y47672164D01*
X11715000Y47887836D02*
X11715000Y47672164D01*
G04 #@! TO.C,R3*
X15695000Y47446359D02*
X15695000Y47753641D01*
X16455000Y47446359D02*
X16455000Y47753641D01*
G04 #@! TO.C,C15*
X28947836Y53865000D02*
X28732164Y53865000D01*
X28947836Y53145000D02*
X28732164Y53145000D01*
G04 #@! TO.C,F1*
X93902221Y67110000D02*
X94227779Y67110000D01*
X93902221Y68130000D02*
X94227779Y68130000D01*
D13*
G04 #@! TO.C,U3*
X92065000Y18805000D02*
G75*
G03*
X92065000Y18805000I-100000J0D01*
G01*
G04 #@! TO.C,U2*
D14*
X55555709Y66065000D02*
G75*
G03*
X55555709Y66065000I-70709J0D01*
G01*
D11*
G04 #@! TO.C,C17*
X90775000Y24127836D02*
X90775000Y23912164D01*
X90055000Y24127836D02*
X90055000Y23912164D01*
D12*
G04 #@! TO.C,D1*
X76335000Y59965000D02*
G75*
G03*
X76335000Y59965000I-50000J0D01*
G01*
D11*
G04 #@! TO.C,C1*
X94957164Y13900000D02*
X95172836Y13900000D01*
X94957164Y14620000D02*
X95172836Y14620000D01*
G04 #@! TO.C,R8*
X75611359Y12920000D02*
X75918641Y12920000D01*
X75611359Y12160000D02*
X75918641Y12160000D01*
G04 #@! TO.C,R10*
X65795000Y22333641D02*
X65795000Y22026359D01*
X66555000Y22333641D02*
X66555000Y22026359D01*
G04 #@! TO.C,C5*
X17265000Y65867836D02*
X17265000Y65652164D01*
X17985000Y65867836D02*
X17985000Y65652164D01*
G04 #@! TO.C,C9*
X16975000Y59127836D02*
X16975000Y58912164D01*
X17695000Y59127836D02*
X17695000Y58912164D01*
G04 #@! TO.C,Q1*
X67565000Y33430000D02*
X67565000Y34980000D01*
X69365000Y34980000D02*
X69365000Y33680000D01*
G04 #@! TO.C,FB1*
X84825000Y9493641D02*
X84825000Y9186359D01*
X84065000Y9493641D02*
X84065000Y9186359D01*
G04 #@! TO.C,Q1*
X73095000Y48060000D02*
X73095000Y49360000D01*
X74895000Y49610000D02*
X74895000Y48060000D01*
G04 #@! TO.C,U1*
X13985000Y17710000D02*
X13985000Y16110000D01*
X15785000Y16110000D02*
X15785000Y18010000D01*
G04 #@! TO.C,C9*
X36475000Y59127836D02*
X36475000Y58912164D01*
X35755000Y59127836D02*
X35755000Y58912164D01*
G04 #@! TO.C,C2*
X49062164Y68095000D02*
X49277836Y68095000D01*
X49062164Y68815000D02*
X49277836Y68815000D01*
G04 #@! TO.C,C6*
X38177164Y63880000D02*
X38392836Y63880000D01*
X38177164Y64600000D02*
X38392836Y64600000D01*
G04 #@! TO.C,U4*
X49560000Y57840000D02*
X48910000Y57840000D01*
X49560000Y50620000D02*
X48910000Y50620000D01*
X56130000Y50620000D02*
X56130000Y51270000D01*
X55480000Y57840000D02*
X56130000Y57840000D01*
X55480000Y50620000D02*
X56130000Y50620000D01*
X56130000Y57840000D02*
X56130000Y57190000D01*
X48910000Y50620000D02*
X48910000Y51270000D01*
D12*
G04 #@! TO.C,D2*
X85895000Y23085000D02*
G75*
G03*
X85895000Y23085000I-50000J0D01*
G01*
D11*
G04 #@! TO.C,C12*
X28832836Y29450000D02*
X28617164Y29450000D01*
X28832836Y30170000D02*
X28617164Y30170000D01*
G04 #@! TO.C,C1*
X57397164Y14620000D02*
X57612836Y14620000D01*
X57397164Y13900000D02*
X57612836Y13900000D01*
D13*
G04 #@! TO.C,U3*
X13035000Y64235000D02*
G75*
G03*
X13035000Y64235000I-100000J0D01*
G01*
D11*
G04 #@! TO.C,R10*
X75905000Y60706359D02*
X75905000Y61013641D01*
X76665000Y60706359D02*
X76665000Y61013641D01*
G04 #@! TO.C,U4*
X12000000Y50620000D02*
X11350000Y50620000D01*
X18570000Y50620000D02*
X18570000Y51270000D01*
X17920000Y57840000D02*
X18570000Y57840000D01*
X12000000Y57840000D02*
X11350000Y57840000D01*
X18570000Y57840000D02*
X18570000Y57190000D01*
X11350000Y50620000D02*
X11350000Y51270000D01*
X17920000Y50620000D02*
X18570000Y50620000D01*
G04 #@! TO.C,R2*
X49965000Y65966359D02*
X49965000Y66273641D01*
X50725000Y65966359D02*
X50725000Y66273641D01*
G04 #@! TO.C,R14*
X13801359Y49110000D02*
X14108641Y49110000D01*
X13801359Y49870000D02*
X14108641Y49870000D01*
G04 #@! TO.C,C10*
X88775000Y23912164D02*
X88775000Y24127836D01*
X88055000Y23912164D02*
X88055000Y24127836D01*
G04 #@! TO.C,Y1*
X31890902Y47680000D02*
G75*
G03*
X31890902Y47680000I-55902J0D01*
G01*
G04 #@! TO.C,FB1*
X39615000Y73546359D02*
X39615000Y73853641D01*
X38855000Y73546359D02*
X38855000Y73853641D01*
G04 #@! TO.C,F1*
X37562221Y68130000D02*
X37887779Y68130000D01*
X37562221Y67110000D02*
X37887779Y67110000D01*
G04 #@! TO.C,C14*
X72035000Y58912164D02*
X72035000Y59127836D01*
X71315000Y58912164D02*
X71315000Y59127836D01*
D12*
G04 #@! TO.C,D2*
X37885000Y59955000D02*
G75*
G03*
X37885000Y59955000I-50000J0D01*
G01*
D11*
G04 #@! TO.C,C8*
X86115000Y47887836D02*
X86115000Y47672164D01*
X86835000Y47887836D02*
X86835000Y47672164D01*
G04 #@! TO.C,C15*
X85287836Y53145000D02*
X85072164Y53145000D01*
X85287836Y53865000D02*
X85072164Y53865000D01*
G04 #@! TO.C,C3*
X86982836Y14120000D02*
X86767164Y14120000D01*
X86982836Y14840000D02*
X86767164Y14840000D01*
G04 #@! TO.C,C10*
X51215000Y23912164D02*
X51215000Y24127836D01*
X50495000Y23912164D02*
X50495000Y24127836D01*
G04 #@! TO.C,R2*
X73715000Y17073641D02*
X73715000Y16766359D01*
X72955000Y17073641D02*
X72955000Y16766359D01*
G04 #@! TO.C,R15*
X75775000Y60706359D02*
X75775000Y61013641D01*
X75015000Y60706359D02*
X75015000Y61013641D01*
G04 #@! TO.C,FB1*
X20835000Y73546359D02*
X20835000Y73853641D01*
X20075000Y73546359D02*
X20075000Y73853641D01*
G04 #@! TO.C,U2*
D14*
X30705709Y16975000D02*
G75*
G03*
X30705709Y16975000I-70709J0D01*
G01*
D11*
G04 #@! TO.C,R11*
X66795000Y63576359D02*
X66795000Y63883641D01*
X67555000Y63576359D02*
X67555000Y63883641D01*
G04 #@! TO.C,R5*
X76131359Y15515000D02*
X76438641Y15515000D01*
X76131359Y14755000D02*
X76438641Y14755000D01*
G04 #@! TO.C,R15*
X56995000Y60706359D02*
X56995000Y61013641D01*
X56235000Y60706359D02*
X56235000Y61013641D01*
D12*
G04 #@! TO.C,D1*
X19995000Y59965000D02*
G75*
G03*
X19995000Y59965000I-50000J0D01*
G01*
D11*
G04 #@! TO.C,R10*
X28995000Y22333641D02*
X28995000Y22026359D01*
X28235000Y22333641D02*
X28235000Y22026359D01*
G04 #@! TO.C,R5*
X9988641Y67525000D02*
X9681359Y67525000D01*
X9988641Y68285000D02*
X9681359Y68285000D01*
G04 #@! TO.C,R3*
X53255000Y47446359D02*
X53255000Y47753641D01*
X54015000Y47446359D02*
X54015000Y47753641D01*
G04 #@! TO.C,R17*
X85218641Y31755000D02*
X84911359Y31755000D01*
X85218641Y32515000D02*
X84911359Y32515000D01*
G04 #@! TO.C,C16*
X11885000Y58912164D02*
X11885000Y59127836D01*
X11165000Y58912164D02*
X11165000Y59127836D01*
G04 #@! TO.C,C8*
X55625000Y35152164D02*
X55625000Y35367836D01*
X56345000Y35152164D02*
X56345000Y35367836D01*
G04 #@! TO.C,Y1*
X16780902Y35360000D02*
G75*
G03*
X16780902Y35360000I-55902J0D01*
G01*
G04 #@! TO.C,R16*
X9791359Y30880000D02*
X10098641Y30880000D01*
X9791359Y31640000D02*
X10098641Y31640000D01*
G04 #@! TO.C,C15*
X94732164Y29895000D02*
X94947836Y29895000D01*
X94732164Y29175000D02*
X94947836Y29175000D01*
G04 #@! TO.C,C2*
X93397836Y14225000D02*
X93182164Y14225000D01*
X93397836Y14945000D02*
X93182164Y14945000D01*
G04 #@! TO.C,C19*
X53245000Y49547836D02*
X53245000Y49332164D01*
X53965000Y49547836D02*
X53965000Y49332164D01*
D12*
G04 #@! TO.C,SW1*
X94395000Y49560000D02*
X95395000Y49560000D01*
X95395000Y49560000D02*
X95395000Y47760000D01*
X95395000Y47760000D02*
X94395000Y47760000D01*
X94395000Y47760000D02*
X94395000Y49560000D01*
D11*
G04 #@! TO.C,R1*
X31048641Y36350000D02*
X30741359Y36350000D01*
X31048641Y35590000D02*
X30741359Y35590000D01*
G04 #@! TO.C,R14*
X70141359Y49870000D02*
X70448641Y49870000D01*
X70141359Y49110000D02*
X70448641Y49110000D01*
G04 #@! TO.C,R1*
X36291359Y47450000D02*
X36598641Y47450000D01*
X36291359Y46690000D02*
X36598641Y46690000D01*
D12*
G04 #@! TO.C,D2*
X94225000Y59955000D02*
G75*
G03*
X94225000Y59955000I-50000J0D01*
G01*
D11*
G04 #@! TO.C,Q2*
X87580000Y67405000D02*
X87580000Y66105000D01*
X85780000Y65855000D02*
X85780000Y67405000D01*
G04 #@! TO.C,C12*
X47612836Y29450000D02*
X47397164Y29450000D01*
X47612836Y30170000D02*
X47397164Y30170000D01*
G04 #@! TO.C,R10*
X19565000Y60706359D02*
X19565000Y61013641D01*
X20325000Y60706359D02*
X20325000Y61013641D01*
G04 #@! TO.C,R11*
X94445000Y19463641D02*
X94445000Y19156359D01*
X93685000Y19463641D02*
X93685000Y19156359D01*
G04 #@! TO.C,C18*
X74885000Y58912164D02*
X74885000Y59127836D01*
X74165000Y58912164D02*
X74165000Y59127836D01*
G04 #@! TO.C,C1*
X38617164Y13900000D02*
X38832836Y13900000D01*
X38617164Y14620000D02*
X38832836Y14620000D01*
G04 #@! TO.C,C4*
X95405000Y65867836D02*
X95405000Y65652164D01*
X94685000Y65867836D02*
X94685000Y65652164D01*
G04 #@! TO.C,FB1*
X47265000Y9493641D02*
X47265000Y9186359D01*
X46505000Y9493641D02*
X46505000Y9186359D01*
G04 #@! TO.C,C5*
X50075000Y17172164D02*
X50075000Y17387836D01*
X49355000Y17172164D02*
X49355000Y17387836D01*
G04 #@! TO.C,R5*
X28768641Y68285000D02*
X28461359Y68285000D01*
X28768641Y67525000D02*
X28461359Y67525000D01*
G04 #@! TO.C,C6*
X47942836Y18440000D02*
X47727164Y18440000D01*
X47942836Y19160000D02*
X47727164Y19160000D01*
G04 #@! TO.C,U5*
X67900000Y61930000D02*
X67900000Y60630000D01*
X66100000Y60380000D02*
X66100000Y61930000D01*
G04 #@! TO.C,R1*
X87388641Y35590000D02*
X87081359Y35590000D01*
X87388641Y36350000D02*
X87081359Y36350000D01*
G04 #@! TO.C,C19*
X16405000Y49547836D02*
X16405000Y49332164D01*
X15685000Y49547836D02*
X15685000Y49332164D01*
D13*
G04 #@! TO.C,U3*
X35725000Y18805000D02*
G75*
G03*
X35725000Y18805000I-100000J0D01*
G01*
D11*
G04 #@! TO.C,R11*
X48775000Y63576359D02*
X48775000Y63883641D01*
X48015000Y63576359D02*
X48015000Y63883641D01*
G04 #@! TO.C,R12*
X89135000Y65966359D02*
X89135000Y66273641D01*
X88375000Y65966359D02*
X88375000Y66273641D01*
G04 #@! TO.C,C3*
X30642836Y14120000D02*
X30427164Y14120000D01*
X30642836Y14840000D02*
X30427164Y14840000D01*
G04 #@! TO.C,C8*
X37565000Y35152164D02*
X37565000Y35367836D01*
X36845000Y35152164D02*
X36845000Y35367836D01*
G04 #@! TO.C,R7*
X38041359Y70120000D02*
X38348641Y70120000D01*
X38041359Y70880000D02*
X38348641Y70880000D01*
G04 #@! TO.C,C19*
X89215000Y33492164D02*
X89215000Y33707836D01*
X88495000Y33492164D02*
X88495000Y33707836D01*
G04 #@! TO.C,R15*
X38215000Y60706359D02*
X38215000Y61013641D01*
X37455000Y60706359D02*
X37455000Y61013641D01*
G04 #@! TO.C,C11*
X52405000Y49547836D02*
X52405000Y49332164D01*
X53125000Y49547836D02*
X53125000Y49332164D01*
G04 #@! TO.C,C16*
X68225000Y58912164D02*
X68225000Y59127836D01*
X67505000Y58912164D02*
X67505000Y59127836D01*
G04 #@! TO.C,R4*
X56625000Y16638641D02*
X56625000Y16331359D01*
X57385000Y16638641D02*
X57385000Y16331359D01*
G04 #@! TO.C,R10*
X95445000Y60706359D02*
X95445000Y61013641D01*
X94685000Y60706359D02*
X94685000Y61013641D01*
G04 #@! TO.C,R5*
X47548641Y67525000D02*
X47241359Y67525000D01*
X47548641Y68285000D02*
X47241359Y68285000D01*
G04 #@! TO.C,R1*
X68608641Y35590000D02*
X68301359Y35590000D01*
X68608641Y36350000D02*
X68301359Y36350000D01*
G04 #@! TO.C,R13*
X51565000Y17063641D02*
X51565000Y16756359D01*
X50805000Y17063641D02*
X50805000Y16756359D01*
G04 #@! TO.C,C19*
X70435000Y33492164D02*
X70435000Y33707836D01*
X69715000Y33492164D02*
X69715000Y33707836D01*
G04 #@! TO.C,U5*
X93340000Y21110000D02*
X93340000Y22410000D01*
X95140000Y22660000D02*
X95140000Y21110000D01*
G04 #@! TO.C,Q1*
X11225000Y33430000D02*
X11225000Y34980000D01*
X13025000Y34980000D02*
X13025000Y33680000D01*
G04 #@! TO.C,U2*
D14*
X17995709Y66065000D02*
G75*
G03*
X17995709Y66065000I-70709J0D01*
G01*
D11*
G04 #@! TO.C,C19*
X13375000Y33492164D02*
X13375000Y33707836D01*
X14095000Y33492164D02*
X14095000Y33707836D01*
G04 #@! TO.C,R4*
X19065000Y16638641D02*
X19065000Y16331359D01*
X19825000Y16638641D02*
X19825000Y16331359D01*
G04 #@! TO.C,Q1*
X16755000Y48060000D02*
X16755000Y49360000D01*
X18555000Y49610000D02*
X18555000Y48060000D01*
D13*
G04 #@! TO.C,U3*
X88155000Y64235000D02*
G75*
G03*
X88155000Y64235000I-100000J0D01*
G01*
D11*
G04 #@! TO.C,R5*
X94911359Y14755000D02*
X95218641Y14755000D01*
X94911359Y15515000D02*
X95218641Y15515000D01*
G04 #@! TO.C,C4*
X57845000Y65867836D02*
X57845000Y65652164D01*
X57125000Y65867836D02*
X57125000Y65652164D01*
G04 #@! TO.C,R1*
X49828641Y35590000D02*
X49521359Y35590000D01*
X49828641Y36350000D02*
X49521359Y36350000D01*
G04 #@! TO.C,R8*
X10508641Y70880000D02*
X10201359Y70880000D01*
X10508641Y70120000D02*
X10201359Y70120000D01*
G04 #@! TO.C,C7*
X33745000Y35367836D02*
X33745000Y35152164D01*
X33025000Y35367836D02*
X33025000Y35152164D01*
G04 #@! TO.C,R16*
X28571359Y31640000D02*
X28878641Y31640000D01*
X28571359Y30880000D02*
X28878641Y30880000D01*
G04 #@! TO.C,C6*
X19397164Y63880000D02*
X19612836Y63880000D01*
X19397164Y64600000D02*
X19612836Y64600000D01*
G04 #@! TO.C,C8*
X18785000Y35152164D02*
X18785000Y35367836D01*
X18065000Y35152164D02*
X18065000Y35367836D01*
G04 #@! TO.C,R11*
X85575000Y63576359D02*
X85575000Y63883641D01*
X86335000Y63576359D02*
X86335000Y63883641D01*
G04 #@! TO.C,Q2*
X36100000Y15635000D02*
X36100000Y16935000D01*
X37900000Y17185000D02*
X37900000Y15635000D01*
G04 #@! TO.C,R8*
X85628641Y70120000D02*
X85321359Y70120000D01*
X85628641Y70880000D02*
X85321359Y70880000D01*
G04 #@! TO.C,C15*
X10167836Y53865000D02*
X9952164Y53865000D01*
X10167836Y53145000D02*
X9952164Y53145000D01*
G04 #@! TO.C,C16*
X37395000Y24127836D02*
X37395000Y23912164D01*
X36675000Y24127836D02*
X36675000Y23912164D01*
G04 #@! TO.C,U1*
X32765000Y17710000D02*
X32765000Y16110000D01*
X34565000Y16110000D02*
X34565000Y18010000D01*
G04 #@! TO.C,FB1*
X65285000Y9493641D02*
X65285000Y9186359D01*
X66045000Y9493641D02*
X66045000Y9186359D01*
G04 #@! TO.C,C12*
X85172836Y29450000D02*
X84957164Y29450000D01*
X85172836Y30170000D02*
X84957164Y30170000D01*
G04 #@! TO.C,R12*
X72105000Y17073641D02*
X72105000Y16766359D01*
X72865000Y17073641D02*
X72865000Y16766359D01*
G04 #@! TO.C,C16*
X48725000Y58912164D02*
X48725000Y59127836D01*
X49445000Y58912164D02*
X49445000Y59127836D01*
G04 #@! TO.C,R5*
X38571359Y14755000D02*
X38878641Y14755000D01*
X38571359Y15515000D02*
X38878641Y15515000D01*
G04 #@! TO.C,C18*
X68295000Y24127836D02*
X68295000Y23912164D01*
X67575000Y24127836D02*
X67575000Y23912164D01*
G04 #@! TO.C,R13*
X35315000Y65976359D02*
X35315000Y66283641D01*
X34555000Y65976359D02*
X34555000Y66283641D01*
G04 #@! TO.C,R1*
X73851359Y46690000D02*
X74158641Y46690000D01*
X73851359Y47450000D02*
X74158641Y47450000D01*
G04 #@! TO.C,R5*
X85108641Y68285000D02*
X84801359Y68285000D01*
X85108641Y67525000D02*
X84801359Y67525000D01*
G04 #@! TO.C,C8*
X75125000Y35152164D02*
X75125000Y35367836D01*
X74405000Y35152164D02*
X74405000Y35367836D01*
G04 #@! TO.C,C13*
X57277164Y56470000D02*
X57492836Y56470000D01*
X57277164Y57190000D02*
X57492836Y57190000D01*
G04 #@! TO.C,R12*
X13255000Y65966359D02*
X13255000Y66273641D01*
X14015000Y65966359D02*
X14015000Y66273641D01*
G04 #@! TO.C,R2*
X88285000Y65966359D02*
X88285000Y66273641D01*
X87525000Y65966359D02*
X87525000Y66273641D01*
G04 #@! TO.C,R9*
X67521359Y65570000D02*
X67828641Y65570000D01*
X67521359Y64810000D02*
X67828641Y64810000D01*
G04 #@! TO.C,U4*
X37210000Y32420000D02*
X37210000Y31770000D01*
X30640000Y32420000D02*
X29990000Y32420000D01*
X30640000Y25200000D02*
X29990000Y25200000D01*
X29990000Y25200000D02*
X29990000Y25850000D01*
X29990000Y32420000D02*
X29990000Y31770000D01*
X36560000Y32420000D02*
X37210000Y32420000D01*
X36560000Y25200000D02*
X37210000Y25200000D01*
G04 #@! TO.C,C9*
X74035000Y59127836D02*
X74035000Y58912164D01*
X73315000Y59127836D02*
X73315000Y58912164D01*
G04 #@! TO.C,C11*
X71185000Y49547836D02*
X71185000Y49332164D01*
X71905000Y49547836D02*
X71905000Y49332164D01*
D12*
G04 #@! TO.C,D2*
X48335000Y23085000D02*
G75*
G03*
X48335000Y23085000I-50000J0D01*
G01*
D11*
G04 #@! TO.C,R10*
X57125000Y60706359D02*
X57125000Y61013641D01*
X57885000Y60706359D02*
X57885000Y61013641D01*
G04 #@! TO.C,R4*
X9955000Y66401359D02*
X9955000Y66708641D01*
X10715000Y66401359D02*
X10715000Y66708641D01*
G04 #@! TO.C,C6*
X56957164Y64600000D02*
X57172836Y64600000D01*
X56957164Y63880000D02*
X57172836Y63880000D01*
G04 #@! TO.C,R6*
X9690000Y66708641D02*
X9690000Y66401359D01*
X8930000Y66708641D02*
X8930000Y66401359D01*
G04 #@! TO.C,R9*
X18598641Y18230000D02*
X18291359Y18230000D01*
X18598641Y17470000D02*
X18291359Y17470000D01*
D12*
G04 #@! TO.C,SW1*
X48065000Y33480000D02*
X47065000Y33480000D01*
X47065000Y33480000D02*
X47065000Y35280000D01*
X47065000Y35280000D02*
X48065000Y35280000D01*
X48065000Y35280000D02*
X48065000Y33480000D01*
D11*
G04 #@! TO.C,R16*
X76328641Y52160000D02*
X76021359Y52160000D01*
X76328641Y51400000D02*
X76021359Y51400000D01*
G04 #@! TO.C,R14*
X51361359Y49870000D02*
X51668641Y49870000D01*
X51361359Y49110000D02*
X51668641Y49110000D01*
D12*
G04 #@! TO.C,D1*
X85005000Y23075000D02*
G75*
G03*
X85005000Y23075000I-50000J0D01*
G01*
D11*
G04 #@! TO.C,C6*
X94517164Y64600000D02*
X94732836Y64600000D01*
X94517164Y63880000D02*
X94732836Y63880000D01*
G04 #@! TO.C,C17*
X70465000Y58912164D02*
X70465000Y59127836D01*
X71185000Y58912164D02*
X71185000Y59127836D01*
G04 #@! TO.C,U4*
X55340000Y25200000D02*
X55990000Y25200000D01*
X55340000Y32420000D02*
X55990000Y32420000D01*
X48770000Y25200000D02*
X48770000Y25850000D01*
X48770000Y32420000D02*
X48770000Y31770000D01*
X49420000Y25200000D02*
X48770000Y25200000D01*
X55990000Y32420000D02*
X55990000Y31770000D01*
X49420000Y32420000D02*
X48770000Y32420000D01*
G04 #@! TO.C,C3*
X49422836Y14840000D02*
X49207164Y14840000D01*
X49422836Y14120000D02*
X49207164Y14120000D01*
G04 #@! TO.C,C19*
X35185000Y49547836D02*
X35185000Y49332164D01*
X34465000Y49547836D02*
X34465000Y49332164D01*
G04 #@! TO.C,C2*
X86622164Y68095000D02*
X86837836Y68095000D01*
X86622164Y68815000D02*
X86837836Y68815000D01*
D12*
G04 #@! TO.C,SW1*
X38055000Y49560000D02*
X39055000Y49560000D01*
X39055000Y49560000D02*
X39055000Y47760000D01*
X39055000Y47760000D02*
X38055000Y47760000D01*
X38055000Y47760000D02*
X38055000Y49560000D01*
D11*
G04 #@! TO.C,Y1*
X13110902Y47680000D02*
G75*
G03*
X13110902Y47680000I-55902J0D01*
G01*
G04 #@! TO.C,U1*
X34575000Y65330000D02*
X34575000Y66930000D01*
X32775000Y66930000D02*
X32775000Y65030000D01*
G04 #@! TO.C,C1*
X28722836Y68420000D02*
X28507164Y68420000D01*
X28722836Y69140000D02*
X28507164Y69140000D01*
G04 #@! TO.C,R17*
X76021359Y50525000D02*
X76328641Y50525000D01*
X76021359Y51285000D02*
X76328641Y51285000D01*
G04 #@! TO.C,C4*
X39065000Y65867836D02*
X39065000Y65652164D01*
X38345000Y65867836D02*
X38345000Y65652164D01*
G04 #@! TO.C,R14*
X34758641Y33170000D02*
X34451359Y33170000D01*
X34758641Y33930000D02*
X34451359Y33930000D01*
G04 #@! TO.C,C7*
X90655000Y47672164D02*
X90655000Y47887836D01*
X89935000Y47672164D02*
X89935000Y47887836D01*
G04 #@! TO.C,R17*
X94801359Y50525000D02*
X95108641Y50525000D01*
X94801359Y51285000D02*
X95108641Y51285000D01*
G04 #@! TO.C,C16*
X74235000Y24127836D02*
X74235000Y23912164D01*
X74955000Y24127836D02*
X74955000Y23912164D01*
G04 #@! TO.C,C2*
X67842164Y68095000D02*
X68057836Y68095000D01*
X67842164Y68815000D02*
X68057836Y68815000D01*
G04 #@! TO.C,U5*
X55780000Y21110000D02*
X55780000Y22410000D01*
X57580000Y22660000D02*
X57580000Y21110000D01*
G04 #@! TO.C,R6*
X65270000Y66708641D02*
X65270000Y66401359D01*
X66030000Y66708641D02*
X66030000Y66401359D01*
G04 #@! TO.C,C7*
X33595000Y47672164D02*
X33595000Y47887836D01*
X34315000Y47672164D02*
X34315000Y47887836D01*
G04 #@! TO.C,C12*
X10052836Y30170000D02*
X9837164Y30170000D01*
X10052836Y29450000D02*
X9837164Y29450000D01*
G04 #@! TO.C,R6*
X47250000Y66708641D02*
X47250000Y66401359D01*
X46490000Y66708641D02*
X46490000Y66401359D01*
G04 #@! TO.C,C6*
X66722836Y18440000D02*
X66507164Y18440000D01*
X66722836Y19160000D02*
X66507164Y19160000D01*
G04 #@! TO.C,C2*
X55837836Y14945000D02*
X55622164Y14945000D01*
X55837836Y14225000D02*
X55622164Y14225000D01*
G04 #@! TO.C,C10*
X31715000Y23912164D02*
X31715000Y24127836D01*
X32435000Y23912164D02*
X32435000Y24127836D01*
D12*
G04 #@! TO.C,D2*
X19105000Y59955000D02*
G75*
G03*
X19105000Y59955000I-50000J0D01*
G01*
D11*
G04 #@! TO.C,R9*
X56158641Y18230000D02*
X55851359Y18230000D01*
X56158641Y17470000D02*
X55851359Y17470000D01*
G04 #@! TO.C,C7*
X53095000Y47672164D02*
X53095000Y47887836D01*
X52375000Y47672164D02*
X52375000Y47887836D01*
G04 #@! TO.C,C6*
X75737164Y63880000D02*
X75952836Y63880000D01*
X75737164Y64600000D02*
X75952836Y64600000D01*
G04 #@! TO.C,C3*
X17917164Y68200000D02*
X18132836Y68200000D01*
X17917164Y68920000D02*
X18132836Y68920000D01*
G04 #@! TO.C,C10*
X69275000Y23912164D02*
X69275000Y24127836D01*
X69995000Y23912164D02*
X69995000Y24127836D01*
G04 #@! TO.C,R3*
X91575000Y47446359D02*
X91575000Y47753641D01*
X90815000Y47446359D02*
X90815000Y47753641D01*
G04 #@! TO.C,R8*
X38051359Y12160000D02*
X38358641Y12160000D01*
X38051359Y12920000D02*
X38358641Y12920000D01*
G04 #@! TO.C,Q2*
X19120000Y17185000D02*
X19120000Y15635000D01*
X17320000Y15635000D02*
X17320000Y16935000D01*
G04 #@! TO.C,R16*
X57548641Y51400000D02*
X57241359Y51400000D01*
X57548641Y52160000D02*
X57241359Y52160000D01*
G04 #@! TO.C,C14*
X90815000Y58912164D02*
X90815000Y59127836D01*
X90095000Y58912164D02*
X90095000Y59127836D01*
G04 #@! TO.C,Y1*
X50670902Y47680000D02*
G75*
G03*
X50670902Y47680000I-55902J0D01*
G01*
G04 #@! TO.C,R17*
X28878641Y31755000D02*
X28571359Y31755000D01*
X28878641Y32515000D02*
X28571359Y32515000D01*
G04 #@! TD*
M02*
