G04 #@! TF.GenerationSoftware,KiCad,Pcbnew,(6.0.7)*
G04 #@! TF.CreationDate,2022-09-19T22:01:38+02:00*
G04 #@! TF.ProjectId,helios-panel,68656c69-6f73-42d7-9061-6e656c2e6b69,rev1.0*
G04 #@! TF.SameCoordinates,Original*
G04 #@! TF.FileFunction,Other,Comment*
%FSLAX46Y46*%
G04 Gerber Fmt 4.6, Leading zero omitted, Abs format (unit mm)*
G04 Created by KiCad (PCBNEW (6.0.7)) date 2022-09-19 22:01:38*
%MOMM*%
%LPD*%
G01*
G04 APERTURE LIST*
%ADD10C,0.400000*%
G04 APERTURE END LIST*
D10*
X-3000000Y39020000D02*
X107900000Y39020000D01*
X-3000000Y85040000D02*
X107900000Y85040000D01*
X6000000Y94040000D02*
X6000000Y-3000000D01*
X-3000000Y52020000D02*
X107900000Y52020000D01*
X-3000000Y6000000D02*
X107900000Y6000000D01*
X98900000Y94040000D02*
X98900000Y-3000000D01*
X111350476Y86135239D02*
X112017142Y84135239D01*
X112683809Y86135239D01*
X113350476Y84897143D02*
X114874285Y84897143D01*
X116969523Y84325715D02*
X116874285Y84230477D01*
X116588571Y84135239D01*
X116398095Y84135239D01*
X116112380Y84230477D01*
X115921904Y84420953D01*
X115826666Y84611429D01*
X115731428Y84992381D01*
X115731428Y85278096D01*
X115826666Y85659048D01*
X115921904Y85849524D01*
X116112380Y86040000D01*
X116398095Y86135239D01*
X116588571Y86135239D01*
X116874285Y86040000D01*
X116969523Y85944762D01*
X117826666Y86135239D02*
X117826666Y84516191D01*
X117921904Y84325715D01*
X118017142Y84230477D01*
X118207619Y84135239D01*
X118588571Y84135239D01*
X118779047Y84230477D01*
X118874285Y84325715D01*
X118969523Y84516191D01*
X118969523Y86135239D01*
X119636190Y86135239D02*
X120779047Y86135239D01*
X120207619Y84135239D02*
X120207619Y86135239D01*
X111350476Y40115239D02*
X112017142Y38115239D01*
X112683809Y40115239D01*
X113350476Y38877143D02*
X114874285Y38877143D01*
X116969523Y38305715D02*
X116874285Y38210477D01*
X116588571Y38115239D01*
X116398095Y38115239D01*
X116112380Y38210477D01*
X115921904Y38400953D01*
X115826666Y38591429D01*
X115731428Y38972381D01*
X115731428Y39258096D01*
X115826666Y39639048D01*
X115921904Y39829524D01*
X116112380Y40020000D01*
X116398095Y40115239D01*
X116588571Y40115239D01*
X116874285Y40020000D01*
X116969523Y39924762D01*
X117826666Y40115239D02*
X117826666Y38496191D01*
X117921904Y38305715D01*
X118017142Y38210477D01*
X118207619Y38115239D01*
X118588571Y38115239D01*
X118779047Y38210477D01*
X118874285Y38305715D01*
X118969523Y38496191D01*
X118969523Y40115239D01*
X119636190Y40115239D02*
X120779047Y40115239D01*
X120207619Y38115239D02*
X120207619Y40115239D01*
X111350476Y7095239D02*
X112017142Y5095239D01*
X112683809Y7095239D01*
X113350476Y5857143D02*
X114874285Y5857143D01*
X116969523Y5285715D02*
X116874285Y5190477D01*
X116588571Y5095239D01*
X116398095Y5095239D01*
X116112380Y5190477D01*
X115921904Y5380953D01*
X115826666Y5571429D01*
X115731428Y5952381D01*
X115731428Y6238096D01*
X115826666Y6619048D01*
X115921904Y6809524D01*
X116112380Y7000000D01*
X116398095Y7095239D01*
X116588571Y7095239D01*
X116874285Y7000000D01*
X116969523Y6904762D01*
X117826666Y7095239D02*
X117826666Y5476191D01*
X117921904Y5285715D01*
X118017142Y5190477D01*
X118207619Y5095239D01*
X118588571Y5095239D01*
X118779047Y5190477D01*
X118874285Y5285715D01*
X118969523Y5476191D01*
X118969523Y7095239D01*
X119636190Y7095239D02*
X120779047Y7095239D01*
X120207619Y5095239D02*
X120207619Y7095239D01*
X97804761Y97490477D02*
X99804761Y98157143D01*
X97804761Y98823810D01*
X99042857Y99490477D02*
X99042857Y101014286D01*
X99614285Y103109524D02*
X99709523Y103014286D01*
X99804761Y102728572D01*
X99804761Y102538096D01*
X99709523Y102252381D01*
X99519047Y102061905D01*
X99328571Y101966667D01*
X98947619Y101871429D01*
X98661904Y101871429D01*
X98280952Y101966667D01*
X98090476Y102061905D01*
X97900000Y102252381D01*
X97804761Y102538096D01*
X97804761Y102728572D01*
X97900000Y103014286D01*
X97995238Y103109524D01*
X97804761Y103966667D02*
X99423809Y103966667D01*
X99614285Y104061905D01*
X99709523Y104157143D01*
X99804761Y104347620D01*
X99804761Y104728572D01*
X99709523Y104919048D01*
X99614285Y105014286D01*
X99423809Y105109524D01*
X97804761Y105109524D01*
X97804761Y105776191D02*
X97804761Y106919047D01*
X99804761Y106347619D02*
X97804761Y106347619D01*
X4904761Y97490477D02*
X6904761Y98157143D01*
X4904761Y98823810D01*
X6142857Y99490477D02*
X6142857Y101014286D01*
X6714285Y103109524D02*
X6809523Y103014286D01*
X6904761Y102728572D01*
X6904761Y102538096D01*
X6809523Y102252381D01*
X6619047Y102061905D01*
X6428571Y101966667D01*
X6047619Y101871429D01*
X5761904Y101871429D01*
X5380952Y101966667D01*
X5190476Y102061905D01*
X5000000Y102252381D01*
X4904761Y102538096D01*
X4904761Y102728572D01*
X5000000Y103014286D01*
X5095238Y103109524D01*
X4904761Y103966667D02*
X6523809Y103966667D01*
X6714285Y104061905D01*
X6809523Y104157143D01*
X6904761Y104347620D01*
X6904761Y104728572D01*
X6809523Y104919048D01*
X6714285Y105014286D01*
X6523809Y105109524D01*
X4904761Y105109524D01*
X4904761Y105776191D02*
X4904761Y106919047D01*
X6904761Y106347619D02*
X4904761Y106347619D01*
X111350476Y53115239D02*
X112017142Y51115239D01*
X112683809Y53115239D01*
X113350476Y51877143D02*
X114874285Y51877143D01*
X116969523Y51305715D02*
X116874285Y51210477D01*
X116588571Y51115239D01*
X116398095Y51115239D01*
X116112380Y51210477D01*
X115921904Y51400953D01*
X115826666Y51591429D01*
X115731428Y51972381D01*
X115731428Y52258096D01*
X115826666Y52639048D01*
X115921904Y52829524D01*
X116112380Y53020000D01*
X116398095Y53115239D01*
X116588571Y53115239D01*
X116874285Y53020000D01*
X116969523Y52924762D01*
X117826666Y53115239D02*
X117826666Y51496191D01*
X117921904Y51305715D01*
X118017142Y51210477D01*
X118207619Y51115239D01*
X118588571Y51115239D01*
X118779047Y51210477D01*
X118874285Y51305715D01*
X118969523Y51496191D01*
X118969523Y53115239D01*
X119636190Y53115239D02*
X120779047Y53115239D01*
X120207619Y51115239D02*
X120207619Y53115239D01*
M02*
