G04 #@! TF.GenerationSoftware,KiCad,Pcbnew,(6.0.7)*
G04 #@! TF.CreationDate,2022-09-18T17:12:15+02:00*
G04 #@! TF.ProjectId,helios-panel,68656c69-6f73-42d7-9061-6e656c2e6b69,rev1.0*
G04 #@! TF.SameCoordinates,Original*
G04 #@! TF.FileFunction,Paste,Top*
G04 #@! TF.FilePolarity,Positive*
%FSLAX46Y46*%
G04 Gerber Fmt 4.6, Leading zero omitted, Abs format (unit mm)*
G04 Created by KiCad (PCBNEW (6.0.7)) date 2022-09-18 17:12:15*
%MOMM*%
%LPD*%
G01*
G04 APERTURE LIST*
G04 Aperture macros list*
%AMRoundRect*
0 Rectangle with rounded corners*
0 $1 Rounding radius*
0 $2 $3 $4 $5 $6 $7 $8 $9 X,Y pos of 4 corners*
0 Add a 4 corners polygon primitive as box body*
4,1,4,$2,$3,$4,$5,$6,$7,$8,$9,$2,$3,0*
0 Add four circle primitives for the rounded corners*
1,1,$1+$1,$2,$3*
1,1,$1+$1,$4,$5*
1,1,$1+$1,$6,$7*
1,1,$1+$1,$8,$9*
0 Add four rect primitives between the rounded corners*
20,1,$1+$1,$2,$3,$4,$5,0*
20,1,$1+$1,$4,$5,$6,$7,0*
20,1,$1+$1,$6,$7,$8,$9,0*
20,1,$1+$1,$8,$9,$2,$3,0*%
G04 Aperture macros list end*
%ADD10C,0.010000*%
%ADD11RoundRect,0.140000X-0.170000X0.140000X-0.170000X-0.140000X0.170000X-0.140000X0.170000X0.140000X0*%
%ADD12RoundRect,0.135000X0.135000X0.185000X-0.135000X0.185000X-0.135000X-0.185000X0.135000X-0.185000X0*%
%ADD13RoundRect,0.140000X-0.140000X-0.170000X0.140000X-0.170000X0.140000X0.170000X-0.140000X0.170000X0*%
%ADD14RoundRect,0.135000X-0.185000X0.135000X-0.185000X-0.135000X0.185000X-0.135000X0.185000X0.135000X0*%
%ADD15RoundRect,0.140000X0.170000X-0.140000X0.170000X0.140000X-0.170000X0.140000X-0.170000X-0.140000X0*%
%ADD16RoundRect,0.135000X-0.135000X-0.185000X0.135000X-0.185000X0.135000X0.185000X-0.135000X0.185000X0*%
%ADD17RoundRect,0.135000X0.185000X-0.135000X0.185000X0.135000X-0.185000X0.135000X-0.185000X-0.135000X0*%
%ADD18R,0.340000X0.700000*%
%ADD19RoundRect,0.140000X0.140000X0.170000X-0.140000X0.170000X-0.140000X-0.170000X0.140000X-0.170000X0*%
%ADD20RoundRect,0.137500X-0.137500X0.212500X-0.137500X-0.212500X0.137500X-0.212500X0.137500X0.212500X0*%
%ADD21RoundRect,0.249999X0.395001X0.395001X-0.395001X0.395001X-0.395001X-0.395001X0.395001X-0.395001X0*%
%ADD22RoundRect,0.050000X0.387500X0.050000X-0.387500X0.050000X-0.387500X-0.050000X0.387500X-0.050000X0*%
%ADD23RoundRect,0.050000X0.050000X0.387500X-0.050000X0.387500X-0.050000X-0.387500X0.050000X-0.387500X0*%
%ADD24R,0.600000X1.150000*%
%ADD25R,0.300000X1.150000*%
%ADD26RoundRect,0.147500X0.172500X-0.147500X0.172500X0.147500X-0.172500X0.147500X-0.172500X-0.147500X0*%
%ADD27RoundRect,0.147500X-0.172500X0.147500X-0.172500X-0.147500X0.172500X-0.147500X0.172500X0.147500X0*%
%ADD28R,1.150000X1.000000*%
%ADD29RoundRect,0.249999X-0.395001X-0.395001X0.395001X-0.395001X0.395001X0.395001X-0.395001X0.395001X0*%
%ADD30RoundRect,0.050000X-0.387500X-0.050000X0.387500X-0.050000X0.387500X0.050000X-0.387500X0.050000X0*%
%ADD31RoundRect,0.050000X-0.050000X-0.387500X0.050000X-0.387500X0.050000X0.387500X-0.050000X0.387500X0*%
%ADD32RoundRect,0.026400X-0.493600X-0.193600X0.493600X-0.193600X0.493600X0.193600X-0.493600X0.193600X0*%
%ADD33R,0.375000X0.500000*%
%ADD34R,0.300000X0.650000*%
%ADD35RoundRect,0.218750X0.218750X0.256250X-0.218750X0.256250X-0.218750X-0.256250X0.218750X-0.256250X0*%
%ADD36RoundRect,0.137500X0.137500X-0.212500X0.137500X0.212500X-0.137500X0.212500X-0.137500X-0.212500X0*%
%ADD37C,2.000000*%
%ADD38RoundRect,0.026400X0.493600X0.193600X-0.493600X0.193600X-0.493600X-0.193600X0.493600X-0.193600X0*%
%ADD39RoundRect,0.218750X-0.218750X-0.256250X0.218750X-0.256250X0.218750X0.256250X-0.218750X0.256250X0*%
G04 APERTURE END LIST*
G04 #@! TO.C,U2*
G36*
X38225000Y72825000D02*
G01*
X37800000Y72825000D01*
X37800000Y72855000D01*
X38045000Y73105000D01*
X38225000Y73105000D01*
X38225000Y72825000D01*
G37*
G36*
X38225000Y73405000D02*
G01*
X38045000Y73405000D01*
X37800000Y73655000D01*
X37800000Y73685000D01*
X38225000Y73685000D01*
X38225000Y73405000D01*
G37*
G36*
X37956663Y73256663D02*
G01*
X37615000Y72915001D01*
X37273337Y73256663D01*
X37615000Y73598326D01*
X37956663Y73256663D01*
G37*
D10*
X37956663Y73256663D02*
X37615000Y72915001D01*
X37273337Y73256663D01*
X37615000Y73598326D01*
X37956663Y73256663D01*
G36*
X37430000Y73655000D02*
G01*
X37185000Y73405000D01*
X37005000Y73405000D01*
X37005000Y73685000D01*
X37430000Y73685000D01*
X37430000Y73655000D01*
G37*
G36*
X37430000Y72855000D02*
G01*
X37430000Y72825000D01*
X37005000Y72825000D01*
X37005000Y73105000D01*
X37185000Y73105000D01*
X37430000Y72855000D01*
G37*
G04 #@! TO.C,U3*
G36*
X34795000Y68970000D02*
G01*
X32635000Y68970000D01*
X32635000Y71690000D01*
X34795000Y71690000D01*
X34795000Y68970000D01*
G37*
X34795000Y68970000D02*
X32635000Y68970000D01*
X32635000Y71690000D01*
X34795000Y71690000D01*
X34795000Y68970000D01*
G04 #@! TO.C,U2*
G36*
X94296663Y73256663D02*
G01*
X93955000Y72915001D01*
X93613337Y73256663D01*
X93955000Y73598326D01*
X94296663Y73256663D01*
G37*
X94296663Y73256663D02*
X93955000Y72915001D01*
X93613337Y73256663D01*
X93955000Y73598326D01*
X94296663Y73256663D01*
G36*
X93770000Y73655000D02*
G01*
X93525000Y73405000D01*
X93345000Y73405000D01*
X93345000Y73685000D01*
X93770000Y73685000D01*
X93770000Y73655000D01*
G37*
G36*
X94565000Y73405000D02*
G01*
X94385000Y73405000D01*
X94140000Y73655000D01*
X94140000Y73685000D01*
X94565000Y73685000D01*
X94565000Y73405000D01*
G37*
G36*
X93770000Y72855000D02*
G01*
X93770000Y72825000D01*
X93345000Y72825000D01*
X93345000Y73105000D01*
X93525000Y73105000D01*
X93770000Y72855000D01*
G37*
G36*
X94565000Y72825000D02*
G01*
X94140000Y72825000D01*
X94140000Y72855000D01*
X94385000Y73105000D01*
X94565000Y73105000D01*
X94565000Y72825000D01*
G37*
G04 #@! TO.C,U3*
G36*
X53485000Y19350000D02*
G01*
X51325000Y19350000D01*
X51325000Y22070000D01*
X53485000Y22070000D01*
X53485000Y19350000D01*
G37*
X53485000Y19350000D02*
X51325000Y19350000D01*
X51325000Y22070000D01*
X53485000Y22070000D01*
X53485000Y19350000D01*
G04 #@! TO.C,U2*
G36*
X11555000Y17355000D02*
G01*
X11130000Y17355000D01*
X11130000Y17385000D01*
X11375000Y17635000D01*
X11555000Y17635000D01*
X11555000Y17355000D01*
G37*
G36*
X11286663Y17783337D02*
G01*
X10945000Y17441674D01*
X10603337Y17783337D01*
X10945000Y18124999D01*
X11286663Y17783337D01*
G37*
X11286663Y17783337D02*
X10945000Y17441674D01*
X10603337Y17783337D01*
X10945000Y18124999D01*
X11286663Y17783337D01*
G36*
X11555000Y17935000D02*
G01*
X11375000Y17935000D01*
X11130000Y18185000D01*
X11130000Y18215000D01*
X11555000Y18215000D01*
X11555000Y17935000D01*
G37*
G36*
X10760000Y17385000D02*
G01*
X10760000Y17355000D01*
X10335000Y17355000D01*
X10335000Y17635000D01*
X10515000Y17635000D01*
X10760000Y17385000D01*
G37*
G36*
X10760000Y18185000D02*
G01*
X10515000Y17935000D01*
X10335000Y17935000D01*
X10335000Y18215000D01*
X10760000Y18215000D01*
X10760000Y18185000D01*
G37*
G04 #@! TO.C,U3*
G36*
X53575000Y68970000D02*
G01*
X51415000Y68970000D01*
X51415000Y71690000D01*
X53575000Y71690000D01*
X53575000Y68970000D01*
G37*
X53575000Y68970000D02*
X51415000Y68970000D01*
X51415000Y71690000D01*
X53575000Y71690000D01*
X53575000Y68970000D01*
G36*
X91135000Y68970000D02*
G01*
X88975000Y68970000D01*
X88975000Y71690000D01*
X91135000Y71690000D01*
X91135000Y68970000D01*
G37*
X91135000Y68970000D02*
X88975000Y68970000D01*
X88975000Y71690000D01*
X91135000Y71690000D01*
X91135000Y68970000D01*
G04 #@! TO.C,U2*
G36*
X48320000Y18185000D02*
G01*
X48075000Y17935000D01*
X47895000Y17935000D01*
X47895000Y18215000D01*
X48320000Y18215000D01*
X48320000Y18185000D01*
G37*
G36*
X48320000Y17385000D02*
G01*
X48320000Y17355000D01*
X47895000Y17355000D01*
X47895000Y17635000D01*
X48075000Y17635000D01*
X48320000Y17385000D01*
G37*
G36*
X49115000Y17355000D02*
G01*
X48690000Y17355000D01*
X48690000Y17385000D01*
X48935000Y17635000D01*
X49115000Y17635000D01*
X49115000Y17355000D01*
G37*
G36*
X48846663Y17783337D02*
G01*
X48505000Y17441674D01*
X48163337Y17783337D01*
X48505000Y18124999D01*
X48846663Y17783337D01*
G37*
X48846663Y17783337D02*
X48505000Y17441674D01*
X48163337Y17783337D01*
X48505000Y18124999D01*
X48846663Y17783337D01*
G36*
X49115000Y17935000D02*
G01*
X48935000Y17935000D01*
X48690000Y18185000D01*
X48690000Y18215000D01*
X49115000Y18215000D01*
X49115000Y17935000D01*
G37*
G04 #@! TO.C,U3*
G36*
X34705000Y19350000D02*
G01*
X32545000Y19350000D01*
X32545000Y22070000D01*
X34705000Y22070000D01*
X34705000Y19350000D01*
G37*
X34705000Y19350000D02*
X32545000Y19350000D01*
X32545000Y22070000D01*
X34705000Y22070000D01*
X34705000Y19350000D01*
G04 #@! TO.C,U2*
G36*
X74990000Y73655000D02*
G01*
X74745000Y73405000D01*
X74565000Y73405000D01*
X74565000Y73685000D01*
X74990000Y73685000D01*
X74990000Y73655000D01*
G37*
G36*
X74990000Y72855000D02*
G01*
X74990000Y72825000D01*
X74565000Y72825000D01*
X74565000Y73105000D01*
X74745000Y73105000D01*
X74990000Y72855000D01*
G37*
G36*
X75516663Y73256663D02*
G01*
X75175000Y72915001D01*
X74833337Y73256663D01*
X75175000Y73598326D01*
X75516663Y73256663D01*
G37*
X75516663Y73256663D02*
X75175000Y72915001D01*
X74833337Y73256663D01*
X75175000Y73598326D01*
X75516663Y73256663D01*
G36*
X75785000Y73405000D02*
G01*
X75605000Y73405000D01*
X75360000Y73655000D01*
X75360000Y73685000D01*
X75785000Y73685000D01*
X75785000Y73405000D01*
G37*
G36*
X75785000Y72825000D02*
G01*
X75360000Y72825000D01*
X75360000Y72855000D01*
X75605000Y73105000D01*
X75785000Y73105000D01*
X75785000Y72825000D01*
G37*
G04 #@! TO.C,U3*
G36*
X16015000Y68970000D02*
G01*
X13855000Y68970000D01*
X13855000Y71690000D01*
X16015000Y71690000D01*
X16015000Y68970000D01*
G37*
X16015000Y68970000D02*
X13855000Y68970000D01*
X13855000Y71690000D01*
X16015000Y71690000D01*
X16015000Y68970000D01*
G36*
X15925000Y19350000D02*
G01*
X13765000Y19350000D01*
X13765000Y22070000D01*
X15925000Y22070000D01*
X15925000Y19350000D01*
G37*
X15925000Y19350000D02*
X13765000Y19350000D01*
X13765000Y22070000D01*
X15925000Y22070000D01*
X15925000Y19350000D01*
G36*
X72355000Y68970000D02*
G01*
X70195000Y68970000D01*
X70195000Y71690000D01*
X72355000Y71690000D01*
X72355000Y68970000D01*
G37*
X72355000Y68970000D02*
X70195000Y68970000D01*
X70195000Y71690000D01*
X72355000Y71690000D01*
X72355000Y68970000D01*
G36*
X72265000Y19350000D02*
G01*
X70105000Y19350000D01*
X70105000Y22070000D01*
X72265000Y22070000D01*
X72265000Y19350000D01*
G37*
X72265000Y19350000D02*
X70105000Y19350000D01*
X70105000Y22070000D01*
X72265000Y22070000D01*
X72265000Y19350000D01*
G04 #@! TO.C,U2*
G36*
X19445000Y73405000D02*
G01*
X19265000Y73405000D01*
X19020000Y73655000D01*
X19020000Y73685000D01*
X19445000Y73685000D01*
X19445000Y73405000D01*
G37*
G36*
X19445000Y72825000D02*
G01*
X19020000Y72825000D01*
X19020000Y72855000D01*
X19265000Y73105000D01*
X19445000Y73105000D01*
X19445000Y72825000D01*
G37*
G36*
X19176663Y73256663D02*
G01*
X18835000Y72915001D01*
X18493337Y73256663D01*
X18835000Y73598326D01*
X19176663Y73256663D01*
G37*
X19176663Y73256663D02*
X18835000Y72915001D01*
X18493337Y73256663D01*
X18835000Y73598326D01*
X19176663Y73256663D01*
G36*
X18650000Y73655000D02*
G01*
X18405000Y73405000D01*
X18225000Y73405000D01*
X18225000Y73685000D01*
X18650000Y73685000D01*
X18650000Y73655000D01*
G37*
G36*
X18650000Y72855000D02*
G01*
X18650000Y72825000D01*
X18225000Y72825000D01*
X18225000Y73105000D01*
X18405000Y73105000D01*
X18650000Y72855000D01*
G37*
G04 #@! TO.C,U3*
G36*
X91045000Y19350000D02*
G01*
X88885000Y19350000D01*
X88885000Y22070000D01*
X91045000Y22070000D01*
X91045000Y19350000D01*
G37*
X91045000Y19350000D02*
X88885000Y19350000D01*
X88885000Y22070000D01*
X91045000Y22070000D01*
X91045000Y19350000D01*
G04 #@! TO.C,U2*
G36*
X67100000Y17385000D02*
G01*
X67100000Y17355000D01*
X66675000Y17355000D01*
X66675000Y17635000D01*
X66855000Y17635000D01*
X67100000Y17385000D01*
G37*
G36*
X67895000Y17935000D02*
G01*
X67715000Y17935000D01*
X67470000Y18185000D01*
X67470000Y18215000D01*
X67895000Y18215000D01*
X67895000Y17935000D01*
G37*
G36*
X67100000Y18185000D02*
G01*
X66855000Y17935000D01*
X66675000Y17935000D01*
X66675000Y18215000D01*
X67100000Y18215000D01*
X67100000Y18185000D01*
G37*
G36*
X67626663Y17783337D02*
G01*
X67285000Y17441674D01*
X66943337Y17783337D01*
X67285000Y18124999D01*
X67626663Y17783337D01*
G37*
X67626663Y17783337D02*
X67285000Y17441674D01*
X66943337Y17783337D01*
X67285000Y18124999D01*
X67626663Y17783337D01*
G36*
X67895000Y17355000D02*
G01*
X67470000Y17355000D01*
X67470000Y17385000D01*
X67715000Y17635000D01*
X67895000Y17635000D01*
X67895000Y17355000D01*
G37*
G36*
X30335000Y17355000D02*
G01*
X29910000Y17355000D01*
X29910000Y17385000D01*
X30155000Y17635000D01*
X30335000Y17635000D01*
X30335000Y17355000D01*
G37*
G36*
X30335000Y17935000D02*
G01*
X30155000Y17935000D01*
X29910000Y18185000D01*
X29910000Y18215000D01*
X30335000Y18215000D01*
X30335000Y17935000D01*
G37*
G36*
X30066663Y17783337D02*
G01*
X29725000Y17441674D01*
X29383337Y17783337D01*
X29725000Y18124999D01*
X30066663Y17783337D01*
G37*
X30066663Y17783337D02*
X29725000Y17441674D01*
X29383337Y17783337D01*
X29725000Y18124999D01*
X30066663Y17783337D01*
G36*
X29540000Y17385000D02*
G01*
X29540000Y17355000D01*
X29115000Y17355000D01*
X29115000Y17635000D01*
X29295000Y17635000D01*
X29540000Y17385000D01*
G37*
G36*
X29540000Y18185000D02*
G01*
X29295000Y17935000D01*
X29115000Y17935000D01*
X29115000Y18215000D01*
X29540000Y18215000D01*
X29540000Y18185000D01*
G37*
G36*
X57005000Y73405000D02*
G01*
X56825000Y73405000D01*
X56580000Y73655000D01*
X56580000Y73685000D01*
X57005000Y73685000D01*
X57005000Y73405000D01*
G37*
G36*
X56736663Y73256663D02*
G01*
X56395000Y72915001D01*
X56053337Y73256663D01*
X56395000Y73598326D01*
X56736663Y73256663D01*
G37*
X56736663Y73256663D02*
X56395000Y72915001D01*
X56053337Y73256663D01*
X56395000Y73598326D01*
X56736663Y73256663D01*
G36*
X56210000Y73655000D02*
G01*
X55965000Y73405000D01*
X55785000Y73405000D01*
X55785000Y73685000D01*
X56210000Y73685000D01*
X56210000Y73655000D01*
G37*
G36*
X56210000Y72855000D02*
G01*
X56210000Y72825000D01*
X55785000Y72825000D01*
X55785000Y73105000D01*
X55965000Y73105000D01*
X56210000Y72855000D01*
G37*
G36*
X57005000Y72825000D02*
G01*
X56580000Y72825000D01*
X56580000Y72855000D01*
X56825000Y73105000D01*
X57005000Y73105000D01*
X57005000Y72825000D01*
G37*
G36*
X86406663Y17783337D02*
G01*
X86065000Y17441674D01*
X85723337Y17783337D01*
X86065000Y18124999D01*
X86406663Y17783337D01*
G37*
X86406663Y17783337D02*
X86065000Y17441674D01*
X85723337Y17783337D01*
X86065000Y18124999D01*
X86406663Y17783337D01*
G36*
X85880000Y17385000D02*
G01*
X85880000Y17355000D01*
X85455000Y17355000D01*
X85455000Y17635000D01*
X85635000Y17635000D01*
X85880000Y17385000D01*
G37*
G36*
X86675000Y17935000D02*
G01*
X86495000Y17935000D01*
X86250000Y18185000D01*
X86250000Y18215000D01*
X86675000Y18215000D01*
X86675000Y17935000D01*
G37*
G36*
X85880000Y18185000D02*
G01*
X85635000Y17935000D01*
X85455000Y17935000D01*
X85455000Y18215000D01*
X85880000Y18215000D01*
X85880000Y18185000D01*
G37*
G36*
X86675000Y17355000D02*
G01*
X86250000Y17355000D01*
X86250000Y17385000D01*
X86495000Y17635000D01*
X86675000Y17635000D01*
X86675000Y17355000D01*
G37*
G04 #@! TD*
D11*
G04 #@! TO.C,C19*
X72325000Y57810000D03*
X72325000Y56850000D03*
G04 #@! TD*
D12*
G04 #@! TO.C,R1*
X49340000Y36385000D03*
X48320000Y36385000D03*
G04 #@! TD*
D13*
G04 #@! TO.C,C13*
X38125000Y64830000D03*
X39085000Y64830000D03*
G04 #@! TD*
D14*
G04 #@! TO.C,R13*
X69975000Y17840000D03*
X69975000Y16820000D03*
G04 #@! TD*
D13*
G04 #@! TO.C,C15*
X94360000Y29535000D03*
X95320000Y29535000D03*
G04 #@! TD*
D15*
G04 #@! TO.C,C14*
X52895000Y66650000D03*
X52895000Y67610000D03*
G04 #@! TD*
D16*
G04 #@! TO.C,R9*
X67365000Y73150000D03*
X68385000Y73150000D03*
G04 #@! TD*
D14*
G04 #@! TO.C,R11*
X56330000Y19820000D03*
X56330000Y18800000D03*
G04 #@! TD*
D17*
G04 #@! TO.C,R8*
X18955000Y12450000D03*
X18955000Y13470000D03*
G04 #@! TD*
D11*
G04 #@! TO.C,C3*
X27865000Y14850000D03*
X27865000Y13890000D03*
G04 #@! TD*
D14*
G04 #@! TO.C,R7*
X94075000Y78590000D03*
X94075000Y77570000D03*
G04 #@! TD*
D18*
G04 #@! TO.C,U5*
X85280000Y68530000D03*
X85780000Y68530000D03*
X86280000Y68530000D03*
X86280000Y70030000D03*
X85780000Y70030000D03*
X85280000Y70030000D03*
G04 #@! TD*
D14*
G04 #@! TO.C,R15*
X85165000Y19797500D03*
X85165000Y18777500D03*
G04 #@! TD*
G04 #@! TO.C,R8*
X85945000Y78590000D03*
X85945000Y77570000D03*
G04 #@! TD*
D19*
G04 #@! TO.C,C1*
X47875000Y76780000D03*
X46915000Y76780000D03*
G04 #@! TD*
D20*
G04 #@! TO.C,SW1*
X96060000Y55030000D03*
X96060000Y57730000D03*
X94910000Y55030000D03*
X94910000Y57730000D03*
G04 #@! TD*
D21*
G04 #@! TO.C,U4*
X53180000Y29610000D03*
X51580000Y28010000D03*
X51580000Y29610000D03*
X53180000Y28010000D03*
D22*
X55817500Y26210000D03*
X55817500Y26610000D03*
X55817500Y27010000D03*
X55817500Y27410000D03*
X55817500Y27810000D03*
X55817500Y28210000D03*
X55817500Y28610000D03*
X55817500Y29010000D03*
X55817500Y29410000D03*
X55817500Y29810000D03*
X55817500Y30210000D03*
X55817500Y30610000D03*
X55817500Y31010000D03*
X55817500Y31410000D03*
D23*
X54980000Y32247500D03*
X54580000Y32247500D03*
X54180000Y32247500D03*
X53780000Y32247500D03*
X53380000Y32247500D03*
X52980000Y32247500D03*
X52580000Y32247500D03*
X52180000Y32247500D03*
X51780000Y32247500D03*
X51380000Y32247500D03*
X50980000Y32247500D03*
X50580000Y32247500D03*
X50180000Y32247500D03*
X49780000Y32247500D03*
D22*
X48942500Y31410000D03*
X48942500Y31010000D03*
X48942500Y30610000D03*
X48942500Y30210000D03*
X48942500Y29810000D03*
X48942500Y29410000D03*
X48942500Y29010000D03*
X48942500Y28610000D03*
X48942500Y28210000D03*
X48942500Y27810000D03*
X48942500Y27410000D03*
X48942500Y27010000D03*
X48942500Y26610000D03*
X48942500Y26210000D03*
D23*
X49780000Y25372500D03*
X50180000Y25372500D03*
X50580000Y25372500D03*
X50980000Y25372500D03*
X51380000Y25372500D03*
X51780000Y25372500D03*
X52180000Y25372500D03*
X52580000Y25372500D03*
X52980000Y25372500D03*
X53380000Y25372500D03*
X53780000Y25372500D03*
X54180000Y25372500D03*
X54580000Y25372500D03*
X54980000Y25372500D03*
G04 #@! TD*
D12*
G04 #@! TO.C,R9*
X75095000Y17890000D03*
X74075000Y17890000D03*
G04 #@! TD*
D24*
G04 #@! TO.C,J1*
X11690000Y12540000D03*
X12490000Y12540000D03*
D25*
X13640000Y12540000D03*
X14640000Y12540000D03*
X15140000Y12540000D03*
X16140000Y12540000D03*
D24*
X17290000Y12540000D03*
X18090000Y12540000D03*
X18090000Y12540000D03*
X17290000Y12540000D03*
D25*
X16640000Y12540000D03*
X15640000Y12540000D03*
X14140000Y12540000D03*
X13140000Y12540000D03*
D24*
X12490000Y12540000D03*
X11690000Y12540000D03*
G04 #@! TD*
D26*
G04 #@! TO.C,D1*
X65495000Y20622500D03*
X65495000Y21592500D03*
G04 #@! TD*
D17*
G04 #@! TO.C,R4*
X29115000Y74045000D03*
X29115000Y75065000D03*
G04 #@! TD*
G04 #@! TO.C,R6*
X76810000Y15975000D03*
X76810000Y16995000D03*
G04 #@! TD*
D14*
G04 #@! TO.C,R7*
X37735000Y78590000D03*
X37735000Y77570000D03*
G04 #@! TD*
D13*
G04 #@! TO.C,C4*
X56905000Y74270000D03*
X57865000Y74270000D03*
G04 #@! TD*
D19*
G04 #@! TO.C,C4*
X47995000Y16770000D03*
X47035000Y16770000D03*
G04 #@! TD*
D11*
G04 #@! TO.C,C17*
X15295000Y24390000D03*
X15295000Y23430000D03*
G04 #@! TD*
D27*
G04 #@! TO.C,D1*
X58185000Y70417500D03*
X58185000Y69447500D03*
G04 #@! TD*
D18*
G04 #@! TO.C,U5*
X19620000Y22510000D03*
X19120000Y22510000D03*
X18620000Y22510000D03*
X18620000Y21010000D03*
X19120000Y21010000D03*
X19620000Y21010000D03*
G04 #@! TD*
D11*
G04 #@! TO.C,C8*
X93835000Y36930000D03*
X93835000Y35970000D03*
G04 #@! TD*
D19*
G04 #@! TO.C,C1*
X29095000Y76780000D03*
X28135000Y76780000D03*
G04 #@! TD*
D26*
G04 #@! TO.C,D2*
X85165000Y20632500D03*
X85165000Y21602500D03*
G04 #@! TD*
D14*
G04 #@! TO.C,R2*
X73335000Y17270000D03*
X73335000Y16250000D03*
G04 #@! TD*
D20*
G04 #@! TO.C,SW1*
X39720000Y57730000D03*
X39720000Y55030000D03*
X38570000Y57730000D03*
X38570000Y55030000D03*
G04 #@! TD*
D28*
G04 #@! TO.C,Y1*
X87330000Y54880000D03*
X89080000Y54880000D03*
X89080000Y56280000D03*
X87330000Y56280000D03*
G04 #@! TD*
D18*
G04 #@! TO.C,Q1*
X29500000Y33960000D03*
X30000000Y33960000D03*
X30500000Y33960000D03*
X30500000Y35460000D03*
X30000000Y35460000D03*
X29500000Y35460000D03*
G04 #@! TD*
D11*
G04 #@! TO.C,C3*
X9085000Y14850000D03*
X9085000Y13890000D03*
G04 #@! TD*
D24*
G04 #@! TO.C,J1*
X93210000Y78500000D03*
X92410000Y78500000D03*
D25*
X91260000Y78500000D03*
X90260000Y78500000D03*
X89760000Y78500000D03*
X88760000Y78500000D03*
D24*
X87610000Y78500000D03*
X86810000Y78500000D03*
X86810000Y78500000D03*
X87610000Y78500000D03*
D25*
X88260000Y78500000D03*
X89260000Y78500000D03*
X90760000Y78500000D03*
X91760000Y78500000D03*
D24*
X92410000Y78500000D03*
X93210000Y78500000D03*
G04 #@! TD*
D20*
G04 #@! TO.C,SW1*
X58500000Y55030000D03*
X58500000Y57730000D03*
X57350000Y55030000D03*
X57350000Y57730000D03*
G04 #@! TD*
D18*
G04 #@! TO.C,U5*
X38400000Y22510000D03*
X37900000Y22510000D03*
X37400000Y22510000D03*
X37400000Y21010000D03*
X37900000Y21010000D03*
X38400000Y21010000D03*
G04 #@! TD*
D16*
G04 #@! TO.C,R16*
X65775000Y31260000D03*
X66795000Y31260000D03*
G04 #@! TD*
D29*
G04 #@! TO.C,U4*
X72100000Y63030000D03*
X72100000Y61430000D03*
X70500000Y63030000D03*
X70500000Y61430000D03*
D30*
X67862500Y64830000D03*
X67862500Y64430000D03*
X67862500Y64030000D03*
X67862500Y63630000D03*
X67862500Y63230000D03*
X67862500Y62830000D03*
X67862500Y62430000D03*
X67862500Y62030000D03*
X67862500Y61630000D03*
X67862500Y61230000D03*
X67862500Y60830000D03*
X67862500Y60430000D03*
X67862500Y60030000D03*
X67862500Y59630000D03*
D31*
X68700000Y58792500D03*
X69100000Y58792500D03*
X69500000Y58792500D03*
X69900000Y58792500D03*
X70300000Y58792500D03*
X70700000Y58792500D03*
X71100000Y58792500D03*
X71500000Y58792500D03*
X71900000Y58792500D03*
X72300000Y58792500D03*
X72700000Y58792500D03*
X73100000Y58792500D03*
X73500000Y58792500D03*
X73900000Y58792500D03*
D30*
X74737500Y59630000D03*
X74737500Y60030000D03*
X74737500Y60430000D03*
X74737500Y60830000D03*
X74737500Y61230000D03*
X74737500Y61630000D03*
X74737500Y62030000D03*
X74737500Y62430000D03*
X74737500Y62830000D03*
X74737500Y63230000D03*
X74737500Y63630000D03*
X74737500Y64030000D03*
X74737500Y64430000D03*
X74737500Y64830000D03*
D31*
X73900000Y65667500D03*
X73500000Y65667500D03*
X73100000Y65667500D03*
X72700000Y65667500D03*
X72300000Y65667500D03*
X71900000Y65667500D03*
X71500000Y65667500D03*
X71100000Y65667500D03*
X70700000Y65667500D03*
X70300000Y65667500D03*
X69900000Y65667500D03*
X69500000Y65667500D03*
X69100000Y65667500D03*
X68700000Y65667500D03*
G04 #@! TD*
D19*
G04 #@! TO.C,C15*
X29320000Y61505000D03*
X28360000Y61505000D03*
G04 #@! TD*
G04 #@! TO.C,C13*
X10435000Y26210000D03*
X9475000Y26210000D03*
G04 #@! TD*
D12*
G04 #@! TO.C,R5*
X85465000Y75905000D03*
X84445000Y75905000D03*
G04 #@! TD*
D15*
G04 #@! TO.C,C18*
X74525000Y66650000D03*
X74525000Y67610000D03*
G04 #@! TD*
D13*
G04 #@! TO.C,C5*
X86495000Y16770000D03*
X87455000Y16770000D03*
G04 #@! TD*
D18*
G04 #@! TO.C,Q1*
X75400000Y57080000D03*
X74900000Y57080000D03*
X74400000Y57080000D03*
X74400000Y55580000D03*
X74900000Y55580000D03*
X75400000Y55580000D03*
G04 #@! TD*
G04 #@! TO.C,Q2*
X67400000Y74005000D03*
X67900000Y74005000D03*
X68400000Y74005000D03*
X68400000Y75505000D03*
X67900000Y75505000D03*
X67400000Y75505000D03*
G04 #@! TD*
D17*
G04 #@! TO.C,R2*
X31565000Y73770000D03*
X31565000Y74790000D03*
G04 #@! TD*
G04 #@! TO.C,R10*
X95745000Y71242500D03*
X95745000Y72262500D03*
G04 #@! TD*
D14*
G04 #@! TO.C,R3*
X88140000Y36320000D03*
X88140000Y35300000D03*
G04 #@! TD*
D15*
G04 #@! TO.C,C16*
X67995000Y66640000D03*
X67995000Y67600000D03*
G04 #@! TD*
D14*
G04 #@! TO.C,R15*
X10045000Y19797500D03*
X10045000Y18777500D03*
G04 #@! TD*
D17*
G04 #@! TO.C,R12*
X51165000Y73200000D03*
X51165000Y74220000D03*
G04 #@! TD*
D15*
G04 #@! TO.C,C18*
X36965000Y66650000D03*
X36965000Y67610000D03*
G04 #@! TD*
G04 #@! TO.C,C9*
X50005000Y23430000D03*
X50005000Y24390000D03*
G04 #@! TD*
G04 #@! TO.C,C6*
X10945000Y18810000D03*
X10945000Y19770000D03*
G04 #@! TD*
G04 #@! TO.C,C8*
X48625000Y54110000D03*
X48625000Y55070000D03*
G04 #@! TD*
D11*
G04 #@! TO.C,C18*
X11595000Y24390000D03*
X11595000Y23430000D03*
G04 #@! TD*
D19*
G04 #@! TO.C,C4*
X29215000Y16770000D03*
X28255000Y16770000D03*
G04 #@! TD*
D32*
G04 #@! TO.C,U3*
X30870000Y72235000D03*
X30870000Y70965000D03*
X30870000Y69695000D03*
X30870000Y68425000D03*
X36560000Y68425000D03*
X36560000Y69695000D03*
X36560000Y70965000D03*
X36560000Y72235000D03*
G04 #@! TD*
D15*
G04 #@! TO.C,C19*
X51355000Y33230000D03*
X51355000Y34190000D03*
G04 #@! TD*
D11*
G04 #@! TO.C,C16*
X74465000Y24400000D03*
X74465000Y23440000D03*
G04 #@! TD*
D15*
G04 #@! TO.C,C11*
X52205000Y33230000D03*
X52205000Y34190000D03*
G04 #@! TD*
D14*
G04 #@! TO.C,R8*
X10825000Y78590000D03*
X10825000Y77570000D03*
G04 #@! TD*
D11*
G04 #@! TO.C,C9*
X92455000Y67610000D03*
X92455000Y66650000D03*
G04 #@! TD*
D14*
G04 #@! TO.C,R7*
X75295000Y78590000D03*
X75295000Y77570000D03*
G04 #@! TD*
D19*
G04 #@! TO.C,C15*
X85660000Y61505000D03*
X84700000Y61505000D03*
G04 #@! TD*
D15*
G04 #@! TO.C,C10*
X50855000Y23430000D03*
X50855000Y24390000D03*
G04 #@! TD*
D27*
G04 #@! TO.C,D2*
X19735000Y70407500D03*
X19735000Y69437500D03*
G04 #@! TD*
D16*
G04 #@! TO.C,R16*
X84555000Y31260000D03*
X85575000Y31260000D03*
G04 #@! TD*
D14*
G04 #@! TO.C,R15*
X66385000Y19797500D03*
X66385000Y18777500D03*
G04 #@! TD*
D16*
G04 #@! TO.C,R16*
X28215000Y31260000D03*
X29235000Y31260000D03*
G04 #@! TD*
D13*
G04 #@! TO.C,C5*
X11375000Y16770000D03*
X12335000Y16770000D03*
G04 #@! TD*
D33*
G04 #@! TO.C,U1*
X14337500Y73200000D03*
D34*
X14875000Y73125000D03*
D33*
X15412500Y73200000D03*
X15412500Y74900000D03*
D34*
X14875000Y74975000D03*
D33*
X14337500Y74900000D03*
G04 #@! TD*
D13*
G04 #@! TO.C,C4*
X94465000Y74270000D03*
X95425000Y74270000D03*
G04 #@! TD*
D11*
G04 #@! TO.C,C14*
X14445000Y24390000D03*
X14445000Y23430000D03*
G04 #@! TD*
D35*
G04 #@! TO.C,F1*
X49242500Y14860000D03*
X47667500Y14860000D03*
G04 #@! TD*
D17*
G04 #@! TO.C,R7*
X48385000Y12450000D03*
X48385000Y13470000D03*
G04 #@! TD*
G04 #@! TO.C,FB1*
X58015000Y81190000D03*
X58015000Y82210000D03*
G04 #@! TD*
G04 #@! TO.C,R8*
X94075000Y12450000D03*
X94075000Y13470000D03*
G04 #@! TD*
D15*
G04 #@! TO.C,C19*
X88915000Y33230000D03*
X88915000Y34190000D03*
G04 #@! TD*
D36*
G04 #@! TO.C,SW1*
X83960000Y36010000D03*
X83960000Y33310000D03*
X85110000Y36010000D03*
X85110000Y33310000D03*
G04 #@! TD*
D17*
G04 #@! TO.C,R15*
X76075000Y71242500D03*
X76075000Y72262500D03*
G04 #@! TD*
D12*
G04 #@! TO.C,R16*
X76685000Y59780000D03*
X75665000Y59780000D03*
G04 #@! TD*
D13*
G04 #@! TO.C,C4*
X38125000Y74270000D03*
X39085000Y74270000D03*
G04 #@! TD*
D18*
G04 #@! TO.C,U5*
X57180000Y22510000D03*
X56680000Y22510000D03*
X56180000Y22510000D03*
X56180000Y21010000D03*
X56680000Y21010000D03*
X57180000Y21010000D03*
G04 #@! TD*
D13*
G04 #@! TO.C,C2*
X86250000Y76455000D03*
X87210000Y76455000D03*
G04 #@! TD*
D37*
G04 #@! TO.C,REF\u002A\u002A*
X2500000Y88540000D03*
G04 #@! TD*
D17*
G04 #@! TO.C,R6*
X95590000Y15975000D03*
X95590000Y16995000D03*
G04 #@! TD*
D28*
G04 #@! TO.C,Y1*
X68550000Y54880000D03*
X70300000Y54880000D03*
X70300000Y56280000D03*
X68550000Y56280000D03*
G04 #@! TD*
D13*
G04 #@! TO.C,C1*
X57025000Y14260000D03*
X57985000Y14260000D03*
G04 #@! TD*
D11*
G04 #@! TO.C,C9*
X17335000Y67610000D03*
X17335000Y66650000D03*
G04 #@! TD*
D18*
G04 #@! TO.C,Q1*
X85840000Y33960000D03*
X86340000Y33960000D03*
X86840000Y33960000D03*
X86840000Y35460000D03*
X86340000Y35460000D03*
X85840000Y35460000D03*
G04 #@! TD*
D13*
G04 #@! TO.C,C5*
X67715000Y16770000D03*
X68675000Y16770000D03*
G04 #@! TD*
D17*
G04 #@! TO.C,R3*
X73100000Y54720000D03*
X73100000Y55740000D03*
G04 #@! TD*
D15*
G04 #@! TO.C,C9*
X87565000Y23430000D03*
X87565000Y24390000D03*
G04 #@! TD*
D28*
G04 #@! TO.C,Y1*
X55130000Y36160000D03*
X53380000Y36160000D03*
X53380000Y34760000D03*
X55130000Y34760000D03*
G04 #@! TD*
D27*
G04 #@! TO.C,D1*
X95745000Y70417500D03*
X95745000Y69447500D03*
G04 #@! TD*
D19*
G04 #@! TO.C,C1*
X10315000Y76780000D03*
X9355000Y76780000D03*
G04 #@! TD*
D13*
G04 #@! TO.C,C1*
X94585000Y14260000D03*
X95545000Y14260000D03*
G04 #@! TD*
D11*
G04 #@! TO.C,C18*
X86715000Y24390000D03*
X86715000Y23430000D03*
G04 #@! TD*
D17*
G04 #@! TO.C,R10*
X58185000Y71242500D03*
X58185000Y72262500D03*
G04 #@! TD*
D33*
G04 #@! TO.C,U1*
X53002500Y17840000D03*
D34*
X52465000Y17915000D03*
D33*
X51927500Y17840000D03*
X51927500Y16140000D03*
D34*
X52465000Y16065000D03*
D33*
X53002500Y16140000D03*
G04 #@! TD*
D24*
G04 #@! TO.C,J1*
X49250000Y12540000D03*
X50050000Y12540000D03*
D25*
X51200000Y12540000D03*
X52200000Y12540000D03*
X52700000Y12540000D03*
X53700000Y12540000D03*
D24*
X54850000Y12540000D03*
X55650000Y12540000D03*
X55650000Y12540000D03*
X54850000Y12540000D03*
D25*
X54200000Y12540000D03*
X53200000Y12540000D03*
X51700000Y12540000D03*
X50700000Y12540000D03*
D24*
X50050000Y12540000D03*
X49250000Y12540000D03*
G04 #@! TD*
D12*
G04 #@! TO.C,R5*
X47905000Y75905000D03*
X46885000Y75905000D03*
G04 #@! TD*
D21*
G04 #@! TO.C,U4*
X34400000Y28010000D03*
X32800000Y29610000D03*
X34400000Y29610000D03*
X32800000Y28010000D03*
D22*
X37037500Y26210000D03*
X37037500Y26610000D03*
X37037500Y27010000D03*
X37037500Y27410000D03*
X37037500Y27810000D03*
X37037500Y28210000D03*
X37037500Y28610000D03*
X37037500Y29010000D03*
X37037500Y29410000D03*
X37037500Y29810000D03*
X37037500Y30210000D03*
X37037500Y30610000D03*
X37037500Y31010000D03*
X37037500Y31410000D03*
D23*
X36200000Y32247500D03*
X35800000Y32247500D03*
X35400000Y32247500D03*
X35000000Y32247500D03*
X34600000Y32247500D03*
X34200000Y32247500D03*
X33800000Y32247500D03*
X33400000Y32247500D03*
X33000000Y32247500D03*
X32600000Y32247500D03*
X32200000Y32247500D03*
X31800000Y32247500D03*
X31400000Y32247500D03*
X31000000Y32247500D03*
D22*
X30162500Y31410000D03*
X30162500Y31010000D03*
X30162500Y30610000D03*
X30162500Y30210000D03*
X30162500Y29810000D03*
X30162500Y29410000D03*
X30162500Y29010000D03*
X30162500Y28610000D03*
X30162500Y28210000D03*
X30162500Y27810000D03*
X30162500Y27410000D03*
X30162500Y27010000D03*
X30162500Y26610000D03*
X30162500Y26210000D03*
D23*
X31000000Y25372500D03*
X31400000Y25372500D03*
X31800000Y25372500D03*
X32200000Y25372500D03*
X32600000Y25372500D03*
X33000000Y25372500D03*
X33400000Y25372500D03*
X33800000Y25372500D03*
X34200000Y25372500D03*
X34600000Y25372500D03*
X35000000Y25372500D03*
X35400000Y25372500D03*
X35800000Y25372500D03*
X36200000Y25372500D03*
G04 #@! TD*
D14*
G04 #@! TO.C,R13*
X88755000Y17840000D03*
X88755000Y16820000D03*
G04 #@! TD*
D15*
G04 #@! TO.C,C17*
X52045000Y66650000D03*
X52045000Y67610000D03*
G04 #@! TD*
D14*
G04 #@! TO.C,R2*
X92115000Y17270000D03*
X92115000Y16250000D03*
G04 #@! TD*
D38*
G04 #@! TO.C,U3*
X55250000Y18805000D03*
X55250000Y20075000D03*
X55250000Y21345000D03*
X55250000Y22615000D03*
X49560000Y22615000D03*
X49560000Y21345000D03*
X49560000Y20075000D03*
X49560000Y18805000D03*
G04 #@! TD*
D17*
G04 #@! TO.C,R11*
X86130000Y71220000D03*
X86130000Y72240000D03*
G04 #@! TD*
D15*
G04 #@! TO.C,C9*
X31225000Y23430000D03*
X31225000Y24390000D03*
G04 #@! TD*
D36*
G04 #@! TO.C,SW1*
X65180000Y33310000D03*
X65180000Y36010000D03*
X66330000Y33310000D03*
X66330000Y36010000D03*
G04 #@! TD*
D13*
G04 #@! TO.C,C15*
X75580000Y29535000D03*
X76540000Y29535000D03*
G04 #@! TD*
D17*
G04 #@! TO.C,R6*
X39250000Y15975000D03*
X39250000Y16995000D03*
G04 #@! TD*
D12*
G04 #@! TO.C,R1*
X68120000Y36385000D03*
X67100000Y36385000D03*
G04 #@! TD*
D16*
G04 #@! TO.C,R1*
X55560000Y54655000D03*
X56580000Y54655000D03*
G04 #@! TD*
D14*
G04 #@! TO.C,FB1*
X84445000Y9850000D03*
X84445000Y8830000D03*
G04 #@! TD*
D36*
G04 #@! TO.C,SW1*
X46400000Y33310000D03*
X46400000Y36010000D03*
X47550000Y33310000D03*
X47550000Y36010000D03*
G04 #@! TD*
D15*
G04 #@! TO.C,C18*
X55745000Y66650000D03*
X55745000Y67610000D03*
G04 #@! TD*
D11*
G04 #@! TO.C,C8*
X37495000Y36930000D03*
X37495000Y35970000D03*
G04 #@! TD*
D26*
G04 #@! TO.C,D2*
X28825000Y20632500D03*
X28825000Y21602500D03*
G04 #@! TD*
D15*
G04 #@! TO.C,C18*
X93305000Y66650000D03*
X93305000Y67610000D03*
G04 #@! TD*
D17*
G04 #@! TO.C,FB1*
X95575000Y81190000D03*
X95575000Y82210000D03*
G04 #@! TD*
D24*
G04 #@! TO.C,J1*
X30470000Y12540000D03*
X31270000Y12540000D03*
D25*
X32420000Y12540000D03*
X33420000Y12540000D03*
X33920000Y12540000D03*
X34920000Y12540000D03*
D24*
X36070000Y12540000D03*
X36870000Y12540000D03*
X36870000Y12540000D03*
X36070000Y12540000D03*
D25*
X35420000Y12540000D03*
X34420000Y12540000D03*
X32920000Y12540000D03*
X31920000Y12540000D03*
D24*
X31270000Y12540000D03*
X30470000Y12540000D03*
G04 #@! TD*
D17*
G04 #@! TO.C,R12*
X32385000Y73200000D03*
X32385000Y74220000D03*
G04 #@! TD*
D28*
G04 #@! TO.C,Y1*
X73910000Y36160000D03*
X72160000Y36160000D03*
X72160000Y34760000D03*
X73910000Y34760000D03*
G04 #@! TD*
D18*
G04 #@! TO.C,U5*
X10160000Y68530000D03*
X10660000Y68530000D03*
X11160000Y68530000D03*
X11160000Y70030000D03*
X10660000Y70030000D03*
X10160000Y70030000D03*
G04 #@! TD*
D14*
G04 #@! TO.C,FB1*
X9325000Y9850000D03*
X9325000Y8830000D03*
G04 #@! TD*
D24*
G04 #@! TO.C,J1*
X86810000Y12540000D03*
X87610000Y12540000D03*
D25*
X88760000Y12540000D03*
X89760000Y12540000D03*
X90260000Y12540000D03*
X91260000Y12540000D03*
D24*
X92410000Y12540000D03*
X93210000Y12540000D03*
X93210000Y12540000D03*
X92410000Y12540000D03*
D25*
X91760000Y12540000D03*
X90760000Y12540000D03*
X89260000Y12540000D03*
X88260000Y12540000D03*
D24*
X87610000Y12540000D03*
X86810000Y12540000D03*
G04 #@! TD*
D15*
G04 #@! TO.C,C3*
X77035000Y76190000D03*
X77035000Y77150000D03*
G04 #@! TD*
G04 #@! TO.C,C6*
X48505000Y18810000D03*
X48505000Y19770000D03*
G04 #@! TD*
G04 #@! TO.C,C14*
X15335000Y66650000D03*
X15335000Y67610000D03*
G04 #@! TD*
D11*
G04 #@! TO.C,C14*
X70785000Y24390000D03*
X70785000Y23430000D03*
G04 #@! TD*
D16*
G04 #@! TO.C,R1*
X93120000Y54655000D03*
X94140000Y54655000D03*
G04 #@! TD*
D11*
G04 #@! TO.C,C3*
X84205000Y14850000D03*
X84205000Y13890000D03*
G04 #@! TD*
G04 #@! TO.C,C18*
X30375000Y24390000D03*
X30375000Y23430000D03*
G04 #@! TD*
D15*
G04 #@! TO.C,C10*
X32075000Y23430000D03*
X32075000Y24390000D03*
G04 #@! TD*
D16*
G04 #@! TO.C,R5*
X56995000Y15135000D03*
X58015000Y15135000D03*
G04 #@! TD*
D32*
G04 #@! TO.C,U3*
X49650000Y72235000D03*
X49650000Y70965000D03*
X49650000Y69695000D03*
X49650000Y68425000D03*
X55340000Y68425000D03*
X55340000Y69695000D03*
X55340000Y70965000D03*
X55340000Y72235000D03*
G04 #@! TD*
D17*
G04 #@! TO.C,R3*
X91880000Y54720000D03*
X91880000Y55740000D03*
G04 #@! TD*
D33*
G04 #@! TO.C,U1*
X90562500Y17840000D03*
D34*
X90025000Y17915000D03*
D33*
X89487500Y17840000D03*
X89487500Y16140000D03*
D34*
X90025000Y16065000D03*
D33*
X90562500Y16140000D03*
G04 #@! TD*
D16*
G04 #@! TO.C,R17*
X75665000Y58905000D03*
X76685000Y58905000D03*
G04 #@! TD*
D11*
G04 #@! TO.C,C19*
X34765000Y57810000D03*
X34765000Y56850000D03*
G04 #@! TD*
D35*
G04 #@! TO.C,F1*
X86802500Y14860000D03*
X85227500Y14860000D03*
G04 #@! TD*
D26*
G04 #@! TO.C,D2*
X47605000Y20632500D03*
X47605000Y21602500D03*
G04 #@! TD*
D15*
G04 #@! TO.C,C6*
X29725000Y18810000D03*
X29725000Y19770000D03*
G04 #@! TD*
D18*
G04 #@! TO.C,Q1*
X48280000Y33960000D03*
X48780000Y33960000D03*
X49280000Y33960000D03*
X49280000Y35460000D03*
X48780000Y35460000D03*
X48280000Y35460000D03*
G04 #@! TD*
D14*
G04 #@! TO.C,R6*
X28090000Y75065000D03*
X28090000Y74045000D03*
G04 #@! TD*
D11*
G04 #@! TO.C,C19*
X53545000Y57810000D03*
X53545000Y56850000D03*
G04 #@! TD*
D12*
G04 #@! TO.C,R5*
X66685000Y75905000D03*
X65665000Y75905000D03*
G04 #@! TD*
D11*
G04 #@! TO.C,C8*
X75055000Y36930000D03*
X75055000Y35970000D03*
G04 #@! TD*
D19*
G04 #@! TO.C,C5*
X55965000Y74270000D03*
X55005000Y74270000D03*
G04 #@! TD*
D14*
G04 #@! TO.C,R11*
X93890000Y19820000D03*
X93890000Y18800000D03*
G04 #@! TD*
D32*
G04 #@! TO.C,U3*
X87210000Y72235000D03*
X87210000Y70965000D03*
X87210000Y69695000D03*
X87210000Y68425000D03*
X92900000Y68425000D03*
X92900000Y69695000D03*
X92900000Y70965000D03*
X92900000Y72235000D03*
G04 #@! TD*
D33*
G04 #@! TO.C,U1*
X51897500Y73200000D03*
D34*
X52435000Y73125000D03*
D33*
X52972500Y73200000D03*
X52972500Y74900000D03*
D34*
X52435000Y74975000D03*
D33*
X51897500Y74900000D03*
G04 #@! TD*
D17*
G04 #@! TO.C,R2*
X87905000Y73770000D03*
X87905000Y74790000D03*
G04 #@! TD*
D14*
G04 #@! TO.C,R6*
X9310000Y75065000D03*
X9310000Y74045000D03*
G04 #@! TD*
D16*
G04 #@! TO.C,R1*
X36780000Y54655000D03*
X37800000Y54655000D03*
G04 #@! TD*
D14*
G04 #@! TO.C,R10*
X65495000Y19797500D03*
X65495000Y18777500D03*
G04 #@! TD*
D21*
G04 #@! TO.C,U4*
X14020000Y29610000D03*
X14020000Y28010000D03*
X15620000Y29610000D03*
X15620000Y28010000D03*
D22*
X18257500Y26210000D03*
X18257500Y26610000D03*
X18257500Y27010000D03*
X18257500Y27410000D03*
X18257500Y27810000D03*
X18257500Y28210000D03*
X18257500Y28610000D03*
X18257500Y29010000D03*
X18257500Y29410000D03*
X18257500Y29810000D03*
X18257500Y30210000D03*
X18257500Y30610000D03*
X18257500Y31010000D03*
X18257500Y31410000D03*
D23*
X17420000Y32247500D03*
X17020000Y32247500D03*
X16620000Y32247500D03*
X16220000Y32247500D03*
X15820000Y32247500D03*
X15420000Y32247500D03*
X15020000Y32247500D03*
X14620000Y32247500D03*
X14220000Y32247500D03*
X13820000Y32247500D03*
X13420000Y32247500D03*
X13020000Y32247500D03*
X12620000Y32247500D03*
X12220000Y32247500D03*
D22*
X11382500Y31410000D03*
X11382500Y31010000D03*
X11382500Y30610000D03*
X11382500Y30210000D03*
X11382500Y29810000D03*
X11382500Y29410000D03*
X11382500Y29010000D03*
X11382500Y28610000D03*
X11382500Y28210000D03*
X11382500Y27810000D03*
X11382500Y27410000D03*
X11382500Y27010000D03*
X11382500Y26610000D03*
X11382500Y26210000D03*
D23*
X12220000Y25372500D03*
X12620000Y25372500D03*
X13020000Y25372500D03*
X13420000Y25372500D03*
X13820000Y25372500D03*
X14220000Y25372500D03*
X14620000Y25372500D03*
X15020000Y25372500D03*
X15420000Y25372500D03*
X15820000Y25372500D03*
X16220000Y25372500D03*
X16620000Y25372500D03*
X17020000Y25372500D03*
X17420000Y25372500D03*
G04 #@! TD*
D14*
G04 #@! TO.C,R6*
X65650000Y75065000D03*
X65650000Y74045000D03*
G04 #@! TD*
D33*
G04 #@! TO.C,U1*
X70677500Y73200000D03*
D34*
X71215000Y73125000D03*
D33*
X71752500Y73200000D03*
X71752500Y74900000D03*
D34*
X71215000Y74975000D03*
D33*
X70677500Y74900000D03*
G04 #@! TD*
D19*
G04 #@! TO.C,C4*
X10435000Y16770000D03*
X9475000Y16770000D03*
G04 #@! TD*
D13*
G04 #@! TO.C,C5*
X30155000Y16770000D03*
X31115000Y16770000D03*
G04 #@! TD*
D14*
G04 #@! TO.C,R12*
X53735000Y17840000D03*
X53735000Y16820000D03*
G04 #@! TD*
G04 #@! TO.C,R4*
X38225000Y16995000D03*
X38225000Y15975000D03*
G04 #@! TD*
D19*
G04 #@! TO.C,C5*
X37185000Y74270000D03*
X36225000Y74270000D03*
G04 #@! TD*
G04 #@! TO.C,C2*
X56210000Y14585000D03*
X55250000Y14585000D03*
G04 #@! TD*
D11*
G04 #@! TO.C,C16*
X18125000Y24400000D03*
X18125000Y23440000D03*
G04 #@! TD*
D24*
G04 #@! TO.C,J1*
X68030000Y12540000D03*
X68830000Y12540000D03*
D25*
X69980000Y12540000D03*
X70980000Y12540000D03*
X71480000Y12540000D03*
X72480000Y12540000D03*
D24*
X73630000Y12540000D03*
X74430000Y12540000D03*
X74430000Y12540000D03*
X73630000Y12540000D03*
D25*
X72980000Y12540000D03*
X71980000Y12540000D03*
X70480000Y12540000D03*
X69480000Y12540000D03*
D24*
X68830000Y12540000D03*
X68030000Y12540000D03*
G04 #@! TD*
D19*
G04 #@! TO.C,C13*
X66775000Y26210000D03*
X65815000Y26210000D03*
G04 #@! TD*
D15*
G04 #@! TO.C,C8*
X67405000Y54110000D03*
X67405000Y55070000D03*
G04 #@! TD*
G04 #@! TO.C,C7*
X15085000Y55100000D03*
X15085000Y56060000D03*
G04 #@! TD*
D24*
G04 #@! TO.C,J1*
X55650000Y78500000D03*
X54850000Y78500000D03*
D25*
X53700000Y78500000D03*
X52700000Y78500000D03*
X52200000Y78500000D03*
X51200000Y78500000D03*
D24*
X50050000Y78500000D03*
X49250000Y78500000D03*
X49250000Y78500000D03*
X50050000Y78500000D03*
D25*
X50700000Y78500000D03*
X51700000Y78500000D03*
X53200000Y78500000D03*
X54200000Y78500000D03*
D24*
X54850000Y78500000D03*
X55650000Y78500000D03*
G04 #@! TD*
D17*
G04 #@! TO.C,R11*
X29790000Y71220000D03*
X29790000Y72240000D03*
G04 #@! TD*
D13*
G04 #@! TO.C,C13*
X19345000Y64830000D03*
X20305000Y64830000D03*
G04 #@! TD*
D11*
G04 #@! TO.C,C3*
X46645000Y14850000D03*
X46645000Y13890000D03*
G04 #@! TD*
D15*
G04 #@! TO.C,C17*
X70825000Y66650000D03*
X70825000Y67610000D03*
G04 #@! TD*
D16*
G04 #@! TO.C,R17*
X19325000Y58905000D03*
X20345000Y58905000D03*
G04 #@! TD*
D11*
G04 #@! TO.C,C11*
X15135000Y57810000D03*
X15135000Y56850000D03*
G04 #@! TD*
D13*
G04 #@! TO.C,C12*
X56915000Y61230000D03*
X57875000Y61230000D03*
G04 #@! TD*
D11*
G04 #@! TO.C,C6*
X18835000Y72230000D03*
X18835000Y71270000D03*
G04 #@! TD*
D12*
G04 #@! TO.C,R17*
X10455000Y32135000D03*
X9435000Y32135000D03*
G04 #@! TD*
D15*
G04 #@! TO.C,C3*
X39475000Y76190000D03*
X39475000Y77150000D03*
G04 #@! TD*
D29*
G04 #@! TO.C,U4*
X34540000Y61430000D03*
X34540000Y63030000D03*
X32940000Y63030000D03*
X32940000Y61430000D03*
D30*
X30302500Y64830000D03*
X30302500Y64430000D03*
X30302500Y64030000D03*
X30302500Y63630000D03*
X30302500Y63230000D03*
X30302500Y62830000D03*
X30302500Y62430000D03*
X30302500Y62030000D03*
X30302500Y61630000D03*
X30302500Y61230000D03*
X30302500Y60830000D03*
X30302500Y60430000D03*
X30302500Y60030000D03*
X30302500Y59630000D03*
D31*
X31140000Y58792500D03*
X31540000Y58792500D03*
X31940000Y58792500D03*
X32340000Y58792500D03*
X32740000Y58792500D03*
X33140000Y58792500D03*
X33540000Y58792500D03*
X33940000Y58792500D03*
X34340000Y58792500D03*
X34740000Y58792500D03*
X35140000Y58792500D03*
X35540000Y58792500D03*
X35940000Y58792500D03*
X36340000Y58792500D03*
D30*
X37177500Y59630000D03*
X37177500Y60030000D03*
X37177500Y60430000D03*
X37177500Y60830000D03*
X37177500Y61230000D03*
X37177500Y61630000D03*
X37177500Y62030000D03*
X37177500Y62430000D03*
X37177500Y62830000D03*
X37177500Y63230000D03*
X37177500Y63630000D03*
X37177500Y64030000D03*
X37177500Y64430000D03*
X37177500Y64830000D03*
D31*
X36340000Y65667500D03*
X35940000Y65667500D03*
X35540000Y65667500D03*
X35140000Y65667500D03*
X34740000Y65667500D03*
X34340000Y65667500D03*
X33940000Y65667500D03*
X33540000Y65667500D03*
X33140000Y65667500D03*
X32740000Y65667500D03*
X32340000Y65667500D03*
X31940000Y65667500D03*
X31540000Y65667500D03*
X31140000Y65667500D03*
G04 #@! TD*
D18*
G04 #@! TO.C,Q2*
X75060000Y17035000D03*
X74560000Y17035000D03*
X74060000Y17035000D03*
X74060000Y15535000D03*
X74560000Y15535000D03*
X75060000Y15535000D03*
G04 #@! TD*
D19*
G04 #@! TO.C,C15*
X10540000Y61505000D03*
X9580000Y61505000D03*
G04 #@! TD*
D12*
G04 #@! TO.C,R16*
X95465000Y59780000D03*
X94445000Y59780000D03*
G04 #@! TD*
D19*
G04 #@! TO.C,C13*
X47995000Y26210000D03*
X47035000Y26210000D03*
G04 #@! TD*
D38*
G04 #@! TO.C,U3*
X36470000Y18805000D03*
X36470000Y20075000D03*
X36470000Y21345000D03*
X36470000Y22615000D03*
X30780000Y22615000D03*
X30780000Y21345000D03*
X30780000Y20075000D03*
X30780000Y18805000D03*
G04 #@! TD*
D28*
G04 #@! TO.C,Y1*
X49770000Y54880000D03*
X51520000Y54880000D03*
X51520000Y56280000D03*
X49770000Y56280000D03*
G04 #@! TD*
D19*
G04 #@! TO.C,C2*
X18650000Y14585000D03*
X17690000Y14585000D03*
G04 #@! TD*
D12*
G04 #@! TO.C,R1*
X11780000Y36385000D03*
X10760000Y36385000D03*
G04 #@! TD*
D15*
G04 #@! TO.C,C11*
X14645000Y33230000D03*
X14645000Y34190000D03*
G04 #@! TD*
D11*
G04 #@! TO.C,C7*
X52255000Y35940000D03*
X52255000Y34980000D03*
G04 #@! TD*
G04 #@! TO.C,C14*
X52005000Y24390000D03*
X52005000Y23430000D03*
G04 #@! TD*
D12*
G04 #@! TO.C,R16*
X20345000Y59780000D03*
X19325000Y59780000D03*
G04 #@! TD*
D17*
G04 #@! TO.C,R12*
X88725000Y73200000D03*
X88725000Y74220000D03*
G04 #@! TD*
D18*
G04 #@! TO.C,Q1*
X10720000Y33960000D03*
X11220000Y33960000D03*
X11720000Y33960000D03*
X11720000Y35460000D03*
X11220000Y35460000D03*
X10720000Y35460000D03*
G04 #@! TD*
D14*
G04 #@! TO.C,R10*
X9155000Y19797500D03*
X9155000Y18777500D03*
G04 #@! TD*
D13*
G04 #@! TO.C,C13*
X56905000Y64830000D03*
X57865000Y64830000D03*
G04 #@! TD*
D27*
G04 #@! TO.C,D2*
X57295000Y70407500D03*
X57295000Y69437500D03*
G04 #@! TD*
D11*
G04 #@! TO.C,C17*
X52855000Y24390000D03*
X52855000Y23430000D03*
G04 #@! TD*
G04 #@! TO.C,C10*
X16485000Y67610000D03*
X16485000Y66650000D03*
G04 #@! TD*
D24*
G04 #@! TO.C,J1*
X18090000Y78500000D03*
X17290000Y78500000D03*
D25*
X16140000Y78500000D03*
X15140000Y78500000D03*
X14640000Y78500000D03*
X13640000Y78500000D03*
D24*
X12490000Y78500000D03*
X11690000Y78500000D03*
X11690000Y78500000D03*
X12490000Y78500000D03*
D25*
X13140000Y78500000D03*
X14140000Y78500000D03*
X15640000Y78500000D03*
X16640000Y78500000D03*
D24*
X17290000Y78500000D03*
X18090000Y78500000D03*
G04 #@! TD*
D11*
G04 #@! TO.C,C17*
X71635000Y24390000D03*
X71635000Y23430000D03*
G04 #@! TD*
D14*
G04 #@! TO.C,R8*
X48385000Y78590000D03*
X48385000Y77570000D03*
G04 #@! TD*
G04 #@! TO.C,R13*
X32415000Y17840000D03*
X32415000Y16820000D03*
G04 #@! TD*
D20*
G04 #@! TO.C,SW1*
X20940000Y57730000D03*
X20940000Y55030000D03*
X19790000Y55030000D03*
X19790000Y57730000D03*
G04 #@! TD*
D16*
G04 #@! TO.C,R17*
X38105000Y58905000D03*
X39125000Y58905000D03*
G04 #@! TD*
D17*
G04 #@! TO.C,R7*
X85945000Y12450000D03*
X85945000Y13470000D03*
G04 #@! TD*
D16*
G04 #@! TO.C,R5*
X75775000Y15135000D03*
X76795000Y15135000D03*
G04 #@! TD*
D19*
G04 #@! TO.C,C1*
X85435000Y76780000D03*
X84475000Y76780000D03*
G04 #@! TD*
D39*
G04 #@! TO.C,F1*
X93217500Y76180000D03*
X94792500Y76180000D03*
G04 #@! TD*
D19*
G04 #@! TO.C,C5*
X74745000Y74270000D03*
X73785000Y74270000D03*
G04 #@! TD*
D32*
G04 #@! TO.C,U3*
X12090000Y72235000D03*
X12090000Y70965000D03*
X12090000Y69695000D03*
X12090000Y68425000D03*
X17780000Y68425000D03*
X17780000Y69695000D03*
X17780000Y70965000D03*
X17780000Y72235000D03*
G04 #@! TD*
D13*
G04 #@! TO.C,C15*
X56800000Y29535000D03*
X57760000Y29535000D03*
G04 #@! TD*
D19*
G04 #@! TO.C,C2*
X37430000Y14585000D03*
X36470000Y14585000D03*
G04 #@! TD*
D39*
G04 #@! TO.C,F1*
X55657500Y76180000D03*
X57232500Y76180000D03*
G04 #@! TD*
D12*
G04 #@! TO.C,R1*
X30560000Y36385000D03*
X29540000Y36385000D03*
G04 #@! TD*
D13*
G04 #@! TO.C,C2*
X11130000Y76455000D03*
X12090000Y76455000D03*
G04 #@! TD*
D15*
G04 #@! TO.C,C16*
X11655000Y66640000D03*
X11655000Y67600000D03*
G04 #@! TD*
D14*
G04 #@! TO.C,R7*
X18955000Y78590000D03*
X18955000Y77570000D03*
G04 #@! TD*
G04 #@! TO.C,R10*
X46715000Y19797500D03*
X46715000Y18777500D03*
G04 #@! TD*
D17*
G04 #@! TO.C,R13*
X91265000Y73200000D03*
X91265000Y74220000D03*
G04 #@! TD*
D13*
G04 #@! TO.C,C12*
X38135000Y61230000D03*
X39095000Y61230000D03*
G04 #@! TD*
D11*
G04 #@! TO.C,C7*
X33475000Y35940000D03*
X33475000Y34980000D03*
G04 #@! TD*
D12*
G04 #@! TO.C,R9*
X93875000Y17890000D03*
X92855000Y17890000D03*
G04 #@! TD*
D11*
G04 #@! TO.C,C7*
X89815000Y35940000D03*
X89815000Y34980000D03*
G04 #@! TD*
D14*
G04 #@! TO.C,R2*
X35775000Y17270000D03*
X35775000Y16250000D03*
G04 #@! TD*
D19*
G04 #@! TO.C,C2*
X93770000Y14585000D03*
X92810000Y14585000D03*
G04 #@! TD*
D14*
G04 #@! TO.C,R12*
X91295000Y17840000D03*
X91295000Y16820000D03*
G04 #@! TD*
D12*
G04 #@! TO.C,R9*
X56315000Y17890000D03*
X55295000Y17890000D03*
G04 #@! TD*
D16*
G04 #@! TO.C,R14*
X69465000Y57330000D03*
X70485000Y57330000D03*
G04 #@! TD*
D15*
G04 #@! TO.C,C7*
X33865000Y55100000D03*
X33865000Y56060000D03*
G04 #@! TD*
D28*
G04 #@! TO.C,Y1*
X92690000Y36160000D03*
X90940000Y36160000D03*
X90940000Y34760000D03*
X92690000Y34760000D03*
G04 #@! TD*
D17*
G04 #@! TO.C,R13*
X53705000Y73200000D03*
X53705000Y74220000D03*
G04 #@! TD*
D12*
G04 #@! TO.C,R17*
X48015000Y32135000D03*
X46995000Y32135000D03*
G04 #@! TD*
D14*
G04 #@! TO.C,R3*
X69360000Y36320000D03*
X69360000Y35300000D03*
G04 #@! TD*
D16*
G04 #@! TO.C,R14*
X13125000Y57330000D03*
X14145000Y57330000D03*
G04 #@! TD*
G04 #@! TO.C,R9*
X29805000Y73150000D03*
X30825000Y73150000D03*
G04 #@! TD*
D12*
G04 #@! TO.C,R9*
X18755000Y17890000D03*
X17735000Y17890000D03*
G04 #@! TD*
D26*
G04 #@! TO.C,D1*
X84275000Y20622500D03*
X84275000Y21592500D03*
G04 #@! TD*
D13*
G04 #@! TO.C,C2*
X29910000Y76455000D03*
X30870000Y76455000D03*
G04 #@! TD*
D17*
G04 #@! TO.C,R15*
X94855000Y71242500D03*
X94855000Y72262500D03*
G04 #@! TD*
G04 #@! TO.C,R12*
X13605000Y73200000D03*
X13605000Y74220000D03*
G04 #@! TD*
D15*
G04 #@! TO.C,C17*
X89605000Y66650000D03*
X89605000Y67610000D03*
G04 #@! TD*
D27*
G04 #@! TO.C,D2*
X94855000Y70407500D03*
X94855000Y69437500D03*
G04 #@! TD*
D12*
G04 #@! TO.C,R14*
X72995000Y33710000D03*
X71975000Y33710000D03*
G04 #@! TD*
D13*
G04 #@! TO.C,C13*
X75685000Y64830000D03*
X76645000Y64830000D03*
G04 #@! TD*
D17*
G04 #@! TO.C,R7*
X10825000Y12450000D03*
X10825000Y13470000D03*
G04 #@! TD*
D12*
G04 #@! TO.C,R17*
X29235000Y32135000D03*
X28215000Y32135000D03*
G04 #@! TD*
D15*
G04 #@! TO.C,C6*
X67285000Y18810000D03*
X67285000Y19770000D03*
G04 #@! TD*
D28*
G04 #@! TO.C,Y1*
X17570000Y36160000D03*
X15820000Y36160000D03*
X15820000Y34760000D03*
X17570000Y34760000D03*
G04 #@! TD*
D19*
G04 #@! TO.C,C13*
X85555000Y26210000D03*
X84595000Y26210000D03*
G04 #@! TD*
D16*
G04 #@! TO.C,R14*
X88245000Y57330000D03*
X89265000Y57330000D03*
G04 #@! TD*
D21*
G04 #@! TO.C,U4*
X89140000Y28010000D03*
X90740000Y29610000D03*
X89140000Y29610000D03*
X90740000Y28010000D03*
D22*
X93377500Y26210000D03*
X93377500Y26610000D03*
X93377500Y27010000D03*
X93377500Y27410000D03*
X93377500Y27810000D03*
X93377500Y28210000D03*
X93377500Y28610000D03*
X93377500Y29010000D03*
X93377500Y29410000D03*
X93377500Y29810000D03*
X93377500Y30210000D03*
X93377500Y30610000D03*
X93377500Y31010000D03*
X93377500Y31410000D03*
D23*
X92540000Y32247500D03*
X92140000Y32247500D03*
X91740000Y32247500D03*
X91340000Y32247500D03*
X90940000Y32247500D03*
X90540000Y32247500D03*
X90140000Y32247500D03*
X89740000Y32247500D03*
X89340000Y32247500D03*
X88940000Y32247500D03*
X88540000Y32247500D03*
X88140000Y32247500D03*
X87740000Y32247500D03*
X87340000Y32247500D03*
D22*
X86502500Y31410000D03*
X86502500Y31010000D03*
X86502500Y30610000D03*
X86502500Y30210000D03*
X86502500Y29810000D03*
X86502500Y29410000D03*
X86502500Y29010000D03*
X86502500Y28610000D03*
X86502500Y28210000D03*
X86502500Y27810000D03*
X86502500Y27410000D03*
X86502500Y27010000D03*
X86502500Y26610000D03*
X86502500Y26210000D03*
D23*
X87340000Y25372500D03*
X87740000Y25372500D03*
X88140000Y25372500D03*
X88540000Y25372500D03*
X88940000Y25372500D03*
X89340000Y25372500D03*
X89740000Y25372500D03*
X90140000Y25372500D03*
X90540000Y25372500D03*
X90940000Y25372500D03*
X91340000Y25372500D03*
X91740000Y25372500D03*
X92140000Y25372500D03*
X92540000Y25372500D03*
G04 #@! TD*
D13*
G04 #@! TO.C,C15*
X38020000Y29535000D03*
X38980000Y29535000D03*
G04 #@! TD*
D28*
G04 #@! TO.C,Y1*
X30990000Y54880000D03*
X32740000Y54880000D03*
X32740000Y56280000D03*
X30990000Y56280000D03*
G04 #@! TD*
D17*
G04 #@! TO.C,R7*
X67165000Y12450000D03*
X67165000Y13470000D03*
G04 #@! TD*
G04 #@! TO.C,R4*
X47895000Y74045000D03*
X47895000Y75065000D03*
G04 #@! TD*
G04 #@! TO.C,R6*
X20470000Y15975000D03*
X20470000Y16995000D03*
G04 #@! TD*
D39*
G04 #@! TO.C,F1*
X18097500Y76180000D03*
X19672500Y76180000D03*
G04 #@! TD*
D14*
G04 #@! TO.C,R10*
X27935000Y19797500D03*
X27935000Y18777500D03*
G04 #@! TD*
D16*
G04 #@! TO.C,R16*
X9435000Y31260000D03*
X10455000Y31260000D03*
G04 #@! TD*
D14*
G04 #@! TO.C,R11*
X37550000Y19820000D03*
X37550000Y18800000D03*
G04 #@! TD*
D19*
G04 #@! TO.C,C5*
X18405000Y74270000D03*
X17445000Y74270000D03*
G04 #@! TD*
D11*
G04 #@! TO.C,C11*
X90255000Y57810000D03*
X90255000Y56850000D03*
G04 #@! TD*
D17*
G04 #@! TO.C,R10*
X76965000Y71242500D03*
X76965000Y72262500D03*
G04 #@! TD*
D15*
G04 #@! TO.C,C10*
X88415000Y23430000D03*
X88415000Y24390000D03*
G04 #@! TD*
D11*
G04 #@! TO.C,C14*
X89565000Y24390000D03*
X89565000Y23430000D03*
G04 #@! TD*
D35*
G04 #@! TO.C,F1*
X68022500Y14860000D03*
X66447500Y14860000D03*
G04 #@! TD*
D17*
G04 #@! TO.C,FB1*
X39235000Y81190000D03*
X39235000Y82210000D03*
G04 #@! TD*
D33*
G04 #@! TO.C,U1*
X15442500Y17840000D03*
D34*
X14905000Y17915000D03*
D33*
X14367500Y17840000D03*
X14367500Y16140000D03*
D34*
X14905000Y16065000D03*
D33*
X15442500Y16140000D03*
G04 #@! TD*
D27*
G04 #@! TO.C,D1*
X20625000Y70417500D03*
X20625000Y69447500D03*
G04 #@! TD*
D26*
G04 #@! TO.C,D1*
X27935000Y20622500D03*
X27935000Y21592500D03*
G04 #@! TD*
D12*
G04 #@! TO.C,R16*
X39125000Y59780000D03*
X38105000Y59780000D03*
G04 #@! TD*
D11*
G04 #@! TO.C,C6*
X37615000Y72230000D03*
X37615000Y71270000D03*
G04 #@! TD*
D33*
G04 #@! TO.C,U1*
X89457500Y73200000D03*
D34*
X89995000Y73125000D03*
D33*
X90532500Y73200000D03*
X90532500Y74900000D03*
D34*
X89995000Y74975000D03*
D33*
X89457500Y74900000D03*
G04 #@! TD*
D17*
G04 #@! TO.C,R7*
X29605000Y12450000D03*
X29605000Y13470000D03*
G04 #@! TD*
D18*
G04 #@! TO.C,U5*
X75960000Y22510000D03*
X75460000Y22510000D03*
X74960000Y22510000D03*
X74960000Y21010000D03*
X75460000Y21010000D03*
X75960000Y21010000D03*
G04 #@! TD*
D24*
G04 #@! TO.C,J1*
X74430000Y78500000D03*
X73630000Y78500000D03*
D25*
X72480000Y78500000D03*
X71480000Y78500000D03*
X70980000Y78500000D03*
X69980000Y78500000D03*
D24*
X68830000Y78500000D03*
X68030000Y78500000D03*
X68030000Y78500000D03*
X68830000Y78500000D03*
D25*
X69480000Y78500000D03*
X70480000Y78500000D03*
X71980000Y78500000D03*
X72980000Y78500000D03*
D24*
X73630000Y78500000D03*
X74430000Y78500000D03*
G04 #@! TD*
D15*
G04 #@! TO.C,C16*
X86775000Y66640000D03*
X86775000Y67600000D03*
G04 #@! TD*
D12*
G04 #@! TO.C,R5*
X10345000Y75905000D03*
X9325000Y75905000D03*
G04 #@! TD*
D19*
G04 #@! TO.C,C2*
X74990000Y14585000D03*
X74030000Y14585000D03*
G04 #@! TD*
G04 #@! TO.C,C4*
X66775000Y16770000D03*
X65815000Y16770000D03*
G04 #@! TD*
D14*
G04 #@! TO.C,R11*
X75110000Y19820000D03*
X75110000Y18800000D03*
G04 #@! TD*
D18*
G04 #@! TO.C,Q2*
X56280000Y17035000D03*
X55780000Y17035000D03*
X55280000Y17035000D03*
X55280000Y15535000D03*
X55780000Y15535000D03*
X56280000Y15535000D03*
G04 #@! TD*
D19*
G04 #@! TO.C,C13*
X29215000Y26210000D03*
X28255000Y26210000D03*
G04 #@! TD*
D14*
G04 #@! TO.C,R12*
X72515000Y17840000D03*
X72515000Y16820000D03*
G04 #@! TD*
D17*
G04 #@! TO.C,R10*
X20625000Y71242500D03*
X20625000Y72262500D03*
G04 #@! TD*
D11*
G04 #@! TO.C,C16*
X36905000Y24400000D03*
X36905000Y23440000D03*
G04 #@! TD*
D17*
G04 #@! TO.C,R2*
X69125000Y73770000D03*
X69125000Y74790000D03*
G04 #@! TD*
D16*
G04 #@! TO.C,R1*
X74340000Y54655000D03*
X75360000Y54655000D03*
G04 #@! TD*
D17*
G04 #@! TO.C,R8*
X75295000Y12450000D03*
X75295000Y13470000D03*
G04 #@! TD*
D15*
G04 #@! TO.C,C8*
X11065000Y54110000D03*
X11065000Y55070000D03*
G04 #@! TD*
D24*
G04 #@! TO.C,J1*
X36870000Y78500000D03*
X36070000Y78500000D03*
D25*
X34920000Y78500000D03*
X33920000Y78500000D03*
X33420000Y78500000D03*
X32420000Y78500000D03*
D24*
X31270000Y78500000D03*
X30470000Y78500000D03*
X30470000Y78500000D03*
X31270000Y78500000D03*
D25*
X31920000Y78500000D03*
X32920000Y78500000D03*
X34420000Y78500000D03*
X35420000Y78500000D03*
D24*
X36070000Y78500000D03*
X36870000Y78500000D03*
G04 #@! TD*
D17*
G04 #@! TO.C,R12*
X69945000Y73200000D03*
X69945000Y74220000D03*
G04 #@! TD*
D11*
G04 #@! TO.C,C17*
X34075000Y24390000D03*
X34075000Y23430000D03*
G04 #@! TD*
D12*
G04 #@! TO.C,R17*
X85575000Y32135000D03*
X84555000Y32135000D03*
G04 #@! TD*
D27*
G04 #@! TO.C,D1*
X76965000Y70417500D03*
X76965000Y69447500D03*
G04 #@! TD*
D11*
G04 #@! TO.C,C16*
X55685000Y24400000D03*
X55685000Y23440000D03*
G04 #@! TD*
D18*
G04 #@! TO.C,U5*
X66500000Y68530000D03*
X67000000Y68530000D03*
X67500000Y68530000D03*
X67500000Y70030000D03*
X67000000Y70030000D03*
X66500000Y70030000D03*
G04 #@! TD*
D15*
G04 #@! TO.C,C14*
X71675000Y66650000D03*
X71675000Y67610000D03*
G04 #@! TD*
D16*
G04 #@! TO.C,R9*
X86145000Y73150000D03*
X87165000Y73150000D03*
G04 #@! TD*
D15*
G04 #@! TO.C,C8*
X86185000Y54110000D03*
X86185000Y55070000D03*
G04 #@! TD*
D11*
G04 #@! TO.C,C16*
X93245000Y24400000D03*
X93245000Y23440000D03*
G04 #@! TD*
D16*
G04 #@! TO.C,R5*
X19435000Y15135000D03*
X20455000Y15135000D03*
G04 #@! TD*
D11*
G04 #@! TO.C,C11*
X71475000Y57810000D03*
X71475000Y56850000D03*
G04 #@! TD*
D14*
G04 #@! TO.C,R4*
X94565000Y16995000D03*
X94565000Y15975000D03*
G04 #@! TD*
D15*
G04 #@! TO.C,C11*
X89765000Y33230000D03*
X89765000Y34190000D03*
G04 #@! TD*
D18*
G04 #@! TO.C,U5*
X28940000Y68530000D03*
X29440000Y68530000D03*
X29940000Y68530000D03*
X29940000Y70030000D03*
X29440000Y70030000D03*
X28940000Y70030000D03*
G04 #@! TD*
G04 #@! TO.C,Q2*
X86180000Y74005000D03*
X86680000Y74005000D03*
X87180000Y74005000D03*
X87180000Y75505000D03*
X86680000Y75505000D03*
X86180000Y75505000D03*
G04 #@! TD*
G04 #@! TO.C,Q1*
X67060000Y33960000D03*
X67560000Y33960000D03*
X68060000Y33960000D03*
X68060000Y35460000D03*
X67560000Y35460000D03*
X67060000Y35460000D03*
G04 #@! TD*
D15*
G04 #@! TO.C,C7*
X90205000Y55100000D03*
X90205000Y56060000D03*
G04 #@! TD*
D11*
G04 #@! TO.C,C6*
X56395000Y72230000D03*
X56395000Y71270000D03*
G04 #@! TD*
D14*
G04 #@! TO.C,R4*
X75785000Y16995000D03*
X75785000Y15975000D03*
G04 #@! TD*
D33*
G04 #@! TO.C,U1*
X71782500Y17840000D03*
D34*
X71245000Y17915000D03*
D33*
X70707500Y17840000D03*
X70707500Y16140000D03*
D34*
X71245000Y16065000D03*
D33*
X71782500Y16140000D03*
G04 #@! TD*
D14*
G04 #@! TO.C,R10*
X84275000Y19797500D03*
X84275000Y18777500D03*
G04 #@! TD*
D38*
G04 #@! TO.C,U3*
X17690000Y18805000D03*
X17690000Y20075000D03*
X17690000Y21345000D03*
X17690000Y22615000D03*
X12000000Y22615000D03*
X12000000Y21345000D03*
X12000000Y20075000D03*
X12000000Y18805000D03*
G04 #@! TD*
D17*
G04 #@! TO.C,R4*
X10335000Y74045000D03*
X10335000Y75065000D03*
G04 #@! TD*
D32*
G04 #@! TO.C,U3*
X68430000Y72235000D03*
X68430000Y70965000D03*
X68430000Y69695000D03*
X68430000Y68425000D03*
X74120000Y68425000D03*
X74120000Y69695000D03*
X74120000Y70965000D03*
X74120000Y72235000D03*
G04 #@! TD*
D19*
G04 #@! TO.C,C12*
X10425000Y29810000D03*
X9465000Y29810000D03*
G04 #@! TD*
D14*
G04 #@! TO.C,R12*
X16175000Y17840000D03*
X16175000Y16820000D03*
G04 #@! TD*
D15*
G04 #@! TO.C,C17*
X33265000Y66650000D03*
X33265000Y67610000D03*
G04 #@! TD*
D37*
G04 #@! TO.C,REF\u002A\u002A*
X102400000Y88540000D03*
G04 #@! TD*
D19*
G04 #@! TO.C,C4*
X85555000Y16770000D03*
X84595000Y16770000D03*
G04 #@! TD*
D18*
G04 #@! TO.C,Q2*
X18720000Y17035000D03*
X18220000Y17035000D03*
X17720000Y17035000D03*
X17720000Y15535000D03*
X18220000Y15535000D03*
X18720000Y15535000D03*
G04 #@! TD*
D38*
G04 #@! TO.C,U3*
X74030000Y18805000D03*
X74030000Y20075000D03*
X74030000Y21345000D03*
X74030000Y22615000D03*
X68340000Y22615000D03*
X68340000Y21345000D03*
X68340000Y20075000D03*
X68340000Y18805000D03*
G04 #@! TD*
D11*
G04 #@! TO.C,C9*
X73675000Y67610000D03*
X73675000Y66650000D03*
G04 #@! TD*
D29*
G04 #@! TO.C,U4*
X53320000Y63030000D03*
X53320000Y61430000D03*
X51720000Y63030000D03*
X51720000Y61430000D03*
D30*
X49082500Y64830000D03*
X49082500Y64430000D03*
X49082500Y64030000D03*
X49082500Y63630000D03*
X49082500Y63230000D03*
X49082500Y62830000D03*
X49082500Y62430000D03*
X49082500Y62030000D03*
X49082500Y61630000D03*
X49082500Y61230000D03*
X49082500Y60830000D03*
X49082500Y60430000D03*
X49082500Y60030000D03*
X49082500Y59630000D03*
D31*
X49920000Y58792500D03*
X50320000Y58792500D03*
X50720000Y58792500D03*
X51120000Y58792500D03*
X51520000Y58792500D03*
X51920000Y58792500D03*
X52320000Y58792500D03*
X52720000Y58792500D03*
X53120000Y58792500D03*
X53520000Y58792500D03*
X53920000Y58792500D03*
X54320000Y58792500D03*
X54720000Y58792500D03*
X55120000Y58792500D03*
D30*
X55957500Y59630000D03*
X55957500Y60030000D03*
X55957500Y60430000D03*
X55957500Y60830000D03*
X55957500Y61230000D03*
X55957500Y61630000D03*
X55957500Y62030000D03*
X55957500Y62430000D03*
X55957500Y62830000D03*
X55957500Y63230000D03*
X55957500Y63630000D03*
X55957500Y64030000D03*
X55957500Y64430000D03*
X55957500Y64830000D03*
D31*
X55120000Y65667500D03*
X54720000Y65667500D03*
X54320000Y65667500D03*
X53920000Y65667500D03*
X53520000Y65667500D03*
X53120000Y65667500D03*
X52720000Y65667500D03*
X52320000Y65667500D03*
X51920000Y65667500D03*
X51520000Y65667500D03*
X51120000Y65667500D03*
X50720000Y65667500D03*
X50320000Y65667500D03*
X49920000Y65667500D03*
G04 #@! TD*
D17*
G04 #@! TO.C,R3*
X35540000Y54720000D03*
X35540000Y55740000D03*
G04 #@! TD*
D19*
G04 #@! TO.C,C15*
X66880000Y61505000D03*
X65920000Y61505000D03*
G04 #@! TD*
D11*
G04 #@! TO.C,C18*
X49155000Y24390000D03*
X49155000Y23430000D03*
G04 #@! TD*
D35*
G04 #@! TO.C,F1*
X11682500Y14860000D03*
X10107500Y14860000D03*
G04 #@! TD*
D17*
G04 #@! TO.C,R15*
X38515000Y71242500D03*
X38515000Y72262500D03*
G04 #@! TD*
D13*
G04 #@! TO.C,C1*
X19465000Y14260000D03*
X20425000Y14260000D03*
G04 #@! TD*
D14*
G04 #@! TO.C,R7*
X56515000Y78590000D03*
X56515000Y77570000D03*
G04 #@! TD*
D11*
G04 #@! TO.C,C8*
X18715000Y36930000D03*
X18715000Y35970000D03*
G04 #@! TD*
D13*
G04 #@! TO.C,C4*
X19345000Y74270000D03*
X20305000Y74270000D03*
G04 #@! TD*
D27*
G04 #@! TO.C,D2*
X38515000Y70407500D03*
X38515000Y69437500D03*
G04 #@! TD*
D15*
G04 #@! TO.C,C19*
X13795000Y33230000D03*
X13795000Y34190000D03*
G04 #@! TD*
D16*
G04 #@! TO.C,R14*
X50685000Y57330000D03*
X51705000Y57330000D03*
G04 #@! TD*
D15*
G04 #@! TO.C,C7*
X71425000Y55100000D03*
X71425000Y56060000D03*
G04 #@! TD*
D14*
G04 #@! TO.C,R11*
X18770000Y19820000D03*
X18770000Y18800000D03*
G04 #@! TD*
D15*
G04 #@! TO.C,C9*
X12445000Y23430000D03*
X12445000Y24390000D03*
G04 #@! TD*
D12*
G04 #@! TO.C,R1*
X86900000Y36385000D03*
X85880000Y36385000D03*
G04 #@! TD*
D19*
G04 #@! TO.C,C12*
X85545000Y29810000D03*
X84585000Y29810000D03*
G04 #@! TD*
D16*
G04 #@! TO.C,R5*
X38215000Y15135000D03*
X39235000Y15135000D03*
G04 #@! TD*
D15*
G04 #@! TO.C,C3*
X20695000Y76190000D03*
X20695000Y77150000D03*
G04 #@! TD*
G04 #@! TO.C,C11*
X33425000Y33230000D03*
X33425000Y34190000D03*
G04 #@! TD*
D17*
G04 #@! TO.C,R11*
X11010000Y71220000D03*
X11010000Y72240000D03*
G04 #@! TD*
D15*
G04 #@! TO.C,C17*
X14485000Y66650000D03*
X14485000Y67610000D03*
G04 #@! TD*
D26*
G04 #@! TO.C,D1*
X46715000Y20622500D03*
X46715000Y21592500D03*
G04 #@! TD*
D36*
G04 #@! TO.C,SW1*
X8840000Y36010000D03*
X8840000Y33310000D03*
X9990000Y33310000D03*
X9990000Y36010000D03*
G04 #@! TD*
D15*
G04 #@! TO.C,C14*
X34115000Y66650000D03*
X34115000Y67610000D03*
G04 #@! TD*
D28*
G04 #@! TO.C,Y1*
X12210000Y54880000D03*
X13960000Y54880000D03*
X13960000Y56280000D03*
X12210000Y56280000D03*
G04 #@! TD*
D26*
G04 #@! TO.C,D1*
X9155000Y20622500D03*
X9155000Y21592500D03*
G04 #@! TD*
D19*
G04 #@! TO.C,C1*
X66655000Y76780000D03*
X65695000Y76780000D03*
G04 #@! TD*
D11*
G04 #@! TO.C,C11*
X33915000Y57810000D03*
X33915000Y56850000D03*
G04 #@! TD*
D38*
G04 #@! TO.C,U3*
X92810000Y18805000D03*
X92810000Y20075000D03*
X92810000Y21345000D03*
X92810000Y22615000D03*
X87120000Y22615000D03*
X87120000Y21345000D03*
X87120000Y20075000D03*
X87120000Y18805000D03*
G04 #@! TD*
D17*
G04 #@! TO.C,R13*
X16145000Y73200000D03*
X16145000Y74220000D03*
G04 #@! TD*
D21*
G04 #@! TO.C,U4*
X70360000Y29610000D03*
X71960000Y29610000D03*
X71960000Y28010000D03*
X70360000Y28010000D03*
D22*
X74597500Y26210000D03*
X74597500Y26610000D03*
X74597500Y27010000D03*
X74597500Y27410000D03*
X74597500Y27810000D03*
X74597500Y28210000D03*
X74597500Y28610000D03*
X74597500Y29010000D03*
X74597500Y29410000D03*
X74597500Y29810000D03*
X74597500Y30210000D03*
X74597500Y30610000D03*
X74597500Y31010000D03*
X74597500Y31410000D03*
D23*
X73760000Y32247500D03*
X73360000Y32247500D03*
X72960000Y32247500D03*
X72560000Y32247500D03*
X72160000Y32247500D03*
X71760000Y32247500D03*
X71360000Y32247500D03*
X70960000Y32247500D03*
X70560000Y32247500D03*
X70160000Y32247500D03*
X69760000Y32247500D03*
X69360000Y32247500D03*
X68960000Y32247500D03*
X68560000Y32247500D03*
D22*
X67722500Y31410000D03*
X67722500Y31010000D03*
X67722500Y30610000D03*
X67722500Y30210000D03*
X67722500Y29810000D03*
X67722500Y29410000D03*
X67722500Y29010000D03*
X67722500Y28610000D03*
X67722500Y28210000D03*
X67722500Y27810000D03*
X67722500Y27410000D03*
X67722500Y27010000D03*
X67722500Y26610000D03*
X67722500Y26210000D03*
D23*
X68560000Y25372500D03*
X68960000Y25372500D03*
X69360000Y25372500D03*
X69760000Y25372500D03*
X70160000Y25372500D03*
X70560000Y25372500D03*
X70960000Y25372500D03*
X71360000Y25372500D03*
X71760000Y25372500D03*
X72160000Y25372500D03*
X72560000Y25372500D03*
X72960000Y25372500D03*
X73360000Y25372500D03*
X73760000Y25372500D03*
G04 #@! TD*
D19*
G04 #@! TO.C,C12*
X29205000Y29810000D03*
X28245000Y29810000D03*
G04 #@! TD*
D15*
G04 #@! TO.C,C9*
X68785000Y23430000D03*
X68785000Y24390000D03*
G04 #@! TD*
D17*
G04 #@! TO.C,R4*
X66675000Y74045000D03*
X66675000Y75065000D03*
G04 #@! TD*
D19*
G04 #@! TO.C,C12*
X47985000Y29810000D03*
X47025000Y29810000D03*
G04 #@! TD*
D12*
G04 #@! TO.C,R14*
X35435000Y33710000D03*
X34415000Y33710000D03*
G04 #@! TD*
D19*
G04 #@! TO.C,C5*
X93525000Y74270000D03*
X92565000Y74270000D03*
G04 #@! TD*
D15*
G04 #@! TO.C,C3*
X95815000Y76190000D03*
X95815000Y77150000D03*
G04 #@! TD*
D14*
G04 #@! TO.C,R3*
X13020000Y36320000D03*
X13020000Y35300000D03*
G04 #@! TD*
G04 #@! TO.C,R12*
X34955000Y17840000D03*
X34955000Y16820000D03*
G04 #@! TD*
G04 #@! TO.C,R6*
X84430000Y75065000D03*
X84430000Y74045000D03*
G04 #@! TD*
D16*
G04 #@! TO.C,R17*
X56885000Y58905000D03*
X57905000Y58905000D03*
G04 #@! TD*
D17*
G04 #@! TO.C,R8*
X56515000Y12450000D03*
X56515000Y13470000D03*
G04 #@! TD*
D20*
G04 #@! TO.C,SW1*
X77280000Y57730000D03*
X77280000Y55030000D03*
X76130000Y57730000D03*
X76130000Y55030000D03*
G04 #@! TD*
D12*
G04 #@! TO.C,R9*
X37535000Y17890000D03*
X36515000Y17890000D03*
G04 #@! TD*
D18*
G04 #@! TO.C,U5*
X94740000Y22510000D03*
X94240000Y22510000D03*
X93740000Y22510000D03*
X93740000Y21010000D03*
X94240000Y21010000D03*
X94740000Y21010000D03*
G04 #@! TD*
D17*
G04 #@! TO.C,R2*
X50345000Y73770000D03*
X50345000Y74790000D03*
G04 #@! TD*
D11*
G04 #@! TO.C,C11*
X52695000Y57810000D03*
X52695000Y56850000D03*
G04 #@! TD*
D14*
G04 #@! TO.C,R3*
X50580000Y36320000D03*
X50580000Y35300000D03*
G04 #@! TD*
D11*
G04 #@! TO.C,C14*
X33225000Y24390000D03*
X33225000Y23430000D03*
G04 #@! TD*
D14*
G04 #@! TO.C,R3*
X31800000Y36320000D03*
X31800000Y35300000D03*
G04 #@! TD*
D17*
G04 #@! TO.C,R13*
X34925000Y73200000D03*
X34925000Y74220000D03*
G04 #@! TD*
D11*
G04 #@! TO.C,C10*
X91605000Y67610000D03*
X91605000Y66650000D03*
G04 #@! TD*
G04 #@! TO.C,C9*
X36115000Y67610000D03*
X36115000Y66650000D03*
G04 #@! TD*
D16*
G04 #@! TO.C,R17*
X94445000Y58905000D03*
X95465000Y58905000D03*
G04 #@! TD*
D29*
G04 #@! TO.C,U4*
X89280000Y61430000D03*
X89280000Y63030000D03*
X90880000Y61430000D03*
X90880000Y63030000D03*
D30*
X86642500Y64830000D03*
X86642500Y64430000D03*
X86642500Y64030000D03*
X86642500Y63630000D03*
X86642500Y63230000D03*
X86642500Y62830000D03*
X86642500Y62430000D03*
X86642500Y62030000D03*
X86642500Y61630000D03*
X86642500Y61230000D03*
X86642500Y60830000D03*
X86642500Y60430000D03*
X86642500Y60030000D03*
X86642500Y59630000D03*
D31*
X87480000Y58792500D03*
X87880000Y58792500D03*
X88280000Y58792500D03*
X88680000Y58792500D03*
X89080000Y58792500D03*
X89480000Y58792500D03*
X89880000Y58792500D03*
X90280000Y58792500D03*
X90680000Y58792500D03*
X91080000Y58792500D03*
X91480000Y58792500D03*
X91880000Y58792500D03*
X92280000Y58792500D03*
X92680000Y58792500D03*
D30*
X93517500Y59630000D03*
X93517500Y60030000D03*
X93517500Y60430000D03*
X93517500Y60830000D03*
X93517500Y61230000D03*
X93517500Y61630000D03*
X93517500Y62030000D03*
X93517500Y62430000D03*
X93517500Y62830000D03*
X93517500Y63230000D03*
X93517500Y63630000D03*
X93517500Y64030000D03*
X93517500Y64430000D03*
X93517500Y64830000D03*
D31*
X92680000Y65667500D03*
X92280000Y65667500D03*
X91880000Y65667500D03*
X91480000Y65667500D03*
X91080000Y65667500D03*
X90680000Y65667500D03*
X90280000Y65667500D03*
X89880000Y65667500D03*
X89480000Y65667500D03*
X89080000Y65667500D03*
X88680000Y65667500D03*
X88280000Y65667500D03*
X87880000Y65667500D03*
X87480000Y65667500D03*
G04 #@! TD*
D39*
G04 #@! TO.C,F1*
X74437500Y76180000D03*
X76012500Y76180000D03*
G04 #@! TD*
D11*
G04 #@! TO.C,C7*
X71035000Y35940000D03*
X71035000Y34980000D03*
G04 #@! TD*
D12*
G04 #@! TO.C,R14*
X16655000Y33710000D03*
X15635000Y33710000D03*
G04 #@! TD*
D11*
G04 #@! TO.C,C10*
X54045000Y67610000D03*
X54045000Y66650000D03*
G04 #@! TD*
D12*
G04 #@! TO.C,R14*
X91775000Y33710000D03*
X90755000Y33710000D03*
G04 #@! TD*
D16*
G04 #@! TO.C,R5*
X94555000Y15135000D03*
X95575000Y15135000D03*
G04 #@! TD*
G04 #@! TO.C,R9*
X48585000Y73150000D03*
X49605000Y73150000D03*
G04 #@! TD*
D17*
G04 #@! TO.C,R6*
X58030000Y15975000D03*
X58030000Y16995000D03*
G04 #@! TD*
D14*
G04 #@! TO.C,R6*
X46870000Y75065000D03*
X46870000Y74045000D03*
G04 #@! TD*
D17*
G04 #@! TO.C,R8*
X37735000Y12450000D03*
X37735000Y13470000D03*
G04 #@! TD*
D14*
G04 #@! TO.C,R4*
X19445000Y16995000D03*
X19445000Y15975000D03*
G04 #@! TD*
D13*
G04 #@! TO.C,C2*
X67470000Y76455000D03*
X68430000Y76455000D03*
G04 #@! TD*
D27*
G04 #@! TO.C,D2*
X76075000Y70407500D03*
X76075000Y69437500D03*
G04 #@! TD*
D18*
G04 #@! TO.C,Q2*
X93840000Y17035000D03*
X93340000Y17035000D03*
X92840000Y17035000D03*
X92840000Y15535000D03*
X93340000Y15535000D03*
X93840000Y15535000D03*
G04 #@! TD*
D17*
G04 #@! TO.C,R11*
X48570000Y71220000D03*
X48570000Y72240000D03*
G04 #@! TD*
D15*
G04 #@! TO.C,C16*
X49215000Y66640000D03*
X49215000Y67600000D03*
G04 #@! TD*
D18*
G04 #@! TO.C,Q1*
X37840000Y57080000D03*
X37340000Y57080000D03*
X36840000Y57080000D03*
X36840000Y55580000D03*
X37340000Y55580000D03*
X37840000Y55580000D03*
G04 #@! TD*
D13*
G04 #@! TO.C,C1*
X38245000Y14260000D03*
X39205000Y14260000D03*
G04 #@! TD*
D11*
G04 #@! TO.C,C7*
X14695000Y35940000D03*
X14695000Y34980000D03*
G04 #@! TD*
G04 #@! TO.C,C17*
X90415000Y24390000D03*
X90415000Y23430000D03*
G04 #@! TD*
D17*
G04 #@! TO.C,R11*
X67350000Y71220000D03*
X67350000Y72240000D03*
G04 #@! TD*
D11*
G04 #@! TO.C,C19*
X15985000Y57810000D03*
X15985000Y56850000D03*
G04 #@! TD*
D13*
G04 #@! TO.C,C1*
X75805000Y14260000D03*
X76765000Y14260000D03*
G04 #@! TD*
D12*
G04 #@! TO.C,R14*
X54215000Y33710000D03*
X53195000Y33710000D03*
G04 #@! TD*
D17*
G04 #@! TO.C,R15*
X57295000Y71242500D03*
X57295000Y72262500D03*
G04 #@! TD*
D13*
G04 #@! TO.C,C13*
X94465000Y64830000D03*
X95425000Y64830000D03*
G04 #@! TD*
D26*
G04 #@! TO.C,D2*
X10045000Y20632500D03*
X10045000Y21602500D03*
G04 #@! TD*
D14*
G04 #@! TO.C,R2*
X54555000Y17270000D03*
X54555000Y16250000D03*
G04 #@! TD*
G04 #@! TO.C,R4*
X57005000Y16995000D03*
X57005000Y15975000D03*
G04 #@! TD*
D17*
G04 #@! TO.C,R4*
X85455000Y74045000D03*
X85455000Y75065000D03*
G04 #@! TD*
D14*
G04 #@! TO.C,R15*
X47605000Y19797500D03*
X47605000Y18777500D03*
G04 #@! TD*
D17*
G04 #@! TO.C,FB1*
X76795000Y81190000D03*
X76795000Y82210000D03*
G04 #@! TD*
D26*
G04 #@! TO.C,D2*
X66385000Y20632500D03*
X66385000Y21602500D03*
G04 #@! TD*
D11*
G04 #@! TO.C,C10*
X72825000Y67610000D03*
X72825000Y66650000D03*
G04 #@! TD*
G04 #@! TO.C,C6*
X93955000Y72230000D03*
X93955000Y71270000D03*
G04 #@! TD*
D15*
G04 #@! TO.C,C10*
X13295000Y23430000D03*
X13295000Y24390000D03*
G04 #@! TD*
D11*
G04 #@! TO.C,C3*
X65425000Y14850000D03*
X65425000Y13890000D03*
G04 #@! TD*
D13*
G04 #@! TO.C,C5*
X48935000Y16770000D03*
X49895000Y16770000D03*
G04 #@! TD*
D15*
G04 #@! TO.C,C19*
X70135000Y33230000D03*
X70135000Y34190000D03*
G04 #@! TD*
D12*
G04 #@! TO.C,R5*
X29125000Y75905000D03*
X28105000Y75905000D03*
G04 #@! TD*
D18*
G04 #@! TO.C,Q2*
X48620000Y74005000D03*
X49120000Y74005000D03*
X49620000Y74005000D03*
X49620000Y75505000D03*
X49120000Y75505000D03*
X48620000Y75505000D03*
G04 #@! TD*
D19*
G04 #@! TO.C,C12*
X66765000Y29810000D03*
X65805000Y29810000D03*
G04 #@! TD*
D11*
G04 #@! TO.C,C8*
X56275000Y36930000D03*
X56275000Y35970000D03*
G04 #@! TD*
D13*
G04 #@! TO.C,C4*
X75685000Y74270000D03*
X76645000Y74270000D03*
G04 #@! TD*
D14*
G04 #@! TO.C,FB1*
X65665000Y9850000D03*
X65665000Y8830000D03*
G04 #@! TD*
G04 #@! TO.C,FB1*
X46885000Y9850000D03*
X46885000Y8830000D03*
G04 #@! TD*
D17*
G04 #@! TO.C,FB1*
X20455000Y81190000D03*
X20455000Y82210000D03*
G04 #@! TD*
D15*
G04 #@! TO.C,C16*
X30435000Y66640000D03*
X30435000Y67600000D03*
G04 #@! TD*
D17*
G04 #@! TO.C,R10*
X39405000Y71242500D03*
X39405000Y72262500D03*
G04 #@! TD*
D13*
G04 #@! TO.C,C15*
X19240000Y29535000D03*
X20200000Y29535000D03*
G04 #@! TD*
D16*
G04 #@! TO.C,R16*
X46995000Y31260000D03*
X48015000Y31260000D03*
G04 #@! TD*
D14*
G04 #@! TO.C,R13*
X13635000Y17840000D03*
X13635000Y16820000D03*
G04 #@! TD*
D16*
G04 #@! TO.C,R1*
X18000000Y54655000D03*
X19020000Y54655000D03*
G04 #@! TD*
D13*
G04 #@! TO.C,C12*
X94475000Y61230000D03*
X95435000Y61230000D03*
G04 #@! TD*
D33*
G04 #@! TO.C,U1*
X34222500Y17840000D03*
D34*
X33685000Y17915000D03*
D33*
X33147500Y17840000D03*
X33147500Y16140000D03*
D34*
X33685000Y16065000D03*
D33*
X34222500Y16140000D03*
G04 #@! TD*
D14*
G04 #@! TO.C,R8*
X29605000Y78590000D03*
X29605000Y77570000D03*
G04 #@! TD*
D13*
G04 #@! TO.C,C12*
X19355000Y61230000D03*
X20315000Y61230000D03*
G04 #@! TD*
D15*
G04 #@! TO.C,C11*
X70985000Y33230000D03*
X70985000Y34190000D03*
G04 #@! TD*
D28*
G04 #@! TO.C,Y1*
X36350000Y36160000D03*
X34600000Y36160000D03*
X34600000Y34760000D03*
X36350000Y34760000D03*
G04 #@! TD*
D37*
G04 #@! TO.C,REF\u002A\u002A*
X2500000Y2500000D03*
G04 #@! TD*
D15*
G04 #@! TO.C,C14*
X90455000Y66650000D03*
X90455000Y67610000D03*
G04 #@! TD*
G04 #@! TO.C,C19*
X32575000Y33230000D03*
X32575000Y34190000D03*
G04 #@! TD*
D33*
G04 #@! TO.C,U1*
X33117500Y73200000D03*
D34*
X33655000Y73125000D03*
D33*
X34192500Y73200000D03*
X34192500Y74900000D03*
D34*
X33655000Y74975000D03*
D33*
X33117500Y74900000D03*
G04 #@! TD*
D17*
G04 #@! TO.C,R2*
X12785000Y73770000D03*
X12785000Y74790000D03*
G04 #@! TD*
D11*
G04 #@! TO.C,C18*
X67935000Y24390000D03*
X67935000Y23430000D03*
G04 #@! TD*
D19*
G04 #@! TO.C,C15*
X48100000Y61505000D03*
X47140000Y61505000D03*
G04 #@! TD*
D29*
G04 #@! TO.C,U4*
X15760000Y63030000D03*
X15760000Y61430000D03*
X14160000Y63030000D03*
X14160000Y61430000D03*
D30*
X11522500Y64830000D03*
X11522500Y64430000D03*
X11522500Y64030000D03*
X11522500Y63630000D03*
X11522500Y63230000D03*
X11522500Y62830000D03*
X11522500Y62430000D03*
X11522500Y62030000D03*
X11522500Y61630000D03*
X11522500Y61230000D03*
X11522500Y60830000D03*
X11522500Y60430000D03*
X11522500Y60030000D03*
X11522500Y59630000D03*
D31*
X12360000Y58792500D03*
X12760000Y58792500D03*
X13160000Y58792500D03*
X13560000Y58792500D03*
X13960000Y58792500D03*
X14360000Y58792500D03*
X14760000Y58792500D03*
X15160000Y58792500D03*
X15560000Y58792500D03*
X15960000Y58792500D03*
X16360000Y58792500D03*
X16760000Y58792500D03*
X17160000Y58792500D03*
X17560000Y58792500D03*
D30*
X18397500Y59630000D03*
X18397500Y60030000D03*
X18397500Y60430000D03*
X18397500Y60830000D03*
X18397500Y61230000D03*
X18397500Y61630000D03*
X18397500Y62030000D03*
X18397500Y62430000D03*
X18397500Y62830000D03*
X18397500Y63230000D03*
X18397500Y63630000D03*
X18397500Y64030000D03*
X18397500Y64430000D03*
X18397500Y64830000D03*
D31*
X17560000Y65667500D03*
X17160000Y65667500D03*
X16760000Y65667500D03*
X16360000Y65667500D03*
X15960000Y65667500D03*
X15560000Y65667500D03*
X15160000Y65667500D03*
X14760000Y65667500D03*
X14360000Y65667500D03*
X13960000Y65667500D03*
X13560000Y65667500D03*
X13160000Y65667500D03*
X12760000Y65667500D03*
X12360000Y65667500D03*
G04 #@! TD*
D11*
G04 #@! TO.C,C19*
X91105000Y57810000D03*
X91105000Y56850000D03*
G04 #@! TD*
D15*
G04 #@! TO.C,C10*
X69635000Y23430000D03*
X69635000Y24390000D03*
G04 #@! TD*
D14*
G04 #@! TO.C,R8*
X67165000Y78590000D03*
X67165000Y77570000D03*
G04 #@! TD*
D18*
G04 #@! TO.C,Q1*
X94180000Y57080000D03*
X93680000Y57080000D03*
X93180000Y57080000D03*
X93180000Y55580000D03*
X93680000Y55580000D03*
X94180000Y55580000D03*
G04 #@! TD*
D16*
G04 #@! TO.C,R14*
X31905000Y57330000D03*
X32925000Y57330000D03*
G04 #@! TD*
D18*
G04 #@! TO.C,Q1*
X56620000Y57080000D03*
X56120000Y57080000D03*
X55620000Y57080000D03*
X55620000Y55580000D03*
X56120000Y55580000D03*
X56620000Y55580000D03*
G04 #@! TD*
D11*
G04 #@! TO.C,C10*
X35265000Y67610000D03*
X35265000Y66650000D03*
G04 #@! TD*
D14*
G04 #@! TO.C,R15*
X28825000Y19797500D03*
X28825000Y18777500D03*
G04 #@! TD*
D27*
G04 #@! TO.C,D1*
X39405000Y70417500D03*
X39405000Y69447500D03*
G04 #@! TD*
D13*
G04 #@! TO.C,C12*
X75695000Y61230000D03*
X76655000Y61230000D03*
G04 #@! TD*
D17*
G04 #@! TO.C,R13*
X72485000Y73200000D03*
X72485000Y74220000D03*
G04 #@! TD*
D18*
G04 #@! TO.C,Q1*
X19060000Y57080000D03*
X18560000Y57080000D03*
X18060000Y57080000D03*
X18060000Y55580000D03*
X18560000Y55580000D03*
X19060000Y55580000D03*
G04 #@! TD*
D12*
G04 #@! TO.C,R17*
X66795000Y32135000D03*
X65775000Y32135000D03*
G04 #@! TD*
D11*
G04 #@! TO.C,C6*
X75175000Y72230000D03*
X75175000Y71270000D03*
G04 #@! TD*
D15*
G04 #@! TO.C,C6*
X86065000Y18810000D03*
X86065000Y19770000D03*
G04 #@! TD*
D17*
G04 #@! TO.C,R3*
X16760000Y54720000D03*
X16760000Y55740000D03*
G04 #@! TD*
D12*
G04 #@! TO.C,R16*
X57905000Y59780000D03*
X56885000Y59780000D03*
G04 #@! TD*
D18*
G04 #@! TO.C,Q2*
X11060000Y74005000D03*
X11560000Y74005000D03*
X12060000Y74005000D03*
X12060000Y75505000D03*
X11560000Y75505000D03*
X11060000Y75505000D03*
G04 #@! TD*
D17*
G04 #@! TO.C,R15*
X19735000Y71242500D03*
X19735000Y72262500D03*
G04 #@! TD*
D15*
G04 #@! TO.C,C18*
X18185000Y66650000D03*
X18185000Y67610000D03*
G04 #@! TD*
G04 #@! TO.C,C7*
X52645000Y55100000D03*
X52645000Y56060000D03*
G04 #@! TD*
D16*
G04 #@! TO.C,R9*
X11025000Y73150000D03*
X12045000Y73150000D03*
G04 #@! TD*
D14*
G04 #@! TO.C,FB1*
X28105000Y9850000D03*
X28105000Y8830000D03*
G04 #@! TD*
D18*
G04 #@! TO.C,Q2*
X37500000Y17035000D03*
X37000000Y17035000D03*
X36500000Y17035000D03*
X36500000Y15535000D03*
X37000000Y15535000D03*
X37500000Y15535000D03*
G04 #@! TD*
G04 #@! TO.C,U5*
X47720000Y68530000D03*
X48220000Y68530000D03*
X48720000Y68530000D03*
X48720000Y70030000D03*
X48220000Y70030000D03*
X47720000Y70030000D03*
G04 #@! TD*
D36*
G04 #@! TO.C,SW1*
X27620000Y33310000D03*
X27620000Y36010000D03*
X28770000Y33310000D03*
X28770000Y36010000D03*
G04 #@! TD*
D14*
G04 #@! TO.C,R13*
X51195000Y17840000D03*
X51195000Y16820000D03*
G04 #@! TD*
D17*
G04 #@! TO.C,R3*
X54320000Y54720000D03*
X54320000Y55740000D03*
G04 #@! TD*
D35*
G04 #@! TO.C,F1*
X30462500Y14860000D03*
X28887500Y14860000D03*
G04 #@! TD*
D13*
G04 #@! TO.C,C2*
X48690000Y76455000D03*
X49650000Y76455000D03*
G04 #@! TD*
D14*
G04 #@! TO.C,R2*
X16995000Y17270000D03*
X16995000Y16250000D03*
G04 #@! TD*
D18*
G04 #@! TO.C,Q2*
X29840000Y74005000D03*
X30340000Y74005000D03*
X30840000Y74005000D03*
X30840000Y75505000D03*
X30340000Y75505000D03*
X29840000Y75505000D03*
G04 #@! TD*
D39*
G04 #@! TO.C,F1*
X36877500Y76180000D03*
X38452500Y76180000D03*
G04 #@! TD*
D15*
G04 #@! TO.C,C8*
X29845000Y54110000D03*
X29845000Y55070000D03*
G04 #@! TD*
G04 #@! TO.C,C3*
X58255000Y76190000D03*
X58255000Y77150000D03*
G04 #@! TD*
D11*
G04 #@! TO.C,C9*
X54895000Y67610000D03*
X54895000Y66650000D03*
G04 #@! TD*
M02*
