M48
; DRILL file {KiCad (6.0.7)} date Tue Sep 20 21:43:32 2022
; FORMAT={-:-/ absolute / metric / decimal}
; #@! TF.CreationDate,2022-09-20T21:43:32+02:00
; #@! TF.GenerationSoftware,Kicad,Pcbnew,(6.0.7)
; #@! TF.FileFunction,MixedPlating,1,4
FMAT,2
METRIC
; #@! TA.AperFunction,Plated,PTH,ViaDrill
T1C0.200
; #@! TA.AperFunction,Plated,PTH,ViaDrill
T2C0.300
; #@! TA.AperFunction,Plated,PTH,ComponentDrill
T3C0.600
; #@! TA.AperFunction,Plated,PTH,ComponentDrill
T4C1.092
; #@! TA.AperFunction,NonPlated,NPTH,ComponentDrill
T5C2.000
%
G90
G05
T1
X6.485Y74.9
X6.525Y69.81
X6.525Y67.26
X6.535Y54.55
X6.535Y21.26
X6.545Y62.18
X6.545Y16.21
X6.585Y31.39
X6.635Y33.97
X8.205Y18.59
X8.225Y28.98
X8.535Y52.6
X8.675Y34.68
X8.765Y61.15
X8.895Y63.24
X9.215Y81.75
X9.305Y9.21
X9.425Y73.17
X9.445Y71.3
X9.585Y23.21
X9.705Y74.43
X9.815Y32.75
X9.815Y31.26
X9.895Y26.93
X10.105Y65.42
X10.145Y29.81
X10.155Y70.6
X10.235Y61.505
X10.27Y27.885
X10.275Y30.58
X10.325Y67.64
X10.415Y25.55
X10.785Y57.36
X10.825Y13.09
X10.835Y77.95
X10.955Y35.02
X10.975Y71.57
X11.085Y52.66
X11.095Y38.42
X11.145Y32.45
X11.185Y70.58
X11.275Y69.24
X11.385Y18.81
X11.585Y66.83
X11.595Y24.18
X11.67Y74.79
X11.81Y58.805
X12.115Y27.39
X12.125Y26.76
X12.155Y30.17
X12.165Y29.38
X12.195Y18.085
X12.295Y67.14
X12.325Y61.25
X12.37Y36.335
X12.385Y61.86
X12.405Y62.5
X12.445Y24.19
X12.485Y64.315
X12.555Y28.41
X12.685Y59.57
X12.745Y31.51
X12.77Y22.61
X12.77Y21.335
X12.77Y20.06
X12.785Y73.105
X12.835Y72.23
X12.835Y70.98
X12.835Y69.68
X13.085Y64.23
X13.105Y24.21
X13.165Y59.99
X13.165Y58.12
X13.175Y77.753
X13.615Y38.41
X13.655Y13.29
X13.71Y64.205
X13.795Y33.51
X13.82Y26.56
X14.215Y28.21
X14.22Y28.81
X14.225Y29.41
X14.275Y31.07
X14.31Y64.305
X14.355Y61.63
X14.36Y62.23
X14.365Y62.83
X14.405Y59.98
X14.455Y17.1
X14.475Y73.94
X14.475Y66.84
X14.535Y64.88
X14.555Y26.55
X14.635Y24.18
X14.635Y13.35
X14.645Y33.51
X14.82Y29.41
X14.82Y28.81
X14.82Y28.21
X14.845Y21.91
X14.845Y21.31
X14.845Y20.71
X14.845Y20.11
X14.845Y19.51
X14.935Y71.53
X14.935Y70.93
X14.935Y70.33
X14.935Y69.73
X14.935Y69.13
X14.96Y62.83
X14.96Y62.23
X14.96Y61.63
X15.135Y57.53
X15.145Y77.69
X15.145Y66.86
X15.225Y64.49
X15.245Y26.16
X15.305Y24.2
X15.305Y17.1
X15.325Y73.94
X15.375Y31.06
X15.415Y28.21
X15.42Y28.81
X15.425Y29.41
X15.47Y26.735
X15.505Y59.97
X15.555Y61.63
X15.56Y62.23
X15.565Y62.83
X15.96Y64.48
X15.985Y57.53
X16.07Y26.835
X16.125Y77.75
X16.165Y52.63
X16.605Y13.287
X16.615Y32.92
X16.615Y31.05
X16.675Y66.83
X16.695Y26.81
X16.945Y21.36
X16.945Y20.06
X16.945Y18.81
X16.995Y17.935
X17.01Y70.98
X17.01Y69.705
X17.01Y68.43
X17.035Y59.53
X17.095Y31.47
X17.225Y62.63
X17.295Y26.725
X17.335Y66.85
X17.375Y28.54
X17.395Y29.18
X17.41Y54.705
X17.455Y29.79
X17.485Y23.9
X17.585Y72.955
X17.615Y61.66
X17.625Y60.87
X17.655Y64.28
X17.665Y63.65
X17.97Y32.235
X18.11Y16.25
X18.185Y66.86
X18.195Y24.21
X18.395Y72.23
X18.505Y21.8
X18.595Y20.46
X18.635Y58.59
X18.685Y52.62
X18.695Y38.38
X18.805Y19.47
X18.825Y56.02
X18.945Y13.09
X18.955Y77.95
X18.995Y33.68
X19.365Y65.49
X19.455Y23.4
X19.505Y60.46
X19.51Y63.155
X19.545Y29.535
X19.625Y20.44
X19.635Y61.23
X19.675Y25.62
X19.885Y64.11
X19.965Y59.78
X19.965Y58.29
X20.075Y16.61
X20.195Y67.83
X20.335Y19.74
X20.355Y17.87
X20.475Y81.83
X20.565Y9.29
X20.885Y27.8
X21.015Y29.89
X21.105Y56.36
X21.245Y38.44
X21.555Y62.06
X21.575Y72.45
X23.145Y57.07
X23.195Y59.65
X23.235Y74.83
X23.235Y28.86
X23.245Y69.78
X23.245Y36.49
X23.255Y23.78
X23.255Y21.23
X23.295Y16.14
X25.265Y74.9
X25.305Y69.81
X25.305Y67.26
X25.315Y54.55
X25.315Y21.26
X25.325Y62.18
X25.325Y16.21
X25.365Y31.39
X25.415Y33.97
X26.985Y18.59
X27.005Y28.98
X27.315Y52.6
X27.455Y34.68
X27.545Y61.15
X27.675Y63.24
X27.995Y81.75
X28.085Y9.21
X28.205Y73.17
X28.225Y71.3
X28.365Y23.21
X28.485Y74.43
X28.595Y32.75
X28.595Y31.26
X28.675Y26.93
X28.885Y65.42
X28.925Y29.81
X28.935Y70.6
X29.015Y61.505
X29.05Y27.885
X29.055Y30.58
X29.105Y67.64
X29.195Y25.55
X29.565Y57.36
X29.605Y13.09
X29.615Y77.95
X29.735Y35.02
X29.755Y71.57
X29.865Y52.66
X29.875Y38.42
X29.925Y32.45
X29.965Y70.58
X30.055Y69.24
X30.165Y18.81
X30.365Y66.83
X30.375Y24.18
X30.45Y74.79
X30.59Y58.805
X30.895Y27.39
X30.905Y26.76
X30.935Y30.17
X30.945Y29.38
X30.975Y18.085
X31.075Y67.14
X31.105Y61.25
X31.15Y36.335
X31.165Y61.86
X31.185Y62.5
X31.225Y24.19
X31.265Y64.315
X31.335Y28.41
X31.465Y59.57
X31.525Y31.51
X31.55Y22.61
X31.55Y21.335
X31.55Y20.06
X31.565Y73.105
X31.615Y72.23
X31.615Y70.98
X31.615Y69.68
X31.865Y64.23
X31.885Y24.21
X31.945Y59.99
X31.945Y58.12
X31.955Y77.753
X32.395Y38.41
X32.435Y13.29
X32.49Y64.205
X32.575Y33.51
X32.6Y26.56
X32.995Y28.21
X33.0Y28.81
X33.005Y29.41
X33.055Y31.07
X33.09Y64.305
X33.135Y61.63
X33.14Y62.23
X33.145Y62.83
X33.185Y59.98
X33.235Y17.1
X33.255Y73.94
X33.255Y66.84
X33.315Y64.88
X33.335Y26.55
X33.415Y24.18
X33.415Y13.35
X33.425Y33.51
X33.6Y29.41
X33.6Y28.81
X33.6Y28.21
X33.625Y21.91
X33.625Y21.31
X33.625Y20.71
X33.625Y20.11
X33.625Y19.51
X33.715Y71.53
X33.715Y70.93
X33.715Y70.33
X33.715Y69.73
X33.715Y69.13
X33.74Y62.83
X33.74Y62.23
X33.74Y61.63
X33.915Y57.53
X33.925Y77.69
X33.925Y66.86
X34.005Y64.49
X34.025Y26.16
X34.085Y24.2
X34.085Y17.1
X34.105Y73.94
X34.155Y31.06
X34.195Y28.21
X34.2Y28.81
X34.205Y29.41
X34.25Y26.735
X34.285Y59.97
X34.335Y61.63
X34.34Y62.23
X34.345Y62.83
X34.74Y64.48
X34.765Y57.53
X34.85Y26.835
X34.905Y77.75
X34.945Y52.63
X35.385Y13.287
X35.395Y32.92
X35.395Y31.05
X35.455Y66.83
X35.475Y26.81
X35.725Y21.36
X35.725Y20.06
X35.725Y18.81
X35.775Y17.935
X35.79Y70.98
X35.79Y69.705
X35.79Y68.43
X35.815Y59.53
X35.875Y31.47
X36.005Y62.63
X36.075Y26.725
X36.115Y66.85
X36.155Y28.54
X36.175Y29.18
X36.19Y54.705
X36.235Y29.79
X36.265Y23.9
X36.365Y72.955
X36.395Y61.66
X36.405Y60.87
X36.435Y64.28
X36.445Y63.65
X36.75Y32.235
X36.89Y16.25
X36.965Y66.86
X36.975Y24.21
X37.175Y72.23
X37.285Y21.8
X37.375Y20.46
X37.415Y58.59
X37.465Y52.62
X37.475Y38.38
X37.585Y19.47
X37.605Y56.02
X37.725Y13.09
X37.735Y77.95
X37.775Y33.68
X38.145Y65.49
X38.235Y23.4
X38.285Y60.46
X38.29Y63.155
X38.325Y29.535
X38.405Y20.44
X38.415Y61.23
X38.455Y25.62
X38.665Y64.11
X38.745Y59.78
X38.745Y58.29
X38.855Y16.61
X38.975Y67.83
X39.115Y19.74
X39.135Y17.87
X39.255Y81.83
X39.345Y9.29
X39.665Y27.8
X39.795Y29.89
X39.885Y56.36
X40.025Y38.44
X40.335Y62.06
X40.355Y72.45
X41.925Y57.07
X41.975Y59.65
X42.015Y74.83
X42.015Y28.86
X42.025Y69.78
X42.025Y36.49
X42.035Y23.78
X42.035Y21.23
X42.075Y16.14
X44.045Y74.9
X44.085Y69.81
X44.085Y67.26
X44.095Y54.55
X44.095Y21.26
X44.105Y62.18
X44.105Y16.21
X44.145Y31.39
X44.195Y33.97
X45.765Y18.59
X45.785Y28.98
X46.095Y52.6
X46.235Y34.68
X46.325Y61.15
X46.455Y63.24
X46.775Y81.75
X46.865Y9.21
X46.985Y73.17
X47.005Y71.3
X47.145Y23.21
X47.265Y74.43
X47.375Y32.75
X47.375Y31.26
X47.455Y26.93
X47.665Y65.42
X47.705Y29.81
X47.715Y70.6
X47.795Y61.505
X47.83Y27.885
X47.835Y30.58
X47.885Y67.64
X47.975Y25.55
X48.345Y57.36
X48.385Y13.09
X48.395Y77.95
X48.515Y35.02
X48.535Y71.57
X48.645Y52.66
X48.655Y38.42
X48.705Y32.45
X48.745Y70.58
X48.835Y69.24
X48.945Y18.81
X49.145Y66.83
X49.155Y24.18
X49.23Y74.79
X49.37Y58.805
X49.675Y27.39
X49.685Y26.76
X49.715Y30.17
X49.725Y29.38
X49.755Y18.085
X49.855Y67.14
X49.885Y61.25
X49.93Y36.335
X49.945Y61.86
X49.965Y62.5
X50.005Y24.19
X50.045Y64.315
X50.115Y28.41
X50.245Y59.57
X50.305Y31.51
X50.33Y22.61
X50.33Y21.335
X50.33Y20.06
X50.345Y73.105
X50.395Y72.23
X50.395Y70.98
X50.395Y69.68
X50.645Y64.23
X50.665Y24.21
X50.725Y59.99
X50.725Y58.12
X50.735Y77.753
X51.175Y38.41
X51.215Y13.29
X51.27Y64.205
X51.355Y33.51
X51.38Y26.56
X51.775Y28.21
X51.78Y28.81
X51.785Y29.41
X51.835Y31.07
X51.87Y64.305
X51.915Y61.63
X51.92Y62.23
X51.925Y62.83
X51.965Y59.98
X52.015Y17.1
X52.035Y73.94
X52.035Y66.84
X52.095Y64.88
X52.115Y26.55
X52.195Y24.18
X52.195Y13.35
X52.205Y33.51
X52.38Y29.41
X52.38Y28.81
X52.38Y28.21
X52.405Y21.91
X52.405Y21.31
X52.405Y20.71
X52.405Y20.11
X52.405Y19.51
X52.495Y71.53
X52.495Y70.93
X52.495Y70.33
X52.495Y69.73
X52.495Y69.13
X52.52Y62.83
X52.52Y62.23
X52.52Y61.63
X52.695Y57.53
X52.705Y77.69
X52.705Y66.86
X52.785Y64.49
X52.805Y26.16
X52.865Y24.2
X52.865Y17.1
X52.885Y73.94
X52.935Y31.06
X52.975Y28.21
X52.98Y28.81
X52.985Y29.41
X53.03Y26.735
X53.065Y59.97
X53.115Y61.63
X53.12Y62.23
X53.125Y62.83
X53.52Y64.48
X53.545Y57.53
X53.63Y26.835
X53.685Y77.75
X53.725Y52.63
X54.165Y13.287
X54.175Y32.92
X54.175Y31.05
X54.235Y66.83
X54.255Y26.81
X54.505Y21.36
X54.505Y20.06
X54.505Y18.81
X54.555Y17.935
X54.57Y70.98
X54.57Y69.705
X54.57Y68.43
X54.595Y59.53
X54.655Y31.47
X54.785Y62.63
X54.855Y26.725
X54.895Y66.85
X54.935Y28.54
X54.955Y29.18
X54.97Y54.705
X55.015Y29.79
X55.045Y23.9
X55.145Y72.955
X55.175Y61.66
X55.185Y60.87
X55.215Y64.28
X55.225Y63.65
X55.53Y32.235
X55.67Y16.25
X55.745Y66.86
X55.755Y24.21
X55.955Y72.23
X56.065Y21.8
X56.155Y20.46
X56.195Y58.59
X56.245Y52.62
X56.255Y38.38
X56.365Y19.47
X56.385Y56.02
X56.505Y13.09
X56.515Y77.95
X56.555Y33.68
X56.925Y65.49
X57.015Y23.4
X57.065Y60.46
X57.07Y63.155
X57.105Y29.535
X57.185Y20.44
X57.195Y61.23
X57.235Y25.62
X57.445Y64.11
X57.525Y59.78
X57.525Y58.29
X57.635Y16.61
X57.755Y67.83
X57.895Y19.74
X57.915Y17.87
X58.035Y81.83
X58.125Y9.29
X58.445Y27.8
X58.575Y29.89
X58.665Y56.36
X58.805Y38.44
X59.115Y62.06
X59.135Y72.45
X60.705Y57.07
X60.755Y59.65
X60.795Y74.83
X60.795Y28.86
X60.805Y69.78
X60.805Y36.49
X60.815Y23.78
X60.815Y21.23
X60.855Y16.14
X62.825Y74.9
X62.865Y69.81
X62.865Y67.26
X62.875Y54.55
X62.875Y21.26
X62.885Y62.18
X62.885Y16.21
X62.925Y31.39
X62.975Y33.97
X64.545Y18.59
X64.565Y28.98
X64.875Y52.6
X65.015Y34.68
X65.105Y61.15
X65.235Y63.24
X65.555Y81.75
X65.645Y9.21
X65.765Y73.17
X65.785Y71.3
X65.925Y23.21
X66.045Y74.43
X66.155Y32.75
X66.155Y31.26
X66.235Y26.93
X66.445Y65.42
X66.485Y29.81
X66.495Y70.6
X66.575Y61.505
X66.61Y27.885
X66.615Y30.58
X66.665Y67.64
X66.755Y25.55
X67.125Y57.36
X67.165Y13.09
X67.175Y77.95
X67.295Y35.02
X67.315Y71.57
X67.425Y52.66
X67.435Y38.42
X67.485Y32.45
X67.525Y70.58
X67.615Y69.24
X67.725Y18.81
X67.925Y66.83
X67.935Y24.18
X68.01Y74.79
X68.15Y58.805
X68.455Y27.39
X68.465Y26.76
X68.495Y30.17
X68.505Y29.38
X68.535Y18.085
X68.635Y67.14
X68.665Y61.25
X68.71Y36.335
X68.725Y61.86
X68.745Y62.5
X68.785Y24.19
X68.825Y64.315
X68.895Y28.41
X69.025Y59.57
X69.085Y31.51
X69.11Y22.61
X69.11Y21.335
X69.11Y20.06
X69.125Y73.105
X69.175Y72.23
X69.175Y70.98
X69.175Y69.68
X69.425Y64.23
X69.445Y24.21
X69.505Y59.99
X69.505Y58.12
X69.515Y77.753
X69.955Y38.41
X69.995Y13.29
X70.05Y64.205
X70.135Y33.51
X70.16Y26.56
X70.555Y28.21
X70.56Y28.81
X70.565Y29.41
X70.615Y31.07
X70.65Y64.305
X70.695Y61.63
X70.7Y62.23
X70.705Y62.83
X70.745Y59.98
X70.795Y17.1
X70.815Y73.94
X70.815Y66.84
X70.875Y64.88
X70.895Y26.55
X70.975Y24.18
X70.975Y13.35
X70.985Y33.51
X71.16Y29.41
X71.16Y28.81
X71.16Y28.21
X71.185Y21.91
X71.185Y21.31
X71.185Y20.71
X71.185Y20.11
X71.185Y19.51
X71.275Y71.53
X71.275Y70.93
X71.275Y70.33
X71.275Y69.73
X71.275Y69.13
X71.3Y62.83
X71.3Y62.23
X71.3Y61.63
X71.475Y57.53
X71.485Y77.69
X71.485Y66.86
X71.565Y64.49
X71.585Y26.16
X71.645Y24.2
X71.645Y17.1
X71.665Y73.94
X71.715Y31.06
X71.755Y28.21
X71.76Y28.81
X71.765Y29.41
X71.81Y26.735
X71.845Y59.97
X71.895Y61.63
X71.9Y62.23
X71.905Y62.83
X72.3Y64.48
X72.325Y57.53
X72.41Y26.835
X72.465Y77.75
X72.505Y52.63
X72.945Y13.287
X72.955Y32.92
X72.955Y31.05
X73.015Y66.83
X73.035Y26.81
X73.285Y21.36
X73.285Y20.06
X73.285Y18.81
X73.335Y17.935
X73.35Y70.98
X73.35Y69.705
X73.35Y68.43
X73.375Y59.53
X73.435Y31.47
X73.565Y62.63
X73.635Y26.725
X73.675Y66.85
X73.715Y28.54
X73.735Y29.18
X73.75Y54.705
X73.795Y29.79
X73.825Y23.9
X73.925Y72.955
X73.955Y61.66
X73.965Y60.87
X73.995Y64.28
X74.005Y63.65
X74.31Y32.235
X74.45Y16.25
X74.525Y66.86
X74.535Y24.21
X74.735Y72.23
X74.845Y21.8
X74.935Y20.46
X74.975Y58.59
X75.025Y52.62
X75.035Y38.38
X75.145Y19.47
X75.165Y56.02
X75.285Y13.09
X75.295Y77.95
X75.335Y33.68
X75.705Y65.49
X75.795Y23.4
X75.845Y60.46
X75.85Y63.155
X75.885Y29.535
X75.965Y20.44
X75.975Y61.23
X76.015Y25.62
X76.225Y64.11
X76.305Y59.78
X76.305Y58.29
X76.415Y16.61
X76.535Y67.83
X76.675Y19.74
X76.695Y17.87
X76.815Y81.83
X76.905Y9.29
X77.225Y27.8
X77.355Y29.89
X77.445Y56.36
X77.585Y38.44
X77.895Y62.06
X77.915Y72.45
X79.485Y57.07
X79.535Y59.65
X79.575Y74.83
X79.575Y28.86
X79.585Y69.78
X79.585Y36.49
X79.595Y23.78
X79.595Y21.23
X79.635Y16.14
X81.605Y74.9
X81.645Y69.81
X81.645Y67.26
X81.655Y54.55
X81.655Y21.26
X81.665Y62.18
X81.665Y16.21
X81.705Y31.39
X81.755Y33.97
X83.325Y18.59
X83.345Y28.98
X83.655Y52.6
X83.795Y34.68
X83.885Y61.15
X84.015Y63.24
X84.335Y81.75
X84.425Y9.21
X84.545Y73.17
X84.565Y71.3
X84.705Y23.21
X84.825Y74.43
X84.935Y32.75
X84.935Y31.26
X85.015Y26.93
X85.225Y65.42
X85.265Y29.81
X85.275Y70.6
X85.355Y61.505
X85.39Y27.885
X85.395Y30.58
X85.445Y67.64
X85.535Y25.55
X85.905Y57.36
X85.945Y13.09
X85.955Y77.95
X86.075Y35.02
X86.095Y71.57
X86.205Y52.66
X86.215Y38.42
X86.265Y32.45
X86.305Y70.58
X86.395Y69.24
X86.505Y18.81
X86.705Y66.83
X86.715Y24.18
X86.79Y74.79
X86.93Y58.805
X87.235Y27.39
X87.245Y26.76
X87.275Y30.17
X87.285Y29.38
X87.315Y18.085
X87.415Y67.14
X87.445Y61.25
X87.49Y36.335
X87.505Y61.86
X87.525Y62.5
X87.565Y24.19
X87.605Y64.315
X87.675Y28.41
X87.805Y59.57
X87.865Y31.51
X87.89Y22.61
X87.89Y21.335
X87.89Y20.06
X87.905Y73.105
X87.955Y72.23
X87.955Y70.98
X87.955Y69.68
X88.205Y64.23
X88.225Y24.21
X88.285Y59.99
X88.285Y58.12
X88.295Y77.753
X88.735Y38.41
X88.775Y13.29
X88.83Y64.205
X88.915Y33.51
X88.94Y26.56
X89.335Y28.21
X89.34Y28.81
X89.345Y29.41
X89.395Y31.07
X89.43Y64.305
X89.475Y61.63
X89.48Y62.23
X89.485Y62.83
X89.525Y59.98
X89.575Y17.1
X89.595Y73.94
X89.595Y66.84
X89.655Y64.88
X89.675Y26.55
X89.755Y24.18
X89.755Y13.35
X89.765Y33.51
X89.94Y29.41
X89.94Y28.81
X89.94Y28.21
X89.965Y21.91
X89.965Y21.31
X89.965Y20.71
X89.965Y20.11
X89.965Y19.51
X90.055Y71.53
X90.055Y70.93
X90.055Y70.33
X90.055Y69.73
X90.055Y69.13
X90.08Y62.83
X90.08Y62.23
X90.08Y61.63
X90.255Y57.53
X90.265Y77.69
X90.265Y66.86
X90.345Y64.49
X90.365Y26.16
X90.425Y24.2
X90.425Y17.1
X90.445Y73.94
X90.495Y31.06
X90.535Y28.21
X90.54Y28.81
X90.545Y29.41
X90.59Y26.735
X90.625Y59.97
X90.675Y61.63
X90.68Y62.23
X90.685Y62.83
X91.08Y64.48
X91.105Y57.53
X91.19Y26.835
X91.245Y77.75
X91.285Y52.63
X91.725Y13.287
X91.735Y32.92
X91.735Y31.05
X91.795Y66.83
X91.815Y26.81
X92.065Y21.36
X92.065Y20.06
X92.065Y18.81
X92.115Y17.935
X92.13Y70.98
X92.13Y69.705
X92.13Y68.43
X92.155Y59.53
X92.215Y31.47
X92.345Y62.63
X92.415Y26.725
X92.455Y66.85
X92.495Y28.54
X92.515Y29.18
X92.53Y54.705
X92.575Y29.79
X92.605Y23.9
X92.705Y72.955
X92.735Y61.66
X92.745Y60.87
X92.775Y64.28
X92.785Y63.65
X93.09Y32.235
X93.23Y16.25
X93.305Y66.86
X93.315Y24.21
X93.515Y72.23
X93.625Y21.8
X93.715Y20.46
X93.755Y58.59
X93.805Y52.62
X93.815Y38.38
X93.925Y19.47
X93.945Y56.02
X94.065Y13.09
X94.075Y77.95
X94.115Y33.68
X94.485Y65.49
X94.575Y23.4
X94.625Y60.46
X94.63Y63.155
X94.665Y29.535
X94.745Y20.44
X94.755Y61.23
X94.795Y25.62
X95.005Y64.11
X95.085Y59.78
X95.085Y58.29
X95.195Y16.61
X95.315Y67.83
X95.455Y19.74
X95.475Y17.87
X95.595Y81.83
X95.685Y9.29
X96.005Y27.8
X96.135Y29.89
X96.225Y56.36
X96.365Y38.44
X96.675Y62.06
X96.695Y72.45
X98.265Y57.07
X98.315Y59.65
X98.355Y74.83
X98.355Y28.86
X98.365Y69.78
X98.365Y36.49
X98.375Y23.78
X98.375Y21.23
X98.415Y16.14
T2
X9.095Y15.43
X9.895Y77.53
X9.925Y13.52
X12.485Y77.53
X12.505Y13.51
X12.62Y15.935
X14.875Y16.59
X14.905Y74.45
X17.16Y75.105
X17.275Y77.53
X17.295Y13.51
X19.855Y77.52
X19.885Y13.51
X20.685Y75.61
X27.875Y15.43
X28.675Y77.53
X28.705Y13.52
X31.265Y77.53
X31.285Y13.51
X31.4Y15.935
X33.655Y16.59
X33.685Y74.45
X35.94Y75.105
X36.055Y77.53
X36.075Y13.51
X38.635Y77.52
X38.665Y13.51
X39.465Y75.61
X46.655Y15.43
X47.455Y77.53
X47.485Y13.52
X50.045Y77.53
X50.065Y13.51
X50.18Y15.935
X52.435Y16.59
X52.465Y74.45
X54.72Y75.105
X54.835Y77.53
X54.855Y13.51
X57.415Y77.52
X57.445Y13.51
X58.245Y75.61
X65.435Y15.43
X66.235Y77.53
X66.265Y13.52
X68.825Y77.53
X68.845Y13.51
X68.96Y15.935
X71.215Y16.59
X71.245Y74.45
X73.5Y75.105
X73.615Y77.53
X73.635Y13.51
X76.195Y77.52
X76.225Y13.51
X77.025Y75.61
X84.215Y15.43
X85.015Y77.53
X85.045Y13.52
X87.605Y77.53
X87.625Y13.51
X87.74Y15.935
X89.995Y16.59
X90.025Y74.45
X92.28Y75.105
X92.395Y77.53
X92.415Y13.51
X94.975Y77.52
X95.005Y13.51
X95.805Y75.61
T4
X7.27Y83.77
X7.27Y81.23
X7.27Y78.69
X7.27Y76.15
X7.27Y73.61
X7.27Y71.07
X7.27Y68.53
X7.27Y65.99
X7.27Y63.45
X7.27Y60.91
X7.27Y58.37
X7.27Y55.83
X7.27Y53.29
X7.27Y37.75
X7.27Y35.21
X7.27Y32.67
X7.27Y30.13
X7.27Y27.59
X7.27Y25.05
X7.27Y22.51
X7.27Y19.97
X7.27Y17.43
X7.27Y14.89
X7.27Y12.35
X7.27Y9.81
X7.27Y7.27
X9.81Y53.29
X9.81Y37.75
X9.815Y55.83
X12.35Y53.29
X12.35Y37.75
X13.62Y76.15
X13.62Y14.89
X14.89Y53.29
X14.89Y37.75
X16.16Y76.15
X16.16Y14.89
X17.43Y53.29
X17.43Y37.75
X19.965Y35.21
X19.97Y53.29
X19.97Y37.75
X22.51Y83.77
X22.51Y81.23
X22.51Y78.69
X22.51Y76.15
X22.51Y73.61
X22.51Y71.07
X22.51Y68.53
X22.51Y65.99
X22.51Y63.45
X22.51Y60.91
X22.51Y58.37
X22.51Y55.83
X22.51Y53.29
X22.51Y37.75
X22.51Y35.21
X22.51Y32.67
X22.51Y30.13
X22.51Y27.59
X22.51Y25.05
X22.51Y22.51
X22.51Y19.97
X22.51Y17.43
X22.51Y14.89
X22.51Y12.35
X22.51Y9.81
X22.51Y7.27
X26.05Y83.77
X26.05Y81.23
X26.05Y78.69
X26.05Y76.15
X26.05Y73.61
X26.05Y71.07
X26.05Y68.53
X26.05Y65.99
X26.05Y63.45
X26.05Y60.91
X26.05Y58.37
X26.05Y55.83
X26.05Y53.29
X26.05Y37.75
X26.05Y35.21
X26.05Y32.67
X26.05Y30.13
X26.05Y27.59
X26.05Y25.05
X26.05Y22.51
X26.05Y19.97
X26.05Y17.43
X26.05Y14.89
X26.05Y12.35
X26.05Y9.81
X26.05Y7.27
X28.59Y53.29
X28.59Y37.75
X28.595Y55.83
X31.13Y53.29
X31.13Y37.75
X32.4Y76.15
X32.4Y14.89
X33.67Y53.29
X33.67Y37.75
X34.94Y76.15
X34.94Y14.89
X36.21Y53.29
X36.21Y37.75
X38.745Y35.21
X38.75Y53.29
X38.75Y37.75
X41.29Y83.77
X41.29Y81.23
X41.29Y78.69
X41.29Y76.15
X41.29Y73.61
X41.29Y71.07
X41.29Y68.53
X41.29Y65.99
X41.29Y63.45
X41.29Y60.91
X41.29Y58.37
X41.29Y55.83
X41.29Y53.29
X41.29Y37.75
X41.29Y35.21
X41.29Y32.67
X41.29Y30.13
X41.29Y27.59
X41.29Y25.05
X41.29Y22.51
X41.29Y19.97
X41.29Y17.43
X41.29Y14.89
X41.29Y12.35
X41.29Y9.81
X41.29Y7.27
X44.83Y83.77
X44.83Y81.23
X44.83Y78.69
X44.83Y76.15
X44.83Y73.61
X44.83Y71.07
X44.83Y68.53
X44.83Y65.99
X44.83Y63.45
X44.83Y60.91
X44.83Y58.37
X44.83Y55.83
X44.83Y53.29
X44.83Y37.75
X44.83Y35.21
X44.83Y32.67
X44.83Y30.13
X44.83Y27.59
X44.83Y25.05
X44.83Y22.51
X44.83Y19.97
X44.83Y17.43
X44.83Y14.89
X44.83Y12.35
X44.83Y9.81
X44.83Y7.27
X47.37Y53.29
X47.37Y37.75
X47.375Y55.83
X49.91Y53.29
X49.91Y37.75
X51.18Y76.15
X51.18Y14.89
X52.45Y53.29
X52.45Y37.75
X53.72Y76.15
X53.72Y14.89
X54.99Y53.29
X54.99Y37.75
X57.525Y35.21
X57.53Y53.29
X57.53Y37.75
X60.07Y83.77
X60.07Y81.23
X60.07Y78.69
X60.07Y76.15
X60.07Y73.61
X60.07Y71.07
X60.07Y68.53
X60.07Y65.99
X60.07Y63.45
X60.07Y60.91
X60.07Y58.37
X60.07Y55.83
X60.07Y53.29
X60.07Y37.75
X60.07Y35.21
X60.07Y32.67
X60.07Y30.13
X60.07Y27.59
X60.07Y25.05
X60.07Y22.51
X60.07Y19.97
X60.07Y17.43
X60.07Y14.89
X60.07Y12.35
X60.07Y9.81
X60.07Y7.27
X63.61Y83.77
X63.61Y81.23
X63.61Y78.69
X63.61Y76.15
X63.61Y73.61
X63.61Y71.07
X63.61Y68.53
X63.61Y65.99
X63.61Y63.45
X63.61Y60.91
X63.61Y58.37
X63.61Y55.83
X63.61Y53.29
X63.61Y37.75
X63.61Y35.21
X63.61Y32.67
X63.61Y30.13
X63.61Y27.59
X63.61Y25.05
X63.61Y22.51
X63.61Y19.97
X63.61Y17.43
X63.61Y14.89
X63.61Y12.35
X63.61Y9.81
X63.61Y7.27
X66.15Y53.29
X66.15Y37.75
X66.155Y55.83
X68.69Y53.29
X68.69Y37.75
X69.96Y76.15
X69.96Y14.89
X71.23Y53.29
X71.23Y37.75
X72.5Y76.15
X72.5Y14.89
X73.77Y53.29
X73.77Y37.75
X76.305Y35.21
X76.31Y53.29
X76.31Y37.75
X78.85Y83.77
X78.85Y81.23
X78.85Y78.69
X78.85Y76.15
X78.85Y73.61
X78.85Y71.07
X78.85Y68.53
X78.85Y65.99
X78.85Y63.45
X78.85Y60.91
X78.85Y58.37
X78.85Y55.83
X78.85Y53.29
X78.85Y37.75
X78.85Y35.21
X78.85Y32.67
X78.85Y30.13
X78.85Y27.59
X78.85Y25.05
X78.85Y22.51
X78.85Y19.97
X78.85Y17.43
X78.85Y14.89
X78.85Y12.35
X78.85Y9.81
X78.85Y7.27
X82.39Y83.77
X82.39Y81.23
X82.39Y78.69
X82.39Y76.15
X82.39Y73.61
X82.39Y71.07
X82.39Y68.53
X82.39Y65.99
X82.39Y63.45
X82.39Y60.91
X82.39Y58.37
X82.39Y55.83
X82.39Y53.29
X82.39Y37.75
X82.39Y35.21
X82.39Y32.67
X82.39Y30.13
X82.39Y27.59
X82.39Y25.05
X82.39Y22.51
X82.39Y19.97
X82.39Y17.43
X82.39Y14.89
X82.39Y12.35
X82.39Y9.81
X82.39Y7.27
X84.93Y53.29
X84.93Y37.75
X84.935Y55.83
X87.47Y53.29
X87.47Y37.75
X88.74Y76.15
X88.74Y14.89
X90.01Y53.29
X90.01Y37.75
X91.28Y76.15
X91.28Y14.89
X92.55Y53.29
X92.55Y37.75
X95.085Y35.21
X95.09Y53.29
X95.09Y37.75
X97.63Y83.77
X97.63Y81.23
X97.63Y78.69
X97.63Y76.15
X97.63Y73.61
X97.63Y71.07
X97.63Y68.53
X97.63Y65.99
X97.63Y63.45
X97.63Y60.91
X97.63Y58.37
X97.63Y55.83
X97.63Y53.29
X97.63Y37.75
X97.63Y35.21
X97.63Y32.67
X97.63Y30.13
X97.63Y27.59
X97.63Y25.05
X97.63Y22.51
X97.63Y19.97
X97.63Y17.43
X97.63Y14.89
X97.63Y12.35
X97.63Y9.81
X97.63Y7.27
T5
X2.5Y88.54
X2.5Y2.5
X102.4Y88.54
T3
X9.315Y83.25G85X9.315Y84.35
G05
X9.315Y79.45G85X9.315Y80.15
G05
X9.315Y11.59G85X9.315Y10.89
G05
X9.315Y7.79G85X9.315Y6.69
G05
X20.465Y83.25G85X20.465Y84.35
G05
X20.465Y79.45G85X20.465Y80.15
G05
X20.465Y11.59G85X20.465Y10.89
G05
X20.465Y7.79G85X20.465Y6.69
G05
X28.095Y83.25G85X28.095Y84.35
G05
X28.095Y79.45G85X28.095Y80.15
G05
X28.095Y11.59G85X28.095Y10.89
G05
X28.095Y7.79G85X28.095Y6.69
G05
X39.245Y83.25G85X39.245Y84.35
G05
X39.245Y79.45G85X39.245Y80.15
G05
X39.245Y11.59G85X39.245Y10.89
G05
X39.245Y7.79G85X39.245Y6.69
G05
X46.875Y83.25G85X46.875Y84.35
G05
X46.875Y79.45G85X46.875Y80.15
G05
X46.875Y11.59G85X46.875Y10.89
G05
X46.875Y7.79G85X46.875Y6.69
G05
X58.025Y83.25G85X58.025Y84.35
G05
X58.025Y79.45G85X58.025Y80.15
G05
X58.025Y11.59G85X58.025Y10.89
G05
X58.025Y7.79G85X58.025Y6.69
G05
X65.655Y83.25G85X65.655Y84.35
G05
X65.655Y79.45G85X65.655Y80.15
G05
X65.655Y11.59G85X65.655Y10.89
G05
X65.655Y7.79G85X65.655Y6.69
G05
X76.805Y83.25G85X76.805Y84.35
G05
X76.805Y79.45G85X76.805Y80.15
G05
X76.805Y11.59G85X76.805Y10.89
G05
X76.805Y7.79G85X76.805Y6.69
G05
X84.435Y83.25G85X84.435Y84.35
G05
X84.435Y79.45G85X84.435Y80.15
G05
X84.435Y11.59G85X84.435Y10.89
G05
X84.435Y7.79G85X84.435Y6.69
G05
X95.585Y83.25G85X95.585Y84.35
G05
X95.585Y79.45G85X95.585Y80.15
G05
X95.585Y11.59G85X95.585Y10.89
G05
X95.585Y7.79G85X95.585Y6.69
G05
T0
M30
